# Blender 4.5.0
# www.blender.org
mtllib bracket_close.mtl
o Text
v 0.020500 0.050000 0.371500
v 0.020500 0.050000 -0.371500
v -0.116500 0.050000 -0.371500
v -0.116500 0.050000 -0.451500
v 0.116500 0.050000 -0.451500
v 0.116500 0.050000 0.451500
v -0.116500 0.050000 0.451500
v -0.116500 0.050000 0.371500
v 0.020500 -0.050000 0.371500
v 0.020500 -0.050000 -0.371500
v -0.116500 -0.050000 -0.371500
v -0.116500 -0.050000 -0.451500
v 0.116500 -0.050000 -0.451500
v 0.116500 -0.050000 0.451500
v -0.116500 -0.050000 0.451500
v -0.116500 -0.050000 0.371500
v 0.020500 -0.050000 0.371500
v 0.020500 0.050000 0.371500
v 0.020500 -0.050000 -0.371500
v 0.020500 0.050000 -0.371500
v -0.116500 -0.050000 -0.371500
v -0.116500 0.050000 -0.371500
v -0.116500 -0.050000 -0.451500
v -0.116500 0.050000 -0.451500
v 0.116500 -0.050000 -0.451500
v 0.116500 0.050000 -0.451500
v 0.116500 -0.050000 0.451500
v 0.116500 0.050000 0.451500
v -0.116500 -0.050000 0.451500
v -0.116500 0.050000 0.451500
v -0.116500 -0.050000 0.371500
v -0.116500 0.050000 0.371500
vn -0.0000 1.0000 -0.0000
vn -0.0000 -1.0000 -0.0000
vn -0.7071 -0.0000 -0.7071
vn -0.7071 -0.0000 0.7071
vn 0.7071 -0.0000 -0.7071
vn 0.7071 -0.0000 0.7071
vt 0.285714 0.000000
vt 0.571429 0.000000
vt 0.428571 0.000000
vt 0.142857 0.000000
vt 0.714286 0.000000
vt 0.000000 0.000000
vt 0.857143 0.000000
vt 1.000000 0.000000
vt 0.000000 1.000000
vt 0.125000 1.000000
vt 0.125000 0.000000
vt 0.250000 1.000000
vt 0.250000 0.000000
vt 0.375000 1.000000
vt 0.375000 0.000000
vt 0.500000 1.000000
vt 0.500000 0.000000
vt 0.625000 1.000000
vt 0.625000 0.000000
vt 0.750000 1.000000
vt 0.750000 0.000000
vt 0.875000 1.000000
vt 0.875000 0.000000
vt 1.000000 1.000000
s 0
f 3/1/1 5/2/1 4/3/1
f 3/1/1 2/4/1 5/2/1
f 2/4/1 6/5/1 5/2/1
f 1/6/1 6/5/1 2/4/1
f 7/7/1 1/6/1 8/8/1
f 7/7/1 6/5/1 1/6/1
f 11/1/2 12/3/2 13/2/2
f 11/1/2 13/2/2 10/4/2
f 10/4/2 13/2/2 14/5/2
f 9/6/2 10/4/2 14/5/2
f 15/7/2 16/8/2 9/6/2
f 15/7/2 9/6/2 14/5/2
s 1
f 18/9/3 20/10/4 19/11/4 17/6/3
f 20/10/4 22/12/4 21/13/4 19/11/4
f 22/12/4 24/14/3 23/15/3 21/13/4
f 24/14/3 26/16/5 25/17/5 23/15/3
f 26/16/5 28/18/6 27/19/6 25/17/5
f 28/18/6 30/20/4 29/21/4 27/19/6
f 30/20/4 32/22/3 31/23/3 29/21/4
f 32/22/3 18/24/3 17/8/3 31/23/3
