# Blender 4.5.0
# www.blender.org
mtllib F_capital.mtl
o Text
v -0.084000 0.050000 -0.253000
v -0.084000 0.050000 -0.064000
v 0.182000 0.050000 -0.064000
v 0.182000 0.050000 0.024000
v -0.084000 0.050000 0.024000
v -0.084000 0.050000 0.341000
v -0.182000 0.050000 0.341000
v -0.182000 0.050000 -0.341000
v 0.182000 0.050000 -0.341000
v 0.182000 0.050000 -0.253000
v -0.084000 -0.050000 -0.253000
v -0.084000 -0.050000 -0.064000
v 0.182000 -0.050000 -0.064000
v 0.182000 -0.050000 0.024000
v -0.084000 -0.050000 0.024000
v -0.084000 -0.050000 0.341000
v -0.182000 -0.050000 0.341000
v -0.182000 -0.050000 -0.341000
v 0.182000 -0.050000 -0.341000
v 0.182000 -0.050000 -0.253000
v -0.084000 -0.050000 -0.253000
v -0.084000 0.050000 -0.253000
v -0.084000 -0.050000 -0.064000
v -0.084000 0.050000 -0.064000
v 0.182000 -0.050000 -0.064000
v 0.182000 0.050000 -0.064000
v 0.182000 -0.050000 0.024000
v 0.182000 0.050000 0.024000
v -0.084000 -0.050000 0.024000
v -0.084000 0.050000 0.024000
v -0.084000 -0.050000 0.341000
v -0.084000 0.050000 0.341000
v -0.182000 -0.050000 0.341000
v -0.182000 0.050000 0.341000
v -0.182000 -0.050000 -0.341000
v -0.182000 0.050000 -0.341000
v 0.182000 -0.050000 -0.341000
v 0.182000 0.050000 -0.341000
v 0.182000 -0.050000 -0.253000
v 0.182000 0.050000 -0.253000
vn -0.0000 1.0000 -0.0000
vn -0.0000 -1.0000 -0.0000
vn 0.7071 -0.0000 0.7071
vn 0.7071 -0.0000 -0.7071
vn -0.7071 -0.0000 0.7071
vn -0.7071 -0.0000 -0.7071
vt 0.666667 0.000000
vt 0.000000 0.000000
vt 0.777778 0.000000
vt 0.888889 0.000000
vt 1.000000 0.000000
vt 0.111111 0.000000
vt 0.444444 0.000000
vt 0.222222 0.000000
vt 0.333333 0.000000
vt 0.555556 0.000000
vt 0.000000 1.000000
vt 0.100000 1.000000
vt 0.100000 0.000000
vt 0.200000 1.000000
vt 0.200000 0.000000
vt 0.300000 1.000000
vt 0.300000 0.000000
vt 0.400000 1.000000
vt 0.400000 0.000000
vt 0.500000 1.000000
vt 0.500000 0.000000
vt 0.600000 1.000000
vt 0.600000 0.000000
vt 0.700000 1.000000
vt 0.700000 0.000000
vt 0.800000 1.000000
vt 0.800000 0.000000
vt 0.900000 1.000000
vt 0.900000 0.000000
vt 1.000000 1.000000
s 0
f 7/1/1 1/2/1 8/3/1
f 1/2/1 9/4/1 8/3/1
f 1/2/1 10/5/1 9/4/1
f 7/1/1 2/6/1 1/2/1
f 7/1/1 5/7/1 2/6/1
f 5/7/1 3/8/1 2/6/1
f 5/7/1 4/9/1 3/8/1
f 7/1/1 6/10/1 5/7/1
f 17/1/2 18/3/2 11/2/2
f 11/2/2 18/3/2 19/4/2
f 11/2/2 19/4/2 20/5/2
f 17/1/2 11/2/2 12/6/2
f 17/1/2 12/6/2 15/7/2
f 15/7/2 12/6/2 13/8/2
f 15/7/2 13/8/2 14/9/2
f 17/1/2 15/7/2 16/10/2
s 1
f 22/11/3 24/12/4 23/13/4 21/2/3
f 24/12/4 26/14/4 25/15/4 23/13/4
f 26/14/4 28/16/3 27/17/3 25/15/4
f 28/16/3 30/18/3 29/19/3 27/17/3
f 30/18/3 32/20/3 31/21/3 29/19/3
f 32/20/3 34/22/5 33/23/5 31/21/3
f 34/22/5 36/24/6 35/25/6 33/23/5
f 36/24/6 38/26/4 37/27/4 35/25/6
f 38/26/4 40/28/3 39/29/3 37/27/4
f 40/28/3 22/30/3 21/5/3 39/29/3
