# Blender 4.5.0
# www.blender.org
mtllib icosahedron.mtl
o Cube
v 3.315715 0.000000 -1.077324
v 0.916451 -1.832902 -2.820493
v -3.315715 0.000000 1.077324
v 1.832875 2.965664 0.000000
v 3.315715 0.000000 1.077324
v -2.049223 0.000000 2.820511
v 0.916451 -1.832902 2.820493
v 2.965652 -1.832897 0.000000
v 1.482821 -2.965674 1.077320
v 1.482821 -2.965674 -1.077320
v -2.965652 1.832896 0.000000
v -0.566376 -2.965674 1.743156
v -2.399266 -1.832898 1.743161
v -1.832875 -2.965664 0.000000
v -1.482821 2.965673 1.077320
v 0.000000 3.486344 0.000000
v 3.118278 1.559148 0.000000
v 0.963584 1.559162 -2.965656
v -0.566376 -2.965674 -1.743155
v 0.000000 0.000000 3.486344
v -2.522745 1.559161 -1.832860
v 2.049223 0.000000 2.820511
v -2.399266 -1.832898 -1.743162
v 2.049223 0.000000 -2.820511
v -2.522745 1.559161 1.832860
v 0.963584 1.559162 2.965657
v -2.049223 0.000000 -2.820511
v -0.916451 1.832902 -2.820493
v -3.315715 0.000000 -1.077324
v 2.522744 -1.559161 -1.832860
v -1.482821 2.965673 -1.077320
v -0.963584 -1.559162 -2.965656
v -3.118278 -1.559148 0.000000
v -0.963584 -1.559162 2.965657
v 2.522744 -1.559161 1.832860
v 2.399266 1.832897 -1.743162
v 0.000000 -3.486344 0.000000
v 0.000000 0.000000 -3.486344
v 0.566376 2.965674 -1.743155
v 0.566376 2.965674 1.743156
v 2.399266 1.832897 1.743161
v -0.916451 1.832902 2.820493
vn -0.3066 -0.1256 -0.9435
vn -0.3035 0.1876 -0.9342
vn -0.3035 0.1876 0.9342
vn -0.4089 -0.6617 0.6284
vn -0.5746 -0.3304 -0.7488
vn -0.4713 0.6617 -0.5831
vn 0.2680 0.9435 0.1947
vn -0.8897 -0.3304 0.3151
vn 0.7240 0.6617 0.1947
vn -0.4089 -0.6617 -0.6284
vn 0.5346 -0.3304 -0.7779
vn -0.4911 -0.7947 -0.3568
vn -0.0247 0.3304 0.9435
vn -0.5346 0.3304 -0.7779
vn 0.8026 -0.1256 -0.5831
vn 0.7947 0.1876 0.5773
vn 0.3313 -0.9435 -0.0000
vn -0.3313 0.9435 -0.0000
vn 0.5746 0.3304 -0.7488
vn 0.7240 0.6617 -0.1947
vn -0.7947 -0.1876 0.5773
vn 0.0385 0.6617 -0.7488
vn -0.1876 0.7947 0.5773
vn 0.3035 -0.1876 -0.9342
vn 0.8897 0.3304 -0.3151
vn 0.7947 0.1876 -0.5773
vn 0.0247 -0.3304 -0.9435
vn 0.4713 -0.6617 -0.5831
vn 0.6071 -0.7947 -0.0000
vn -0.8026 0.1256 0.5831
vn -0.9822 0.1876 -0.0000
vn 0.5746 0.3304 0.7488
vn -0.5746 -0.3304 0.7488
vn 0.9822 -0.1876 -0.0000
vn 0.9921 0.1256 -0.0000
vn -0.4713 0.6617 0.5831
vn -0.2680 -0.9435 0.1947
vn -0.1024 0.9435 0.3151
vn 0.3066 0.1256 -0.9435
vn -0.7947 -0.1876 -0.5773
vn -0.8897 -0.3304 -0.3151
vn -0.6071 0.7947 -0.0000
vn -0.9050 0.3304 0.2680
vn 0.7002 -0.6617 -0.2680
vn -0.5346 0.3304 0.7779
vn -0.7240 -0.6617 -0.1947
vn -0.0385 -0.6617 -0.7488
vn -0.7002 0.6617 -0.2680
vn 0.7002 -0.6617 0.2680
vn 0.8026 -0.1256 0.5831
vn 0.5346 -0.3304 0.7779
vn -0.9050 0.3304 -0.2680
vn 0.1876 -0.7947 0.5773
vn -0.0385 -0.6617 0.7488
vn 0.4911 0.7947 0.3568
vn 0.0247 -0.3304 0.9435
vn -0.3066 -0.1256 0.9435
vn 0.1024 -0.9435 0.3151
vn 0.1024 -0.9435 -0.3151
vn -0.9921 -0.1256 -0.0000
vn 0.9050 -0.3304 -0.2680
vn 0.3066 0.1256 0.9435
vn 0.4911 0.7947 -0.3568
vn -0.1876 0.7947 -0.5773
vn -0.7240 -0.6617 0.1947
vn 0.8897 0.3304 0.3151
vn -0.2680 -0.9435 -0.1947
vn 0.4089 0.6617 0.6284
vn -0.4911 -0.7947 0.3568
vn -0.7002 0.6617 0.2680
vn 0.9050 -0.3304 0.2680
vn 0.4089 0.6617 -0.6284
vn -0.1024 0.9435 -0.3151
vn 0.2680 0.9435 -0.1947
vn -0.0247 0.3304 -0.9435
vn -0.8026 0.1256 -0.5831
vn 0.4713 -0.6617 0.5831
vn 0.0385 0.6617 0.7488
vn 0.1876 -0.7947 -0.5773
vn 0.3035 -0.1876 0.9342
vt 0.636364 0.157461
vt 0.681818 0.236191
vt 0.590909 0.236191
vt 0.636364 0.314921
vt 0.045455 0.236191
vt 0.136365 0.236191
vt 0.090910 0.314921
vt 0.954545 0.078731
vt 1.000000 0.157461
vt 0.909091 0.157461
vt 0.727273 0.157461
vt 0.727273 0.314921
vt 0.681818 0.393651
vt 0.227273 0.393651
vt 0.318182 0.393651
vt 0.272728 0.472382
vt 0.818182 0.157461
vt 0.863636 0.236191
vt 0.272728 0.314921
vt 0.363637 0.314921
vt 0.681818 0.078731
vt 0.454546 0.157461
vt 0.545455 0.157461
vt 0.500000 0.236191
vt 0.772727 0.078731
vt 0.181819 0.314921
vt 0.409092 0.236191
vt 0.227273 0.236191
vt 0.318182 0.236191
vt 0.318182 0.078731
vt 0.363637 0.000000
vt 0.409092 0.078731
vt 0.772727 0.393651
vt 0.863636 0.393651
vt 0.818182 0.472382
vt 0.545455 0.314921
vt 0.454546 0.314921
vt 0.409092 0.393651
vt 0.954545 0.236191
vt 0.590909 0.393651
vt 0.045455 0.393651
vt 0.136365 0.393651
vt 0.500000 0.078731
vt 0.363637 0.157461
vt 0.909091 0.314921
vt 0.772727 0.236191
vt 0.818182 0.314921
vt 0.000000 0.314921
vt 0.909091 0.000000
vt 0.863636 0.078731
vt 0.090910 0.472382
vt 0.590909 0.078731
vt 0.272728 0.157461
vt 0.181819 0.157461
vt 0.136365 0.078731
vt 0.227273 0.078731
vt 0.090910 0.157461
vt 0.181819 0.000000
vt 0.545455 0.000000
vt 0.500000 0.393651
vt 0.727273 0.000000
vt 0.636364 0.472382
vt 0.454546 0.472382
s 0
usemtl Material
f 32/1/1 27/2/1 38/3/1
f 38/3/2 27/2/2 28/4/2
f 6/5/3 20/6/3 42/7/3
f 12/8/4 34/9/4 13/10/4
f 32/1/5 23/11/5 27/2/5
f 28/4/6 21/12/6 31/13/6
f 40/14/7 4/15/7 16/16/7
f 33/17/8 13/10/8 3/18/8
f 41/19/9 17/20/9 4/15/9
f 19/21/10 23/11/10 32/1/10
f 30/22/11 2/23/11 24/24/11
f 19/21/12 14/25/12 23/11/12
f 20/6/13 26/26/13 42/7/13
f 27/2/14 21/12/14 28/4/14
f 30/22/15 24/24/15 1/27/15
f 22/28/16 5/29/16 41/19/16
f 9/30/17 37/31/17 10/32/17
f 31/33/18 15/34/18 16/35/18
f 24/24/19 18/36/19 36/37/19
f 17/20/20 36/37/20 4/38/20
f 3/18/21 13/10/21 6/39/21
f 18/36/22 28/4/22 39/40/22
f 15/41/23 42/7/23 40/42/23
f 24/24/24 2/23/24 38/3/24
f 1/27/25 36/37/25 17/20/25
f 1/27/26 24/24/26 36/37/26
f 2/23/27 32/1/27 38/3/27
f 10/43/28 2/23/28 30/22/28
f 8/44/29 9/30/29 10/32/29
f 3/18/30 6/39/30 25/45/30
f 29/46/31 3/18/31 11/47/31
f 22/28/32 41/19/32 26/26/32
f 13/10/33 34/9/33 6/39/33
f 5/29/34 8/44/34 1/27/34
f 5/29/35 1/27/35 17/20/35
f 25/48/36 42/7/36 15/41/36
f 37/49/37 12/8/37 14/50/37
f 15/41/38 40/42/38 16/51/38
f 24/24/39 38/3/39 18/36/39
f 27/2/40 23/11/40 29/46/40
f 23/11/41 33/17/41 29/46/41
f 31/33/42 11/47/42 15/34/42
f 3/18/43 25/45/43 11/47/43
f 8/44/44 10/32/44 30/22/44
f 6/5/45 42/7/45 25/48/45
f 14/25/46 33/17/46 23/11/46
f 19/52/47 32/1/47 2/23/47
f 21/12/48 11/47/48 31/33/48
f 35/53/49 9/30/49 8/44/49
f 35/53/50 5/29/50 22/28/50
f 7/54/51 35/53/51 22/28/51
f 29/46/52 11/47/52 21/12/52
f 12/55/53 9/56/53 7/54/53
f 12/55/54 7/54/54 34/57/54
f 40/14/55 41/19/55 4/15/55
f 34/57/56 7/54/56 20/6/56
f 34/57/57 20/6/57 6/5/57
f 37/58/58 9/56/58 12/55/58
f 37/59/59 19/52/59 10/43/59
f 33/17/60 3/18/60 29/46/60
f 8/44/61 30/22/61 1/27/61
f 20/6/62 22/28/62 26/26/62
f 4/38/63 36/37/63 39/60/63
f 39/40/64 28/4/64 31/13/64
f 14/50/65 13/10/65 33/17/65
f 5/29/66 17/20/66 41/19/66
f 37/61/67 14/25/67 19/21/67
f 26/26/68 41/19/68 40/14/68
f 14/50/69 12/8/69 13/10/69
f 11/47/70 25/45/70 15/34/70
f 35/53/71 8/44/71 5/29/71
f 36/37/72 18/36/72 39/60/72
f 39/40/73 31/13/73 16/62/73
f 4/38/74 39/60/74 16/63/74
f 38/3/75 28/4/75 18/36/75
f 27/2/76 29/46/76 21/12/76
f 9/56/77 35/53/77 7/54/77
f 42/7/78 26/26/78 40/42/78
f 10/43/79 19/52/79 2/23/79
f 20/6/80 7/54/80 22/28/80
