<?xml version="1.0" standalone="no"?><!DOCTYPE svg PUBLIC "-//W3C//DTD SVG 1.1//EN" "http://www.w3.org/Graphics/SVG/1.1/DTD/svg11.dtd"><svg t="1760011769274" class="icon" viewBox="0 0 1024 1024" version="1.1" xmlns="http://www.w3.org/2000/svg" p-id="4022" xmlns:xlink="http://www.w3.org/1999/xlink" width="200" height="200"><path d="M293.312 896a25.6 25.6 0 0 1-25.6-25.6V416H147.264a25.6 25.6 0 0 1-20.224-41.344l171.648-220.672a25.6 25.6 0 0 1 40.448 0L510.72 374.656a25.6 25.6 0 0 1-20.16 41.344H370.176v454.4a25.6 25.6 0 0 1-25.6 25.6z m339.2-32a25.6 25.6 0 0 1-25.6-25.6v-44.8a25.6 25.6 0 0 1 25.6-25.6h51.2a25.6 25.6 0 0 1 25.6 25.6v44.8a25.6 25.6 0 0 1-25.6 25.6z m0-192a25.6 25.6 0 0 1-25.6-25.6v-44.8a25.6 25.6 0 0 1 25.6-25.6h115.2a25.6 25.6 0 0 1 25.6 25.6v44.8a25.6 25.6 0 0 1-25.6 25.6z m0-192a25.6 25.6 0 0 1-25.6-25.6v-44.8a25.6 25.6 0 0 1 25.6-25.6h179.2a25.6 25.6 0 0 1 25.6 25.6v44.8a25.6 25.6 0 0 1-25.6 25.6z m0-192a25.6 25.6 0 0 1-25.6-25.6v-44.8a25.6 25.6 0 0 1 25.6-25.6h243.2a25.6 25.6 0 0 1 25.6 25.6v44.8a25.6 25.6 0 0 1-25.6 25.6z" fill="#5B70AB" p-id="4023"></path></svg>
