<?xml version="1.0" standalone="no"?><!DOCTYPE svg PUBLIC "-//W3C//DTD SVG 1.1//EN" "http://www.w3.org/Graphics/SVG/1.1/DTD/svg11.dtd"><svg t="1760011790877" class="icon" viewBox="0 0 1024 1024" version="1.1" xmlns="http://www.w3.org/2000/svg" p-id="7483" xmlns:xlink="http://www.w3.org/1999/xlink" width="200" height="200"><path d="M298.688 870.016l-171.648-220.736A25.6 25.6 0 0 1 147.2 608h120.512V153.6a25.6 25.6 0 0 1 25.6-25.6h51.2a25.6 25.6 0 0 1 25.6 25.6v454.4h120.448a25.6 25.6 0 0 1 20.224 41.28L339.2 870.016a25.6 25.6 0 0 1-40.448 0zM632.512 832a25.6 25.6 0 0 1-25.6-25.6v-44.8a25.6 25.6 0 0 1 25.6-25.6h243.2a25.6 25.6 0 0 1 25.6 25.6v44.8a25.6 25.6 0 0 1-25.6 25.6z m0-192a25.6 25.6 0 0 1-25.6-25.6v-44.8a25.6 25.6 0 0 1 25.6-25.6h179.2a25.6 25.6 0 0 1 25.6 25.6v44.8a25.6 25.6 0 0 1-25.6 25.6z m0-192a25.6 25.6 0 0 1-25.6-25.6v-44.8a25.6 25.6 0 0 1 25.6-25.6h115.2a25.6 25.6 0 0 1 25.6 25.6v44.8a25.6 25.6 0 0 1-25.6 25.6z m0-192a25.6 25.6 0 0 1-25.6-25.6v-44.8a25.6 25.6 0 0 1 25.6-25.6h51.2a25.6 25.6 0 0 1 25.6 25.6v44.8a25.6 25.6 0 0 1-25.6 25.6z" fill="#5B70AB" p-id="7484"></path></svg>
