<?xml version="1.0" standalone="no"?><!DOCTYPE svg PUBLIC "-//W3C//DTD SVG 1.1//EN" "http://www.w3.org/Graphics/SVG/1.1/DTD/svg11.dtd"><svg t="1758781542072" class="icon" viewBox="0 0 1024 1024" version="1.1" xmlns="http://www.w3.org/2000/svg" p-id="18214" xmlns:xlink="http://www.w3.org/1999/xlink" width="200" height="200"><path d="M163.84 60.672C163.84 29.312 189.184 3.84 220.608 3.84h531.008a56.896 56.896 0 1 1 0 113.792H220.672A56.896 56.896 0 0 1 163.84 60.672z" fill="#538CDF" p-id="18215"></path><path d="M220.672 766.08l242.752 250.368c7.552 7.552 30.336 7.552 37.888 0l250.304-250.368c15.168-15.168 7.616-45.44-15.168-45.44h-151.68V333.696c-7.616-15.168-15.168-30.336-30.336-30.336H417.92c-15.168 0-22.784 15.168-22.784 30.336v394.432H235.84c-22.72-7.616-37.888 22.72-15.168 37.888z" fill="#538CDF" p-id="18216"></path></svg>
