<?xml version="1.0" standalone="no"?><!DOCTYPE svg PUBLIC "-//W3C//DTD SVG 1.1//EN" "http://www.w3.org/Graphics/SVG/1.1/DTD/svg11.dtd"><svg t="1758772604534" class="icon" viewBox="0 0 1024 1024" version="1.1" xmlns="http://www.w3.org/2000/svg" p-id="14010" xmlns:xlink="http://www.w3.org/1999/xlink" width="200" height="200"><path d="M768 102.4H256C168.96 102.4 102.4 168.96 102.4 256v512c0 87.04 66.56 153.6 153.6 153.6h512c87.04 0 153.6-66.56 153.6-153.6V256c0-87.04-66.56-153.6-153.6-153.6z m51.2 665.6c0 30.72-20.48 51.2-51.2 51.2H256c-30.72 0-51.2-20.48-51.2-51.2V256c0-30.72 20.48-51.2 51.2-51.2h512c30.72 0 51.2 20.48 51.2 51.2v512z" fill="#42526E" p-id="14011"></path></svg>
