<?xml version="1.0" standalone="no"?><!DOCTYPE svg PUBLIC "-//W3C//DTD SVG 1.1//EN" "http://www.w3.org/Graphics/SVG/1.1/DTD/svg11.dtd"><svg t="1758781586727" class="icon" viewBox="0 0 1024 1024" version="1.1" xmlns="http://www.w3.org/2000/svg" p-id="20883" xmlns:xlink="http://www.w3.org/1999/xlink" width="200" height="200"><path d="M966.4 416L569.6 25.6c-32-32-83.2-32-115.2 0L57.6 416c-51.2 44.8-12.8 134.4 57.6 134.4h192v128c0 44.8 38.4 76.8 76.8 76.8h256c44.8 0 76.8-32 76.8-76.8v-128h192c70.4 0 108.8-89.6 57.6-134.4z m-627.2 403.2h339.2c19.2 0 32 12.8 32 32s-12.8 32-32 32H339.2c-19.2 0-32-12.8-32-32s12.8-32 32-32z m0 134.4h339.2c19.2 0 32 12.8 32 32s-12.8 32-32 32H339.2c-19.2 0-32-12.8-32-32 0-12.8 12.8-32 32-32z" fill="#3a8dff" p-id="20884"></path></svg>
