<?xml version="1.0" standalone="no"?><!DOCTYPE svg PUBLIC "-//W3C//DTD SVG 1.1//EN" "http://www.w3.org/Graphics/SVG/1.1/DTD/svg11.dtd"><svg t="1758772546908" class="icon" viewBox="0 0 1024 1024" version="1.1" xmlns="http://www.w3.org/2000/svg" p-id="9455" xmlns:xlink="http://www.w3.org/1999/xlink" width="200" height="200"><path d="M706.56 509.44H550.4V243.2c0-17.92-15.36-33.28-33.28-33.28-17.92 0-33.28 15.36-33.28 33.28v300.8c0 17.92 15.36 33.28 33.28 33.28h190.72c19.2 0 33.28-15.36 33.28-33.28-1.28-19.2-15.36-34.56-34.56-34.56z" fill="#4D4D4D" p-id="9456"></path><path d="M843.52 165.12l-1.28-2.56c-78.08-78.08-188.16-126.72-308.48-126.72-120.32 0-229.12 48.64-307.2 126.72-79.36 79.36-128 188.16-128 307.2 0 120.32 48.64 229.12 128 307.2 79.36 79.36 188.16 128 307.2 128s227.84-48.64 305.92-125.44l2.56-1.28c78.08-79.36 128-188.16 128-307.2 0-120.32-48.64-227.84-126.72-305.92z m-48.64 565.76l-1.28 1.28c-66.56 65.28-158.72 106.24-259.84 106.24s-193.28-42.24-259.84-107.52C207.36 664.32 166.4 572.16 166.4 469.76c0-102.4 40.96-193.28 107.52-261.12C340.48 143.36 432.64 102.4 535.04 102.4c101.12 0 193.28 40.96 261.12 107.52l1.28 2.56c65.28 66.56 106.24 157.44 106.24 258.56 0 101.12-42.24 193.28-108.8 259.84z" fill="#4D4D4D" p-id="9457"></path></svg>
