# Blender 4.5.0
# www.blender.org
mtllib doublequote.mtl
o Text
v -0.129000 0.050000 -0.127000
v -0.041000 0.050000 -0.127000
v -0.041000 0.050000 -0.010000
v -0.064000 0.050000 0.127000
v -0.106000 0.050000 0.127000
v -0.129000 0.050000 -0.010000
v 0.041000 0.050000 -0.127000
v 0.129000 0.050000 -0.127000
v 0.129000 0.050000 -0.010000
v 0.106000 0.050000 0.127000
v 0.064000 0.050000 0.127000
v 0.041000 0.050000 -0.010000
v -0.129000 -0.050000 -0.127000
v -0.041000 -0.050000 -0.127000
v -0.041000 -0.050000 -0.010000
v -0.064000 -0.050000 0.127000
v -0.106000 -0.050000 0.127000
v -0.129000 -0.050000 -0.010000
v 0.041000 -0.050000 -0.127000
v 0.129000 -0.050000 -0.127000
v 0.129000 -0.050000 -0.010000
v 0.106000 -0.050000 0.127000
v 0.064000 -0.050000 0.127000
v 0.041000 -0.050000 -0.010000
v 0.041000 -0.050000 -0.127000
v 0.041000 0.050000 -0.127000
v 0.129000 -0.050000 -0.127000
v 0.129000 0.050000 -0.127000
v 0.129000 -0.050000 -0.010000
v 0.129000 0.050000 -0.010000
v 0.106000 -0.050000 0.127000
v 0.106000 0.050000 0.127000
v 0.064000 -0.050000 0.127000
v 0.064000 0.050000 0.127000
v 0.041000 -0.050000 -0.010000
v 0.041000 0.050000 -0.010000
v -0.129000 -0.050000 -0.127000
v -0.129000 0.050000 -0.127000
v -0.041000 -0.050000 -0.127000
v -0.041000 0.050000 -0.127000
v -0.041000 -0.050000 -0.010000
v -0.041000 0.050000 -0.010000
v -0.064000 -0.050000 0.127000
v -0.064000 0.050000 0.127000
v -0.106000 -0.050000 0.127000
v -0.106000 0.050000 0.127000
v -0.129000 -0.050000 -0.010000
v -0.129000 0.050000 -0.010000
vn -0.0000 1.0000 -0.0000
vn -0.0000 -1.0000 -0.0000
vn -0.7071 -0.0000 -0.7071
vn 0.7071 -0.0000 -0.7071
vn 0.9965 -0.0000 0.0831
vn 0.6459 -0.0000 0.7634
vn -0.6459 -0.0000 0.7634
vn -0.9965 -0.0000 0.0831
vt 1.000000 0.000000
vt 0.636364 0.000000
vt 0.545455 0.000000
vt 0.727273 0.000000
vt 0.909091 0.000000
vt 0.818182 0.000000
vt 0.454545 0.000000
vt 0.090909 0.000000
vt 0.000000 0.000000
vt 0.181818 0.000000
vt 0.363636 0.000000
vt 0.272727 0.000000
vt 0.000000 1.000000
vt 0.166667 1.000000
vt 0.166667 0.000000
vt 0.333333 1.000000
vt 0.333333 0.000000
vt 0.500000 1.000000
vt 0.500000 0.000000
vt 0.666667 1.000000
vt 0.666667 0.000000
vt 0.833333 1.000000
vt 0.833333 0.000000
vt 1.000000 1.000000
s 0
f 12/1/1 8/2/1 7/3/1
f 12/1/1 9/4/1 8/2/1
f 11/5/1 9/4/1 12/1/1
f 11/5/1 10/6/1 9/4/1
f 6/7/1 2/8/1 1/9/1
f 6/7/1 3/10/1 2/8/1
f 5/11/1 3/10/1 6/7/1
f 5/11/1 4/12/1 3/10/1
f 24/1/2 19/3/2 20/2/2
f 24/1/2 20/2/2 21/4/2
f 23/5/2 24/1/2 21/4/2
f 23/5/2 21/4/2 22/6/2
f 18/7/2 13/9/2 14/8/2
f 18/7/2 14/8/2 15/10/2
f 17/11/2 18/7/2 15/10/2
f 17/11/2 15/10/2 16/12/2
s 1
f 26/13/3 28/14/4 27/15/4 25/9/3
f 28/14/4 30/16/5 29/17/5 27/15/4
f 30/16/5 32/18/6 31/19/6 29/17/5
f 32/18/6 34/20/7 33/21/7 31/19/6
f 34/20/7 36/22/8 35/23/8 33/21/7
f 36/22/8 26/24/3 25/1/3 35/23/8
f 38/13/3 40/14/4 39/15/4 37/9/3
f 40/14/4 42/16/5 41/17/5 39/15/4
f 42/16/5 44/18/6 43/19/6 41/17/5
f 44/18/6 46/20/7 45/21/7 43/19/6
f 46/20/7 48/22/8 47/23/8 45/21/7
f 48/22/8 38/24/3 37/1/3 47/23/8
