# Blender 4.5.0
# www.blender.org
mtllib E_capital.mtl
o Text
v -0.100000 0.050000 -0.253000
v -0.100000 0.050000 -0.047000
v 0.179000 0.050000 -0.047000
v 0.179000 0.050000 0.041000
v -0.100000 0.050000 0.041000
v -0.100000 0.050000 0.253000
v 0.198000 0.050000 0.253000
v 0.198000 0.050000 0.341000
v -0.198000 0.050000 0.341000
v -0.198000 0.050000 -0.341000
v 0.189000 0.050000 -0.341000
v 0.189000 0.050000 -0.253000
v -0.100000 -0.050000 -0.253000
v -0.100000 -0.050000 -0.047000
v 0.179000 -0.050000 -0.047000
v 0.179000 -0.050000 0.041000
v -0.100000 -0.050000 0.041000
v -0.100000 -0.050000 0.253000
v 0.198000 -0.050000 0.253000
v 0.198000 -0.050000 0.341000
v -0.198000 -0.050000 0.341000
v -0.198000 -0.050000 -0.341000
v 0.189000 -0.050000 -0.341000
v 0.189000 -0.050000 -0.253000
v -0.100000 -0.050000 -0.253000
v -0.100000 0.050000 -0.253000
v -0.100000 -0.050000 -0.047000
v -0.100000 0.050000 -0.047000
v 0.179000 -0.050000 -0.047000
v 0.179000 0.050000 -0.047000
v 0.179000 -0.050000 0.041000
v 0.179000 0.050000 0.041000
v -0.100000 -0.050000 0.041000
v -0.100000 0.050000 0.041000
v -0.100000 -0.050000 0.253000
v -0.100000 0.050000 0.253000
v 0.198000 -0.050000 0.253000
v 0.198000 0.050000 0.253000
v 0.198000 -0.050000 0.341000
v 0.198000 0.050000 0.341000
v -0.198000 -0.050000 0.341000
v -0.198000 0.050000 0.341000
v -0.198000 -0.050000 -0.341000
v -0.198000 0.050000 -0.341000
v 0.189000 -0.050000 -0.341000
v 0.189000 0.050000 -0.341000
v 0.189000 -0.050000 -0.253000
v 0.189000 0.050000 -0.253000
vn -0.0000 1.0000 -0.0000
vn -0.0000 -1.0000 -0.0000
vn 0.7071 -0.0000 0.7071
vn 0.7071 -0.0000 -0.7071
vn -0.7071 -0.0000 0.7071
vn -0.7071 -0.0000 -0.7071
vt 0.727273 0.000000
vt 0.000000 0.000000
vt 0.818182 0.000000
vt 0.909091 0.000000
vt 1.000000 0.000000
vt 0.090909 0.000000
vt 0.363636 0.000000
vt 0.181818 0.000000
vt 0.272727 0.000000
vt 0.454545 0.000000
vt 0.545455 0.000000
vt 0.636364 0.000000
vt 0.000000 1.000000
vt 0.083333 1.000000
vt 0.083333 0.000000
vt 0.166667 1.000000
vt 0.166667 0.000000
vt 0.250000 1.000000
vt 0.250000 0.000000
vt 0.333333 1.000000
vt 0.333333 0.000000
vt 0.416667 1.000000
vt 0.416667 0.000000
vt 0.500000 1.000000
vt 0.500000 0.000000
vt 0.583333 1.000000
vt 0.583333 0.000000
vt 0.666667 1.000000
vt 0.666667 0.000000
vt 0.750000 1.000000
vt 0.750000 0.000000
vt 0.833333 1.000000
vt 0.833333 0.000000
vt 0.916667 1.000000
vt 0.916667 0.000000
vt 1.000000 1.000000
s 0
f 9/1/1 1/2/1 10/3/1
f 1/2/1 11/4/1 10/3/1
f 1/2/1 12/5/1 11/4/1
f 9/1/1 2/6/1 1/2/1
f 9/1/1 5/7/1 2/6/1
f 5/7/1 3/8/1 2/6/1
f 5/7/1 4/9/1 3/8/1
f 9/1/1 6/10/1 5/7/1
f 9/1/1 7/11/1 6/10/1
f 9/1/1 8/12/1 7/11/1
f 21/1/2 22/3/2 13/2/2
f 13/2/2 22/3/2 23/4/2
f 13/2/2 23/4/2 24/5/2
f 21/1/2 13/2/2 14/6/2
f 21/1/2 14/6/2 17/7/2
f 17/7/2 14/6/2 15/8/2
f 17/7/2 15/8/2 16/9/2
f 21/1/2 17/7/2 18/10/2
f 21/1/2 18/10/2 19/11/2
f 21/1/2 19/11/2 20/12/2
s 1
f 26/13/3 28/14/4 27/15/4 25/2/3
f 28/14/4 30/16/4 29/17/4 27/15/4
f 30/16/4 32/18/3 31/19/3 29/17/4
f 32/18/3 34/20/3 33/21/3 31/19/3
f 34/20/3 36/22/4 35/23/4 33/21/3
f 36/22/4 38/24/4 37/25/4 35/23/4
f 38/24/4 40/26/3 39/27/3 37/25/4
f 40/26/3 42/28/5 41/29/5 39/27/3
f 42/28/5 44/30/6 43/31/6 41/29/5
f 44/30/6 46/32/4 45/33/4 43/31/6
f 46/32/4 48/34/3 47/35/3 45/33/4
f 48/34/3 26/36/3 25/5/3 47/35/3
