# Blender 4.5.0
# www.blender.org
mtllib paren_open.mtl
o Text
v 0.070500 0.050000 0.462000
v 0.041685 0.050000 0.431330
v 0.014810 0.050000 0.398472
v -0.010016 0.050000 0.363656
v -0.032685 0.050000 0.327111
v -0.053091 0.050000 0.289066
v -0.071125 0.050000 0.249750
v -0.086680 0.050000 0.209392
v -0.099648 0.050000 0.168222
v -0.109922 0.050000 0.126469
v -0.117394 0.050000 0.084361
v -0.121955 0.050000 0.042128
v -0.123500 0.050000 -0.000000
v -0.121955 0.050000 -0.042129
v -0.117394 0.050000 -0.084361
v -0.109922 0.050000 -0.126469
v -0.099648 0.050000 -0.168222
v -0.086680 0.050000 -0.209392
v -0.071125 0.050000 -0.249750
v -0.053091 0.050000 -0.289066
v -0.032685 0.050000 -0.327111
v -0.010016 0.050000 -0.363656
v 0.014810 0.050000 -0.398472
v 0.041685 0.050000 -0.431330
v 0.070500 0.050000 -0.462000
v 0.123500 0.050000 -0.462000
v 0.100290 0.050000 -0.429267
v 0.079153 0.050000 -0.395556
v 0.060078 0.050000 -0.360844
v 0.043056 0.050000 -0.325111
v 0.028075 0.050000 -0.288337
v 0.015125 0.050000 -0.250500
v 0.004196 0.050000 -0.211580
v -0.004722 0.050000 -0.171556
v -0.011641 0.050000 -0.130406
v -0.016569 0.050000 -0.088111
v -0.019519 0.050000 -0.044649
v -0.020500 0.050000 -0.000000
v -0.019519 0.050000 0.044649
v -0.016569 0.050000 0.088111
v -0.011641 0.050000 0.130406
v -0.004722 0.050000 0.171556
v 0.004196 0.050000 0.211580
v 0.015125 0.050000 0.250500
v 0.028075 0.050000 0.288337
v 0.043056 0.050000 0.325111
v 0.060078 0.050000 0.360844
v 0.079153 0.050000 0.395556
v 0.100290 0.050000 0.429267
v 0.123500 0.050000 0.462000
v 0.070500 -0.050000 0.462000
v 0.041685 -0.050000 0.431330
v 0.014810 -0.050000 0.398472
v -0.010016 -0.050000 0.363656
v -0.032685 -0.050000 0.327111
v -0.053091 -0.050000 0.289066
v -0.071125 -0.050000 0.249750
v -0.086680 -0.050000 0.209392
v -0.099648 -0.050000 0.168222
v -0.109922 -0.050000 0.126469
v -0.117394 -0.050000 0.084361
v -0.121955 -0.050000 0.042128
v -0.123500 -0.050000 -0.000000
v -0.121955 -0.050000 -0.042129
v -0.117394 -0.050000 -0.084361
v -0.109922 -0.050000 -0.126469
v -0.099648 -0.050000 -0.168222
v -0.086680 -0.050000 -0.209392
v -0.071125 -0.050000 -0.249750
v -0.053091 -0.050000 -0.289066
v -0.032685 -0.050000 -0.327111
v -0.010016 -0.050000 -0.363656
v 0.014810 -0.050000 -0.398472
v 0.041685 -0.050000 -0.431330
v 0.070500 -0.050000 -0.462000
v 0.123500 -0.050000 -0.462000
v 0.100290 -0.050000 -0.429267
v 0.079153 -0.050000 -0.395556
v 0.060078 -0.050000 -0.360844
v 0.043056 -0.050000 -0.325111
v 0.028075 -0.050000 -0.288337
v 0.015125 -0.050000 -0.250500
v 0.004196 -0.050000 -0.211580
v -0.004722 -0.050000 -0.171556
v -0.011641 -0.050000 -0.130406
v -0.016569 -0.050000 -0.088111
v -0.019519 -0.050000 -0.044649
v -0.020500 -0.050000 -0.000000
v -0.019519 -0.050000 0.044649
v -0.016569 -0.050000 0.088111
v -0.011641 -0.050000 0.130406
v -0.004722 -0.050000 0.171556
v 0.004196 -0.050000 0.211580
v 0.015125 -0.050000 0.250500
v 0.028075 -0.050000 0.288337
v 0.043056 -0.050000 0.325111
v 0.060078 -0.050000 0.360844
v 0.079153 -0.050000 0.395556
v 0.100290 -0.050000 0.429267
v 0.123500 -0.050000 0.462000
v 0.070500 -0.050000 0.462000
v 0.070500 0.050000 0.462000
v 0.041685 -0.050000 0.431330
v 0.041685 0.050000 0.431330
v 0.014810 -0.050000 0.398472
v 0.014810 0.050000 0.398472
v -0.010016 -0.050000 0.363656
v -0.010016 0.050000 0.363656
v -0.032685 -0.050000 0.327111
v -0.032685 0.050000 0.327111
v -0.053091 -0.050000 0.289066
v -0.053091 0.050000 0.289066
v -0.071125 -0.050000 0.249750
v -0.071125 0.050000 0.249750
v -0.086680 -0.050000 0.209392
v -0.086680 0.050000 0.209392
v -0.099648 -0.050000 0.168222
v -0.099648 0.050000 0.168222
v -0.109922 -0.050000 0.126469
v -0.109922 0.050000 0.126469
v -0.117394 -0.050000 0.084361
v -0.117394 0.050000 0.084361
v -0.121955 -0.050000 0.042128
v -0.121955 0.050000 0.042128
v -0.123500 -0.050000 -0.000000
v -0.123500 0.050000 -0.000000
v -0.121955 -0.050000 -0.042129
v -0.121955 0.050000 -0.042129
v -0.117394 -0.050000 -0.084361
v -0.117394 0.050000 -0.084361
v -0.109922 -0.050000 -0.126469
v -0.109922 0.050000 -0.126469
v -0.099648 -0.050000 -0.168222
v -0.099648 0.050000 -0.168222
v -0.086680 -0.050000 -0.209392
v -0.086680 0.050000 -0.209392
v -0.071125 -0.050000 -0.249750
v -0.071125 0.050000 -0.249750
v -0.053091 -0.050000 -0.289066
v -0.053091 0.050000 -0.289066
v -0.032685 -0.050000 -0.327111
v -0.032685 0.050000 -0.327111
v -0.010016 -0.050000 -0.363656
v -0.010016 0.050000 -0.363656
v 0.014810 -0.050000 -0.398472
v 0.014810 0.050000 -0.398472
v 0.041685 -0.050000 -0.431330
v 0.041685 0.050000 -0.431330
v 0.070500 -0.050000 -0.462000
v 0.070500 0.050000 -0.462000
v 0.123500 -0.050000 -0.462000
v 0.123500 0.050000 -0.462000
v 0.100290 -0.050000 -0.429267
v 0.100290 0.050000 -0.429267
v 0.079153 -0.050000 -0.395556
v 0.079153 0.050000 -0.395556
v 0.060078 -0.050000 -0.360844
v 0.060078 0.050000 -0.360844
v 0.043056 -0.050000 -0.325111
v 0.043056 0.050000 -0.325111
v 0.028075 -0.050000 -0.288337
v 0.028075 0.050000 -0.288337
v 0.015125 -0.050000 -0.250500
v 0.015125 0.050000 -0.250500
v 0.004196 -0.050000 -0.211580
v 0.004196 0.050000 -0.211580
v -0.004722 -0.050000 -0.171556
v -0.004722 0.050000 -0.171556
v -0.011641 -0.050000 -0.130406
v -0.011641 0.050000 -0.130406
v -0.016569 -0.050000 -0.088111
v -0.016569 0.050000 -0.088111
v -0.019519 -0.050000 -0.044649
v -0.019519 0.050000 -0.044649
v -0.020500 -0.050000 -0.000000
v -0.020500 0.050000 -0.000000
v -0.019519 -0.050000 0.044649
v -0.019519 0.050000 0.044649
v -0.016569 -0.050000 0.088111
v -0.016569 0.050000 0.088111
v -0.011641 -0.050000 0.130406
v -0.011641 0.050000 0.130406
v -0.004722 -0.050000 0.171556
v -0.004722 0.050000 0.171556
v 0.004196 -0.050000 0.211580
v 0.004196 0.050000 0.211580
v 0.015125 -0.050000 0.250500
v 0.015125 0.050000 0.250500
v 0.028075 -0.050000 0.288337
v 0.028075 0.050000 0.288337
v 0.043056 -0.050000 0.325111
v 0.043056 0.050000 0.325111
v 0.060078 -0.050000 0.360844
v 0.060078 0.050000 0.360844
v 0.079153 -0.050000 0.395556
v 0.079153 0.050000 0.395556
v 0.100290 -0.050000 0.429267
v 0.100290 0.050000 0.429267
v 0.123500 -0.050000 0.462000
v 0.123500 0.050000 0.462000
vn -0.0000 1.0000 -0.0000
vn -0.0000 -1.0000 -0.0000
vn -0.3970 -0.0000 0.9178
vn -0.7519 -0.0000 0.6593
vn -0.7946 -0.0000 0.6072
vn -0.8324 -0.0000 0.5541
vn -0.8659 -0.0000 0.5001
vn -0.8955 -0.0000 0.4450
vn -0.9215 -0.0000 0.3885
vn -0.9439 -0.0000 0.3302
vn -0.9629 -0.0000 0.2698
vn -0.9784 -0.0000 0.2069
vn -0.9900 -0.0000 0.1411
vn -0.9974 -0.0000 0.0721
vn -1.0000 -0.0000 -0.0000
vn -0.9974 -0.0000 -0.0721
vn -0.9900 -0.0000 -0.1411
vn -0.9784 -0.0000 -0.2069
vn -0.9629 -0.0000 -0.2698
vn -0.9439 -0.0000 -0.3302
vn -0.9215 -0.0000 -0.3885
vn -0.8955 -0.0000 -0.4450
vn -0.8659 -0.0000 -0.5001
vn -0.8324 -0.0000 -0.5541
vn -0.7946 -0.0000 -0.6072
vn -0.7519 -0.0000 -0.6593
vn -0.3970 -0.0000 -0.9178
vn 0.8884 -0.0000 -0.4591
vn 0.8318 -0.0000 0.5550
vn 0.8622 -0.0000 0.5066
vn 0.8900 -0.0000 0.4560
vn 0.9148 -0.0000 0.4038
vn 0.9365 -0.0000 0.3507
vn 0.9548 -0.0000 0.2972
vn 0.9698 -0.0000 0.2440
vn 0.9815 -0.0000 0.1917
vn 0.9900 -0.0000 0.1408
vn 0.9958 -0.0000 0.0918
vn 0.9990 -0.0000 0.0448
vn 1.0000 -0.0000 -0.0000
vn 0.9990 -0.0000 -0.0448
vn 0.9958 -0.0000 -0.0918
vn 0.9900 -0.0000 -0.1408
vn 0.9815 -0.0000 -0.1917
vn 0.9698 -0.0000 -0.2440
vn 0.9548 -0.0000 -0.2972
vn 0.9365 -0.0000 -0.3507
vn 0.9148 -0.0000 -0.4038
vn 0.8900 -0.0000 -0.4560
vn 0.8622 -0.0000 -0.5066
vn 0.8318 -0.0000 -0.5550
vn 0.8884 -0.0000 0.4591
vt 0.469388 0.000000
vt 0.510204 0.000000
vt 0.489796 0.000000
vt 0.530612 0.000000
vt 0.448980 0.000000
vt 0.551020 0.000000
vt 0.428571 0.000000
vt 0.571429 0.000000
vt 0.408163 0.000000
vt 0.591837 0.000000
vt 0.387755 0.000000
vt 0.612245 0.000000
vt 0.367347 0.000000
vt 0.632653 0.000000
vt 0.653061 0.000000
vt 0.346939 0.000000
vt 0.673469 0.000000
vt 0.326531 0.000000
vt 0.693878 0.000000
vt 0.306122 0.000000
vt 0.714286 0.000000
vt 0.285714 0.000000
vt 0.734694 0.000000
vt 0.265306 0.000000
vt 0.755102 0.000000
vt 0.244898 0.000000
vt 0.224490 0.000000
vt 0.775510 0.000000
vt 0.204082 0.000000
vt 0.795918 0.000000
vt 0.183673 0.000000
vt 0.816327 0.000000
vt 0.163265 0.000000
vt 0.836735 0.000000
vt 0.142857 0.000000
vt 0.857143 0.000000
vt 0.122449 0.000000
vt 0.877551 0.000000
vt 0.102041 0.000000
vt 0.897959 0.000000
vt 0.918367 0.000000
vt 0.081633 0.000000
vt 0.938776 0.000000
vt 0.061224 0.000000
vt 0.959184 0.000000
vt 0.040816 0.000000
vt 0.979592 0.000000
vt 0.020408 0.000000
vt 1.000000 0.000000
vt 0.000000 0.000000
vt 0.000000 1.000000
vt 0.020000 1.000000
vt 0.020000 0.000000
vt 0.040000 1.000000
vt 0.040000 0.000000
vt 0.060000 1.000000
vt 0.060000 0.000000
vt 0.080000 1.000000
vt 0.080000 0.000000
vt 0.100000 1.000000
vt 0.100000 0.000000
vt 0.120000 1.000000
vt 0.120000 0.000000
vt 0.140000 1.000000
vt 0.140000 0.000000
vt 0.160000 1.000000
vt 0.160000 0.000000
vt 0.180000 1.000000
vt 0.180000 0.000000
vt 0.200000 1.000000
vt 0.200000 0.000000
vt 0.220000 1.000000
vt 0.220000 0.000000
vt 0.240000 1.000000
vt 0.240000 0.000000
vt 0.260000 1.000000
vt 0.260000 0.000000
vt 0.280000 1.000000
vt 0.280000 0.000000
vt 0.300000 1.000000
vt 0.300000 0.000000
vt 0.320000 1.000000
vt 0.320000 0.000000
vt 0.340000 1.000000
vt 0.340000 0.000000
vt 0.360000 1.000000
vt 0.360000 0.000000
vt 0.380000 1.000000
vt 0.380000 0.000000
vt 0.400000 1.000000
vt 0.400000 0.000000
vt 0.420000 1.000000
vt 0.420000 0.000000
vt 0.440000 1.000000
vt 0.440000 0.000000
vt 0.460000 1.000000
vt 0.460000 0.000000
vt 0.480000 1.000000
vt 0.480000 0.000000
vt 0.500000 1.000000
vt 0.500000 0.000000
vt 0.520000 1.000000
vt 0.520000 0.000000
vt 0.540000 1.000000
vt 0.540000 0.000000
vt 0.560000 1.000000
vt 0.560000 0.000000
vt 0.580000 1.000000
vt 0.580000 0.000000
vt 0.600000 1.000000
vt 0.600000 0.000000
vt 0.620000 1.000000
vt 0.620000 0.000000
vt 0.640000 1.000000
vt 0.640000 0.000000
vt 0.660000 1.000000
vt 0.660000 0.000000
vt 0.680000 1.000000
vt 0.680000 0.000000
vt 0.700000 1.000000
vt 0.700000 0.000000
vt 0.720000 1.000000
vt 0.720000 0.000000
vt 0.740000 1.000000
vt 0.740000 0.000000
vt 0.760000 1.000000
vt 0.760000 0.000000
vt 0.780000 1.000000
vt 0.780000 0.000000
vt 0.800000 1.000000
vt 0.800000 0.000000
vt 0.820000 1.000000
vt 0.820000 0.000000
vt 0.840000 1.000000
vt 0.840000 0.000000
vt 0.860000 1.000000
vt 0.860000 0.000000
vt 0.880000 1.000000
vt 0.880000 0.000000
vt 0.900000 1.000000
vt 0.900000 0.000000
vt 0.920000 1.000000
vt 0.920000 0.000000
vt 0.940000 1.000000
vt 0.940000 0.000000
vt 0.960000 1.000000
vt 0.960000 0.000000
vt 0.980000 1.000000
vt 0.980000 0.000000
vt 1.000000 1.000000
s 0
f 24/1/1 26/2/1 25/3/1
f 24/1/1 27/4/1 26/2/1
f 23/5/1 27/4/1 24/1/1
f 23/5/1 28/6/1 27/4/1
f 22/7/1 28/6/1 23/5/1
f 22/7/1 29/8/1 28/6/1
f 21/9/1 29/8/1 22/7/1
f 21/9/1 30/10/1 29/8/1
f 20/11/1 30/10/1 21/9/1
f 20/11/1 31/12/1 30/10/1
f 19/13/1 31/12/1 20/11/1
f 19/13/1 32/14/1 31/12/1
f 19/13/1 33/15/1 32/14/1
f 18/16/1 33/15/1 19/13/1
f 18/16/1 34/17/1 33/15/1
f 17/18/1 34/17/1 18/16/1
f 17/18/1 35/19/1 34/17/1
f 16/20/1 35/19/1 17/18/1
f 16/20/1 36/21/1 35/19/1
f 15/22/1 36/21/1 16/20/1
f 15/22/1 37/23/1 36/21/1
f 14/24/1 37/23/1 15/22/1
f 14/24/1 38/25/1 37/23/1
f 13/26/1 38/25/1 14/24/1
f 12/27/1 38/25/1 13/26/1
f 12/27/1 39/28/1 38/25/1
f 11/29/1 39/28/1 12/27/1
f 11/29/1 40/30/1 39/28/1
f 10/31/1 40/30/1 11/29/1
f 10/31/1 41/32/1 40/30/1
f 9/33/1 41/32/1 10/31/1
f 9/33/1 42/34/1 41/32/1
f 8/35/1 42/34/1 9/33/1
f 8/35/1 43/36/1 42/34/1
f 7/37/1 43/36/1 8/35/1
f 7/37/1 44/38/1 43/36/1
f 6/39/1 44/38/1 7/37/1
f 6/39/1 45/40/1 44/38/1
f 6/39/1 46/41/1 45/40/1
f 5/42/1 46/41/1 6/39/1
f 5/42/1 47/43/1 46/41/1
f 4/44/1 47/43/1 5/42/1
f 4/44/1 48/45/1 47/43/1
f 3/46/1 48/45/1 4/44/1
f 3/46/1 49/47/1 48/45/1
f 2/48/1 49/47/1 3/46/1
f 2/48/1 50/49/1 49/47/1
f 1/50/1 50/49/1 2/48/1
f 74/1/2 75/3/2 76/2/2
f 74/1/2 76/2/2 77/4/2
f 73/5/2 74/1/2 77/4/2
f 73/5/2 77/4/2 78/6/2
f 72/7/2 73/5/2 78/6/2
f 72/7/2 78/6/2 79/8/2
f 71/9/2 72/7/2 79/8/2
f 71/9/2 79/8/2 80/10/2
f 70/11/2 71/9/2 80/10/2
f 70/11/2 80/10/2 81/12/2
f 69/13/2 70/11/2 81/12/2
f 69/13/2 81/12/2 82/14/2
f 69/13/2 82/14/2 83/15/2
f 68/16/2 69/13/2 83/15/2
f 68/16/2 83/15/2 84/17/2
f 67/18/2 68/16/2 84/17/2
f 67/18/2 84/17/2 85/19/2
f 66/20/2 67/18/2 85/19/2
f 66/20/2 85/19/2 86/21/2
f 65/22/2 66/20/2 86/21/2
f 65/22/2 86/21/2 87/23/2
f 64/24/2 65/22/2 87/23/2
f 64/24/2 87/23/2 88/25/2
f 63/26/2 64/24/2 88/25/2
f 62/27/2 63/26/2 88/25/2
f 62/27/2 88/25/2 89/28/2
f 61/29/2 62/27/2 89/28/2
f 61/29/2 89/28/2 90/30/2
f 60/31/2 61/29/2 90/30/2
f 60/31/2 90/30/2 91/32/2
f 59/33/2 60/31/2 91/32/2
f 59/33/2 91/32/2 92/34/2
f 58/35/2 59/33/2 92/34/2
f 58/35/2 92/34/2 93/36/2
f 57/37/2 58/35/2 93/36/2
f 57/37/2 93/36/2 94/38/2
f 56/39/2 57/37/2 94/38/2
f 56/39/2 94/38/2 95/40/2
f 56/39/2 95/40/2 96/41/2
f 55/42/2 56/39/2 96/41/2
f 55/42/2 96/41/2 97/43/2
f 54/44/2 55/42/2 97/43/2
f 54/44/2 97/43/2 98/45/2
f 53/46/2 54/44/2 98/45/2
f 53/46/2 98/45/2 99/47/2
f 52/48/2 53/46/2 99/47/2
f 52/48/2 99/47/2 100/49/2
f 51/50/2 52/48/2 100/49/2
s 1
f 102/51/3 104/52/4 103/53/4 101/50/3
f 104/52/4 106/54/5 105/55/5 103/53/4
f 106/54/5 108/56/6 107/57/6 105/55/5
f 108/56/6 110/58/7 109/59/7 107/57/6
f 110/58/7 112/60/8 111/61/8 109/59/7
f 112/60/8 114/62/9 113/63/9 111/61/8
f 114/62/9 116/64/10 115/65/10 113/63/9
f 116/64/10 118/66/11 117/67/11 115/65/10
f 118/66/11 120/68/12 119/69/12 117/67/11
f 120/68/12 122/70/13 121/71/13 119/69/12
f 122/70/13 124/72/14 123/73/14 121/71/13
f 124/72/14 126/74/15 125/75/15 123/73/14
f 126/74/15 128/76/16 127/77/16 125/75/15
f 128/76/16 130/78/17 129/79/17 127/77/16
f 130/78/17 132/80/18 131/81/18 129/79/17
f 132/80/18 134/82/19 133/83/19 131/81/18
f 134/82/19 136/84/20 135/85/20 133/83/19
f 136/84/20 138/86/21 137/87/21 135/85/20
f 138/86/21 140/88/22 139/89/22 137/87/21
f 140/88/22 142/90/23 141/91/23 139/89/22
f 142/90/23 144/92/24 143/93/24 141/91/23
f 144/92/24 146/94/25 145/95/25 143/93/24
f 146/94/25 148/96/26 147/97/26 145/95/25
f 148/96/26 150/98/27 149/99/27 147/97/26
f 150/98/27 152/100/28 151/101/28 149/99/27
f 152/100/28 154/102/29 153/103/29 151/101/28
f 154/102/29 156/104/30 155/105/30 153/103/29
f 156/104/30 158/106/31 157/107/31 155/105/30
f 158/106/31 160/108/32 159/109/32 157/107/31
f 160/108/32 162/110/33 161/111/33 159/109/32
f 162/110/33 164/112/34 163/113/34 161/111/33
f 164/112/34 166/114/35 165/115/35 163/113/34
f 166/114/35 168/116/36 167/117/36 165/115/35
f 168/116/36 170/118/37 169/119/37 167/117/36
f 170/118/37 172/120/38 171/121/38 169/119/37
f 172/120/38 174/122/39 173/123/39 171/121/38
f 174/122/39 176/124/40 175/125/40 173/123/39
f 176/124/40 178/126/41 177/127/41 175/125/40
f 178/126/41 180/128/42 179/129/42 177/127/41
f 180/128/42 182/130/43 181/131/43 179/129/42
f 182/130/43 184/132/44 183/133/44 181/131/43
f 184/132/44 186/134/45 185/135/45 183/133/44
f 186/134/45 188/136/46 187/137/46 185/135/45
f 188/136/46 190/138/47 189/139/47 187/137/46
f 190/138/47 192/140/48 191/141/48 189/139/47
f 192/140/48 194/142/49 193/143/49 191/141/48
f 194/142/49 196/144/50 195/145/50 193/143/49
f 196/144/50 198/146/51 197/147/51 195/145/50
f 198/146/51 200/148/52 199/149/52 197/147/51
f 200/148/52 102/150/3 101/49/3 199/149/52
