# Blender 4.5.0
# www.blender.org
mtllib q.mtl
o Text
v 0.106274 0.050000 0.104916
v 0.098111 0.050000 0.107157
v 0.090031 0.050000 0.109219
v 0.082056 0.050000 0.111093
v 0.074205 0.050000 0.112772
v 0.066500 0.050000 0.114250
v 0.058962 0.050000 0.115520
v 0.051611 0.050000 0.116574
v 0.044469 0.050000 0.117406
v 0.037556 0.050000 0.118009
v 0.030892 0.050000 0.118376
v 0.024500 0.050000 0.118500
v -0.007925 0.050000 0.116553
v -0.038569 0.050000 0.110838
v -0.067234 0.050000 0.101547
v -0.093722 0.050000 0.088870
v -0.117835 0.050000 0.072999
v -0.139375 0.050000 0.054125
v -0.158144 0.050000 0.032438
v -0.173944 0.050000 0.008130
v -0.186578 0.050000 -0.018609
v -0.195847 0.050000 -0.047588
v -0.201554 0.050000 -0.078615
v -0.203500 0.050000 -0.111500
v -0.202672 0.050000 -0.131111
v -0.199875 0.050000 -0.153389
v -0.194641 0.050000 -0.177500
v -0.186500 0.050000 -0.202611
v -0.174984 0.050000 -0.227889
v -0.159625 0.050000 -0.252500
v -0.139953 0.050000 -0.275611
v -0.115500 0.050000 -0.296389
v -0.085797 0.050000 -0.314000
v -0.050375 0.050000 -0.327611
v -0.008766 0.050000 -0.336389
v 0.039500 0.050000 -0.339500
v 0.203500 0.050000 -0.339500
v 0.203500 0.050000 0.339500
v 0.114500 0.050000 0.339500
v 0.114500 0.050000 0.102500
v 0.015712 0.050000 -0.258556
v -0.001968 0.050000 -0.255694
v -0.019266 0.050000 -0.250875
v -0.035907 0.050000 -0.244056
v -0.051619 0.050000 -0.235194
v -0.066125 0.050000 -0.224250
v -0.079152 0.050000 -0.211181
v -0.090426 0.050000 -0.195944
v -0.099672 0.050000 -0.178500
v -0.106616 0.050000 -0.158806
v -0.110983 0.050000 -0.136819
v -0.112500 0.050000 -0.112500
v -0.111271 0.050000 -0.091155
v -0.107671 0.050000 -0.070736
v -0.101828 0.050000 -0.051422
v -0.093870 0.050000 -0.033389
v -0.083927 0.050000 -0.016814
v -0.072125 0.050000 -0.001875
v -0.058594 0.050000 0.011252
v -0.043463 0.050000 0.022389
v -0.026859 0.050000 0.031359
v -0.008912 0.050000 0.037986
v 0.010251 0.050000 0.042092
v 0.030500 0.050000 0.043500
v 0.037519 0.050000 0.043355
v 0.044569 0.050000 0.042921
v 0.051641 0.050000 0.042203
v 0.058722 0.050000 0.041204
v 0.065804 0.050000 0.039927
v 0.072875 0.050000 0.038375
v 0.079925 0.050000 0.036553
v 0.086944 0.050000 0.034463
v 0.093922 0.050000 0.032109
v 0.100847 0.050000 0.029495
v 0.107710 0.050000 0.026624
v 0.114500 0.050000 0.023500
v 0.114500 0.050000 -0.259500
v 0.033500 0.050000 -0.259500
v 0.106274 -0.050000 0.104916
v 0.098111 -0.050000 0.107157
v 0.090031 -0.050000 0.109219
v 0.082056 -0.050000 0.111093
v 0.074205 -0.050000 0.112772
v 0.066500 -0.050000 0.114250
v 0.058962 -0.050000 0.115520
v 0.051611 -0.050000 0.116574
v 0.044469 -0.050000 0.117406
v 0.037556 -0.050000 0.118009
v 0.030892 -0.050000 0.118376
v 0.024500 -0.050000 0.118500
v -0.007925 -0.050000 0.116553
v -0.038569 -0.050000 0.110838
v -0.067234 -0.050000 0.101547
v -0.093722 -0.050000 0.088870
v -0.117835 -0.050000 0.072999
v -0.139375 -0.050000 0.054125
v -0.158144 -0.050000 0.032438
v -0.173944 -0.050000 0.008130
v -0.186578 -0.050000 -0.018609
v -0.195847 -0.050000 -0.047588
v -0.201554 -0.050000 -0.078615
v -0.203500 -0.050000 -0.111500
v -0.202672 -0.050000 -0.131111
v -0.199875 -0.050000 -0.153389
v -0.194641 -0.050000 -0.177500
v -0.186500 -0.050000 -0.202611
v -0.174984 -0.050000 -0.227889
v -0.159625 -0.050000 -0.252500
v -0.139953 -0.050000 -0.275611
v -0.115500 -0.050000 -0.296389
v -0.085797 -0.050000 -0.314000
v -0.050375 -0.050000 -0.327611
v -0.008766 -0.050000 -0.336389
v 0.039500 -0.050000 -0.339500
v 0.203500 -0.050000 -0.339500
v 0.203500 -0.050000 0.339500
v 0.114500 -0.050000 0.339500
v 0.114500 -0.050000 0.102500
v 0.015712 -0.050000 -0.258556
v -0.001968 -0.050000 -0.255694
v -0.019266 -0.050000 -0.250875
v -0.035907 -0.050000 -0.244056
v -0.051619 -0.050000 -0.235194
v -0.066125 -0.050000 -0.224250
v -0.079152 -0.050000 -0.211181
v -0.090426 -0.050000 -0.195944
v -0.099672 -0.050000 -0.178500
v -0.106616 -0.050000 -0.158806
v -0.110983 -0.050000 -0.136819
v -0.112500 -0.050000 -0.112500
v -0.111271 -0.050000 -0.091155
v -0.107671 -0.050000 -0.070736
v -0.101828 -0.050000 -0.051422
v -0.093870 -0.050000 -0.033389
v -0.083927 -0.050000 -0.016814
v -0.072125 -0.050000 -0.001875
v -0.058594 -0.050000 0.011252
v -0.043463 -0.050000 0.022389
v -0.026859 -0.050000 0.031359
v -0.008912 -0.050000 0.037986
v 0.010251 -0.050000 0.042092
v 0.030500 -0.050000 0.043500
v 0.037519 -0.050000 0.043355
v 0.044569 -0.050000 0.042921
v 0.051641 -0.050000 0.042203
v 0.058722 -0.050000 0.041204
v 0.065804 -0.050000 0.039927
v 0.072875 -0.050000 0.038375
v 0.079925 -0.050000 0.036553
v 0.086944 -0.050000 0.034463
v 0.093922 -0.050000 0.032109
v 0.100847 -0.050000 0.029495
v 0.107710 -0.050000 0.026624
v 0.114500 -0.050000 0.023500
v 0.114500 -0.050000 -0.259500
v 0.033500 -0.050000 -0.259500
v 0.106274 -0.050000 0.104916
v 0.106274 0.050000 0.104916
v 0.098111 -0.050000 0.107157
v 0.098111 0.050000 0.107157
v 0.090031 -0.050000 0.109219
v 0.090031 0.050000 0.109219
v 0.082056 -0.050000 0.111093
v 0.082056 0.050000 0.111093
v 0.074205 -0.050000 0.112772
v 0.074205 0.050000 0.112772
v 0.066500 -0.050000 0.114250
v 0.066500 0.050000 0.114250
v 0.058962 -0.050000 0.115520
v 0.058962 0.050000 0.115520
v 0.051611 -0.050000 0.116574
v 0.051611 0.050000 0.116574
v 0.044469 -0.050000 0.117406
v 0.044469 0.050000 0.117406
v 0.037556 -0.050000 0.118009
v 0.037556 0.050000 0.118009
v 0.030892 -0.050000 0.118376
v 0.030892 0.050000 0.118376
v 0.024500 -0.050000 0.118500
v 0.024500 0.050000 0.118500
v -0.007925 -0.050000 0.116553
v -0.007925 0.050000 0.116553
v -0.038569 -0.050000 0.110838
v -0.038569 0.050000 0.110838
v -0.067234 -0.050000 0.101547
v -0.067234 0.050000 0.101547
v -0.093722 -0.050000 0.088870
v -0.093722 0.050000 0.088870
v -0.117835 -0.050000 0.072999
v -0.117835 0.050000 0.072999
v -0.139375 -0.050000 0.054125
v -0.139375 0.050000 0.054125
v -0.158144 -0.050000 0.032438
v -0.158144 0.050000 0.032438
v -0.173944 -0.050000 0.008130
v -0.173944 0.050000 0.008130
v -0.186578 -0.050000 -0.018609
v -0.186578 0.050000 -0.018609
v -0.195847 -0.050000 -0.047588
v -0.195847 0.050000 -0.047588
v -0.201554 -0.050000 -0.078615
v -0.201554 0.050000 -0.078615
v -0.203500 -0.050000 -0.111500
v -0.203500 0.050000 -0.111500
v -0.202672 -0.050000 -0.131111
v -0.202672 0.050000 -0.131111
v -0.199875 -0.050000 -0.153389
v -0.199875 0.050000 -0.153389
v -0.194641 -0.050000 -0.177500
v -0.194641 0.050000 -0.177500
v -0.186500 -0.050000 -0.202611
v -0.186500 0.050000 -0.202611
v -0.174984 -0.050000 -0.227889
v -0.174984 0.050000 -0.227889
v -0.159625 -0.050000 -0.252500
v -0.159625 0.050000 -0.252500
v -0.139953 -0.050000 -0.275611
v -0.139953 0.050000 -0.275611
v -0.115500 -0.050000 -0.296389
v -0.115500 0.050000 -0.296389
v -0.085797 -0.050000 -0.314000
v -0.085797 0.050000 -0.314000
v -0.050375 -0.050000 -0.327611
v -0.050375 0.050000 -0.327611
v -0.008766 -0.050000 -0.336389
v -0.008766 0.050000 -0.336389
v 0.039500 -0.050000 -0.339500
v 0.039500 0.050000 -0.339500
v 0.203500 -0.050000 -0.339500
v 0.203500 0.050000 -0.339500
v 0.203500 -0.050000 0.339500
v 0.203500 0.050000 0.339500
v 0.114500 -0.050000 0.339500
v 0.114500 0.050000 0.339500
v 0.114500 -0.050000 0.102500
v 0.114500 0.050000 0.102500
v 0.015712 -0.050000 -0.258556
v 0.015712 0.050000 -0.258556
v -0.001968 -0.050000 -0.255694
v -0.001968 0.050000 -0.255694
v -0.019266 -0.050000 -0.250875
v -0.019266 0.050000 -0.250875
v -0.035907 -0.050000 -0.244056
v -0.035907 0.050000 -0.244056
v -0.051619 -0.050000 -0.235194
v -0.051619 0.050000 -0.235194
v -0.066125 -0.050000 -0.224250
v -0.066125 0.050000 -0.224250
v -0.079152 -0.050000 -0.211181
v -0.079152 0.050000 -0.211181
v -0.090426 -0.050000 -0.195944
v -0.090426 0.050000 -0.195944
v -0.099672 -0.050000 -0.178500
v -0.099672 0.050000 -0.178500
v -0.106616 -0.050000 -0.158806
v -0.106616 0.050000 -0.158806
v -0.110983 -0.050000 -0.136819
v -0.110983 0.050000 -0.136819
v -0.112500 -0.050000 -0.112500
v -0.112500 0.050000 -0.112500
v -0.111271 -0.050000 -0.091155
v -0.111271 0.050000 -0.091155
v -0.107671 -0.050000 -0.070736
v -0.107671 0.050000 -0.070736
v -0.101828 -0.050000 -0.051422
v -0.101828 0.050000 -0.051422
v -0.093870 -0.050000 -0.033389
v -0.093870 0.050000 -0.033389
v -0.083927 -0.050000 -0.016814
v -0.083927 0.050000 -0.016814
v -0.072125 -0.050000 -0.001875
v -0.072125 0.050000 -0.001875
v -0.058594 -0.050000 0.011252
v -0.058594 0.050000 0.011252
v -0.043463 -0.050000 0.022389
v -0.043463 0.050000 0.022389
v -0.026859 -0.050000 0.031359
v -0.026859 0.050000 0.031359
v -0.008912 -0.050000 0.037986
v -0.008912 0.050000 0.037986
v 0.010251 -0.050000 0.042092
v 0.010251 0.050000 0.042092
v 0.030500 -0.050000 0.043500
v 0.030500 0.050000 0.043500
v 0.037519 -0.050000 0.043355
v 0.037519 0.050000 0.043355
v 0.044569 -0.050000 0.042921
v 0.044569 0.050000 0.042921
v 0.051641 -0.050000 0.042203
v 0.051641 0.050000 0.042203
v 0.058722 -0.050000 0.041204
v 0.058722 0.050000 0.041204
v 0.065804 -0.050000 0.039927
v 0.065804 0.050000 0.039927
v 0.072875 -0.050000 0.038375
v 0.072875 0.050000 0.038375
v 0.079925 -0.050000 0.036553
v 0.079925 0.050000 0.036553
v 0.086944 -0.050000 0.034463
v 0.086944 0.050000 0.034463
v 0.093922 -0.050000 0.032109
v 0.093922 0.050000 0.032109
v 0.100847 -0.050000 0.029495
v 0.100847 0.050000 0.029495
v 0.107710 -0.050000 0.026624
v 0.107710 0.050000 0.026624
v 0.114500 -0.050000 0.023500
v 0.114500 0.050000 0.023500
v 0.114500 -0.050000 -0.259500
v 0.114500 0.050000 -0.259500
v 0.033500 -0.050000 -0.259500
v 0.033500 0.050000 -0.259500
vn -0.0000 1.0000 -0.0000
vn -0.0000 -1.0000 -0.0000
vn 0.2733 -0.0000 0.9619
vn 0.2560 -0.0000 0.9667
vn 0.2380 -0.0000 0.9713
vn 0.2190 -0.0000 0.9757
vn 0.1988 -0.0000 0.9800
vn 0.1773 -0.0000 0.9842
vn 0.1541 -0.0000 0.9881
vn 0.1289 -0.0000 0.9917
vn 0.1013 -0.0000 0.9949
vn 0.0709 -0.0000 0.9975
vn 0.0372 -0.0000 0.9993
vn -0.0203 -0.0000 0.9998
vn -0.1219 -0.0000 0.9925
vn -0.2463 -0.0000 0.9692
vn -0.3708 -0.0000 0.9287
vn -0.4919 -0.0000 0.8707
vn -0.6058 -0.0000 0.7956
vn -0.7093 -0.0000 0.7049
vn -0.7992 -0.0000 0.6011
vn -0.8733 -0.0000 0.4872
vn -0.9303 -0.0000 0.3667
vn -0.9700 -0.0000 0.2433
vn -0.9927 -0.0000 0.1202
vn -1.0000 -0.0000 0.0085
vn -0.9965 -0.0000 -0.0835
vn -0.9857 -0.0000 -0.1685
vn -0.9654 -0.0000 -0.2606
vn -0.9322 -0.0000 -0.3621
vn -0.8811 -0.0000 -0.4730
vn -0.8071 -0.0000 -0.5904
vn -0.7068 -0.0000 -0.7074
vn -0.5808 -0.0000 -0.8140
vn -0.4359 -0.0000 -0.9000
vn -0.2834 -0.0000 -0.9590
vn -0.1357 -0.0000 -0.9907
vn -0.0322 -0.0000 -0.9995
vn 0.7071 -0.0000 -0.7071
vn 0.7071 -0.0000 0.7071
vn -0.7071 -0.0000 0.7071
vn -0.5993 -0.0000 0.8005
vn 0.1065 -0.0000 0.9943
vn 0.2144 -0.0000 0.9767
vn 0.3243 -0.0000 0.9459
vn 0.4361 -0.0000 0.8999
vn 0.5480 -0.0000 0.8365
vn 0.6569 -0.0000 0.7540
vn 0.7581 -0.0000 0.6521
vn 0.8461 -0.0000 0.5331
vn 0.9159 -0.0000 0.4015
vn 0.9644 -0.0000 0.2644
vn 0.9917 -0.0000 0.1288
vn 1.0000 -0.0000 0.0024
vn 0.9933 -0.0000 -0.1157
vn 0.9727 -0.0000 -0.2320
vn 0.9378 -0.0000 -0.3473
vn 0.8879 -0.0000 -0.4600
vn 0.8228 -0.0000 -0.5683
vn 0.7421 -0.0000 -0.6703
vn 0.6460 -0.0000 -0.7633
vn 0.5354 -0.0000 -0.8446
vn 0.4119 -0.0000 -0.9112
vn 0.2787 -0.0000 -0.9604
vn 0.1398 -0.0000 -0.9902
vn 0.0244 -0.0000 -0.9997
vn -0.0410 -0.0000 -0.9992
vn -0.0812 -0.0000 -0.9967
vn -0.1204 -0.0000 -0.9927
vn -0.1586 -0.0000 -0.9873
vn -0.1959 -0.0000 -0.9806
vn -0.2323 -0.0000 -0.9726
vn -0.2678 -0.0000 -0.9635
vn -0.3025 -0.0000 -0.9531
vn -0.3364 -0.0000 -0.9417
vn -0.3696 -0.0000 -0.9292
vn -0.4020 -0.0000 -0.9156
vn -0.8420 -0.0000 -0.5394
vn 0.0265 -0.0000 0.9996
vt 0.441558 0.000000
vt 0.467532 0.000000
vt 0.454545 0.000000
vt 0.987013 0.000000
vt 0.480519 0.000000
vt 0.428571 0.000000
vt 0.415584 0.000000
vt 0.402597 0.000000
vt 0.389610 0.000000
vt 0.376623 0.000000
vt 1.000000 0.000000
vt 0.519481 0.000000
vt 0.974026 0.000000
vt 0.532468 0.000000
vt 0.545455 0.000000
vt 0.363636 0.000000
vt 0.558442 0.000000
vt 0.571429 0.000000
vt 0.584416 0.000000
vt 0.350649 0.000000
vt 0.597403 0.000000
vt 0.610390 0.000000
vt 0.337662 0.000000
vt 0.623377 0.000000
vt 0.636364 0.000000
vt 0.324675 0.000000
vt 0.649351 0.000000
vt 0.311688 0.000000
vt 0.662338 0.000000
vt 0.298701 0.000000
vt 0.675325 0.000000
vt 0.285714 0.000000
vt 0.688312 0.000000
vt 0.272727 0.000000
vt 0.701299 0.000000
vt 0.714286 0.000000
vt 0.259740 0.000000
vt 0.727273 0.000000
vt 0.246753 0.000000
vt 0.740260 0.000000
vt 0.753247 0.000000
vt 0.233766 0.000000
vt 0.766234 0.000000
vt 0.779221 0.000000
vt 0.961039 0.000000
vt 0.948052 0.000000
vt 0.935065 0.000000
vt 0.792208 0.000000
vt 0.922078 0.000000
vt 0.506494 0.000000
vt 0.220779 0.000000
vt 0.909091 0.000000
vt 0.896104 0.000000
vt 0.805195 0.000000
vt 0.883117 0.000000
vt 0.870130 0.000000
vt 0.857143 0.000000
vt 0.818182 0.000000
vt 0.844156 0.000000
vt 0.831169 0.000000
vt 0.207792 0.000000
vt 0.194805 0.000000
vt 0.181818 0.000000
vt 0.168831 0.000000
vt 0.000000 0.000000
vt 0.493506 0.000000
vt 0.012987 0.000000
vt 0.025974 0.000000
vt 0.038961 0.000000
vt 0.155844 0.000000
vt 0.051948 0.000000
vt 0.064935 0.000000
vt 0.077922 0.000000
vt 0.090909 0.000000
vt 0.142857 0.000000
vt 0.103896 0.000000
vt 0.116883 0.000000
vt 0.129870 0.000000
vt 0.000000 1.000000
vt 0.025000 1.000000
vt 0.025000 0.000000
vt 0.050000 1.000000
vt 0.050000 0.000000
vt 0.075000 1.000000
vt 0.075000 0.000000
vt 0.100000 1.000000
vt 0.100000 0.000000
vt 0.125000 1.000000
vt 0.125000 0.000000
vt 0.150000 1.000000
vt 0.150000 0.000000
vt 0.175000 1.000000
vt 0.175000 0.000000
vt 0.200000 1.000000
vt 0.200000 0.000000
vt 0.225000 1.000000
vt 0.225000 0.000000
vt 0.250000 1.000000
vt 0.250000 0.000000
vt 0.275000 1.000000
vt 0.275000 0.000000
vt 0.300000 1.000000
vt 0.300000 0.000000
vt 0.325000 1.000000
vt 0.325000 0.000000
vt 0.350000 1.000000
vt 0.350000 0.000000
vt 0.375000 1.000000
vt 0.375000 0.000000
vt 0.400000 1.000000
vt 0.400000 0.000000
vt 0.425000 1.000000
vt 0.425000 0.000000
vt 0.450000 1.000000
vt 0.450000 0.000000
vt 0.475000 1.000000
vt 0.475000 0.000000
vt 0.500000 1.000000
vt 0.500000 0.000000
vt 0.525000 1.000000
vt 0.525000 0.000000
vt 0.550000 1.000000
vt 0.550000 0.000000
vt 0.575000 1.000000
vt 0.575000 0.000000
vt 0.600000 1.000000
vt 0.600000 0.000000
vt 0.625000 1.000000
vt 0.625000 0.000000
vt 0.650000 1.000000
vt 0.650000 0.000000
vt 0.675000 1.000000
vt 0.675000 0.000000
vt 0.700000 1.000000
vt 0.700000 0.000000
vt 0.725000 1.000000
vt 0.725000 0.000000
vt 0.750000 1.000000
vt 0.750000 0.000000
vt 0.775000 1.000000
vt 0.775000 0.000000
vt 0.800000 1.000000
vt 0.800000 0.000000
vt 0.825000 1.000000
vt 0.825000 0.000000
vt 0.850000 1.000000
vt 0.850000 0.000000
vt 0.875000 1.000000
vt 0.875000 0.000000
vt 0.900000 1.000000
vt 0.900000 0.000000
vt 0.925000 1.000000
vt 0.925000 0.000000
vt 0.950000 1.000000
vt 0.950000 0.000000
vt 0.975000 1.000000
vt 0.975000 0.000000
vt 1.000000 1.000000
vt 0.026316 1.000000
vt 0.026316 0.000000
vt 0.052632 1.000000
vt 0.052632 0.000000
vt 0.078947 1.000000
vt 0.078947 0.000000
vt 0.105263 1.000000
vt 0.105263 0.000000
vt 0.131579 1.000000
vt 0.131579 0.000000
vt 0.157895 1.000000
vt 0.157895 0.000000
vt 0.184211 1.000000
vt 0.184211 0.000000
vt 0.210526 1.000000
vt 0.210526 0.000000
vt 0.236842 1.000000
vt 0.236842 0.000000
vt 0.263158 1.000000
vt 0.263158 0.000000
vt 0.289474 1.000000
vt 0.289474 0.000000
vt 0.315789 1.000000
vt 0.315789 0.000000
vt 0.342105 1.000000
vt 0.342105 0.000000
vt 0.368421 1.000000
vt 0.368421 0.000000
vt 0.394737 1.000000
vt 0.394737 0.000000
vt 0.421053 1.000000
vt 0.421053 0.000000
vt 0.447368 1.000000
vt 0.447368 0.000000
vt 0.473684 1.000000
vt 0.473684 0.000000
vt 0.526316 1.000000
vt 0.526316 0.000000
vt 0.552632 1.000000
vt 0.552632 0.000000
vt 0.578947 1.000000
vt 0.578947 0.000000
vt 0.605263 1.000000
vt 0.605263 0.000000
vt 0.631579 1.000000
vt 0.631579 0.000000
vt 0.657895 1.000000
vt 0.657895 0.000000
vt 0.684211 1.000000
vt 0.684211 0.000000
vt 0.710526 1.000000
vt 0.710526 0.000000
vt 0.736842 1.000000
vt 0.736842 0.000000
vt 0.763158 1.000000
vt 0.763158 0.000000
vt 0.789474 1.000000
vt 0.789474 0.000000
vt 0.815789 1.000000
vt 0.815789 0.000000
vt 0.842105 1.000000
vt 0.842105 0.000000
vt 0.868421 1.000000
vt 0.868421 0.000000
vt 0.894737 1.000000
vt 0.894737 0.000000
vt 0.921053 1.000000
vt 0.921053 0.000000
vt 0.947368 1.000000
vt 0.947368 0.000000
vt 0.973684 1.000000
vt 0.973684 0.000000
s 0
f 35/1/1 37/2/1 36/3/1
f 35/1/1 77/4/1 37/2/1
f 77/4/1 38/5/1 37/2/1
f 34/6/1 77/4/1 35/1/1
f 33/7/1 77/4/1 34/6/1
f 32/8/1 77/4/1 33/7/1
f 31/9/1 77/4/1 32/8/1
f 30/10/1 78/11/1 31/9/1
f 78/11/1 77/4/1 31/9/1
f 30/10/1 41/12/1 78/11/1
f 76/13/1 38/5/1 77/4/1
f 30/10/1 42/14/1 41/12/1
f 30/10/1 43/15/1 42/14/1
f 29/16/1 43/15/1 30/10/1
f 29/16/1 44/17/1 43/15/1
f 29/16/1 45/18/1 44/17/1
f 29/16/1 46/19/1 45/18/1
f 28/20/1 46/19/1 29/16/1
f 28/20/1 47/21/1 46/19/1
f 28/20/1 48/22/1 47/21/1
f 27/23/1 48/22/1 28/20/1
f 27/23/1 49/24/1 48/22/1
f 27/23/1 50/25/1 49/24/1
f 26/26/1 50/25/1 27/23/1
f 26/26/1 51/27/1 50/25/1
f 25/28/1 51/27/1 26/26/1
f 25/28/1 52/29/1 51/27/1
f 24/30/1 52/29/1 25/28/1
f 24/30/1 53/31/1 52/29/1
f 23/32/1 53/31/1 24/30/1
f 23/32/1 54/33/1 53/31/1
f 22/34/1 54/33/1 23/32/1
f 22/34/1 55/35/1 54/33/1
f 22/34/1 56/36/1 55/35/1
f 21/37/1 56/36/1 22/34/1
f 21/37/1 57/38/1 56/36/1
f 20/39/1 57/38/1 21/37/1
f 20/39/1 58/40/1 57/38/1
f 20/39/1 59/41/1 58/40/1
f 19/42/1 59/41/1 20/39/1
f 19/42/1 60/43/1 59/41/1
f 19/42/1 61/44/1 60/43/1
f 75/45/1 38/5/1 76/13/1
f 74/46/1 38/5/1 75/45/1
f 73/47/1 38/5/1 74/46/1
f 19/42/1 62/48/1 61/44/1
f 72/49/1 40/50/1 73/47/1
f 40/50/1 38/5/1 73/47/1
f 18/51/1 62/48/1 19/42/1
f 71/52/1 40/50/1 72/49/1
f 70/53/1 40/50/1 71/52/1
f 18/51/1 63/54/1 62/48/1
f 69/55/1 40/50/1 70/53/1
f 68/56/1 40/50/1 69/55/1
f 67/57/1 40/50/1 68/56/1
f 18/51/1 64/58/1 63/54/1
f 66/59/1 40/50/1 67/57/1
f 65/60/1 40/50/1 66/59/1
f 64/58/1 40/50/1 65/60/1
f 18/51/1 40/50/1 64/58/1
f 17/61/1 40/50/1 18/51/1
f 16/62/1 40/50/1 17/61/1
f 15/63/1 40/50/1 16/62/1
f 14/64/1 40/50/1 15/63/1
f 14/64/1 1/65/1 40/50/1
f 39/66/1 38/5/1 40/50/1
f 14/64/1 2/67/1 1/65/1
f 14/64/1 3/68/1 2/67/1
f 14/64/1 4/69/1 3/68/1
f 13/70/1 4/69/1 14/64/1
f 13/70/1 5/71/1 4/69/1
f 13/70/1 6/72/1 5/71/1
f 13/70/1 7/73/1 6/72/1
f 13/70/1 8/74/1 7/73/1
f 12/75/1 8/74/1 13/70/1
f 12/75/1 9/76/1 8/74/1
f 12/75/1 10/77/1 9/76/1
f 12/75/1 11/78/1 10/77/1
f 113/1/2 114/3/2 115/2/2
f 113/1/2 115/2/2 155/4/2
f 155/4/2 115/2/2 116/5/2
f 112/6/2 113/1/2 155/4/2
f 111/7/2 112/6/2 155/4/2
f 110/8/2 111/7/2 155/4/2
f 109/9/2 110/8/2 155/4/2
f 108/10/2 109/9/2 156/11/2
f 156/11/2 109/9/2 155/4/2
f 108/10/2 156/11/2 119/12/2
f 154/13/2 155/4/2 116/5/2
f 108/10/2 119/12/2 120/14/2
f 108/10/2 120/14/2 121/15/2
f 107/16/2 108/10/2 121/15/2
f 107/16/2 121/15/2 122/17/2
f 107/16/2 122/17/2 123/18/2
f 107/16/2 123/18/2 124/19/2
f 106/20/2 107/16/2 124/19/2
f 106/20/2 124/19/2 125/21/2
f 106/20/2 125/21/2 126/22/2
f 105/23/2 106/20/2 126/22/2
f 105/23/2 126/22/2 127/24/2
f 105/23/2 127/24/2 128/25/2
f 104/26/2 105/23/2 128/25/2
f 104/26/2 128/25/2 129/27/2
f 103/28/2 104/26/2 129/27/2
f 103/28/2 129/27/2 130/29/2
f 102/30/2 103/28/2 130/29/2
f 102/30/2 130/29/2 131/31/2
f 101/32/2 102/30/2 131/31/2
f 101/32/2 131/31/2 132/33/2
f 100/34/2 101/32/2 132/33/2
f 100/34/2 132/33/2 133/35/2
f 100/34/2 133/35/2 134/36/2
f 99/37/2 100/34/2 134/36/2
f 99/37/2 134/36/2 135/38/2
f 98/39/2 99/37/2 135/38/2
f 98/39/2 135/38/2 136/40/2
f 98/39/2 136/40/2 137/41/2
f 97/42/2 98/39/2 137/41/2
f 97/42/2 137/41/2 138/43/2
f 97/42/2 138/43/2 139/44/2
f 153/45/2 154/13/2 116/5/2
f 152/46/2 153/45/2 116/5/2
f 151/47/2 152/46/2 116/5/2
f 97/42/2 139/44/2 140/48/2
f 150/49/2 151/47/2 118/50/2
f 118/50/2 151/47/2 116/5/2
f 96/51/2 97/42/2 140/48/2
f 149/52/2 150/49/2 118/50/2
f 148/53/2 149/52/2 118/50/2
f 96/51/2 140/48/2 141/54/2
f 147/55/2 148/53/2 118/50/2
f 146/56/2 147/55/2 118/50/2
f 145/57/2 146/56/2 118/50/2
f 96/51/2 141/54/2 142/58/2
f 144/59/2 145/57/2 118/50/2
f 143/60/2 144/59/2 118/50/2
f 142/58/2 143/60/2 118/50/2
f 96/51/2 142/58/2 118/50/2
f 95/61/2 96/51/2 118/50/2
f 94/62/2 95/61/2 118/50/2
f 93/63/2 94/62/2 118/50/2
f 92/64/2 93/63/2 118/50/2
f 92/64/2 118/50/2 79/65/2
f 117/66/2 118/50/2 116/5/2
f 92/64/2 79/65/2 80/67/2
f 92/64/2 80/67/2 81/68/2
f 92/64/2 81/68/2 82/69/2
f 91/70/2 92/64/2 82/69/2
f 91/70/2 82/69/2 83/71/2
f 91/70/2 83/71/2 84/72/2
f 91/70/2 84/72/2 85/73/2
f 91/70/2 85/73/2 86/74/2
f 90/75/2 91/70/2 86/74/2
f 90/75/2 86/74/2 87/76/2
f 90/75/2 87/76/2 88/77/2
f 90/75/2 88/77/2 89/78/2
s 1
f 158/79/3 160/80/4 159/81/4 157/65/3
f 160/80/4 162/82/5 161/83/5 159/81/4
f 162/82/5 164/84/6 163/85/6 161/83/5
f 164/84/6 166/86/7 165/87/7 163/85/6
f 166/86/7 168/88/8 167/89/8 165/87/7
f 168/88/8 170/90/9 169/91/9 167/89/8
f 170/90/9 172/92/10 171/93/10 169/91/9
f 172/92/10 174/94/11 173/95/11 171/93/10
f 174/94/11 176/96/12 175/97/12 173/95/11
f 176/96/12 178/98/13 177/99/13 175/97/12
f 178/98/13 180/100/14 179/101/14 177/99/13
f 180/100/14 182/102/15 181/103/15 179/101/14
f 182/102/15 184/104/16 183/105/16 181/103/15
f 184/104/16 186/106/17 185/107/17 183/105/16
f 186/106/17 188/108/18 187/109/18 185/107/17
f 188/108/18 190/110/19 189/111/19 187/109/18
f 190/110/19 192/112/20 191/113/20 189/111/19
f 192/112/20 194/114/21 193/115/21 191/113/20
f 194/114/21 196/116/22 195/117/22 193/115/21
f 196/116/22 198/118/23 197/119/23 195/117/22
f 198/118/23 200/120/24 199/121/24 197/119/23
f 200/120/24 202/122/25 201/123/25 199/121/24
f 202/122/25 204/124/26 203/125/26 201/123/25
f 204/124/26 206/126/27 205/127/27 203/125/26
f 206/126/27 208/128/28 207/129/28 205/127/27
f 208/128/28 210/130/29 209/131/29 207/129/28
f 210/130/29 212/132/30 211/133/30 209/131/29
f 212/132/30 214/134/31 213/135/31 211/133/30
f 214/134/31 216/136/32 215/137/32 213/135/31
f 216/136/32 218/138/33 217/139/33 215/137/32
f 218/138/33 220/140/34 219/141/34 217/139/33
f 220/140/34 222/142/35 221/143/35 219/141/34
f 222/142/35 224/144/36 223/145/36 221/143/35
f 224/144/36 226/146/37 225/147/37 223/145/36
f 226/146/37 228/148/38 227/149/38 225/147/37
f 228/148/38 230/150/39 229/151/39 227/149/38
f 230/150/39 232/152/40 231/153/40 229/151/39
f 232/152/40 234/154/41 233/155/41 231/153/40
f 234/154/41 236/156/42 235/157/42 233/155/41
f 236/156/42 158/158/3 157/11/3 235/157/42
f 238/79/43 240/159/44 239/160/44 237/65/43
f 240/159/44 242/161/45 241/162/45 239/160/44
f 242/161/45 244/163/46 243/164/46 241/162/45
f 244/163/46 246/165/47 245/166/47 243/164/46
f 246/165/47 248/167/48 247/168/48 245/166/47
f 248/167/48 250/169/49 249/170/49 247/168/48
f 250/169/49 252/171/50 251/172/50 249/170/49
f 252/171/50 254/173/51 253/174/51 251/172/50
f 254/173/51 256/175/52 255/176/52 253/174/51
f 256/175/52 258/177/53 257/178/53 255/176/52
f 258/177/53 260/179/54 259/180/54 257/178/53
f 260/179/54 262/181/55 261/182/55 259/180/54
f 262/181/55 264/183/56 263/184/56 261/182/55
f 264/183/56 266/185/57 265/186/57 263/184/56
f 266/185/57 268/187/58 267/188/58 265/186/57
f 268/187/58 270/189/59 269/190/59 267/188/58
f 270/189/59 272/191/60 271/192/60 269/190/59
f 272/191/60 274/193/61 273/194/61 271/192/60
f 274/193/61 276/118/62 275/119/62 273/194/61
f 276/118/62 278/195/63 277/196/63 275/119/62
f 278/195/63 280/197/64 279/198/64 277/196/63
f 280/197/64 282/199/65 281/200/65 279/198/64
f 282/199/65 284/201/66 283/202/66 281/200/65
f 284/201/66 286/203/67 285/204/67 283/202/66
f 286/203/67 288/205/68 287/206/68 285/204/67
f 288/205/68 290/207/69 289/208/69 287/206/68
f 290/207/69 292/209/70 291/210/70 289/208/69
f 292/209/70 294/211/71 293/212/71 291/210/70
f 294/211/71 296/213/72 295/214/72 293/212/71
f 296/213/72 298/215/73 297/216/73 295/214/72
f 298/215/73 300/217/74 299/218/74 297/216/73
f 300/217/74 302/219/75 301/220/75 299/218/74
f 302/219/75 304/221/76 303/222/76 301/220/75
f 304/221/76 306/223/77 305/224/77 303/222/76
f 306/223/77 308/225/78 307/226/78 305/224/77
f 308/225/78 310/227/41 309/228/41 307/226/78
f 310/227/41 312/229/79 311/230/79 309/228/41
f 312/229/79 238/158/43 237/11/43 311/230/79
