<svg width="2897" height="984" xmlns="http://www.w3.org/2000/svg" xmlns:xlink="http://www.w3.org/1999/xlink" xml:space="preserve" overflow="hidden"><g transform="translate(-11 -55)"><path d="M1316 431.835C1316 382.221 1356.22 342 1405.83 342L1765.16 342C1814.78 342 1855 382.221 1855 431.835L1855 791.165C1855 840.78 1814.78 881 1765.16 881L1405.83 881C1356.22 881 1316 840.78 1316 791.165Z" fill="#8ED973" fill-rule="evenodd" fill-opacity="0.698039"/><path d="M1978.5 489.5C1978.5 476.245 1998.42 465.5 2023 465.5 2047.58 465.5 2067.5 476.245 2067.5 489.5 2067.5 502.755 2047.58 513.5 2023 513.5 1998.42 513.5 1978.5 502.755 1978.5 489.5Z" stroke="#7F7F7F" stroke-width="4.58333" stroke-miterlimit="8" fill="#FFFFFF" fill-rule="evenodd"/><path d="M1904 570C1904 556.745 1923.92 546 1948.5 546 1973.08 546 1993 556.745 1993 570 1993 583.255 1973.08 594 1948.5 594 1923.92 594 1904 583.255 1904 570Z" fill="#E97132" fill-rule="evenodd"/><path d="M2052.5 570.5C2052.5 557.245 2072.42 546.5 2097 546.5 2121.58 546.5 2141.5 557.245 2141.5 570.5 2141.5 583.755 2121.58 594.5 2097 594.5 2072.42 594.5 2052.5 583.755 2052.5 570.5Z" stroke="#7F7F7F" stroke-width="4.58333" stroke-miterlimit="8" fill="#FFFFFF" fill-rule="evenodd"/><path d="M1976.5 652.5C1976.5 639.245 1996.42 628.5 2021 628.5 2045.58 628.5 2065.5 639.245 2065.5 652.5 2065.5 665.755 2045.58 676.5 2021 676.5 1996.42 676.5 1976.5 665.755 1976.5 652.5Z" stroke="#7F7F7F" stroke-width="4.58333" stroke-miterlimit="8" fill="#FFFFFF" fill-rule="evenodd"/><path d="M2129 655C2129 641.745 2148.92 631 2173.5 631 2198.08 631 2218 641.745 2218 655 2218 668.255 2198.08 679 2173.5 679 2148.92 679 2129 668.255 2129 655Z" fill="#4E95D9" fill-rule="evenodd"/><path d="M1906 733C1906 719.745 1925.92 709 1950.5 709 1975.08 709 1995 719.745 1995 733 1995 746.255 1975.08 757 1950.5 757 1925.92 757 1906 746.255 1906 733Z" fill="#4E95D9" fill-rule="evenodd"/><path d="M2051 732C2051 718.745 2070.92 708 2095.5 708 2120.08 708 2140 718.745 2140 732 2140 745.255 2120.08 756 2095.5 756 2070.92 756 2051 745.255 2051 732Z" fill="#E97132" fill-rule="evenodd"/><path d="M1.18419-1.24571 33.1066 29.1002 30.7382 31.5916-1.18419 1.24571ZM34.9162 20.5443 41.8881 39.8194 22.2848 33.8318Z" fill="#7F7F7F" transform="matrix(-1 0 0 1 1991.39 506.5)"/><path d="M2055.67 505.242 2088.34 535.688 2086 538.203 2053.33 507.757ZM2090.07 527.115 2097.23 546.319 2077.57 540.527Z" fill="#7F7F7F"/><path d="M1.15998-1.26829 35.2619 29.9213 32.942 32.4579-1.15998 1.26829ZM36.9064 21.3321 44.2483 40.4694 24.5333 34.8605Z" fill="#7F7F7F" transform="matrix(-1 0 0 1 2065.75 587.5)"/><path d="M2129.69 586.26 2164.81 619.977 2162.43 622.457 2127.31 588.74ZM2166.66 611.431 2173.54 630.74 2153.96 624.655Z" fill="#7F7F7F"/><path d="M1.23537-1.19498 30.1113 28.657 27.6406 31.047-1.23537 1.19498ZM32.278 20.1845 38.4358 39.735 19.1007 32.9309Z" fill="#7F7F7F" transform="matrix(-1 0 0 1 1989.94 669.5)"/><path d="M2053.65 668.22 2086.61 697.771 2084.32 700.33 2051.35 670.78ZM2088.17 689.166 2095.7 708.229 2075.93 702.817Z" fill="#7F7F7F"/><rect x="222.5" y="569.5" width="868" height="76" stroke="#595959" stroke-width="6.875" stroke-miterlimit="8" fill="#D9D9D9"/><rect x="222.5" y="670.5" width="868" height="75.9999" stroke="#595959" stroke-width="6.875" stroke-miterlimit="8" fill="#D9D9D9"/><rect x="222.5" y="770.5" width="868" height="77" stroke="#595959" stroke-width="6.875" stroke-miterlimit="8" fill="#D9D9D9"/><rect x="222.5" y="350.5" width="868" height="77" stroke="#595959" stroke-width="6.875" stroke-miterlimit="8" fill="#D9D9D9"/><rect x="155" y="441" width="105" height="105" fill="#8ED973"/><rect x="267" y="441" width="105" height="105" fill="#BFBFBF"/><rect x="378" y="441" width="105" height="105" fill="#8ED973"/><rect x="489" y="441" width="105" height="105" fill="#8ED973"/><rect x="601" y="441" width="105" height="105" fill="#BFBFBF"/><rect x="712" y="441" width="105" height="105" fill="#8ED973"/><rect x="824" y="441" width="105" height="105" fill="#BFBFBF"/><rect x="935" y="441" width="105" height="105" fill="#BFBFBF"/><rect x="1046" y="441" width="105" height="105" fill="#8ED973"/><rect x="1158" y="441" width="105" height="105" fill="#BFBFBF"/><rect x="146" y="441" width="1117" height="105" stroke="#595959" stroke-width="10.3125" stroke-miterlimit="8" stroke-dasharray="41.25 30.9375" fill="none"/><path d="M1346 817 1818.54 817" stroke="#7F7F7F" stroke-width="10.3125" stroke-miterlimit="8" fill="none" fill-rule="evenodd"/><path d="M1381 371 1381 843.54" stroke="#7F7F7F" stroke-width="10.3125" stroke-miterlimit="8" fill="none" fill-rule="evenodd"/><path d="M0 0 302.147 350.073" stroke="#7F7F7F" stroke-width="10.3125" stroke-miterlimit="8" fill="none" fill-rule="evenodd" transform="matrix(1 0 0 -1 1421 775.073)"/><path d="M0 0 221.939 257.143" stroke="#7F7F7F" stroke-width="4.58333" stroke-miterlimit="8" stroke-dasharray="18.3333 13.75" fill="none" fill-rule="evenodd" transform="matrix(1 0 0 -1 1502.5 756.643)"/><path d="M0 0 221.939 257.143" stroke="#7F7F7F" stroke-width="4.58333" stroke-miterlimit="8" stroke-dasharray="18.3333 13.75" fill="none" fill-rule="evenodd" transform="matrix(1 0 0 -1 1422.5 701.643)"/><rect x="1572" y="396" width="40.9999" height="40.9999" fill="#4E95D9"/><rect x="1481" y="417" width="41.0002" height="40.9999" fill="#4E95D9"/><rect x="1456" y="497" width="40.9999" height="40.9999" fill="#4E95D9"/><rect x="1421" y="566" width="40.9999" height="40.9999" fill="#4E95D9"/><rect x="1742" y="553" width="40.9999" height="40.9999" fill="#E97132"/><rect x="1668" y="600" width="40.0002" height="41.0002" fill="#E97132"/><rect x="1613" y="668" width="41.0002" height="41.0002" fill="#E97132"/><rect x="1571" y="743" width="40.9999" height="41.0002" fill="#E97132"/><rect x="1742" y="656" width="40.9999" height="41.0002" fill="#E97132"/><rect x="1656" y="718" width="41.0002" height="40.9999" fill="#E97132"/><text fill="#7F7F7F" font-family="Cascadia Code,Cascadia Code_MSFontService,sans-serif" font-weight="400" font-size="92" transform="matrix(1 0 0 1 223.434 961)">Locally</text><text fill="#7F7F7F" font-family="Cascadia Code,Cascadia Code_MSFontService,sans-serif" font-weight="400" font-size="92" transform="matrix(1 0 0 1 600.413 961)">-</text><text fill="#7F7F7F" font-family="Cascadia Code,Cascadia Code_MSFontService,sans-serif" font-weight="400" font-size="92" transform="matrix(1 0 0 1 654.268 961)">Tailore</text><text fill="#7F7F7F" font-family="Cascadia Code,Cascadia Code_MSFontService,sans-serif" font-weight="400" font-size="92" transform="matrix(1 0 0 1 1031.25 961)">d</text><text fill="#7F7F7F" font-family="Cascadia Code,Cascadia Code_MSFontService,sans-serif" font-weight="400" font-size="92" transform="matrix(1 0 0 1 1085.1 961)"> </text><text fill="#7F7F7F" font-family="Cascadia Code,Cascadia Code_MSFontService,sans-serif" font-weight="400" font-size="92" transform="matrix(1 0 0 1 1138.96 961)">Feature &amp; Model </text><text fill="#7F7F7F" font-family="Cascadia Code,Cascadia Code_MSFontService,sans-serif" font-weight="400" font-size="92" transform="matrix(1 0 0 1 2000.62 961)">Selector</text><text fill="#7F7F7F" font-family="Cascadia Code,Cascadia Code_MSFontService,sans-serif" font-weight="400" font-size="92" transform="matrix(1 0 0 1 2431.46 961)"> </text><text fill="#7F7F7F" font-family="Cascadia Code,Cascadia Code_MSFontService,sans-serif" font-weight="400" font-size="183" transform="matrix(1 0 0 1 121.842 286)">ltfmselector</text><text fill="#7F7F7F" font-family="Cascadia Code,Cascadia Code_MSFontService,sans-serif" font-weight="400" font-size="183" transform="matrix(1 0 0 1 1410.9 286)"> </text><path d="M2267.5 543C2267.5 532.783 2276.01 524.5 2286.5 524.5 2296.99 524.5 2305.5 532.783 2305.5 543 2305.5 553.217 2296.99 561.5 2286.5 561.5 2276.01 561.5 2267.5 553.217 2267.5 543Z" stroke="#7F7F7F" stroke-width="3.4375" stroke-miterlimit="8" fill="#FFFFFF" fill-rule="evenodd"/><path d="M2267.5 599.5C2267.5 589.007 2276.01 580.5 2286.5 580.5 2296.99 580.5 2305.5 589.007 2305.5 599.5 2305.5 609.993 2296.99 618.5 2286.5 618.5 2276.01 618.5 2267.5 609.993 2267.5 599.5Z" stroke="#7F7F7F" stroke-width="3.4375" stroke-miterlimit="8" fill="#FFFFFF" fill-rule="evenodd"/><path d="M2268.5 700.5C2268.5 690.007 2277.01 681.5 2287.5 681.5 2297.99 681.5 2306.5 690.007 2306.5 700.5 2306.5 710.993 2297.99 719.5 2287.5 719.5 2277.01 719.5 2268.5 710.993 2268.5 700.5Z" stroke="#7F7F7F" stroke-width="3.4375" stroke-miterlimit="8" fill="#FFFFFF" fill-rule="evenodd"/><path d="M2365.5 474C2365.5 463.783 2373.78 455.5 2384 455.5 2394.22 455.5 2402.5 463.783 2402.5 474 2402.5 484.217 2394.22 492.5 2384 492.5 2373.78 492.5 2365.5 484.217 2365.5 474Z" stroke="#7F7F7F" stroke-width="3.4375" stroke-miterlimit="8" fill="#FFFFFF" fill-rule="evenodd"/><path d="M2366.5 529C2366.5 518.783 2374.78 510.5 2385 510.5 2395.22 510.5 2403.5 518.783 2403.5 529 2403.5 539.217 2395.22 547.5 2385 547.5 2374.78 547.5 2366.5 539.217 2366.5 529Z" stroke="#7F7F7F" stroke-width="3.4375" stroke-miterlimit="8" fill="#FFFFFF" fill-rule="evenodd"/><path d="M2365.5 584.5C2365.5 574.007 2373.78 565.5 2384 565.5 2394.22 565.5 2402.5 574.007 2402.5 584.5 2402.5 594.993 2394.22 603.5 2384 603.5 2373.78 603.5 2365.5 594.993 2365.5 584.5Z" stroke="#7F7F7F" stroke-width="3.4375" stroke-miterlimit="8" fill="#FFFFFF" fill-rule="evenodd"/><path d="M2365.5 640C2365.5 629.783 2373.78 621.5 2384 621.5 2394.22 621.5 2402.5 629.783 2402.5 640 2402.5 650.217 2394.22 658.5 2384 658.5 2373.78 658.5 2365.5 650.217 2365.5 640Z" stroke="#7F7F7F" stroke-width="3.4375" stroke-miterlimit="8" fill="#FFFFFF" fill-rule="evenodd"/><path d="M2366.5 696.5C2366.5 686.007 2374.78 677.5 2385 677.5 2395.22 677.5 2403.5 686.007 2403.5 696.5 2403.5 706.993 2395.22 715.5 2385 715.5 2374.78 715.5 2366.5 706.993 2366.5 696.5Z" stroke="#7F7F7F" stroke-width="3.4375" stroke-miterlimit="8" fill="#FFFFFF" fill-rule="evenodd"/><path d="M2365.5 752C2365.5 741.783 2373.78 733.5 2384 733.5 2394.22 733.5 2402.5 741.783 2402.5 752 2402.5 762.217 2394.22 770.5 2384 770.5 2373.78 770.5 2365.5 762.217 2365.5 752Z" stroke="#7F7F7F" stroke-width="3.4375" stroke-miterlimit="8" fill="#FFFFFF" fill-rule="evenodd"/><path d="M2460.5 474C2460.5 463.783 2469.01 455.5 2479.5 455.5 2489.99 455.5 2498.5 463.783 2498.5 474 2498.5 484.217 2489.99 492.5 2479.5 492.5 2469.01 492.5 2460.5 484.217 2460.5 474Z" stroke="#7F7F7F" stroke-width="3.4375" stroke-miterlimit="8" fill="#FFFFFF" fill-rule="evenodd"/><path d="M2461.5 529C2461.5 518.783 2470.01 510.5 2480.5 510.5 2490.99 510.5 2499.5 518.783 2499.5 529 2499.5 539.217 2490.99 547.5 2480.5 547.5 2470.01 547.5 2461.5 539.217 2461.5 529Z" stroke="#7F7F7F" stroke-width="3.4375" stroke-miterlimit="8" fill="#FFFFFF" fill-rule="evenodd"/><path d="M2460.5 584.5C2460.5 574.007 2469.01 565.5 2479.5 565.5 2489.99 565.5 2498.5 574.007 2498.5 584.5 2498.5 594.993 2489.99 603.5 2479.5 603.5 2469.01 603.5 2460.5 594.993 2460.5 584.5Z" stroke="#7F7F7F" stroke-width="3.4375" stroke-miterlimit="8" fill="#FFFFFF" fill-rule="evenodd"/><path d="M2460.5 640C2460.5 629.783 2469.01 621.5 2479.5 621.5 2489.99 621.5 2498.5 629.783 2498.5 640 2498.5 650.217 2489.99 658.5 2479.5 658.5 2469.01 658.5 2460.5 650.217 2460.5 640Z" stroke="#7F7F7F" stroke-width="3.4375" stroke-miterlimit="8" fill="#FFFFFF" fill-rule="evenodd"/><path d="M2461.5 696.5C2461.5 686.007 2470.01 677.5 2480.5 677.5 2490.99 677.5 2499.5 686.007 2499.5 696.5 2499.5 706.993 2490.99 715.5 2480.5 715.5 2470.01 715.5 2461.5 706.993 2461.5 696.5Z" stroke="#7F7F7F" stroke-width="3.4375" stroke-miterlimit="8" fill="#FFFFFF" fill-rule="evenodd"/><path d="M2460.5 752C2460.5 741.783 2469.01 733.5 2479.5 733.5 2489.99 733.5 2498.5 741.783 2498.5 752 2498.5 762.217 2489.99 770.5 2479.5 770.5 2469.01 770.5 2460.5 762.217 2460.5 752Z" stroke="#7F7F7F" stroke-width="3.4375" stroke-miterlimit="8" fill="#FFFFFF" fill-rule="evenodd"/><path d="M2561.5 568.5C2561.5 558.007 2569.78 549.5 2580 549.5 2590.22 549.5 2598.5 558.007 2598.5 568.5 2598.5 578.993 2590.22 587.5 2580 587.5 2569.78 587.5 2561.5 578.993 2561.5 568.5Z" stroke="#7F7F7F" stroke-width="3.4375" stroke-miterlimit="8" fill="#4E95D9" fill-rule="evenodd"/><path d="M2562.5 661C2562.5 650.783 2570.78 642.5 2581 642.5 2591.22 642.5 2599.5 650.783 2599.5 661 2599.5 671.217 2591.22 679.5 2581 679.5 2570.78 679.5 2562.5 671.217 2562.5 661Z" stroke="#7F7F7F" stroke-width="3.4375" stroke-miterlimit="8" fill="#E97132" fill-rule="evenodd"/><path d="M0 0 60.0294 69.0586" stroke="#7F7F7F" stroke-width="2.29167" stroke-miterlimit="8" fill="none" fill-rule="evenodd" transform="matrix(1 0 0 -1 2305 542.059)"/><path d="M0 0 61.116 13.6042" stroke="#7F7F7F" stroke-width="2.29167" stroke-miterlimit="8" fill="none" fill-rule="evenodd" transform="matrix(1 0 0 -1 2305 542.604)"/><path d="M2305 542 2365.03 583.851" stroke="#7F7F7F" stroke-width="2.29167" stroke-miterlimit="8" fill="none" fill-rule="evenodd"/><path d="M2305 542 2365.03 639.305" stroke="#7F7F7F" stroke-width="2.29167" stroke-miterlimit="8" fill="none" fill-rule="evenodd"/><path d="M2305 542 2366.12 695.871" stroke="#7F7F7F" stroke-width="2.29167" stroke-miterlimit="8" fill="none" fill-rule="evenodd"/><path d="M2305 542 2365.03 751.325" stroke="#7F7F7F" stroke-width="2.29167" stroke-miterlimit="8" fill="none" fill-rule="evenodd"/><path d="M2402 473 2460.45 473" stroke="#7F7F7F" stroke-width="2.29167" stroke-miterlimit="8" fill="none" fill-rule="evenodd"/><path d="M2402 473 2461.54 528.454" stroke="#7F7F7F" stroke-width="2.29167" stroke-miterlimit="8" fill="none" fill-rule="evenodd"/><path d="M2402 473 2460.45 583.909" stroke="#7F7F7F" stroke-width="2.29167" stroke-miterlimit="8" fill="none" fill-rule="evenodd"/><path d="M2402 473 2460.45 639.363" stroke="#7F7F7F" stroke-width="2.29167" stroke-miterlimit="8" fill="none" fill-rule="evenodd"/><path d="M2402 473 2461.54 695.929" stroke="#7F7F7F" stroke-width="2.29167" stroke-miterlimit="8" fill="none" fill-rule="evenodd"/><path d="M2402 473 2460.45 751.383" stroke="#7F7F7F" stroke-width="2.29167" stroke-miterlimit="8" fill="none" fill-rule="evenodd"/><path d="M2498 473 2561.38 567.713" stroke="#7F7F7F" stroke-width="2.29167" stroke-miterlimit="8" fill="none" fill-rule="evenodd"/><path d="M2499 529 2561.29 568.259" stroke="#7F7F7F" stroke-width="2.29167" stroke-miterlimit="8" fill="none" fill-rule="evenodd"/><path d="M0 0 63.3806 16.1958" stroke="#7F7F7F" stroke-width="2.29167" stroke-miterlimit="8" fill="none" fill-rule="evenodd" transform="matrix(1 0 0 -1 2498 584.196)"/><path d="M0 0 63.3806 71.6501" stroke="#7F7F7F" stroke-width="2.29167" stroke-miterlimit="8" fill="none" fill-rule="evenodd" transform="matrix(1 0 0 -1 2498 639.65)"/><path d="M0 0 62.294 128.216" stroke="#7F7F7F" stroke-width="2.29167" stroke-miterlimit="8" fill="none" fill-rule="evenodd" transform="matrix(1 0 0 -1 2499 696.216)"/><path d="M0 0 63.3806 183.67" stroke="#7F7F7F" stroke-width="2.29167" stroke-miterlimit="8" fill="none" fill-rule="evenodd" transform="matrix(1 0 0 -1 2498 751.67)"/><path d="M2403 529 2461.45 529" stroke="#7F7F7F" stroke-width="2.29167" stroke-miterlimit="8" fill="none" fill-rule="evenodd"/><path d="M0 0 57.3642 55.4544" stroke="#7F7F7F" stroke-width="2.29167" stroke-miterlimit="8" fill="none" fill-rule="evenodd" transform="matrix(1 0 0 -1 2403 528.454)"/><path d="M2403 529 2460.36 584.454" stroke="#7F7F7F" stroke-width="2.29167" stroke-miterlimit="8" fill="none" fill-rule="evenodd"/><path d="M2403 529 2460.36 639.909" stroke="#7F7F7F" stroke-width="2.29167" stroke-miterlimit="8" fill="none" fill-rule="evenodd"/><path d="M2403 529 2461.45 696.474" stroke="#7F7F7F" stroke-width="2.29167" stroke-miterlimit="8" fill="none" fill-rule="evenodd"/><path d="M2403 529 2460.36 751.929" stroke="#7F7F7F" stroke-width="2.29167" stroke-miterlimit="8" fill="none" fill-rule="evenodd"/><path d="M2402 752 2460.45 752" stroke="#7F7F7F" stroke-width="2.29167" stroke-miterlimit="8" fill="none" fill-rule="evenodd"/><path d="M0 0 59.5379 55.4544" stroke="#7F7F7F" stroke-width="2.29167" stroke-miterlimit="8" fill="none" fill-rule="evenodd" transform="matrix(1 0 0 -1 2402 751.454)"/><path d="M0 0 58.4509 112.02" stroke="#7F7F7F" stroke-width="2.29167" stroke-miterlimit="8" fill="none" fill-rule="evenodd" transform="matrix(1 0 0 -1 2402 752.02)"/><path d="M0 0 58.4509 167.474" stroke="#7F7F7F" stroke-width="2.29167" stroke-miterlimit="8" fill="none" fill-rule="evenodd" transform="matrix(1 0 0 -1 2402 751.474)"/><path d="M2460.45 752.02 2402 640" stroke="#7F7F7F" stroke-width="2.29167" stroke-miterlimit="8" fill="none" fill-rule="evenodd"/><path d="M0 0 59.5379 222.929" stroke="#7F7F7F" stroke-width="2.29167" stroke-miterlimit="8" fill="none" fill-rule="evenodd" transform="matrix(1 0 0 -1 2402 751.929)"/><path d="M2403 696 2461.45 696" stroke="#7F7F7F" stroke-width="2.29167" stroke-miterlimit="8" fill="none" fill-rule="evenodd"/><path d="M2403 696 2460.36 751.454" stroke="#7F7F7F" stroke-width="2.29167" stroke-miterlimit="8" fill="none" fill-rule="evenodd"/><path d="M0 0 57.3642 56.5652" stroke="#7F7F7F" stroke-width="2.29167" stroke-miterlimit="8" fill="none" fill-rule="evenodd" transform="matrix(1 0 0 -1 2403 696.565)"/><path d="M2402 640 2460.45 640" stroke="#7F7F7F" stroke-width="2.29167" stroke-miterlimit="8" fill="none" fill-rule="evenodd"/><path d="M2402 640 2461.54 695.454" stroke="#7F7F7F" stroke-width="2.29167" stroke-miterlimit="8" fill="none" fill-rule="evenodd"/><path d="M0 0 58.4509 278.383" stroke="#7F7F7F" stroke-width="2.29167" stroke-miterlimit="8" fill="none" fill-rule="evenodd" transform="matrix(1 0 0 -1 2402 751.383)"/><path d="M2306 700 2364.94 751.588" stroke="#7F7F7F" stroke-width="2.29167" stroke-miterlimit="8" fill="none" fill-rule="evenodd"/><path d="M2460.45 639.454 2402 584" stroke="#7F7F7F" stroke-width="2.29167" stroke-miterlimit="8" fill="none" fill-rule="evenodd"/><path d="M0 0 58.4509 110.909" stroke="#7F7F7F" stroke-width="2.29167" stroke-miterlimit="8" fill="none" fill-rule="evenodd" transform="matrix(-1 0 0 1 2460.45 473)"/><path d="M0 0 58.4509 0.000360892" stroke="#7F7F7F" stroke-width="2.29167" stroke-miterlimit="8" fill="none" fill-rule="evenodd" transform="matrix(-1 0 0 1 2460.45 584)"/><path d="M0 0 59.5379 110.909" stroke="#7F7F7F" stroke-width="2.29167" stroke-miterlimit="8" fill="none" fill-rule="evenodd" transform="matrix(-1 0 0 1 2461.54 529)"/><path d="M0 0 60.0294 3.86588" stroke="#7F7F7F" stroke-width="2.29167" stroke-miterlimit="8" fill="none" fill-rule="evenodd" transform="matrix(1 0 0 -1 2306 699.866)"/><path d="M0 0 58.9427 60.4314" stroke="#7F7F7F" stroke-width="2.29167" stroke-miterlimit="8" fill="none" fill-rule="evenodd" transform="matrix(1 0 0 -1 2306 700.432)"/><path d="M0 0 58.9427 115.886" stroke="#7F7F7F" stroke-width="2.29167" stroke-miterlimit="8" fill="none" fill-rule="evenodd" transform="matrix(1 0 0 -1 2306 699.886)"/><path d="M0 0 60.0294 171.341" stroke="#7F7F7F" stroke-width="2.29167" stroke-miterlimit="8" fill="none" fill-rule="evenodd" transform="matrix(1 0 0 -1 2306 700.341)"/><path d="M0 0 58.9427 226.795" stroke="#7F7F7F" stroke-width="2.29167" stroke-miterlimit="8" fill="none" fill-rule="evenodd" transform="matrix(1 0 0 -1 2306 699.795)"/><path d="M0 0 60.0294 125.743" stroke="#7F7F7F" stroke-width="2.29167" stroke-miterlimit="8" fill="none" fill-rule="evenodd" transform="matrix(1 0 0 -1 2305 598.743)"/><path d="M0 0 61.116 70.2885" stroke="#7F7F7F" stroke-width="2.29167" stroke-miterlimit="8" fill="none" fill-rule="evenodd" transform="matrix(1 0 0 -1 2305 599.289)"/><path d="M0 0 60.0294 14.8338" stroke="#7F7F7F" stroke-width="2.29167" stroke-miterlimit="8" fill="none" fill-rule="evenodd" transform="matrix(1 0 0 -1 2305 598.834)"/><path d="M2305 599 2365.03 639.621" stroke="#7F7F7F" stroke-width="2.29167" stroke-miterlimit="8" fill="none" fill-rule="evenodd"/><path d="M2305 599 2366.12 696.186" stroke="#7F7F7F" stroke-width="2.29167" stroke-miterlimit="8" fill="none" fill-rule="evenodd"/><path d="M2305 599 2365.03 751.641" stroke="#7F7F7F" stroke-width="2.29167" stroke-miterlimit="8" fill="none" fill-rule="evenodd"/><path d="M0 0 64.4677 91.2423" stroke="#7F7F7F" stroke-width="2.29167" stroke-miterlimit="8" fill="none" fill-rule="evenodd" transform="matrix(1 0 0 -1 2498 751.242)"/><path d="M0 0 63.3806 35.7875" stroke="#7F7F7F" stroke-width="2.29167" stroke-miterlimit="8" fill="none" fill-rule="evenodd" transform="matrix(1 0 0 -1 2499 695.788)"/><path d="M2498 640 2562.47 660.778" stroke="#7F7F7F" stroke-width="2.29167" stroke-miterlimit="8" fill="none" fill-rule="evenodd"/><path d="M2498 584 2562.47 660.232" stroke="#7F7F7F" stroke-width="2.29167" stroke-miterlimit="8" fill="none" fill-rule="evenodd"/><path d="M2499 529 2562.38 660.687" stroke="#7F7F7F" stroke-width="2.29167" stroke-miterlimit="8" fill="none" fill-rule="evenodd"/><path d="M2498 473 2562.47 660.141" stroke="#7F7F7F" stroke-width="2.29167" stroke-miterlimit="8" fill="none" fill-rule="evenodd"/><path d="M2282 635C2282 632.791 2283.57 631 2285.5 631 2287.43 631 2289 632.791 2289 635 2289 637.209 2287.43 639 2285.5 639 2283.57 639 2282 637.209 2282 635Z" fill="#7F7F7F" fill-rule="evenodd"/><path d="M2282 649.5C2282 647.567 2283.57 646 2285.5 646 2287.43 646 2289 647.567 2289 649.5 2289 651.433 2287.43 653 2285.5 653 2283.57 653 2282 651.433 2282 649.5Z" fill="#7F7F7F" fill-rule="evenodd"/><path d="M2282 662.5C2282 660.567 2283.57 659 2285.5 659 2287.43 659 2289 660.567 2289 662.5 2289 664.433 2287.43 666 2285.5 666 2283.57 666 2282 664.433 2282 662.5Z" fill="#7F7F7F" fill-rule="evenodd"/></g></svg>