<?xml version="1.0" standalone="no"?>
<!DOCTYPE svg PUBLIC "-//W3C//DTD SVG 20010904//EN"
 "http://www.w3.org/TR/2001/REC-SVG-20010904/DTD/svg10.dtd">
<svg version="1.0" xmlns="http://www.w3.org/2000/svg"
 width="1500.000000pt" height="600.000000pt" viewBox="0 0 1500.000000 600.000000"
 preserveAspectRatio="xMidYMid meet">

<g transform="translate(0.000000,600.000000) scale(0.100000,-0.100000)"
fill="#ffffff" stroke="none">
<path d="M2969 4960 c-86 -15 -165 -72 -203 -147 -21 -41 -21 -109 -1 -117 16
-6 25 8 45 71 15 49 71 110 120 131 75 32 255 11 399 -47 56 -22 66 -30 69
-53 4 -35 24 -50 63 -46 62 6 67 75 7 98 -18 6 -55 22 -83 35 -131 60 -312 93
-416 75z"/>
<path d="M2943 4755 c-55 -28 -95 -68 -121 -121 -27 -58 11 -90 45 -36 26 42
75 92 108 110 46 24 153 19 255 -13 106 -34 156 -59 245 -124 62 -45 69 -54
67 -80 -6 -57 64 -94 101 -53 49 54 -20 149 -72 100 -11 -11 -12 -9 -7 8 13
44 -136 144 -297 201 -52 18 -100 26 -172 30 -93 4 -103 3 -152 -22z"/>
<path d="M2600 4658 c-51 -13 -110 -57 -144 -106 -24 -33 -31 -56 -34 -105 -5
-84 22 -149 92 -215 93 -88 212 -130 397 -139 168 -8 203 5 134 49 -19 13 -35
26 -35 29 0 4 39 15 86 25 l86 18 -6 35 c-10 61 -74 178 -134 243 -54 58 -126
118 -143 118 -4 0 -12 -13 -17 -29 -14 -41 -43 -54 -71 -34 -19 13 -22 23 -19
61 3 45 2 47 -27 53 -44 10 -125 8 -165 -3z m81 -74 c12 -15 11 -18 -5 -28
-69 -41 -82 -55 -103 -106 -25 -63 -56 -79 -72 -37 -22 58 31 146 104 172 52
18 60 18 76 -1z m101 -110 c78 -40 58 -164 -28 -180 -45 -8 -91 11 -109 47
-49 94 41 182 137 133z"/>
<path d="M2735 4469 c4 -5 4 -21 1 -34 -7 -29 -49 -43 -71 -25 -23 19 -28 6
-15 -34 27 -82 118 -88 155 -10 19 40 5 78 -36 100 -33 17 -42 18 -34 3z"/>
<path d="M1278 4384 c-40 -42 -74 -81 -76 -88 -1 -7 7 -21 18 -31 20 -18 21
-18 76 36 42 41 54 60 51 77 -9 48 22 18 68 -67 58 -106 135 -224 152 -229 6
-2 20 9 29 24 17 26 17 28 -9 78 -42 80 -155 258 -169 268 -37 23 -67 8 -140
-68z"/>
<path d="M526 4441 c-4 -5 -6 -206 -5 -446 l1 -437 35 68 c86 168 219 324 335
392 121 72 300 109 406 84 23 -5 42 -8 42 -5 0 3 -28 36 -62 73 -35 36 -106
114 -158 173 l-95 106 -247 1 c-138 0 -249 -4 -252 -9z"/>
<path d="M2144 4436 c-104 -33 -184 -129 -184 -220 0 -82 55 -150 136 -171 42
-10 56 -9 125 11 42 12 86 27 98 33 30 16 67 70 81 117 11 36 10 48 -9 98 -11
31 -21 68 -21 81 0 54 -126 82 -226 51z m114 -58 c20 -20 14 -26 -45 -45 -41
-13 -74 -33 -114 -70 -31 -29 -59 -50 -63 -46 -14 14 -5 58 20 90 47 62 168
105 202 71z"/>
<path d="M1765 4166 c-52 -24 -125 -95 -125 -121 0 -8 -15 -22 -32 -31 -43
-22 -67 -43 -84 -75 -11 -23 -10 -33 11 -85 13 -32 33 -67 45 -76 19 -15 24
-15 65 -1 36 12 51 12 79 3 43 -14 83 5 170 79 46 39 68 51 100 53 36 3 43 8
63 43 13 22 23 43 23 46 0 3 -22 20 -48 37 -36 23 -57 48 -81 92 l-32 60 -52
0 c-33 0 -70 -9 -102 -24z m100 -60 c0 -13 -18 -30 -50 -49 -27 -16 -61 -40
-76 -53 -14 -13 -28 -24 -31 -24 -15 0 -16 34 -2 64 30 63 159 113 159 62z
m-215 -186 c0 -20 -43 -45 -59 -36 -18 11 -13 44 11 68 20 20 22 20 35 3 7
-11 13 -26 13 -35z"/>
<path d="M3130 4163 c-39 -7 -46 -21 -17 -34 30 -14 82 0 82 22 0 15 -24 20
-65 12z"/>
<path d="M2468 4066 c-32 -36 -58 -68 -58 -71 0 -4 45 -4 99 0 55 4 128 4 163
0 l63 -7 161 -161 c88 -89 172 -178 187 -197 l26 -35 1 215 0 215 -157 0
c-193 0 -241 12 -423 102 -3 2 -31 -26 -62 -61z"/>
<path d="M1123 4029 c-111 -19 -217 -81 -331 -197 -82 -82 -128 -149 -174
-250 -57 -127 -76 -194 -80 -281 l-3 -84 60 -17 c33 -9 81 -20 107 -24 47 -7
47 -7 74 34 27 41 27 42 8 53 -31 18 -125 110 -139 137 -16 32 -29 120 -17
120 4 0 19 -25 31 -55 25 -61 98 -148 143 -171 17 -9 31 -14 32 -12 31 51 68
105 104 151 l44 58 -24 27 c-38 42 -85 114 -111 173 l-24 54 -7 -59 c-6 -47
-16 -70 -48 -113 -22 -29 -46 -53 -54 -53 -7 0 -16 15 -19 33 -9 44 22 111 79
176 25 28 46 61 46 71 0 34 17 22 25 -17 12 -69 96 -201 161 -256 l30 -26 75
25 c41 13 145 43 232 66 181 48 177 44 177 155 0 80 -21 130 -83 194 -49 51
-94 75 -168 89 -58 11 -73 11 -146 -1z m148 -69 c37 -20 13 -91 -26 -76 -25 9
-40 53 -25 71 15 18 24 19 51 5z m-133 -38 c4 -40 -9 -57 -61 -84 -22 -11 -63
-38 -90 -60 -45 -35 -52 -37 -65 -24 -9 8 -15 34 -16 60 -1 52 5 58 109 111
87 45 119 44 123 -3z m-498 -557 c0 -23 -32 -60 -43 -48 -10 9 -9 38 3 68 9
23 13 25 25 15 8 -7 15 -22 15 -35z"/>
<path d="M2213 4030 c-15 -6 -23 -18 -23 -32 0 -40 20 -97 44 -124 20 -24 32
-27 97 -31 41 -3 133 0 204 5 l130 10 34 -36 c19 -21 82 -86 140 -146 95 -98
107 -108 129 -100 14 5 30 17 36 26 9 15 -12 41 -144 174 l-155 156 -190 -5
c-104 -3 -197 -8 -206 -12 -13 -5 -17 3 -22 46 -9 74 -25 89 -74 69z"/>
<path d="M14138 4015 c-26 -8 -56 -27 -67 -41 -51 -65 -51 -181 1 -240 36 -41
79 -54 183 -54 145 0 205 51 205 176 0 70 -24 116 -78 147 -44 26 -179 33
-244 12z"/>
<path d="M8210 3235 l0 -775 184 0 185 0 3 338 c3 331 3 338 27 385 60 123
233 144 296 37 19 -33 20 -54 23 -397 l3 -363 185 0 185 0 -3 423 -3 422 -28
60 c-36 78 -95 137 -171 172 -55 25 -72 28 -166 28 -94 0 -111 -3 -165 -28
-69 -32 -115 -73 -156 -136 l-29 -45 0 327 0 327 -185 0 -185 0 0 -775z"/>
<path d="M10820 3235 l0 -775 184 0 185 0 3 338 c3 331 3 338 27 385 60 123
233 144 296 37 19 -33 20 -54 23 -397 l3 -363 185 0 185 0 -3 423 -3 422 -28
60 c-36 78 -95 137 -171 172 -55 25 -72 28 -166 28 -94 0 -111 -3 -165 -28
-69 -32 -115 -73 -156 -136 l-29 -45 0 327 0 327 -185 0 -185 0 0 -775z"/>
<path d="M1935 3864 c-33 -35 -30 -114 6 -206 14 -36 108 -98 198 -132 56 -22
70 -32 76 -54 3 -14 34 -85 67 -157 33 -71 69 -153 79 -182 22 -58 39 -69 77
-50 51 24 54 18 -147 412 l-36 70 -120 61 -120 61 -3 84 c-2 59 -7 89 -19 101
-21 24 -30 23 -58 -8z"/>
<path d="M2505 3779 c-66 -5 -141 -7 -167 -4 -46 5 -46 5 -97 -52 l-51 -57 54
-28 55 -28 93 -185 c51 -102 95 -185 98 -184 3 0 30 29 60 65 30 35 58 64 63
64 4 0 7 -94 7 -210 l0 -209 46 -78 c52 -89 93 -141 176 -230 68 -72 76 -108
32 -142 -50 -39 -128 -16 -214 65 l-51 47 3 -129 3 -129 248 -3 247 -2 1 37
c0 21 0 243 0 493 l-1 455 -91 85 c-51 47 -158 149 -238 228 -81 78 -149 141
-151 141 -3 -1 -59 -6 -125 -10z"/>
<path d="M1652 3745 c-33 -24 -55 -73 -48 -107 4 -18 1 -30 -7 -32 -6 -2 -86
-26 -177 -54 -91 -28 -217 -65 -280 -82 -63 -18 -123 -40 -133 -49 -22 -21
-196 -274 -268 -389 -49 -80 -51 -84 -34 -103 10 -10 31 -19 46 -19 26 0 38
17 160 223 72 122 133 224 135 225 1 2 77 24 167 48 168 45 306 93 395 138 44
22 55 34 82 90 36 72 38 119 5 124 -11 1 -30 -5 -43 -13z"/>
<path d="M3006 3574 c-14 -37 -3 -56 82 -129 99 -87 203 -153 255 -162 29 -4
36 -2 42 16 9 29 2 36 -60 65 -73 33 -126 71 -219 155 -43 39 -82 71 -86 71
-4 0 -11 -7 -14 -16z"/>
<path d="M3795 3553 c-108 -23 -191 -67 -266 -142 -106 -107 -152 -228 -152
-406 0 -173 42 -290 145 -400 102 -109 246 -165 428 -165 182 0 326 56 428
164 103 111 143 222 143 401 0 184 -42 297 -150 406 -44 43 -88 76 -131 97
-125 59 -298 77 -445 45z m209 -254 c53 -13 92 -49 119 -108 29 -64 36 -254
13 -335 -32 -108 -118 -168 -218 -152 -62 10 -105 43 -136 106 -25 52 -27 63
-27 195 0 133 1 143 28 197 29 59 53 81 108 96 46 14 63 14 113 1z"/>
<path d="M5100 3554 c-261 -56 -420 -263 -420 -549 0 -359 239 -579 610 -562
337 15 540 227 540 562 0 345 -228 567 -580 564 -47 0 -114 -7 -150 -15z m253
-272 c38 -21 73 -70 87 -121 31 -109 20 -289 -23 -366 -42 -74 -129 -109 -215
-86 -57 16 -95 51 -123 113 -20 47 -23 68 -23 183 0 114 3 136 23 182 27 61
55 90 108 109 47 18 124 11 166 -14z"/>
<path d="M6602 3555 c-86 -26 -144 -81 -195 -180 l-25 -50 -6 55 c-3 30 -7 80
-9 110 l-2 55 -162 3 -163 2 0 -545 0 -545 185 0 185 0 0 301 c0 328 3 354 53
415 59 71 190 105 294 75 37 -11 34 -20 53 149 6 52 13 107 16 122 5 24 1 28
-33 37 -51 15 -138 13 -191 -4z"/>
<path d="M7345 3556 c-275 -64 -425 -258 -425 -551 0 -349 223 -565 585 -565
181 0 332 56 423 155 50 54 102 161 85 175 -11 9 -297 100 -315 100 -8 0 -19
-18 -25 -42 -23 -86 -102 -136 -196 -125 -72 9 -119 44 -154 114 -26 54 -28
66 -28 178 1 173 30 250 110 290 56 27 144 27 182 -1 40 -30 72 -81 80 -126 3
-23 10 -37 17 -35 6 2 82 28 169 56 179 60 177 57 131 150 -50 100 -157 182
-285 217 -78 21 -280 27 -354 10z"/>
<path d="M9943 3559 c-208 -35 -375 -192 -423 -399 -17 -71 -17 -239 -1 -310
48 -205 200 -350 413 -394 217 -45 448 8 570 130 42 42 97 129 87 138 -2 2
-69 25 -149 51 -114 38 -145 45 -149 34 -9 -29 -78 -87 -116 -98 -152 -42
-276 27 -309 172 l-6 27 375 0 375 0 0 118 c0 187 -42 304 -145 401 -123 116
-316 164 -522 130z m234 -275 c34 -25 69 -86 78 -136 l7 -38 -196 0 c-190 0
-196 1 -196 20 0 30 27 91 53 119 57 62 192 81 254 35z"/>
<path d="M13126 3560 c-128 -23 -216 -69 -290 -152 -40 -43 -86 -136 -86 -171
0 -7 60 -26 155 -48 l155 -36 11 36 c7 20 19 46 27 59 40 61 182 88 238 46 45
-33 67 -70 72 -122 5 -59 31 -48 -231 -102 -217 -45 -264 -60 -329 -106 -129
-91 -145 -311 -30 -425 139 -138 464 -130 604 14 32 33 41 38 49 26 5 -8 9
-17 9 -20 0 -19 81 -81 125 -96 60 -21 203 -24 256 -5 l37 13 6 87 c4 48 10
95 12 104 5 16 0 17 -40 12 -39 -6 -48 -3 -70 19 l-26 26 0 234 c0 128 -5 260
-11 292 -12 68 -46 140 -89 188 -34 40 -131 93 -204 114 -62 17 -282 25 -350
13z m284 -693 c0 -112 -75 -187 -186 -187 -42 0 -59 5 -83 26 -26 22 -31 33
-31 70 0 73 30 92 200 128 104 22 100 24 100 -37z"/>
<path d="M14060 3005 l0 -545 185 0 185 0 0 545 0 545 -185 0 -185 0 0 -545z"/>
<path d="M1966 3432 c-34 -37 -85 -91 -112 -120 l-49 -53 -60 58 c-34 32 -80
80 -104 106 l-43 49 -66 -35 c-37 -19 -96 -47 -131 -61 -48 -19 -83 -44 -137
-96 -39 -39 -77 -70 -83 -70 -30 0 -1 -41 111 -158 248 -257 503 -512 513
-512 6 0 124 119 263 264 l252 265 -34 78 c-81 187 -128 289 -139 300 -7 6
-36 21 -65 32 l-53 20 -63 -67z"/>
<path d="M1183 3337 c-99 -20 -102 -21 -122 -58 -12 -20 -21 -39 -21 -43 0
-26 146 27 218 78 28 21 52 40 52 42 0 6 -15 4 -127 -19z"/>
<path d="M524 3128 c3 -13 6 -81 6 -153 l1 -130 29 35 c42 49 132 208 125 220
-3 5 -14 10 -24 10 -10 0 -44 9 -76 20 -72 25 -69 25 -61 -2z"/>
<path d="M988 3137 c-7 -8 -44 -69 -82 -136 -45 -78 -79 -128 -97 -138 -16
-10 -60 -65 -99 -125 -38 -59 -97 -136 -130 -171 l-60 -65 7 -76 6 -76 256 2
256 3 0 397 0 398 -22 0 c-12 0 -28 -6 -35 -13z"/>
<path d="M2456 3058 c-14 -20 -12 -29 46 -137 115 -219 218 -350 286 -368 50
-12 58 50 10 75 -66 34 -115 100 -199 263 -101 198 -112 211 -143 167z"/>
<path d="M648 2873 c-14 -16 -63 -80 -110 -143 -121 -162 -181 -222 -267 -262
-63 -29 -71 -36 -69 -58 2 -20 9 -26 33 -28 83 -8 298 196 444 421 36 55 41
70 31 82 -18 22 -33 19 -62 -12z"/>
<path d="M12245 2811 c-76 -35 -105 -85 -105 -179 0 -75 30 -128 90 -162 63
-35 186 -36 245 -2 56 32 87 82 93 147 8 93 -29 163 -102 196 -55 25 -167 25
-221 0z"/>
</g>
</svg>
