<svg width="48" height="27" viewBox="0 0 48 27" fill="none" xmlns="http://www.w3.org/2000/svg">
<path d="M5 21.18C4.06667 21.18 3.25333 21.0067 2.56 20.66C1.88 20.3 1.34667 19.8 0.96 19.16C0.586667 18.5067 0.4 17.74 0.4 16.86V14.14C0.4 13.26 0.586667 12.5 0.96 11.86C1.34667 11.2067 1.88 10.7067 2.56 10.36C3.25333 10 4.06667 9.82 5 9.82C5.94667 9.82 6.76 10 7.44 10.36C8.12 10.7067 8.64667 11.2067 9.02 11.86C9.40667 12.5 9.6 13.2533 9.6 14.12V16.86C9.6 17.74 9.40667 18.5067 9.02 19.16C8.64667 19.8 8.12 20.3 7.44 20.66C6.76 21.0067 5.94667 21.18 5 21.18ZM5 19C5.66667 19 6.18 18.82 6.54 18.46C6.91333 18.0867 7.1 17.5533 7.1 16.86V14.14C7.1 13.4333 6.91333 12.9 6.54 12.54C6.18 12.18 5.66667 12 5 12C4.34667 12 3.83333 12.18 3.46 12.54C3.08667 12.9 2.9 13.4333 2.9 14.14V16.86C2.9 17.5533 3.08667 18.0867 3.46 18.46C3.83333 18.82 4.34667 19 5 19ZM16.9922 21.2C15.5922 21.2 14.4922 20.8133 13.6922 20.04C12.8922 19.2533 12.4922 18.1867 12.4922 16.84V10H14.9922V16.82C14.9922 17.5267 15.1655 18.0733 15.5122 18.46C15.8589 18.8333 16.3522 19.02 16.9922 19.02C17.6189 19.02 18.1055 18.8333 18.4522 18.46C18.8122 18.0733 18.9922 17.5267 18.9922 16.82V10H21.4922V16.84C21.4922 18.1867 21.0855 19.2533 20.2722 20.04C19.4589 20.8133 18.3655 21.2 16.9922 21.2ZM30.1844 21C29.131 21 28.3044 20.7067 27.7044 20.12C27.1177 19.5333 26.8244 18.7267 26.8244 17.7V12.26H23.8444V10H26.8244V6.9H29.3444V10H33.5644V12.26H29.3444V17.7C29.3444 18.3933 29.6844 18.74 30.3644 18.74H33.3644V21H30.1844ZM34.7766 27V0.599998H47.1766V27H34.7766Z" fill="#008B8B"/>
</svg>
