# SSTK version 0.8.0
# 4
mtllib original-4.mtl
o #ID14
v -0.045650 0.518432 0.567777
v -0.047727 0.536604 0.567777
v -0.045650 0.536604 0.567777
v -0.047727 0.527778 0.567777
v -0.067618 0.543958 0.567777
v -0.070886 0.543956 0.567777
v -0.069252 0.544031 0.567777
v -0.065997 0.543737 0.567777
v -0.072507 0.543734 0.567777
v -0.064402 0.543372 0.567777
v -0.072758 0.543374 0.567777
v -0.071418 0.543273 0.567777
v -0.062847 0.542864 0.567777
v -0.070091 0.543067 0.567777
v -0.068784 0.542756 0.567777
v -0.061344 0.542218 0.567777
v -0.067506 0.542342 0.567777
v -0.066264 0.541828 0.567777
v -0.059906 0.541439 0.567777
v -0.065068 0.541217 0.567777
v -0.058543 0.540534 0.567777
v -0.063923 0.540513 0.567777
v -0.057268 0.539509 0.567777
v -0.062838 0.539720 0.567777
v -0.061820 0.538844 0.567777
v -0.056090 0.538373 0.567777
v -0.060874 0.537890 0.567777
v -0.060007 0.536864 0.567777
v -0.074102 0.543367 0.567777
v -0.045650 0.518432 0.571047
v -0.060007 0.536864 0.567777
v -0.045650 0.518432 0.567777
v -0.060007 0.536864 0.571047
v -0.060007 0.536864 0.571047
v -0.060874 0.537890 0.567777
v -0.060007 0.536864 0.567777
v -0.060874 0.537890 0.571047
v -0.061820 0.538844 0.567777
v -0.061820 0.538844 0.571047
v -0.062838 0.539720 0.571047
v -0.062838 0.539720 0.567777
v -0.063923 0.540513 0.571047
v -0.063923 0.540513 0.567777
v -0.065068 0.541217 0.571047
v -0.065068 0.541217 0.567777
v -0.066264 0.541828 0.571047
v -0.066264 0.541828 0.567777
v -0.067506 0.542342 0.571047
v -0.067506 0.542342 0.567777
v -0.068784 0.542756 0.571047
v -0.068784 0.542756 0.567777
v -0.070091 0.543067 0.571047
v -0.070091 0.543067 0.567777
v -0.071418 0.543273 0.571047
v -0.071418 0.543273 0.567777
v -0.072758 0.543374 0.571047
v -0.072758 0.543374 0.567777
v -0.074102 0.543367 0.571047
v -0.074102 0.543367 0.567777
v -0.074102 0.543367 0.571047
v -0.072507 0.543734 0.567777
v -0.074102 0.543367 0.567777
v -0.072507 0.543734 0.571047
v -0.070886 0.543956 0.567777
v -0.070886 0.543956 0.571047
v -0.069252 0.544031 0.567777
v -0.069252 0.544031 0.571047
v -0.067618 0.543958 0.571047
v -0.067618 0.543958 0.567777
v -0.065997 0.543737 0.567777
v -0.065997 0.543737 0.571047
v -0.064402 0.543372 0.571047
v -0.064402 0.543372 0.567777
v -0.062847 0.542864 0.567777
v -0.062847 0.542864 0.571047
v -0.061344 0.542218 0.567777
v -0.061344 0.542218 0.571047
v -0.059906 0.541439 0.571047
v -0.059906 0.541439 0.567777
v -0.058543 0.540534 0.567777
v -0.058543 0.540534 0.571047
v -0.057268 0.539509 0.567777
v -0.057268 0.539509 0.571047
v -0.056090 0.538373 0.567777
v -0.056090 0.538373 0.571047
v -0.056090 0.538373 0.571047
v -0.047727 0.527778 0.567777
v -0.056090 0.538373 0.567777
v -0.047727 0.527778 0.571047
v -0.047727 0.527778 0.567777
v -0.047727 0.536604 0.571047
v -0.047727 0.536604 0.567777
v -0.047727 0.527778 0.571047
v -0.047727 0.536604 0.571047
v -0.045650 0.536604 0.567777
v -0.047727 0.536604 0.567777
v -0.045650 0.536604 0.571047
v -0.045650 0.536604 0.571047
v -0.045650 0.518432 0.567777
v -0.045650 0.536604 0.567777
v -0.045650 0.518432 0.571047
v -0.074102 0.543367 0.571047
v -0.072758 0.543374 0.571047
v -0.072507 0.543734 0.571047
v -0.070886 0.543956 0.571047
v -0.067618 0.543958 0.571047
v -0.069252 0.544031 0.571047
v -0.065997 0.543737 0.571047
v -0.064402 0.543372 0.571047
v -0.071418 0.543273 0.571047
v -0.062847 0.542864 0.571047
v -0.070091 0.543067 0.571047
v -0.068784 0.542756 0.571047
v -0.061344 0.542218 0.571047
v -0.067506 0.542342 0.571047
v -0.066264 0.541828 0.571047
v -0.059906 0.541439 0.571047
v -0.065068 0.541217 0.571047
v -0.058543 0.540534 0.571047
v -0.063923 0.540513 0.571047
v -0.057268 0.539509 0.571047
v -0.062838 0.539720 0.571047
v -0.061820 0.538844 0.571047
v -0.056090 0.538373 0.571047
v -0.060874 0.537890 0.571047
v -0.047727 0.527778 0.571047
v -0.060007 0.536864 0.571047
v -0.045650 0.518432 0.571047
v -0.045650 0.536604 0.571047
v -0.047727 0.536604 0.571047
vn 0 0 -1
vn -0.7889037215544558 -0.6145168167898496 0
vn -0.7638754676201066 -0.6453636726436988 0
vn -0.7376418706505402 -0.6751921731353021 0
vn -0.6817260432445265 -0.7316075464087027 0
vn -0.6215090109603121 -0.7834070138153825 0
vn -0.5573706791518489 -0.8302637689444281 0
vn -0.4897158095323066 -0.8718821169711636 0
vn -0.4189710882195036 -0.9079995744691541 0
vn -0.34558308394682863 -0.9383881564095955 0
vn -0.27001460727802834 -0.9628562259530195 0
vn -0.19274259085868997 -0.9812493534617385 0
vn -0.11425450150687462 -0.9934515131023837 0
vn -0.03504548064776509 -0.9993857184721858 0
vn 0.004673250907951079 -0.9999890803033558 0
vn -0.22434360158577557 0.9745101068883395 0
vn -0.18012309580147245 0.9836440770720339 0
vn -0.09067125798824012 0.995880877903994 0
vn -0.00048034079261965855 0.9999998846363549 0
vn 0.08971449220822367 0.9959675245146403 0
vn 0.17917799508309754 0.9838166730026492 0
vn 0.26718099051588245 0.9636463657934647 0
vn 0.3530061066580117 0.9356210176466498 0
vn 0.4359536979295474 0.8999690957258216 0
vn 0.5153476925149024 0.8569811875528922 0
vn 0.5905409051872823 0.807007707088715 0
vn 0.6609204055939779 0.7504560063517993 0
vn 0.6941240780969259 0.7198553772849744 0
vn 0.7849371669427647 0.619575373906893 0
vn -1 0 0
vn 0 1 0
vn 1 0 0
vn 0 0 1
usemtl material_0_0
f 1//1 2//1 3//1
f 2//1 1//1 4//1
f 5//1 6//1 7//1
f 6//1 5//1 8//1
f 6//1 8//1 9//1
f 9//1 8//1 10//1
f 9//1 10//1 11//1
f 11//1 10//1 12//1
f 12//1 10//1 13//1
f 12//1 13//1 14//1
f 14//1 13//1 15//1
f 15//1 13//1 16//1
f 15//1 16//1 17//1
f 17//1 16//1 18//1
f 18//1 16//1 19//1
f 18//1 19//1 20//1
f 20//1 19//1 21//1
f 20//1 21//1 22//1
f 22//1 21//1 23//1
f 22//1 23//1 24//1
f 24//1 23//1 25//1
f 25//1 23//1 26//1
f 25//1 26//1 27//1
f 27//1 26//1 4//1
f 27//1 4//1 28//1
f 28//1 4//1 1//1
f 29//1 9//1 11//1
f 30//2 31//2 32//2
f 31//2 30//2 33//2
f 34//3 35//4 36//3
f 35//4 34//3 37//4
f 37//4 38//5 35//4
f 38//5 37//4 39//5
f 38//5 40//6 41//6
f 40//6 38//5 39//5
f 41//6 42//7 43//7
f 42//7 41//6 40//6
f 43//7 44//8 45//8
f 44//8 43//7 42//7
f 45//8 46//9 47//9
f 46//9 45//8 44//8
f 47//9 48//10 49//10
f 48//10 47//9 46//9
f 49//10 50//11 51//11
f 50//11 49//10 48//10
f 51//11 52//12 53//12
f 52//12 51//11 50//11
f 53//12 54//13 55//13
f 54//13 53//12 52//12
f 55//13 56//14 57//14
f 56//14 55//13 54//13
f 57//14 58//15 59//15
f 58//15 57//14 56//14
f 60//16 61//17 62//16
f 61//17 60//16 63//17
f 63//17 64//18 61//17
f 64//18 63//17 65//18
f 65//18 66//19 64//18
f 66//19 65//18 67//19
f 68//20 66//19 67//19
f 66//19 68//20 69//20
f 68//20 70//21 69//20
f 70//21 68//20 71//21
f 72//22 70//21 71//21
f 70//21 72//22 73//22
f 72//22 74//23 73//22
f 74//23 72//22 75//23
f 75//23 76//24 74//23
f 76//24 75//23 77//24
f 78//25 76//24 77//24
f 76//24 78//25 79//25
f 78//25 80//26 79//25
f 80//26 78//25 81//26
f 81//26 82//27 80//26
f 82//27 81//26 83//27
f 83//27 84//28 82//27
f 84//28 83//27 85//28
f 86//29 87//29 88//29
f 87//29 86//29 89//29
f 90//30 91//30 92//30
f 91//30 90//30 93//30
f 94//31 95//31 96//31
f 95//31 94//31 97//31
f 98//32 99//32 100//32
f 99//32 98//32 101//32
f 102//33 103//33 104//33
f 105//33 106//33 107//33
f 106//33 105//33 108//33
f 108//33 105//33 104//33
f 108//33 104//33 109//33
f 109//33 104//33 103//33
f 109//33 103//33 110//33
f 109//33 110//33 111//33
f 111//33 110//33 112//33
f 111//33 112//33 113//33
f 111//33 113//33 114//33
f 114//33 113//33 115//33
f 114//33 115//33 116//33
f 114//33 116//33 117//33
f 117//33 116//33 118//33
f 117//33 118//33 119//33
f 119//33 118//33 120//33
f 119//33 120//33 121//33
f 121//33 120//33 122//33
f 121//33 122//33 123//33
f 121//33 123//33 124//33
f 124//33 123//33 125//33
f 124//33 125//33 126//33
f 126//33 125//33 127//33
f 126//33 127//33 128//33
f 126//33 129//33 130//33
f 129//33 126//33 128//33
