# SSTK version 0.8.0
# 14
mtllib original-14.mtl
o #ID70
v -0.006679 0.527632 0.569534
v -0.005076 0.527797 0.571334
v -0.005076 0.527797 0.569534
v -0.006679 0.527632 0.571334
v -0.007734 0.527632 0.571334
v -0.006679 0.527632 0.569534
v -0.007734 0.527632 0.569534
v -0.006679 0.527632 0.571334
v -0.005076 0.527797 0.571334
v -0.003962 0.528292 0.569534
v -0.005076 0.527797 0.569534
v -0.003962 0.528292 0.571334
v -0.007734 0.529431 0.569534
v -0.007734 0.527632 0.571334
v -0.007734 0.527632 0.569534
v -0.007734 0.529431 0.571334
v -0.003962 0.528292 0.571334
v -0.003309 0.529194 0.569534
v -0.003962 0.528292 0.569534
v -0.003309 0.529194 0.571334
v -0.007674 0.533713 0.569534
v -0.007674 0.533713 0.571334
v -0.003092 0.530583 0.571334
v -0.003309 0.529194 0.569534
v -0.003309 0.529194 0.571334
v -0.003092 0.530583 0.569534
v -0.006463 0.533833 0.571334
v -0.007674 0.533713 0.569534
v -0.006463 0.533833 0.569534
v -0.007674 0.533713 0.571334
v -0.003297 0.531956 0.571334
v -0.003092 0.530583 0.569534
v -0.003092 0.530583 0.571334
v -0.003297 0.531956 0.569534
v -0.004962 0.533620 0.571334
v -0.006463 0.533833 0.569534
v -0.004962 0.533620 0.569534
v -0.006463 0.533833 0.571334
v -0.003914 0.532982 0.571334
v -0.003297 0.531956 0.569534
v -0.003297 0.531956 0.571334
v -0.003914 0.532982 0.569534
v -0.003914 0.532982 0.571334
v -0.004962 0.533620 0.569534
v -0.003914 0.532982 0.569534
v -0.004962 0.533620 0.571334
vn -0.10235870551602268 0.9947475536059812 0
vn 0 1 0
vn -0.40591141227401645 0.9139124276350079 0
vn 0.999975483695662 -0.0070022858858183505 0
vn 1 0 0
vn -0.8105365128413933 0.5856881092790888 0
vn 0.999901935955723 -0.014004230503570402 0
vn -0.9879612253469723 0.15470170396899036 0
vn 0.09852814648359524 -0.9951342644841987 0
vn -0.9889997785935729 -0.14791699679841872 0
vn -0.14045110230584698 -0.9900876162547799 0
vn -0.8571603555627375 -0.5150496333864936 0
vn -0.5204129985831426 -0.8539146976751847 0
usemtl material_0_0
f 1//1 2//1 3//1
f 2//1 1//1 4//1
f 5//2 6//2 7//2
f 6//2 5//2 8//2
f 9//3 10//3 11//3
f 10//3 9//3 12//3
f 13//4 14//5 15//5
f 14//5 13//4 16//4
f 17//6 18//6 19//6
f 18//6 17//6 20//6
f 21//7 16//4 13//4
f 16//4 21//7 22//7
f 23//8 24//8 25//8
f 24//8 23//8 26//8
f 27//9 28//9 29//9
f 28//9 27//9 30//9
f 31//10 32//10 33//10
f 32//10 31//10 34//10
f 35//11 36//11 37//11
f 36//11 35//11 38//11
f 39//12 40//12 41//12
f 40//12 39//12 42//12
f 43//13 44//13 45//13
f 44//13 43//13 46//13
