# SSTK version 0.8.0
# 29
mtllib original-29.mtl
o #ID184
v -0.005477 -0.396854 -0.739469
v -0.004895 -0.396854 -0.744292
v -0.005504 -0.396854 -0.741919
v -0.004817 -0.396854 -0.737110
v -0.003694 -0.396854 -0.746426
v -0.003570 -0.396854 -0.735002
v -0.001981 -0.396854 -0.748177
v -0.001819 -0.396854 -0.733289
v 0.000127 -0.396854 -0.749425
v 0.000316 -0.396854 -0.732088
v 0.002486 -0.396854 -0.750084
v 0.002689 -0.396854 -0.731480
v 0.004936 -0.396854 -0.750111
v 0.005138 -0.396854 -0.731506
v 0.007308 -0.396854 -0.749503
v 0.007497 -0.396854 -0.732166
v 0.009443 -0.396854 -0.748301
v 0.009605 -0.396854 -0.733414
v 0.011194 -0.396854 -0.746588
v 0.011318 -0.396854 -0.735164
v 0.012441 -0.396854 -0.744480
v 0.012520 -0.396854 -0.737299
v 0.013101 -0.396854 -0.742121
v 0.013128 -0.396854 -0.739672
v 0.013128 -0.396854 -0.739672
v 0.012520 -0.396854 -0.737299
v 0.013101 -0.396854 -0.742121
v 0.012441 -0.396854 -0.744480
v 0.011318 -0.396854 -0.735164
v 0.011194 -0.396854 -0.746588
v 0.009605 -0.396854 -0.733414
v 0.009443 -0.396854 -0.748301
v 0.007497 -0.396854 -0.732166
v 0.007308 -0.396854 -0.749503
v 0.005138 -0.396854 -0.731506
v 0.004936 -0.396854 -0.750111
v 0.002689 -0.396854 -0.731480
v 0.002486 -0.396854 -0.750084
v 0.000316 -0.396854 -0.732088
v 0.000127 -0.396854 -0.749425
v -0.001819 -0.396854 -0.733289
v -0.001981 -0.396854 -0.748177
v -0.003570 -0.396854 -0.735002
v -0.003694 -0.396854 -0.746426
v -0.004817 -0.396854 -0.737110
v -0.004895 -0.396854 -0.744292
v -0.005477 -0.396854 -0.739469
v -0.005504 -0.396854 -0.741919
v 0.013128 -0.406238 -0.739672
v 0.012520 -0.396854 -0.737299
v 0.012520 -0.406238 -0.737299
v 0.013128 -0.396854 -0.739672
v 0.013128 -0.396854 -0.739672
v 0.013128 -0.406238 -0.739672
v 0.012520 -0.396854 -0.737299
v 0.012520 -0.406238 -0.737299
v 0.013101 -0.406238 -0.742121
v 0.013101 -0.396854 -0.742121
v 0.013101 -0.396854 -0.742121
v 0.013101 -0.406238 -0.742121
v 0.012441 -0.406238 -0.744480
v 0.012441 -0.396854 -0.744480
v 0.012441 -0.396854 -0.744480
v 0.012441 -0.406238 -0.744480
v 0.011194 -0.406238 -0.746588
v 0.011194 -0.396854 -0.746588
v 0.011194 -0.396854 -0.746588
v 0.011194 -0.406238 -0.746588
v 0.009443 -0.396854 -0.748301
v 0.009443 -0.406238 -0.748301
v 0.009443 -0.396854 -0.748301
v 0.009443 -0.406238 -0.748301
v 0.007308 -0.396854 -0.749503
v 0.007308 -0.406238 -0.749503
v 0.007308 -0.396854 -0.749503
v 0.007308 -0.406238 -0.749503
v 0.004936 -0.406238 -0.750111
v 0.004936 -0.396854 -0.750111
v 0.004936 -0.396854 -0.750111
v 0.004936 -0.406238 -0.750111
v 0.002486 -0.396854 -0.750084
v 0.002486 -0.406238 -0.750084
v 0.002486 -0.396854 -0.750084
v 0.002486 -0.406238 -0.750084
v 0.000127 -0.396854 -0.749425
v 0.000127 -0.406238 -0.749425
v 0.000127 -0.396854 -0.749425
v 0.000127 -0.406238 -0.749425
v -0.001981 -0.396854 -0.748177
v 0.000127 -0.406238 -0.749425
v -0.001981 -0.406238 -0.748177
v 0.000127 -0.396854 -0.749425
v 0.000127 -0.396854 -0.749425
v -0.001981 -0.396854 -0.748177
v 0.000127 -0.406238 -0.749425
v -0.001981 -0.406238 -0.748177
v -0.003694 -0.406238 -0.746426
v -0.003694 -0.396854 -0.746426
v -0.003694 -0.406238 -0.746426
v -0.003694 -0.396854 -0.746426
v -0.004895 -0.406238 -0.744292
v -0.004895 -0.396854 -0.744292
v -0.004895 -0.406238 -0.744292
v -0.004895 -0.396854 -0.744292
v -0.005504 -0.406238 -0.741919
v -0.005504 -0.396854 -0.741919
v -0.005504 -0.406238 -0.741919
v -0.005504 -0.396854 -0.741919
v -0.005477 -0.406238 -0.739469
v -0.005477 -0.396854 -0.739469
v -0.005477 -0.406238 -0.739469
v -0.005477 -0.396854 -0.739469
v -0.004817 -0.406238 -0.737110
v -0.004817 -0.396854 -0.737110
v -0.004817 -0.406238 -0.737110
v -0.004817 -0.396854 -0.737110
v -0.003570 -0.406238 -0.735002
v -0.003570 -0.396854 -0.735002
v -0.003570 -0.406238 -0.735002
v -0.003570 -0.396854 -0.735002
v -0.001819 -0.396854 -0.733289
v -0.001819 -0.406238 -0.733289
v -0.001819 -0.396854 -0.733289
v -0.001819 -0.406238 -0.733289
v 0.000316 -0.396854 -0.732088
v -0.001819 -0.406238 -0.733289
v 0.000316 -0.406238 -0.732088
v -0.001819 -0.396854 -0.733289
v -0.001819 -0.396854 -0.733289
v 0.000316 -0.396854 -0.732088
v -0.001819 -0.406238 -0.733289
v 0.000316 -0.406238 -0.732088
v 0.002689 -0.396854 -0.731480
v 0.002689 -0.406238 -0.731480
v 0.002689 -0.396854 -0.731480
v 0.002689 -0.406238 -0.731480
v 0.005138 -0.396854 -0.731506
v 0.005138 -0.406238 -0.731506
v 0.005138 -0.396854 -0.731506
v 0.005138 -0.406238 -0.731506
v 0.007497 -0.396854 -0.732166
v 0.007497 -0.406238 -0.732166
v 0.007497 -0.396854 -0.732166
v 0.007497 -0.406238 -0.732166
v 0.009605 -0.396854 -0.733414
v 0.009605 -0.406238 -0.733414
v 0.009605 -0.396854 -0.733414
v 0.009605 -0.406238 -0.733414
v 0.011318 -0.406238 -0.735164
v 0.009605 -0.396854 -0.733414
v 0.009605 -0.406238 -0.733414
v 0.011318 -0.396854 -0.735164
v 0.011318 -0.396854 -0.735164
v 0.011318 -0.406238 -0.735164
v 0.009605 -0.396854 -0.733414
v 0.009605 -0.406238 -0.733414
vt 0.01482854 0.02236984
vt 0.01478532 0.02220125
vt 0.01482664 0.02254386
vt 0.01477978 0.02271147
vt 0.01469995 0.0220496
vt 0.01469112 0.02286123
vt 0.01457823 0.02192521
vt 0.01456673 0.02298295
vt 0.01442847 0.02183656
vt 0.01441508 0.02306832
vt 0.01426087 0.02178969
vt 0.01424649 0.02311153
vt 0.01408684 0.02178779
vt 0.01407247 0.02310964
vt 0.01391826 0.02183101
vt 0.01390486 0.02306277
vt 0.0137666 0.02191638
vt 0.0137551 0.02297412
vt 0.01364221 0.0220381
vt 0.01363338 0.02284973
vt 0.01355356 0.02218786
vt 0.01354801 0.02269807
vt 0.01350669 0.02235547
vt 0.0135048 0.02252949
vt 0.02535122 0.009
vt 0.02535122 0.008333333
vt 0.02517719 0.009
vt 0.02517719 0.008333333
vt 0.02238132 0.009
vt 0.02238132 0.008333333
vt 0.02220728 0.009
vt 0.02220728 0.008333333
vt 0.01789209 0.009
vt 0.01789209 0.008333333
vt 0.01771806 0.009
vt 0.01771806 0.008333333
vt 0.01218948 0.009
vt 0.01218948 0.008333333
vt 0.01201545 0.009
vt 0.01201545 0.008333333
vt 0.005488076 0.009
vt 0.005662111 0.009
vt 0.005488076 0.008333333
vt 0.005662111 0.008333333
vt -0.001419231 0.009
vt -0.001245196 0.009
vt -0.001419231 0.008333333
vt -0.001245196 0.008333333
vt -0.008061715 0.009
vt -0.008061715 0.008333333
vt -0.00823575 0.009
vt -0.00823575 0.008333333
vt -0.01449695 0.009
vt -0.01432291 0.009
vt -0.01449695 0.008333333
vt -0.01432291 0.008333333
vt -0.01977613 0.009
vt -0.01960209 0.009
vt -0.01977613 0.008333333
vt -0.01960209 0.008333333
vt -0.02371353 0.009
vt -0.0235395 0.009
vt -0.02371353 0.008333333
vt -0.0235395 0.008333333
vt -0.02604083 0.008333333
vt -0.02604083 0.009
vt -0.02586679 0.008333333
vt -0.02586679 0.009
vt -0.02659941 0.008333333
vt -0.02659941 0.009
vt -0.02642538 0.008333333
vt -0.02642538 0.009
vt -0.02535122 0.008333333
vt -0.02535122 0.009
vt -0.02517719 0.008333333
vt -0.02517719 0.009
vt -0.02238132 0.008333333
vt -0.02238132 0.009
vt -0.02220728 0.008333333
vt -0.02220728 0.009
vt -0.01789209 0.008333333
vt -0.01789209 0.009
vt -0.01771806 0.008333333
vt -0.01771806 0.009
vt -0.01218948 0.008333333
vt -0.01218948 0.009
vt -0.01201545 0.008333333
vt -0.01201545 0.009
vt -0.005662111 0.009
vt -0.005488076 0.009
vt -0.005662111 0.008333333
vt -0.005488076 0.008333333
vt 0.001245196 0.009
vt 0.001419231 0.009
vt 0.001245196 0.008333333
vt 0.001419231 0.008333333
vt 0.008061715 0.009
vt 0.00823575 0.009
vt 0.008061715 0.008333333
vt 0.00823575 0.008333333
vt 0.01432291 0.009
vt 0.01449695 0.009
vt 0.01432291 0.008333333
vt 0.01449695 0.008333333
vt 0.01960209 0.009
vt 0.01977613 0.009
vt 0.01960209 0.008333333
vt 0.01977613 0.008333333
vt 0.0235395 0.009
vt 0.02371353 0.009
vt 0.0235395 0.008333333
vt 0.02371353 0.008333333
vt 0.02604083 0.009
vt 0.02604083 0.008333333
vt 0.02586679 0.009
vt 0.02586679 0.008333333
vt 0.02659941 0.009
vt 0.02659941 0.008333333
vt 0.02642538 0.009
vt 0.02642538 0.008333333
vn 0 1 0
vn 0.9928054894181132 0 0.11973829872376096
vn 0.9279859035296409 0 0.37261530141726096
vn 0.9899670220510405 0 -0.1412986031473586
vn 0.919663933557204 0 -0.39270631432928427
vn 0.7866872884065186 0 -0.6173516909020326
vn 0.6000991953864374 0 -0.799925593850172
vn 0.37261530141726096 0 -0.9279859035296409
vn 0.11973829872376096 0 -0.9928054894181132
vn -0.1412986031473586 0 -0.9899670220510405
vn -0.26930641251585286 0 -0.9630545447573783
vn -0.6173516909020326 0 -0.7866872884065186
vn -0.5093869063914379 0 -0.8605376107974365
vn -0.799925593850172 0 -0.6000991953864374
vn -0.9279859035296409 0 -0.37261530141726096
vn -0.9928054894181132 0 -0.11973829872376096
vn -0.9899670220510405 0 0.1412986031473586
vn -0.919663933557204 0 0.39270631432928427
vn -0.7866872884065186 0 0.6173516909020326
vn -0.6993764809369207 0 0.7147534805177861
vn -0.37261530141726096 0 0.9279859035296409
vn -0.4905539977256347 0 0.8714107959598607
vn -0.11973829872376096 0 0.9928054894181132
vn 0.1412986031473586 0 0.9899670220510405
vn 0.39270631432928427 0 0.919663933557204
vn 0.5093869063914379 0 0.8605376107974365
vn 0.799925593850172 0 0.6000991953864374
vn 0.7147534805177861 0 0.6993764809369207
vn 0 -1 0
vn -0.6000991953864374 0 0.799925593850172
vn 0.26930641251585286 0 0.9630545447573783
vn 0.6173516909020326 0 0.7866872884065186
vn 0.6993764809369207 0 -0.7147534805177861
vn 0.4905539977256347 0 -0.8714107959598607
vn -0.39270631432928427 0 -0.919663933557204
vn -0.7147534805177861 0 -0.6993764809369207
usemtl material_0_0
f 1//1 2//1 3//1
f 2//1 1//1 4//1
f 2//1 4//1 5//1
f 5//1 4//1 6//1
f 5//1 6//1 7//1
f 7//1 6//1 8//1
f 7//1 8//1 9//1
f 9//1 8//1 10//1
f 9//1 10//1 11//1
f 11//1 10//1 12//1
f 11//1 12//1 13//1
f 13//1 12//1 14//1
f 13//1 14//1 15//1
f 15//1 14//1 16//1
f 15//1 16//1 17//1
f 17//1 16//1 18//1
f 17//1 18//1 19//1
f 19//1 18//1 20//1
f 19//1 20//1 21//1
f 21//1 20//1 22//1
f 21//1 22//1 23//1
f 23//1 22//1 24//1
f 49//2 50//3 51//3
f 50//3 49//2 52//2
f 57//4 52//2 49//2
f 52//2 57//4 58//4
f 61//5 58//4 57//4
f 58//4 61//5 62//5
f 65//6 62//5 61//5
f 62//5 65//6 66//6
f 69//7 65//6 70//7
f 65//6 69//7 66//6
f 73//8 70//7 74//8
f 70//7 73//8 69//7
f 77//9 73//8 74//8
f 73//8 77//9 78//9
f 81//10 77//9 82//10
f 77//9 81//10 78//9
f 85//11 82//10 86//11
f 82//10 85//11 81//10
f 89//12 90//13 91//12
f 90//13 89//12 92//13
f 89//12 97//14 98//14
f 97//14 89//12 91//12
f 98//14 101//15 102//15
f 101//15 98//14 97//14
f 102//15 105//16 106//16
f 105//16 102//15 101//15
f 106//16 109//17 110//17
f 109//17 106//16 105//16
f 110//17 113//18 114//18
f 113//18 110//17 109//17
f 114//18 117//19 118//19
f 117//19 114//18 113//18
f 121//20 117//19 122//20
f 117//19 121//20 118//19
f 125//21 126//22 127//21
f 126//22 125//21 128//22
f 133//23 127//21 134//23
f 127//21 133//23 125//21
f 137//24 134//23 138//24
f 134//23 137//24 133//23
f 141//25 138//24 142//25
f 138//24 141//25 137//24
f 145//26 142//25 146//26
f 142//25 145//26 141//25
f 149//27 150//28 151//28
f 150//28 149//27 152//27
f 51//3 152//27 149//27
f 152//27 51//3 50//3
usemtl material_1_0
f 25/1/29 26/2/29 27/3/29
f 27/3/29 26/2/29 28/4/29
f 26/2/29 29/5/29 28/4/29
f 28/4/29 29/5/29 30/6/29
f 29/5/29 31/7/29 30/6/29
f 30/6/29 31/7/29 32/8/29
f 31/7/29 33/9/29 32/8/29
f 32/8/29 33/9/29 34/10/29
f 33/9/29 35/11/29 34/10/29
f 34/10/29 35/11/29 36/12/29
f 35/11/29 37/13/29 36/12/29
f 36/12/29 37/13/29 38/14/29
f 37/13/29 39/15/29 38/14/29
f 38/14/29 39/15/29 40/16/29
f 39/15/29 41/17/29 40/16/29
f 40/16/29 41/17/29 42/18/29
f 41/17/29 43/19/29 42/18/29
f 42/18/29 43/19/29 44/20/29
f 43/19/29 45/21/29 44/20/29
f 44/20/29 45/21/29 46/22/29
f 45/21/29 47/23/29 46/22/29
f 48/24/29 46/22/29 47/23/29
f 53/25/16 54/26/16 55/27/15
f 56/28/15 55/27/15 54/26/16
f 59/29/17 60/30/17 53/31/16
f 54/32/16 53/31/16 60/30/17
f 63/33/18 64/34/18 59/35/17
f 60/36/17 59/35/17 64/34/18
f 67/37/19 68/38/19 63/39/18
f 64/40/18 63/39/18 68/38/19
f 67/41/19 71/42/30 68/43/19
f 72/44/30 68/43/19 71/42/30
f 71/45/30 75/46/21 72/47/30
f 76/48/21 72/47/30 75/46/21
f 79/49/23 80/50/23 75/51/21
f 76/52/21 75/51/21 80/50/23
f 79/53/23 83/54/24 80/55/23
f 84/56/24 80/55/23 83/54/24
f 83/57/24 87/58/31 84/59/24
f 88/60/31 84/59/24 87/58/31
f 93/61/26 94/62/32 95/63/26
f 96/64/32 95/63/26 94/62/32
f 96/65/32 94/66/32 99/67/27
f 100/68/27 99/67/27 94/66/32
f 99/69/27 100/70/27 103/71/3
f 104/72/3 103/71/3 100/70/27
f 103/73/3 104/74/3 107/75/2
f 108/76/2 107/75/2 104/74/3
f 107/77/2 108/78/2 111/79/4
f 112/80/4 111/79/4 108/78/2
f 111/81/4 112/82/4 115/83/5
f 116/84/5 115/83/5 112/82/4
f 115/85/5 116/86/5 119/87/6
f 120/88/6 119/87/6 116/86/5
f 120/89/6 123/90/33 119/91/6
f 124/92/33 119/91/6 123/90/33
f 129/93/34 130/94/8 131/95/34
f 132/96/8 131/95/34 130/94/8
f 130/97/8 135/98/9 132/99/8
f 136/100/9 132/99/8 135/98/9
f 135/101/9 139/102/10 136/103/9
f 140/104/10 136/103/9 139/102/10
f 139/105/10 143/106/35 140/107/10
f 144/108/35 140/107/10 143/106/35
f 143/109/35 147/110/13 144/111/35
f 148/112/13 144/111/35 147/110/13
f 153/113/14 154/114/14 155/115/36
f 156/116/36 155/115/36 154/114/14
f 55/117/15 56/118/15 153/119/14
f 154/120/14 153/119/14 56/118/15
