# SSTK version 0.8.0
# 74
mtllib original-74.mtl
o #ID710
v 0.307593 -0.439079 -0.097868
v 0.307593 -0.523527 -0.004036
v 0.307593 -0.523527 -0.097868
v 0.307593 -0.439079 -0.004036
v 0.307593 -0.439079 -0.004036
v 0.307593 -0.439079 -0.097868
v 0.307593 -0.523527 -0.004036
v 0.307593 -0.523527 -0.097868
v 0.307593 -0.523527 -0.097868
v -0.299969 -0.523527 -0.004036
v 0.307593 -0.523527 -0.004036
v -0.299969 -0.523527 -0.097868
v -0.291199 -0.523527 -0.164480
v 0.298823 -0.523527 -0.164480
v -0.263114 -0.523527 -0.232284
v 0.270738 -0.523527 -0.232284
v 0.226061 -0.523527 -0.313967
v -0.194979 -0.523527 -0.313967
v 0.144378 -0.523527 -0.358644
v -0.136754 -0.523527 -0.358644
v 0.076574 -0.523527 -0.386729
v -0.068950 -0.523527 -0.386729
v 0.003812 -0.523527 -0.396308
v 0.003812 -0.523527 -0.396308
v 0.076574 -0.523527 -0.386729
v -0.068950 -0.523527 -0.386729
v -0.136754 -0.523527 -0.358644
v 0.144378 -0.523527 -0.358644
v -0.194979 -0.523527 -0.313967
v 0.226061 -0.523527 -0.313967
v -0.263114 -0.523527 -0.232284
v 0.270738 -0.523527 -0.232284
v 0.298823 -0.523527 -0.164480
v -0.291199 -0.523527 -0.164480
v 0.307593 -0.523527 -0.097868
v -0.299969 -0.523527 -0.097868
v -0.299969 -0.523527 -0.004036
v 0.307593 -0.523527 -0.004036
v 0.298823 -0.439079 -0.164480
v 0.307593 -0.523527 -0.097868
v 0.298823 -0.523527 -0.164480
v 0.307593 -0.439079 -0.097868
v 0.307593 -0.439079 -0.097868
v 0.298823 -0.439079 -0.164480
v 0.307593 -0.523527 -0.097868
v 0.298823 -0.523527 -0.164480
v 0.270738 -0.439079 -0.255742
v 0.270738 -0.523527 -0.232284
v 0.270738 -0.523527 -0.232284
v 0.270738 -0.439079 -0.255742
v 0.226061 -0.439079 -0.313967
v 0.226061 -0.523527 -0.313967
v 0.226061 -0.523527 -0.313967
v 0.226061 -0.439079 -0.313967
v 0.144378 -0.523527 -0.358644
v 0.144378 -0.439079 -0.358644
v 0.144378 -0.439079 -0.358644
v 0.144378 -0.523527 -0.358644
v 0.076574 -0.523527 -0.386729
v 0.076574 -0.439079 -0.386729
v 0.076574 -0.439079 -0.386729
v 0.076574 -0.523527 -0.386729
v 0.003812 -0.523527 -0.396308
v 0.003812 -0.439079 -0.396308
v 0.003812 -0.439079 -0.396308
v 0.003812 -0.523527 -0.396308
v -0.068950 -0.523527 -0.386729
v -0.068950 -0.439079 -0.386729
v -0.068950 -0.439079 -0.386729
v -0.068950 -0.523527 -0.386729
v -0.136754 -0.523527 -0.358644
v -0.136754 -0.439079 -0.358644
v -0.136754 -0.439079 -0.358644
v -0.136754 -0.523527 -0.358644
v -0.194979 -0.523527 -0.313967
v -0.194979 -0.439079 -0.313967
v -0.194979 -0.439079 -0.313967
v -0.194979 -0.523527 -0.313967
v -0.263114 -0.439079 -0.255742
v -0.263114 -0.523527 -0.232284
v -0.263114 -0.523527 -0.232284
v -0.263114 -0.439079 -0.255742
v -0.291199 -0.439079 -0.164480
v -0.291199 -0.523527 -0.164480
v -0.291199 -0.523527 -0.164480
v -0.291199 -0.439079 -0.164480
v -0.299969 -0.439079 -0.097868
v -0.299969 -0.523527 -0.097868
v -0.299969 -0.439079 -0.097868
v -0.299969 -0.523527 -0.097868
v -0.299969 -0.439079 -0.004036
v -0.299969 -0.523527 -0.097868
v -0.299969 -0.523527 -0.004036
v -0.299969 -0.439079 -0.097868
v -0.299969 -0.439079 -0.097868
v -0.299969 -0.439079 -0.004036
v -0.299969 -0.523527 -0.097868
v -0.299969 -0.523527 -0.004036
vn 1 0 0
vn 0 -1 0
vn 0.9770354763835187 0 -0.2130766948496023
vn 0.9914448610250886 0 -0.13052619486885594
vn 0.9718890313755804 -0.02466932079640184 -0.234143407558873
vn 0.8614106132197327 -0.1178701018089064 -0.4940429075818843
vn 0.8887482891534786 -0.09342243885984754 -0.4487746945230343
vn 0.6803707807519641 -0.041043218838866295 -0.7317178792993292
vn 0.7071067811865472 0 -0.7071067811865479
vn 0.4319045984421953 0 -0.901919296746935
vn 0.2588190095935612 0 -0.9659258358036646
vn 0 0 -1
vn -0.2588190095935621 0 -0.9659258358036644
vn -0.5000000016387104 0 -0.8660254028383287
vn -0.6597907247995705 -0.043060551618517844 -0.7502146281983353
vn -0.6294243030055865 0 -0.7770618037105749
vn -0.8395459730404407 -0.09504610694787258 -0.5349100828229294
vn -0.8767943820129274 -0.10152659791722388 -0.47002549035762176
vn -0.972007969429696 -0.02239415929568858 -0.23387819264437318
vn -0.9659258358036646 0 -0.2588190095935612
vn -0.9914448610250888 0 -0.13052619486885506
vn -1 0 0
vn 0 1 0
vn -0.9914448610250886 0 0.13052619486885594
vn -0.9770354763835187 0 0.2130766948496023
vn -0.9718890313755804 0.02466932079640184 0.234143407558873
vn -0.8887482891534786 0.09342243885984754 0.4487746945230343
vn -0.8614106132197327 0.1178701018089064 0.4940429075818843
vn -0.7071067811865472 0 0.7071067811865479
vn -0.6803707807519641 0.041043218838866295 0.7317178792993292
vn -0.4319045984421953 0 0.901919296746935
vn -0.2588190095935612 0 0.9659258358036646
vn 0 0 1
vn 0.2588190095935621 0 0.9659258358036644
vn 0.5000000016387104 0 0.8660254028383287
vn 0.6294243030055865 0 0.7770618037105749
vn 0.6597907247995705 0.043060551618517844 0.7502146281983353
vn 0.8767943820129274 0.10152659791722388 0.47002549035762176
vn 0.8395459730404407 0.09504610694787258 0.5349100828229294
vn 0.9659258358036646 0 0.2588190095935612
vn 0.972007969429696 0.02239415929568858 0.23387819264437318
vn 0.9914448610250888 0 0.13052619486885506
usemtl material_0_0
f 1//1 2//1 3//1
f 2//1 1//1 4//1
f 24//2 25//2 26//2
f 26//2 25//2 27//2
f 25//2 28//2 27//2
f 27//2 28//2 29//2
f 28//2 30//2 29//2
f 29//2 30//2 31//2
f 30//2 32//2 31//2
f 32//2 33//2 31//2
f 31//2 33//2 34//2
f 33//2 35//2 34//2
f 34//2 35//2 36//2
f 36//2 35//2 37//2
f 38//2 37//2 35//2
f 39//3 40//4 41//5
f 40//4 39//3 42//4
f 47//6 41//5 48//7
f 51//8 48//7 52//9
f 55//10 51//8 52//9
f 51//8 55//10 56//10
f 59//11 56//10 55//10
f 56//10 59//11 60//11
f 63//12 60//11 59//11
f 60//11 63//12 64//12
f 67//13 64//12 63//12
f 64//12 67//13 68//13
f 71//14 68//13 67//13
f 68//13 71//14 72//14
f 75//15 72//14 71//14
f 72//14 75//15 76//16
f 79//17 75//15 80//18
f 83//19 80//18 84//20
f 87//21 84//20 88//21
f 84//20 87//21 83//19
f 91//22 92//22 93//22
f 92//22 91//22 94//22
f 39//3 41//5 47//6
f 47//6 48//7 51//8
f 79//17 76//16 75//15
f 79//17 80//18 83//19
usemtl material_1_0
f 5//22 6//22 7//22
f 8//22 7//22 6//22
f 9//23 10//23 11//23
f 10//23 9//23 12//23
f 12//23 9//23 13//23
f 13//23 9//23 14//23
f 13//23 14//23 15//23
f 15//23 14//23 16//23
f 15//23 16//23 17//23
f 15//23 17//23 18//23
f 18//23 17//23 19//23
f 18//23 19//23 20//23
f 20//23 19//23 21//23
f 20//23 21//23 22//23
f 22//23 21//23 23//23
f 43//24 44//25 45//24
f 46//26 45//24 44//25
f 49//27 46//26 50//28
f 53//29 49//27 54//30
f 57//31 58//31 54//30
f 53//29 54//30 58//31
f 61//32 62//32 57//31
f 58//31 57//31 62//32
f 65//33 66//33 61//32
f 62//32 61//32 66//33
f 69//34 70//34 65//33
f 66//33 65//33 70//34
f 73//35 74//35 69//34
f 70//34 69//34 74//35
f 77//36 78//37 73//35
f 74//35 73//35 78//37
f 81//38 78//37 82//39
f 85//40 81//38 86//41
f 86//41 89//42 85//40
f 90//42 85//40 89//42
f 95//1 96//1 97//1
f 98//1 97//1 96//1
f 50//28 46//26 44//25
f 54//30 49//27 50//28
f 78//37 77//36 82//39
f 86//41 81//38 82//39
