# SSTK version 0.8.0
# 128
mtllib original-128.mtl
o instance_3/Group_74/ID783#ID783
v -0.002823 0.607147 0.000290
v -0.000608 0.607147 0.000226
v -0.000124 0.607147 0.000290
v -0.003123 0.607147 -0.000434
v -0.000967 0.607147 0.000077
v -0.001275 0.607147 -0.000159
v -0.001512 0.607147 -0.000467
v -0.003225 0.607147 -0.001212
v -0.001660 0.607147 -0.000826
v -0.001724 0.607147 -0.001310
v -0.003225 0.607147 -0.014723
v -0.001724 0.607147 -0.014723
v -0.002324 0.607147 -0.014723
v -0.001000 0.607147 0.001689
v 0.008785 0.607147 0.001791
v -0.000223 0.607147 0.001791
v 0.009562 0.607147 0.001689
v -0.001724 0.607147 0.001389
v 0.010287 0.607147 0.001389
v -0.002346 0.607147 0.000912
v 0.010908 0.607147 0.000912
v 0.011386 0.607147 0.000290
v 0.008687 0.607147 0.000290
v 0.009170 0.607147 0.000226
v 0.011686 0.607147 -0.000434
v 0.009529 0.607147 0.000077
v 0.009838 0.607147 -0.000159
v 0.010074 0.607147 -0.000467
v 0.011788 0.607147 -0.001212
v 0.010223 0.607147 -0.000826
v 0.010287 0.607147 -0.001310
v 0.011788 0.607147 -0.014723
v 0.010287 0.607147 -0.014723
v 0.010287 0.607147 -0.014723
v 0.011788 0.610093 -0.014723
v 0.011788 0.607147 -0.014723
v 0.010287 0.610093 -0.014723
v 0.011788 0.610093 -0.014723
v 0.011788 0.607147 -0.001212
v 0.011788 0.607147 -0.014723
v 0.011788 0.610093 -0.001212
v 0.011788 0.610093 -0.001212
v 0.011686 0.607147 -0.000434
v 0.011788 0.607147 -0.001212
v 0.011686 0.610093 -0.000434
v 0.011386 0.607147 0.000290
v 0.011386 0.610093 0.000290
v 0.010908 0.607147 0.000912
v 0.010908 0.610093 0.000912
v 0.010287 0.610093 0.001389
v 0.010287 0.607147 0.001389
v 0.009562 0.610093 0.001689
v 0.009562 0.607147 0.001689
v 0.008785 0.610093 0.001791
v 0.008785 0.607147 0.001791
v -0.000223 0.610093 0.001791
v 0.008785 0.607147 0.001791
v 0.008785 0.610093 0.001791
v -0.000223 0.607147 0.001791
v -0.001000 0.610093 0.001689
v -0.000223 0.607147 0.001791
v -0.000223 0.610093 0.001791
v -0.001000 0.607147 0.001689
v -0.001724 0.610093 0.001389
v -0.001724 0.607147 0.001389
v -0.002346 0.610093 0.000912
v -0.002346 0.607147 0.000912
v -0.002823 0.607147 0.000290
v -0.002823 0.610093 0.000290
v -0.003123 0.607147 -0.000434
v -0.003123 0.610093 -0.000434
v -0.003225 0.607147 -0.001212
v -0.003225 0.610093 -0.001212
v -0.003225 0.610093 -0.001212
v -0.003225 0.607147 -0.014723
v -0.003225 0.607147 -0.001212
v -0.003225 0.610093 -0.014723
v -0.003225 0.607147 -0.014723
v -0.002324 0.610093 -0.014723
v -0.002324 0.607147 -0.014723
v -0.003225 0.610093 -0.014723
v -0.002324 0.607147 -0.014723
v -0.001724 0.610093 -0.014723
v -0.001724 0.607147 -0.014723
v -0.002324 0.610093 -0.014723
v -0.001724 0.610093 -0.014723
v -0.001724 0.607147 -0.001310
v -0.001724 0.607147 -0.014723
v -0.001724 0.610093 -0.001310
v -0.001724 0.610093 -0.001310
v -0.001660 0.607147 -0.000826
v -0.001724 0.607147 -0.001310
v -0.001660 0.610093 -0.000826
v -0.001512 0.607147 -0.000467
v -0.001512 0.610093 -0.000467
v -0.001275 0.607147 -0.000159
v -0.001275 0.610093 -0.000159
v -0.000967 0.610093 0.000077
v -0.000967 0.607147 0.000077
v -0.000608 0.610093 0.000226
v -0.000608 0.607147 0.000226
v -0.000124 0.610093 0.000290
v -0.000124 0.607147 0.000290
v -0.000124 0.607147 0.000290
v 0.008687 0.610093 0.000290
v 0.008687 0.607147 0.000290
v -0.000124 0.610093 0.000290
v 0.008687 0.607147 0.000290
v 0.009170 0.610093 0.000226
v 0.009170 0.607147 0.000226
v 0.008687 0.610093 0.000290
v 0.009529 0.610093 0.000077
v 0.009529 0.607147 0.000077
v 0.009838 0.610093 -0.000159
v 0.009838 0.607147 -0.000159
v 0.010074 0.607147 -0.000467
v 0.010074 0.610093 -0.000467
v 0.010223 0.607147 -0.000826
v 0.010223 0.610093 -0.000826
v 0.010287 0.607147 -0.001310
v 0.010287 0.610093 -0.001310
v 0.010287 0.610093 -0.001310
v 0.010287 0.607147 -0.014723
v 0.010287 0.607147 -0.001310
v 0.010287 0.610093 -0.014723
v 0.011386 0.610093 0.000290
v 0.009170 0.610093 0.000226
v 0.008687 0.610093 0.000290
v 0.011686 0.610093 -0.000434
v 0.009529 0.610093 0.000077
v 0.009838 0.610093 -0.000159
v 0.010074 0.610093 -0.000467
v 0.011788 0.610093 -0.001212
v 0.010223 0.610093 -0.000826
v 0.010287 0.610093 -0.001310
v 0.011788 0.610093 -0.014723
v 0.010287 0.610093 -0.014723
v 0.009562 0.610093 0.001689
v -0.000223 0.610093 0.001791
v 0.008785 0.610093 0.001791
v -0.001000 0.610093 0.001689
v 0.010287 0.610093 0.001389
v -0.001724 0.610093 0.001389
v 0.010908 0.610093 0.000912
v -0.002346 0.610093 0.000912
v -0.002823 0.610093 0.000290
v -0.000124 0.610093 0.000290
v -0.000608 0.610093 0.000226
v -0.003123 0.610093 -0.000434
v -0.000967 0.610093 0.000077
v -0.001275 0.610093 -0.000159
v -0.001512 0.610093 -0.000467
v -0.003225 0.610093 -0.001212
v -0.001660 0.610093 -0.000826
v -0.001724 0.610093 -0.001310
v -0.003225 0.610093 -0.014723
v -0.001724 0.610093 -0.014723
v -0.002324 0.610093 -0.014723
vn 0 -1 0
vn 0 0 -1
vn 1 0 0
vn 0.9914448610250887 0 0.13052619486885506
vn 0.9659258358036646 0 0.2588190095935612
vn 0.8660254028383292 0 0.5000000016387096
vn 0.7071067811865478 0 0.7071067811865472
vn 0.5000000016387105 0 0.8660254028383287
vn 0.258819009593562 0 0.9659258358036643
vn 0.13052619486885594 0 0.9914448610250887
vn 0 0 1
vn -0.2588190095935612 0 0.9659258358036646
vn -0.13052619486885506 0 0.9914448610250887
vn -0.5000000016387096 0 0.8660254028383292
vn -0.7071067811865472 0 0.7071067811865478
vn -0.8660254028383287 0 0.5000000016387105
vn -0.9659258358036643 0 0.258819009593562
vn -0.9914448610250887 0 0.13052619486885594
vn -1 0 0
vn 0.9914448610250887 0 -0.13052619486885594
vn 0.9659258358036643 0 -0.258819009593562
vn 0.8660254028383287 0 -0.5000000016387105
vn 0.7071067811865472 0 -0.7071067811865478
vn 0.5000000016387096 0 -0.8660254028383292
vn 0.2588190095935612 0 -0.9659258358036646
vn 0.13052619486885506 0 -0.9914448610250887
vn -0.13052619486885594 0 -0.9914448610250887
vn -0.258819009593562 0 -0.9659258358036643
vn -0.5000000016387105 0 -0.8660254028383287
vn -0.7071067811865478 0 -0.7071067811865472
vn -0.8660254028383292 0 -0.5000000016387096
vn -0.9659258358036646 0 -0.2588190095935612
vn -0.9914448610250887 0 -0.13052619486885506
vn 0 1 0
usemtl material_0_0
f 1//1 2//1 3//1
f 2//1 1//1 4//1
f 2//1 4//1 5//1
f 5//1 4//1 6//1
f 6//1 4//1 7//1
f 7//1 4//1 8//1
f 7//1 8//1 9//1
f 9//1 8//1 10//1
f 10//1 8//1 11//1
f 10//1 11//1 12//1
f 12//1 11//1 13//1
f 14//1 15//1 16//1
f 15//1 14//1 17//1
f 17//1 14//1 18//1
f 17//1 18//1 19//1
f 19//1 18//1 20//1
f 19//1 20//1 21//1
f 21//1 20//1 1//1
f 21//1 1//1 22//1
f 22//1 1//1 3//1
f 22//1 3//1 23//1
f 22//1 23//1 24//1
f 22//1 24//1 25//1
f 25//1 24//1 26//1
f 25//1 26//1 27//1
f 25//1 27//1 28//1
f 25//1 28//1 29//1
f 29//1 28//1 30//1
f 29//1 30//1 31//1
f 29//1 31//1 32//1
f 32//1 31//1 33//1
f 34//2 35//2 36//2
f 35//2 34//2 37//2
f 38//3 39//3 40//3
f 39//3 38//3 41//3
f 42//4 43//5 44//4
f 43//5 42//4 45//5
f 45//5 46//6 43//5
f 46//6 45//5 47//6
f 47//6 48//7 46//6
f 48//7 47//6 49//7
f 50//8 48//7 49//7
f 48//7 50//8 51//8
f 52//9 51//8 50//8
f 51//8 52//9 53//9
f 54//10 53//9 52//9
f 53//9 54//10 55//10
f 56//11 57//11 58//11
f 57//11 56//11 59//11
f 60//12 61//13 62//13
f 61//13 60//12 63//12
f 64//14 63//12 60//12
f 63//12 64//14 65//14
f 66//15 65//14 64//14
f 65//14 66//15 67//15
f 66//15 68//16 67//15
f 68//16 66//15 69//16
f 69//16 70//17 68//16
f 70//17 69//16 71//17
f 71//17 72//18 70//17
f 72//18 71//17 73//18
f 74//19 75//19 76//19
f 75//19 74//19 77//19
f 78//2 79//2 80//2
f 79//2 78//2 81//2
f 82//2 83//2 84//2
f 83//2 82//2 85//2
f 86//3 87//3 88//3
f 87//3 86//3 89//3
f 90//20 91//21 92//20
f 91//21 90//20 93//21
f 93//21 94//22 91//21
f 94//22 93//21 95//22
f 95//22 96//23 94//22
f 96//23 95//22 97//23
f 96//23 98//24 99//24
f 98//24 96//23 97//23
f 99//24 100//25 101//25
f 100//25 99//24 98//24
f 101//25 102//26 103//26
f 102//26 101//25 100//25
f 104//2 105//2 106//2
f 105//2 104//2 107//2
f 108//27 109//28 110//28
f 109//28 108//27 111//27
f 110//28 112//29 113//29
f 112//29 110//28 109//28
f 113//29 114//30 115//30
f 114//30 113//29 112//29
f 114//30 116//31 115//30
f 116//31 114//30 117//31
f 117//31 118//32 116//31
f 118//32 117//31 119//32
f 119//32 120//33 118//32
f 120//33 119//32 121//33
f 122//19 123//19 124//19
f 123//19 122//19 125//19
f 126//34 127//34 128//34
f 127//34 126//34 129//34
f 127//34 129//34 130//34
f 130//34 129//34 131//34
f 131//34 129//34 132//34
f 132//34 129//34 133//34
f 132//34 133//34 134//34
f 134//34 133//34 135//34
f 135//34 133//34 136//34
f 135//34 136//34 137//34
f 138//34 139//34 140//34
f 139//34 138//34 141//34
f 141//34 138//34 142//34
f 141//34 142//34 143//34
f 143//34 142//34 144//34
f 143//34 144//34 145//34
f 145//34 144//34 126//34
f 145//34 126//34 146//34
f 146//34 126//34 128//34
f 146//34 128//34 147//34
f 146//34 147//34 148//34
f 146//34 148//34 149//34
f 149//34 148//34 150//34
f 149//34 150//34 151//34
f 149//34 151//34 152//34
f 149//34 152//34 153//34
f 153//34 152//34 154//34
f 153//34 154//34 155//34
f 153//34 155//34 156//34
f 156//34 155//34 157//34
f 156//34 157//34 158//34
