# SSTK version 0.8.0
# 21
mtllib original-21.mtl
o #ID118
v -0.188787 0.508623 -0.572607
v -0.188787 0.508623 -0.675820
v -0.195581 0.508623 -0.624214
v -0.186117 0.508623 -0.624214
v -0.179645 0.508623 -0.575057
v -0.168867 0.508623 -0.524517
v -0.160671 0.508623 -0.529250
v -0.137180 0.508623 -0.483222
v -0.130488 0.508623 -0.489914
v -0.095884 0.508623 -0.451535
v -0.091152 0.508623 -0.459731
v -0.047795 0.508623 -0.431615
v -0.045345 0.508623 -0.440757
v 0.003812 0.508623 -0.424821
v 0.003812 0.508623 -0.434285
v 0.055419 0.508623 -0.431615
v 0.052969 0.508623 -0.440757
v 0.098776 0.508623 -0.459731
v 0.103508 0.508623 -0.451535
v 0.138112 0.508623 -0.489914
v 0.144804 0.508623 -0.483222
v 0.168295 0.508623 -0.529250
v 0.176491 0.508623 -0.524517
v 0.187269 0.508623 -0.575057
v 0.196411 0.508623 -0.572607
v 0.193741 0.508623 -0.624214
v -0.179645 0.508623 -0.673371
v -0.168867 0.508623 -0.723910
v -0.160671 0.508623 -0.719178
v -0.137180 0.508623 -0.765206
v -0.130488 0.508623 -0.758514
v -0.095884 0.508623 -0.796893
v -0.091152 0.508623 -0.788697
v -0.047795 0.508623 -0.816812
v -0.045345 0.508623 -0.807671
v 0.003812 0.508623 -0.823607
v 0.003812 0.508623 -0.814142
v 0.052969 0.508623 -0.807671
v 0.055419 0.508623 -0.816812
v 0.098776 0.508623 -0.788697
v 0.103508 0.508623 -0.796893
v 0.138112 0.508623 -0.758514
v 0.144804 0.508623 -0.765206
v 0.168295 0.508623 -0.719178
v 0.176491 0.508623 -0.723910
v 0.187269 0.508623 -0.673371
v 0.196411 0.508623 -0.675820
v 0.203205 0.508623 -0.624214
v 0.203205 0.508623 -0.624214
v 0.196411 0.508623 -0.572607
v 0.196411 0.508623 -0.675820
v 0.193741 0.508623 -0.624214
v 0.187269 0.508623 -0.673371
v 0.176491 0.508623 -0.723910
v 0.168295 0.508623 -0.719178
v 0.144804 0.508623 -0.765206
v 0.138112 0.508623 -0.758514
v 0.103508 0.508623 -0.796893
v 0.098776 0.508623 -0.788697
v 0.055419 0.508623 -0.816812
v 0.052969 0.508623 -0.807671
v 0.003812 0.508623 -0.823607
v 0.003812 0.508623 -0.814142
v -0.045345 0.508623 -0.807671
v -0.047795 0.508623 -0.816812
v -0.091152 0.508623 -0.788697
v -0.095884 0.508623 -0.796893
v -0.130488 0.508623 -0.758514
v -0.137180 0.508623 -0.765206
v -0.160671 0.508623 -0.719178
v -0.168867 0.508623 -0.723910
v -0.179645 0.508623 -0.673371
v -0.186117 0.508623 -0.624214
v -0.188787 0.508623 -0.675820
v 0.187269 0.508623 -0.575057
v 0.176491 0.508623 -0.524517
v 0.168295 0.508623 -0.529250
v 0.144804 0.508623 -0.483222
v 0.138112 0.508623 -0.489914
v 0.103508 0.508623 -0.451535
v 0.098776 0.508623 -0.459731
v 0.055419 0.508623 -0.431615
v 0.052969 0.508623 -0.440757
v 0.003812 0.508623 -0.434285
v 0.003812 0.508623 -0.424821
v -0.045345 0.508623 -0.440757
v -0.047795 0.508623 -0.431615
v -0.091152 0.508623 -0.459731
v -0.095884 0.508623 -0.451535
v -0.130488 0.508623 -0.489914
v -0.137180 0.508623 -0.483222
v -0.160671 0.508623 -0.529250
v -0.168867 0.508623 -0.524517
v -0.179645 0.508623 -0.575057
v -0.188787 0.508623 -0.572607
v -0.195581 0.508623 -0.624214
vt 0.08486422 0.04243211
vt 0.08341838 0.03144987
vt 0.08341838 0.05341435
vt 0.08285018 0.04243211
vt 0.08147297 0.05289308
vt 0.07917939 0.06364816
vt 0.07743519 0.06264115
vt 0.07243614 0.07243614
vt 0.071012 0.071012
vt 0.06364816 0.07917939
vt 0.06264115 0.07743519
vt 0.05341435 0.08341838
vt 0.05289308 0.08147297
vt 0.04243211 0.08486422
vt 0.04243211 0.08285018
vt 0.03197114 0.08147297
vt 0.03144987 0.08341838
vt 0.02222307 0.07743519
vt 0.02121605 0.07917939
vt 0.01385222 0.071012
vt 0.01242808 0.07243614
vt 0.00742903 0.06264115
vt 0.005684825 0.06364816
vt 0.003391248 0.05289308
vt 0.002014035 0.04243211
vt 0.001445839 0.05341435
vt 0.08147297 0.03197114
vt 0.07917939 0.02121605
vt 0.07743519 0.02222307
vt 0.07243614 0.01242808
vt 0.071012 0.01385222
vt 0.06364816 0.005684825
vt 0.06264115 0.00742903
vt 0.05341435 0.001445839
vt 0.05289308 0.003391248
vt 0.04243211 0.002014035
vt 0.04243211 0
vt 0.03197114 0.003391248
vt 0.03144987 0.001445839
vt 0.02222307 0.00742903
vt 0.02121605 0.005684825
vt 0.01385222 0.01385222
vt 0.01242808 0.01242808
vt 0.00742903 0.02222307
vt 0.005684825 0.02121605
vt 0.003391248 0.03197114
vt 0.001445839 0.03144987
vt 0 0.04243211
vn 0 1 0
vn 0 -1 0
usemtl material_0_0
f 1//1 2//1 3//1
f 2//1 1//1 4//1
f 4//1 1//1 5//1
f 5//1 1//1 6//1
f 5//1 6//1 7//1
f 7//1 6//1 8//1
f 7//1 8//1 9//1
f 9//1 8//1 10//1
f 9//1 10//1 11//1
f 11//1 10//1 12//1
f 11//1 12//1 13//1
f 13//1 12//1 14//1
f 13//1 14//1 15//1
f 15//1 14//1 16//1
f 15//1 16//1 17//1
f 17//1 16//1 18//1
f 18//1 16//1 19//1
f 18//1 19//1 20//1
f 20//1 19//1 21//1
f 20//1 21//1 22//1
f 22//1 21//1 23//1
f 22//1 23//1 24//1
f 24//1 23//1 25//1
f 24//1 25//1 26//1
f 2//1 27//1 28//1
f 27//1 2//1 4//1
f 28//1 27//1 29//1
f 28//1 29//1 30//1
f 30//1 29//1 31//1
f 30//1 31//1 32//1
f 32//1 31//1 33//1
f 32//1 33//1 34//1
f 34//1 33//1 35//1
f 34//1 35//1 36//1
f 36//1 35//1 37//1
f 36//1 37//1 38//1
f 36//1 38//1 39//1
f 39//1 38//1 40//1
f 39//1 40//1 41//1
f 41//1 40//1 42//1
f 41//1 42//1 43//1
f 43//1 42//1 44//1
f 43//1 44//1 45//1
f 45//1 44//1 46//1
f 45//1 46//1 47//1
f 47//1 46//1 26//1
f 47//1 26//1 25//1
f 47//1 25//1 48//1
usemtl material_1_0
f 49/1/2 50/2/2 51/3/2
f 50/2/2 52/4/2 51/3/2
f 52/4/2 53/5/2 51/3/2
f 51/3/2 53/5/2 54/6/2
f 53/5/2 55/7/2 54/6/2
f 54/6/2 55/7/2 56/8/2
f 55/7/2 57/9/2 56/8/2
f 56/8/2 57/9/2 58/10/2
f 57/9/2 59/11/2 58/10/2
f 58/10/2 59/11/2 60/12/2
f 59/11/2 61/13/2 60/12/2
f 60/12/2 61/13/2 62/14/2
f 61/13/2 63/15/2 62/14/2
f 63/15/2 64/16/2 62/14/2
f 62/14/2 64/16/2 65/17/2
f 64/16/2 66/18/2 65/17/2
f 65/17/2 66/18/2 67/19/2
f 66/18/2 68/20/2 67/19/2
f 67/19/2 68/20/2 69/21/2
f 68/20/2 70/22/2 69/21/2
f 69/21/2 70/22/2 71/23/2
f 70/22/2 72/24/2 71/23/2
f 73/25/2 74/26/2 72/24/2
f 71/23/2 72/24/2 74/26/2
f 52/4/2 50/2/2 75/27/2
f 50/2/2 76/28/2 75/27/2
f 75/27/2 76/28/2 77/29/2
f 76/28/2 78/30/2 77/29/2
f 77/29/2 78/30/2 79/31/2
f 78/30/2 80/32/2 79/31/2
f 79/31/2 80/32/2 81/33/2
f 80/32/2 82/34/2 81/33/2
f 81/33/2 82/34/2 83/35/2
f 83/35/2 82/34/2 84/36/2
f 82/34/2 85/37/2 84/36/2
f 84/36/2 85/37/2 86/38/2
f 85/37/2 87/39/2 86/38/2
f 86/38/2 87/39/2 88/40/2
f 87/39/2 89/41/2 88/40/2
f 88/40/2 89/41/2 90/42/2
f 89/41/2 91/43/2 90/42/2
f 90/42/2 91/43/2 92/44/2
f 91/43/2 93/45/2 92/44/2
f 92/44/2 93/45/2 94/46/2
f 93/45/2 95/47/2 94/46/2
f 94/46/2 95/47/2 73/25/2
f 73/25/2 95/47/2 74/26/2
f 96/48/2 74/26/2 95/47/2
