# SSTK version 0.8.0
# 75
mtllib original-75.mtl
o #ID716
v 0.062533 0.588380 0.454225
v 0.074186 0.611838 0.452507
v 0.074186 0.588380 0.452507
v 0.062533 0.611838 0.454225
v 0.062533 0.611838 0.454225
v 0.062533 0.588380 0.454225
v 0.074186 0.611838 0.452507
v 0.074186 0.588380 0.452507
v 0.074186 0.611838 0.452507
v 0.074186 0.588380 0.447815
v 0.074186 0.588380 0.452507
v 0.074186 0.611838 0.447815
v 0.074186 0.611838 0.447815
v 0.074186 0.611838 0.452507
v 0.074186 0.588380 0.447815
v 0.074186 0.588380 0.452507
v 0.064803 0.588380 0.351028
v -0.057179 0.588380 0.447815
v 0.064803 0.588380 0.447815
v -0.057179 0.588380 0.351028
v -0.049719 0.588380 0.341649
v 0.057343 0.588380 0.341649
v 0.048456 0.588380 0.333609
v -0.040832 0.588380 0.333609
v 0.038380 0.588380 0.327122
v -0.030756 0.588380 0.327122
v 0.027382 0.588380 0.322360
v -0.019758 0.588380 0.322360
v 0.015756 0.588380 0.319452
v -0.008132 0.588380 0.319452
v 0.003812 0.588380 0.318473
v 0.015590 0.588380 0.457980
v -0.007965 0.588380 0.457980
v 0.003812 0.588380 0.458137
v 0.027359 0.588380 0.457510
v -0.019735 0.588380 0.457510
v 0.039112 0.588380 0.456727
v -0.031487 0.588380 0.456727
v 0.050839 0.588380 0.455632
v -0.043215 0.588380 0.455632
v 0.062533 0.588380 0.454225
v -0.054909 0.588380 0.454225
v 0.074186 0.588380 0.452507
v -0.066562 0.588380 0.452507
v 0.074186 0.588380 0.447815
v -0.066562 0.588380 0.447815
v -0.057179 0.588380 0.447815
v 0.064803 0.588380 0.447815
v -0.066562 0.588380 0.447815
v -0.066562 0.588380 0.452507
v 0.074186 0.588380 0.447815
v 0.074186 0.588380 0.452507
v -0.054909 0.588380 0.454225
v 0.062533 0.588380 0.454225
v -0.043215 0.588380 0.455632
v 0.050839 0.588380 0.455632
v -0.031487 0.588380 0.456727
v 0.039112 0.588380 0.456727
v -0.019735 0.588380 0.457510
v 0.027359 0.588380 0.457510
v -0.007965 0.588380 0.457980
v 0.015590 0.588380 0.457980
v 0.003812 0.588380 0.458137
v 0.003812 0.588380 0.318473
v 0.015756 0.588380 0.319452
v -0.008132 0.588380 0.319452
v -0.019758 0.588380 0.322360
v 0.027382 0.588380 0.322360
v -0.030756 0.588380 0.327122
v 0.038380 0.588380 0.327122
v -0.040832 0.588380 0.333609
v 0.048456 0.588380 0.333609
v -0.049719 0.588380 0.341649
v 0.057343 0.588380 0.341649
v 0.064803 0.588380 0.351028
v -0.057179 0.588380 0.351028
v 0.050839 0.588380 0.455632
v 0.050839 0.611838 0.455632
v 0.050839 0.611838 0.455632
v 0.050839 0.588380 0.455632
v 0.064803 0.611838 0.447815
v 0.074186 0.588380 0.447815
v 0.074186 0.611838 0.447815
v 0.064803 0.588380 0.447815
v 0.064803 0.588380 0.447815
v 0.064803 0.611838 0.447815
v 0.074186 0.588380 0.447815
v 0.074186 0.611838 0.447815
v 0.064803 0.611838 0.447815
v 0.064803 0.588380 0.351028
v 0.064803 0.588380 0.447815
v 0.064803 0.611838 0.351028
v 0.064803 0.611838 0.351028
v 0.064803 0.611838 0.447815
v 0.064803 0.588380 0.351028
v 0.064803 0.588380 0.447815
v 0.064803 0.611838 0.351028
v 0.057343 0.588380 0.341649
v 0.064803 0.588380 0.351028
v 0.057343 0.611838 0.341649
v 0.057343 0.611838 0.341649
v 0.064803 0.611838 0.351028
v 0.057343 0.588380 0.341649
v 0.064803 0.588380 0.351028
v 0.048456 0.611838 0.333609
v 0.048456 0.588380 0.333609
v 0.048456 0.588380 0.333609
v 0.048456 0.611838 0.333609
v 0.038380 0.611838 0.327122
v 0.038380 0.588380 0.327122
v 0.038380 0.588380 0.327122
v 0.038380 0.611838 0.327122
v 0.027382 0.611838 0.322360
v 0.027382 0.588380 0.322360
v 0.027382 0.588380 0.322360
v 0.027382 0.611838 0.322360
v 0.015756 0.611838 0.319452
v 0.015756 0.588380 0.319452
v 0.015756 0.588380 0.319452
v 0.015756 0.611838 0.319452
v 0.003812 0.611838 0.318473
v 0.003812 0.588380 0.318473
v 0.003812 0.588380 0.318473
v 0.003812 0.611838 0.318473
v -0.008132 0.611838 0.319452
v -0.008132 0.588380 0.319452
v -0.008132 0.588380 0.319452
v -0.008132 0.611838 0.319452
v -0.019758 0.611838 0.322360
v -0.019758 0.588380 0.322360
v -0.019758 0.588380 0.322360
v -0.019758 0.611838 0.322360
v -0.030756 0.611838 0.327122
v -0.030756 0.588380 0.327122
v -0.030756 0.588380 0.327122
v -0.030756 0.611838 0.327122
v -0.040832 0.611838 0.333609
v -0.040832 0.588380 0.333609
v -0.040832 0.588380 0.333609
v -0.040832 0.611838 0.333609
v -0.049719 0.611838 0.341649
v -0.049719 0.588380 0.341649
v -0.049719 0.588380 0.341649
v -0.049719 0.611838 0.341649
v -0.057179 0.588380 0.351028
v -0.057179 0.611838 0.351028
v -0.057179 0.611838 0.351028
v -0.057179 0.588380 0.351028
v -0.057179 0.588380 0.351028
v -0.057179 0.611838 0.447815
v -0.057179 0.588380 0.447815
v -0.057179 0.611838 0.351028
v -0.057179 0.611838 0.351028
v -0.057179 0.588380 0.351028
v -0.057179 0.611838 0.447815
v -0.057179 0.588380 0.447815
v -0.066562 0.611838 0.447815
v -0.057179 0.588380 0.447815
v -0.057179 0.611838 0.447815
v -0.066562 0.588380 0.447815
v -0.066562 0.588380 0.447815
v -0.066562 0.611838 0.447815
v -0.057179 0.588380 0.447815
v -0.057179 0.611838 0.447815
v -0.066562 0.611838 0.447815
v -0.066562 0.588380 0.452507
v -0.066562 0.588380 0.447815
v -0.066562 0.611838 0.452507
v -0.066562 0.611838 0.452507
v -0.066562 0.611838 0.447815
v -0.066562 0.588380 0.452507
v -0.066562 0.588380 0.447815
v -0.066562 0.588380 0.452507
v -0.054909 0.611838 0.454225
v -0.054909 0.588380 0.454225
v -0.066562 0.611838 0.452507
v -0.066562 0.611838 0.452507
v -0.066562 0.588380 0.452507
v -0.054909 0.611838 0.454225
v -0.054909 0.588380 0.454225
v -0.043215 0.611838 0.455632
v -0.043215 0.588380 0.455632
v -0.043215 0.611838 0.455632
v -0.043215 0.588380 0.455632
v -0.031487 0.611838 0.456727
v -0.031487 0.588380 0.456727
v -0.031487 0.611838 0.456727
v -0.031487 0.588380 0.456727
v -0.019735 0.611838 0.457510
v -0.019735 0.588380 0.457510
v -0.019735 0.611838 0.457510
v -0.019735 0.588380 0.457510
v -0.007965 0.611838 0.457980
v -0.007965 0.588380 0.457980
v -0.007965 0.611838 0.457980
v -0.007965 0.588380 0.457980
v 0.003812 0.611838 0.458137
v 0.003812 0.588380 0.458137
v 0.003812 0.611838 0.458137
v 0.003812 0.588380 0.458137
v 0.015590 0.611838 0.457980
v 0.015590 0.588380 0.457980
v 0.015590 0.611838 0.457980
v 0.015590 0.588380 0.457980
v 0.027359 0.611838 0.457510
v 0.027359 0.588380 0.457510
v 0.027359 0.611838 0.457510
v 0.027359 0.588380 0.457510
v 0.039112 0.611838 0.456727
v 0.039112 0.588380 0.456727
v 0.039112 0.611838 0.456727
v 0.039112 0.588380 0.456727
vn -0.13265779974049194 0 -0.9911618980610643
vn -0.14583310100185562 0 -0.9893092067964305
vn 0.13265779974049194 0 0.9911618980610643
vn 0.14583310100185562 0 0.9893092067964305
vn -1 0 0
vn 1 0 0
vn 0 1 0
vn 0 -1 0
vn -0.10623910131857803 0 -0.9943406123411741
vn 0.10623910131857803 0 0.9943406123411741
vn 0 0 1
vn 0 0 -1
vn -0.7826250686192513 0 0.6224933750400178
vn -0.7292027291999829 0 0.6842977274018206
vn 0.7292027291999829 0 -0.6842977274018206
vn 0.7826250686192513 0 -0.6224933750400178
vn -0.608147522886948 0 0.793824029874675
vn 0.608147522886948 0 -0.793824029874675
vn -0.4708850010608659 0 0.8821946019875142
vn 0.4708850010608659 0 -0.8821946019875142
vn -0.3210731941696957 0 0.9470543828026291
vn 0.3210731941696957 0 -0.9470543828026291
vn -0.1627047015979932 0 0.9866748096905625
vn 0.1627047015979932 0 -0.9866748096905625
vn 0.16270470159799413 0 0.9866748096905625
vn -0.16270470159799413 0 -0.9866748096905625
vn 0.3210731941696966 0 0.9470543828026289
vn -0.3210731941696966 0 -0.9470543828026289
vn 0.47088500106086667 0 0.8821946019875138
vn -0.47088500106086667 0 -0.8821946019875138
vn 0.6081475228869486 0 0.7938240298746746
vn -0.6081475228869486 0 -0.7938240298746746
vn 0.7292027291999835 0 0.6842977274018199
vn -0.7292027291999835 0 -0.6842977274018199
vn 0.7826250686192517 0 0.6224933750400171
vn -0.7826250686192517 0 -0.6224933750400171
vn 0.14583310100185473 0 -0.9893092067964308
vn 0.13265779974049105 0 -0.9911618980610645
vn -0.14583310100185473 0 0.9893092067964308
vn -0.13265779974049105 0 0.9911618980610645
vn 0.10623910131857714 0 -0.9943406123411741
vn -0.10623910131857714 0 0.9943406123411741
vn 0.07974521830832686 0 -0.9968152788540902
vn -0.07974521830832686 0 0.9968152788540902
vn 0.05319486737525961 0 -0.9985841507278834
vn -0.05319486737525961 0 0.9985841507278834
vn 0.026606849337716204 0 -0.9996459751173512
vn -0.026606849337716204 0 0.9996459751173512
vn -0.026606849337717092 0 -0.9996459751173512
vn 0.026606849337717092 0 0.9996459751173512
vn -0.053194867375260496 0 -0.9985841507278834
vn 0.053194867375260496 0 0.9985841507278834
vn -0.07974521830832773 0 -0.9968152788540899
vn 0.07974521830832773 0 0.9968152788540899
usemtl material_0_0
f 1//1 2//2 3//2
f 2//2 1//1 4//1
f 5//3 6//3 7//4
f 8//4 7//4 6//3
f 9//5 10//5 11//5
f 10//5 9//5 12//5
f 13//6 14//6 15//6
f 16//6 15//6 14//6
f 17//7 18//7 19//7
f 18//7 17//7 20//7
f 20//7 17//7 21//7
f 21//7 17//7 22//7
f 21//7 22//7 23//7
f 21//7 23//7 24//7
f 24//7 23//7 25//7
f 24//7 25//7 26//7
f 26//7 25//7 27//7
f 26//7 27//7 28//7
f 28//7 27//7 29//7
f 28//7 29//7 30//7
f 30//7 29//7 31//7
f 32//7 33//7 34//7
f 33//7 32//7 35//7
f 33//7 35//7 36//7
f 36//7 35//7 37//7
f 36//7 37//7 38//7
f 38//7 37//7 39//7
f 38//7 39//7 40//7
f 40//7 39//7 41//7
f 40//7 41//7 42//7
f 42//7 41//7 43//7
f 42//7 43//7 44//7
f 44//7 43//7 45//7
f 44//7 45//7 19//7
f 44//7 19//7 46//7
f 46//7 19//7 18//7
f 47//8 48//8 49//8
f 49//8 48//8 50//8
f 48//8 51//8 50//8
f 51//8 52//8 50//8
f 50//8 52//8 53//8
f 52//8 54//8 53//8
f 53//8 54//8 55//8
f 54//8 56//8 55//8
f 55//8 56//8 57//8
f 56//8 58//8 57//8
f 57//8 58//8 59//8
f 58//8 60//8 59//8
f 59//8 60//8 61//8
f 60//8 62//8 61//8
f 63//8 61//8 62//8
f 64//8 65//8 66//8
f 66//8 65//8 67//8
f 65//8 68//8 67//8
f 67//8 68//8 69//8
f 68//8 70//8 69//8
f 69//8 70//8 71//8
f 70//8 72//8 71//8
f 71//8 72//8 73//8
f 72//8 74//8 73//8
f 74//8 75//8 73//8
f 73//8 75//8 76//8
f 76//8 75//8 47//8
f 48//8 47//8 75//8
f 77//9 4//1 1//1
f 4//1 77//9 78//9
f 79//10 80//10 5//3
f 6//3 5//3 80//10
f 81//11 82//11 83//11
f 82//11 81//11 84//11
f 85//12 86//12 87//12
f 88//12 87//12 86//12
f 89//5 90//5 91//5
f 90//5 89//5 92//5
f 93//6 94//6 95//6
f 96//6 95//6 94//6
f 97//13 98//14 99//13
f 98//14 97//13 100//14
f 101//15 102//16 103//15
f 104//16 103//15 102//16
f 105//17 98//14 100//14
f 98//14 105//17 106//17
f 107//18 108//18 103//15
f 101//15 103//15 108//18
f 109//19 106//17 105//17
f 106//17 109//19 110//19
f 111//20 112//20 107//18
f 108//18 107//18 112//20
f 113//21 110//19 109//19
f 110//19 113//21 114//21
f 115//22 116//22 111//20
f 112//20 111//20 116//22
f 117//23 114//21 113//21
f 114//21 117//23 118//23
f 119//24 120//24 115//22
f 116//22 115//22 120//24
f 121//11 118//23 117//23
f 118//23 121//11 122//11
f 123//12 124//12 119//24
f 120//24 119//24 124//12
f 125//25 122//11 121//11
f 122//11 125//25 126//25
f 127//26 128//26 123//12
f 124//12 123//12 128//26
f 129//27 126//25 125//25
f 126//25 129//27 130//27
f 131//28 132//28 127//26
f 128//26 127//26 132//28
f 133//29 130//27 129//27
f 130//27 133//29 134//29
f 135//30 136//30 131//28
f 132//28 131//28 136//30
f 137//31 134//29 133//29
f 134//29 137//31 138//31
f 139//32 140//32 135//30
f 136//30 135//30 140//32
f 141//33 138//31 137//31
f 138//31 141//33 142//33
f 143//34 144//34 139//32
f 140//32 139//32 144//34
f 141//33 145//35 142//33
f 145//35 141//33 146//35
f 147//36 144//34 148//36
f 143//34 148//36 144//34
f 149//6 150//6 151//6
f 150//6 149//6 152//6
f 153//5 154//5 155//5
f 156//5 155//5 154//5
f 157//11 158//11 159//11
f 158//11 157//11 160//11
f 161//12 162//12 163//12
f 164//12 163//12 162//12
f 165//6 166//6 167//6
f 166//6 165//6 168//6
f 169//5 170//5 171//5
f 172//5 171//5 170//5
f 173//37 174//38 175//38
f 174//38 173//37 176//37
f 177//39 178//39 179//40
f 180//40 179//40 178//39
f 175//38 181//41 182//41
f 181//41 175//38 174//38
f 179//40 180//40 183//42
f 184//42 183//42 180//40
f 182//41 185//43 186//43
f 185//43 182//41 181//41
f 183//42 184//42 187//44
f 188//44 187//44 184//42
f 186//43 189//45 190//45
f 189//45 186//43 185//43
f 187//44 188//44 191//46
f 192//46 191//46 188//44
f 190//45 193//47 194//47
f 193//47 190//45 189//45
f 191//46 192//46 195//48
f 196//48 195//48 192//46
f 194//47 197//12 198//12
f 197//12 194//47 193//47
f 195//48 196//48 199//11
f 200//11 199//11 196//48
f 198//12 201//49 202//49
f 201//49 198//12 197//12
f 199//11 200//11 203//50
f 204//50 203//50 200//11
f 202//49 205//51 206//51
f 205//51 202//49 201//49
f 203//50 204//50 207//52
f 208//52 207//52 204//50
f 206//51 209//53 210//53
f 209//53 206//51 205//51
f 207//52 208//52 211//54
f 212//54 211//54 208//52
f 210//53 78//9 77//9
f 78//9 210//53 209//53
f 211//54 212//54 79//10
f 80//10 79//10 212//54
