# SSTK version 0.8.0
# 120
mtllib original-120.mtl
o #ID673
v -0.191512 0.318537 0.475965
v -0.191568 0.426176 0.475965
v -0.198625 0.372567 0.475965
v -0.191512 0.426597 0.475965
v -0.170658 0.268189 0.475965
v -0.170658 0.476945 0.475965
v -0.137482 0.224954 0.475965
v -0.137482 0.520179 0.475965
v -0.094248 0.191779 0.475965
v -0.094248 0.553355 0.475965
v -0.043900 0.170924 0.475965
v -0.090885 0.554747 0.475965
v -0.043900 0.574209 0.475965
v 0.010130 0.163811 0.475965
v 0.010130 0.581323 0.475965
v 0.064160 0.170924 0.475965
v 0.064160 0.574209 0.475965
v 0.114508 0.191779 0.475965
v 0.111146 0.554747 0.475965
v 0.114508 0.553355 0.475965
v 0.157743 0.224954 0.475965
v 0.157743 0.520179 0.475965
v 0.190918 0.268189 0.475965
v 0.190918 0.476945 0.475965
v 0.211773 0.318537 0.475965
v 0.211773 0.426597 0.475965
v 0.218886 0.372567 0.475965
v 0.211828 0.426176 0.475965
v 0.211828 0.426176 0.475965
v 0.218886 0.372567 0.475965
v 0.211773 0.426597 0.475965
v 0.211773 0.318537 0.475965
v 0.190918 0.476945 0.475965
v 0.190918 0.268189 0.475965
v 0.157743 0.520179 0.475965
v 0.157743 0.224954 0.475965
v 0.114508 0.553355 0.475965
v 0.114508 0.191779 0.475965
v 0.111146 0.554747 0.475965
v 0.064160 0.574209 0.475965
v 0.064160 0.170924 0.475965
v 0.010130 0.581323 0.475965
v 0.010130 0.163811 0.475965
v -0.043900 0.574209 0.475965
v -0.043900 0.170924 0.475965
v -0.090885 0.554747 0.475965
v -0.094248 0.553355 0.475965
v -0.094248 0.191779 0.475965
v -0.137482 0.520179 0.475965
v -0.137482 0.224954 0.475965
v -0.170658 0.476945 0.475965
v -0.170658 0.268189 0.475965
v -0.191512 0.426597 0.475965
v -0.191512 0.318537 0.475965
v -0.191568 0.426176 0.475965
v -0.198625 0.372567 0.475965
vn 0 0 1
vn 0 0 -1
usemtl material_0_0
f 1//1 2//1 3//1
f 2//1 1//1 4//1
f 4//1 1//1 5//1
f 4//1 5//1 6//1
f 6//1 5//1 7//1
f 6//1 7//1 8//1
f 8//1 7//1 9//1
f 8//1 9//1 10//1
f 10//1 9//1 11//1
f 10//1 11//1 12//1
f 12//1 11//1 13//1
f 13//1 11//1 14//1
f 13//1 14//1 15//1
f 15//1 14//1 16//1
f 15//1 16//1 17//1
f 17//1 16//1 18//1
f 17//1 18//1 19//1
f 19//1 18//1 20//1
f 20//1 18//1 21//1
f 20//1 21//1 22//1
f 22//1 21//1 23//1
f 22//1 23//1 24//1
f 24//1 23//1 25//1
f 24//1 25//1 26//1
f 26//1 25//1 27//1
f 26//1 27//1 28//1
f 29//2 30//2 31//2
f 30//2 32//2 31//2
f 31//2 32//2 33//2
f 32//2 34//2 33//2
f 33//2 34//2 35//2
f 34//2 36//2 35//2
f 35//2 36//2 37//2
f 36//2 38//2 37//2
f 37//2 38//2 39//2
f 39//2 38//2 40//2
f 38//2 41//2 40//2
f 40//2 41//2 42//2
f 41//2 43//2 42//2
f 42//2 43//2 44//2
f 43//2 45//2 44//2
f 44//2 45//2 46//2
f 46//2 45//2 47//2
f 45//2 48//2 47//2
f 47//2 48//2 49//2
f 48//2 50//2 49//2
f 49//2 50//2 51//2
f 50//2 52//2 51//2
f 51//2 52//2 53//2
f 52//2 54//2 53//2
f 53//2 54//2 55//2
f 56//2 55//2 54//2
