# SSTK version 0.8.0
# 25
mtllib original-25.mtl
o #ID150
v -0.023413 -0.399200 -0.596989
v -0.025226 -0.399200 -0.624214
v -0.029532 -0.399200 -0.604963
v -0.024236 -0.399200 -0.616698
v -0.021336 -0.399200 -0.609695
v -0.015439 -0.399200 -0.590870
v -0.016721 -0.399200 -0.603681
v -0.010707 -0.399200 -0.599066
v -0.006153 -0.399200 -0.587024
v -0.003704 -0.399200 -0.596165
v 0.003812 -0.399200 -0.585712
v 0.003812 -0.399200 -0.595176
v 0.013777 -0.399200 -0.587024
v 0.011328 -0.399200 -0.596165
v 0.018331 -0.399200 -0.599066
v 0.023063 -0.399200 -0.590870
v 0.024345 -0.399200 -0.603681
v 0.031037 -0.399200 -0.596989
v 0.028960 -0.399200 -0.609695
v 0.031861 -0.399200 -0.616698
v 0.037156 -0.399200 -0.604963
v 0.032850 -0.399200 -0.624214
v 0.037156 -0.399200 -0.643465
v 0.041002 -0.399200 -0.634179
v 0.041002 -0.399200 -0.614249
v 0.042314 -0.399200 -0.624214
v -0.033378 -0.399200 -0.614249
v -0.033378 -0.399200 -0.634179
v -0.034690 -0.399200 -0.624214
v -0.029532 -0.399200 -0.643465
v -0.023413 -0.399200 -0.651439
v -0.024236 -0.399200 -0.631729
v -0.021336 -0.399200 -0.638733
v -0.015439 -0.399200 -0.657558
v -0.016721 -0.399200 -0.644747
v -0.010707 -0.399200 -0.649361
v -0.006153 -0.399200 -0.661404
v -0.003704 -0.399200 -0.652262
v 0.003812 -0.399200 -0.662716
v 0.003812 -0.399200 -0.653252
v 0.011328 -0.399200 -0.652262
v 0.013777 -0.399200 -0.661404
v 0.018331 -0.399200 -0.649361
v 0.023063 -0.399200 -0.657558
v 0.024345 -0.399200 -0.644747
v 0.031037 -0.399200 -0.651439
v 0.028960 -0.399200 -0.638733
v 0.031861 -0.399200 -0.631729
v 0.032850 -0.399200 -0.624214
v 0.031861 -0.399200 -0.631729
v 0.037156 -0.399200 -0.643465
v 0.031037 -0.399200 -0.651439
v 0.028960 -0.399200 -0.638733
v 0.024345 -0.399200 -0.644747
v 0.023063 -0.399200 -0.657558
v 0.018331 -0.399200 -0.649361
v 0.013777 -0.399200 -0.661404
v 0.011328 -0.399200 -0.652262
v 0.003812 -0.399200 -0.662716
v 0.003812 -0.399200 -0.653252
v -0.003704 -0.399200 -0.652262
v -0.006153 -0.399200 -0.661404
v -0.010707 -0.399200 -0.649361
v -0.015439 -0.399200 -0.657558
v -0.016721 -0.399200 -0.644747
v -0.021336 -0.399200 -0.638733
v -0.023413 -0.399200 -0.651439
v -0.024236 -0.399200 -0.631729
v -0.025226 -0.399200 -0.624214
v -0.029532 -0.399200 -0.604963
v -0.029532 -0.399200 -0.643465
v -0.033378 -0.399200 -0.634179
v -0.033378 -0.399200 -0.614249
v -0.034690 -0.399200 -0.624214
v 0.042314 -0.399200 -0.624214
v 0.041002 -0.399200 -0.614249
v 0.041002 -0.399200 -0.634179
v 0.037156 -0.399200 -0.604963
v 0.031861 -0.399200 -0.616698
v 0.031037 -0.399200 -0.596989
v 0.028960 -0.399200 -0.609695
v 0.024345 -0.399200 -0.603681
v 0.023063 -0.399200 -0.590870
v 0.018331 -0.399200 -0.599066
v 0.013777 -0.399200 -0.587024
v 0.011328 -0.399200 -0.596165
v 0.003812 -0.399200 -0.595176
v 0.003812 -0.399200 -0.585712
v -0.003704 -0.399200 -0.596165
v -0.006153 -0.399200 -0.587024
v -0.010707 -0.399200 -0.599066
v -0.015439 -0.399200 -0.590870
v -0.016721 -0.399200 -0.603681
v -0.021336 -0.399200 -0.609695
v -0.023413 -0.399200 -0.596989
v -0.024236 -0.399200 -0.616698
v 0.037156 -0.406238 -0.604963
v 0.031037 -0.399200 -0.596989
v 0.031037 -0.406238 -0.596989
v 0.037156 -0.399200 -0.604963
v 0.037156 -0.399200 -0.604963
v 0.037156 -0.406238 -0.604963
v 0.031037 -0.399200 -0.596989
v 0.031037 -0.406238 -0.596989
v 0.041002 -0.406238 -0.614249
v 0.037156 -0.399200 -0.604963
v 0.037156 -0.406238 -0.604963
v 0.041002 -0.399200 -0.614249
v 0.041002 -0.399200 -0.614249
v 0.041002 -0.406238 -0.614249
v 0.037156 -0.399200 -0.604963
v 0.037156 -0.406238 -0.604963
v 0.042314 -0.406238 -0.624214
v 0.042314 -0.399200 -0.624214
v 0.042314 -0.399200 -0.624214
v 0.042314 -0.406238 -0.624214
v 0.041002 -0.406238 -0.634179
v 0.041002 -0.399200 -0.634179
v 0.041002 -0.399200 -0.634179
v 0.041002 -0.406238 -0.634179
v 0.037156 -0.406238 -0.643465
v 0.037156 -0.399200 -0.643465
v 0.037156 -0.399200 -0.643465
v 0.037156 -0.406238 -0.643465
v 0.031037 -0.406238 -0.651439
v 0.031037 -0.399200 -0.651439
v 0.031037 -0.399200 -0.651439
v 0.031037 -0.406238 -0.651439
v 0.023063 -0.399200 -0.657558
v 0.023063 -0.406238 -0.657558
v 0.023063 -0.399200 -0.657558
v 0.023063 -0.406238 -0.657558
v 0.013777 -0.399200 -0.661404
v 0.013777 -0.406238 -0.661404
v 0.013777 -0.399200 -0.661404
v 0.013777 -0.406238 -0.661404
v 0.003812 -0.399200 -0.662716
v 0.003812 -0.406238 -0.662716
v 0.003812 -0.399200 -0.662716
v 0.003812 -0.406238 -0.662716
v -0.006153 -0.399200 -0.661404
v -0.006153 -0.406238 -0.661404
v -0.006153 -0.399200 -0.661404
v -0.006153 -0.406238 -0.661404
v -0.015439 -0.399200 -0.657558
v -0.015439 -0.406238 -0.657558
v -0.015439 -0.399200 -0.657558
v -0.015439 -0.406238 -0.657558
v -0.023413 -0.399200 -0.651439
v -0.023413 -0.406238 -0.651439
v -0.023413 -0.399200 -0.651439
v -0.023413 -0.406238 -0.651439
v -0.023413 -0.399200 -0.651439
v -0.029532 -0.406238 -0.643465
v -0.029532 -0.399200 -0.643465
v -0.023413 -0.406238 -0.651439
v -0.023413 -0.406238 -0.651439
v -0.023413 -0.399200 -0.651439
v -0.029532 -0.406238 -0.643465
v -0.029532 -0.399200 -0.643465
v -0.033378 -0.406238 -0.634179
v -0.033378 -0.399200 -0.634179
v -0.033378 -0.406238 -0.634179
v -0.033378 -0.399200 -0.634179
v -0.034690 -0.406238 -0.624214
v -0.034690 -0.399200 -0.624214
v -0.034690 -0.406238 -0.624214
v -0.034690 -0.399200 -0.624214
v -0.033378 -0.406238 -0.614249
v -0.033378 -0.399200 -0.614249
v -0.033378 -0.406238 -0.614249
v -0.033378 -0.399200 -0.614249
v -0.029532 -0.406238 -0.604963
v -0.029532 -0.399200 -0.604963
v -0.029532 -0.406238 -0.604963
v -0.029532 -0.399200 -0.604963
v -0.023413 -0.406238 -0.596989
v -0.023413 -0.399200 -0.596989
v -0.023413 -0.406238 -0.596989
v -0.023413 -0.399200 -0.596989
v -0.015439 -0.399200 -0.590870
v -0.015439 -0.406238 -0.590870
v -0.015439 -0.399200 -0.590870
v -0.015439 -0.406238 -0.590870
v -0.006153 -0.399200 -0.587024
v -0.006153 -0.406238 -0.587024
v -0.006153 -0.399200 -0.587024
v -0.006153 -0.406238 -0.587024
v 0.003812 -0.399200 -0.585712
v 0.003812 -0.406238 -0.585712
v 0.003812 -0.399200 -0.585712
v 0.003812 -0.406238 -0.585712
v 0.013777 -0.399200 -0.587024
v 0.013777 -0.406238 -0.587024
v 0.013777 -0.399200 -0.587024
v 0.013777 -0.406238 -0.587024
v 0.023063 -0.399200 -0.590870
v 0.023063 -0.406238 -0.590870
v 0.023063 -0.399200 -0.590870
v 0.023063 -0.406238 -0.590870
vt 0.01622979 0.01416667
vt 0.01615949 0.01470064
vt 0.01653571 0.01553444
vt 0.01610098 0.01610098
vt 0.01595338 0.01519823
vt 0.01562551 0.01562551
vt 0.01553444 0.01653571
vt 0.01519823 0.01595338
vt 0.01487468 0.01680899
vt 0.01470064 0.01615949
vt 0.01416667 0.01690221
vt 0.01416667 0.01622979
vt 0.01363269 0.01615949
vt 0.01345866 0.01680899
vt 0.01313511 0.01595338
vt 0.0127989 0.01653571
vt 0.01270782 0.01562551
vt 0.01237995 0.01519823
vt 0.01223235 0.01610098
vt 0.01217385 0.01470064
vt 0.01210355 0.01416667
vt 0.01179762 0.0127989
vt 0.01179762 0.01553444
vt 0.01152434 0.01487468
vt 0.01152434 0.01345866
vt 0.01143113 0.01416667
vt 0.01690221 0.01416667
vt 0.01680899 0.01345866
vt 0.01680899 0.01487468
vt 0.01653571 0.0127989
vt 0.01615949 0.01363269
vt 0.01610098 0.01223235
vt 0.01595338 0.01313511
vt 0.01562551 0.01270782
vt 0.01553444 0.01179762
vt 0.01519823 0.01237995
vt 0.01487468 0.01152434
vt 0.01470064 0.01217385
vt 0.01416667 0.01210355
vt 0.01416667 0.01143113
vt 0.01363269 0.01217385
vt 0.01345866 0.01152434
vt 0.01313511 0.01237995
vt 0.0127989 0.01179762
vt 0.01270782 0.01270782
vt 0.01237995 0.01313511
vt 0.01223235 0.01223235
vt 0.01217385 0.01363269
vt 0.02022035 0.008833333
vt 0.02022035 0.008333333
vt 0.01950623 0.008833333
vt 0.01950623 0.008333333
vt 0.0188667 0.008833333
vt 0.0188667 0.008333333
vt 0.01815258 0.008833333
vt 0.01815258 0.008333333
vt 0.01625165 0.008833333
vt 0.01625165 0.008333333
vt 0.01553753 0.008833333
vt 0.01553753 0.008333333
vt 0.01255341 0.008833333
vt 0.01255341 0.008333333
vt 0.01183929 0.008833333
vt 0.01183929 0.008333333
vt 0.008024004 0.008833333
vt 0.008024004 0.008333333
vt 0.007309885 0.008833333
vt 0.007309885 0.008333333
vt 0.002972111 0.008833333
vt 0.002972111 0.008333333
vt 0.002257993 0.008833333
vt 0.002257993 0.008333333
vt -0.002972111 0.008833333
vt -0.002257993 0.008833333
vt -0.002972111 0.008333333
vt -0.002257993 0.008333333
vt -0.008024004 0.008833333
vt -0.007309885 0.008833333
vt -0.008024004 0.008333333
vt -0.007309885 0.008333333
vt -0.01255341 0.008833333
vt -0.01183929 0.008833333
vt -0.01255341 0.008333333
vt -0.01183929 0.008333333
vt -0.01625165 0.008833333
vt -0.01553753 0.008833333
vt -0.01625165 0.008333333
vt -0.01553753 0.008333333
vt -0.0188667 0.008833333
vt -0.01815258 0.008833333
vt -0.0188667 0.008333333
vt -0.01815258 0.008333333
vt -0.02022035 0.008833333
vt -0.01950623 0.008833333
vt -0.02022035 0.008333333
vt -0.01950623 0.008333333
vn 0 1 0
vn 0.7933533393698233 0 0.608761430209528
vn 0.7071067811865476 0 0.7071067811865476
vn 0.9659258358036645 0 0.25881900959356163
vn 0.9238795391929066 0 0.38268341623423263
vn 1 0 0
vn 0.9659258358036645 0 -0.25881900959356163
vn 0.866025402838329 0 -0.5000000016387101
vn 0.7071067811865476 0 -0.7071067811865476
vn 0.5000000016387101 0 -0.866025402838329
vn 0.25881900959356163 0 -0.9659258358036645
vn 0 0 -1
vn -0.25881900959356163 0 -0.9659258358036645
vn -0.5000000016387101 0 -0.866025402838329
vn -0.608761430209528 0 -0.7933533393698233
vn -0.7933533393698233 0 -0.608761430209528
vn -0.866025402838329 0 -0.5000000016387101
vn -0.9659258358036645 0 -0.25881900959356163
vn -1 0 0
vn -0.9659258358036645 0 0.25881900959356163
vn -0.866025402838329 0 0.5000000016387101
vn -0.7071067811865476 0 0.7071067811865476
vn -0.5000000016387101 0 0.866025402838329
vn -0.25881900959356163 0 0.9659258358036645
vn 0 0 1
vn 0.25881900959356163 0 0.9659258358036645
vn 0.5000000016387101 0 0.866025402838329
vn 0 -1 0
vn -0.7071067811865476 0 -0.7071067811865476
vn -0.9238795391929066 0 -0.38268341623423263
vn 0.608761430209528 0 0.7933533393698233
vn 0.866025402838329 0 0.5000000016387101
usemtl material_0_0
f 49/1/28 50/2/28 51/3/28
f 51/3/28 50/2/28 52/4/28
f 50/2/28 53/5/28 52/4/28
f 53/5/28 54/6/28 52/4/28
f 52/4/28 54/6/28 55/7/28
f 54/6/28 56/8/28 55/7/28
f 55/7/28 56/8/28 57/9/28
f 56/8/28 58/10/28 57/9/28
f 57/9/28 58/10/28 59/11/28
f 58/10/28 60/12/28 59/11/28
f 60/12/28 61/13/28 59/11/28
f 59/11/28 61/13/28 62/14/28
f 61/13/28 63/15/28 62/14/28
f 62/14/28 63/15/28 64/16/28
f 63/15/28 65/17/28 64/16/28
f 65/17/28 66/18/28 64/16/28
f 64/16/28 66/18/28 67/19/28
f 66/18/28 68/20/28 67/19/28
f 68/20/28 69/21/28 67/19/28
f 69/21/28 70/22/28 67/19/28
f 67/19/28 70/22/28 71/23/28
f 71/23/28 70/22/28 72/24/28
f 70/22/28 73/25/28 72/24/28
f 74/26/28 72/24/28 73/25/28
f 75/27/28 76/28/28 77/29/28
f 76/28/28 78/30/28 77/29/28
f 77/29/28 78/30/28 51/3/28
f 51/3/28 78/30/28 49/1/28
f 49/1/28 78/30/28 79/31/28
f 78/30/28 80/32/28 79/31/28
f 79/31/28 80/32/28 81/33/28
f 81/33/28 80/32/28 82/34/28
f 80/32/28 83/35/28 82/34/28
f 82/34/28 83/35/28 84/36/28
f 83/35/28 85/37/28 84/36/28
f 84/36/28 85/37/28 86/38/28
f 86/38/28 85/37/28 87/39/28
f 85/37/28 88/40/28 87/39/28
f 87/39/28 88/40/28 89/41/28
f 88/40/28 90/42/28 89/41/28
f 89/41/28 90/42/28 91/43/28
f 90/42/28 92/44/28 91/43/28
f 91/43/28 92/44/28 93/45/28
f 93/45/28 92/44/28 94/46/28
f 92/44/28 95/47/28 94/46/28
f 94/46/28 95/47/28 96/48/28
f 96/48/28 95/47/28 69/21/28
f 70/22/28 69/21/28 95/47/28
f 101/49/16 102/50/16 103/51/29
f 104/52/29 103/51/29 102/50/16
f 109/53/18 110/54/18 111/55/30
f 112/56/30 111/55/30 110/54/18
f 115/57/19 116/58/19 109/59/18
f 110/60/18 109/59/18 116/58/19
f 119/61/20 120/62/20 115/63/19
f 116/64/19 115/63/19 120/62/20
f 123/65/21 124/66/21 119/67/20
f 120/68/20 119/67/20 124/66/21
f 127/69/22 128/70/22 123/71/21
f 124/72/21 123/71/21 128/70/22
f 127/73/22 131/74/23 128/75/22
f 132/76/23 128/75/22 131/74/23
f 131/77/23 135/78/24 132/79/23
f 136/80/24 132/79/23 135/78/24
f 135/81/24 139/82/25 136/83/24
f 140/84/25 136/83/24 139/82/25
f 139/85/25 143/86/26 140/87/25
f 144/88/26 140/87/25 143/86/26
f 143/89/26 147/90/27 144/91/26
f 148/92/27 144/91/26 147/90/27
f 147/93/27 151/94/31 148/95/27
f 152/96/31 148/95/27 151/94/31
f 157/95/2 158/93/2 159/96/32
f 160/94/32 159/96/32 158/93/2
f 159/91/32 160/89/32 163/92/4
f 164/90/4 163/92/4 160/89/32
f 163/87/4 164/85/4 167/88/6
f 168/86/6 167/88/6 164/85/4
f 167/83/6 168/81/6 171/84/7
f 172/82/7 171/84/7 168/81/6
f 171/79/7 172/77/7 175/80/8
f 176/78/8 175/80/8 172/77/7
f 175/75/8 176/73/8 179/76/9
f 180/74/9 179/76/9 176/73/8
f 180/71/9 183/69/10 179/72/9
f 184/70/10 179/72/9 183/69/10
f 183/67/10 187/65/11 184/68/10
f 188/66/11 184/68/10 187/65/11
f 187/63/11 191/61/12 188/64/11
f 192/62/12 188/64/11 191/61/12
f 191/59/12 195/57/13 192/60/12
f 196/58/13 192/60/12 195/57/13
f 195/55/13 199/53/14 196/56/13
f 200/54/14 196/56/13 199/53/14
f 199/51/14 103/49/29 200/52/14
f 104/50/29 200/52/14 103/49/29
usemtl material_1_0
f 1//1 2//1 3//1
f 2//1 1//1 4//1
f 4//1 1//1 5//1
f 5//1 1//1 6//1
f 5//1 6//1 7//1
f 7//1 6//1 8//1
f 8//1 6//1 9//1
f 8//1 9//1 10//1
f 10//1 9//1 11//1
f 10//1 11//1 12//1
f 12//1 11//1 13//1
f 12//1 13//1 14//1
f 14//1 13//1 15//1
f 15//1 13//1 16//1
f 15//1 16//1 17//1
f 17//1 16//1 18//1
f 17//1 18//1 19//1
f 19//1 18//1 20//1
f 20//1 18//1 21//1
f 20//1 21//1 22//1
f 22//1 21//1 23//1
f 23//1 21//1 24//1
f 24//1 21//1 25//1
f 24//1 25//1 26//1
f 27//1 28//1 29//1
f 28//1 27//1 3//1
f 28//1 3//1 30//1
f 30//1 3//1 31//1
f 31//1 3//1 2//1
f 31//1 2//1 32//1
f 31//1 32//1 33//1
f 31//1 33//1 34//1
f 34//1 33//1 35//1
f 34//1 35//1 36//1
f 34//1 36//1 37//1
f 37//1 36//1 38//1
f 37//1 38//1 39//1
f 39//1 38//1 40//1
f 39//1 40//1 41//1
f 39//1 41//1 42//1
f 42//1 41//1 43//1
f 42//1 43//1 44//1
f 44//1 43//1 45//1
f 44//1 45//1 46//1
f 46//1 45//1 47//1
f 46//1 47//1 48//1
f 46//1 48//1 23//1
f 23//1 48//1 22//1
f 97//2 98//3 99//3
f 98//3 97//2 100//2
f 105//4 106//5 107//5
f 106//5 105//4 108//4
f 113//6 108//4 105//4
f 108//4 113//6 114//6
f 117//7 114//6 113//6
f 114//6 117//7 118//7
f 121//8 118//7 117//7
f 118//7 121//8 122//8
f 125//9 122//8 121//8
f 122//8 125//9 126//9
f 129//10 125//9 130//10
f 125//9 129//10 126//9
f 133//11 130//10 134//11
f 130//10 133//11 129//10
f 137//12 134//11 138//12
f 134//11 137//12 133//11
f 141//13 138//12 142//13
f 138//12 141//13 137//12
f 145//14 142//13 146//14
f 142//13 145//14 141//13
f 149//15 146//14 150//15
f 146//14 149//15 145//14
f 153//16 154//17 155//17
f 154//17 153//16 156//16
f 155//17 161//18 162//18
f 161//18 155//17 154//17
f 162//18 165//19 166//19
f 165//19 162//18 161//18
f 166//19 169//20 170//20
f 169//20 166//19 165//19
f 170//20 173//21 174//21
f 173//21 170//20 169//20
f 174//21 177//22 178//22
f 177//22 174//21 173//21
f 181//23 177//22 182//23
f 177//22 181//23 178//22
f 185//24 182//23 186//24
f 182//23 185//24 181//23
f 189//25 186//24 190//25
f 186//24 189//25 185//24
f 193//26 190//25 194//26
f 190//25 193//26 189//25
f 197//27 194//26 198//27
f 194//26 197//27 193//26
f 98//3 198//27 99//3
f 198//27 98//3 197//27
