# SSTK version 0.8.0
# 22
mtllib original-22.mtl
o #ID126
v -0.179645 -0.406238 -0.673371
v -0.186117 0.508623 -0.624214
v -0.186117 -0.406238 -0.624214
v -0.179645 0.508623 -0.673371
v -0.179645 0.508623 -0.673371
v -0.179645 -0.406238 -0.673371
v -0.186117 0.508623 -0.624214
v -0.186117 -0.406238 -0.624214
v -0.179645 0.508623 -0.575057
v -0.179645 -0.406238 -0.575057
v -0.179645 0.508623 -0.575057
v -0.179645 -0.406238 -0.575057
v -0.160671 -0.406238 -0.719178
v -0.160671 0.508623 -0.719178
v -0.160671 0.508623 -0.719178
v -0.160671 -0.406238 -0.719178
v -0.160671 0.508623 -0.529250
v -0.160671 -0.406238 -0.529250
v -0.160671 0.508623 -0.529250
v -0.160671 -0.406238 -0.529250
v -0.130488 -0.406238 -0.758514
v -0.130488 0.508623 -0.758514
v -0.130488 0.508623 -0.758514
v -0.130488 -0.406238 -0.758514
v -0.130488 0.508623 -0.489914
v -0.130488 -0.406238 -0.489914
v -0.130488 0.508623 -0.489914
v -0.130488 -0.406238 -0.489914
v -0.091152 0.508623 -0.788697
v -0.091152 -0.406238 -0.788697
v -0.091152 0.508623 -0.788697
v -0.091152 -0.406238 -0.788697
v -0.091152 -0.406238 -0.459731
v -0.091152 0.508623 -0.459731
v -0.091152 0.508623 -0.459731
v -0.091152 -0.406238 -0.459731
v -0.045345 0.508623 -0.807671
v -0.045345 -0.406238 -0.807671
v -0.045345 0.508623 -0.807671
v -0.045345 -0.406238 -0.807671
v -0.045345 -0.406238 -0.440757
v -0.045345 0.508623 -0.440757
v -0.045345 0.508623 -0.440757
v -0.045345 -0.406238 -0.440757
v 0.003812 0.508623 -0.814142
v 0.003812 -0.406238 -0.814142
v 0.003812 0.508623 -0.814142
v 0.003812 -0.406238 -0.814142
v 0.003812 -0.406238 -0.434285
v 0.003812 0.508623 -0.434285
v 0.003812 0.508623 -0.434285
v 0.003812 -0.406238 -0.434285
v 0.052969 0.508623 -0.807671
v 0.052969 -0.406238 -0.807671
v 0.052969 0.508623 -0.807671
v 0.052969 -0.406238 -0.807671
v 0.052969 -0.406238 -0.440757
v 0.052969 0.508623 -0.440757
v 0.052969 0.508623 -0.440757
v 0.052969 -0.406238 -0.440757
v 0.098776 0.508623 -0.788697
v 0.098776 -0.406238 -0.788697
v 0.098776 0.508623 -0.788697
v 0.098776 -0.406238 -0.788697
v 0.098776 -0.406238 -0.459731
v 0.098776 0.508623 -0.459731
v 0.098776 0.508623 -0.459731
v 0.098776 -0.406238 -0.459731
v 0.138112 0.508623 -0.758514
v 0.138112 -0.406238 -0.758514
v 0.138112 0.508623 -0.758514
v 0.138112 -0.406238 -0.758514
v 0.138112 -0.406238 -0.489914
v 0.138112 0.508623 -0.489914
v 0.138112 0.508623 -0.489914
v 0.138112 -0.406238 -0.489914
v 0.168295 -0.406238 -0.719178
v 0.168295 0.508623 -0.719178
v 0.168295 -0.406238 -0.719178
v 0.168295 0.508623 -0.719178
v 0.168295 0.508623 -0.529250
v 0.168295 -0.406238 -0.529250
v 0.168295 -0.406238 -0.529250
v 0.168295 0.508623 -0.529250
v 0.187269 -0.406238 -0.673371
v 0.187269 0.508623 -0.673371
v 0.187269 -0.406238 -0.673371
v 0.187269 0.508623 -0.673371
v 0.187269 0.508623 -0.575057
v 0.169629 -0.406238 -0.532470
v 0.187269 -0.406238 -0.575057
v 0.187269 -0.406238 -0.575057
v 0.187269 0.508623 -0.575057
v 0.169629 -0.406238 -0.532470
v 0.193741 -0.406238 -0.624214
v 0.193741 0.508623 -0.624214
v 0.193741 -0.406238 -0.624214
v 0.193741 0.508623 -0.624214
vt 0.05288321 0.2196486
vt 0.05288321 0.02496006
vt 0.04233198 0.2196486
vt 0.04233198 0.02496006
vt 0.04180621 0.2196486
vt 0.04180621 0.02496006
vt 0.03125498 0.2196486
vt 0.03125498 0.02496006
vt 0.06071584 0.2196486
vt 0.06071584 0.02496006
vt 0.0501646 0.2196486
vt 0.0501646 0.02496006
vt 0.02823971 0.2196486
vt 0.02823971 0.02496006
vt 0.01768847 0.2196486
vt 0.01768847 0.02496006
vt 0.0647703 0.2196486
vt 0.0647703 0.02496006
vt 0.05421907 0.2196486
vt 0.05421907 0.02496006
vt 0.01310824 0.2196486
vt 0.01310824 0.02496006
vt 0.002557007 0.2196486
vt 0.002557007 0.02496006
vt -0.01310824 0.2196486
vt -0.002557007 0.2196486
vt -0.01310824 0.02496006
vt -0.002557007 0.02496006
vt -0.02823971 0.2196486
vt -0.01768847 0.2196486
vt -0.02823971 0.02496006
vt -0.01768847 0.02496006
vt -0.04180621 0.2196486
vt -0.03125498 0.2196486
vt -0.04180621 0.02496006
vt -0.03125498 0.02496006
vt -0.05288321 0.2196486
vt -0.04233198 0.2196486
vt -0.05288321 0.02496006
vt -0.04233198 0.02496006
vt -0.06071584 0.2196486
vt -0.0501646 0.2196486
vt -0.06071584 0.02496006
vt -0.0501646 0.02496006
vt -0.0647703 0.2196486
vt -0.05421907 0.2196486
vt -0.0647703 0.02496006
vt -0.05421907 0.02496006
vt -0.05090635 0.02496006
vn 0.9659258358036645 0 0.25881900959356163
vn 1 0 0
vn 0.9659258358036645 0 -0.25881900959356163
vn 0.866025402838329 0 0.5000000016387101
vn 0.866025402838329 0 -0.5000000016387101
vn 0.7071067811865476 0 0.7071067811865476
vn 0.7071067811865476 0 -0.7071067811865476
vn 0.5000000016387101 0 0.866025402838329
vn 0.5000000016387101 0 -0.866025402838329
vn 0.25881900959356163 0 0.9659258358036645
vn 0.25881900959356163 0 -0.9659258358036645
vn 0 0 1
vn 0 0 -1
vn -0.25881900959356163 0 0.9659258358036645
vn -0.25881900959356163 0 -0.9659258358036645
vn -0.5000000016387101 0 0.866025402838329
vn -0.5000000016387101 0 -0.866025402838329
vn -0.7071067811865476 0 0.7071067811865476
vn -0.7071067811865476 0 -0.7071067811865476
vn -0.866025402838329 0 0.5000000016387101
vn -0.866025402838329 0 -0.5000000016387101
vn -0.9659258358036645 0 0.25881900959356163
vn -0.9659258358036645 0 -0.25881900959356163
vn -0.9238795391929066 0 -0.38268341623423263
vn -1 0 0
vn 0.9238795391929066 0 0.38268341623423263
usemtl material_0_0
f 1//1 2//2 3//2
f 2//2 1//1 4//1
f 3//2 9//3 10//3
f 9//3 3//2 2//2
f 13//4 4//1 1//1
f 4//1 13//4 14//4
f 10//3 17//5 18//5
f 17//5 10//3 9//3
f 21//6 14//4 13//4
f 14//4 21//6 22//6
f 18//5 25//7 26//7
f 25//7 18//5 17//5
f 29//8 21//6 30//8
f 21//6 29//8 22//6
f 25//7 33//9 26//7
f 33//9 25//7 34//9
f 37//10 30//8 38//10
f 30//8 37//10 29//8
f 34//9 41//11 33//9
f 41//11 34//9 42//11
f 45//12 38//10 46//12
f 38//10 45//12 37//10
f 42//11 49//13 41//11
f 49//13 42//11 50//13
f 53//14 46//12 54//14
f 46//12 53//14 45//12
f 50//13 57//15 49//13
f 57//15 50//13 58//15
f 61//16 54//14 62//16
f 54//14 61//16 53//14
f 58//15 65//17 57//15
f 65//17 58//15 66//17
f 69//18 62//16 70//18
f 62//16 69//18 61//16
f 66//17 73//19 65//17
f 73//19 66//17 74//19
f 69//18 77//20 78//20
f 77//20 69//18 70//18
f 81//21 73//19 74//19
f 73//19 81//21 82//21
f 78//20 85//22 86//22
f 85//22 78//20 77//20
f 89//23 82//21 81//21
f 82//21 89//23 90//24
f 90//24 89//23 91//23
f 86//22 95//25 96//25
f 95//25 86//22 85//22
f 96//25 91//23 89//23
f 91//23 96//25 95//25
usemtl material_1_0
f 5/1/23 6/2/23 7/3/25
f 8/4/25 7/3/25 6/2/23
f 7/5/25 8/6/25 11/7/22
f 12/8/22 11/7/22 8/6/25
f 15/9/21 16/10/21 5/11/23
f 6/12/23 5/11/23 16/10/21
f 11/13/22 12/14/22 19/15/20
f 20/16/20 19/15/20 12/14/22
f 23/17/19 24/18/19 15/19/21
f 16/20/21 15/19/21 24/18/19
f 19/21/20 20/22/20 27/23/18
f 28/24/18 27/23/18 20/22/20
f 23/19/19 31/17/17 24/20/19
f 32/18/17 24/20/19 31/17/17
f 35/25/16 27/26/18 36/27/16
f 28/28/18 36/27/16 27/26/18
f 31/11/17 39/9/15 32/12/17
f 40/10/15 32/12/17 39/9/15
f 43/29/14 35/30/16 44/31/14
f 36/32/16 44/31/14 35/30/16
f 39/3/15 47/1/13 40/4/15
f 48/2/13 40/4/15 47/1/13
f 51/33/12 43/34/14 52/35/12
f 44/36/14 52/35/12 43/34/14
f 47/7/13 55/5/11 48/8/13
f 56/6/11 48/8/13 55/5/11
f 59/37/10 51/38/12 60/39/10
f 52/40/12 60/39/10 51/38/12
f 55/15/11 63/13/9 56/16/11
f 64/14/9 56/16/11 63/13/9
f 67/41/8 59/42/10 68/43/8
f 60/44/10 68/43/8 59/42/10
f 63/23/9 71/21/7 64/24/9
f 72/22/7 64/24/9 71/21/7
f 75/45/6 67/46/8 76/47/6
f 68/48/8 76/47/6 67/46/8
f 72/27/7 71/25/7 79/28/5
f 80/26/5 79/28/5 71/25/7
f 83/47/4 84/45/4 76/48/6
f 75/46/6 76/48/6 84/45/4
f 79/31/5 80/29/5 87/32/3
f 88/30/3 87/32/3 80/29/5
f 92/43/1 93/41/1 94/49/26
f 94/49/26 93/41/1 83/44/4
f 84/42/4 83/44/4 93/41/1
f 87/35/3 88/33/3 97/36/2
f 98/34/2 97/36/2 88/33/3
f 97/39/2 98/37/2 92/40/1
f 93/38/1 92/40/1 98/37/2
