# SSTK version 0.8.0
# 52
mtllib original-52.mtl
o #ID312
v -0.170950 -0.288948 0.696470
v -0.012608 -0.312406 0.696470
v -0.012608 -0.288948 0.696470
v -0.170950 -0.312406 0.696470
v -0.170950 -0.312406 0.696470
v -0.170950 -0.288948 0.696470
v -0.012608 -0.312406 0.696470
v -0.012608 -0.288948 0.696470
v -0.172771 -0.288948 0.696710
v -0.170950 -0.312406 0.696470
v -0.170950 -0.288948 0.696470
v -0.172771 -0.312406 0.696710
v -0.172771 -0.312406 0.696710
v -0.172771 -0.288948 0.696710
v -0.170950 -0.312406 0.696470
v -0.170950 -0.288948 0.696470
v -0.012608 -0.288948 0.696470
v -0.010787 -0.312406 0.696710
v -0.010787 -0.288948 0.696710
v -0.012608 -0.312406 0.696470
v -0.012608 -0.312406 0.696470
v -0.012608 -0.288948 0.696470
v -0.010787 -0.312406 0.696710
v -0.010787 -0.288948 0.696710
v -0.174468 -0.288948 0.697413
v -0.174468 -0.312406 0.697413
v -0.174468 -0.312406 0.697413
v -0.174468 -0.288948 0.697413
v -0.009090 -0.312406 0.697413
v -0.009090 -0.288948 0.697413
v -0.009090 -0.312406 0.697413
v -0.009090 -0.288948 0.697413
v -0.175926 -0.288948 0.698531
v -0.175926 -0.312406 0.698531
v -0.175926 -0.312406 0.698531
v -0.175926 -0.288948 0.698531
v -0.007632 -0.312406 0.698531
v -0.007632 -0.288948 0.698531
v -0.007632 -0.312406 0.698531
v -0.007632 -0.288948 0.698531
v -0.177044 -0.312406 0.699988
v -0.177044 -0.288948 0.699988
v -0.177044 -0.288948 0.699988
v -0.177044 -0.312406 0.699988
v -0.006514 -0.288948 0.699988
v -0.006514 -0.312406 0.699988
v -0.006514 -0.288948 0.699988
v -0.006514 -0.312406 0.699988
v -0.177747 -0.312406 0.701686
v -0.177747 -0.288948 0.701686
v -0.177747 -0.288948 0.701686
v -0.177747 -0.312406 0.701686
v -0.005811 -0.288948 0.701686
v -0.005811 -0.312406 0.701686
v -0.005811 -0.288948 0.701686
v -0.005811 -0.312406 0.701686
v -0.177987 -0.312406 0.703507
v -0.177987 -0.288948 0.703507
v -0.177987 -0.288948 0.703507
v -0.177987 -0.312406 0.703507
v -0.005571 -0.288948 0.703507
v -0.005571 -0.312406 0.703507
v -0.005571 -0.288948 0.703507
v -0.005571 -0.312406 0.703507
v -0.177747 -0.312406 0.705329
v -0.177747 -0.288948 0.705329
v -0.177747 -0.288948 0.705329
v -0.177747 -0.312406 0.705329
v -0.005811 -0.288948 0.705329
v -0.005811 -0.312406 0.705329
v -0.005811 -0.288948 0.705329
v -0.005811 -0.312406 0.705329
v -0.177044 -0.312406 0.707026
v -0.177044 -0.288948 0.707026
v -0.177044 -0.288948 0.707026
v -0.177044 -0.312406 0.707026
v -0.006514 -0.288948 0.707026
v -0.006514 -0.312406 0.707026
v -0.006514 -0.288948 0.707026
v -0.006514 -0.312406 0.707026
v -0.175926 -0.312406 0.708483
v -0.175926 -0.288948 0.708483
v -0.175926 -0.288948 0.708483
v -0.175926 -0.312406 0.708483
v -0.007632 -0.288948 0.708483
v -0.007632 -0.312406 0.708483
v -0.007632 -0.288948 0.708483
v -0.007632 -0.312406 0.708483
v -0.174468 -0.288948 0.709602
v -0.174468 -0.312406 0.709602
v -0.174468 -0.288948 0.709602
v -0.174468 -0.312406 0.709602
v -0.009090 -0.312406 0.709602
v -0.009090 -0.288948 0.709602
v -0.009090 -0.288948 0.709602
v -0.009090 -0.312406 0.709602
v -0.172771 -0.288948 0.710305
v -0.172771 -0.312406 0.710305
v -0.172771 -0.288948 0.710305
v -0.172771 -0.312406 0.710305
v -0.010787 -0.312406 0.710305
v -0.010787 -0.288948 0.710305
v -0.010787 -0.288948 0.710305
v -0.010787 -0.312406 0.710305
v -0.170950 -0.288948 0.710545
v -0.170950 -0.312406 0.710545
v -0.170950 -0.288948 0.710545
v -0.170950 -0.312406 0.710545
v -0.012608 -0.312406 0.710545
v -0.012608 -0.288948 0.710545
v -0.012608 -0.288948 0.710545
v -0.012608 -0.312406 0.710545
v -0.170950 -0.312406 0.710545
v -0.107613 -0.288948 0.710545
v -0.107613 -0.312406 0.710545
v -0.170950 -0.288948 0.710545
v -0.170950 -0.288948 0.710545
v -0.170950 -0.312406 0.710545
v -0.107613 -0.288948 0.710545
v -0.107613 -0.312406 0.710545
v -0.012608 -0.288948 0.710545
v -0.012608 -0.312406 0.710545
v -0.012608 -0.288948 0.710545
v -0.012608 -0.312406 0.710545
vn 0 0 1
vn 0 0 -1
vn 0.2588190095935621 0 0.9659258358036644
vn 0.13052619486885594 0 0.9914448610250886
vn -0.2588190095935621 0 -0.9659258358036644
vn -0.13052619486885594 0 -0.9914448610250886
vn -0.13052619486885506 0 0.9914448610250888
vn -0.2588190095935612 0 0.9659258358036646
vn 0.13052619486885506 0 -0.9914448610250888
vn 0.2588190095935612 0 -0.9659258358036646
vn 0.5000000016387104 0 0.8660254028383287
vn -0.5000000016387104 0 -0.8660254028383287
vn -0.5000000016387096 0 0.8660254028383292
vn 0.5000000016387096 0 -0.8660254028383292
vn 0.7071067811865479 0 0.7071067811865472
vn -0.7071067811865479 0 -0.7071067811865472
vn -0.7071067811865472 0 0.7071067811865479
vn 0.7071067811865472 0 -0.7071067811865479
vn 0.8660254028383292 0 0.5000000016387096
vn -0.8660254028383292 0 -0.5000000016387096
vn -0.8660254028383287 0 0.5000000016387104
vn 0.8660254028383287 0 -0.5000000016387104
vn 0.9659258358036646 0 0.2588190095935612
vn -0.9659258358036646 0 -0.2588190095935612
vn -0.9659258358036644 0 0.2588190095935621
vn 0.9659258358036644 0 -0.2588190095935621
vn 1 0 0
vn -1 0 0
usemtl material_0_0
f 1//1 2//1 3//1
f 2//1 1//1 4//1
f 5//2 6//2 7//2
f 8//2 7//2 6//2
f 9//3 10//4 11//4
f 10//4 9//3 12//3
f 13//5 14//5 15//6
f 16//6 15//6 14//5
f 17//7 18//8 19//8
f 18//8 17//7 20//7
f 21//9 22//9 23//10
f 24//10 23//10 22//9
f 25//11 12//3 9//3
f 12//3 25//11 26//11
f 27//12 28//12 13//5
f 14//5 13//5 28//12
f 19//8 29//13 30//13
f 29//13 19//8 18//8
f 23//10 24//10 31//14
f 32//14 31//14 24//10
f 33//15 26//11 25//11
f 26//11 33//15 34//15
f 35//16 36//16 27//12
f 28//12 27//12 36//16
f 30//13 37//17 38//17
f 37//17 30//13 29//13
f 31//14 32//14 39//18
f 40//18 39//18 32//14
f 33//15 41//19 34//15
f 41//19 33//15 42//19
f 43//20 36//16 44//20
f 35//16 44//20 36//16
f 45//21 37//17 46//21
f 37//17 45//21 38//17
f 40//18 47//22 39//18
f 48//22 39//18 47//22
f 42//19 49//23 41//19
f 49//23 42//19 50//23
f 51//24 43//20 52//24
f 44//20 52//24 43//20
f 53//25 46//21 54//25
f 46//21 53//25 45//21
f 47//22 55//26 48//22
f 56//26 48//22 55//26
f 50//23 57//27 49//23
f 57//27 50//23 58//27
f 59//28 51//24 60//28
f 52//24 60//28 51//24
f 61//28 54//25 62//28
f 54//25 61//28 53//25
f 55//26 63//27 56//26
f 64//27 56//26 63//27
f 58//27 65//26 57//27
f 65//26 58//27 66//26
f 67//25 59//28 68//25
f 60//28 68//25 59//28
f 69//24 62//28 70//24
f 62//28 69//24 61//28
f 63//27 71//23 64//27
f 72//23 64//27 71//23
f 66//26 73//22 65//26
f 73//22 66//26 74//22
f 75//21 67//25 76//21
f 68//25 76//21 67//25
f 77//20 70//24 78//20
f 70//24 77//20 69//24
f 71//23 79//19 72//23
f 80//19 72//23 79//19
f 74//22 81//18 73//22
f 81//18 74//22 82//18
f 83//17 75//21 84//17
f 76//21 84//17 75//21
f 85//16 78//20 86//16
f 78//20 85//16 77//20
f 79//19 87//15 80//19
f 88//15 80//19 87//15
f 81//18 89//14 90//14
f 89//14 81//18 82//18
f 83//17 84//17 91//13
f 92//13 91//13 84//17
f 93//12 85//16 86//16
f 85//16 93//12 94//12
f 95//11 96//11 87//15
f 88//15 87//15 96//11
f 90//14 97//10 98//10
f 97//10 90//14 89//14
f 91//13 92//13 99//8
f 100//8 99//8 92//13
f 101//5 94//12 93//12
f 94//12 101//5 102//5
f 103//3 104//3 95//11
f 96//11 95//11 104//3
f 98//10 105//9 106//9
f 105//9 98//10 97//10
f 99//8 100//8 107//7
f 108//7 107//7 100//8
f 109//6 102//5 101//5
f 102//5 109//6 110//6
f 111//4 112//4 103//3
f 104//3 103//3 112//4
f 113//2 114//2 115//2
f 114//2 113//2 116//2
f 117//1 118//1 119//1
f 120//1 119//1 118//1
f 115//2 121//2 122//2
f 121//2 115//2 114//2
f 119//1 120//1 123//1
f 124//1 123//1 120//1
