# SSTK version 0.8.0
# 27
mtllib original-27.mtl
o #ID170
v 0.096099 -0.396854 -0.563535
v 0.096681 -0.396854 -0.568357
v 0.096072 -0.396854 -0.565984
v 0.096759 -0.396854 -0.561176
v 0.097882 -0.396854 -0.570491
v 0.098006 -0.396854 -0.559068
v 0.099595 -0.396854 -0.572242
v 0.098868 -0.396854 -0.558225
v 0.099757 -0.396854 -0.557355
v 0.101703 -0.396854 -0.573490
v 0.101892 -0.396854 -0.556153
v 0.104062 -0.396854 -0.574149
v 0.104264 -0.396854 -0.555545
v 0.106512 -0.396854 -0.574176
v 0.106714 -0.396854 -0.555571
v 0.108032 -0.396854 -0.573786
v 0.109073 -0.396854 -0.556231
v 0.108884 -0.396854 -0.573568
v 0.111019 -0.396854 -0.572366
v 0.111181 -0.396854 -0.557479
v 0.112770 -0.396854 -0.570653
v 0.112894 -0.396854 -0.559230
v 0.114017 -0.396854 -0.568545
v 0.114095 -0.396854 -0.561364
v 0.114677 -0.396854 -0.566186
v 0.114704 -0.396854 -0.563737
v 0.114704 -0.396854 -0.563737
v 0.114095 -0.396854 -0.561364
v 0.114677 -0.396854 -0.566186
v 0.114017 -0.396854 -0.568545
v 0.112894 -0.396854 -0.559230
v 0.112770 -0.396854 -0.570653
v 0.111181 -0.396854 -0.557479
v 0.111019 -0.396854 -0.572366
v 0.109073 -0.396854 -0.556231
v 0.108884 -0.396854 -0.573568
v 0.108032 -0.396854 -0.573786
v 0.106714 -0.396854 -0.555571
v 0.106512 -0.396854 -0.574176
v 0.104264 -0.396854 -0.555545
v 0.104062 -0.396854 -0.574149
v 0.101892 -0.396854 -0.556153
v 0.101703 -0.396854 -0.573490
v 0.099757 -0.396854 -0.557355
v 0.099595 -0.396854 -0.572242
v 0.098868 -0.396854 -0.558225
v 0.098006 -0.396854 -0.559068
v 0.097882 -0.396854 -0.570491
v 0.096759 -0.396854 -0.561176
v 0.096681 -0.396854 -0.568357
v 0.096099 -0.396854 -0.563535
v 0.096072 -0.396854 -0.565984
v 0.098868 -0.396854 -0.558225
v 0.098006 -0.406238 -0.559068
v 0.098868 -0.406238 -0.558225
v 0.098006 -0.396854 -0.559068
v 0.098006 -0.396854 -0.559068
v 0.098868 -0.396854 -0.558225
v 0.098006 -0.406238 -0.559068
v 0.098868 -0.406238 -0.558225
v 0.099757 -0.406238 -0.557355
v 0.098868 -0.396854 -0.558225
v 0.098868 -0.406238 -0.558225
v 0.099757 -0.396854 -0.557355
v 0.099757 -0.396854 -0.557355
v 0.099757 -0.406238 -0.557355
v 0.098868 -0.396854 -0.558225
v 0.098868 -0.406238 -0.558225
v 0.101892 -0.396854 -0.556153
v 0.101892 -0.406238 -0.556153
v 0.101892 -0.396854 -0.556153
v 0.101892 -0.406238 -0.556153
v 0.104264 -0.396854 -0.555545
v 0.104264 -0.406238 -0.555545
v 0.104264 -0.396854 -0.555545
v 0.104264 -0.406238 -0.555545
v 0.106714 -0.396854 -0.555571
v 0.106714 -0.406238 -0.555571
v 0.106714 -0.396854 -0.555571
v 0.106714 -0.406238 -0.555571
v 0.109073 -0.396854 -0.556231
v 0.109073 -0.406238 -0.556231
v 0.109073 -0.396854 -0.556231
v 0.109073 -0.406238 -0.556231
v 0.111181 -0.396854 -0.557479
v 0.111181 -0.406238 -0.557479
v 0.111181 -0.396854 -0.557479
v 0.111181 -0.406238 -0.557479
v 0.112894 -0.406238 -0.559230
v 0.111181 -0.396854 -0.557479
v 0.111181 -0.406238 -0.557479
v 0.112894 -0.396854 -0.559230
v 0.112894 -0.396854 -0.559230
v 0.112894 -0.406238 -0.559230
v 0.111181 -0.396854 -0.557479
v 0.111181 -0.406238 -0.557479
v 0.114095 -0.406238 -0.561364
v 0.114095 -0.396854 -0.561364
v 0.114095 -0.396854 -0.561364
v 0.114095 -0.406238 -0.561364
v 0.114704 -0.406238 -0.563737
v 0.114704 -0.396854 -0.563737
v 0.114704 -0.396854 -0.563737
v 0.114704 -0.406238 -0.563737
v 0.114677 -0.406238 -0.566186
v 0.114677 -0.396854 -0.566186
v 0.114677 -0.396854 -0.566186
v 0.114677 -0.406238 -0.566186
v 0.114017 -0.406238 -0.568545
v 0.114017 -0.396854 -0.568545
v 0.114017 -0.396854 -0.568545
v 0.114017 -0.406238 -0.568545
v 0.112770 -0.406238 -0.570653
v 0.112770 -0.396854 -0.570653
v 0.112770 -0.396854 -0.570653
v 0.112770 -0.406238 -0.570653
v 0.111019 -0.396854 -0.572366
v 0.111019 -0.406238 -0.572366
v 0.111019 -0.396854 -0.572366
v 0.111019 -0.406238 -0.572366
v 0.108884 -0.396854 -0.573568
v 0.108884 -0.406238 -0.573568
v 0.108884 -0.396854 -0.573568
v 0.108884 -0.406238 -0.573568
v 0.108032 -0.396854 -0.573786
v 0.108032 -0.406238 -0.573786
v 0.108032 -0.396854 -0.573786
v 0.108032 -0.406238 -0.573786
v 0.106512 -0.406238 -0.574176
v 0.108032 -0.396854 -0.573786
v 0.108032 -0.406238 -0.573786
v 0.106512 -0.396854 -0.574176
v 0.106512 -0.396854 -0.574176
v 0.106512 -0.406238 -0.574176
v 0.108032 -0.396854 -0.573786
v 0.108032 -0.406238 -0.573786
v 0.104062 -0.396854 -0.574149
v 0.104062 -0.406238 -0.574149
v 0.104062 -0.396854 -0.574149
v 0.104062 -0.406238 -0.574149
v 0.101703 -0.396854 -0.573490
v 0.101703 -0.406238 -0.573490
v 0.101703 -0.396854 -0.573490
v 0.101703 -0.406238 -0.573490
v 0.099595 -0.396854 -0.572242
v 0.101703 -0.406238 -0.573490
v 0.099595 -0.406238 -0.572242
v 0.101703 -0.396854 -0.573490
v 0.101703 -0.396854 -0.573490
v 0.099595 -0.396854 -0.572242
v 0.101703 -0.406238 -0.573490
v 0.099595 -0.406238 -0.572242
v 0.097882 -0.406238 -0.570491
v 0.097882 -0.396854 -0.570491
v 0.097882 -0.406238 -0.570491
v 0.097882 -0.396854 -0.570491
v 0.096681 -0.406238 -0.568357
v 0.096681 -0.396854 -0.568357
v 0.096681 -0.406238 -0.568357
v 0.096681 -0.396854 -0.568357
v 0.096072 -0.406238 -0.565984
v 0.096072 -0.396854 -0.565984
v 0.096072 -0.406238 -0.565984
v 0.096072 -0.396854 -0.565984
v 0.096099 -0.406238 -0.563535
v 0.096099 -0.396854 -0.563535
v 0.096099 -0.406238 -0.563535
v 0.096099 -0.396854 -0.563535
v 0.096759 -0.406238 -0.561176
v 0.096759 -0.396854 -0.561176
v 0.096759 -0.406238 -0.561176
v 0.096759 -0.396854 -0.561176
vt 0.02204542 0.009869839
vt 0.0220022 0.009701254
vt 0.02204352 0.01004386
vt 0.02199665 0.01021147
vt 0.02191683 0.009549598
vt 0.021908 0.01036123
vt 0.02179511 0.009425206
vt 0.02178361 0.01048295
vt 0.02164535 0.009336555
vt 0.02163196 0.01056832
vt 0.02157137 0.01058385
vt 0.02147774 0.009289686
vt 0.02146337 0.01061153
vt 0.02130372 0.009287794
vt 0.02128935 0.01060964
vt 0.02113513 0.009331007
vt 0.02112174 0.01056277
vt 0.02098348 0.009416381
vt 0.02097198 0.01047412
vt 0.02092027 0.009478228
vt 0.02085909 0.009538097
vt 0.02085026 0.01034973
vt 0.02077044 0.00968786
vt 0.02076489 0.01019807
vt 0.02072357 0.009855465
vt 0.02072167 0.01002949
vt 0.008238384 0.009
vt 0.008323987 0.009
vt 0.008238384 0.008333333
vt 0.008323987 0.008333333
vt 0.008412419 0.009
vt 0.008412419 0.008333333
vt 0.01366599 0.009
vt 0.01384002 0.009
vt 0.01366599 0.008333333
vt 0.01384002 0.008333333
vt 0.01815634 0.009
vt 0.01833038 0.009
vt 0.01815634 0.008333333
vt 0.01833038 0.008333333
vt 0.02140345 0.009
vt 0.02157748 0.009
vt 0.02140345 0.008333333
vt 0.02157748 0.008333333
vt 0.02318601 0.009
vt 0.02336005 0.009
vt 0.02318601 0.008333333
vt 0.02336005 0.008333333
vt 0.02338256 0.009
vt 0.02355659 0.009
vt 0.02338256 0.008333333
vt 0.02355659 0.008333333
vt 0.02215372 0.009
vt 0.02215372 0.008333333
vt 0.02197969 0.009
vt 0.02197969 0.008333333
vt 0.01924705 0.009
vt 0.01924705 0.008333333
vt 0.01907301 0.009
vt 0.01907301 0.008333333
vt 0.01503464 0.009
vt 0.01503464 0.008333333
vt 0.01486061 0.009
vt 0.01486061 0.008333333
vt 0.009803587 0.009
vt 0.009803587 0.008333333
vt 0.009629552 0.009
vt 0.009629552 0.008333333
vt 0.003910361 0.009
vt 0.003910361 0.008333333
vt 0.003736326 0.009
vt 0.003736326 0.008333333
vt -0.002243419 0.009
vt -0.002243419 0.008333333
vt -0.002417454 0.009
vt -0.002417454 0.008333333
vt -0.008412419 0.009
vt -0.008238384 0.009
vt -0.008412419 0.008333333
vt -0.008238384 0.008333333
vt -0.01384002 0.009
vt -0.01366599 0.009
vt -0.01384002 0.008333333
vt -0.01366599 0.008333333
vt -0.01833038 0.009
vt -0.01826783 0.009
vt -0.01833038 0.008333333
vt -0.01826783 0.008333333
vt -0.01815634 0.009
vt -0.01815634 0.008333333
vt -0.02157748 0.009
vt -0.02140345 0.009
vt -0.02157748 0.008333333
vt -0.02140345 0.008333333
vt -0.02336005 0.009
vt -0.02318601 0.009
vt -0.02336005 0.008333333
vt -0.02318601 0.008333333
vt -0.02355659 0.009
vt -0.02338256 0.009
vt -0.02355659 0.008333333
vt -0.02338256 0.008333333
vt -0.02215372 0.008333333
vt -0.02215372 0.009
vt -0.02197969 0.008333333
vt -0.02197969 0.009
vt -0.01924705 0.008333333
vt -0.01924705 0.009
vt -0.01907301 0.008333333
vt -0.01907301 0.009
vt -0.01503464 0.008333333
vt -0.01503464 0.009
vt -0.01486061 0.008333333
vt -0.01486061 0.009
vt -0.009803587 0.008333333
vt -0.009803587 0.009
vt -0.009629552 0.008333333
vt -0.009629552 0.009
vt -0.003910361 0.008333333
vt -0.003910361 0.009
vt -0.003736326 0.008333333
vt -0.003736326 0.009
vt 0.002243419 0.008333333
vt 0.002243419 0.009
vt 0.002417454 0.008333333
vt 0.002417454 0.009
vn 0 1 0
vn -0.6993764809369207 0 0.7147534805177861
vn -0.7866872884065186 0 0.6173516909020326
vn -0.6000991953864374 0 0.799925593850172
vn -0.37261530141726096 0 0.9279859035296409
vn -0.11973829872376096 0 0.9928054894181132
vn 0.1412986031473586 0 0.9899670220510405
vn 0.39270631432928427 0 0.919663933557204
vn 0.5093869063914379 0 0.8605376107974365
vn 0.799925593850172 0 0.6000991953864374
vn 0.7147534805177861 0 0.6993764809369207
vn 0.9279859035296409 0 0.37261530141726096
vn 0.9928054894181132 0 0.11973829872376096
vn 0.9899670220510405 0 -0.1412986031473586
vn 0.919663933557204 0 -0.39270631432928427
vn 0.7866872884065186 0 -0.6173516909020326
vn 0.6000991953864374 0 -0.799925593850172
vn 0.37261530141726096 0 -0.9279859035296409
vn 0.24830110037076072 0 -0.9686829014464277
vn 0.11973829872376096 0 -0.9928054894181132
vn -0.1412986031473586 0 -0.9899670220510405
vn -0.26930641251585286 0 -0.9630545447573783
vn -0.6173516909020326 0 -0.7866872884065186
vn -0.5093869063914379 0 -0.8605376107974365
vn -0.799925593850172 0 -0.6000991953864374
vn -0.9279859035296409 0 -0.37261530141726096
vn -0.9928054894181132 0 -0.11973829872376096
vn -0.9899670220510405 0 0.1412986031473586
vn -0.919663933557204 0 0.39270631432928427
vn 0 -1 0
vn 0.6993764809369207 0 -0.7147534805177861
vn -0.39270631432928427 0 -0.919663933557204
vn -0.7147534805177861 0 -0.6993764809369207
vn -0.24830110037076072 0 0.9686829014464277
vn 0.26930641251585286 0 0.9630545447573783
vn 0.6173516909020326 0 0.7866872884065186
usemtl material_0_0
f 1//1 2//1 3//1
f 2//1 1//1 4//1
f 2//1 4//1 5//1
f 5//1 4//1 6//1
f 5//1 6//1 7//1
f 7//1 6//1 8//1
f 7//1 8//1 9//1
f 7//1 9//1 10//1
f 10//1 9//1 11//1
f 10//1 11//1 12//1
f 12//1 11//1 13//1
f 12//1 13//1 14//1
f 14//1 13//1 15//1
f 14//1 15//1 16//1
f 16//1 15//1 17//1
f 16//1 17//1 18//1
f 18//1 17//1 19//1
f 19//1 17//1 20//1
f 19//1 20//1 21//1
f 21//1 20//1 22//1
f 21//1 22//1 23//1
f 23//1 22//1 24//1
f 23//1 24//1 25//1
f 25//1 24//1 26//1
f 53//2 54//3 55//2
f 54//3 53//2 56//3
f 61//4 62//2 63//2
f 62//2 61//4 64//4
f 69//5 61//4 70//5
f 61//4 69//5 64//4
f 73//6 70//5 74//6
f 70//5 73//6 69//5
f 77//7 74//6 78//7
f 74//6 77//7 73//6
f 81//8 78//7 82//8
f 78//7 81//8 77//7
f 85//9 82//8 86//9
f 82//8 85//9 81//8
f 89//10 90//11 91//11
f 90//11 89//10 92//10
f 97//12 92//10 89//10
f 92//10 97//12 98//12
f 101//13 98//12 97//12
f 98//12 101//13 102//13
f 105//14 102//13 101//13
f 102//13 105//14 106//14
f 109//15 106//14 105//14
f 106//14 109//15 110//15
f 113//16 110//15 109//15
f 110//15 113//16 114//16
f 117//17 113//16 118//17
f 113//16 117//17 114//16
f 121//18 118//17 122//18
f 118//17 121//18 117//17
f 125//19 122//18 126//19
f 122//18 125//19 121//18
f 129//20 130//19 131//19
f 130//19 129//20 132//20
f 137//21 129//20 138//21
f 129//20 137//21 132//20
f 141//22 138//21 142//22
f 138//21 141//22 137//21
f 145//23 146//24 147//23
f 146//24 145//23 148//24
f 145//23 153//25 154//25
f 153//25 145//23 147//23
f 154//25 157//26 158//26
f 157//26 154//25 153//25
f 158//26 161//27 162//27
f 161//27 158//26 157//26
f 162//27 165//28 166//28
f 165//28 162//27 161//27
f 166//28 169//29 170//29
f 169//29 166//28 165//28
f 170//29 54//3 56//3
f 54//3 170//29 169//29
usemtl material_1_0
f 27/1/30 28/2/30 29/3/30
f 29/3/30 28/2/30 30/4/30
f 28/2/30 31/5/30 30/4/30
f 30/4/30 31/5/30 32/6/30
f 31/5/30 33/7/30 32/6/30
f 32/6/30 33/7/30 34/8/30
f 33/7/30 35/9/30 34/8/30
f 34/8/30 35/9/30 36/10/30
f 36/10/30 35/9/30 37/11/30
f 35/9/30 38/12/30 37/11/30
f 37/11/30 38/12/30 39/13/30
f 38/12/30 40/14/30 39/13/30
f 39/13/30 40/14/30 41/15/30
f 40/14/30 42/16/30 41/15/30
f 41/15/30 42/16/30 43/17/30
f 42/16/30 44/18/30 43/17/30
f 43/17/30 44/18/30 45/19/30
f 44/18/30 46/20/30 45/19/30
f 46/20/30 47/21/30 45/19/30
f 45/19/30 47/21/30 48/22/30
f 47/21/30 49/23/30 48/22/30
f 48/22/30 49/23/30 50/24/30
f 49/23/30 51/25/30 50/24/30
f 52/26/30 50/24/30 51/25/30
f 57/27/16 58/28/31 59/29/16
f 60/30/31 59/29/16 58/28/31
f 65/31/17 66/32/17 67/28/31
f 68/30/31 67/28/31 66/32/17
f 65/33/17 71/34/18 66/35/17
f 72/36/18 66/35/17 71/34/18
f 71/37/18 75/38/20 72/39/18
f 76/40/20 72/39/18 75/38/20
f 75/41/20 79/42/21 76/43/20
f 80/44/21 76/43/20 79/42/21
f 79/45/21 83/46/32 80/47/21
f 84/48/32 80/47/21 83/46/32
f 83/49/32 87/50/24 84/51/32
f 88/52/24 84/51/32 87/50/24
f 93/53/25 94/54/25 95/55/33
f 96/56/33 95/55/33 94/54/25
f 99/57/26 100/58/26 93/59/25
f 94/60/25 93/59/25 100/58/26
f 103/61/27 104/62/27 99/63/26
f 100/64/26 99/63/26 104/62/27
f 107/65/28 108/66/28 103/67/27
f 104/68/27 103/67/27 108/66/28
f 111/69/29 112/70/29 107/71/28
f 108/72/28 107/71/28 112/70/29
f 115/73/3 116/74/3 111/75/29
f 112/76/29 111/75/29 116/74/3
f 115/77/3 119/78/4 116/79/3
f 120/80/4 116/79/3 119/78/4
f 119/81/4 123/82/5 120/83/4
f 124/84/5 120/83/4 123/82/5
f 123/85/5 127/86/34 124/87/5
f 128/88/34 124/87/5 127/86/34
f 133/89/6 134/90/6 135/86/34
f 136/88/34 135/86/34 134/90/6
f 133/91/6 139/92/7 134/93/6
f 140/94/7 134/93/6 139/92/7
f 139/95/7 143/96/35 140/97/7
f 144/98/35 140/97/7 143/96/35
f 149/99/9 150/100/36 151/101/9
f 152/102/36 151/101/9 150/100/36
f 152/103/36 150/104/36 155/105/10
f 156/106/10 155/105/10 150/104/36
f 155/107/10 156/108/10 159/109/12
f 160/110/12 159/109/12 156/108/10
f 159/111/12 160/112/12 163/113/13
f 164/114/13 163/113/13 160/112/12
f 163/115/13 164/116/13 167/117/14
f 168/118/14 167/117/14 164/116/13
f 167/119/14 168/120/14 171/121/15
f 172/122/15 171/121/15 168/120/14
f 171/123/15 172/124/15 59/125/16
f 57/126/16 59/125/16 172/124/15
