# SSTK version 0.8.0
# 8
mtllib original-8.mtl
o #ID34
v -0.013138 0.535986 0.569534
v -0.013108 0.534493 0.569534
v -0.013312 0.535500 0.569534
v -0.012616 0.536136 0.569534
v -0.011512 0.534493 0.569534
v -0.006834 0.536136 0.569534
v -0.011452 0.529443 0.569534
v -0.007674 0.533713 0.569534
v -0.007734 0.529431 0.569534
v -0.007734 0.527632 0.569534
v -0.006463 0.533833 0.569534
v -0.002942 0.535856 0.569534
v -0.004962 0.533620 0.569534
v -0.003914 0.532982 0.569534
v -0.003297 0.531956 0.569534
v -0.003092 0.530583 0.569534
v -0.006679 0.527632 0.569534
v -0.007734 0.525677 0.569534
v -0.007158 0.525677 0.569534
v -0.005153 0.525771 0.569534
v -0.005076 0.527797 0.569534
v -0.003443 0.526053 0.569534
v -0.003962 0.528292 0.569534
v -0.003309 0.529194 0.569534
v -0.002028 0.526524 0.569534
v -0.001567 0.535505 0.569534
v -0.000909 0.527182 0.569534
v -0.000573 0.535015 0.569534
v -0.000059 0.528006 0.569534
v 0.000130 0.534364 0.569534
v 0.000548 0.528971 0.569534
v 0.000632 0.533532 0.569534
v 0.000913 0.530078 0.569534
v 0.000934 0.532519 0.569534
v 0.001034 0.531326 0.569534
v -0.013156 0.521257 0.569534
v -0.013120 0.519763 0.569534
v -0.013336 0.520783 0.569534
v -0.012628 0.521407 0.569534
v -0.006163 0.519763 0.569534
v -0.011512 0.521407 0.569534
v -0.007674 0.521407 0.569534
v -0.005707 0.521407 0.569534
v -0.005659 0.519931 0.569534
v -0.005503 0.520519 0.569534
v -0.011512 0.534493 0.571334
v -0.013108 0.534493 0.569534
v -0.011512 0.534493 0.569534
v -0.013108 0.534493 0.571334
v -0.013108 0.534493 0.571334
v -0.013312 0.535500 0.569534
v -0.013108 0.534493 0.569534
v -0.013312 0.535500 0.571334
v -0.013138 0.535986 0.571334
v -0.013312 0.535500 0.569534
v -0.013312 0.535500 0.571334
v -0.013138 0.535986 0.569534
v -0.013138 0.535986 0.571334
v -0.012616 0.536136 0.569534
v -0.013138 0.535986 0.569534
v -0.012616 0.536136 0.571334
v -0.012616 0.536136 0.571334
v -0.006834 0.536136 0.569534
v -0.012616 0.536136 0.569534
v -0.006834 0.536136 0.571334
v -0.002942 0.535856 0.571334
v -0.002942 0.535856 0.569534
v -0.002942 0.535856 0.571334
v -0.001567 0.535505 0.569534
v -0.002942 0.535856 0.569534
v -0.001567 0.535505 0.571334
v -0.001567 0.535505 0.571334
v -0.000573 0.535015 0.569534
v -0.001567 0.535505 0.569534
v -0.000573 0.535015 0.571334
v -0.000573 0.535015 0.571334
v 0.000130 0.534364 0.569534
v -0.000573 0.535015 0.569534
v 0.000130 0.534364 0.571334
v 0.000130 0.534364 0.569534
v 0.000632 0.533532 0.571334
v 0.000632 0.533532 0.569534
v 0.000130 0.534364 0.571334
v 0.000632 0.533532 0.569534
v 0.000934 0.532519 0.571334
v 0.000934 0.532519 0.569534
v 0.000632 0.533532 0.571334
v 0.000934 0.532519 0.569534
v 0.001034 0.531326 0.571334
v 0.001034 0.531326 0.569534
v 0.000934 0.532519 0.571334
v 0.001034 0.531326 0.569534
v 0.000913 0.530078 0.571334
v 0.000913 0.530078 0.569534
v 0.001034 0.531326 0.571334
v 0.000913 0.530078 0.569534
v 0.000548 0.528971 0.571334
v 0.000548 0.528971 0.569534
v 0.000913 0.530078 0.571334
v 0.000548 0.528971 0.569534
v -0.000059 0.528006 0.571334
v -0.000059 0.528006 0.569534
v 0.000548 0.528971 0.571334
v -0.000059 0.528006 0.571334
v -0.000909 0.527182 0.569534
v -0.000059 0.528006 0.569534
v -0.000909 0.527182 0.571334
v -0.000909 0.527182 0.571334
v -0.002028 0.526524 0.569534
v -0.000909 0.527182 0.569534
v -0.002028 0.526524 0.571334
v -0.002028 0.526524 0.571334
v -0.003443 0.526053 0.569534
v -0.002028 0.526524 0.569534
v -0.003443 0.526053 0.571334
v -0.003443 0.526053 0.571334
v -0.005153 0.525771 0.569534
v -0.003443 0.526053 0.569534
v -0.005153 0.525771 0.571334
v -0.005153 0.525771 0.571334
v -0.007158 0.525677 0.569534
v -0.005153 0.525771 0.569534
v -0.007158 0.525677 0.571334
v -0.007158 0.525677 0.571334
v -0.007734 0.525677 0.569534
v -0.007158 0.525677 0.569534
v -0.007734 0.525677 0.571334
v -0.007734 0.525677 0.569534
v -0.007674 0.521407 0.571334
v -0.007674 0.521407 0.569534
v -0.007734 0.525677 0.571334
v -0.007674 0.521407 0.569534
v -0.005707 0.521407 0.571334
v -0.005707 0.521407 0.569534
v -0.007674 0.521407 0.571334
v -0.005707 0.521407 0.569534
v -0.005503 0.520519 0.571334
v -0.005503 0.520519 0.569534
v -0.005707 0.521407 0.571334
v -0.005503 0.520519 0.569534
v -0.005659 0.519931 0.571334
v -0.005659 0.519931 0.569534
v -0.005503 0.520519 0.571334
v -0.005659 0.519931 0.571334
v -0.006163 0.519763 0.569534
v -0.005659 0.519931 0.569534
v -0.006163 0.519763 0.571334
v -0.006163 0.519763 0.571334
v -0.013120 0.519763 0.569534
v -0.006163 0.519763 0.569534
v -0.013120 0.519763 0.571334
v -0.013120 0.519763 0.571334
v -0.013336 0.520783 0.569534
v -0.013120 0.519763 0.569534
v -0.013336 0.520783 0.571334
v -0.013156 0.521257 0.571334
v -0.013336 0.520783 0.569534
v -0.013336 0.520783 0.571334
v -0.013156 0.521257 0.569534
v -0.013156 0.521257 0.571334
v -0.012628 0.521407 0.569534
v -0.013156 0.521257 0.569534
v -0.012628 0.521407 0.571334
v -0.012628 0.521407 0.571334
v -0.011512 0.521407 0.569534
v -0.012628 0.521407 0.569534
v -0.011512 0.521407 0.571334
v -0.011512 0.521407 0.571334
v -0.011452 0.529443 0.569534
v -0.011512 0.521407 0.569534
v -0.011452 0.529443 0.571334
v -0.011512 0.534493 0.569534
v -0.011512 0.534493 0.571334
v -0.013120 0.519763 0.571334
v -0.013156 0.521257 0.571334
v -0.013336 0.520783 0.571334
v -0.012628 0.521407 0.571334
v -0.006163 0.519763 0.571334
v -0.011512 0.521407 0.571334
v -0.007674 0.521407 0.571334
v -0.011452 0.529443 0.571334
v -0.007734 0.525677 0.571334
v -0.007734 0.529431 0.571334
v -0.005707 0.521407 0.571334
v -0.005659 0.519931 0.571334
v -0.005503 0.520519 0.571334
v -0.007734 0.527632 0.571334
v -0.007158 0.525677 0.571334
v -0.006679 0.527632 0.571334
v -0.005153 0.525771 0.571334
v -0.005076 0.527797 0.571334
v -0.003443 0.526053 0.571334
v -0.003962 0.528292 0.571334
v -0.003309 0.529194 0.571334
v -0.002028 0.526524 0.571334
v -0.003092 0.530583 0.571334
v -0.002942 0.535856 0.571334
v -0.001567 0.535505 0.571334
v -0.000909 0.527182 0.571334
v -0.000573 0.535015 0.571334
v -0.000059 0.528006 0.571334
v 0.000130 0.534364 0.571334
v 0.000548 0.528971 0.571334
v 0.000632 0.533532 0.571334
v 0.000913 0.530078 0.571334
v 0.000934 0.532519 0.571334
v 0.001034 0.531326 0.571334
v -0.013108 0.534493 0.571334
v -0.013138 0.535986 0.571334
v -0.013312 0.535500 0.571334
v -0.012616 0.536136 0.571334
v -0.011512 0.534493 0.571334
v -0.006834 0.536136 0.571334
v -0.007674 0.533713 0.571334
v -0.006463 0.533833 0.571334
v -0.004962 0.533620 0.571334
v -0.003914 0.532982 0.571334
v -0.003297 0.531956 0.571334
vn 0 0 -1
vn 0 -1 0
vn -0.980129331384357 -0.19835950635160743 0
vn -0.9414786622352006 0.3370725864792583 0
vn -0.27617988889757805 0.9611059613635332 0
vn 0 1 0
vn 0.03594690004809833 0.9993537013374855 0
vn 0.07184733294747224 0.9974156409182358 0
vn 0.2470090904583925 0.9690131625684543 0
vn 0.4426102074617674 0.8967141151173272 0
vn 0.6793993292344844 0.7337687315740107 0
vn 0.8560253123227783 0.5169339074414541 0
vn 0.9584395778468547 0.285295593405757 0
vn 0.9964742087013303 0.0838996507326329 0
vn 0.9953028507968544 -0.09681030521413733 0
vn 0.9498669467548447 -0.3126544153896264 0
vn 0.8464244027531834 -0.5325089017320901 0
vn 0.6957741906425411 -0.7182605903401056 0
vn 0.507134778113777 -0.8618667628047215 0
vn 0.3155493852188889 -0.9489091555507204 0
vn 0.1628550995036279 -0.9866499969926839 0
vn 0.04686384935379356 -0.9989012862258938 0
vn 0.9999013843518264 0.014043559780233477 0
vn 0.9746126973161383 0.22389749938344872 0
vn 0.9665615603909633 -0.25643468949146886 0
vn 0.31622779601684803 -0.9486832880505098 0
vn -0.9783048745639882 -0.2071703946135632 0
vn -0.9348621536913734 0.35501092038911575 0
vn -0.2732770880909276 0.9619353580800237 0
vn -0.9999721553184124 0.007462478666544108 0
vn -0.9999975652634472 -0.0022066869233583297 0
vn -0.9999294819846842 -0.011875649786052546 0
vn 0 0 1
usemtl material_0_0
f 1//1 2//1 3//1
f 2//1 1//1 4//1
f 2//1 4//1 5//1
f 5//1 4//1 6//1
f 5//1 6//1 7//1
f 7//1 6//1 8//1
f 7//1 8//1 9//1
f 7//1 9//1 10//1
f 8//1 6//1 11//1
f 11//1 6//1 12//1
f 11//1 12//1 13//1
f 13//1 12//1 14//1
f 14//1 12//1 15//1
f 15//1 12//1 16//1
f 17//1 18//1 10//1
f 18//1 17//1 19//1
f 19//1 17//1 20//1
f 20//1 17//1 21//1
f 20//1 21//1 22//1
f 22//1 21//1 23//1
f 22//1 23//1 24//1
f 22//1 24//1 25//1
f 25//1 24//1 16//1
f 25//1 16//1 12//1
f 25//1 12//1 26//1
f 25//1 26//1 27//1
f 27//1 26//1 28//1
f 27//1 28//1 29//1
f 29//1 28//1 30//1
f 29//1 30//1 31//1
f 31//1 30//1 32//1
f 31//1 32//1 33//1
f 33//1 32//1 34//1
f 33//1 34//1 35//1
f 36//1 37//1 38//1
f 37//1 36//1 39//1
f 37//1 39//1 40//1
f 40//1 39//1 41//1
f 40//1 41//1 42//1
f 42//1 41//1 7//1
f 42//1 7//1 18//1
f 18//1 7//1 10//1
f 40//1 42//1 43//1
f 40//1 43//1 44//1
f 44//1 43//1 45//1
f 46//2 47//2 48//2
f 47//2 46//2 49//2
f 50//3 51//3 52//3
f 51//3 50//3 53//3
f 54//4 55//4 56//4
f 55//4 54//4 57//4
f 58//5 59//5 60//5
f 59//5 58//5 61//5
f 62//6 63//7 64//6
f 63//7 62//6 65//7
f 63//7 66//8 67//8
f 66//8 63//7 65//7
f 68//9 69//9 70//9
f 69//9 68//9 71//9
f 72//10 73//10 74//10
f 73//10 72//10 75//10
f 76//11 77//11 78//11
f 77//11 76//11 79//11
f 80//12 81//12 82//12
f 81//12 80//12 83//12
f 84//13 85//13 86//13
f 85//13 84//13 87//13
f 88//14 89//14 90//14
f 89//14 88//14 91//14
f 92//15 93//15 94//15
f 93//15 92//15 95//15
f 96//16 97//16 98//16
f 97//16 96//16 99//16
f 100//17 101//17 102//17
f 101//17 100//17 103//17
f 104//18 105//18 106//18
f 105//18 104//18 107//18
f 108//19 109//19 110//19
f 109//19 108//19 111//19
f 112//20 113//20 114//20
f 113//20 112//20 115//20
f 116//21 117//21 118//21
f 117//21 116//21 119//21
f 120//22 121//22 122//22
f 121//22 120//22 123//22
f 124//2 125//2 126//2
f 125//2 124//2 127//2
f 128//23 129//23 130//23
f 129//23 128//23 131//23
f 132//6 133//6 134//6
f 133//6 132//6 135//6
f 136//24 137//24 138//24
f 137//24 136//24 139//24
f 140//25 141//25 142//25
f 141//25 140//25 143//25
f 144//26 145//26 146//26
f 145//26 144//26 147//26
f 148//2 149//2 150//2
f 149//2 148//2 151//2
f 152//27 153//27 154//27
f 153//27 152//27 155//27
f 156//28 157//28 158//28
f 157//28 156//28 159//28
f 160//29 161//29 162//29
f 161//29 160//29 163//29
f 164//6 165//6 166//6
f 165//6 164//6 167//6
f 168//30 169//31 170//30
f 169//31 168//30 171//31
f 171//31 172//32 169//31
f 172//32 171//31 173//32
f 174//33 175//33 176//33
f 175//33 174//33 177//33
f 177//33 174//33 178//33
f 177//33 178//33 179//33
f 179//33 178//33 180//33
f 179//33 180//33 181//33
f 181//33 180//33 182//33
f 181//33 182//33 183//33
f 180//33 178//33 184//33
f 184//33 178//33 185//33
f 184//33 185//33 186//33
f 182//33 187//33 183//33
f 187//33 182//33 188//33
f 187//33 188//33 189//33
f 189//33 188//33 190//33
f 189//33 190//33 191//33
f 191//33 190//33 192//33
f 191//33 192//33 193//33
f 193//33 192//33 194//33
f 194//33 192//33 195//33
f 194//33 195//33 196//33
f 196//33 195//33 197//33
f 197//33 195//33 198//33
f 198//33 195//33 199//33
f 198//33 199//33 200//33
f 200//33 199//33 201//33
f 200//33 201//33 202//33
f 202//33 201//33 203//33
f 202//33 203//33 204//33
f 204//33 203//33 205//33
f 204//33 205//33 206//33
f 206//33 205//33 207//33
f 208//33 209//33 210//33
f 209//33 208//33 211//33
f 211//33 208//33 212//33
f 211//33 212//33 213//33
f 213//33 212//33 181//33
f 213//33 181//33 214//33
f 214//33 181//33 183//33
f 213//33 214//33 215//33
f 213//33 215//33 197//33
f 197//33 215//33 216//33
f 197//33 216//33 217//33
f 197//33 217//33 218//33
f 197//33 218//33 196//33
