# SSTK version 0.8.0
# 33
mtllib original-33.mtl
o #ID206
v -0.165932 0.485165 -0.669697
v -0.165932 0.485165 -0.578731
v -0.171920 0.485165 -0.624214
v -0.148377 0.485165 -0.712080
v -0.148377 0.485165 -0.536348
v -0.120449 0.485165 -0.748475
v -0.120449 0.485165 -0.499952
v -0.084054 0.485165 -0.776402
v -0.084054 0.485165 -0.472025
v -0.041671 0.485165 -0.793958
v -0.041671 0.485165 -0.454469
v 0.003812 0.485165 -0.799946
v 0.003812 0.485165 -0.448481
v 0.049295 0.485165 -0.793958
v 0.049295 0.485165 -0.454469
v 0.091678 0.485165 -0.776402
v 0.091678 0.485165 -0.472025
v 0.128074 0.485165 -0.748475
v 0.128074 0.485165 -0.499952
v 0.156001 0.485165 -0.712080
v 0.156001 0.485165 -0.536348
v 0.173556 0.485165 -0.669697
v 0.173556 0.485165 -0.578731
v 0.179544 0.485165 -0.624214
v 0.179544 0.485165 -0.624214
v 0.173556 0.485165 -0.669697
v 0.173556 0.485165 -0.578731
v 0.156001 0.485165 -0.536348
v 0.156001 0.485165 -0.712080
v 0.128074 0.485165 -0.499952
v 0.128074 0.485165 -0.748475
v 0.091678 0.485165 -0.472025
v 0.091678 0.485165 -0.776402
v 0.049295 0.485165 -0.454469
v 0.049295 0.485165 -0.793958
v 0.003812 0.485165 -0.448481
v 0.003812 0.485165 -0.799946
v -0.041671 0.485165 -0.454469
v -0.041671 0.485165 -0.793958
v -0.084054 0.485165 -0.472025
v -0.084054 0.485165 -0.776402
v -0.120449 0.485165 -0.499952
v -0.120449 0.485165 -0.748475
v -0.148377 0.485165 -0.536348
v -0.148377 0.485165 -0.712080
v -0.165932 0.485165 -0.578731
v -0.165932 0.485165 -0.669697
v -0.171920 0.485165 -0.624214
v -0.041671 0.508623 -0.793958
v 0.003812 0.485165 -0.799946
v -0.041671 0.485165 -0.793958
v 0.003812 0.508623 -0.799946
v 0.003812 0.508623 -0.799946
v -0.041671 0.508623 -0.793958
v 0.003812 0.485165 -0.799946
v -0.041671 0.485165 -0.793958
v 0.049295 0.485165 -0.793958
v 0.049295 0.508623 -0.793958
v 0.049295 0.508623 -0.793958
v 0.049295 0.485165 -0.793958
v 0.091678 0.485165 -0.776402
v 0.091678 0.508623 -0.776402
v 0.091678 0.508623 -0.776402
v 0.091678 0.485165 -0.776402
v 0.128074 0.485165 -0.748475
v 0.128074 0.508623 -0.748475
v 0.128074 0.508623 -0.748475
v 0.128074 0.485165 -0.748475
v 0.156001 0.508623 -0.712080
v 0.156001 0.485165 -0.712080
v 0.156001 0.508623 -0.712080
v 0.156001 0.485165 -0.712080
v 0.173556 0.508623 -0.669697
v 0.173556 0.485165 -0.669697
v 0.173556 0.508623 -0.669697
v 0.173556 0.485165 -0.669697
v 0.179544 0.508623 -0.624214
v 0.179544 0.485165 -0.624214
v 0.179544 0.508623 -0.624214
v 0.179544 0.485165 -0.624214
v 0.173556 0.508623 -0.578731
v 0.173556 0.485165 -0.578731
v 0.173556 0.508623 -0.578731
v 0.173556 0.485165 -0.578731
v 0.156001 0.508623 -0.536348
v 0.156001 0.485165 -0.536348
v 0.156001 0.508623 -0.536348
v 0.156001 0.485165 -0.536348
v 0.128074 0.508623 -0.499952
v 0.128074 0.485165 -0.499952
v 0.128074 0.508623 -0.499952
v 0.128074 0.485165 -0.499952
v 0.091678 0.485165 -0.472025
v 0.091678 0.508623 -0.472025
v 0.091678 0.508623 -0.472025
v 0.091678 0.485165 -0.472025
v 0.049295 0.485165 -0.454469
v 0.049295 0.508623 -0.454469
v 0.049295 0.508623 -0.454469
v 0.049295 0.485165 -0.454469
v 0.003812 0.485165 -0.448481
v 0.003812 0.508623 -0.448481
v 0.003812 0.508623 -0.448481
v 0.003812 0.485165 -0.448481
v -0.041671 0.485165 -0.454469
v -0.041671 0.508623 -0.454469
v -0.041671 0.508623 -0.454469
v -0.041671 0.485165 -0.454469
v -0.084054 0.485165 -0.472025
v -0.084054 0.508623 -0.472025
v -0.084054 0.508623 -0.472025
v -0.084054 0.485165 -0.472025
v -0.120449 0.485165 -0.499952
v -0.120449 0.508623 -0.499952
v -0.120449 0.508623 -0.499952
v -0.120449 0.485165 -0.499952
v -0.148377 0.508623 -0.536348
v -0.148377 0.485165 -0.536348
v -0.148377 0.485165 -0.536348
v -0.148377 0.508623 -0.536348
v -0.165932 0.508623 -0.578731
v -0.165932 0.485165 -0.578731
v -0.165932 0.485165 -0.578731
v -0.165932 0.508623 -0.578731
v -0.171920 0.508623 -0.624214
v -0.171920 0.485165 -0.624214
v -0.171920 0.485165 -0.624214
v -0.171920 0.508623 -0.624214
v -0.165932 0.508623 -0.669697
v -0.165932 0.485165 -0.669697
v -0.165932 0.485165 -0.669697
v -0.165932 0.508623 -0.669697
v -0.148377 0.508623 -0.712080
v -0.148377 0.485165 -0.712080
v -0.148377 0.485165 -0.712080
v -0.148377 0.508623 -0.712080
v -0.120449 0.508623 -0.748475
v -0.120449 0.485165 -0.748475
v -0.120449 0.485165 -0.748475
v -0.120449 0.508623 -0.748475
v -0.084054 0.485165 -0.776402
v -0.084054 0.508623 -0.776402
v -0.084054 0.508623 -0.776402
v -0.084054 0.485165 -0.776402
vn 0 -1 0
vn 0 1 0
vn -0.25881900959356163 0 -0.9659258358036645
vn 0 0 -1
vn 0 0 1
vn 0.25881900959356163 0 0.9659258358036645
vn 0.25881900959356163 0 -0.9659258358036645
vn -0.25881900959356163 0 0.9659258358036645
vn 0.5000000016387101 0 -0.866025402838329
vn -0.5000000016387101 0 0.866025402838329
vn 0.7071067811865476 0 -0.7071067811865476
vn -0.7071067811865476 0 0.7071067811865476
vn 0.866025402838329 0 -0.5000000016387101
vn -0.866025402838329 0 0.5000000016387101
vn 0.9659258358036645 0 -0.25881900959356163
vn -0.9659258358036645 0 0.25881900959356163
vn 1 0 0
vn -1 0 0
vn 0.9659258358036645 0 0.25881900959356163
vn -0.9659258358036645 0 -0.25881900959356163
vn 0.866025402838329 0 0.5000000016387101
vn -0.866025402838329 0 -0.5000000016387101
vn 0.7071067811865476 0 0.7071067811865476
vn -0.7071067811865476 0 -0.7071067811865476
vn 0.5000000016387101 0 0.866025402838329
vn -0.5000000016387101 0 -0.866025402838329
usemtl material_0_0
f 1//1 2//1 3//1
f 2//1 1//1 4//1
f 2//1 4//1 5//1
f 5//1 4//1 6//1
f 5//1 6//1 7//1
f 7//1 6//1 8//1
f 7//1 8//1 9//1
f 9//1 8//1 10//1
f 9//1 10//1 11//1
f 11//1 10//1 12//1
f 11//1 12//1 13//1
f 13//1 12//1 14//1
f 13//1 14//1 15//1
f 15//1 14//1 16//1
f 15//1 16//1 17//1
f 17//1 16//1 18//1
f 17//1 18//1 19//1
f 19//1 18//1 20//1
f 19//1 20//1 21//1
f 21//1 20//1 22//1
f 21//1 22//1 23//1
f 23//1 22//1 24//1
f 25//2 26//2 27//2
f 27//2 26//2 28//2
f 26//2 29//2 28//2
f 28//2 29//2 30//2
f 29//2 31//2 30//2
f 30//2 31//2 32//2
f 31//2 33//2 32//2
f 32//2 33//2 34//2
f 33//2 35//2 34//2
f 34//2 35//2 36//2
f 35//2 37//2 36//2
f 36//2 37//2 38//2
f 37//2 39//2 38//2
f 38//2 39//2 40//2
f 39//2 41//2 40//2
f 40//2 41//2 42//2
f 41//2 43//2 42//2
f 42//2 43//2 44//2
f 43//2 45//2 44//2
f 44//2 45//2 46//2
f 45//2 47//2 46//2
f 48//2 46//2 47//2
f 49//3 50//4 51//3
f 50//4 49//3 52//4
f 53//5 54//6 55//5
f 56//6 55//5 54//6
f 52//4 57//7 50//4
f 57//7 52//4 58//7
f 59//8 53//5 60//8
f 55//5 60//8 53//5
f 58//7 61//9 57//7
f 61//9 58//7 62//9
f 63//10 59//8 64//10
f 60//8 64//10 59//8
f 62//9 65//11 61//9
f 65//11 62//9 66//11
f 67//12 63//10 68//12
f 64//10 68//12 63//10
f 65//11 69//13 70//13
f 69//13 65//11 66//11
f 67//12 68//12 71//14
f 72//14 71//14 68//12
f 70//13 73//15 74//15
f 73//15 70//13 69//13
f 71//14 72//14 75//16
f 76//16 75//16 72//14
f 74//15 77//17 78//17
f 77//17 74//15 73//15
f 75//16 76//16 79//18
f 80//18 79//18 76//16
f 78//17 81//19 82//19
f 81//19 78//17 77//17
f 79//18 80//18 83//20
f 84//20 83//20 80//18
f 82//19 85//21 86//21
f 85//21 82//19 81//19
f 83//20 84//20 87//22
f 88//22 87//22 84//20
f 86//21 89//23 90//23
f 89//23 86//21 85//21
f 87//22 88//22 91//24
f 92//24 91//24 88//22
f 89//23 93//25 90//23
f 93//25 89//23 94//25
f 95//26 91//24 96//26
f 92//24 96//26 91//24
f 94//25 97//6 93//25
f 97//6 94//25 98//6
f 99//3 95//26 100//3
f 96//26 100//3 95//26
f 98//6 101//5 97//6
f 101//5 98//6 102//5
f 103//4 99//3 104//4
f 100//3 104//4 99//3
f 102//5 105//8 101//5
f 105//8 102//5 106//8
f 107//7 103//4 108//7
f 104//4 108//7 103//4
f 106//8 109//10 105//8
f 109//10 106//8 110//10
f 111//9 107//7 112//9
f 108//7 112//9 107//7
f 110//10 113//12 109//10
f 113//12 110//10 114//12
f 115//11 111//9 116//11
f 112//9 116//11 111//9
f 117//14 113//12 114//12
f 113//12 117//14 118//14
f 119//13 120//13 116//11
f 115//11 116//11 120//13
f 121//16 118//14 117//14
f 118//14 121//16 122//16
f 123//15 124//15 119//13
f 120//13 119//13 124//15
f 125//18 122//16 121//16
f 122//16 125//18 126//18
f 127//17 128//17 123//15
f 124//15 123//15 128//17
f 129//20 126//18 125//18
f 126//18 129//20 130//20
f 131//19 132//19 127//17
f 128//17 127//17 132//19
f 133//22 130//20 129//20
f 130//20 133//22 134//22
f 135//21 136//21 131//19
f 132//19 131//19 136//21
f 137//24 134//22 133//22
f 134//22 137//24 138//24
f 139//23 140//23 135//21
f 136//21 135//21 140//23
f 137//24 141//26 138//24
f 141//26 137//24 142//26
f 143//25 140//23 144//25
f 139//23 144//25 140//23
f 142//26 51//3 141//26
f 51//3 142//26 49//3
f 54//6 143//25 56//6
f 144//25 56//6 143//25
