# SSTK version 0.8.0
# 35
mtllib original-35.mtl
o #ID218
v -0.157891 0.518006 -0.580886
v -0.162456 0.518006 -0.624214
v -0.163595 0.518006 -0.624214
v -0.156791 0.518006 -0.581180
v -0.141167 0.518006 -0.540510
v -0.140180 0.518006 -0.541080
v -0.114563 0.518006 -0.505839
v -0.113757 0.518006 -0.506644
v -0.079891 0.518006 -0.479235
v -0.079322 0.518006 -0.480221
v -0.039516 0.518006 -0.462511
v -0.039221 0.518006 -0.463611
v 0.003812 0.518006 -0.456807
v 0.003812 0.518006 -0.457946
v 0.047140 0.518006 -0.462511
v 0.046845 0.518006 -0.463611
v 0.086946 0.518006 -0.480221
v 0.087516 0.518006 -0.479235
v 0.121381 0.518006 -0.506644
v 0.122187 0.518006 -0.505839
v 0.147805 0.518006 -0.541080
v 0.148791 0.518006 -0.540510
v 0.164415 0.518006 -0.581180
v 0.165515 0.518006 -0.580886
v 0.170080 0.518006 -0.624214
v 0.171219 0.518006 -0.624214
v -0.157891 0.518006 -0.667542
v -0.156791 0.518006 -0.667247
v -0.141167 0.518006 -0.707917
v -0.140180 0.518006 -0.707348
v -0.114563 0.518006 -0.742588
v -0.113757 0.518006 -0.741783
v -0.079891 0.518006 -0.769192
v -0.079322 0.518006 -0.768206
v -0.039516 0.518006 -0.785916
v -0.039221 0.518006 -0.784817
v 0.003812 0.518006 -0.791621
v 0.003812 0.518006 -0.790482
v 0.046845 0.518006 -0.784817
v 0.047140 0.518006 -0.785916
v 0.086946 0.518006 -0.768206
v 0.087516 0.518006 -0.769192
v 0.121381 0.518006 -0.741783
v 0.122187 0.518006 -0.742588
v 0.147805 0.518006 -0.707348
v 0.148791 0.518006 -0.707917
v 0.164415 0.518006 -0.667247
v 0.165515 0.518006 -0.667542
v 0.171219 0.518006 -0.624214
v 0.170080 0.518006 -0.624214
v 0.165515 0.518006 -0.667542
v 0.164415 0.518006 -0.667247
v 0.148791 0.518006 -0.707917
v 0.147805 0.518006 -0.707348
v 0.122187 0.518006 -0.742588
v 0.121381 0.518006 -0.741783
v 0.087516 0.518006 -0.769192
v 0.086946 0.518006 -0.768206
v 0.047140 0.518006 -0.785916
v 0.046845 0.518006 -0.784817
v 0.003812 0.518006 -0.791621
v 0.003812 0.518006 -0.790482
v -0.039221 0.518006 -0.784817
v -0.039516 0.518006 -0.785916
v -0.079322 0.518006 -0.768206
v -0.079891 0.518006 -0.769192
v -0.113757 0.518006 -0.741783
v -0.114563 0.518006 -0.742588
v -0.140180 0.518006 -0.707348
v -0.141167 0.518006 -0.707917
v -0.156791 0.518006 -0.667247
v -0.157891 0.518006 -0.667542
v -0.162456 0.518006 -0.624214
v -0.163595 0.518006 -0.624214
v 0.165515 0.518006 -0.580886
v 0.164415 0.518006 -0.581180
v 0.148791 0.518006 -0.540510
v 0.147805 0.518006 -0.541080
v 0.122187 0.518006 -0.505839
v 0.121381 0.518006 -0.506644
v 0.087516 0.518006 -0.479235
v 0.086946 0.518006 -0.480221
v 0.047140 0.518006 -0.462511
v 0.046845 0.518006 -0.463611
v 0.003812 0.518006 -0.457946
v 0.003812 0.518006 -0.456807
v -0.039221 0.518006 -0.463611
v -0.039516 0.518006 -0.462511
v -0.079322 0.518006 -0.480221
v -0.079891 0.518006 -0.479235
v -0.113757 0.518006 -0.506644
v -0.114563 0.518006 -0.505839
v -0.140180 0.518006 -0.541080
v -0.141167 0.518006 -0.540510
v -0.156791 0.518006 -0.581180
v -0.157891 0.518006 -0.580886
vn 0 1 0
vn 0 -1 0
usemtl material_0_0
f 1//1 2//1 3//1
f 2//1 1//1 4//1
f 4//1 1//1 5//1
f 4//1 5//1 6//1
f 6//1 5//1 7//1
f 6//1 7//1 8//1
f 8//1 7//1 9//1
f 8//1 9//1 10//1
f 10//1 9//1 11//1
f 10//1 11//1 12//1
f 12//1 11//1 13//1
f 12//1 13//1 14//1
f 14//1 13//1 15//1
f 14//1 15//1 16//1
f 16//1 15//1 17//1
f 17//1 15//1 18//1
f 17//1 18//1 19//1
f 19//1 18//1 20//1
f 19//1 20//1 21//1
f 21//1 20//1 22//1
f 21//1 22//1 23//1
f 23//1 22//1 24//1
f 23//1 24//1 25//1
f 25//1 24//1 26//1
f 2//1 27//1 3//1
f 27//1 2//1 28//1
f 27//1 28//1 29//1
f 29//1 28//1 30//1
f 29//1 30//1 31//1
f 31//1 30//1 32//1
f 31//1 32//1 33//1
f 33//1 32//1 34//1
f 33//1 34//1 35//1
f 35//1 34//1 36//1
f 35//1 36//1 37//1
f 37//1 36//1 38//1
f 37//1 38//1 39//1
f 37//1 39//1 40//1
f 40//1 39//1 41//1
f 40//1 41//1 42//1
f 42//1 41//1 43//1
f 42//1 43//1 44//1
f 44//1 43//1 45//1
f 44//1 45//1 46//1
f 46//1 45//1 47//1
f 46//1 47//1 48//1
f 48//1 47//1 25//1
f 48//1 25//1 26//1
f 49//2 50//2 51//2
f 50//2 52//2 51//2
f 51//2 52//2 53//2
f 52//2 54//2 53//2
f 53//2 54//2 55//2
f 54//2 56//2 55//2
f 55//2 56//2 57//2
f 56//2 58//2 57//2
f 57//2 58//2 59//2
f 58//2 60//2 59//2
f 59//2 60//2 61//2
f 60//2 62//2 61//2
f 62//2 63//2 61//2
f 61//2 63//2 64//2
f 63//2 65//2 64//2
f 64//2 65//2 66//2
f 65//2 67//2 66//2
f 66//2 67//2 68//2
f 67//2 69//2 68//2
f 68//2 69//2 70//2
f 69//2 71//2 70//2
f 70//2 71//2 72//2
f 71//2 73//2 72//2
f 74//2 72//2 73//2
f 49//2 75//2 50//2
f 50//2 75//2 76//2
f 75//2 77//2 76//2
f 76//2 77//2 78//2
f 77//2 79//2 78//2
f 78//2 79//2 80//2
f 79//2 81//2 80//2
f 80//2 81//2 82//2
f 81//2 83//2 82//2
f 82//2 83//2 84//2
f 84//2 83//2 85//2
f 83//2 86//2 85//2
f 85//2 86//2 87//2
f 86//2 88//2 87//2
f 87//2 88//2 89//2
f 88//2 90//2 89//2
f 89//2 90//2 91//2
f 90//2 92//2 91//2
f 91//2 92//2 93//2
f 92//2 94//2 93//2
f 93//2 94//2 95//2
f 94//2 96//2 95//2
f 95//2 96//2 73//2
f 74//2 73//2 96//2
