# SSTK version 0.8.0
# 26
mtllib original-26.mtl
o #ID160
v -0.011484 -0.387471 -0.620115
v -0.011484 -0.387471 -0.628312
v -0.012024 -0.387471 -0.624214
v -0.009902 -0.387471 -0.616296
v -0.009902 -0.387471 -0.632132
v -0.007386 -0.387471 -0.635412
v -0.007386 -0.387471 -0.613016
v -0.004106 -0.387471 -0.610499
v -0.004106 -0.387471 -0.637928
v -0.000287 -0.387471 -0.608917
v -0.000287 -0.387471 -0.639510
v 0.003812 -0.387471 -0.608378
v 0.003812 -0.387471 -0.640050
v 0.007911 -0.387471 -0.639510
v 0.007911 -0.387471 -0.608917
v 0.011730 -0.387471 -0.610499
v 0.011730 -0.387471 -0.637928
v 0.015010 -0.387471 -0.635412
v 0.015010 -0.387471 -0.613016
v 0.017527 -0.387471 -0.616296
v 0.017527 -0.387471 -0.632132
v 0.019109 -0.387471 -0.628312
v 0.019109 -0.387471 -0.620115
v 0.019648 -0.387471 -0.624214
v 0.019648 -0.387471 -0.624214
v 0.019109 -0.387471 -0.620115
v 0.019109 -0.387471 -0.628312
v 0.017527 -0.387471 -0.616296
v 0.017527 -0.387471 -0.632132
v 0.015010 -0.387471 -0.635412
v 0.015010 -0.387471 -0.613016
v 0.011730 -0.387471 -0.610499
v 0.011730 -0.387471 -0.637928
v 0.007911 -0.387471 -0.639510
v 0.007911 -0.387471 -0.608917
v 0.003812 -0.387471 -0.608378
v 0.003812 -0.387471 -0.640050
v -0.000287 -0.387471 -0.639510
v -0.000287 -0.387471 -0.608917
v -0.004106 -0.387471 -0.637928
v -0.004106 -0.387471 -0.610499
v -0.007386 -0.387471 -0.635412
v -0.007386 -0.387471 -0.613016
v -0.009902 -0.387471 -0.616296
v -0.009902 -0.387471 -0.632132
v -0.011484 -0.387471 -0.628312
v -0.011484 -0.387471 -0.620115
v -0.012024 -0.387471 -0.624214
v 0.019109 -0.387471 -0.628312
v 0.028960 -0.394509 -0.638733
v 0.017527 -0.387471 -0.632132
v 0.031861 -0.394509 -0.631729
v 0.031861 -0.394509 -0.631729
v 0.019109 -0.387471 -0.628312
v 0.028960 -0.394509 -0.638733
v 0.017527 -0.387471 -0.632132
v 0.024345 -0.394509 -0.644747
v 0.015010 -0.387471 -0.635412
v 0.024345 -0.394509 -0.644747
v 0.015010 -0.387471 -0.635412
v 0.018331 -0.394509 -0.649361
v 0.011730 -0.387471 -0.637928
v 0.018331 -0.394509 -0.649361
v 0.011730 -0.387471 -0.637928
v 0.011328 -0.394509 -0.652262
v 0.007911 -0.387471 -0.639510
v 0.011328 -0.394509 -0.652262
v 0.007911 -0.387471 -0.639510
v 0.003812 -0.394509 -0.653252
v 0.003812 -0.387471 -0.640050
v 0.003812 -0.394509 -0.653252
v 0.003812 -0.387471 -0.640050
v -0.000287 -0.387471 -0.639510
v -0.003704 -0.394509 -0.652262
v -0.000287 -0.387471 -0.639510
v -0.003704 -0.394509 -0.652262
v -0.004106 -0.387471 -0.637928
v -0.010707 -0.394509 -0.649361
v -0.004106 -0.387471 -0.637928
v -0.010707 -0.394509 -0.649361
v -0.007386 -0.387471 -0.635412
v -0.016721 -0.394509 -0.644747
v -0.007386 -0.387471 -0.635412
v -0.016721 -0.394509 -0.644747
v -0.009902 -0.387471 -0.632132
v -0.021336 -0.394509 -0.638733
v -0.009902 -0.387471 -0.632132
v -0.021336 -0.394509 -0.638733
v -0.011484 -0.387471 -0.628312
v -0.024236 -0.394509 -0.631729
v -0.011484 -0.387471 -0.628312
v -0.024236 -0.394509 -0.631729
v -0.012024 -0.387471 -0.624214
v -0.025226 -0.394509 -0.624214
v -0.012024 -0.387471 -0.624214
v -0.025226 -0.394509 -0.624214
v -0.024236 -0.394509 -0.616698
v -0.011484 -0.387471 -0.620115
v -0.011484 -0.387471 -0.620115
v -0.024236 -0.394509 -0.616698
v -0.021336 -0.394509 -0.609695
v -0.009902 -0.387471 -0.616296
v -0.009902 -0.387471 -0.616296
v -0.021336 -0.394509 -0.609695
v -0.016721 -0.394509 -0.603681
v -0.007386 -0.387471 -0.613016
v -0.007386 -0.387471 -0.613016
v -0.016721 -0.394509 -0.603681
v -0.010707 -0.394509 -0.599066
v -0.004106 -0.387471 -0.610499
v -0.004106 -0.387471 -0.610499
v -0.010707 -0.394509 -0.599066
v -0.003704 -0.394509 -0.596165
v -0.000287 -0.387471 -0.608917
v -0.000287 -0.387471 -0.608917
v -0.003704 -0.394509 -0.596165
v 0.003812 -0.394509 -0.595176
v 0.003812 -0.387471 -0.608378
v 0.003812 -0.387471 -0.608378
v 0.003812 -0.394509 -0.595176
v 0.011328 -0.394509 -0.596165
v 0.007911 -0.387471 -0.608917
v 0.007911 -0.387471 -0.608917
v 0.011328 -0.394509 -0.596165
v 0.011730 -0.387471 -0.610499
v 0.018331 -0.394509 -0.599066
v 0.018331 -0.394509 -0.599066
v 0.011730 -0.387471 -0.610499
v 0.015010 -0.387471 -0.613016
v 0.024345 -0.394509 -0.603681
v 0.024345 -0.394509 -0.603681
v 0.015010 -0.387471 -0.613016
v 0.017527 -0.387471 -0.616296
v 0.028960 -0.394509 -0.609695
v 0.028960 -0.394509 -0.609695
v 0.017527 -0.387471 -0.616296
v 0.019109 -0.387471 -0.620115
v 0.031861 -0.394509 -0.616698
v 0.031861 -0.394509 -0.616698
v 0.019109 -0.387471 -0.620115
v 0.019648 -0.387471 -0.624214
v 0.032850 -0.394509 -0.624214
v 0.032850 -0.394509 -0.624214
v 0.019648 -0.387471 -0.624214
v 0.028960 -0.399200 -0.638733
v 0.031861 -0.394509 -0.631729
v 0.031861 -0.399200 -0.631729
v 0.028960 -0.394509 -0.638733
v 0.028960 -0.394509 -0.638733
v 0.028960 -0.399200 -0.638733
v 0.031861 -0.394509 -0.631729
v 0.031861 -0.399200 -0.631729
v 0.024345 -0.399200 -0.644747
v 0.024345 -0.394509 -0.644747
v 0.024345 -0.394509 -0.644747
v 0.024345 -0.399200 -0.644747
v 0.018331 -0.394509 -0.649361
v 0.018331 -0.399200 -0.649361
v 0.018331 -0.394509 -0.649361
v 0.018331 -0.399200 -0.649361
v 0.011328 -0.394509 -0.652262
v 0.011328 -0.399200 -0.652262
v 0.011328 -0.394509 -0.652262
v 0.011328 -0.399200 -0.652262
v 0.003812 -0.394509 -0.653252
v 0.003812 -0.399200 -0.653252
v 0.003812 -0.394509 -0.653252
v 0.003812 -0.399200 -0.653252
v -0.003704 -0.394509 -0.652262
v -0.003704 -0.399200 -0.652262
v -0.003704 -0.394509 -0.652262
v -0.003704 -0.399200 -0.652262
v -0.010707 -0.394509 -0.649361
v -0.010707 -0.399200 -0.649361
v -0.010707 -0.394509 -0.649361
v -0.010707 -0.399200 -0.649361
v -0.016721 -0.394509 -0.644747
v -0.016721 -0.399200 -0.644747
v -0.016721 -0.394509 -0.644747
v -0.016721 -0.399200 -0.644747
v -0.016721 -0.394509 -0.644747
v -0.021336 -0.399200 -0.638733
v -0.021336 -0.394509 -0.638733
v -0.016721 -0.399200 -0.644747
v -0.016721 -0.399200 -0.644747
v -0.016721 -0.394509 -0.644747
v -0.021336 -0.399200 -0.638733
v -0.021336 -0.394509 -0.638733
v -0.024236 -0.399200 -0.631729
v -0.024236 -0.394509 -0.631729
v -0.024236 -0.399200 -0.631729
v -0.024236 -0.394509 -0.631729
v -0.025226 -0.399200 -0.624214
v -0.025226 -0.394509 -0.624214
v -0.025226 -0.399200 -0.624214
v -0.025226 -0.394509 -0.624214
v -0.024236 -0.399200 -0.616698
v -0.024236 -0.394509 -0.616698
v -0.024236 -0.399200 -0.616698
v -0.024236 -0.394509 -0.616698
v -0.021336 -0.399200 -0.609695
v -0.021336 -0.394509 -0.609695
v -0.021336 -0.399200 -0.609695
v -0.021336 -0.394509 -0.609695
v -0.016721 -0.399200 -0.603681
v -0.016721 -0.394509 -0.603681
v -0.016721 -0.399200 -0.603681
v -0.016721 -0.394509 -0.603681
v -0.010707 -0.394509 -0.599066
v -0.010707 -0.399200 -0.599066
v -0.010707 -0.394509 -0.599066
v -0.010707 -0.399200 -0.599066
v -0.003704 -0.394509 -0.596165
v -0.003704 -0.399200 -0.596165
v -0.003704 -0.394509 -0.596165
v -0.003704 -0.399200 -0.596165
v 0.003812 -0.394509 -0.595176
v 0.003812 -0.399200 -0.595176
v 0.003812 -0.394509 -0.595176
v 0.003812 -0.399200 -0.595176
v 0.011328 -0.394509 -0.596165
v 0.011328 -0.399200 -0.596165
v 0.011328 -0.394509 -0.596165
v 0.011328 -0.399200 -0.596165
v 0.018331 -0.394509 -0.599066
v 0.018331 -0.399200 -0.599066
v 0.018331 -0.394509 -0.599066
v 0.018331 -0.399200 -0.599066
v 0.024345 -0.394509 -0.603681
v 0.024345 -0.399200 -0.603681
v 0.024345 -0.394509 -0.603681
v 0.024345 -0.399200 -0.603681
v 0.028960 -0.399200 -0.609695
v 0.028960 -0.394509 -0.609695
v 0.028960 -0.394509 -0.609695
v 0.028960 -0.399200 -0.609695
v 0.031861 -0.399200 -0.616698
v 0.028960 -0.394509 -0.609695
v 0.028960 -0.399200 -0.609695
v 0.031861 -0.394509 -0.616698
v 0.031861 -0.394509 -0.616698
v 0.031861 -0.399200 -0.616698
v 0.028960 -0.394509 -0.609695
v 0.028960 -0.399200 -0.609695
v 0.032850 -0.399200 -0.624214
v 0.032850 -0.394509 -0.624214
v 0.032850 -0.394509 -0.624214
v 0.032850 -0.399200 -0.624214
vt 0.01529181 0.01416667
vt 0.01525347 0.01387546
vt 0.01525347 0.01445787
vt 0.01514107 0.0136041
vt 0.01514107 0.01472924
vt 0.01496226 0.01496226
vt 0.01496226 0.01337107
vt 0.01472924 0.01319226
vt 0.01472924 0.01514107
vt 0.01445787 0.01525347
vt 0.01445787 0.01307986
vt 0.01416667 0.01304152
vt 0.01416667 0.01529181
vt 0.01387546 0.01525347
vt 0.01387546 0.01307986
vt 0.0136041 0.01514107
vt 0.0136041 0.01319226
vt 0.01337107 0.01496226
vt 0.01337107 0.01337107
vt 0.01319226 0.0136041
vt 0.01319226 0.01472924
vt 0.01307986 0.01445787
vt 0.01307986 0.01387546
vt 0.01304152 0.01416667
vt 0.007397654 -0.01376331
vt 0.007520084 -0.01270746
vt 0.007936236 -0.01376331
vt 0.007813805 -0.01270746
vt 0.002345761 -0.01495556
vt 0.002468192 -0.01389971
vt 0.002884343 -0.01495556
vt 0.002761913 -0.01389971
vt -0.002884343 -0.01495556
vt -0.002761913 -0.01389971
vt -0.002345761 -0.01495556
vt -0.002468192 -0.01389971
vt -0.007936236 -0.01376331
vt -0.007813805 -0.01270746
vt -0.007397654 -0.01376331
vt -0.007520084 -0.01270746
vt -0.01246564 -0.01146006
vt -0.01234321 -0.01040422
vt -0.01192706 -0.01146006
vt -0.01204949 -0.01040422
vt -0.01604145 -0.007146935
vt -0.01574773 -0.007146935
vt -0.01616388 -0.008202781
vt -0.0156253 -0.008202781
vt -0.0186565 -0.003157596
vt -0.01836278 -0.003157596
vt -0.01877893 -0.004213442
vt -0.01824035 -0.004213442
vt -0.02001015 0.001291933
vt -0.01971643 0.001291933
vt -0.02013258 0.0002360873
vt -0.019594 0.0002360873
vt -0.02001015 0.005898425
vt -0.01971643 0.005898425
vt -0.02013258 0.004842579
vt -0.019594 0.004842579
vt -0.0186565 0.01034795
vt -0.01836278 0.01034795
vt -0.01877893 0.009292109
vt -0.01824035 0.009292109
vt -0.01604145 0.01433729
vt -0.01574773 0.01433729
vt -0.01616388 0.01328145
vt -0.0156253 0.01328145
vt -0.01204949 0.01759458
vt -0.01192706 0.01653873
vt -0.01234321 0.01759458
vt -0.01246564 0.01653873
vt -0.007520084 0.01989782
vt -0.007397654 0.01884198
vt -0.007813805 0.01989782
vt -0.007936236 0.01884198
vt -0.002468192 0.02109007
vt -0.002345761 0.02003422
vt -0.002761913 0.02109007
vt -0.002884343 0.02003422
vt 0.002761913 0.02109007
vt 0.002884343 0.02003422
vt 0.002468192 0.02109007
vt 0.002345761 0.02003422
vt 0.007813805 0.01989782
vt 0.007936236 0.01884198
vt 0.007520084 0.01989782
vt 0.007397654 0.01884198
vt 0.01234321 0.01759458
vt 0.01246564 0.01653873
vt 0.01204949 0.01759458
vt 0.01192706 0.01653873
vt 0.01604145 0.01433729
vt 0.01616388 0.01328145
vt 0.01574773 0.01433729
vt 0.0156253 0.01328145
vt 0.01877893 0.009292109
vt 0.01824035 0.009292109
vt 0.0186565 0.01034795
vt 0.01836278 0.01034795
vt 0.02013258 0.004842579
vt 0.019594 0.004842579
vt 0.02001015 0.005898425
vt 0.01971643 0.005898425
vt 0.02013258 0.0002360873
vt 0.019594 0.0002360873
vt 0.02001015 0.001291933
vt 0.01971643 0.001291933
vt 0.01877893 -0.004213442
vt 0.01824035 -0.004213442
vt 0.0186565 -0.003157596
vt 0.01836278 -0.003157596
vt 0.01616388 -0.008202781
vt 0.0156253 -0.008202781
vt 0.01604145 -0.007146935
vt 0.01574773 -0.007146935
vt 0.01192706 -0.01146006
vt 0.01204949 -0.01040422
vt 0.01246564 -0.01146006
vt 0.01234321 -0.01040422
vt 0.007936236 0.009166667
vt 0.007936236 0.008833333
vt 0.007397654 0.009166667
vt 0.007397654 0.008833333
vt 0.002884343 0.009166667
vt 0.002884343 0.008833333
vt 0.002345761 0.009166667
vt 0.002345761 0.008833333
vt -0.002884343 0.009166667
vt -0.002345761 0.009166667
vt -0.002884343 0.008833333
vt -0.002345761 0.008833333
vt -0.007936236 0.009166667
vt -0.007397654 0.009166667
vt -0.007936236 0.008833333
vt -0.007397654 0.008833333
vt -0.01246564 0.009166667
vt -0.01192706 0.009166667
vt -0.01246564 0.008833333
vt -0.01192706 0.008833333
vt -0.01616388 0.009166667
vt -0.0156253 0.009166667
vt -0.01616388 0.008833333
vt -0.0156253 0.008833333
vt -0.01877893 0.009166667
vt -0.01824035 0.009166667
vt -0.01877893 0.008833333
vt -0.01824035 0.008833333
vt -0.02013258 0.009166667
vt -0.019594 0.009166667
vt -0.02013258 0.008833333
vt -0.019594 0.008833333
vt 0.01192706 0.009166667
vt 0.01246564 0.009166667
vt 0.01192706 0.008833333
vt 0.01246564 0.008833333
vt 0.0156253 0.009166667
vt 0.01616388 0.009166667
vt 0.0156253 0.008833333
vt 0.01616388 0.008833333
vt 0.01824035 0.009166667
vt 0.01877893 0.009166667
vt 0.01824035 0.008833333
vt 0.01877893 0.008833333
vt 0.019594 0.009166667
vt 0.02013258 0.009166667
vt 0.019594 0.008833333
vt 0.02013258 0.008833333
vn 0 1 0
vn 0.45437350413750466 0.8824522080355701 -0.12174900110864073
vn 0.4073801119032702 0.8824522257844382 -0.23520100687235576
vn 0.3326244997862322 0.8824521994328747 -0.332624499786232
vn 0.23520100687235596 0.8824522257844383 -0.40738011190327
vn 0.12174900110864093 0.8824522080355702 -0.45437350413750444
vn 0 0.882452232258554 -0.4704020171958187
vn -0.12174900110864093 0.8824522080355702 -0.45437350413750444
vn -0.23520100687235596 0.8824522257844383 -0.40738011190327
vn -0.3326244997862322 0.8824521994328747 -0.332624499786232
vn -0.4073801119032702 0.8824522257844382 -0.23520100687235576
vn -0.45437350413750466 0.8824522080355701 -0.12174900110864073
vn -0.4704020171958189 0.8824522322585538 0
vn -0.45437350413750466 0.8824522080355701 0.12174900110864112
vn -0.4073801119032702 0.8824522257844382 0.23520100687235615
vn -0.3326244997862322 0.8824521994328745 0.33262449978623243
vn -0.23520100687235596 0.882452225784438 0.40738011190327045
vn -0.12174900110864093 0.88245220803557 0.4543735041375049
vn 0 0.8824522322585537 0.47040201719581914
vn 0.12174900110864093 0.88245220803557 0.4543735041375049
vn 0.23520100687235596 0.882452225784438 0.40738011190327045
vn 0.3326244997862322 0.8824521994328745 0.33262449978623243
vn 0.4073801119032702 0.8824522257844382 0.23520100687235615
vn 0.45437350413750466 0.8824522080355701 0.12174900110864112
vn 0.4704020171958189 0.8824522322585538 0
vn 0.866025402838329 0 -0.5000000016387101
vn 0.9659258358036645 0 -0.25881900959356163
vn 0.7071067811865476 0 -0.7071067811865476
vn 0.5000000016387101 0 -0.866025402838329
vn 0.25881900959356163 0 -0.9659258358036645
vn 0 0 -1
vn -0.25881900959356163 0 -0.9659258358036645
vn -0.5000000016387101 0 -0.866025402838329
vn -0.608761430209528 0 -0.7933533393698233
vn -0.7933533393698233 0 -0.608761430209528
vn -0.866025402838329 0 -0.5000000016387101
vn -0.9659258358036645 0 -0.25881900959356163
vn -1 0 0
vn -0.9659258358036645 0 0.25881900959356163
vn -0.866025402838329 0 0.5000000016387101
vn -0.7071067811865476 0 0.7071067811865476
vn -0.5000000016387101 0 0.866025402838329
vn -0.25881900959356163 0 0.9659258358036645
vn 0 0 1
vn 0.25881900959356163 0 0.9659258358036645
vn 0.5000000016387101 0 0.866025402838329
vn 0.7071067811865476 0 0.7071067811865476
vn 0.7933533393698233 0 0.608761430209528
vn 0.9659258358036645 0 0.25881900959356163
vn 0.9238795391929066 0 0.38268341623423263
vn 1 0 0
vn 0 -1 0
vn -0.45437350413750466 -0.8824522080355701 0.12174900110864073
vn -0.4073801119032702 -0.8824522257844382 0.23520100687235576
vn -0.3326244997862322 -0.8824521994328747 0.332624499786232
vn -0.23520100687235596 -0.8824522257844383 0.40738011190327
vn -0.12174900110864093 -0.8824522080355702 0.45437350413750444
vn 0 -0.882452232258554 0.4704020171958187
vn 0.12174900110864093 -0.8824522080355702 0.45437350413750444
vn 0.23520100687235596 -0.8824522257844383 0.40738011190327
vn 0.3326244997862322 -0.8824521994328747 0.332624499786232
vn 0.4073801119032702 -0.8824522257844382 0.23520100687235576
vn 0.45437350413750466 -0.8824522080355701 0.12174900110864073
vn 0.4704020171958189 -0.8824522322585538 0
vn 0.45437350413750466 -0.8824522080355701 -0.12174900110864112
vn 0.4073801119032702 -0.8824522257844382 -0.23520100687235615
vn 0.3326244997862322 -0.8824521994328745 -0.33262449978623243
vn 0.23520100687235596 -0.882452225784438 -0.40738011190327045
vn 0.12174900110864093 -0.88245220803557 -0.4543735041375049
vn 0 -0.8824522322585537 -0.47040201719581914
vn -0.12174900110864093 -0.88245220803557 -0.4543735041375049
vn -0.23520100687235596 -0.882452225784438 -0.40738011190327045
vn -0.3326244997862322 -0.8824521994328745 -0.33262449978623243
vn -0.4073801119032702 -0.8824522257844382 -0.23520100687235615
vn -0.45437350413750466 -0.8824522080355701 -0.12174900110864112
vn -0.4704020171958189 -0.8824522322585538 0
vn 0.608761430209528 0 0.7933533393698233
vn 0.866025402838329 0 0.5000000016387101
vn -0.7071067811865476 0 -0.7071067811865476
vn -0.9238795391929066 0 -0.38268341623423263
usemtl material_0_0
f 25/1/52 26/2/52 27/3/52
f 26/2/52 28/4/52 27/3/52
f 27/3/52 28/4/52 29/5/52
f 29/5/52 28/4/52 30/6/52
f 28/4/52 31/7/52 30/6/52
f 31/7/52 32/8/52 30/6/52
f 30/6/52 32/8/52 33/9/52
f 33/9/52 32/8/52 34/10/52
f 32/8/52 35/11/52 34/10/52
f 35/11/52 36/12/52 34/10/52
f 34/10/52 36/12/52 37/13/52
f 37/13/52 36/12/52 38/14/52
f 36/12/52 39/15/52 38/14/52
f 38/14/52 39/15/52 40/16/52
f 39/15/52 41/17/52 40/16/52
f 40/16/52 41/17/52 42/18/52
f 41/17/52 43/19/52 42/18/52
f 43/19/52 44/20/52 42/18/52
f 42/18/52 44/20/52 45/21/52
f 45/21/52 44/20/52 46/22/52
f 44/20/52 47/23/52 46/22/52
f 48/24/52 46/22/52 47/23/52
f 53/25/53 54/26/53 55/27/54
f 56/28/54 55/27/54 54/26/53
f 55/29/54 56/30/54 59/31/55
f 60/32/55 59/31/55 56/30/54
f 59/33/55 60/34/55 63/35/56
f 64/36/56 63/35/56 60/34/55
f 63/37/56 64/38/56 67/39/57
f 68/40/57 67/39/57 64/38/56
f 67/41/57 68/42/57 71/43/58
f 72/44/58 71/43/58 68/42/57
f 72/45/58 75/46/59 71/47/58
f 76/48/59 71/47/58 75/46/59
f 75/49/59 79/50/60 76/51/59
f 80/52/60 76/51/59 79/50/60
f 79/53/60 83/54/61 80/55/60
f 84/56/61 80/55/60 83/54/61
f 83/57/61 87/58/62 84/59/61
f 88/60/62 84/59/61 87/58/62
f 87/61/62 91/62/63 88/63/62
f 92/64/63 88/63/62 91/62/63
f 91/65/63 95/66/64 92/67/63
f 96/68/64 92/67/63 95/66/64
f 99/69/65 100/70/65 95/71/64
f 96/72/64 95/71/64 100/70/65
f 103/73/66 104/74/66 99/75/65
f 100/76/65 99/75/65 104/74/66
f 107/77/67 108/78/67 103/79/66
f 104/80/66 103/79/66 108/78/67
f 111/81/68 112/82/68 107/83/67
f 108/84/67 107/83/67 112/82/68
f 115/85/69 116/86/69 111/87/68
f 112/88/68 111/87/68 116/86/69
f 119/89/70 120/90/70 115/91/69
f 116/92/69 115/91/69 120/90/70
f 123/93/71 124/94/71 119/95/70
f 120/96/70 119/95/70 124/94/71
f 127/97/72 124/98/71 128/99/72
f 123/100/71 128/99/72 124/98/71
f 131/101/73 127/102/72 132/103/73
f 128/104/72 132/103/73 127/102/72
f 135/105/74 131/106/73 136/107/74
f 132/108/73 136/107/74 131/106/73
f 139/109/75 135/110/74 140/111/75
f 136/112/74 140/111/75 135/110/74
f 143/113/76 139/114/75 144/115/76
f 140/116/75 144/115/76 139/114/75
f 143/117/76 144/118/76 53/119/53
f 54/120/53 53/119/53 144/118/76
f 149/121/40 150/122/40 151/123/39
f 152/124/39 151/123/39 150/122/40
f 155/125/41 156/126/41 149/127/40
f 150/128/40 149/127/40 156/126/41
f 155/129/41 159/130/42 156/131/41
f 160/132/42 156/131/41 159/130/42
f 159/133/42 163/134/43 160/135/42
f 164/136/43 160/135/42 163/134/43
f 163/137/43 167/138/44 164/139/43
f 168/140/44 164/139/43 167/138/44
f 167/141/44 171/142/45 168/143/44
f 172/144/45 168/143/44 171/142/45
f 171/145/45 175/146/46 172/147/45
f 176/148/46 172/147/45 175/146/46
f 175/149/46 179/150/77 176/151/46
f 180/152/77 176/151/46 179/150/77
f 185/151/48 186/149/48 187/152/78
f 188/150/78 187/152/78 186/149/48
f 187/147/78 188/145/78 191/148/49
f 192/146/49 191/148/49 188/145/78
f 191/143/49 192/141/49 195/144/51
f 196/142/51 195/144/51 192/141/49
f 195/139/51 196/137/51 199/140/27
f 200/138/27 199/140/27 196/137/51
f 199/135/27 200/133/27 203/136/26
f 204/134/26 203/136/26 200/133/27
f 203/131/26 204/129/26 207/132/28
f 208/130/28 207/132/28 204/129/26
f 208/127/28 211/125/29 207/128/28
f 212/126/29 207/128/28 211/125/29
f 211/123/29 215/121/30 212/124/29
f 216/122/30 212/124/29 215/121/30
f 215/153/30 219/154/31 216/155/30
f 220/156/31 216/155/30 219/154/31
f 219/157/31 223/158/32 220/159/31
f 224/160/32 220/159/31 223/158/32
f 223/161/32 227/162/33 224/163/32
f 228/164/33 224/163/32 227/162/33
f 227/165/33 231/166/79 228/167/33
f 232/168/79 228/167/33 231/166/79
f 235/166/35 236/168/35 231/165/79
f 232/167/79 231/165/79 236/168/35
f 241/162/37 242/164/37 243/161/80
f 244/163/80 243/161/80 242/164/37
f 247/158/38 248/160/38 241/157/37
f 242/159/37 241/157/37 248/160/38
f 151/154/39 152/156/39 247/153/38
f 248/155/38 247/153/38 152/156/39
usemtl material_1_0
f 1//1 2//1 3//1
f 2//1 1//1 4//1
f 2//1 4//1 5//1
f 5//1 4//1 6//1
f 6//1 4//1 7//1
f 6//1 7//1 8//1
f 6//1 8//1 9//1
f 9//1 8//1 10//1
f 9//1 10//1 11//1
f 11//1 10//1 12//1
f 11//1 12//1 13//1
f 13//1 12//1 14//1
f 14//1 12//1 15//1
f 14//1 15//1 16//1
f 14//1 16//1 17//1
f 17//1 16//1 18//1
f 18//1 16//1 19//1
f 18//1 19//1 20//1
f 18//1 20//1 21//1
f 21//1 20//1 22//1
f 22//1 20//1 23//1
f 22//1 23//1 24//1
f 49//2 50//3 51//3
f 50//3 49//2 52//2
f 51//3 57//4 58//4
f 57//4 51//3 50//3
f 58//4 61//5 62//5
f 61//5 58//4 57//4
f 62//5 65//6 66//6
f 65//6 62//5 61//5
f 66//6 69//7 70//7
f 69//7 66//6 65//6
f 73//8 69//7 74//8
f 69//7 73//8 70//7
f 77//9 74//8 78//9
f 74//8 77//9 73//8
f 81//10 78//9 82//10
f 78//9 81//10 77//9
f 85//11 82//10 86//11
f 82//10 85//11 81//10
f 89//12 86//11 90//12
f 86//11 89//12 85//11
f 93//13 90//12 94//13
f 90//12 93//13 89//12
f 97//14 93//13 94//13
f 93//13 97//14 98//14
f 101//15 98//14 97//14
f 98//14 101//15 102//15
f 105//16 102//15 101//15
f 102//15 105//16 106//16
f 109//17 106//16 105//16
f 106//16 109//17 110//17
f 113//18 110//17 109//17
f 110//17 113//18 114//18
f 117//19 114//18 113//18
f 114//18 117//19 118//19
f 121//20 118//19 117//19
f 118//19 121//20 122//20
f 121//20 125//21 122//20
f 125//21 121//20 126//21
f 126//21 129//22 125//21
f 129//22 126//21 130//22
f 130//22 133//23 129//22
f 133//23 130//22 134//23
f 134//23 137//24 133//23
f 137//24 134//23 138//24
f 138//24 141//25 137//24
f 141//25 138//24 142//25
f 141//25 52//2 49//2
f 52//2 141//25 142//25
f 145//26 146//27 147//27
f 146//27 145//26 148//26
f 153//28 148//26 145//26
f 148//26 153//28 154//28
f 157//29 153//28 158//29
f 153//28 157//29 154//28
f 161//30 158//29 162//30
f 158//29 161//30 157//29
f 165//31 162//30 166//31
f 162//30 165//31 161//30
f 169//32 166//31 170//32
f 166//31 169//32 165//31
f 173//33 170//32 174//33
f 170//32 173//33 169//32
f 177//34 174//33 178//34
f 174//33 177//34 173//33
f 181//35 182//36 183//36
f 182//36 181//35 184//35
f 183//36 189//37 190//37
f 189//37 183//36 182//36
f 190//37 193//38 194//38
f 193//38 190//37 189//37
f 194//38 197//39 198//39
f 197//39 194//38 193//38
f 198//39 201//40 202//40
f 201//40 198//39 197//39
f 202//40 205//41 206//41
f 205//41 202//40 201//40
f 209//42 205//41 210//42
f 205//41 209//42 206//41
f 213//43 210//42 214//43
f 210//42 213//43 209//42
f 217//44 214//43 218//44
f 214//43 217//44 213//43
f 221//45 218//44 222//45
f 218//44 221//45 217//44
f 225//46 222//45 226//46
f 222//45 225//46 221//45
f 229//47 226//46 230//47
f 226//46 229//47 225//46
f 233//48 229//47 230//47
f 229//47 233//48 234//48
f 237//49 238//50 239//50
f 238//50 237//49 240//49
f 245//51 240//49 237//49
f 240//49 245//51 246//51
f 147//27 246//51 245//51
f 246//51 147//27 146//27
