# SSTK version 0.8.0
# 3
mtllib original-3.mtl
o #ID6
v -0.035822 0.511979 0.567777
v -0.035571 0.512340 0.567777
v -0.034228 0.512346 0.567777
v -0.048322 0.518850 0.567777
v -0.060603 0.527936 0.567777
v -0.062679 0.537281 0.567777
v -0.052239 0.517340 0.567777
v -0.047455 0.517823 0.567777
v -0.046509 0.516869 0.567777
v -0.051061 0.516204 0.567777
v -0.045491 0.515993 0.567777
v -0.049786 0.515180 0.567777
v -0.044406 0.515200 0.567777
v -0.043261 0.514496 0.567777
v -0.048424 0.514274 0.567777
v -0.042065 0.513886 0.567777
v -0.046985 0.513495 0.567777
v -0.040824 0.513372 0.567777
v -0.045482 0.512849 0.567777
v -0.039545 0.512958 0.567777
v -0.038238 0.512647 0.567777
v -0.043927 0.512341 0.567777
v -0.036911 0.512440 0.567777
v -0.042332 0.511976 0.567777
v -0.037443 0.511757 0.567777
v -0.040711 0.511756 0.567777
v -0.039077 0.511683 0.567777
v -0.062679 0.519629 0.567777
v -0.060603 0.519629 0.567777
v -0.062679 0.537281 0.571047
v -0.048322 0.518850 0.567777
v -0.062679 0.537281 0.567777
v -0.048322 0.518850 0.571047
v -0.048322 0.518850 0.571047
v -0.047455 0.517823 0.567777
v -0.048322 0.518850 0.567777
v -0.047455 0.517823 0.571047
v -0.046509 0.516869 0.567777
v -0.046509 0.516869 0.571047
v -0.045491 0.515993 0.567777
v -0.045491 0.515993 0.571047
v -0.044406 0.515200 0.571047
v -0.044406 0.515200 0.567777
v -0.043261 0.514496 0.567777
v -0.043261 0.514496 0.571047
v -0.042065 0.513886 0.571047
v -0.042065 0.513886 0.567777
v -0.040824 0.513372 0.567777
v -0.040824 0.513372 0.571047
v -0.039545 0.512958 0.567777
v -0.039545 0.512958 0.571047
v -0.038238 0.512647 0.571047
v -0.038238 0.512647 0.567777
v -0.036911 0.512440 0.571047
v -0.036911 0.512440 0.567777
v -0.035571 0.512340 0.567777
v -0.035571 0.512340 0.571047
v -0.034228 0.512346 0.567777
v -0.034228 0.512346 0.571047
v -0.034228 0.512346 0.567777
v -0.035822 0.511979 0.571047
v -0.035822 0.511979 0.567777
v -0.034228 0.512346 0.571047
v -0.037443 0.511757 0.571047
v -0.037443 0.511757 0.567777
v -0.039077 0.511683 0.571047
v -0.039077 0.511683 0.567777
v -0.040711 0.511756 0.571047
v -0.040711 0.511756 0.567777
v -0.042332 0.511976 0.571047
v -0.042332 0.511976 0.567777
v -0.043927 0.512341 0.571047
v -0.043927 0.512341 0.567777
v -0.045482 0.512849 0.571047
v -0.045482 0.512849 0.567777
v -0.046985 0.513495 0.571047
v -0.046985 0.513495 0.567777
v -0.048424 0.514274 0.571047
v -0.048424 0.514274 0.567777
v -0.049786 0.515180 0.571047
v -0.049786 0.515180 0.567777
v -0.051061 0.516204 0.571047
v -0.051061 0.516204 0.567777
v -0.052239 0.517340 0.571047
v -0.052239 0.517340 0.567777
v -0.052239 0.517340 0.567777
v -0.060603 0.527936 0.571047
v -0.060603 0.527936 0.567777
v -0.052239 0.517340 0.571047
v -0.060603 0.527936 0.571047
v -0.060603 0.519629 0.567777
v -0.060603 0.527936 0.567777
v -0.060603 0.519629 0.571047
v -0.060603 0.519629 0.567777
v -0.062679 0.519629 0.571047
v -0.062679 0.519629 0.567777
v -0.060603 0.519629 0.571047
v -0.062679 0.519629 0.571047
v -0.062679 0.537281 0.567777
v -0.062679 0.519629 0.567777
v -0.062679 0.537281 0.571047
v -0.062679 0.519629 0.571047
v -0.060603 0.527936 0.571047
v -0.062679 0.537281 0.571047
v -0.060603 0.519629 0.571047
v -0.048322 0.518850 0.571047
v -0.052239 0.517340 0.571047
v -0.047455 0.517823 0.571047
v -0.046509 0.516869 0.571047
v -0.051061 0.516204 0.571047
v -0.045491 0.515993 0.571047
v -0.049786 0.515180 0.571047
v -0.044406 0.515200 0.571047
v -0.043261 0.514496 0.571047
v -0.048424 0.514274 0.571047
v -0.042065 0.513886 0.571047
v -0.046985 0.513495 0.571047
v -0.040824 0.513372 0.571047
v -0.045482 0.512849 0.571047
v -0.039545 0.512958 0.571047
v -0.038238 0.512647 0.571047
v -0.043927 0.512341 0.571047
v -0.036911 0.512440 0.571047
v -0.035571 0.512340 0.571047
v -0.042332 0.511976 0.571047
v -0.035822 0.511979 0.571047
v -0.037443 0.511757 0.571047
v -0.040711 0.511756 0.571047
v -0.039077 0.511683 0.571047
v -0.034228 0.512346 0.571047
vn 0 0 -1
vn 0.7889037215544558 0.6145168167898496 0
vn 0.7638754676201066 0.6453636726436988 0
vn 0.7376418706505402 0.6751921731353021 0
vn 0.6817260432445265 0.7316075464087027 0
vn 0.6215090109603121 0.7834070138153825 0
vn 0.5573706791518489 0.8302637689444281 0
vn 0.4897158095323066 0.8718821169711636 0
vn 0.4189710882195036 0.9079995744691541 0
vn 0.34558308394682863 0.9383881564095955 0
vn 0.27001460727802834 0.9628562259530195 0
vn 0.19274259085868997 0.9812493534617385 0
vn 0.11425450150687462 0.9934515131023837 0
vn 0.03504548064776509 0.9993857184721858 0
vn -0.004673250907951079 0.9999890803033558 0
vn 0.22434360158577557 -0.9745101068883395 0
vn 0.18012309580147245 -0.9836440770720339 0
vn 0.09067125798824012 -0.995880877903994 0
vn 0.00048034079261965855 -0.9999998846363549 0
vn -0.08971449220822367 -0.9959675245146403 0
vn -0.17917799508309754 -0.9838166730026492 0
vn -0.26718099051588245 -0.9636463657934647 0
vn -0.3530061066580117 -0.9356210176466498 0
vn -0.4359536979295474 -0.8999690957258216 0
vn -0.5153476925149024 -0.8569811875528922 0
vn -0.5905409051872823 -0.807007707088715 0
vn -0.6609204055939779 -0.7504560063517993 0
vn -0.6941240780969259 -0.7198553772849744 0
vn -0.7849371669427647 -0.619575373906893 0
vn 1 0 0
vn 0 -1 0
vn -1 0 0
vn 0 0 1
usemtl material_0_0
f 1//1 2//1 3//1
f 4//1 5//1 6//1
f 5//1 4//1 7//1
f 7//1 4//1 8//1
f 7//1 8//1 9//1
f 7//1 9//1 10//1
f 10//1 9//1 11//1
f 10//1 11//1 12//1
f 12//1 11//1 13//1
f 12//1 13//1 14//1
f 12//1 14//1 15//1
f 15//1 14//1 16//1
f 15//1 16//1 17//1
f 17//1 16//1 18//1
f 17//1 18//1 19//1
f 19//1 18//1 20//1
f 19//1 20//1 21//1
f 19//1 21//1 22//1
f 22//1 21//1 23//1
f 22//1 23//1 2//1
f 22//1 2//1 24//1
f 24//1 2//1 1//1
f 24//1 1//1 25//1
f 24//1 25//1 26//1
f 26//1 25//1 27//1
f 5//1 28//1 6//1
f 28//1 5//1 29//1
f 30//2 31//2 32//2
f 31//2 30//2 33//2
f 34//3 35//4 36//3
f 35//4 34//3 37//4
f 37//4 38//5 35//4
f 38//5 37//4 39//5
f 39//5 40//6 38//5
f 40//6 39//5 41//6
f 42//7 40//6 41//6
f 40//6 42//7 43//7
f 42//7 44//8 43//7
f 44//8 42//7 45//8
f 46//9 44//8 45//8
f 44//8 46//9 47//9
f 46//9 48//10 47//9
f 48//10 46//9 49//10
f 49//10 50//11 48//10
f 50//11 49//10 51//11
f 52//12 50//11 51//11
f 50//11 52//12 53//12
f 54//13 53//12 52//12
f 53//12 54//13 55//13
f 54//13 56//14 55//13
f 56//14 54//13 57//14
f 57//14 58//15 56//14
f 58//15 57//14 59//15
f 60//16 61//17 62//17
f 61//17 60//16 63//16
f 62//17 64//18 65//18
f 64//18 62//17 61//17
f 65//18 66//19 67//19
f 66//19 65//18 64//18
f 67//19 68//20 69//20
f 68//20 67//19 66//19
f 69//20 70//21 71//21
f 70//21 69//20 68//20
f 71//21 72//22 73//22
f 72//22 71//21 70//21
f 73//22 74//23 75//23
f 74//23 73//22 72//22
f 75//23 76//24 77//24
f 76//24 75//23 74//23
f 77//24 78//25 79//25
f 78//25 77//24 76//24
f 79//25 80//26 81//26
f 80//26 79//25 78//25
f 81//26 82//27 83//27
f 82//27 81//26 80//26
f 83//27 84//28 85//28
f 84//28 83//27 82//27
f 86//29 87//29 88//29
f 87//29 86//29 89//29
f 90//30 91//30 92//30
f 91//30 90//30 93//30
f 94//31 95//31 96//31
f 95//31 94//31 97//31
f 98//32 99//32 100//32
f 99//32 98//32 101//32
f 102//33 103//33 104//33
f 103//33 102//33 105//33
f 103//33 106//33 104//33
f 106//33 103//33 107//33
f 106//33 107//33 108//33
f 108//33 107//33 109//33
f 109//33 107//33 110//33
f 109//33 110//33 111//33
f 111//33 110//33 112//33
f 111//33 112//33 113//33
f 113//33 112//33 114//33
f 114//33 112//33 115//33
f 114//33 115//33 116//33
f 116//33 115//33 117//33
f 116//33 117//33 118//33
f 118//33 117//33 119//33
f 118//33 119//33 120//33
f 120//33 119//33 121//33
f 121//33 119//33 122//33
f 121//33 122//33 123//33
f 123//33 122//33 124//33
f 124//33 122//33 125//33
f 124//33 125//33 126//33
f 126//33 125//33 127//33
f 127//33 125//33 128//33
f 127//33 128//33 129//33
f 126//33 130//33 124//33
