# SSTK version 0.8.0
# 76
mtllib original-76.mtl
o #ID722
v -0.000879 0.602455 0.084808
v -0.003225 0.602455 0.293130
v -0.000879 0.602455 0.294102
v -0.006140 0.602455 0.290893
v -0.008377 0.602455 0.287978
v -0.009783 0.602455 0.284584
v -0.010263 0.602455 0.280941
v -0.010263 0.602455 0.097969
v -0.009783 0.602455 0.094326
v -0.008377 0.602455 0.090931
v -0.006140 0.602455 0.088016
v -0.003225 0.602455 0.085779
v -0.003225 0.602455 0.085779
v -0.000879 0.602455 0.084808
v -0.006140 0.602455 0.088016
v -0.008377 0.602455 0.090931
v -0.009783 0.602455 0.094326
v -0.010263 0.602455 0.097969
v -0.010263 0.602455 0.280941
v -0.009783 0.602455 0.284584
v -0.008377 0.602455 0.287978
v -0.006140 0.602455 0.290893
v -0.003225 0.602455 0.293130
v -0.000879 0.602455 0.294102
v -0.000879 0.602455 0.084808
v -0.000879 0.583689 0.294102
v -0.000879 0.583689 0.084808
v -0.000879 0.602455 0.294102
v -0.000879 0.602455 0.294102
v -0.000879 0.602455 0.084808
v -0.000879 0.583689 0.294102
v -0.000879 0.583689 0.084808
v 0.000169 0.611838 0.084373
v -0.000879 0.602455 0.084808
v 0.000169 0.583689 0.084373
v -0.003225 0.611838 0.085779
v -0.003225 0.602455 0.085779
v -0.000879 0.583689 0.084808
v -0.000879 0.602455 0.084808
v 0.000169 0.583689 0.084373
v -0.000879 0.583689 0.084808
v -0.003225 0.602455 0.085779
v -0.003225 0.611838 0.085779
v 0.000169 0.611838 0.084373
v -0.006140 0.611838 0.088016
v -0.006140 0.602455 0.088016
v -0.006140 0.602455 0.088016
v -0.006140 0.611838 0.088016
v -0.008377 0.602455 0.090931
v -0.008377 0.611838 0.090931
v -0.008377 0.611838 0.090931
v -0.008377 0.602455 0.090931
v -0.009783 0.602455 0.094326
v -0.009783 0.611838 0.094326
v -0.009783 0.611838 0.094326
v -0.009783 0.602455 0.094326
v -0.010263 0.602455 0.097969
v -0.010263 0.611838 0.097969
v -0.010263 0.611838 0.097969
v -0.010263 0.602455 0.097969
v -0.010263 0.611838 0.097969
v -0.010263 0.602455 0.280941
v -0.010263 0.602455 0.097969
v -0.010263 0.611838 0.280941
v -0.010263 0.611838 0.280941
v -0.010263 0.611838 0.097969
v -0.010263 0.602455 0.280941
v -0.010263 0.602455 0.097969
v -0.010263 0.611838 0.280941
v -0.009783 0.602455 0.284584
v -0.010263 0.602455 0.280941
v -0.009783 0.611838 0.284584
v -0.009783 0.611838 0.284584
v -0.010263 0.611838 0.280941
v -0.009783 0.602455 0.284584
v -0.010263 0.602455 0.280941
v -0.008377 0.602455 0.287978
v -0.008377 0.611838 0.287978
v -0.008377 0.611838 0.287978
v -0.008377 0.602455 0.287978
v -0.006140 0.602455 0.290893
v -0.006140 0.611838 0.290893
v -0.006140 0.611838 0.290893
v -0.006140 0.602455 0.290893
v -0.003225 0.611838 0.293130
v -0.003225 0.602455 0.293130
v -0.003225 0.611838 0.293130
v -0.003225 0.602455 0.293130
v -0.000879 0.583689 0.294102
v 0.000169 0.611838 0.294536
v 0.000169 0.583689 0.294536
v -0.000879 0.602455 0.294102
v -0.000879 0.602455 0.294102
v 0.000169 0.611838 0.294536
v -0.000879 0.583689 0.294102
v 0.000169 0.583689 0.294536
v 0.007455 0.583689 0.294536
v 0.000169 0.583689 0.294536
v 0.003812 0.583689 0.295016
v 0.008504 0.583689 0.294102
v -0.000879 0.583689 0.294102
v 0.008504 0.583689 0.084808
v -0.000879 0.583689 0.084808
v 0.007455 0.583689 0.084373
v 0.000169 0.583689 0.084373
v 0.003812 0.583689 0.083894
v 0.003812 0.583689 0.083894
v 0.007455 0.583689 0.084373
v 0.000169 0.583689 0.084373
v -0.000879 0.583689 0.084808
v 0.008504 0.583689 0.084808
v -0.000879 0.583689 0.294102
v 0.008504 0.583689 0.294102
v 0.000169 0.583689 0.294536
v 0.007455 0.583689 0.294536
v 0.003812 0.583689 0.295016
v 0.003812 0.583689 0.083894
v 0.003812 0.611838 0.083894
v 0.003812 0.583689 0.083894
v 0.003812 0.611838 0.083894
v 0.003812 0.611838 0.295016
v 0.003812 0.583689 0.295016
v 0.003812 0.611838 0.295016
v 0.003812 0.583689 0.295016
v 0.008504 0.602455 0.294102
v 0.008504 0.583689 0.084808
v 0.008504 0.583689 0.294102
v 0.008504 0.602455 0.084808
v 0.008504 0.602455 0.084808
v 0.008504 0.602455 0.294102
v 0.008504 0.583689 0.084808
v 0.008504 0.583689 0.294102
v 0.007455 0.611838 0.084373
v 0.010850 0.602455 0.085779
v 0.010850 0.611838 0.085779
v 0.008504 0.602455 0.084808
v 0.008504 0.583689 0.084808
v 0.007455 0.583689 0.084373
v 0.007455 0.583689 0.084373
v 0.007455 0.611838 0.084373
v 0.008504 0.583689 0.084808
v 0.008504 0.602455 0.084808
v 0.010850 0.602455 0.085779
v 0.010850 0.611838 0.085779
v 0.007455 0.611838 0.294536
v 0.007455 0.583689 0.294536
v 0.007455 0.611838 0.294536
v 0.007455 0.583689 0.294536
v 0.008504 0.602455 0.294102
v 0.008504 0.583689 0.294102
v 0.010850 0.611838 0.293130
v 0.010850 0.602455 0.293130
v 0.008504 0.602455 0.294102
v 0.010850 0.611838 0.293130
v 0.010850 0.602455 0.293130
v 0.008504 0.583689 0.294102
v 0.010850 0.602455 0.293130
v 0.008504 0.602455 0.084808
v 0.008504 0.602455 0.294102
v 0.013764 0.602455 0.290893
v 0.016001 0.602455 0.287978
v 0.017407 0.602455 0.284584
v 0.017887 0.602455 0.280941
v 0.017887 0.602455 0.097969
v 0.017407 0.602455 0.094326
v 0.016001 0.602455 0.090931
v 0.013764 0.602455 0.088016
v 0.010850 0.602455 0.085779
v 0.010850 0.602455 0.085779
v 0.013764 0.602455 0.088016
v 0.008504 0.602455 0.084808
v 0.016001 0.602455 0.090931
v 0.017407 0.602455 0.094326
v 0.017887 0.602455 0.097969
v 0.017887 0.602455 0.280941
v 0.017407 0.602455 0.284584
v 0.016001 0.602455 0.287978
v 0.013764 0.602455 0.290893
v 0.010850 0.602455 0.293130
v 0.008504 0.602455 0.294102
v 0.013764 0.602455 0.088016
v 0.013764 0.611838 0.088016
v 0.013764 0.602455 0.088016
v 0.013764 0.611838 0.088016
v 0.013764 0.611838 0.290893
v 0.013764 0.602455 0.290893
v 0.013764 0.611838 0.290893
v 0.013764 0.602455 0.290893
v 0.016001 0.602455 0.287978
v 0.016001 0.611838 0.287978
v 0.016001 0.611838 0.287978
v 0.016001 0.602455 0.287978
v 0.017407 0.602455 0.284584
v 0.017407 0.611838 0.284584
v 0.017407 0.611838 0.284584
v 0.017407 0.602455 0.284584
v 0.017887 0.602455 0.280941
v 0.017887 0.611838 0.280941
v 0.017887 0.611838 0.280941
v 0.017887 0.602455 0.280941
v 0.017887 0.611838 0.280941
v 0.017887 0.602455 0.097969
v 0.017887 0.602455 0.280941
v 0.017887 0.611838 0.097969
v 0.017887 0.611838 0.097969
v 0.017887 0.611838 0.280941
v 0.017887 0.602455 0.097969
v 0.017887 0.602455 0.280941
v 0.017887 0.611838 0.097969
v 0.017407 0.602455 0.094326
v 0.017887 0.602455 0.097969
v 0.017407 0.611838 0.094326
v 0.017407 0.611838 0.094326
v 0.017887 0.611838 0.097969
v 0.017407 0.602455 0.094326
v 0.017887 0.602455 0.097969
v 0.016001 0.602455 0.090931
v 0.016001 0.611838 0.090931
v 0.016001 0.611838 0.090931
v 0.016001 0.602455 0.090931
vn 0 1 0
vn 0 -1 0
vn 1 0 0
vn -1 0 0
vn 0.2588190095935621 0 0.9659258358036644
vn 0.382683416234233 0 0.9238795391929063
vn 0.5000000016387104 0 0.8660254028383287
vn -0.382683416234233 0 -0.9238795391929063
vn -0.2588190095935621 0 -0.9659258358036644
vn -0.5000000016387104 0 -0.8660254028383287
vn 0.7071067811865479 0 0.7071067811865472
vn -0.7071067811865479 0 -0.7071067811865472
vn 0.8660254028383292 0 0.5000000016387096
vn -0.8660254028383292 0 -0.5000000016387096
vn 0.9659258358036646 0 0.2588190095935612
vn -0.9659258358036646 0 -0.2588190095935612
vn 0.9914448610250888 0 0.13052619486885506
vn -0.9914448610250888 0 -0.13052619486885506
vn 0.9914448610250886 0 -0.13052619486885594
vn 0.9659258358036644 0 -0.2588190095935621
vn -0.9659258358036644 0 0.2588190095935621
vn -0.9914448610250886 0 0.13052619486885594
vn 0.8660254028383287 0 -0.5000000016387104
vn -0.8660254028383287 0 0.5000000016387104
vn 0.7071067811865472 0 -0.7071067811865479
vn -0.7071067811865472 0 0.7071067811865479
vn 0.5000000016387096 0 -0.8660254028383292
vn -0.5000000016387096 0 0.8660254028383292
vn 0.3826834162342322 0 -0.9238795391929066
vn 0.2588190095935612 0 -0.9659258358036646
vn -0.3826834162342322 0 0.9238795391929066
vn -0.2588190095935612 0 0.9659258358036646
vn 0 0 1
vn 0 0 -1
usemtl material_0_0
f 1//1 2//1 3//1
f 2//1 1//1 4//1
f 4//1 1//1 5//1
f 5//1 1//1 6//1
f 6//1 1//1 7//1
f 7//1 1//1 8//1
f 8//1 1//1 9//1
f 9//1 1//1 10//1
f 10//1 1//1 11//1
f 11//1 1//1 12//1
f 13//2 14//2 15//2
f 15//2 14//2 16//2
f 16//2 14//2 17//2
f 17//2 14//2 18//2
f 18//2 14//2 19//2
f 19//2 14//2 20//2
f 20//2 14//2 21//2
f 21//2 14//2 22//2
f 22//2 14//2 23//2
f 24//2 23//2 14//2
f 25//3 26//3 27//3
f 26//3 25//3 28//3
f 29//4 30//4 31//4
f 32//4 31//4 30//4
f 33//5 34//6 35//5
f 34//6 33//5 36//7
f 34//6 36//7 37//7
f 38//6 35//5 34//6
f 39//8 40//9 41//8
f 42//10 43//10 39//8
f 43//10 44//9 39//8
f 40//9 39//8 44//9
f 45//11 37//7 36//7
f 37//7 45//11 46//11
f 47//12 48//12 42//10
f 43//10 42//10 48//12
f 45//11 49//13 46//11
f 49//13 45//11 50//13
f 51//14 48//12 52//14
f 47//12 52//14 48//12
f 50//13 53//15 49//13
f 53//15 50//13 54//15
f 55//16 51//14 56//16
f 52//14 56//16 51//14
f 54//15 57//17 53//15
f 57//17 54//15 58//17
f 59//18 55//16 60//18
f 56//16 60//18 55//16
f 61//3 62//3 63//3
f 62//3 61//3 64//3
f 65//4 66//4 67//4
f 68//4 67//4 66//4
f 69//19 70//20 71//19
f 70//20 69//19 72//20
f 73//21 74//22 75//21
f 76//22 75//21 74//22
f 72//20 77//23 70//20
f 77//23 72//20 78//23
f 79//24 73//21 80//24
f 75//21 80//24 73//21
f 78//23 81//25 77//23
f 81//25 78//23 82//25
f 83//26 79//24 84//26
f 80//24 84//26 79//24
f 81//25 85//27 86//27
f 85//27 81//25 82//25
f 83//26 84//26 87//28
f 88//28 87//28 84//26
f 89//29 90//30 91//30
f 90//30 89//29 92//29
f 90//30 92//29 85//27
f 85//27 92//29 86//27
f 88//28 93//31 87//28
f 87//28 93//31 94//32
f 93//31 95//31 94//32
f 96//32 94//32 95//31
f 97//1 98//1 99//1
f 98//1 97//1 100//1
f 98//1 100//1 101//1
f 101//1 100//1 102//1
f 101//1 102//1 103//1
f 103//1 102//1 104//1
f 103//1 104//1 105//1
f 105//1 104//1 106//1
f 107//2 108//2 109//2
f 109//2 108//2 110//2
f 108//2 111//2 110//2
f 110//2 111//2 112//2
f 111//2 113//2 112//2
f 112//2 113//2 114//2
f 113//2 115//2 114//2
f 116//2 114//2 115//2
f 33//5 117//33 118//33
f 117//33 33//5 35//5
f 40//9 44//9 119//34
f 120//34 119//34 44//9
f 91//30 121//34 122//34
f 121//34 91//30 90//30
f 94//32 96//32 123//33
f 124//33 123//33 96//32
f 125//4 126//4 127//4
f 126//4 125//4 128//4
f 129//3 130//3 131//3
f 132//3 131//3 130//3
f 133//32 134//28 135//28
f 134//28 133//32 136//31
f 136//31 133//32 137//31
f 137//31 133//32 138//32
f 139//30 140//30 141//29
f 141//29 140//30 142//29
f 142//29 140//30 143//27
f 144//27 143//27 140//30
f 118//33 138//32 133//32
f 138//32 118//33 117//33
f 119//34 120//34 139//30
f 140//30 139//30 120//34
f 122//34 145//9 146//9
f 145//9 122//34 121//34
f 123//33 124//33 147//5
f 148//5 147//5 124//33
f 146//9 149//8 150//8
f 149//8 151//10 152//10
f 151//10 149//8 145//9
f 145//9 149//8 146//9
f 148//5 153//6 147//5
f 147//5 153//6 154//7
f 155//7 154//7 153//6
f 156//6 153//6 148//5
f 157//1 158//1 159//1
f 158//1 157//1 160//1
f 158//1 160//1 161//1
f 158//1 161//1 162//1
f 158//1 162//1 163//1
f 158//1 163//1 164//1
f 158//1 164//1 165//1
f 158//1 165//1 166//1
f 158//1 166//1 167//1
f 158//1 167//1 168//1
f 169//2 170//2 171//2
f 170//2 172//2 171//2
f 172//2 173//2 171//2
f 173//2 174//2 171//2
f 174//2 175//2 171//2
f 175//2 176//2 171//2
f 176//2 177//2 171//2
f 177//2 178//2 171//2
f 178//2 179//2 171//2
f 180//2 171//2 179//2
f 135//28 181//26 182//26
f 181//26 135//28 134//28
f 143//27 144//27 183//25
f 184//25 183//25 144//27
f 152//10 185//12 186//12
f 185//12 152//10 151//10
f 154//7 155//7 187//11
f 188//11 187//11 155//7
f 185//12 189//14 186//12
f 189//14 185//12 190//14
f 191//13 187//11 192//13
f 188//11 192//13 187//11
f 190//14 193//16 189//14
f 193//16 190//14 194//16
f 195//15 191//13 196//15
f 192//13 196//15 191//13
f 194//16 197//18 193//16
f 197//18 194//16 198//18
f 199//17 195//15 200//17
f 196//15 200//17 195//15
f 201//4 202//4 203//4
f 202//4 201//4 204//4
f 205//3 206//3 207//3
f 208//3 207//3 206//3
f 209//22 210//21 211//22
f 210//21 209//22 212//21
f 213//20 214//19 215//20
f 216//19 215//20 214//19
f 212//21 217//24 210//21
f 217//24 212//21 218//24
f 219//23 213//20 220//23
f 215//20 220//23 213//20
f 218//24 181//26 217//24
f 181//26 218//24 182//26
f 184//25 219//23 183//25
f 220//23 183//25 219//23
