# SSTK version 0.8.0
# 16
mtllib original-16.mtl
o #ID82
v 0.068913 0.528352 0.569534
v 0.069155 0.525129 0.571334
v 0.069155 0.525129 0.569534
v 0.068913 0.528352 0.571334
v 0.069110 0.531016 0.569534
v 0.069110 0.531016 0.571334
v 0.069155 0.525129 0.569534
v 0.069459 0.523990 0.571334
v 0.069459 0.523990 0.569534
v 0.069155 0.525129 0.571334
v 0.069704 0.532772 0.569534
v 0.069110 0.531016 0.571334
v 0.069110 0.531016 0.569534
v 0.069704 0.532772 0.571334
v 0.069459 0.523990 0.569534
v 0.069884 0.523164 0.571334
v 0.069884 0.523164 0.569534
v 0.069459 0.523990 0.571334
v 0.070165 0.533341 0.569534
v 0.069704 0.532772 0.571334
v 0.069704 0.532772 0.569534
v 0.070165 0.533341 0.571334
v 0.069884 0.523164 0.569534
v 0.070418 0.522579 0.571334
v 0.070418 0.522579 0.569534
v 0.069884 0.523164 0.571334
v 0.070754 0.533748 0.571334
v 0.070165 0.533341 0.569534
v 0.070754 0.533748 0.569534
v 0.070165 0.533341 0.571334
v 0.070418 0.522579 0.571334
v 0.071048 0.522161 0.569534
v 0.070418 0.522579 0.569534
v 0.071048 0.522161 0.571334
v 0.071472 0.533992 0.571334
v 0.070754 0.533748 0.569534
v 0.071472 0.533992 0.569534
v 0.070754 0.533748 0.571334
v 0.071048 0.522161 0.571334
v 0.071773 0.521910 0.569534
v 0.071048 0.522161 0.569534
v 0.071773 0.521910 0.571334
v 0.072319 0.534073 0.571334
v 0.071472 0.533992 0.569534
v 0.072319 0.534073 0.569534
v 0.071472 0.533992 0.571334
v 0.071773 0.521910 0.571334
v 0.072595 0.521826 0.569534
v 0.071773 0.521910 0.569534
v 0.072595 0.521826 0.571334
v 0.073146 0.533993 0.571334
v 0.072319 0.534073 0.569534
v 0.073146 0.533993 0.569534
v 0.072319 0.534073 0.571334
v 0.072595 0.521826 0.571334
v 0.073442 0.521908 0.569534
v 0.072595 0.521826 0.569534
v 0.073442 0.521908 0.571334
v 0.073874 0.533752 0.571334
v 0.073146 0.533993 0.569534
v 0.073874 0.533752 0.569534
v 0.073146 0.533993 0.571334
v 0.073442 0.521908 0.571334
v 0.074160 0.522152 0.569534
v 0.073442 0.521908 0.569534
v 0.074160 0.522152 0.571334
v 0.074504 0.533351 0.569534
v 0.073874 0.533752 0.571334
v 0.073874 0.533752 0.569534
v 0.074504 0.533351 0.571334
v 0.074160 0.522152 0.571334
v 0.074750 0.522558 0.569534
v 0.074160 0.522152 0.569534
v 0.074750 0.522558 0.571334
v 0.075036 0.532790 0.571334
v 0.074504 0.533351 0.569534
v 0.075036 0.532790 0.569534
v 0.074504 0.533351 0.571334
v 0.074750 0.522558 0.571334
v 0.075210 0.523128 0.569534
v 0.074750 0.522558 0.569534
v 0.075210 0.523128 0.571334
v 0.075458 0.531981 0.571334
v 0.075036 0.532790 0.569534
v 0.075458 0.531981 0.569534
v 0.075036 0.532790 0.571334
v 0.075210 0.523128 0.571334
v 0.075803 0.524884 0.569534
v 0.075210 0.523128 0.569534
v 0.075803 0.524884 0.571334
v 0.075760 0.530838 0.571334
v 0.075458 0.531981 0.569534
v 0.075760 0.530838 0.569534
v 0.075458 0.531981 0.571334
v 0.076001 0.527548 0.571334
v 0.075803 0.524884 0.569534
v 0.075803 0.524884 0.571334
v 0.076001 0.527548 0.569534
v 0.075760 0.530838 0.569534
v 0.075760 0.530838 0.571334
vn 0.9999998500497643 0.000547631672656878 0
vn 0.9971706925100597 0.0751705394353909 0
vn 0.9972524257882763 -0.07407833191560455 0
vn 0.9663085664986015 0.25738639107656386 0
vn 0.9472989449625923 -0.3203509152051223 0
vn 0.8891189345050788 0.45767621776158907 0
vn 0.7776638367685257 -0.6286803297244599 0
vn 0.7387839917310455 0.6739422924568114 0
vn 0.5680397251706167 -0.8230011364682858 0
vn 0.5529826005876454 0.8331928008854402 0
vn 0.32170660227191544 -0.9468394066866141 0
vn 0.32660629249458667 0.9451604782802444 0
vn 0.0955769641400784 -0.9954220431182775 0
vn 0.10121019636745122 0.9948650642932749 0
vn -0.0965971462276249 -0.9953235611300875 0
vn -0.09557705331793505 0.9954220345557258 0
vn -0.31373349403192186 -0.9495110819377108 0
vn -0.32170678157287186 0.946839345765703 0
vn -0.5369738803031392 -0.8435988690557793 0
vn -0.5680397929037011 0.8230010897185497 0
vn -0.7259917782061551 -0.6877033793555656 0
vn -0.7776636994642202 0.6286804995668493 0
vn -0.8864008997432178 -0.46291839986590944 0
vn -0.9472989552250621 0.3203508848583152 0
vn -0.9668893467010162 -0.25519598593254167 0
vn -0.9999998996206205 0.00044806109981880153 0
vn -0.9972524250495283 0.07407834186072881 0
vn -0.9973184079914206 -0.07318465058643311 0
usemtl material_0_0
f 1//1 2//2 3//2
f 2//2 1//1 4//1
f 5//3 4//1 1//1
f 4//1 5//3 6//3
f 7//4 8//4 9//4
f 8//4 7//4 10//4
f 11//5 12//5 13//5
f 12//5 11//5 14//5
f 15//6 16//6 17//6
f 16//6 15//6 18//6
f 19//7 20//7 21//7
f 20//7 19//7 22//7
f 23//8 24//8 25//8
f 24//8 23//8 26//8
f 27//9 28//9 29//9
f 28//9 27//9 30//9
f 31//10 32//10 33//10
f 32//10 31//10 34//10
f 35//11 36//11 37//11
f 36//11 35//11 38//11
f 39//12 40//12 41//12
f 40//12 39//12 42//12
f 43//13 44//13 45//13
f 44//13 43//13 46//13
f 47//14 48//14 49//14
f 48//14 47//14 50//14
f 51//15 52//15 53//15
f 52//15 51//15 54//15
f 55//16 56//16 57//16
f 56//16 55//16 58//16
f 59//17 60//17 61//17
f 60//17 59//17 62//17
f 63//18 64//18 65//18
f 64//18 63//18 66//18
f 67//19 68//19 69//19
f 68//19 67//19 70//19
f 71//20 72//20 73//20
f 72//20 71//20 74//20
f 75//21 76//21 77//21
f 76//21 75//21 78//21
f 79//22 80//22 81//22
f 80//22 79//22 82//22
f 83//23 84//23 85//23
f 84//23 83//23 86//23
f 87//24 88//24 89//24
f 88//24 87//24 90//24
f 91//25 92//25 93//25
f 92//25 91//25 94//25
f 95//26 96//27 97//27
f 96//27 95//26 98//26
f 95//26 99//28 98//26
f 99//28 95//26 100//28
