<svg xmlns="http://www.w3.org/2000/svg"
shape-rendering="geometricPrecision"
width="4000" height="4000" viewBox="0 0 1024 1024">
  <metadata>null</metadata>

<path d="
M 51.269 405.489
C 51.35 405.329 51.432 405.168 51.513 405.007
C 55.178 402.274 60.043 400.822 64.189 398.964
C 74.529 394.331 85.103 390.295 95.81 386.606
C 115.604 379.784 135.938 374.954 156.664 372
C 165.277 370.772 174.028 369.273 182.749 369.138
C 191.743 368.998 200.914 370.8 209.783 372.079
C 226.538 374.496 243.635 377.683 259.717 383.065
C 273.519 387.684 287.085 392.524 300.431 398.366
C 304.096 399.971 307.728 401.682 311.255 403.573
C 312.354 404.162 314.309 404.667 315.048 405.677
C 315.38 411.589 315.127 417.58 315.124 423.501
C 315.119 434.336 315.132 445.17 315.159 456.005
C 315.197 471.782 315.904 487.755 314.095 503.453
C 313.216 511.086 311.551 518.714 309.578 526.132
C 302.101 554.242 286.828 579.365 267.2 600.611
C 257.749 610.842 247.939 620.81 237.002 629.47
C 224.115 639.675 211.086 649.384 197.147 658.128
C 193.615 660.344 190.027 662.488 186.37 664.492
C 185.313 665.072 183.744 666.642 182.478 666.5
C 181.055 666.341 179.532 664.908 178.351 664.179
C 175.222 662.249 172.094 660.31 168.95 658.404
C 155.43 650.208 142.559 640.864 130.316 630.878
C 113.074 616.814 96.355 600.595 83.399 582.433
C 68.91 562.122 58.197 537.985 53.807 513.369
C 51.216 498.842 51.309 484.203 51.272 469.501
C 51.217 448.184 51.803 426.797 51.269 405.489 Z
M 69.904 417.46
C 70.129 422.29 69.829 427.171 69.821 432.006
C 69.801 444.508 69.87 457.01 69.877 469.512
C 69.885 482.745 69.899 495.748 71.972 508.852
C 75.284 529.796 83.9 550.316 95.916 567.76
C 108.05 585.376 123.455 600.637 139.65 614.493
C 149.273 622.726 159.57 630.303 170.193 637.197
C 172.954 638.99 175.777 640.693 178.601 642.386
C 179.798 643.104 181.196 644.365 182.524 644.733
C 186.636 643.245 190.843 639.946 194.49 637.539
C 203.523 631.578 212.239 625.207 220.827 618.623
C 228.794 612.515 236.261 605.61 243.396 598.557
C 258.481 583.647 272.204 567.224 281.537 548.021
C 287.807 535.122 292.008 521.498 294.466 507.38
C 296.912 493.327 296.652 479.218 296.596 465.003
C 296.535 449.213 296.525 433.417 296.585 417.628
C 292.485 414.461 286.423 412.748 281.65 410.812
C 269.477 405.875 256.974 401.548 244.248 398.276
C 230.918 394.849 217.45 392.085 203.806 390.218
C 196.924 389.276 189.974 388.144 183.014 388.085
C 171.705 387.989 160.042 390.163 148.942 392.112
C 129.653 395.5 111.163 400.872 92.799 407.603
C 85.086 410.43 77.385 413.374 70.038 417.064
C 69.994 417.196 69.949 417.328 69.904 417.46 Z"
opacity="1" fill="rgb(45,77,168)" fill-rule="evenodd" />
<path d="
M 91.938 502.105
C 92.812 495.648 93.661 489.402 96.115 483.295
C 99.271 475.442 104.799 467.751 112.819 464.369
C 119.188 461.684 126.419 462.343 133.18 462.356
C 143.954 462.377 154.728 462.346 165.503 462.341
C 169.836 462.338 174.169 462.327 178.502 462.322
C 179.861 462.32 182.376 462.779 183.597 462.253
C 183.722 459.981 183.433 457.682 183.429 455.409
C 182.87 454.834 181.264 454.993 180.444 454.974
C 177.545 454.908 174.642 454.964 171.742 454.957
C 160.305 454.93 148.739 455.749 137.312 455.11
C 137.07 451.144 137.247 447.134 137.207 443.159
C 137.137 436.348 136.758 430.33 141.029 424.603
C 145.694 418.348 153.98 415.496 161.38 414.168
C 172.43 412.186 184.008 412.011 195.123 413.538
C 203.324 414.665 211.559 417.041 217.744 422.862
C 221.514 426.411 224.403 431.391 225.244 436.54
C 226.107 441.825 225.433 447.662 225.46 453.013
C 225.513 463.673 226.322 474.752 225.276 485.366
C 224.314 495.13 214.904 503.291 205.475 504.677
C 200.917 505.346 196.101 504.909 191.505 504.906
C 183.339 504.901 175.172 504.958 167.006 504.962
C 161.594 504.964 155.595 504.334 150.362 505.992
C 147.799 506.804 145.264 508.103 143.148 509.763
C 140.238 512.044 137.583 514.67 135.733 517.919
C 129.74 528.443 131.763 541.806 131.554 553.404
C 128.824 554.343 124.875 553.658 121.999 553.676
C 118.709 553.696 114.306 554.453 111.214 553.176
C 105.354 550.757 100.949 545.076 98.16 539.589
C 92.302 528.063 91.006 514.848 91.938 502.105 Z
M 149.45 434.611
C 148.506 442.454 159.535 447.718 163.799 440.23
C 164.338 439.283 164.74 438.232 164.894 437.151
C 166.06 428.914 154.595 423.921 150.412 431.791
C 149.948 432.665 149.569 433.622 149.45 434.611 Z"
opacity="1" fill="rgb(42,81,165)" fill-rule="evenodd" />
<path d="
M 138.88 534.59
C 139.406 532.014 140.303 529.551 141.45 527.188
C 145.525 518.789 153.501 513.867 162.598 512.501
C 167.146 511.819 171.923 512.173 176.508 512.132
C 184.663 512.058 192.82 512.056 200.975 512.095
C 207.747 512.127 214.063 512.507 220.226 509.212
C 222.338 508.083 224.251 506.512 225.866 504.75
C 234.198 495.663 233.064 483.955 233.092 472.493
C 233.099 469.808 232.826 466.957 233.225 464.297
C 237.415 464.263 241.619 464.128 245.813 464.051
C 248.151 464.009 250.773 463.74 253.04 464.434
C 254.438 464.863 255.786 465.852 257.005 466.645
C 270.104 475.17 273.99 492.099 274.194 506.724
C 274.239 509.994 274.36 513.384 273.993 516.635
C 273.441 521.511 273.504 526.306 272.202 531.09
C 270.127 538.714 266.684 546.227 260.14 551.059
C 252.58 556.642 244.327 556.35 235.384 556.384
C 224.756 556.424 214.129 556.385 203.502 556.366
C 199.669 556.36 195.836 556.361 192.003 556.37
C 190.239 556.375 188.15 556.063 186.524 556.826
C 186.415 558.917 186.009 561.742 186.566 563.769
C 190.485 563.417 194.569 563.738 198.505 563.75
C 207.729 563.777 216.995 564.013 226.214 563.738
C 226.545 568.475 226.443 573.24 226.467 577.999
C 226.498 583.952 226.823 589.121 223.001 594.073
C 218.362 600.084 210.202 603.038 202.976 604.388
C 197.65 605.383 192.376 605.644 186.964 605.668
C 173.055 605.73 156.467 604.593 146.024 594.12
C 136.255 584.322 138.637 570.081 138.591 557.5
C 138.564 549.99 137.91 542.048 138.88 534.59 Z
M 198.945 581.562
C 195.978 590.822 210.817 595.694 213.724 586.155
C 216.06 578.488 206.372 572.796 200.799 578.514
C 199.971 579.363 199.308 580.427 198.945 581.562 Z"
opacity="1" fill="rgb(250,180,34)" fill-rule="evenodd" />
<path d="
M 385.205 463.158
C 390.681 462.115 396.93 462.913 402.503 462.857
C 414.841 462.732 429.023 460.649 440.008 467.454
C 457.293 478.162 457.968 506.013 440.779 517.247
C 431.075 523.59 419.503 522.785 408.469 522.596
C 405.681 522.548 402.838 522.172 400.059 522.545
C 399.139 525.263 399.836 529.135 399.844 532.005
C 399.862 538.317 399.24 545.006 399.809 551.272
C 395.226 550.823 390.275 551.186 385.668 551.309
C 384.83 549.974 385.478 546.661 385.423 545.036
C 385.225 539.199 385.339 533.34 385.327 527.5
C 385.279 506.053 385.252 484.604 385.205 463.158 Z
M 399.731 476.227
C 399.929 484.141 399.734 492.087 399.773 500.008
C 399.784 502.342 399.864 504.674 399.902 507.009
C 399.916 507.868 399.736 509.016 400.151 509.782
C 406.769 509.301 413.476 510.012 420.111 509.65
C 423.921 509.442 428.086 508.976 431.428 506.99
C 438.134 503.002 439.618 494.468 437.903 487.317
C 437.122 484.057 435.421 480.643 432.45 478.89
C 426.483 475.369 419.143 476.167 412.499 476.249
C 408.263 476.301 403.953 475.942 399.731 476.227 Z"
opacity="1" fill="rgb(42,75,170)" fill-rule="evenodd" />
<path d="
M 458.857 487.381
C 460.272 486.88 461.987 487.137 463.478 487.047
C 466.692 486.854 469.911 486.887 473.13 486.774
C 476.064 493.528 478.229 500.61 480.935 507.46
C 484.732 517.072 488.874 526.664 492.25 536.425
C 492.899 536.206 493.368 533.787 493.644 533.079
C 494.832 530.038 496.109 527.038 497.138 523.935
C 499.89 515.635 503.126 507.477 506.277 499.321
C 507.795 495.392 508.8 490.655 510.934 487.055
C 515.675 487.325 520.515 486.721 525.24 487.183
C 523.899 492.129 521.355 496.978 519.444 501.734
C 515.264 512.142 510.979 522.519 506.953 532.989
C 504.449 539.5 501.688 545.928 499.271 552.47
C 497.544 557.143 495.802 562.324 492.871 566.393
C 487.312 574.112 478.668 576.418 469.609 574.227
C 467.64 573.751 463.544 572.849 462.282 571.17
C 463.896 567.901 464.693 564.11 465.844 560.669
C 471.121 561.966 477.014 565.994 481.485 560.603
C 482.288 559.634 482.999 558.527 483.598 557.42
C 484.223 556.266 485.055 554.846 485.146 553.508
C 485.303 551.209 483.734 548.629 482.843 546.593
C 480.922 542.21 479.242 537.718 477.296 533.343
C 470.597 518.284 464.977 502.675 458.857 487.381 Z"
opacity="1" fill="rgb(42,75,169)" fill-rule="evenodd" />
<path d="
M 536.239 463.24
C 541.94 462.831 547.783 463.115 553.504 463.094
C 562.738 463.06 571.979 462.899 581.21 462.939
C 585.65 462.958 590.085 462.942 594.524 463.027
C 596.28 463.061 598.67 462.553 600.328 463.103
C 600.126 466.066 600.307 469.154 600.408 472.124
C 600.442 473.131 600.566 474.134 600.59 475.137
C 600.592 475.249 600.607 476.365 600.546 476.324
C 596.257 476.67 591.806 476.343 587.5 476.37
C 575.261 476.444 563.007 476.093 550.777 476.216
C 551.276 481.965 550.737 487.967 550.737 493.744
C 550.737 495.192 550.783 496.64 550.809 498.088
C 550.818 498.579 550.639 499.465 550.957 499.828
C 565.672 498.871 580.682 499.368 595.42 499.513
C 595.883 503.918 595.289 508.396 595.688 512.803
C 580.76 512.012 565.769 513.379 550.827 512.482
C 550.566 517.808 550.69 523.171 550.729 528.503
C 550.753 531.733 550.489 535.291 551.082 538.469
C 557.251 537.688 563.793 538.248 570.004 538.248
C 580.548 538.248 591.116 538.067 601.656 538.336
C 602.435 541.44 601.829 545.297 601.922 548.498
C 601.944 549.242 602.443 551.367 601.766 551.833
C 596.553 551.555 591.227 551.884 586.002 551.887
C 569.587 551.897 553.031 552.453 536.636 551.623
C 536.086 549.403 536.415 546.774 536.411 544.493
C 536.403 540.16 536.394 535.827 536.373 531.494
C 536.297 515.994 536.405 500.493 536.377 484.993
C 536.369 480.326 536.385 475.659 536.399 470.992
C 536.406 468.461 536.72 465.723 536.239 463.24 Z"
opacity="1" fill="rgb(252,177,18)" fill-rule="evenodd" />
<path d="
M 616.453 488.043
C 616.509 487.871 616.566 487.699 616.622 487.528
C 619.859 487.421 623.099 487.441 626.339 487.433
C 627.107 487.431 629.226 487.09 629.779 487.535
C 629.93 490.702 629.958 493.945 629.943 497.117
C 629.99 497.559 632.546 494.608 632.987 494.121
C 635.021 491.877 637.642 489.766 640.371 488.432
C 648.162 484.623 658.588 484.997 665.785 489.868
C 674.653 495.871 674.855 505.311 674.902 515
C 674.935 521.666 674.946 528.333 674.96 534.999
C 674.968 538.512 674.889 542.035 674.99 545.547
C 675.045 547.451 675.497 549.538 675.184 551.426
C 673.782 551.696 672.01 551.424 670.564 551.433
C 667.303 551.453 663.943 551.424 660.695 551.673
C 660.879 542.123 660.678 532.557 660.815 523.002
C 660.902 516.968 661.601 510.384 659.108 504.707
C 656.218 498.126 646.108 496.862 640.134 499.786
C 635.919 501.849 632.504 506.217 630.851 510.549
C 629.631 513.745 630.644 518.596 630.67 522.002
C 630.724 528.835 630.665 535.668 630.67 542.501
C 630.673 545.449 631.132 548.669 630.806 551.589
C 626.126 551.944 621.381 551.585 616.692 551.716
C 616.852 543.758 616.424 535.773 616.398 527.81
C 616.355 514.546 616.608 501.302 616.453 488.043 Z"
opacity="1" fill="rgb(251,178,23)" fill-rule="evenodd" />
<path d="
M 686.474 490.616
C 686.569 489.659 686.563 488.7 686.658 487.746
C 689.257 487.695 692.05 487.988 694.606 487.484
C 695.218 486.784 694.634 484.153 694.558 483.288
C 694.265 479.942 694.548 476.565 695.493 473.335
C 696.08 471.327 696.801 469.26 697.97 467.508
C 699.746 464.846 702.674 461.893 705.518 460.413
C 711.898 457.091 719.653 458.412 726.153 460.28
C 726.359 464.456 726.226 468.72 726.248 472.906
C 725.271 473.025 723.677 472.077 722.739 471.778
C 720.823 471.167 718.764 470.8 716.749 470.898
C 708.142 471.317 707.285 480.568 708.989 487.418
C 713.428 487.094 718.518 486.852 722.928 487.493
C 723.201 491.215 723.143 494.956 723.313 498.688
C 718.573 499.124 713.586 498.799 708.82 498.885
C 708.273 499.937 708.607 501.799 708.591 502.999
C 708.549 506.332 708.632 509.667 708.646 513.001
C 708.681 521.404 708.672 529.808 708.593 538.21
C 708.552 542.521 707.871 547.415 708.822 551.653
C 704.366 552.115 699.201 551.856 694.713 551.679
C 695.254 542.35 694.777 532.851 694.783 523.503
C 694.788 515.433 695.315 507.239 694.935 499.197
C 692.414 498.703 689.552 498.808 686.985 498.895
C 686.315 498.355 686.547 497.607 686.489 496.794
C 686.347 494.774 686.33 492.635 686.474 490.616 Z"
opacity="1" fill="rgb(251,179,25)" fill-rule="evenodd" />
<path d="
M 726.493 519.117
C 726.644 514.234 727.812 509.911 729.739 505.439
C 736.876 488.874 757.999 481.263 774.516 488.377
C 787.201 493.841 795.222 507.083 794.721 520.799
C 794.552 525.407 793.347 529.623 791.467 533.814
C 786.172 545.621 773.888 553.234 760.987 553.553
C 747.043 553.898 733.341 544.615 728.518 531.662
C 727.052 527.723 726.364 523.323 726.493 519.117 Z
M 740.433 516.599
C 739.388 524.351 742.47 532.453 748.662 537.276
C 756.585 543.45 770.452 542.518 776.301 533.703
C 778.457 530.455 779.848 526.78 780.395 522.921
C 780.862 519.632 780.556 516.351 779.638 513.159
C 778.575 509.465 776.794 505.599 773.976 502.908
C 767.943 497.149 756.887 496.152 749.982 500.906
C 744.609 504.605 741.301 510.154 740.433 516.599 Z"
opacity="1" fill="rgb(252,179,24)" fill-rule="evenodd" />
<path d="
M 807.979 488.628
C 808.06 487.979 808.049 488.361 807.915 487.483
C 810.355 487.075 813.033 487.371 815.508 487.372
C 817.446 487.373 819.662 487.08 821.559 487.453
C 822.057 491.814 821.573 496.374 821.805 500.776
C 822.005 501.059 823.327 498.676 823.519 498.352
C 824.468 496.743 825.565 495.124 826.739 493.67
C 830 489.63 834.328 486.915 839.48 486.254
C 840.431 486.132 843.185 485.197 843.875 485.833
C 843.869 489.065 844.074 492.356 844.196 495.594
C 844.24 496.769 844.675 498.536 844.25 499.631
C 841.698 500.349 838.986 500.335 836.436 501.102
C 833.437 502.005 830.542 503.944 828.277 506.072
C 825.73 508.464 823.228 511.835 822.259 515.235
C 821.571 517.65 821.82 520.506 821.809 522.997
C 821.788 527.664 821.832 532.331 821.842 536.997
C 821.851 541.622 821.096 547.046 822.22 551.566
C 818.877 551.911 815.364 551.686 812.003 551.678
C 811.089 551.676 809.026 552.145 808.295 551.656
C 808.563 547.144 808.263 542.527 808.236 538.005
C 808.18 528.37 808.208 518.734 808.068 509.1
C 807.969 502.314 807.573 495.404 807.979 488.628 Z"
opacity="1" fill="rgb(251,181,28)" fill-rule="evenodd" />
<path d="
M 849.455 515.604
C 850.649 508.379 852.475 502.115 857.634 496.594
C 867.282 486.268 882.378 483.426 895.574 487.788
C 900.112 489.287 905.411 492.064 908.368 495.961
C 906.313 498.275 903.847 500.322 901.639 502.506
C 900.856 503.28 899.83 504.727 898.632 504.741
C 897.642 504.106 896.885 503.118 895.95 502.396
C 893.117 500.205 889.625 498.569 886.064 498.092
C 882.063 497.555 878.38 497.978 874.714 499.739
C 860.121 506.752 860.119 528.19 872.051 537.611
C 879.403 543.416 893.75 542.554 899.178 534.215
C 900.123 534.345 901.198 535.745 901.927 536.364
C 904.243 538.333 906.594 540.256 908.912 542.212
C 908.366 543.161 906.697 544.084 905.858 544.824
C 902.165 548.078 898.167 550.283 893.48 551.771
C 879.876 556.091 862.95 551.334 854.865 539.041
C 850.318 532.127 848.916 523.747 849.455 515.604 Z"
opacity="1" fill="rgb(252,179,28)" fill-rule="evenodd" />
<path d="
M 914.452 516.604
C 916.129 506.749 919.261 498.336 927.496 491.971
C 941.457 481.181 964.35 484.78 972.925 500.633
C 976.782 507.764 977.649 516.246 977.114 524.235
C 960.697 525.025 944.124 524.433 927.696 524.678
C 928.989 528.93 930.651 533.283 933.77 536.572
C 939.22 542.319 948.025 543.103 955.312 541.017
C 957.508 540.389 959.531 539.388 961.385 538.06
C 962.722 537.102 963.635 535.8 965.356 535.65
C 967.132 537.041 968.625 538.897 970.256 540.462
C 971.089 541.262 972.425 541.944 973.002 542.937
C 970.132 546.362 965.128 549.049 961.033 550.631
C 957.072 552.162 952.752 553.427 948.483 553.582
C 939.473 553.908 929.398 549.829 923.098 543.428
C 916.328 536.549 913.687 525.982 914.452 516.604 Z
M 927.974 513.606
C 927.922 514.098 927.837 514.51 927.999 514.982
C 931.108 514.651 934.375 514.893 937.505 514.867
C 946.11 514.793 954.761 515.088 963.357 514.853
C 962.752 510.481 962.009 505.359 958.839 501.97
C 953.016 495.746 942.438 495.554 935.841 500.452
C 931.264 503.852 929.08 508.208 927.974 513.606 Z"
opacity="1" fill="rgb(252,180,29)" fill-rule="evenodd" />

</svg>
