<?xml version="1.0" encoding="UTF-8"?>
<svg id="a" data-name="n" xmlns="http://www.w3.org/2000/svg" viewBox="0 0 197.41 197.41">
  <defs>
    <style>
      .b {
        fill: #2c8484;
      }
    </style>
  </defs>
  <path class="b" d="M.3,121.3l70.97,19.02c-5.17,22.45-23.53,46.33-31.2,55.58-.82.99-2.09,1.49-3.36,1.51-.13.01-.26-.01-.39-.01-.13.01-.26.01-.39.01-1.27-.02-2.54-.52-3.36-1.51C23.56,185.03-.22,153.96,0,128.76c-.02-2.63.09-5.12.3-7.46Z"/>
  <path class="b" d="M131.84,156.55l51.24,13.73c-6.68,11.16-14.05,20.57-18.24,25.62-.82.99-2.09,1.49-3.36,1.51-.13,0-.26,0-.39-.01-.13,0-.26.02-.39.01-1.27-.02-2.54-.52-3.36-1.51-5.82-7.02-17.81-22.48-25.5-39.35Z"/>
  <path class="b" d="M165,87.35c-.62-.04-1.24-.07-1.87-.09l-38.45-38.45c3.37-5,5.34-11.02,5.34-17.49,0-17.27-14.05-31.32-31.32-31.32s-31.32,14.05-31.32,31.32c0,6.47,1.97,12.49,5.35,17.49h0s-38.45,38.45-38.45,38.45c-.63.02-1.25.05-1.87.09-11.17.72-20.73,5.03-26.51,14.76l66.3,17.77c-2.01-18.11-10.75-27.42-22.64-30.93l31.65-31.65c5,3.37,11.02,5.34,17.49,5.34s12.49-1.97,17.49-5.35l31.66,31.66c-13.7,4.05-23.22,15.79-23.08,39.81-.01,1.74.08,3.5.29,5.28l67.22,18.01c3.15-7.83,5.2-15.82,5.13-23.29.17-29.17-13.91-40.22-32.41-41.41ZM98.7,50.64c-3.14,0-6.11-.75-8.73-2.1-3.65-1.85-6.64-4.83-8.49-8.48-1.34-2.62-2.1-5.59-2.1-8.74,0-10.65,8.67-19.32,19.32-19.32s19.32,8.67,19.32,19.32c0,3.14-.75,6.11-2.1,8.73-1.84,3.65-4.83,6.64-8.48,8.49-2.62,1.34-5.6,2.1-8.74,2.1Z"/>
</svg>