<?xml version="1.0" encoding="UTF-8"?>
<svg id="Layer_1" data-name="Layer 1" xmlns="http://www.w3.org/2000/svg" xmlns:xlink="http://www.w3.org/1999/xlink" viewBox="0 0 567.89 558">
  <defs>
    <style>
      .cls-1, .cls-2 {
        fill: none;
      }

      .cls-3 {
        fill: #010101;
      }

      .cls-4 {
        fill: #f15b25;
      }

      .cls-5, .cls-2 {
        stroke: #010101;
        stroke-linecap: round;
        stroke-linejoin: round;
        stroke-width: 16px;
      }

      .cls-6 {
        fill: #6fd3f2;
      }

      .cls-7 {
        clip-path: url(#clippath);
      }
    </style>
    <clipPath id="clippath">
      <rect class="cls-1" width="473" height="558"/>
    </clipPath>
  </defs>
  <path class="cls-6" d="M390.84,55.46c7.36-11.61,38.16-51.68,25.02-47.65l-94.57,34.6-158.76,47c-1.37.41-2.68,1.01-3.88,1.79l-81.38,53.04c-1.62,1.05-3.01,2.41-4.11,4L12.45,236.34c-.22.31-.35.68-.37,1.06l-.06,113.5c0,3.26,1.26,6.39,3.51,8.75,3.75,3.93,9.11,9.86,8.6,12.04-.79,3.37-.89,6.87.69,9.95l9.23,17.96c.11.22,3.96,7.98,5.96,11.86.71,1.38,1.67,2.61,2.83,3.65l66.07,58.89c1.01.74,2.43.48,3.1-.58L390.84,55.46Z"/>
  <path class="cls-4" d="M432.9,59.78c10.9,82.47,19.22,83.74,27.64,158.54,5.24,46.5,7.85,69.75,5.07,95.34-3.01,27.63-8.29,71.2-39.46,113.7-26.69,36.39-58.95,53.73-76.32,62.82-18.84,9.86-62,31.76-116.81,27-11.06-.96-30.08-6.39-68.13-17.24-36.03-10.28-44.81-14.64-46.89-22.25-3.35-12.28,13.28-23.88,30.91-43.58,25.93-28.96,27.1-45.35,50.36-88.26,24.83-45.81,43-63.14,75.8-107.47C371.74,107.73,401.97,4.07,422.52,10.46c5.88,1.83,5.3,10.9,10.38,49.32Z"/>
  <g class="cls-7">
    <path class="cls-5" d="M109.81,477.7c-7.78-.28-12.25,11.77-23.24,27.42-4.65,6.62-11.83,16.17-21.9,27.1,5.4,2.91,10.81,5.81,16.21,8.72,7.67-11.32,13.98-20.74,18.71-27.86,2.91-4.37,5.46-8.96,8.52-13.23,6.8-9.49,10.88-12.97,9.67-16.8-.9-2.84-4.51-5.22-7.97-5.35Z"/>
    <rect class="cls-1" x="41.96" y="223.89" width="136.12" height="136.12" rx="8.72" ry="8.72"/>
    <path class="cls-3" d="M161,240v99H58v-99h103M177,224H42v131h135v-131h0Z"/>
    <path class="cls-3" d="M125.18,276.51v31.29h-31.29v-31.29h31.29M141.18,260.51h-63.29v63.29h63.29v-63.29h0Z"/>
    <line class="cls-2" x1="270.84" y1="235.74" x2="270.84" y2="148.88"/>
    <line class="cls-2" x1="153.46" y1="416.47" x2="152.32" y2="359.29"/>
    <path class="cls-3" d="M151.44,143.24c5.85,0,10.62,4.76,10.62,10.62s-4.76,10.62-10.62,10.62-10.62-4.76-10.62-10.62,4.76-10.62,10.62-10.62M151.44,130.24c-13.04,0-23.62,10.57-23.62,23.62s10.57,23.62,23.62,23.62,23.62-10.57,23.62-23.62-10.57-23.62-23.62-23.62h0Z"/>
    <path class="cls-3" d="M220,112.05c5.85,0,10.62,4.76,10.62,10.62s-4.76,10.62-10.62,10.62-10.62-4.76-10.62-10.62,4.76-10.62,10.62-10.62M220,99.05c-13.04,0-23.62,10.57-23.62,23.62s10.57,23.62,23.62,23.62,23.62-10.57,23.62-23.62-10.57-23.62-23.62-23.62h0Z"/>
    <path class="cls-3" d="M271.41,122.18c3.15,0,5.72,2.57,5.72,5.72s-2.57,5.72-5.72,5.72-5.72-2.57-5.72-5.72,2.57-5.72,5.72-5.72M271.41,109.18c-10.34,0-18.72,8.38-18.72,18.72s8.38,18.72,18.72,18.72,18.72-8.38,18.72-18.72-8.38-18.72-18.72-18.72h0Z"/>
    <path class="cls-3" d="M326.78,434.24c7.04,0,12.77,5.73,12.77,12.77s-5.73,12.77-12.77,12.77-12.77-5.73-12.77-12.77,5.73-12.77,12.77-12.77M326.78,421.24c-14.23,0-25.77,11.54-25.77,25.77s11.54,25.77,25.77,25.77,25.77-11.54,25.77-25.77-11.54-25.77-25.77-25.77h0Z"/>
    <path class="cls-3" d="M393.4,364.02c7.04,0,12.77,5.73,12.77,12.77s-5.73,12.77-12.77,12.77-12.77-5.73-12.77-12.77,5.73-12.77,12.77-12.77M393.4,351.02c-14.23,0-25.77,11.54-25.77,25.77s11.54,25.77,25.77,25.77,25.77-11.54,25.77-25.77-11.54-25.77-25.77-25.77h0Z"/>
    <path class="cls-3" d="M307.86,248.74c7.04,0,12.77,5.73,12.77,12.77s-5.73,12.77-12.77,12.77-12.77-5.73-12.77-12.77,5.73-12.77,12.77-12.77M307.86,235.74c-14.23,0-25.77,11.54-25.77,25.77s11.54,25.77,25.77,25.77,25.77-11.54,25.77-25.77-11.54-25.77-25.77-25.77h0Z"/>
    <path class="cls-3" d="M370.63,188.74c7.04,0,12.77,5.73,12.77,12.77s-5.73,12.77-12.77,12.77-12.77-5.73-12.77-12.77,5.73-12.77,12.77-12.77M370.63,175.74c-14.23,0-25.77,11.54-25.77,25.77s11.54,25.77,25.77,25.77,25.77-11.54,25.77-25.77-11.54-25.77-25.77-25.77h0Z"/>
    <path class="cls-3" d="M309.92,80.9c4.33,0,7.86,3.53,7.86,7.86s-3.53,7.86-7.86,7.86-7.86-3.53-7.86-7.86,3.53-7.86,7.86-7.86M309.92,67.9c-11.52,0-20.86,9.34-20.86,20.86s9.34,20.86,20.86,20.86,20.86-9.34,20.86-20.86-9.34-20.86-20.86-20.86h0Z"/>
    <path class="cls-3" d="M400.37,127.14c6.28,0,11.4,5.11,11.4,11.4s-5.11,11.4-11.4,11.4-11.4-5.11-11.4-11.4,5.11-11.4,11.4-11.4M400.37,114.14c-13.47,0-24.4,10.92-24.4,24.4s10.92,24.4,24.4,24.4,24.4-10.92,24.4-24.4-10.92-24.4-24.4-24.4h0Z"/>
    <path class="cls-3" d="M413.69,256.36c6.28,0,11.4,5.11,11.4,11.4s-5.11,11.4-11.4,11.4-11.4-5.11-11.4-11.4,5.11-11.4,11.4-11.4M413.69,243.36c-13.47,0-24.4,10.92-24.4,24.4s10.92,24.4,24.4,24.4,24.4-10.92,24.4-24.4-10.92-24.4-24.4-24.4h0Z"/>
    <path class="cls-2" d="M118,477.69C218.04,322.87,318.08,168.06,418.12,13.24c1.79-2.78,3.59-5.55,5.38-8.33"/>
    <line class="cls-2" x1="312.67" y1="175.74" x2="309.92" y2="109.61"/>
    <line class="cls-2" x1="340.41" y1="139.53" x2="375.97" y2="139.53"/>
    <line class="cls-2" x1="220" y1="316.37" x2="220" y2="146.62"/>
    <line class="cls-2" x1="151.44" y1="231.5" x2="151.44" y2="175.63"/>
    <line class="cls-2" x1="71.97" y1="443.91" x2="71.97" y2="351.02"/>
    <line class="cls-2" x1="110.02" y1="470" x2="110.02" y2="349"/>
    <line class="cls-2" x1="187.4" y1="376.79" x2="367.63" y2="376.79"/>
    <line class="cls-2" x1="153.46" y1="418.58" x2="284.01" y2="418.58"/>
    <line class="cls-2" x1="137.56" y1="451.64" x2="303.03" y2="451.64"/>
    <path class="cls-2" d="M370.63,227.28v104.35h-158.46,158.46"/>
    <line class="cls-2" x1="307.86" y1="329.12" x2="307.86" y2="282.44"/>
    <line class="cls-2" x1="257.77" y1="264.79" x2="284.06" y2="265.07"/>
    <path class="cls-2" d="M423.5,4.91c3.21,16.79,21.19,111.03,33.41,187.4.71,4.44,1.37,8.82,1.37,8.82s1.3,8.81,2.25,17.19c2.01,17.61,2.74,34.94,2.74,34.94.78,18.13,1.58,38.89-1.94,65.97-1.23,9.45-2.22,16.68-3.84,24.03-2.55,11.58-5.52,20.3-6.83,24-5.26,14.82-11.06,25.17-16.49,34.92-5.04,9.05-11.33,20.23-21.83,33.47-12.38,15.61-24.1,25.87-29.1,30.07-2.02,1.69-5.47,4.53-9.94,7.83-4.6,3.4-14.26,10.24-29.83,18.37-13.88,7.24-24.76,12.94-40.75,17.46-3.69,1.04-18.77,5.17-39.29,6.31-15.59.86-27.31-.39-36.87-1.46-5.4-.6-22.45-2.67-44.14-8.73-4.66-1.3-19.84-5.67-39.29-14.07-8.96-3.87-16.46-6.83-26.03-11.95-5.2-2.78-16.88-9.08-29.27-18.61-18.64-14.33-29.84-29.07-36.87-38.32-7.96-10.49-23.68-31.57-33.95-62.57-16.82-50.76-7.92-94.63-4.85-107.68,9.98-42.42,31.49-69.93,42.69-83.92,41.55-51.94,94.85-73.7,146.01-94.59,44.86-18.32,91.19-29.59,91.19-29.59,13.16-3.25,24.44-5.6,36.43-8.39,15.81-3.68,26.78-6.66,40.7-11.01,0,0,10.75-3.36,54.33-19.89Z"/>
  </g>
</svg>