# Blender 4.5.0
# www.blender.org
mtllib A_capital.mtl
o Text
v 0.233500 0.050000 0.343000
v 0.142500 0.050000 0.142000
v -0.147500 0.050000 0.142000
v -0.233500 0.050000 0.343000
v -0.333500 0.050000 0.343000
v -0.040500 0.050000 -0.343000
v 0.028500 0.050000 -0.343000
v 0.333500 0.050000 0.343000
v 0.102500 0.050000 0.054000
v -0.007500 0.050000 -0.193000
v -0.109500 0.050000 0.054000
v 0.233500 -0.050000 0.343000
v 0.142500 -0.050000 0.142000
v -0.147500 -0.050000 0.142000
v -0.233500 -0.050000 0.343000
v -0.333500 -0.050000 0.343000
v -0.040500 -0.050000 -0.343000
v 0.028500 -0.050000 -0.343000
v 0.333500 -0.050000 0.343000
v 0.102500 -0.050000 0.054000
v -0.007500 -0.050000 -0.193000
v -0.109500 -0.050000 0.054000
v 0.233500 -0.050000 0.343000
v 0.233500 0.050000 0.343000
v 0.142500 -0.050000 0.142000
v 0.142500 0.050000 0.142000
v -0.147500 -0.050000 0.142000
v -0.147500 0.050000 0.142000
v -0.233500 -0.050000 0.343000
v -0.233500 0.050000 0.343000
v -0.333500 -0.050000 0.343000
v -0.333500 0.050000 0.343000
v -0.040500 -0.050000 -0.343000
v -0.040500 0.050000 -0.343000
v 0.028500 -0.050000 -0.343000
v 0.028500 0.050000 -0.343000
v 0.333500 -0.050000 0.343000
v 0.333500 0.050000 0.343000
v 0.102500 -0.050000 0.054000
v 0.102500 0.050000 0.054000
v -0.007500 -0.050000 -0.193000
v -0.007500 0.050000 -0.193000
v -0.109500 -0.050000 0.054000
v -0.109500 0.050000 0.054000
vn -0.0000 1.0000 -0.0000
vn -0.0000 -1.0000 -0.0000
vn -0.5420 -0.0000 0.8404
vn 0.5507 -0.0000 0.8347
vn -0.8345 -0.0000 0.5510
vn -0.5510 -0.0000 -0.8345
vn 0.5449 -0.0000 -0.8385
vn 0.8385 -0.0000 0.5449
vn -0.8387 -0.0000 -0.5446
vn 0.0137 -0.0000 0.9999
vn 0.8312 -0.0000 -0.5560
vt 0.400000 0.000000
vt 0.600000 0.000000
vt 0.500000 0.000000
vt 0.900000 0.000000
vt 0.700000 0.000000
vt 1.000000 0.000000
vt 0.800000 0.000000
vt 0.200000 0.000000
vt 0.100000 0.000000
vt 0.300000 0.000000
vt 0.000000 0.000000
vt 0.000000 1.000000
vt 0.125000 1.000000
vt 0.125000 0.000000
vt 0.250000 1.000000
vt 0.250000 0.000000
vt 0.375000 1.000000
vt 0.375000 0.000000
vt 0.500000 1.000000
vt 0.625000 1.000000
vt 0.625000 0.000000
vt 0.750000 1.000000
vt 0.750000 0.000000
vt 0.875000 1.000000
vt 0.875000 0.000000
vt 1.000000 1.000000
vt 0.333333 1.000000
vt 0.333333 0.000000
vt 0.666667 1.000000
vt 0.666667 0.000000
s 0
f 5/1/1 7/2/1 6/3/1
f 5/1/1 10/4/1 7/2/1
f 10/4/1 8/5/1 7/2/1
f 5/1/1 11/6/1 10/4/1
f 9/7/1 8/5/1 10/4/1
f 5/1/1 3/8/1 11/6/1
f 3/8/1 9/7/1 11/6/1
f 3/8/1 2/9/1 9/7/1
f 2/9/1 8/5/1 9/7/1
f 5/1/1 4/10/1 3/8/1
f 1/11/1 8/5/1 2/9/1
f 16/1/2 17/3/2 18/2/2
f 16/1/2 18/2/2 21/4/2
f 21/4/2 18/2/2 19/5/2
f 16/1/2 21/4/2 22/6/2
f 20/7/2 21/4/2 19/5/2
f 16/1/2 22/6/2 14/8/2
f 14/8/2 22/6/2 20/7/2
f 14/8/2 20/7/2 13/9/2
f 13/9/2 20/7/2 19/5/2
f 16/1/2 14/8/2 15/10/2
f 12/11/2 13/9/2 19/5/2
s 1
f 24/12/3 26/13/3 25/14/3 23/11/3
f 26/13/3 28/15/4 27/16/4 25/14/3
f 28/15/4 30/17/4 29/18/4 27/16/4
f 30/17/4 32/19/5 31/3/5 29/18/4
f 32/19/5 34/20/6 33/21/6 31/3/5
f 34/20/6 36/22/7 35/23/7 33/21/6
f 36/22/7 38/24/8 37/25/8 35/23/7
f 38/24/8 24/26/3 23/6/3 37/25/8
f 40/12/9 42/27/10 41/28/10 39/11/9
f 42/27/10 44/29/11 43/30/11 41/28/10
f 44/29/11 40/26/9 39/6/9 43/30/11
