# Blender 4.5.0
# www.blender.org
mtllib d.mtl
o Text
v 0.014500 0.050000 0.341000
v -0.017939 0.050000 0.339126
v -0.048176 0.050000 0.333593
v -0.076094 0.050000 0.324531
v -0.101574 0.050000 0.312074
v -0.124499 0.050000 0.296353
v -0.144750 0.050000 0.277500
v -0.162209 0.050000 0.255647
v -0.176759 0.050000 0.230926
v -0.188281 0.050000 0.203469
v -0.196657 0.050000 0.173407
v -0.201770 0.050000 0.140874
v -0.203500 0.050000 0.106000
v -0.201594 0.050000 0.074303
v -0.196005 0.050000 0.044343
v -0.186922 0.050000 0.016313
v -0.174537 0.050000 -0.009593
v -0.159041 0.050000 -0.033178
v -0.140625 0.050000 -0.054250
v -0.119480 0.050000 -0.072613
v -0.095796 0.050000 -0.088074
v -0.069766 0.050000 -0.100438
v -0.041579 0.050000 -0.109509
v -0.011427 0.050000 -0.115095
v 0.020500 0.050000 -0.117000
v 0.027964 0.050000 -0.116894
v 0.035380 0.050000 -0.116569
v 0.042781 0.050000 -0.116016
v 0.050204 0.050000 -0.115222
v 0.057682 0.050000 -0.114179
v 0.065250 0.050000 -0.112875
v 0.072943 0.050000 -0.111300
v 0.080796 0.050000 -0.109444
v 0.088844 0.050000 -0.107297
v 0.097120 0.050000 -0.104847
v 0.105661 0.050000 -0.102085
v 0.114500 0.050000 -0.099000
v 0.114500 0.050000 -0.341000
v 0.203500 0.050000 -0.341000
v 0.203500 0.050000 0.341000
v 0.107138 0.050000 -0.022855
v 0.100019 0.050000 -0.025426
v 0.093094 0.050000 -0.027719
v 0.086315 0.050000 -0.029741
v 0.079633 0.050000 -0.031499
v 0.073000 0.050000 -0.033000
v 0.066367 0.050000 -0.034251
v 0.059685 0.050000 -0.035259
v 0.052906 0.050000 -0.036031
v 0.045981 0.050000 -0.036574
v 0.038862 0.050000 -0.036895
v 0.031500 0.050000 -0.037000
v 0.010601 0.050000 -0.035726
v -0.009028 0.050000 -0.031972
v -0.027281 0.050000 -0.025844
v -0.044056 0.050000 -0.017444
v -0.059247 0.050000 -0.006878
v -0.072750 0.050000 0.005750
v -0.084462 0.050000 0.020337
v -0.094278 0.050000 0.036778
v -0.102094 0.050000 0.054969
v -0.107806 0.050000 0.074806
v -0.111309 0.050000 0.096184
v -0.112500 0.050000 0.119000
v -0.111771 0.050000 0.139538
v -0.109505 0.050000 0.159056
v -0.105578 0.050000 0.177406
v -0.099870 0.050000 0.194444
v -0.092260 0.050000 0.210024
v -0.082625 0.050000 0.224000
v -0.070844 0.050000 0.236226
v -0.056796 0.050000 0.246556
v -0.040359 0.050000 0.254844
v -0.021412 0.050000 0.260944
v 0.000167 0.050000 0.264712
v 0.024500 0.050000 0.266000
v 0.114500 0.050000 0.266000
v 0.114500 0.050000 -0.020000
v 0.014500 -0.050000 0.341000
v -0.017939 -0.050000 0.339126
v -0.048176 -0.050000 0.333593
v -0.076094 -0.050000 0.324531
v -0.101574 -0.050000 0.312074
v -0.124499 -0.050000 0.296353
v -0.144750 -0.050000 0.277500
v -0.162209 -0.050000 0.255647
v -0.176759 -0.050000 0.230926
v -0.188281 -0.050000 0.203469
v -0.196657 -0.050000 0.173407
v -0.201770 -0.050000 0.140874
v -0.203500 -0.050000 0.106000
v -0.201594 -0.050000 0.074303
v -0.196005 -0.050000 0.044343
v -0.186922 -0.050000 0.016313
v -0.174537 -0.050000 -0.009593
v -0.159041 -0.050000 -0.033178
v -0.140625 -0.050000 -0.054250
v -0.119480 -0.050000 -0.072613
v -0.095796 -0.050000 -0.088074
v -0.069766 -0.050000 -0.100438
v -0.041579 -0.050000 -0.109509
v -0.011427 -0.050000 -0.115095
v 0.020500 -0.050000 -0.117000
v 0.027964 -0.050000 -0.116894
v 0.035380 -0.050000 -0.116569
v 0.042781 -0.050000 -0.116016
v 0.050204 -0.050000 -0.115222
v 0.057682 -0.050000 -0.114179
v 0.065250 -0.050000 -0.112875
v 0.072943 -0.050000 -0.111300
v 0.080796 -0.050000 -0.109444
v 0.088844 -0.050000 -0.107297
v 0.097120 -0.050000 -0.104847
v 0.105661 -0.050000 -0.102085
v 0.114500 -0.050000 -0.099000
v 0.114500 -0.050000 -0.341000
v 0.203500 -0.050000 -0.341000
v 0.203500 -0.050000 0.341000
v 0.107138 -0.050000 -0.022855
v 0.100019 -0.050000 -0.025426
v 0.093094 -0.050000 -0.027719
v 0.086315 -0.050000 -0.029741
v 0.079633 -0.050000 -0.031499
v 0.073000 -0.050000 -0.033000
v 0.066367 -0.050000 -0.034251
v 0.059685 -0.050000 -0.035259
v 0.052906 -0.050000 -0.036031
v 0.045981 -0.050000 -0.036574
v 0.038862 -0.050000 -0.036895
v 0.031500 -0.050000 -0.037000
v 0.010601 -0.050000 -0.035726
v -0.009028 -0.050000 -0.031972
v -0.027281 -0.050000 -0.025844
v -0.044056 -0.050000 -0.017444
v -0.059247 -0.050000 -0.006878
v -0.072750 -0.050000 0.005750
v -0.084462 -0.050000 0.020337
v -0.094278 -0.050000 0.036778
v -0.102094 -0.050000 0.054969
v -0.107806 -0.050000 0.074806
v -0.111309 -0.050000 0.096184
v -0.112500 -0.050000 0.119000
v -0.111771 -0.050000 0.139538
v -0.109505 -0.050000 0.159056
v -0.105578 -0.050000 0.177406
v -0.099870 -0.050000 0.194444
v -0.092260 -0.050000 0.210024
v -0.082625 -0.050000 0.224000
v -0.070844 -0.050000 0.236226
v -0.056796 -0.050000 0.246556
v -0.040359 -0.050000 0.254844
v -0.021412 -0.050000 0.260944
v 0.000167 -0.050000 0.264712
v 0.024500 -0.050000 0.266000
v 0.114500 -0.050000 0.266000
v 0.114500 -0.050000 -0.020000
v 0.014500 -0.050000 0.341000
v 0.014500 0.050000 0.341000
v -0.017939 -0.050000 0.339126
v -0.017939 0.050000 0.339126
v -0.048176 -0.050000 0.333593
v -0.048176 0.050000 0.333593
v -0.076094 -0.050000 0.324531
v -0.076094 0.050000 0.324531
v -0.101574 -0.050000 0.312074
v -0.101574 0.050000 0.312074
v -0.124499 -0.050000 0.296353
v -0.124499 0.050000 0.296353
v -0.144750 -0.050000 0.277500
v -0.144750 0.050000 0.277500
v -0.162209 -0.050000 0.255647
v -0.162209 0.050000 0.255647
v -0.176759 -0.050000 0.230926
v -0.176759 0.050000 0.230926
v -0.188281 -0.050000 0.203469
v -0.188281 0.050000 0.203469
v -0.196657 -0.050000 0.173407
v -0.196657 0.050000 0.173407
v -0.201770 -0.050000 0.140874
v -0.201770 0.050000 0.140874
v -0.203500 -0.050000 0.106000
v -0.203500 0.050000 0.106000
v -0.201594 -0.050000 0.074303
v -0.201594 0.050000 0.074303
v -0.196005 -0.050000 0.044343
v -0.196005 0.050000 0.044343
v -0.186922 -0.050000 0.016313
v -0.186922 0.050000 0.016313
v -0.174537 -0.050000 -0.009593
v -0.174537 0.050000 -0.009593
v -0.159041 -0.050000 -0.033178
v -0.159041 0.050000 -0.033178
v -0.140625 -0.050000 -0.054250
v -0.140625 0.050000 -0.054250
v -0.119480 -0.050000 -0.072613
v -0.119480 0.050000 -0.072613
v -0.095796 -0.050000 -0.088074
v -0.095796 0.050000 -0.088074
v -0.069766 -0.050000 -0.100438
v -0.069766 0.050000 -0.100438
v -0.041579 -0.050000 -0.109509
v -0.041579 0.050000 -0.109509
v -0.011427 -0.050000 -0.115095
v -0.011427 0.050000 -0.115095
v 0.020500 -0.050000 -0.117000
v 0.020500 0.050000 -0.117000
v 0.027964 -0.050000 -0.116894
v 0.027964 0.050000 -0.116894
v 0.035380 -0.050000 -0.116569
v 0.035380 0.050000 -0.116569
v 0.042781 -0.050000 -0.116016
v 0.042781 0.050000 -0.116016
v 0.050204 -0.050000 -0.115222
v 0.050204 0.050000 -0.115222
v 0.057682 -0.050000 -0.114179
v 0.057682 0.050000 -0.114179
v 0.065250 -0.050000 -0.112875
v 0.065250 0.050000 -0.112875
v 0.072943 -0.050000 -0.111300
v 0.072943 0.050000 -0.111300
v 0.080796 -0.050000 -0.109444
v 0.080796 0.050000 -0.109444
v 0.088844 -0.050000 -0.107297
v 0.088844 0.050000 -0.107297
v 0.097120 -0.050000 -0.104847
v 0.097120 0.050000 -0.104847
v 0.105661 -0.050000 -0.102085
v 0.105661 0.050000 -0.102085
v 0.114500 -0.050000 -0.099000
v 0.114500 0.050000 -0.099000
v 0.114500 -0.050000 -0.341000
v 0.114500 0.050000 -0.341000
v 0.203500 -0.050000 -0.341000
v 0.203500 0.050000 -0.341000
v 0.203500 -0.050000 0.341000
v 0.203500 0.050000 0.341000
v 0.107138 -0.050000 -0.022855
v 0.107138 0.050000 -0.022855
v 0.100019 -0.050000 -0.025426
v 0.100019 0.050000 -0.025426
v 0.093094 -0.050000 -0.027719
v 0.093094 0.050000 -0.027719
v 0.086315 -0.050000 -0.029741
v 0.086315 0.050000 -0.029741
v 0.079633 -0.050000 -0.031499
v 0.079633 0.050000 -0.031499
v 0.073000 -0.050000 -0.033000
v 0.073000 0.050000 -0.033000
v 0.066367 -0.050000 -0.034251
v 0.066367 0.050000 -0.034251
v 0.059685 -0.050000 -0.035259
v 0.059685 0.050000 -0.035259
v 0.052906 -0.050000 -0.036031
v 0.052906 0.050000 -0.036031
v 0.045981 -0.050000 -0.036574
v 0.045981 0.050000 -0.036574
v 0.038862 -0.050000 -0.036895
v 0.038862 0.050000 -0.036895
v 0.031500 -0.050000 -0.037000
v 0.031500 0.050000 -0.037000
v 0.010601 -0.050000 -0.035726
v 0.010601 0.050000 -0.035726
v -0.009028 -0.050000 -0.031972
v -0.009028 0.050000 -0.031972
v -0.027281 -0.050000 -0.025844
v -0.027281 0.050000 -0.025844
v -0.044056 -0.050000 -0.017444
v -0.044056 0.050000 -0.017444
v -0.059247 -0.050000 -0.006878
v -0.059247 0.050000 -0.006878
v -0.072750 -0.050000 0.005750
v -0.072750 0.050000 0.005750
v -0.084462 -0.050000 0.020337
v -0.084462 0.050000 0.020337
v -0.094278 -0.050000 0.036778
v -0.094278 0.050000 0.036778
v -0.102094 -0.050000 0.054969
v -0.102094 0.050000 0.054969
v -0.107806 -0.050000 0.074806
v -0.107806 0.050000 0.074806
v -0.111309 -0.050000 0.096184
v -0.111309 0.050000 0.096184
v -0.112500 -0.050000 0.119000
v -0.112500 0.050000 0.119000
v -0.111771 -0.050000 0.139538
v -0.111771 0.050000 0.139538
v -0.109505 -0.050000 0.159056
v -0.109505 0.050000 0.159056
v -0.105578 -0.050000 0.177406
v -0.105578 0.050000 0.177406
v -0.099870 -0.050000 0.194444
v -0.099870 0.050000 0.194444
v -0.092260 -0.050000 0.210024
v -0.092260 0.050000 0.210024
v -0.082625 -0.050000 0.224000
v -0.082625 0.050000 0.224000
v -0.070844 -0.050000 0.236226
v -0.070844 0.050000 0.236226
v -0.056796 -0.050000 0.246556
v -0.056796 0.050000 0.246556
v -0.040359 -0.050000 0.254844
v -0.040359 0.050000 0.254844
v -0.021412 -0.050000 0.260944
v -0.021412 0.050000 0.260944
v 0.000167 -0.050000 0.264712
v 0.000167 0.050000 0.264712
v 0.024500 -0.050000 0.266000
v 0.024500 0.050000 0.266000
v 0.114500 -0.050000 0.266000
v 0.114500 0.050000 0.266000
v 0.114500 -0.050000 -0.020000
v 0.114500 0.050000 -0.020000
vn -0.0000 1.0000 -0.0000
vn -0.0000 -1.0000 -0.0000
vn -0.0288 -0.0000 0.9996
vn -0.1191 -0.0000 0.9929
vn -0.2449 -0.0000 0.9695
vn -0.3749 -0.0000 0.9271
vn -0.5037 -0.0000 0.8639
vn -0.6252 -0.0000 0.7805
vn -0.7333 -0.0000 0.6799
vn -0.8236 -0.0000 0.5671
vn -0.8940 -0.0000 0.4481
vn -0.9446 -0.0000 0.3283
vn -0.9772 -0.0000 0.2122
vn -0.9947 -0.0000 0.1025
vn -1.0000 -0.0000 -0.0052
vn -0.9925 -0.0000 -0.1219
vn -0.9692 -0.0000 -0.2463
vn -0.9288 -0.0000 -0.3706
vn -0.8710 -0.0000 -0.4913
vn -0.7962 -0.0000 -0.6050
vn -0.7060 -0.0000 -0.7082
vn -0.6026 -0.0000 -0.7981
vn -0.4889 -0.0000 -0.8723
vn -0.3685 -0.0000 -0.9296
vn -0.2448 -0.0000 -0.9696
vn -0.1211 -0.0000 -0.9926
vn -0.0227 -0.0000 -0.9997
vn 0.0290 -0.0000 -0.9996
vn 0.0592 -0.0000 -0.9982
vn 0.0905 -0.0000 -0.9959
vn 0.1223 -0.0000 -0.9925
vn 0.1540 -0.0000 -0.9881
vn 0.1852 -0.0000 -0.9827
vn 0.2153 -0.0000 -0.9766
vn 0.2439 -0.0000 -0.9698
vn 0.2708 -0.0000 -0.9626
vn 0.2958 -0.0000 -0.9553
vn 0.3186 -0.0000 -0.9479
vn -0.5790 -0.0000 -0.8153
vn -0.7071 -0.0000 -0.7071
vn 0.7071 -0.0000 -0.7071
vn 0.7071 -0.0000 0.7071
vn -0.3506 -0.0000 0.9365
vn -0.3270 -0.0000 0.9450
vn -0.3001 -0.0000 0.9539
vn -0.2702 -0.0000 0.9628
vn -0.2376 -0.0000 0.9714
vn -0.2031 -0.0000 0.9792
vn -0.1673 -0.0000 0.9859
vn -0.1312 -0.0000 0.9914
vn -0.0957 -0.0000 0.9954
vn -0.0616 -0.0000 0.9981
vn -0.0296 -0.0000 0.9996
vn 0.0233 -0.0000 0.9997
vn 0.1246 -0.0000 0.9922
vn 0.2536 -0.0000 0.9673
vn 0.3840 -0.0000 0.9234
vn 0.5107 -0.0000 0.8598
vn 0.6287 -0.0000 0.7777
vn 0.7333 -0.0000 0.6799
vn 0.8211 -0.0000 0.5707
vn 0.8906 -0.0000 0.4547
vn 0.9417 -0.0000 0.3364
vn 0.9756 -0.0000 0.2196
vn 0.9942 -0.0000 0.1071
vn 1.0000 -0.0000 0.0083
vn 0.9971 -0.0000 -0.0755
vn 0.9867 -0.0000 -0.1625
vn 0.9646 -0.0000 -0.2639
vn 0.9254 -0.0000 -0.3791
vn 0.8633 -0.0000 -0.5047
vn 0.7743 -0.0000 -0.6328
vn 0.6586 -0.0000 -0.7525
vn 0.5231 -0.0000 -0.8522
vn 0.3795 -0.0000 -0.9252
vn 0.2398 -0.0000 -0.9708
vn 0.1126 -0.0000 -0.9936
vn 0.0264 -0.0000 -0.9997
vn -0.8251 -0.0000 0.5650
vt 0.467532 0.000000
vt 0.493506 0.000000
vt 0.480519 0.000000
vt 0.506494 0.000000
vt 0.298701 0.000000
vt 0.324675 0.000000
vt 0.311688 0.000000
vt 0.337662 0.000000
vt 0.350649 0.000000
vt 0.363636 0.000000
vt 0.376623 0.000000
vt 0.285714 0.000000
vt 0.389610 0.000000
vt 0.402597 0.000000
vt 0.415584 0.000000
vt 0.272727 0.000000
vt 0.428571 0.000000
vt 0.441558 0.000000
vt 0.454545 0.000000
vt 0.259740 0.000000
vt 0.545455 0.000000
vt 0.532468 0.000000
vt 0.519481 0.000000
vt 1.000000 0.000000
vt 0.246753 0.000000
vt 0.584416 0.000000
vt 0.571429 0.000000
vt 0.558442 0.000000
vt 0.233766 0.000000
vt 0.623377 0.000000
vt 0.610390 0.000000
vt 0.597403 0.000000
vt 0.220779 0.000000
vt 0.662338 0.000000
vt 0.649351 0.000000
vt 0.636364 0.000000
vt 0.675325 0.000000
vt 0.688312 0.000000
vt 0.207792 0.000000
vt 0.701299 0.000000
vt 0.714286 0.000000
vt 0.987013 0.000000
vt 0.727273 0.000000
vt 0.194805 0.000000
vt 0.740260 0.000000
vt 0.753247 0.000000
vt 0.181818 0.000000
vt 0.766234 0.000000
vt 0.779221 0.000000
vt 0.168831 0.000000
vt 0.792208 0.000000
vt 0.155844 0.000000
vt 0.805195 0.000000
vt 0.818182 0.000000
vt 0.142857 0.000000
vt 0.831169 0.000000
vt 0.844156 0.000000
vt 0.129870 0.000000
vt 0.857143 0.000000
vt 0.116883 0.000000
vt 0.870130 0.000000
vt 0.883117 0.000000
vt 0.103896 0.000000
vt 0.896104 0.000000
vt 0.909091 0.000000
vt 0.090909 0.000000
vt 0.922078 0.000000
vt 0.935065 0.000000
vt 0.948052 0.000000
vt 0.077922 0.000000
vt 0.961039 0.000000
vt 0.974026 0.000000
vt 0.064935 0.000000
vt 0.051948 0.000000
vt 0.038961 0.000000
vt 0.025974 0.000000
vt 0.012987 0.000000
vt 0.000000 0.000000
vt 0.000000 1.000000
vt 0.025000 1.000000
vt 0.025000 0.000000
vt 0.050000 1.000000
vt 0.050000 0.000000
vt 0.075000 1.000000
vt 0.075000 0.000000
vt 0.100000 1.000000
vt 0.100000 0.000000
vt 0.125000 1.000000
vt 0.125000 0.000000
vt 0.150000 1.000000
vt 0.150000 0.000000
vt 0.175000 1.000000
vt 0.175000 0.000000
vt 0.200000 1.000000
vt 0.200000 0.000000
vt 0.225000 1.000000
vt 0.225000 0.000000
vt 0.250000 1.000000
vt 0.250000 0.000000
vt 0.275000 1.000000
vt 0.275000 0.000000
vt 0.300000 1.000000
vt 0.300000 0.000000
vt 0.325000 1.000000
vt 0.325000 0.000000
vt 0.350000 1.000000
vt 0.350000 0.000000
vt 0.375000 1.000000
vt 0.375000 0.000000
vt 0.400000 1.000000
vt 0.400000 0.000000
vt 0.425000 1.000000
vt 0.425000 0.000000
vt 0.450000 1.000000
vt 0.450000 0.000000
vt 0.475000 1.000000
vt 0.475000 0.000000
vt 0.500000 1.000000
vt 0.500000 0.000000
vt 0.525000 1.000000
vt 0.525000 0.000000
vt 0.550000 1.000000
vt 0.550000 0.000000
vt 0.575000 1.000000
vt 0.575000 0.000000
vt 0.600000 1.000000
vt 0.600000 0.000000
vt 0.625000 1.000000
vt 0.625000 0.000000
vt 0.650000 1.000000
vt 0.650000 0.000000
vt 0.675000 1.000000
vt 0.675000 0.000000
vt 0.700000 1.000000
vt 0.700000 0.000000
vt 0.725000 1.000000
vt 0.725000 0.000000
vt 0.750000 1.000000
vt 0.750000 0.000000
vt 0.775000 1.000000
vt 0.775000 0.000000
vt 0.800000 1.000000
vt 0.800000 0.000000
vt 0.825000 1.000000
vt 0.825000 0.000000
vt 0.850000 1.000000
vt 0.850000 0.000000
vt 0.875000 1.000000
vt 0.875000 0.000000
vt 0.900000 1.000000
vt 0.900000 0.000000
vt 0.925000 1.000000
vt 0.925000 0.000000
vt 0.950000 1.000000
vt 0.950000 0.000000
vt 0.975000 1.000000
vt 0.975000 0.000000
vt 1.000000 1.000000
vt 0.026316 1.000000
vt 0.026316 0.000000
vt 0.052632 1.000000
vt 0.052632 0.000000
vt 0.078947 1.000000
vt 0.078947 0.000000
vt 0.105263 1.000000
vt 0.105263 0.000000
vt 0.131579 1.000000
vt 0.131579 0.000000
vt 0.157895 1.000000
vt 0.157895 0.000000
vt 0.184211 1.000000
vt 0.184211 0.000000
vt 0.210526 1.000000
vt 0.210526 0.000000
vt 0.236842 1.000000
vt 0.236842 0.000000
vt 0.263158 1.000000
vt 0.263158 0.000000
vt 0.289474 1.000000
vt 0.289474 0.000000
vt 0.315789 1.000000
vt 0.315789 0.000000
vt 0.342105 1.000000
vt 0.342105 0.000000
vt 0.368421 1.000000
vt 0.368421 0.000000
vt 0.394737 1.000000
vt 0.394737 0.000000
vt 0.421053 1.000000
vt 0.421053 0.000000
vt 0.447368 1.000000
vt 0.447368 0.000000
vt 0.473684 1.000000
vt 0.473684 0.000000
vt 0.526316 1.000000
vt 0.526316 0.000000
vt 0.552632 1.000000
vt 0.552632 0.000000
vt 0.578947 1.000000
vt 0.578947 0.000000
vt 0.605263 1.000000
vt 0.605263 0.000000
vt 0.631579 1.000000
vt 0.631579 0.000000
vt 0.657895 1.000000
vt 0.657895 0.000000
vt 0.684211 1.000000
vt 0.684211 0.000000
vt 0.710526 1.000000
vt 0.710526 0.000000
vt 0.736842 1.000000
vt 0.736842 0.000000
vt 0.763158 1.000000
vt 0.763158 0.000000
vt 0.789474 1.000000
vt 0.789474 0.000000
vt 0.815789 1.000000
vt 0.815789 0.000000
vt 0.842105 1.000000
vt 0.842105 0.000000
vt 0.868421 1.000000
vt 0.868421 0.000000
vt 0.894737 1.000000
vt 0.894737 0.000000
vt 0.921053 1.000000
vt 0.921053 0.000000
vt 0.947368 1.000000
vt 0.947368 0.000000
vt 0.973684 1.000000
vt 0.973684 0.000000
s 0
f 37/1/1 39/2/1 38/3/1
f 37/1/1 40/4/1 39/2/1
f 24/5/1 26/6/1 25/7/1
f 24/5/1 27/8/1 26/6/1
f 24/5/1 28/9/1 27/8/1
f 24/5/1 29/10/1 28/9/1
f 24/5/1 30/11/1 29/10/1
f 23/12/1 30/11/1 24/5/1
f 23/12/1 31/13/1 30/11/1
f 23/12/1 32/14/1 31/13/1
f 23/12/1 33/15/1 32/14/1
f 22/16/1 33/15/1 23/12/1
f 22/16/1 34/17/1 33/15/1
f 22/16/1 35/18/1 34/17/1
f 22/16/1 36/19/1 35/18/1
f 22/16/1 37/1/1 36/19/1
f 21/20/1 37/1/1 22/16/1
f 21/20/1 43/21/1 37/1/1
f 43/21/1 42/22/1 37/1/1
f 42/22/1 41/23/1 37/1/1
f 41/23/1 78/24/1 37/1/1
f 78/24/1 40/4/1 37/1/1
f 20/25/1 46/26/1 21/20/1
f 46/26/1 45/27/1 21/20/1
f 45/27/1 44/28/1 21/20/1
f 44/28/1 43/21/1 21/20/1
f 19/29/1 49/30/1 20/25/1
f 49/30/1 48/31/1 20/25/1
f 48/31/1 47/32/1 20/25/1
f 47/32/1 46/26/1 20/25/1
f 18/33/1 52/34/1 19/29/1
f 52/34/1 51/35/1 19/29/1
f 51/35/1 50/36/1 19/29/1
f 50/36/1 49/30/1 19/29/1
f 18/33/1 53/37/1 52/34/1
f 18/33/1 54/38/1 53/37/1
f 17/39/1 54/38/1 18/33/1
f 17/39/1 55/40/1 54/38/1
f 17/39/1 56/41/1 55/40/1
f 77/42/1 40/4/1 78/24/1
f 17/39/1 57/43/1 56/41/1
f 16/44/1 57/43/1 17/39/1
f 16/44/1 58/45/1 57/43/1
f 16/44/1 59/46/1 58/45/1
f 15/47/1 59/46/1 16/44/1
f 15/47/1 60/48/1 59/46/1
f 15/47/1 61/49/1 60/48/1
f 14/50/1 61/49/1 15/47/1
f 14/50/1 62/51/1 61/49/1
f 13/52/1 62/51/1 14/50/1
f 13/52/1 63/53/1 62/51/1
f 13/52/1 64/54/1 63/53/1
f 12/55/1 64/54/1 13/52/1
f 12/55/1 65/56/1 64/54/1
f 12/55/1 66/57/1 65/56/1
f 11/58/1 66/57/1 12/55/1
f 11/58/1 67/59/1 66/57/1
f 10/60/1 67/59/1 11/58/1
f 10/60/1 68/61/1 67/59/1
f 10/60/1 69/62/1 68/61/1
f 9/63/1 69/62/1 10/60/1
f 9/63/1 70/64/1 69/62/1
f 9/63/1 71/65/1 70/64/1
f 8/66/1 71/65/1 9/63/1
f 8/66/1 72/67/1 71/65/1
f 8/66/1 73/68/1 72/67/1
f 8/66/1 74/69/1 73/68/1
f 7/70/1 74/69/1 8/66/1
f 7/70/1 75/71/1 74/69/1
f 7/70/1 76/72/1 75/71/1
f 7/70/1 77/42/1 76/72/1
f 7/70/1 40/4/1 77/42/1
f 6/73/1 40/4/1 7/70/1
f 5/74/1 40/4/1 6/73/1
f 4/75/1 40/4/1 5/74/1
f 3/76/1 40/4/1 4/75/1
f 2/77/1 40/4/1 3/76/1
f 1/78/1 40/4/1 2/77/1
f 115/1/2 116/3/2 117/2/2
f 115/1/2 117/2/2 118/4/2
f 102/5/2 103/7/2 104/6/2
f 102/5/2 104/6/2 105/8/2
f 102/5/2 105/8/2 106/9/2
f 102/5/2 106/9/2 107/10/2
f 102/5/2 107/10/2 108/11/2
f 101/12/2 102/5/2 108/11/2
f 101/12/2 108/11/2 109/13/2
f 101/12/2 109/13/2 110/14/2
f 101/12/2 110/14/2 111/15/2
f 100/16/2 101/12/2 111/15/2
f 100/16/2 111/15/2 112/17/2
f 100/16/2 112/17/2 113/18/2
f 100/16/2 113/18/2 114/19/2
f 100/16/2 114/19/2 115/1/2
f 99/20/2 100/16/2 115/1/2
f 99/20/2 115/1/2 121/21/2
f 121/21/2 115/1/2 120/22/2
f 120/22/2 115/1/2 119/23/2
f 119/23/2 115/1/2 156/24/2
f 156/24/2 115/1/2 118/4/2
f 98/25/2 99/20/2 124/26/2
f 124/26/2 99/20/2 123/27/2
f 123/27/2 99/20/2 122/28/2
f 122/28/2 99/20/2 121/21/2
f 97/29/2 98/25/2 127/30/2
f 127/30/2 98/25/2 126/31/2
f 126/31/2 98/25/2 125/32/2
f 125/32/2 98/25/2 124/26/2
f 96/33/2 97/29/2 130/34/2
f 130/34/2 97/29/2 129/35/2
f 129/35/2 97/29/2 128/36/2
f 128/36/2 97/29/2 127/30/2
f 96/33/2 130/34/2 131/37/2
f 96/33/2 131/37/2 132/38/2
f 95/39/2 96/33/2 132/38/2
f 95/39/2 132/38/2 133/40/2
f 95/39/2 133/40/2 134/41/2
f 155/42/2 156/24/2 118/4/2
f 95/39/2 134/41/2 135/43/2
f 94/44/2 95/39/2 135/43/2
f 94/44/2 135/43/2 136/45/2
f 94/44/2 136/45/2 137/46/2
f 93/47/2 94/44/2 137/46/2
f 93/47/2 137/46/2 138/48/2
f 93/47/2 138/48/2 139/49/2
f 92/50/2 93/47/2 139/49/2
f 92/50/2 139/49/2 140/51/2
f 91/52/2 92/50/2 140/51/2
f 91/52/2 140/51/2 141/53/2
f 91/52/2 141/53/2 142/54/2
f 90/55/2 91/52/2 142/54/2
f 90/55/2 142/54/2 143/56/2
f 90/55/2 143/56/2 144/57/2
f 89/58/2 90/55/2 144/57/2
f 89/58/2 144/57/2 145/59/2
f 88/60/2 89/58/2 145/59/2
f 88/60/2 145/59/2 146/61/2
f 88/60/2 146/61/2 147/62/2
f 87/63/2 88/60/2 147/62/2
f 87/63/2 147/62/2 148/64/2
f 87/63/2 148/64/2 149/65/2
f 86/66/2 87/63/2 149/65/2
f 86/66/2 149/65/2 150/67/2
f 86/66/2 150/67/2 151/68/2
f 86/66/2 151/68/2 152/69/2
f 85/70/2 86/66/2 152/69/2
f 85/70/2 152/69/2 153/71/2
f 85/70/2 153/71/2 154/72/2
f 85/70/2 154/72/2 155/42/2
f 85/70/2 155/42/2 118/4/2
f 84/73/2 85/70/2 118/4/2
f 83/74/2 84/73/2 118/4/2
f 82/75/2 83/74/2 118/4/2
f 81/76/2 82/75/2 118/4/2
f 80/77/2 81/76/2 118/4/2
f 79/78/2 80/77/2 118/4/2
s 1
f 158/79/3 160/80/4 159/81/4 157/78/3
f 160/80/4 162/82/5 161/83/5 159/81/4
f 162/82/5 164/84/6 163/85/6 161/83/5
f 164/84/6 166/86/7 165/87/7 163/85/6
f 166/86/7 168/88/8 167/89/8 165/87/7
f 168/88/8 170/90/9 169/91/9 167/89/8
f 170/90/9 172/92/10 171/93/10 169/91/9
f 172/92/10 174/94/11 173/95/11 171/93/10
f 174/94/11 176/96/12 175/97/12 173/95/11
f 176/96/12 178/98/13 177/99/13 175/97/12
f 178/98/13 180/100/14 179/101/14 177/99/13
f 180/100/14 182/102/15 181/103/15 179/101/14
f 182/102/15 184/104/16 183/105/16 181/103/15
f 184/104/16 186/106/17 185/107/17 183/105/16
f 186/106/17 188/108/18 187/109/18 185/107/17
f 188/108/18 190/110/19 189/111/19 187/109/18
f 190/110/19 192/112/20 191/113/20 189/111/19
f 192/112/20 194/114/21 193/115/21 191/113/20
f 194/114/21 196/116/22 195/117/22 193/115/21
f 196/116/22 198/118/23 197/119/23 195/117/22
f 198/118/23 200/120/24 199/121/24 197/119/23
f 200/120/24 202/122/25 201/123/25 199/121/24
f 202/122/25 204/124/26 203/125/26 201/123/25
f 204/124/26 206/126/27 205/127/27 203/125/26
f 206/126/27 208/128/28 207/129/28 205/127/27
f 208/128/28 210/130/29 209/131/29 207/129/28
f 210/130/29 212/132/30 211/133/30 209/131/29
f 212/132/30 214/134/31 213/135/31 211/133/30
f 214/134/31 216/136/32 215/137/32 213/135/31
f 216/136/32 218/138/33 217/139/33 215/137/32
f 218/138/33 220/140/34 219/141/34 217/139/33
f 220/140/34 222/142/35 221/143/35 219/141/34
f 222/142/35 224/144/36 223/145/36 221/143/35
f 224/144/36 226/146/37 225/147/37 223/145/36
f 226/146/37 228/148/38 227/149/38 225/147/37
f 228/148/38 230/150/39 229/151/39 227/149/38
f 230/150/39 232/152/40 231/153/40 229/151/39
f 232/152/40 234/154/41 233/155/41 231/153/40
f 234/154/41 236/156/42 235/157/42 233/155/41
f 236/156/42 158/158/3 157/24/3 235/157/42
f 238/79/43 240/159/44 239/160/44 237/78/43
f 240/159/44 242/161/45 241/162/45 239/160/44
f 242/161/45 244/163/46 243/164/46 241/162/45
f 244/163/46 246/165/47 245/166/47 243/164/46
f 246/165/47 248/167/48 247/168/48 245/166/47
f 248/167/48 250/169/49 249/170/49 247/168/48
f 250/169/49 252/171/50 251/172/50 249/170/49
f 252/171/50 254/173/51 253/174/51 251/172/50
f 254/173/51 256/175/52 255/176/52 253/174/51
f 256/175/52 258/177/53 257/178/53 255/176/52
f 258/177/53 260/179/54 259/180/54 257/178/53
f 260/179/54 262/181/55 261/182/55 259/180/54
f 262/181/55 264/183/56 263/184/56 261/182/55
f 264/183/56 266/185/57 265/186/57 263/184/56
f 266/185/57 268/187/58 267/188/58 265/186/57
f 268/187/58 270/189/59 269/190/59 267/188/58
f 270/189/59 272/191/60 271/192/60 269/190/59
f 272/191/60 274/193/61 273/194/61 271/192/60
f 274/193/61 276/118/62 275/119/62 273/194/61
f 276/118/62 278/195/63 277/196/63 275/119/62
f 278/195/63 280/197/64 279/198/64 277/196/63
f 280/197/64 282/199/65 281/200/65 279/198/64
f 282/199/65 284/201/66 283/202/66 281/200/65
f 284/201/66 286/203/67 285/204/67 283/202/66
f 286/203/67 288/205/68 287/206/68 285/204/67
f 288/205/68 290/207/69 289/208/69 287/206/68
f 290/207/69 292/209/70 291/210/70 289/208/69
f 292/209/70 294/211/71 293/212/71 291/210/70
f 294/211/71 296/213/72 295/214/72 293/212/71
f 296/213/72 298/215/73 297/216/73 295/214/72
f 298/215/73 300/217/74 299/218/74 297/216/73
f 300/217/74 302/219/75 301/220/75 299/218/74
f 302/219/75 304/221/76 303/222/76 301/220/75
f 304/221/76 306/223/77 305/224/77 303/222/76
f 306/223/77 308/225/78 307/226/78 305/224/77
f 308/225/78 310/227/40 309/228/40 307/226/78
f 310/227/40 312/229/79 311/230/79 309/228/40
f 312/229/79 238/158/43 237/24/43 311/230/79
