# Blender 4.5.0
# www.blender.org
mtllib j.mtl
o Text
v 0.022365 0.050000 -0.328489
v 0.015505 0.050000 -0.329912
v 0.008984 0.050000 -0.332203
v 0.002870 0.050000 -0.335296
v -0.002771 0.050000 -0.339126
v -0.007875 0.050000 -0.343625
v -0.012374 0.050000 -0.348729
v -0.016204 0.050000 -0.354370
v -0.019297 0.050000 -0.360484
v -0.021588 0.050000 -0.367005
v -0.023011 0.050000 -0.373865
v -0.023500 0.050000 -0.381000
v -0.023011 0.050000 -0.388135
v -0.021588 0.050000 -0.394995
v -0.019297 0.050000 -0.401516
v -0.016204 0.050000 -0.407630
v -0.012374 0.050000 -0.413271
v -0.007875 0.050000 -0.418375
v -0.002771 0.050000 -0.422874
v 0.002870 0.050000 -0.426704
v 0.008984 0.050000 -0.429797
v 0.015505 0.050000 -0.432088
v 0.022365 0.050000 -0.433511
v 0.029500 0.050000 -0.434000
v 0.036635 0.050000 -0.433511
v 0.043495 0.050000 -0.432088
v 0.050016 0.050000 -0.429797
v 0.056130 0.050000 -0.426704
v 0.061771 0.050000 -0.422874
v 0.066875 0.050000 -0.418375
v 0.071374 0.050000 -0.413271
v 0.075204 0.050000 -0.407630
v 0.078297 0.050000 -0.401516
v 0.080588 0.050000 -0.394995
v 0.082011 0.050000 -0.388135
v 0.082500 0.050000 -0.381000
v 0.082011 0.050000 -0.373865
v 0.080588 0.050000 -0.367005
v 0.078297 0.050000 -0.360484
v 0.075204 0.050000 -0.354370
v 0.071374 0.050000 -0.348729
v 0.066875 0.050000 -0.343625
v 0.061771 0.050000 -0.339126
v 0.056130 0.050000 -0.335296
v 0.050016 0.050000 -0.332203
v 0.043495 0.050000 -0.329912
v 0.036635 0.050000 -0.328489
v 0.029500 0.050000 -0.328000
v 0.072876 0.050000 0.285920
v 0.071005 0.050000 0.306778
v 0.067891 0.050000 0.325719
v 0.063537 0.050000 0.342889
v 0.057947 0.050000 0.358434
v 0.051125 0.050000 0.372500
v 0.043073 0.050000 0.385233
v 0.033796 0.050000 0.396778
v 0.023297 0.050000 0.407281
v 0.011579 0.050000 0.416889
v -0.001355 0.050000 0.425747
v -0.015500 0.050000 0.434000
v -0.082500 0.050000 0.368000
v -0.072989 0.050000 0.363666
v -0.063995 0.050000 0.358657
v -0.055578 0.050000 0.352969
v -0.047796 0.050000 0.346593
v -0.040709 0.050000 0.339522
v -0.034375 0.050000 0.331750
v -0.028854 0.050000 0.323270
v -0.024204 0.050000 0.314074
v -0.020484 0.050000 0.304156
v -0.017755 0.050000 0.293509
v -0.016073 0.050000 0.282126
v -0.015500 0.050000 0.270000
v -0.015500 0.050000 -0.245000
v 0.073500 0.050000 -0.245000
v 0.073500 0.050000 0.263000
v 0.022365 -0.050000 -0.328489
v 0.015505 -0.050000 -0.329912
v 0.008984 -0.050000 -0.332203
v 0.002870 -0.050000 -0.335296
v -0.002771 -0.050000 -0.339126
v -0.007875 -0.050000 -0.343625
v -0.012374 -0.050000 -0.348729
v -0.016204 -0.050000 -0.354370
v -0.019297 -0.050000 -0.360484
v -0.021588 -0.050000 -0.367005
v -0.023011 -0.050000 -0.373865
v -0.023500 -0.050000 -0.381000
v -0.023011 -0.050000 -0.388135
v -0.021588 -0.050000 -0.394995
v -0.019297 -0.050000 -0.401516
v -0.016204 -0.050000 -0.407630
v -0.012374 -0.050000 -0.413271
v -0.007875 -0.050000 -0.418375
v -0.002771 -0.050000 -0.422874
v 0.002870 -0.050000 -0.426704
v 0.008984 -0.050000 -0.429797
v 0.015505 -0.050000 -0.432088
v 0.022365 -0.050000 -0.433511
v 0.029500 -0.050000 -0.434000
v 0.036635 -0.050000 -0.433511
v 0.043495 -0.050000 -0.432088
v 0.050016 -0.050000 -0.429797
v 0.056130 -0.050000 -0.426704
v 0.061771 -0.050000 -0.422874
v 0.066875 -0.050000 -0.418375
v 0.071374 -0.050000 -0.413271
v 0.075204 -0.050000 -0.407630
v 0.078297 -0.050000 -0.401516
v 0.080588 -0.050000 -0.394995
v 0.082011 -0.050000 -0.388135
v 0.082500 -0.050000 -0.381000
v 0.082011 -0.050000 -0.373865
v 0.080588 -0.050000 -0.367005
v 0.078297 -0.050000 -0.360484
v 0.075204 -0.050000 -0.354370
v 0.071374 -0.050000 -0.348729
v 0.066875 -0.050000 -0.343625
v 0.061771 -0.050000 -0.339126
v 0.056130 -0.050000 -0.335296
v 0.050016 -0.050000 -0.332203
v 0.043495 -0.050000 -0.329912
v 0.036635 -0.050000 -0.328489
v 0.029500 -0.050000 -0.328000
v 0.072876 -0.050000 0.285920
v 0.071005 -0.050000 0.306778
v 0.067891 -0.050000 0.325719
v 0.063537 -0.050000 0.342889
v 0.057947 -0.050000 0.358434
v 0.051125 -0.050000 0.372500
v 0.043073 -0.050000 0.385233
v 0.033796 -0.050000 0.396778
v 0.023297 -0.050000 0.407281
v 0.011579 -0.050000 0.416889
v -0.001355 -0.050000 0.425747
v -0.015500 -0.050000 0.434000
v -0.082500 -0.050000 0.368000
v -0.072989 -0.050000 0.363666
v -0.063995 -0.050000 0.358657
v -0.055578 -0.050000 0.352969
v -0.047796 -0.050000 0.346593
v -0.040709 -0.050000 0.339522
v -0.034375 -0.050000 0.331750
v -0.028854 -0.050000 0.323270
v -0.024204 -0.050000 0.314074
v -0.020484 -0.050000 0.304156
v -0.017755 -0.050000 0.293509
v -0.016073 -0.050000 0.282126
v -0.015500 -0.050000 0.270000
v -0.015500 -0.050000 -0.245000
v 0.073500 -0.050000 -0.245000
v 0.073500 -0.050000 0.263000
v 0.072876 -0.050000 0.285920
v 0.072876 0.050000 0.285920
v 0.071005 -0.050000 0.306778
v 0.071005 0.050000 0.306778
v 0.067891 -0.050000 0.325719
v 0.067891 0.050000 0.325719
v 0.063537 -0.050000 0.342889
v 0.063537 0.050000 0.342889
v 0.057947 -0.050000 0.358434
v 0.057947 0.050000 0.358434
v 0.051125 -0.050000 0.372500
v 0.051125 0.050000 0.372500
v 0.043073 -0.050000 0.385233
v 0.043073 0.050000 0.385233
v 0.033796 -0.050000 0.396778
v 0.033796 0.050000 0.396778
v 0.023297 -0.050000 0.407281
v 0.023297 0.050000 0.407281
v 0.011579 -0.050000 0.416889
v 0.011579 0.050000 0.416889
v -0.001355 -0.050000 0.425747
v -0.001355 0.050000 0.425747
v -0.015500 -0.050000 0.434000
v -0.015500 0.050000 0.434000
v -0.082500 -0.050000 0.368000
v -0.082500 0.050000 0.368000
v -0.072989 -0.050000 0.363666
v -0.072989 0.050000 0.363666
v -0.063995 -0.050000 0.358657
v -0.063995 0.050000 0.358657
v -0.055578 -0.050000 0.352969
v -0.055578 0.050000 0.352969
v -0.047796 -0.050000 0.346593
v -0.047796 0.050000 0.346593
v -0.040709 -0.050000 0.339522
v -0.040709 0.050000 0.339522
v -0.034375 -0.050000 0.331750
v -0.034375 0.050000 0.331750
v -0.028854 -0.050000 0.323270
v -0.028854 0.050000 0.323270
v -0.024204 -0.050000 0.314074
v -0.024204 0.050000 0.314074
v -0.020484 -0.050000 0.304156
v -0.020484 0.050000 0.304156
v -0.017755 -0.050000 0.293509
v -0.017755 0.050000 0.293509
v -0.016073 -0.050000 0.282126
v -0.016073 0.050000 0.282126
v -0.015500 -0.050000 0.270000
v -0.015500 0.050000 0.270000
v -0.015500 -0.050000 -0.245000
v -0.015500 0.050000 -0.245000
v 0.073500 -0.050000 -0.245000
v 0.073500 0.050000 -0.245000
v 0.073500 -0.050000 0.263000
v 0.073500 0.050000 0.263000
v 0.022365 -0.050000 -0.328489
v 0.022365 0.050000 -0.328489
v 0.015505 -0.050000 -0.329912
v 0.015505 0.050000 -0.329912
v 0.008984 -0.050000 -0.332203
v 0.008984 0.050000 -0.332203
v 0.002870 -0.050000 -0.335296
v 0.002870 0.050000 -0.335296
v -0.002771 -0.050000 -0.339126
v -0.002771 0.050000 -0.339126
v -0.007875 -0.050000 -0.343625
v -0.007875 0.050000 -0.343625
v -0.012374 -0.050000 -0.348729
v -0.012374 0.050000 -0.348729
v -0.016204 -0.050000 -0.354370
v -0.016204 0.050000 -0.354370
v -0.019297 -0.050000 -0.360484
v -0.019297 0.050000 -0.360484
v -0.021588 -0.050000 -0.367005
v -0.021588 0.050000 -0.367005
v -0.023011 -0.050000 -0.373865
v -0.023011 0.050000 -0.373865
v -0.023500 -0.050000 -0.381000
v -0.023500 0.050000 -0.381000
v -0.023011 -0.050000 -0.388135
v -0.023011 0.050000 -0.388135
v -0.021588 -0.050000 -0.394995
v -0.021588 0.050000 -0.394995
v -0.019297 -0.050000 -0.401516
v -0.019297 0.050000 -0.401516
v -0.016204 -0.050000 -0.407630
v -0.016204 0.050000 -0.407630
v -0.012374 -0.050000 -0.413271
v -0.012374 0.050000 -0.413271
v -0.007875 -0.050000 -0.418375
v -0.007875 0.050000 -0.418375
v -0.002771 -0.050000 -0.422874
v -0.002771 0.050000 -0.422874
v 0.002870 -0.050000 -0.426704
v 0.002870 0.050000 -0.426704
v 0.008984 -0.050000 -0.429797
v 0.008984 0.050000 -0.429797
v 0.015505 -0.050000 -0.432088
v 0.015505 0.050000 -0.432088
v 0.022365 -0.050000 -0.433511
v 0.022365 0.050000 -0.433511
v 0.029500 -0.050000 -0.434000
v 0.029500 0.050000 -0.434000
v 0.036635 -0.050000 -0.433511
v 0.036635 0.050000 -0.433511
v 0.043495 -0.050000 -0.432088
v 0.043495 0.050000 -0.432088
v 0.050016 -0.050000 -0.429797
v 0.050016 0.050000 -0.429797
v 0.056130 -0.050000 -0.426704
v 0.056130 0.050000 -0.426704
v 0.061771 -0.050000 -0.422874
v 0.061771 0.050000 -0.422874
v 0.066875 -0.050000 -0.418375
v 0.066875 0.050000 -0.418375
v 0.071374 -0.050000 -0.413271
v 0.071374 0.050000 -0.413271
v 0.075204 -0.050000 -0.407630
v 0.075204 0.050000 -0.407630
v 0.078297 -0.050000 -0.401516
v 0.078297 0.050000 -0.401516
v 0.080588 -0.050000 -0.394995
v 0.080588 0.050000 -0.394995
v 0.082011 -0.050000 -0.388135
v 0.082011 0.050000 -0.388135
v 0.082500 -0.050000 -0.381000
v 0.082500 0.050000 -0.381000
v 0.082011 -0.050000 -0.373865
v 0.082011 0.050000 -0.373865
v 0.080588 -0.050000 -0.367005
v 0.080588 0.050000 -0.367005
v 0.078297 -0.050000 -0.360484
v 0.078297 0.050000 -0.360484
v 0.075204 -0.050000 -0.354370
v 0.075204 0.050000 -0.354370
v 0.071374 -0.050000 -0.348729
v 0.071374 0.050000 -0.348729
v 0.066875 -0.050000 -0.343625
v 0.066875 0.050000 -0.343625
v 0.061771 -0.050000 -0.339126
v 0.061771 0.050000 -0.339126
v 0.056130 -0.050000 -0.335296
v 0.056130 0.050000 -0.335296
v 0.050016 -0.050000 -0.332203
v 0.050016 0.050000 -0.332203
v 0.043495 -0.050000 -0.329912
v 0.043495 0.050000 -0.329912
v 0.036635 -0.050000 -0.328489
v 0.036635 0.050000 -0.328489
v 0.029500 -0.050000 -0.328000
v 0.029500 0.050000 -0.328000
vn -0.0000 1.0000 -0.0000
vn -0.0000 -1.0000 -0.0000
vn 0.9983 -0.0000 0.0583
vn 0.9920 -0.0000 0.1259
vn 0.9789 -0.0000 0.2042
vn 0.9563 -0.0000 0.2924
vn 0.9217 -0.0000 0.3879
vn 0.8738 -0.0000 0.4862
vn 0.8137 -0.0000 0.5814
vn 0.7445 -0.0000 0.6677
vn 0.6715 -0.0000 0.7410
vn 0.6001 -0.0000 0.7999
vn 0.5349 -0.0000 0.8449
vn -0.1245 -0.0000 0.9922
vn -0.9847 -0.0000 -0.1742
vn -0.4510 -0.0000 -0.8925
vn -0.5237 -0.0000 -0.8519
vn -0.5975 -0.0000 -0.8019
vn -0.6708 -0.0000 -0.7416
vn -0.7417 -0.0000 -0.6707
vn -0.8078 -0.0000 -0.5895
vn -0.8665 -0.0000 -0.4992
vn -0.9157 -0.0000 -0.4018
vn -0.9539 -0.0000 -0.3002
vn -0.9803 -0.0000 -0.1975
vn -0.9953 -0.0000 -0.0968
vn -0.9997 -0.0000 -0.0236
vn -0.7071 -0.0000 -0.7071
vn 0.7071 -0.0000 -0.7071
vn 0.9999 -0.0000 0.0136
vn -0.1361 -0.0000 0.9907
vn -0.2679 -0.0000 0.9634
vn -0.3923 -0.0000 0.9198
vn -0.5076 -0.0000 0.8616
vn -0.6127 -0.0000 0.7903
vn -0.7071 -0.0000 0.7071
vn -0.7903 -0.0000 0.6127
vn -0.8616 -0.0000 0.5076
vn -0.9198 -0.0000 0.3923
vn -0.9634 -0.0000 0.2679
vn -0.9907 -0.0000 0.1361
vn -1.0000 -0.0000 -0.0000
vn -0.9907 -0.0000 -0.1361
vn -0.9634 -0.0000 -0.2679
vn -0.9198 -0.0000 -0.3923
vn -0.8616 -0.0000 -0.5076
vn -0.7903 -0.0000 -0.6127
vn -0.6127 -0.0000 -0.7903
vn -0.5076 -0.0000 -0.8616
vn -0.3923 -0.0000 -0.9198
vn -0.2679 -0.0000 -0.9634
vn -0.1361 -0.0000 -0.9907
vn -0.0000 -0.0000 -1.0000
vn 0.1361 -0.0000 -0.9907
vn 0.2679 -0.0000 -0.9634
vn 0.3923 -0.0000 -0.9198
vn 0.5076 -0.0000 -0.8616
vn 0.6127 -0.0000 -0.7903
vn 0.7903 -0.0000 -0.6127
vn 0.8616 -0.0000 -0.5076
vn 0.9198 -0.0000 -0.3923
vn 0.9634 -0.0000 -0.2679
vn 0.9907 -0.0000 -0.1361
vn 1.0000 -0.0000 -0.0000
vn 0.9907 -0.0000 0.1361
vn 0.9634 -0.0000 0.2679
vn 0.9198 -0.0000 0.3923
vn 0.8616 -0.0000 0.5076
vn 0.7903 -0.0000 0.6127
vn 0.7071 -0.0000 0.7071
vn 0.6127 -0.0000 0.7903
vn 0.5076 -0.0000 0.8616
vn 0.3923 -0.0000 0.9198
vn 0.2679 -0.0000 0.9634
vn 0.1361 -0.0000 0.9907
vn -0.0000 -0.0000 1.0000
vt 0.960000 0.000000
vt 0.986667 0.000000
vt 0.973333 0.000000
vt 1.000000 0.000000
vt 0.640000 0.000000
vt 0.946667 0.000000
vt 0.933333 0.000000
vt 0.653333 0.000000
vt 0.920000 0.000000
vt 0.906667 0.000000
vt 0.666667 0.000000
vt 0.893333 0.000000
vt 0.880000 0.000000
vt 0.680000 0.000000
vt 0.866667 0.000000
vt 0.853333 0.000000
vt 0.693333 0.000000
vt 0.840000 0.000000
vt 0.826667 0.000000
vt 0.706667 0.000000
vt 0.813333 0.000000
vt 0.800000 0.000000
vt 0.786667 0.000000
vt 0.720000 0.000000
vt 0.733333 0.000000
vt 0.746667 0.000000
vt 0.760000 0.000000
vt 0.773333 0.000000
vt 0.293333 0.000000
vt 0.320000 0.000000
vt 0.306667 0.000000
vt 0.280000 0.000000
vt 0.333333 0.000000
vt 0.266667 0.000000
vt 0.346667 0.000000
vt 0.253333 0.000000
vt 0.360000 0.000000
vt 0.240000 0.000000
vt 0.373333 0.000000
vt 0.226667 0.000000
vt 0.386667 0.000000
vt 0.213333 0.000000
vt 0.400000 0.000000
vt 0.200000 0.000000
vt 0.413333 0.000000
vt 0.186667 0.000000
vt 0.426667 0.000000
vt 0.173333 0.000000
vt 0.440000 0.000000
vt 0.160000 0.000000
vt 0.453333 0.000000
vt 0.146667 0.000000
vt 0.466667 0.000000
vt 0.133333 0.000000
vt 0.480000 0.000000
vt 0.120000 0.000000
vt 0.493333 0.000000
vt 0.106667 0.000000
vt 0.506667 0.000000
vt 0.093333 0.000000
vt 0.520000 0.000000
vt 0.080000 0.000000
vt 0.533333 0.000000
vt 0.066667 0.000000
vt 0.546667 0.000000
vt 0.053333 0.000000
vt 0.560000 0.000000
vt 0.040000 0.000000
vt 0.573333 0.000000
vt 0.026667 0.000000
vt 0.586667 0.000000
vt 0.013333 0.000000
vt 0.600000 0.000000
vt 0.000000 0.000000
vt 0.613333 0.000000
vt 0.626667 0.000000
vt 0.000000 1.000000
vt 0.035714 1.000000
vt 0.035714 0.000000
vt 0.071429 1.000000
vt 0.071429 0.000000
vt 0.107143 1.000000
vt 0.107143 0.000000
vt 0.142857 1.000000
vt 0.142857 0.000000
vt 0.178571 1.000000
vt 0.178571 0.000000
vt 0.214286 1.000000
vt 0.214286 0.000000
vt 0.250000 1.000000
vt 0.250000 0.000000
vt 0.285714 1.000000
vt 0.285714 0.000000
vt 0.321429 1.000000
vt 0.321429 0.000000
vt 0.357143 1.000000
vt 0.357143 0.000000
vt 0.392857 1.000000
vt 0.392857 0.000000
vt 0.428571 1.000000
vt 0.428571 0.000000
vt 0.464286 1.000000
vt 0.464286 0.000000
vt 0.500000 1.000000
vt 0.500000 0.000000
vt 0.535714 1.000000
vt 0.535714 0.000000
vt 0.571429 1.000000
vt 0.571429 0.000000
vt 0.607143 1.000000
vt 0.607143 0.000000
vt 0.642857 1.000000
vt 0.642857 0.000000
vt 0.678571 1.000000
vt 0.678571 0.000000
vt 0.714286 1.000000
vt 0.714286 0.000000
vt 0.750000 1.000000
vt 0.750000 0.000000
vt 0.785714 1.000000
vt 0.785714 0.000000
vt 0.821429 1.000000
vt 0.821429 0.000000
vt 0.857143 1.000000
vt 0.857143 0.000000
vt 0.892857 1.000000
vt 0.892857 0.000000
vt 0.928571 1.000000
vt 0.928571 0.000000
vt 0.964286 1.000000
vt 0.964286 0.000000
vt 1.000000 1.000000
vt 0.020833 1.000000
vt 0.020833 0.000000
vt 0.041667 1.000000
vt 0.041667 0.000000
vt 0.062500 1.000000
vt 0.062500 0.000000
vt 0.083333 1.000000
vt 0.083333 0.000000
vt 0.104167 1.000000
vt 0.104167 0.000000
vt 0.125000 1.000000
vt 0.125000 0.000000
vt 0.145833 1.000000
vt 0.145833 0.000000
vt 0.166667 1.000000
vt 0.166667 0.000000
vt 0.187500 1.000000
vt 0.187500 0.000000
vt 0.208333 1.000000
vt 0.208333 0.000000
vt 0.229167 1.000000
vt 0.229167 0.000000
vt 0.270833 1.000000
vt 0.270833 0.000000
vt 0.291667 1.000000
vt 0.291667 0.000000
vt 0.312500 1.000000
vt 0.312500 0.000000
vt 0.333333 1.000000
vt 0.354167 1.000000
vt 0.354167 0.000000
vt 0.375000 1.000000
vt 0.375000 0.000000
vt 0.395833 1.000000
vt 0.395833 0.000000
vt 0.416667 1.000000
vt 0.416667 0.000000
vt 0.437500 1.000000
vt 0.437500 0.000000
vt 0.458333 1.000000
vt 0.458333 0.000000
vt 0.479167 1.000000
vt 0.479167 0.000000
vt 0.520833 1.000000
vt 0.520833 0.000000
vt 0.541667 1.000000
vt 0.541667 0.000000
vt 0.562500 1.000000
vt 0.562500 0.000000
vt 0.583333 1.000000
vt 0.583333 0.000000
vt 0.604167 1.000000
vt 0.604167 0.000000
vt 0.625000 1.000000
vt 0.625000 0.000000
vt 0.645833 1.000000
vt 0.645833 0.000000
vt 0.666667 1.000000
vt 0.687500 1.000000
vt 0.687500 0.000000
vt 0.708333 1.000000
vt 0.708333 0.000000
vt 0.729167 1.000000
vt 0.729167 0.000000
vt 0.770833 1.000000
vt 0.770833 0.000000
vt 0.791667 1.000000
vt 0.791667 0.000000
vt 0.812500 1.000000
vt 0.812500 0.000000
vt 0.833333 1.000000
vt 0.833333 0.000000
vt 0.854167 1.000000
vt 0.854167 0.000000
vt 0.875000 1.000000
vt 0.875000 0.000000
vt 0.895833 1.000000
vt 0.895833 0.000000
vt 0.916667 1.000000
vt 0.916667 0.000000
vt 0.937500 1.000000
vt 0.937500 0.000000
vt 0.958333 1.000000
vt 0.958333 0.000000
vt 0.979167 1.000000
vt 0.979167 0.000000
s 0
f 73/1/1 75/2/1 74/3/1
f 73/1/1 76/4/1 75/2/1
f 73/1/1 49/5/1 76/4/1
f 72/6/1 49/5/1 73/1/1
f 71/7/1 49/5/1 72/6/1
f 71/7/1 50/8/1 49/5/1
f 70/9/1 50/8/1 71/7/1
f 69/10/1 50/8/1 70/9/1
f 69/10/1 51/11/1 50/8/1
f 68/12/1 51/11/1 69/10/1
f 67/13/1 51/11/1 68/12/1
f 67/13/1 52/14/1 51/11/1
f 66/15/1 52/14/1 67/13/1
f 65/16/1 52/14/1 66/15/1
f 65/16/1 53/17/1 52/14/1
f 64/18/1 53/17/1 65/16/1
f 63/19/1 53/17/1 64/18/1
f 63/19/1 54/20/1 53/17/1
f 62/21/1 54/20/1 63/19/1
f 61/22/1 54/20/1 62/21/1
f 60/23/1 54/20/1 61/22/1
f 60/23/1 55/24/1 54/20/1
f 60/23/1 56/25/1 55/24/1
f 60/23/1 57/26/1 56/25/1
f 60/23/1 58/27/1 57/26/1
f 60/23/1 59/28/1 58/27/1
f 23/29/1 25/30/1 24/31/1
f 22/32/1 25/30/1 23/29/1
f 22/32/1 26/33/1 25/30/1
f 21/34/1 26/33/1 22/32/1
f 21/34/1 27/35/1 26/33/1
f 20/36/1 27/35/1 21/34/1
f 20/36/1 28/37/1 27/35/1
f 19/38/1 28/37/1 20/36/1
f 19/38/1 29/39/1 28/37/1
f 18/40/1 29/39/1 19/38/1
f 18/40/1 30/41/1 29/39/1
f 17/42/1 30/41/1 18/40/1
f 17/42/1 31/43/1 30/41/1
f 16/44/1 31/43/1 17/42/1
f 16/44/1 32/45/1 31/43/1
f 15/46/1 32/45/1 16/44/1
f 15/46/1 33/47/1 32/45/1
f 14/48/1 33/47/1 15/46/1
f 14/48/1 34/49/1 33/47/1
f 13/50/1 34/49/1 14/48/1
f 13/50/1 35/51/1 34/49/1
f 12/52/1 35/51/1 13/50/1
f 12/52/1 36/53/1 35/51/1
f 11/54/1 36/53/1 12/52/1
f 11/54/1 37/55/1 36/53/1
f 10/56/1 37/55/1 11/54/1
f 10/56/1 38/57/1 37/55/1
f 9/58/1 38/57/1 10/56/1
f 9/58/1 39/59/1 38/57/1
f 8/60/1 39/59/1 9/58/1
f 8/60/1 40/61/1 39/59/1
f 7/62/1 40/61/1 8/60/1
f 7/62/1 41/63/1 40/61/1
f 6/64/1 41/63/1 7/62/1
f 6/64/1 42/65/1 41/63/1
f 5/66/1 42/65/1 6/64/1
f 5/66/1 43/67/1 42/65/1
f 4/68/1 43/67/1 5/66/1
f 4/68/1 44/69/1 43/67/1
f 3/70/1 44/69/1 4/68/1
f 3/70/1 45/71/1 44/69/1
f 2/72/1 45/71/1 3/70/1
f 2/72/1 46/73/1 45/71/1
f 1/74/1 46/73/1 2/72/1
f 1/74/1 47/75/1 46/73/1
f 48/76/1 47/75/1 1/74/1
f 149/1/2 150/3/2 151/2/2
f 149/1/2 151/2/2 152/4/2
f 149/1/2 152/4/2 125/5/2
f 148/6/2 149/1/2 125/5/2
f 147/7/2 148/6/2 125/5/2
f 147/7/2 125/5/2 126/8/2
f 146/9/2 147/7/2 126/8/2
f 145/10/2 146/9/2 126/8/2
f 145/10/2 126/8/2 127/11/2
f 144/12/2 145/10/2 127/11/2
f 143/13/2 144/12/2 127/11/2
f 143/13/2 127/11/2 128/14/2
f 142/15/2 143/13/2 128/14/2
f 141/16/2 142/15/2 128/14/2
f 141/16/2 128/14/2 129/17/2
f 140/18/2 141/16/2 129/17/2
f 139/19/2 140/18/2 129/17/2
f 139/19/2 129/17/2 130/20/2
f 138/21/2 139/19/2 130/20/2
f 137/22/2 138/21/2 130/20/2
f 136/23/2 137/22/2 130/20/2
f 136/23/2 130/20/2 131/24/2
f 136/23/2 131/24/2 132/25/2
f 136/23/2 132/25/2 133/26/2
f 136/23/2 133/26/2 134/27/2
f 136/23/2 134/27/2 135/28/2
f 99/29/2 100/31/2 101/30/2
f 98/32/2 99/29/2 101/30/2
f 98/32/2 101/30/2 102/33/2
f 97/34/2 98/32/2 102/33/2
f 97/34/2 102/33/2 103/35/2
f 96/36/2 97/34/2 103/35/2
f 96/36/2 103/35/2 104/37/2
f 95/38/2 96/36/2 104/37/2
f 95/38/2 104/37/2 105/39/2
f 94/40/2 95/38/2 105/39/2
f 94/40/2 105/39/2 106/41/2
f 93/42/2 94/40/2 106/41/2
f 93/42/2 106/41/2 107/43/2
f 92/44/2 93/42/2 107/43/2
f 92/44/2 107/43/2 108/45/2
f 91/46/2 92/44/2 108/45/2
f 91/46/2 108/45/2 109/47/2
f 90/48/2 91/46/2 109/47/2
f 90/48/2 109/47/2 110/49/2
f 89/50/2 90/48/2 110/49/2
f 89/50/2 110/49/2 111/51/2
f 88/52/2 89/50/2 111/51/2
f 88/52/2 111/51/2 112/53/2
f 87/54/2 88/52/2 112/53/2
f 87/54/2 112/53/2 113/55/2
f 86/56/2 87/54/2 113/55/2
f 86/56/2 113/55/2 114/57/2
f 85/58/2 86/56/2 114/57/2
f 85/58/2 114/57/2 115/59/2
f 84/60/2 85/58/2 115/59/2
f 84/60/2 115/59/2 116/61/2
f 83/62/2 84/60/2 116/61/2
f 83/62/2 116/61/2 117/63/2
f 82/64/2 83/62/2 117/63/2
f 82/64/2 117/63/2 118/65/2
f 81/66/2 82/64/2 118/65/2
f 81/66/2 118/65/2 119/67/2
f 80/68/2 81/66/2 119/67/2
f 80/68/2 119/67/2 120/69/2
f 79/70/2 80/68/2 120/69/2
f 79/70/2 120/69/2 121/71/2
f 78/72/2 79/70/2 121/71/2
f 78/72/2 121/71/2 122/73/2
f 77/74/2 78/72/2 122/73/2
f 77/74/2 122/73/2 123/75/2
f 124/76/2 77/74/2 123/75/2
s 1
f 154/77/3 156/78/4 155/79/4 153/74/3
f 156/78/4 158/80/5 157/81/5 155/79/4
f 158/80/5 160/82/6 159/83/6 157/81/5
f 160/82/6 162/84/7 161/85/7 159/83/6
f 162/84/7 164/86/8 163/87/8 161/85/7
f 164/86/8 166/88/9 165/89/9 163/87/8
f 166/88/9 168/90/10 167/91/10 165/89/9
f 168/90/10 170/92/11 169/93/11 167/91/10
f 170/92/11 172/94/12 171/95/12 169/93/11
f 172/94/12 174/96/13 173/97/13 171/95/12
f 174/96/13 176/98/14 175/99/14 173/97/13
f 176/98/14 178/100/15 177/101/15 175/99/14
f 178/100/15 180/102/16 179/103/16 177/101/15
f 180/102/16 182/104/17 181/105/17 179/103/16
f 182/104/17 184/106/18 183/107/18 181/105/17
f 184/106/18 186/108/19 185/109/19 183/107/18
f 186/108/19 188/110/20 187/111/20 185/109/19
f 188/110/20 190/112/21 189/113/21 187/111/20
f 190/112/21 192/114/22 191/115/22 189/113/21
f 192/114/22 194/116/23 193/117/23 191/115/22
f 194/116/23 196/118/24 195/119/24 193/117/23
f 196/118/24 198/120/25 197/121/25 195/119/24
f 198/120/25 200/122/26 199/123/26 197/121/25
f 200/122/26 202/124/27 201/125/27 199/123/26
f 202/124/27 204/126/28 203/127/28 201/125/27
f 204/126/28 206/128/29 205/129/29 203/127/28
f 206/128/29 208/130/30 207/131/30 205/129/29
f 208/130/30 154/132/3 153/4/3 207/131/30
f 210/77/31 212/133/32 211/134/32 209/74/31
f 212/133/32 214/135/33 213/136/33 211/134/32
f 214/135/33 216/137/34 215/138/34 213/136/33
f 216/137/34 218/139/35 217/140/35 215/138/34
f 218/139/35 220/141/36 219/142/36 217/140/35
f 220/141/36 222/143/37 221/144/37 219/142/36
f 222/143/37 224/145/38 223/146/38 221/144/37
f 224/145/38 226/147/39 225/148/39 223/146/38
f 226/147/39 228/149/40 227/150/40 225/148/39
f 228/149/40 230/151/41 229/152/41 227/150/40
f 230/151/41 232/153/42 231/154/42 229/152/41
f 232/153/42 234/90/43 233/91/43 231/154/42
f 234/90/43 236/155/44 235/156/44 233/91/43
f 236/155/44 238/157/45 237/158/45 235/156/44
f 238/157/45 240/159/46 239/160/46 237/158/45
f 240/159/46 242/161/47 241/33/47 239/160/46
f 242/161/47 244/162/28 243/163/28 241/33/47
f 244/162/28 246/164/48 245/165/48 243/163/28
f 246/164/48 248/166/49 247/167/49 245/165/48
f 248/166/49 250/168/50 249/169/50 247/167/49
f 250/168/50 252/170/51 251/171/51 249/169/50
f 252/170/51 254/172/52 253/173/52 251/171/51
f 254/172/52 256/174/53 255/175/53 253/173/52
f 256/174/53 258/104/54 257/105/54 255/175/53
f 258/104/54 260/176/55 259/177/55 257/105/54
f 260/176/55 262/178/56 261/179/56 259/177/55
f 262/178/56 264/180/57 263/181/57 261/179/56
f 264/180/57 266/182/58 265/183/58 263/181/57
f 266/182/58 268/184/29 267/185/29 265/183/58
f 268/184/29 270/186/59 269/187/59 267/185/29
f 270/186/59 272/188/60 271/189/60 269/187/59
f 272/188/60 274/190/61 273/11/61 271/189/60
f 274/190/61 276/191/62 275/192/62 273/11/61
f 276/191/62 278/193/63 277/194/63 275/192/62
f 278/193/63 280/195/64 279/196/64 277/194/63
f 280/195/64 282/118/65 281/119/65 279/196/64
f 282/118/65 284/197/66 283/198/66 281/119/65
f 284/197/66 286/199/67 285/200/67 283/198/66
f 286/199/67 288/201/68 287/202/68 285/200/67
f 288/201/68 290/203/69 289/204/69 287/202/68
f 290/203/69 292/205/70 291/206/70 289/204/69
f 292/205/70 294/207/71 293/208/71 291/206/70
f 294/207/71 296/209/72 295/210/72 293/208/71
f 296/209/72 298/211/73 297/212/73 295/210/72
f 298/211/73 300/213/74 299/214/74 297/212/73
f 300/213/74 302/215/75 301/216/75 299/214/74
f 302/215/75 304/217/76 303/218/76 301/216/75
f 304/217/76 210/132/31 209/4/31 303/218/76
