# Blender 4.5.0
# www.blender.org
mtllib N_capital.mtl
o Text
v 0.232000 0.050000 0.341000
v -0.224000 0.050000 -0.184000
v -0.224000 0.050000 0.341000
v -0.316000 0.050000 0.341000
v -0.316000 0.050000 -0.341000
v -0.238000 0.050000 -0.341000
v 0.224000 0.050000 0.187000
v 0.224000 0.050000 -0.341000
v 0.316000 0.050000 -0.341000
v 0.316000 0.050000 0.341000
v 0.232000 -0.050000 0.341000
v -0.224000 -0.050000 -0.184000
v -0.224000 -0.050000 0.341000
v -0.316000 -0.050000 0.341000
v -0.316000 -0.050000 -0.341000
v -0.238000 -0.050000 -0.341000
v 0.224000 -0.050000 0.187000
v 0.224000 -0.050000 -0.341000
v 0.316000 -0.050000 -0.341000
v 0.316000 -0.050000 0.341000
v 0.232000 -0.050000 0.341000
v 0.232000 0.050000 0.341000
v -0.224000 -0.050000 -0.184000
v -0.224000 0.050000 -0.184000
v -0.224000 -0.050000 0.341000
v -0.224000 0.050000 0.341000
v -0.316000 -0.050000 0.341000
v -0.316000 0.050000 0.341000
v -0.316000 -0.050000 -0.341000
v -0.316000 0.050000 -0.341000
v -0.238000 -0.050000 -0.341000
v -0.238000 0.050000 -0.341000
v 0.224000 -0.050000 0.187000
v 0.224000 0.050000 0.187000
v 0.224000 -0.050000 -0.341000
v 0.224000 0.050000 -0.341000
v 0.316000 -0.050000 -0.341000
v 0.316000 0.050000 -0.341000
v 0.316000 -0.050000 0.341000
v 0.316000 0.050000 0.341000
vn -0.0000 1.0000 -0.0000
vn -0.0000 -1.0000 -0.0000
vn -0.4149 -0.0000 0.9099
vn 0.3500 -0.0000 0.9367
vn 0.7071 -0.0000 0.7071
vn -0.7071 -0.0000 0.7071
vn -0.7071 -0.0000 -0.7071
vn 0.4132 -0.0000 -0.9106
vn -0.3517 -0.0000 -0.9361
vn 0.7071 -0.0000 -0.7071
vt 0.333333 0.000000
vt 0.555556 0.000000
vt 0.444444 0.000000
vt 0.111111 0.000000
vt 0.666667 0.000000
vt 0.888889 0.000000
vt 0.777778 0.000000
vt 1.000000 0.000000
vt 0.222222 0.000000
vt 0.000000 0.000000
vt 0.000000 1.000000
vt 0.100000 1.000000
vt 0.100000 0.000000
vt 0.200000 1.000000
vt 0.200000 0.000000
vt 0.300000 1.000000
vt 0.300000 0.000000
vt 0.400000 1.000000
vt 0.400000 0.000000
vt 0.500000 1.000000
vt 0.500000 0.000000
vt 0.600000 1.000000
vt 0.600000 0.000000
vt 0.700000 1.000000
vt 0.700000 0.000000
vt 0.800000 1.000000
vt 0.800000 0.000000
vt 0.900000 1.000000
vt 0.900000 0.000000
vt 1.000000 1.000000
s 0
f 4/1/1 6/2/1 5/3/1
f 4/1/1 2/4/1 6/2/1
f 2/4/1 7/5/1 6/2/1
f 7/5/1 9/6/1 8/7/1
f 7/5/1 10/8/1 9/6/1
f 4/1/1 3/9/1 2/4/1
f 1/10/1 7/5/1 2/4/1
f 1/10/1 10/8/1 7/5/1
f 14/1/2 15/3/2 16/2/2
f 14/1/2 16/2/2 12/4/2
f 12/4/2 16/2/2 17/5/2
f 17/5/2 18/7/2 19/6/2
f 17/5/2 19/6/2 20/8/2
f 14/1/2 12/4/2 13/9/2
f 11/10/2 12/4/2 17/5/2
f 11/10/2 17/5/2 20/8/2
s 1
f 22/11/3 24/12/4 23/13/4 21/10/3
f 24/12/4 26/14/5 25/15/5 23/13/4
f 26/14/5 28/16/6 27/17/6 25/15/5
f 28/16/6 30/18/7 29/19/7 27/17/6
f 30/18/7 32/20/8 31/21/8 29/19/7
f 32/20/8 34/22/9 33/23/9 31/21/8
f 34/22/9 36/24/7 35/25/7 33/23/9
f 36/24/7 38/26/10 37/27/10 35/25/7
f 38/26/10 40/28/5 39/29/5 37/27/10
f 40/28/5 22/30/3 21/8/3 39/29/5
