# Blender 4.5.0
# www.blender.org
mtllib p.mtl
o Text
v -0.203500 0.050000 0.339500
v -0.203500 0.050000 -0.339500
v -0.049500 0.050000 -0.339500
v -0.010071 0.050000 -0.337840
v 0.026185 0.050000 -0.332889
v 0.059219 0.050000 -0.324688
v 0.088981 0.050000 -0.313278
v 0.115425 0.050000 -0.298701
v 0.138500 0.050000 -0.281000
v 0.158159 0.050000 -0.260215
v 0.174352 0.050000 -0.236389
v 0.187031 0.050000 -0.209563
v 0.196148 0.050000 -0.179778
v 0.201654 0.050000 -0.147076
v 0.203500 0.050000 -0.111500
v 0.201554 0.050000 -0.078615
v 0.195847 0.050000 -0.047588
v 0.186578 0.050000 -0.018609
v 0.173944 0.050000 0.008130
v 0.158144 0.050000 0.032438
v 0.139375 0.050000 0.054125
v 0.117835 0.050000 0.072999
v 0.093722 0.050000 0.088870
v 0.067234 0.050000 0.101547
v 0.038569 0.050000 0.110838
v 0.007925 0.050000 0.116553
v -0.024500 0.050000 0.118500
v -0.031714 0.050000 0.118374
v -0.038875 0.050000 0.117991
v -0.046016 0.050000 0.117344
v -0.053167 0.050000 0.116426
v -0.060359 0.050000 0.115230
v -0.067625 0.050000 0.113750
v -0.074995 0.050000 0.111978
v -0.082500 0.050000 0.109907
v -0.090172 0.050000 0.107531
v -0.098042 0.050000 0.104843
v -0.106141 0.050000 0.101835
v -0.114500 0.050000 0.098500
v -0.114500 0.050000 0.339500
v -0.107710 0.050000 0.021624
v -0.100847 0.050000 0.024495
v -0.093922 0.050000 0.027109
v -0.086944 0.050000 0.029463
v -0.079925 0.050000 0.031553
v -0.072875 0.050000 0.033375
v -0.065804 0.050000 0.034927
v -0.058722 0.050000 0.036204
v -0.051641 0.050000 0.037203
v -0.044569 0.050000 0.037921
v -0.037519 0.050000 0.038355
v -0.030500 0.050000 0.038500
v -0.010251 0.050000 0.037190
v 0.008912 0.050000 0.033357
v 0.026859 0.050000 0.027141
v 0.043463 0.050000 0.018685
v 0.058594 0.050000 0.008133
v 0.072125 0.050000 -0.004375
v 0.083927 0.050000 -0.018695
v 0.093870 0.050000 -0.034685
v 0.101828 0.050000 -0.052203
v 0.107671 0.050000 -0.071106
v 0.111271 0.050000 -0.091253
v 0.112500 0.050000 -0.112500
v 0.111480 0.050000 -0.134929
v 0.108421 0.050000 -0.155681
v 0.103328 0.050000 -0.174703
v 0.096204 0.050000 -0.191944
v 0.087051 0.050000 -0.207352
v 0.075875 0.050000 -0.220875
v 0.062678 0.050000 -0.232460
v 0.047463 0.050000 -0.242056
v 0.030234 0.050000 -0.249609
v 0.010995 0.050000 -0.255069
v -0.010251 0.050000 -0.258384
v -0.033500 0.050000 -0.259500
v -0.114500 0.050000 -0.259500
v -0.114500 0.050000 0.018500
v -0.203500 -0.050000 0.339500
v -0.203500 -0.050000 -0.339500
v -0.049500 -0.050000 -0.339500
v -0.010071 -0.050000 -0.337840
v 0.026185 -0.050000 -0.332889
v 0.059219 -0.050000 -0.324688
v 0.088981 -0.050000 -0.313278
v 0.115425 -0.050000 -0.298701
v 0.138500 -0.050000 -0.281000
v 0.158159 -0.050000 -0.260215
v 0.174352 -0.050000 -0.236389
v 0.187031 -0.050000 -0.209563
v 0.196148 -0.050000 -0.179778
v 0.201654 -0.050000 -0.147076
v 0.203500 -0.050000 -0.111500
v 0.201554 -0.050000 -0.078615
v 0.195847 -0.050000 -0.047588
v 0.186578 -0.050000 -0.018609
v 0.173944 -0.050000 0.008130
v 0.158144 -0.050000 0.032438
v 0.139375 -0.050000 0.054125
v 0.117835 -0.050000 0.072999
v 0.093722 -0.050000 0.088870
v 0.067234 -0.050000 0.101547
v 0.038569 -0.050000 0.110838
v 0.007925 -0.050000 0.116553
v -0.024500 -0.050000 0.118500
v -0.031714 -0.050000 0.118374
v -0.038875 -0.050000 0.117991
v -0.046016 -0.050000 0.117344
v -0.053167 -0.050000 0.116426
v -0.060359 -0.050000 0.115230
v -0.067625 -0.050000 0.113750
v -0.074995 -0.050000 0.111978
v -0.082500 -0.050000 0.109907
v -0.090172 -0.050000 0.107531
v -0.098042 -0.050000 0.104843
v -0.106141 -0.050000 0.101835
v -0.114500 -0.050000 0.098500
v -0.114500 -0.050000 0.339500
v -0.107710 -0.050000 0.021624
v -0.100847 -0.050000 0.024495
v -0.093922 -0.050000 0.027109
v -0.086944 -0.050000 0.029463
v -0.079925 -0.050000 0.031553
v -0.072875 -0.050000 0.033375
v -0.065804 -0.050000 0.034927
v -0.058722 -0.050000 0.036204
v -0.051641 -0.050000 0.037203
v -0.044569 -0.050000 0.037921
v -0.037519 -0.050000 0.038355
v -0.030500 -0.050000 0.038500
v -0.010251 -0.050000 0.037190
v 0.008912 -0.050000 0.033357
v 0.026859 -0.050000 0.027141
v 0.043463 -0.050000 0.018685
v 0.058594 -0.050000 0.008133
v 0.072125 -0.050000 -0.004375
v 0.083927 -0.050000 -0.018695
v 0.093870 -0.050000 -0.034685
v 0.101828 -0.050000 -0.052203
v 0.107671 -0.050000 -0.071106
v 0.111271 -0.050000 -0.091253
v 0.112500 -0.050000 -0.112500
v 0.111480 -0.050000 -0.134929
v 0.108421 -0.050000 -0.155681
v 0.103328 -0.050000 -0.174703
v 0.096204 -0.050000 -0.191944
v 0.087051 -0.050000 -0.207352
v 0.075875 -0.050000 -0.220875
v 0.062678 -0.050000 -0.232460
v 0.047463 -0.050000 -0.242056
v 0.030234 -0.050000 -0.249609
v 0.010995 -0.050000 -0.255069
v -0.010251 -0.050000 -0.258384
v -0.033500 -0.050000 -0.259500
v -0.114500 -0.050000 -0.259500
v -0.114500 -0.050000 0.018500
v -0.203500 -0.050000 0.339500
v -0.203500 0.050000 0.339500
v -0.203500 -0.050000 -0.339500
v -0.203500 0.050000 -0.339500
v -0.049500 -0.050000 -0.339500
v -0.049500 0.050000 -0.339500
v -0.010071 -0.050000 -0.337840
v -0.010071 0.050000 -0.337840
v 0.026185 -0.050000 -0.332889
v 0.026185 0.050000 -0.332889
v 0.059219 -0.050000 -0.324688
v 0.059219 0.050000 -0.324688
v 0.088981 -0.050000 -0.313278
v 0.088981 0.050000 -0.313278
v 0.115425 -0.050000 -0.298701
v 0.115425 0.050000 -0.298701
v 0.138500 -0.050000 -0.281000
v 0.138500 0.050000 -0.281000
v 0.158159 -0.050000 -0.260215
v 0.158159 0.050000 -0.260215
v 0.174352 -0.050000 -0.236389
v 0.174352 0.050000 -0.236389
v 0.187031 -0.050000 -0.209563
v 0.187031 0.050000 -0.209563
v 0.196148 -0.050000 -0.179778
v 0.196148 0.050000 -0.179778
v 0.201654 -0.050000 -0.147076
v 0.201654 0.050000 -0.147076
v 0.203500 -0.050000 -0.111500
v 0.203500 0.050000 -0.111500
v 0.201554 -0.050000 -0.078615
v 0.201554 0.050000 -0.078615
v 0.195847 -0.050000 -0.047588
v 0.195847 0.050000 -0.047588
v 0.186578 -0.050000 -0.018609
v 0.186578 0.050000 -0.018609
v 0.173944 -0.050000 0.008130
v 0.173944 0.050000 0.008130
v 0.158144 -0.050000 0.032438
v 0.158144 0.050000 0.032438
v 0.139375 -0.050000 0.054125
v 0.139375 0.050000 0.054125
v 0.117835 -0.050000 0.072999
v 0.117835 0.050000 0.072999
v 0.093722 -0.050000 0.088870
v 0.093722 0.050000 0.088870
v 0.067234 -0.050000 0.101547
v 0.067234 0.050000 0.101547
v 0.038569 -0.050000 0.110838
v 0.038569 0.050000 0.110838
v 0.007925 -0.050000 0.116553
v 0.007925 0.050000 0.116553
v -0.024500 -0.050000 0.118500
v -0.024500 0.050000 0.118500
v -0.031714 -0.050000 0.118374
v -0.031714 0.050000 0.118374
v -0.038875 -0.050000 0.117991
v -0.038875 0.050000 0.117991
v -0.046016 -0.050000 0.117344
v -0.046016 0.050000 0.117344
v -0.053167 -0.050000 0.116426
v -0.053167 0.050000 0.116426
v -0.060359 -0.050000 0.115230
v -0.060359 0.050000 0.115230
v -0.067625 -0.050000 0.113750
v -0.067625 0.050000 0.113750
v -0.074995 -0.050000 0.111978
v -0.074995 0.050000 0.111978
v -0.082500 -0.050000 0.109907
v -0.082500 0.050000 0.109907
v -0.090172 -0.050000 0.107531
v -0.090172 0.050000 0.107531
v -0.098042 -0.050000 0.104843
v -0.098042 0.050000 0.104843
v -0.106141 -0.050000 0.101835
v -0.106141 0.050000 0.101835
v -0.114500 -0.050000 0.098500
v -0.114500 0.050000 0.098500
v -0.114500 -0.050000 0.339500
v -0.114500 0.050000 0.339500
v -0.107710 -0.050000 0.021624
v -0.107710 0.050000 0.021624
v -0.100847 -0.050000 0.024495
v -0.100847 0.050000 0.024495
v -0.093922 -0.050000 0.027109
v -0.093922 0.050000 0.027109
v -0.086944 -0.050000 0.029463
v -0.086944 0.050000 0.029463
v -0.079925 -0.050000 0.031553
v -0.079925 0.050000 0.031553
v -0.072875 -0.050000 0.033375
v -0.072875 0.050000 0.033375
v -0.065804 -0.050000 0.034927
v -0.065804 0.050000 0.034927
v -0.058722 -0.050000 0.036204
v -0.058722 0.050000 0.036204
v -0.051641 -0.050000 0.037203
v -0.051641 0.050000 0.037203
v -0.044569 -0.050000 0.037921
v -0.044569 0.050000 0.037921
v -0.037519 -0.050000 0.038355
v -0.037519 0.050000 0.038355
v -0.030500 -0.050000 0.038500
v -0.030500 0.050000 0.038500
v -0.010251 -0.050000 0.037190
v -0.010251 0.050000 0.037190
v 0.008912 -0.050000 0.033357
v 0.008912 0.050000 0.033357
v 0.026859 -0.050000 0.027141
v 0.026859 0.050000 0.027141
v 0.043463 -0.050000 0.018685
v 0.043463 0.050000 0.018685
v 0.058594 -0.050000 0.008133
v 0.058594 0.050000 0.008133
v 0.072125 -0.050000 -0.004375
v 0.072125 0.050000 -0.004375
v 0.083927 -0.050000 -0.018695
v 0.083927 0.050000 -0.018695
v 0.093870 -0.050000 -0.034685
v 0.093870 0.050000 -0.034685
v 0.101828 -0.050000 -0.052203
v 0.101828 0.050000 -0.052203
v 0.107671 -0.050000 -0.071106
v 0.107671 0.050000 -0.071106
v 0.111271 -0.050000 -0.091253
v 0.111271 0.050000 -0.091253
v 0.112500 -0.050000 -0.112500
v 0.112500 0.050000 -0.112500
v 0.111480 -0.050000 -0.134929
v 0.111480 0.050000 -0.134929
v 0.108421 -0.050000 -0.155681
v 0.108421 0.050000 -0.155681
v 0.103328 -0.050000 -0.174703
v 0.103328 0.050000 -0.174703
v 0.096204 -0.050000 -0.191944
v 0.096204 0.050000 -0.191944
v 0.087051 -0.050000 -0.207352
v 0.087051 0.050000 -0.207352
v 0.075875 -0.050000 -0.220875
v 0.075875 0.050000 -0.220875
v 0.062678 -0.050000 -0.232460
v 0.062678 0.050000 -0.232460
v 0.047463 -0.050000 -0.242056
v 0.047463 0.050000 -0.242056
v 0.030234 -0.050000 -0.249609
v 0.030234 0.050000 -0.249609
v 0.010995 -0.050000 -0.255069
v 0.010995 0.050000 -0.255069
v -0.010251 -0.050000 -0.258384
v -0.010251 0.050000 -0.258384
v -0.033500 -0.050000 -0.259500
v -0.033500 0.050000 -0.259500
v -0.114500 -0.050000 -0.259500
v -0.114500 0.050000 -0.259500
v -0.114500 -0.050000 0.018500
v -0.114500 0.050000 0.018500
vn -0.0000 1.0000 -0.0000
vn -0.0000 -1.0000 -0.0000
vn -0.7071 -0.0000 0.7071
vn -0.7071 -0.0000 -0.7071
vn 0.0210 -0.0000 -0.9998
vn 0.0888 -0.0000 -0.9961
vn 0.1884 -0.0000 -0.9821
vn 0.3000 -0.0000 -0.9539
vn 0.4213 -0.0000 -0.9069
vn 0.5473 -0.0000 -0.8370
vn 0.6697 -0.0000 -0.7426
vn 0.7793 -0.0000 -0.6266
vn 0.8682 -0.0000 -0.4962
vn 0.9326 -0.0000 -0.3609
vn 0.9732 -0.0000 -0.2298
vn 0.9940 -0.0000 -0.1091
vn 1.0000 -0.0000 0.0036
vn 0.9927 -0.0000 0.1202
vn 0.9700 -0.0000 0.2433
vn 0.9303 -0.0000 0.3667
vn 0.8733 -0.0000 0.4872
vn 0.7992 -0.0000 0.6011
vn 0.7093 -0.0000 0.7049
vn 0.6058 -0.0000 0.7956
vn 0.4919 -0.0000 0.8707
vn 0.3708 -0.0000 0.9287
vn 0.2463 -0.0000 0.9692
vn 0.1219 -0.0000 0.9925
vn 0.0212 -0.0000 0.9998
vn -0.0355 -0.0000 0.9994
vn -0.0718 -0.0000 0.9974
vn -0.1088 -0.0000 0.9941
vn -0.1457 -0.0000 0.9893
vn -0.1818 -0.0000 0.9833
vn -0.2167 -0.0000 0.9762
vn -0.2499 -0.0000 0.9683
vn -0.2809 -0.0000 0.9597
vn -0.3096 -0.0000 0.9509
vn -0.3358 -0.0000 0.9419
vn -0.3594 -0.0000 0.9332
vn 0.5610 -0.0000 0.8278
vn 0.7071 -0.0000 0.7071
vn 0.4020 -0.0000 -0.9156
vn 0.3696 -0.0000 -0.9292
vn 0.3364 -0.0000 -0.9417
vn 0.3025 -0.0000 -0.9531
vn 0.2678 -0.0000 -0.9635
vn 0.2323 -0.0000 -0.9726
vn 0.1959 -0.0000 -0.9806
vn 0.1586 -0.0000 -0.9873
vn 0.1204 -0.0000 -0.9927
vn 0.0812 -0.0000 -0.9967
vn 0.0410 -0.0000 -0.9992
vn -0.0219 -0.0000 -0.9998
vn -0.1306 -0.0000 -0.9914
vn -0.2623 -0.0000 -0.9650
vn -0.3915 -0.0000 -0.9202
vn -0.5141 -0.0000 -0.8577
vn -0.6269 -0.0000 -0.7791
vn -0.7269 -0.0000 -0.6867
vn -0.8122 -0.0000 -0.5833
vn -0.8817 -0.0000 -0.4718
vn -0.9348 -0.0000 -0.3552
vn -0.9717 -0.0000 -0.2361
vn -0.9931 -0.0000 -0.1170
vn -1.0000 -0.0000 -0.0062
vn -0.9954 -0.0000 0.0957
vn -0.9793 -0.0000 0.2026
vn -0.9471 -0.0000 0.3209
vn -0.8943 -0.0000 0.4475
vn -0.8177 -0.0000 0.5756
vn -0.7175 -0.0000 0.6965
vn -0.5984 -0.0000 0.8012
vn -0.4688 -0.0000 0.8833
vn -0.3381 -0.0000 0.9411
vn -0.2140 -0.0000 0.9768
vn -0.1012 -0.0000 0.9949
vn -0.0240 -0.0000 0.9997
vn 0.8420 -0.0000 -0.5394
vt 0.000000 0.000000
vt 0.987013 0.000000
vt 0.012987 0.000000
vt 0.025974 0.000000
vt 0.038961 0.000000
vt 0.051948 0.000000
vt 0.064935 0.000000
vt 0.077922 0.000000
vt 0.090909 0.000000
vt 0.103896 0.000000
vt 0.116883 0.000000
vt 0.974026 0.000000
vt 0.961039 0.000000
vt 0.129870 0.000000
vt 1.000000 0.000000
vt 0.948052 0.000000
vt 0.935065 0.000000
vt 0.922078 0.000000
vt 0.909091 0.000000
vt 0.142857 0.000000
vt 0.896104 0.000000
vt 0.883117 0.000000
vt 0.155844 0.000000
vt 0.870130 0.000000
vt 0.857143 0.000000
vt 0.168831 0.000000
vt 0.844156 0.000000
vt 0.831169 0.000000
vt 0.181818 0.000000
vt 0.818182 0.000000
vt 0.805195 0.000000
vt 0.194805 0.000000
vt 0.792208 0.000000
vt 0.207792 0.000000
vt 0.779221 0.000000
vt 0.766234 0.000000
vt 0.220779 0.000000
vt 0.753247 0.000000
vt 0.740260 0.000000
vt 0.233766 0.000000
vt 0.727273 0.000000
vt 0.246753 0.000000
vt 0.714286 0.000000
vt 0.519481 0.000000
vt 0.701299 0.000000
vt 0.532468 0.000000
vt 0.545455 0.000000
vt 0.493506 0.000000
vt 0.558442 0.000000
vt 0.688312 0.000000
vt 0.571429 0.000000
vt 0.584416 0.000000
vt 0.259740 0.000000
vt 0.675325 0.000000
vt 0.597403 0.000000
vt 0.610390 0.000000
vt 0.623377 0.000000
vt 0.662338 0.000000
vt 0.636364 0.000000
vt 0.649351 0.000000
vt 0.272727 0.000000
vt 0.285714 0.000000
vt 0.298701 0.000000
vt 0.506494 0.000000
vt 0.480519 0.000000
vt 0.311688 0.000000
vt 0.467532 0.000000
vt 0.454545 0.000000
vt 0.441558 0.000000
vt 0.428571 0.000000
vt 0.324675 0.000000
vt 0.415584 0.000000
vt 0.402597 0.000000
vt 0.389610 0.000000
vt 0.376623 0.000000
vt 0.337662 0.000000
vt 0.363636 0.000000
vt 0.350649 0.000000
vt 0.000000 1.000000
vt 0.025000 1.000000
vt 0.025000 0.000000
vt 0.050000 1.000000
vt 0.050000 0.000000
vt 0.075000 1.000000
vt 0.075000 0.000000
vt 0.100000 1.000000
vt 0.100000 0.000000
vt 0.125000 1.000000
vt 0.125000 0.000000
vt 0.150000 1.000000
vt 0.150000 0.000000
vt 0.175000 1.000000
vt 0.175000 0.000000
vt 0.200000 1.000000
vt 0.200000 0.000000
vt 0.225000 1.000000
vt 0.225000 0.000000
vt 0.250000 1.000000
vt 0.250000 0.000000
vt 0.275000 1.000000
vt 0.275000 0.000000
vt 0.300000 1.000000
vt 0.300000 0.000000
vt 0.325000 1.000000
vt 0.325000 0.000000
vt 0.350000 1.000000
vt 0.350000 0.000000
vt 0.375000 1.000000
vt 0.375000 0.000000
vt 0.400000 1.000000
vt 0.400000 0.000000
vt 0.425000 1.000000
vt 0.425000 0.000000
vt 0.450000 1.000000
vt 0.450000 0.000000
vt 0.475000 1.000000
vt 0.475000 0.000000
vt 0.500000 1.000000
vt 0.500000 0.000000
vt 0.525000 1.000000
vt 0.525000 0.000000
vt 0.550000 1.000000
vt 0.550000 0.000000
vt 0.575000 1.000000
vt 0.575000 0.000000
vt 0.600000 1.000000
vt 0.600000 0.000000
vt 0.625000 1.000000
vt 0.625000 0.000000
vt 0.650000 1.000000
vt 0.650000 0.000000
vt 0.675000 1.000000
vt 0.675000 0.000000
vt 0.700000 1.000000
vt 0.700000 0.000000
vt 0.725000 1.000000
vt 0.725000 0.000000
vt 0.750000 1.000000
vt 0.750000 0.000000
vt 0.775000 1.000000
vt 0.775000 0.000000
vt 0.800000 1.000000
vt 0.800000 0.000000
vt 0.825000 1.000000
vt 0.825000 0.000000
vt 0.850000 1.000000
vt 0.850000 0.000000
vt 0.875000 1.000000
vt 0.875000 0.000000
vt 0.900000 1.000000
vt 0.900000 0.000000
vt 0.925000 1.000000
vt 0.925000 0.000000
vt 0.950000 1.000000
vt 0.950000 0.000000
vt 0.975000 1.000000
vt 0.975000 0.000000
vt 1.000000 1.000000
vt 0.026316 1.000000
vt 0.026316 0.000000
vt 0.052632 1.000000
vt 0.052632 0.000000
vt 0.078947 1.000000
vt 0.078947 0.000000
vt 0.105263 1.000000
vt 0.105263 0.000000
vt 0.131579 1.000000
vt 0.131579 0.000000
vt 0.157895 1.000000
vt 0.157895 0.000000
vt 0.184211 1.000000
vt 0.184211 0.000000
vt 0.210526 1.000000
vt 0.210526 0.000000
vt 0.236842 1.000000
vt 0.236842 0.000000
vt 0.263158 1.000000
vt 0.263158 0.000000
vt 0.289474 1.000000
vt 0.289474 0.000000
vt 0.315789 1.000000
vt 0.315789 0.000000
vt 0.342105 1.000000
vt 0.342105 0.000000
vt 0.368421 1.000000
vt 0.368421 0.000000
vt 0.394737 1.000000
vt 0.394737 0.000000
vt 0.421053 1.000000
vt 0.421053 0.000000
vt 0.447368 1.000000
vt 0.447368 0.000000
vt 0.473684 1.000000
vt 0.473684 0.000000
vt 0.526316 1.000000
vt 0.526316 0.000000
vt 0.552632 1.000000
vt 0.552632 0.000000
vt 0.578947 1.000000
vt 0.578947 0.000000
vt 0.605263 1.000000
vt 0.605263 0.000000
vt 0.631579 1.000000
vt 0.631579 0.000000
vt 0.657895 1.000000
vt 0.657895 0.000000
vt 0.684211 1.000000
vt 0.684211 0.000000
vt 0.710526 1.000000
vt 0.710526 0.000000
vt 0.736842 1.000000
vt 0.736842 0.000000
vt 0.763158 1.000000
vt 0.763158 0.000000
vt 0.789474 1.000000
vt 0.789474 0.000000
vt 0.815789 1.000000
vt 0.815789 0.000000
vt 0.842105 1.000000
vt 0.842105 0.000000
vt 0.868421 1.000000
vt 0.868421 0.000000
vt 0.894737 1.000000
vt 0.894737 0.000000
vt 0.921053 1.000000
vt 0.921053 0.000000
vt 0.947368 1.000000
vt 0.947368 0.000000
vt 0.973684 1.000000
vt 0.973684 0.000000
s 0
f 1/1/1 77/2/1 2/3/1
f 77/2/1 3/4/1 2/3/1
f 77/2/1 4/5/1 3/4/1
f 77/2/1 5/6/1 4/5/1
f 77/2/1 6/7/1 5/6/1
f 77/2/1 7/8/1 6/7/1
f 77/2/1 8/9/1 7/8/1
f 77/2/1 9/10/1 8/9/1
f 77/2/1 10/11/1 9/10/1
f 77/2/1 76/12/1 10/11/1
f 76/12/1 75/13/1 10/11/1
f 75/13/1 11/14/1 10/11/1
f 1/1/1 78/15/1 77/2/1
f 74/16/1 11/14/1 75/13/1
f 73/17/1 11/14/1 74/16/1
f 72/18/1 11/14/1 73/17/1
f 71/19/1 11/14/1 72/18/1
f 71/19/1 12/20/1 11/14/1
f 70/21/1 12/20/1 71/19/1
f 69/22/1 12/20/1 70/21/1
f 69/22/1 13/23/1 12/20/1
f 68/24/1 13/23/1 69/22/1
f 67/25/1 13/23/1 68/24/1
f 67/25/1 14/26/1 13/23/1
f 66/27/1 14/26/1 67/25/1
f 65/28/1 14/26/1 66/27/1
f 65/28/1 15/29/1 14/26/1
f 64/30/1 15/29/1 65/28/1
f 63/31/1 15/29/1 64/30/1
f 63/31/1 16/32/1 15/29/1
f 62/33/1 16/32/1 63/31/1
f 62/33/1 17/34/1 16/32/1
f 61/35/1 17/34/1 62/33/1
f 60/36/1 17/34/1 61/35/1
f 60/36/1 18/37/1 17/34/1
f 59/38/1 18/37/1 60/36/1
f 58/39/1 18/37/1 59/38/1
f 58/39/1 19/40/1 18/37/1
f 57/41/1 19/40/1 58/39/1
f 57/41/1 20/42/1 19/40/1
f 56/43/1 20/42/1 57/41/1
f 1/1/1 41/44/1 78/15/1
f 55/45/1 20/42/1 56/43/1
f 1/1/1 42/46/1 41/44/1
f 1/1/1 43/47/1 42/46/1
f 1/1/1 39/48/1 43/47/1
f 39/48/1 44/49/1 43/47/1
f 54/50/1 20/42/1 55/45/1
f 39/48/1 45/51/1 44/49/1
f 39/48/1 46/52/1 45/51/1
f 54/50/1 21/53/1 20/42/1
f 53/54/1 21/53/1 54/50/1
f 39/48/1 47/55/1 46/52/1
f 39/48/1 48/56/1 47/55/1
f 39/48/1 49/57/1 48/56/1
f 52/58/1 21/53/1 53/54/1
f 39/48/1 50/59/1 49/57/1
f 39/48/1 51/60/1 50/59/1
f 39/48/1 52/58/1 51/60/1
f 39/48/1 21/53/1 52/58/1
f 39/48/1 22/61/1 21/53/1
f 39/48/1 23/62/1 22/61/1
f 39/48/1 24/63/1 23/62/1
f 1/1/1 40/64/1 39/48/1
f 38/65/1 24/63/1 39/48/1
f 38/65/1 25/66/1 24/63/1
f 37/67/1 25/66/1 38/65/1
f 36/68/1 25/66/1 37/67/1
f 35/69/1 25/66/1 36/68/1
f 34/70/1 25/66/1 35/69/1
f 34/70/1 26/71/1 25/66/1
f 33/72/1 26/71/1 34/70/1
f 32/73/1 26/71/1 33/72/1
f 31/74/1 26/71/1 32/73/1
f 30/75/1 26/71/1 31/74/1
f 30/75/1 27/76/1 26/71/1
f 29/77/1 27/76/1 30/75/1
f 28/78/1 27/76/1 29/77/1
f 79/1/2 80/3/2 155/2/2
f 155/2/2 80/3/2 81/4/2
f 155/2/2 81/4/2 82/5/2
f 155/2/2 82/5/2 83/6/2
f 155/2/2 83/6/2 84/7/2
f 155/2/2 84/7/2 85/8/2
f 155/2/2 85/8/2 86/9/2
f 155/2/2 86/9/2 87/10/2
f 155/2/2 87/10/2 88/11/2
f 155/2/2 88/11/2 154/12/2
f 154/12/2 88/11/2 153/13/2
f 153/13/2 88/11/2 89/14/2
f 79/1/2 155/2/2 156/15/2
f 152/16/2 153/13/2 89/14/2
f 151/17/2 152/16/2 89/14/2
f 150/18/2 151/17/2 89/14/2
f 149/19/2 150/18/2 89/14/2
f 149/19/2 89/14/2 90/20/2
f 148/21/2 149/19/2 90/20/2
f 147/22/2 148/21/2 90/20/2
f 147/22/2 90/20/2 91/23/2
f 146/24/2 147/22/2 91/23/2
f 145/25/2 146/24/2 91/23/2
f 145/25/2 91/23/2 92/26/2
f 144/27/2 145/25/2 92/26/2
f 143/28/2 144/27/2 92/26/2
f 143/28/2 92/26/2 93/29/2
f 142/30/2 143/28/2 93/29/2
f 141/31/2 142/30/2 93/29/2
f 141/31/2 93/29/2 94/32/2
f 140/33/2 141/31/2 94/32/2
f 140/33/2 94/32/2 95/34/2
f 139/35/2 140/33/2 95/34/2
f 138/36/2 139/35/2 95/34/2
f 138/36/2 95/34/2 96/37/2
f 137/38/2 138/36/2 96/37/2
f 136/39/2 137/38/2 96/37/2
f 136/39/2 96/37/2 97/40/2
f 135/41/2 136/39/2 97/40/2
f 135/41/2 97/40/2 98/42/2
f 134/43/2 135/41/2 98/42/2
f 79/1/2 156/15/2 119/44/2
f 133/45/2 134/43/2 98/42/2
f 79/1/2 119/44/2 120/46/2
f 79/1/2 120/46/2 121/47/2
f 79/1/2 121/47/2 117/48/2
f 117/48/2 121/47/2 122/49/2
f 132/50/2 133/45/2 98/42/2
f 117/48/2 122/49/2 123/51/2
f 117/48/2 123/51/2 124/52/2
f 132/50/2 98/42/2 99/53/2
f 131/54/2 132/50/2 99/53/2
f 117/48/2 124/52/2 125/55/2
f 117/48/2 125/55/2 126/56/2
f 117/48/2 126/56/2 127/57/2
f 130/58/2 131/54/2 99/53/2
f 117/48/2 127/57/2 128/59/2
f 117/48/2 128/59/2 129/60/2
f 117/48/2 129/60/2 130/58/2
f 117/48/2 130/58/2 99/53/2
f 117/48/2 99/53/2 100/61/2
f 117/48/2 100/61/2 101/62/2
f 117/48/2 101/62/2 102/63/2
f 79/1/2 117/48/2 118/64/2
f 116/65/2 117/48/2 102/63/2
f 116/65/2 102/63/2 103/66/2
f 115/67/2 116/65/2 103/66/2
f 114/68/2 115/67/2 103/66/2
f 113/69/2 114/68/2 103/66/2
f 112/70/2 113/69/2 103/66/2
f 112/70/2 103/66/2 104/71/2
f 111/72/2 112/70/2 104/71/2
f 110/73/2 111/72/2 104/71/2
f 109/74/2 110/73/2 104/71/2
f 108/75/2 109/74/2 104/71/2
f 108/75/2 104/71/2 105/76/2
f 107/77/2 108/75/2 105/76/2
f 106/78/2 107/77/2 105/76/2
s 1
f 158/79/3 160/80/4 159/81/4 157/1/3
f 160/80/4 162/82/5 161/83/5 159/81/4
f 162/82/5 164/84/6 163/85/6 161/83/5
f 164/84/6 166/86/7 165/87/7 163/85/6
f 166/86/7 168/88/8 167/89/8 165/87/7
f 168/88/8 170/90/9 169/91/9 167/89/8
f 170/90/9 172/92/10 171/93/10 169/91/9
f 172/92/10 174/94/11 173/95/11 171/93/10
f 174/94/11 176/96/12 175/97/12 173/95/11
f 176/96/12 178/98/13 177/99/13 175/97/12
f 178/98/13 180/100/14 179/101/14 177/99/13
f 180/100/14 182/102/15 181/103/15 179/101/14
f 182/102/15 184/104/16 183/105/16 181/103/15
f 184/104/16 186/106/17 185/107/17 183/105/16
f 186/106/17 188/108/18 187/109/18 185/107/17
f 188/108/18 190/110/19 189/111/19 187/109/18
f 190/110/19 192/112/20 191/113/20 189/111/19
f 192/112/20 194/114/21 193/115/21 191/113/20
f 194/114/21 196/116/22 195/117/22 193/115/21
f 196/116/22 198/118/23 197/119/23 195/117/22
f 198/118/23 200/120/24 199/121/24 197/119/23
f 200/120/24 202/122/25 201/123/25 199/121/24
f 202/122/25 204/124/26 203/125/26 201/123/25
f 204/124/26 206/126/27 205/127/27 203/125/26
f 206/126/27 208/128/28 207/129/28 205/127/27
f 208/128/28 210/130/29 209/131/29 207/129/28
f 210/130/29 212/132/30 211/133/30 209/131/29
f 212/132/30 214/134/31 213/135/31 211/133/30
f 214/134/31 216/136/32 215/137/32 213/135/31
f 216/136/32 218/138/33 217/139/33 215/137/32
f 218/138/33 220/140/34 219/141/34 217/139/33
f 220/140/34 222/142/35 221/143/35 219/141/34
f 222/142/35 224/144/36 223/145/36 221/143/35
f 224/144/36 226/146/37 225/147/37 223/145/36
f 226/146/37 228/148/38 227/149/38 225/147/37
f 228/148/38 230/150/39 229/151/39 227/149/38
f 230/150/39 232/152/40 231/153/40 229/151/39
f 232/152/40 234/154/41 233/155/41 231/153/40
f 234/154/41 236/156/42 235/157/42 233/155/41
f 236/156/42 158/158/3 157/15/3 235/157/42
f 238/79/43 240/159/44 239/160/44 237/1/43
f 240/159/44 242/161/45 241/162/45 239/160/44
f 242/161/45 244/163/46 243/164/46 241/162/45
f 244/163/46 246/165/47 245/166/47 243/164/46
f 246/165/47 248/167/48 247/168/48 245/166/47
f 248/167/48 250/169/49 249/170/49 247/168/48
f 250/169/49 252/171/50 251/172/50 249/170/49
f 252/171/50 254/173/51 253/174/51 251/172/50
f 254/173/51 256/175/52 255/176/52 253/174/51
f 256/175/52 258/177/53 257/178/53 255/176/52
f 258/177/53 260/179/54 259/180/54 257/178/53
f 260/179/54 262/181/55 261/182/55 259/180/54
f 262/181/55 264/183/56 263/184/56 261/182/55
f 264/183/56 266/185/57 265/186/57 263/184/56
f 266/185/57 268/187/58 267/188/58 265/186/57
f 268/187/58 270/189/59 269/190/59 267/188/58
f 270/189/59 272/191/60 271/192/60 269/190/59
f 272/191/60 274/193/61 273/194/61 271/192/60
f 274/193/61 276/118/62 275/119/62 273/194/61
f 276/118/62 278/195/63 277/196/63 275/119/62
f 278/195/63 280/197/64 279/198/64 277/196/63
f 280/197/64 282/199/65 281/200/65 279/198/64
f 282/199/65 284/201/66 283/202/66 281/200/65
f 284/201/66 286/203/67 285/204/67 283/202/66
f 286/203/67 288/205/68 287/206/68 285/204/67
f 288/205/68 290/207/69 289/208/69 287/206/68
f 290/207/69 292/209/70 291/210/70 289/208/69
f 292/209/70 294/211/71 293/212/71 291/210/70
f 294/211/71 296/213/72 295/214/72 293/212/71
f 296/213/72 298/215/73 297/216/73 295/214/72
f 298/215/73 300/217/74 299/218/74 297/216/73
f 300/217/74 302/219/75 301/220/75 299/218/74
f 302/219/75 304/221/76 303/222/76 301/220/75
f 304/221/76 306/223/77 305/224/77 303/222/76
f 306/223/77 308/225/78 307/226/78 305/224/77
f 308/225/78 310/227/42 309/228/42 307/226/78
f 310/227/42 312/229/79 311/230/79 309/228/42
f 312/229/79 238/158/43 237/15/43 311/230/79
