# Blender 4.5.0
# www.blender.org
mtllib Y_capital.mtl
o Text
v 0.302000 0.050000 -0.341000
v 0.049000 0.050000 -0.019000
v 0.049000 0.050000 0.341000
v -0.049000 0.050000 0.341000
v -0.049000 0.050000 -0.020000
v -0.302000 0.050000 -0.341000
v -0.184000 0.050000 -0.341000
v -0.001000 0.050000 -0.106000
v 0.184000 0.050000 -0.341000
v 0.302000 -0.050000 -0.341000
v 0.049000 -0.050000 -0.019000
v 0.049000 -0.050000 0.341000
v -0.049000 -0.050000 0.341000
v -0.049000 -0.050000 -0.020000
v -0.302000 -0.050000 -0.341000
v -0.184000 -0.050000 -0.341000
v -0.001000 -0.050000 -0.106000
v 0.184000 -0.050000 -0.341000
v 0.302000 -0.050000 -0.341000
v 0.302000 0.050000 -0.341000
v 0.049000 -0.050000 -0.019000
v 0.049000 0.050000 -0.019000
v 0.049000 -0.050000 0.341000
v 0.049000 0.050000 0.341000
v -0.049000 -0.050000 0.341000
v -0.049000 0.050000 0.341000
v -0.049000 -0.050000 -0.020000
v -0.049000 0.050000 -0.020000
v -0.302000 -0.050000 -0.341000
v -0.302000 0.050000 -0.341000
v -0.184000 -0.050000 -0.341000
v -0.184000 0.050000 -0.341000
v -0.001000 -0.050000 -0.106000
v -0.001000 0.050000 -0.106000
v 0.184000 -0.050000 -0.341000
v 0.184000 0.050000 -0.341000
vn -0.0000 1.0000 -0.0000
vn -0.0000 -1.0000 -0.0000
vn 0.8994 -0.0000 -0.4371
vn 0.9451 -0.0000 0.3269
vn 0.7071 -0.0000 0.7071
vn -0.7071 -0.0000 0.7071
vn -0.9448 -0.0000 0.3276
vn -0.8997 -0.0000 -0.4365
vn 0.4391 -0.0000 -0.8984
vn 0.0026 -0.0000 -1.0000
vn -0.4367 -0.0000 -0.8996
vt 0.500000 0.000000
vt 0.750000 0.000000
vt 0.625000 0.000000
vt 0.875000 0.000000
vt 0.000000 0.000000
vt 1.000000 0.000000
vt 0.125000 0.000000
vt 0.375000 0.000000
vt 0.250000 0.000000
vt 0.000000 1.000000
vt 0.111111 1.000000
vt 0.111111 0.000000
vt 0.222222 1.000000
vt 0.222222 0.000000
vt 0.333333 1.000000
vt 0.333333 0.000000
vt 0.444444 1.000000
vt 0.444444 0.000000
vt 0.555556 1.000000
vt 0.555556 0.000000
vt 0.666667 1.000000
vt 0.666667 0.000000
vt 0.777778 1.000000
vt 0.777778 0.000000
vt 0.888889 1.000000
vt 0.888889 0.000000
vt 1.000000 1.000000
s 0
f 5/1/1 7/2/1 6/3/1
f 5/1/1 8/4/1 7/2/1
f 8/4/1 1/5/1 9/6/1
f 8/4/1 2/7/1 1/5/1
f 5/1/1 2/7/1 8/4/1
f 4/8/1 2/7/1 5/1/1
f 4/8/1 3/9/1 2/7/1
f 14/1/2 15/3/2 16/2/2
f 14/1/2 16/2/2 17/4/2
f 17/4/2 18/6/2 10/5/2
f 17/4/2 10/5/2 11/7/2
f 14/1/2 17/4/2 11/7/2
f 13/8/2 14/1/2 11/7/2
f 13/8/2 11/7/2 12/9/2
s 1
f 20/10/3 22/11/4 21/12/4 19/5/3
f 22/11/4 24/13/5 23/14/5 21/12/4
f 24/13/5 26/15/6 25/16/6 23/14/5
f 26/15/6 28/17/7 27/18/7 25/16/6
f 28/17/7 30/19/8 29/20/8 27/18/7
f 30/19/8 32/21/9 31/22/9 29/20/8
f 32/21/9 34/23/10 33/24/10 31/22/9
f 34/23/10 36/25/11 35/26/11 33/24/10
f 36/25/11 20/27/3 19/6/3 35/26/11
