# Blender 4.5.0
# www.blender.org
mtllib Z_capital.mtl
o Text
v -0.280500 0.050000 -0.341000
v 0.307500 0.050000 -0.341000
v -0.126500 0.050000 0.253000
v 0.307500 0.050000 0.253000
v 0.307500 0.050000 0.341000
v -0.307500 0.050000 0.341000
v 0.126500 0.050000 -0.253000
v -0.280500 0.050000 -0.253000
v -0.280500 -0.050000 -0.341000
v 0.307500 -0.050000 -0.341000
v -0.126500 -0.050000 0.253000
v 0.307500 -0.050000 0.253000
v 0.307500 -0.050000 0.341000
v -0.307500 -0.050000 0.341000
v 0.126500 -0.050000 -0.253000
v -0.280500 -0.050000 -0.253000
v -0.280500 -0.050000 -0.341000
v -0.280500 0.050000 -0.341000
v 0.307500 -0.050000 -0.341000
v 0.307500 0.050000 -0.341000
v -0.126500 -0.050000 0.253000
v -0.126500 0.050000 0.253000
v 0.307500 -0.050000 0.253000
v 0.307500 0.050000 0.253000
v 0.307500 -0.050000 0.341000
v 0.307500 0.050000 0.341000
v -0.307500 -0.050000 0.341000
v -0.307500 0.050000 0.341000
v 0.126500 -0.050000 -0.253000
v 0.126500 0.050000 -0.253000
v -0.280500 -0.050000 -0.253000
v -0.280500 0.050000 -0.253000
vn -0.0000 1.0000 -0.0000
vn -0.0000 -1.0000 -0.0000
vn -0.7071 -0.0000 -0.7071
vn 0.8916 -0.0000 -0.4528
vn 0.7071 -0.0000 -0.7071
vn 0.7071 -0.0000 0.7071
vn -0.8916 -0.0000 0.4528
vn -0.7071 -0.0000 0.7071
vt 1.000000 0.000000
vt 0.142857 0.000000
vt 0.000000 0.000000
vt 0.857143 0.000000
vt 0.285714 0.000000
vt 0.714286 0.000000
vt 0.428571 0.000000
vt 0.571429 0.000000
vt 0.000000 1.000000
vt 0.125000 1.000000
vt 0.125000 0.000000
vt 0.250000 1.000000
vt 0.250000 0.000000
vt 0.375000 1.000000
vt 0.375000 0.000000
vt 0.500000 1.000000
vt 0.500000 0.000000
vt 0.625000 1.000000
vt 0.625000 0.000000
vt 0.750000 1.000000
vt 0.750000 0.000000
vt 0.875000 1.000000
vt 0.875000 0.000000
vt 1.000000 1.000000
s 0
f 8/1/1 2/2/1 1/3/1
f 8/1/1 7/4/1 2/2/1
f 7/4/1 3/5/1 2/2/1
f 6/6/1 3/5/1 7/4/1
f 6/6/1 4/7/1 3/5/1
f 6/6/1 5/8/1 4/7/1
f 16/1/2 9/3/2 10/2/2
f 16/1/2 10/2/2 15/4/2
f 15/4/2 10/2/2 11/5/2
f 14/6/2 15/4/2 11/5/2
f 14/6/2 11/5/2 12/7/2
f 14/6/2 12/7/2 13/8/2
s 1
f 18/9/3 20/10/4 19/11/4 17/3/3
f 20/10/4 22/12/4 21/13/4 19/11/4
f 22/12/4 24/14/5 23/15/5 21/13/4
f 24/14/5 26/16/6 25/17/6 23/15/5
f 26/16/6 28/18/7 27/19/7 25/17/6
f 28/18/7 30/20/7 29/21/7 27/19/7
f 30/20/7 32/22/8 31/23/8 29/21/7
f 32/22/8 18/24/3 17/1/3 31/23/8
