# Blender 4.5.0
# www.blender.org
mtllib bench.mtl
o Cube.014
v 1.243284 0.797103 -0.285595
v 1.243284 0.022177 -0.672537
v 1.191674 0.797103 -0.285595
v 1.191674 0.022177 -0.672537
v 1.243284 0.797103 -0.386249
v 1.243284 0.022177 -0.773191
v 1.191674 0.797103 -0.386249
v 1.191674 0.022177 -0.773191
v 1.380000 0.954759 0.391918
v 1.380000 0.854759 0.391918
v 1.380000 0.954759 0.711918
v 1.380000 0.854759 0.711918
v -1.380000 0.954759 0.391918
v -1.380000 0.854759 0.391918
v -1.380000 0.954759 0.711918
v -1.380000 0.854759 0.711918
v 1.380000 0.954759 0.025305
v 1.380000 0.854759 0.025305
v 1.380000 0.954759 0.345305
v 1.380000 0.854759 0.345305
v -1.380000 0.954759 0.025305
v -1.380000 0.854759 0.025305
v -1.380000 0.954759 0.345305
v -1.380000 0.854759 0.345305
v 1.380000 0.954759 -0.346150
v 1.380000 0.854759 -0.346150
v 1.380000 0.954759 -0.026150
v 1.380000 0.854759 -0.026150
v -1.380000 0.954759 -0.346150
v -1.380000 0.854759 -0.346150
v -1.380000 0.954759 -0.026150
v -1.380000 0.854759 -0.026150
v 1.380000 0.954759 -0.712763
v 1.380000 0.854759 -0.712763
v 1.380000 0.954759 -0.392763
v 1.380000 0.854759 -0.392763
v -1.380000 0.954759 -0.712763
v -1.380000 0.854759 -0.712763
v -1.380000 0.954759 -0.392763
v -1.380000 0.854759 -0.392763
v 1.176141 0.872148 -0.532224
v 1.176141 0.772148 -0.532224
v 1.227751 0.872148 -0.532224
v 1.227751 0.772148 -0.532224
v 1.176141 0.872148 0.532224
v 1.176141 0.772148 0.532224
v 1.227751 0.872148 0.532224
v 1.227751 0.772148 0.532224
v -1.246485 0.874759 -0.532224
v -1.246485 0.774759 -0.532224
v -1.194875 0.874759 -0.532224
v -1.194875 0.774759 -0.532224
v -1.246485 0.874759 0.532224
v -1.246485 0.774759 0.532224
v -1.194875 0.874759 0.532224
v -1.194875 0.774759 0.532224
v -1.247271 0.783074 0.254421
v -1.247271 0.008148 0.641363
v -1.195661 0.783074 0.254421
v -1.195661 0.008148 0.641363
v -1.247271 0.783074 0.355075
v -1.247271 0.008148 0.742017
v -1.195661 0.783074 0.355075
v -1.195661 0.008148 0.742017
v -1.247674 0.411610 -1.543754
v -1.247674 0.311610 -1.543754
v -1.196065 0.411610 -1.543754
v -1.196065 0.311610 -1.543754
v -1.247674 0.411610 1.500588
v -1.247674 0.311610 1.500588
v -1.196065 0.411610 1.500588
v -1.196065 0.311610 1.500588
v 1.342922 0.497761 -1.187046
v 1.342922 0.397761 -1.187046
v 1.342922 0.497761 -0.867046
v 1.342922 0.397761 -0.867046
v -1.417078 0.497761 -1.187046
v -1.417078 0.397761 -1.187046
v -1.417078 0.497761 -0.867046
v -1.417078 0.397761 -0.867046
v 1.342922 0.497761 -1.553659
v 1.342922 0.397761 -1.553659
v 1.342922 0.497761 -1.233659
v 1.342922 0.397761 -1.233659
v -1.417078 0.497761 -1.553659
v -1.417078 0.397761 -1.553659
v -1.417078 0.497761 -1.233659
v -1.417078 0.397761 -1.233659
v 1.364551 0.493576 1.276989
v 1.364551 0.393576 1.276989
v 1.364551 0.493576 1.596990
v 1.364551 0.393576 1.596990
v -1.395449 0.493576 1.276989
v -1.395449 0.393576 1.276989
v -1.395449 0.493576 1.596990
v -1.395449 0.393576 1.596990
v 1.364551 0.493576 0.910376
v 1.364551 0.393576 0.910376
v 1.364550 0.493576 1.230376
v 1.364550 0.393576 1.230376
v -1.395449 0.493576 0.910376
v -1.395449 0.393576 0.910376
v -1.395449 0.493576 1.230376
v -1.395449 0.393576 1.230376
v 1.191674 0.783074 0.254421
v 1.191674 0.008148 0.641363
v 1.243284 0.783074 0.254421
v 1.243284 0.008148 0.641363
v 1.191674 0.783074 0.355075
v 1.191674 0.008148 0.742017
v 1.243284 0.783074 0.355075
v 1.243284 0.008148 0.742017
v -1.195661 0.779001 -0.285595
v -1.195661 0.004075 -0.672537
v -1.247271 0.779001 -0.285595
v -1.247271 0.004075 -0.672537
v -1.195661 0.779001 -0.386249
v -1.195661 0.004075 -0.773191
v -1.247271 0.779001 -0.386249
v -1.247271 0.004075 -0.773191
v 1.189985 0.411610 -1.543754
v 1.189985 0.311610 -1.543754
v 1.241594 0.411610 -1.543754
v 1.241594 0.311610 -1.543754
v 1.189985 0.411610 1.500588
v 1.189985 0.311610 1.500588
v 1.241594 0.411610 1.500588
v 1.241594 0.311610 1.500588
vn -0.0000 1.0000 -0.0000
vn -1.0000 -0.0000 -0.0000
vn -0.0000 0.4467 -0.8947
vn -0.0000 -1.0000 -0.0000
vn -0.0000 -0.4467 0.8947
vn 1.0000 -0.0000 -0.0000
vn -0.0000 -0.0000 1.0000
vn -0.0000 -0.0000 -1.0000
vn -0.0000 0.4467 0.8947
vn -0.0000 -0.4467 -0.8947
vt 0.625000 0.500000
vt 0.875000 0.500000
vt 0.875000 0.750000
vt 0.625000 0.750000
vt 0.375000 0.750000
vt 0.625000 1.000000
vt 0.375000 1.000000
vt 0.375000 0.000000
vt 0.625000 0.000000
vt 0.625000 0.250000
vt 0.375000 0.250000
vt 0.125000 0.500000
vt 0.375000 0.500000
vt 0.125000 0.750000
s 0
usemtl Material
f 1/1/1 5/2/1 7/3/1 3/4/1
f 4/5/2 3/4/2 7/6/2 8/7/2
f 8/8/3 7/9/3 5/10/3 6/11/3
f 6/12/4 2/13/4 4/5/4 8/14/4
f 2/13/5 1/1/5 3/4/5 4/5/5
f 6/11/6 5/10/6 1/1/6 2/13/6
f 9/1/1 13/2/1 15/3/1 11/4/1
f 12/5/7 11/4/7 15/6/7 16/7/7
f 16/8/2 15/9/2 13/10/2 14/11/2
f 14/12/4 10/13/4 12/5/4 16/14/4
f 10/13/6 9/1/6 11/4/6 12/5/6
f 14/11/8 13/10/8 9/1/8 10/13/8
f 17/1/1 21/2/1 23/3/1 19/4/1
f 20/5/7 19/4/7 23/6/7 24/7/7
f 24/8/2 23/9/2 21/10/2 22/11/2
f 22/12/4 18/13/4 20/5/4 24/14/4
f 18/13/6 17/1/6 19/4/6 20/5/6
f 22/11/8 21/10/8 17/1/8 18/13/8
f 25/1/1 29/2/1 31/3/1 27/4/1
f 28/5/7 27/4/7 31/6/7 32/7/7
f 32/8/2 31/9/2 29/10/2 30/11/2
f 30/12/4 26/13/4 28/5/4 32/14/4
f 26/13/6 25/1/6 27/4/6 28/5/6
f 30/11/8 29/10/8 25/1/8 26/13/8
f 33/1/1 37/2/1 39/3/1 35/4/1
f 36/5/7 35/4/7 39/6/7 40/7/7
f 40/8/2 39/9/2 37/10/2 38/11/2
f 38/12/4 34/13/4 36/5/4 40/14/4
f 34/13/6 33/1/6 35/4/6 36/5/6
f 38/11/8 37/10/8 33/1/8 34/13/8
f 41/1/1 45/2/1 47/3/1 43/4/1
f 44/5/6 43/4/6 47/6/6 48/7/6
f 48/8/7 47/9/7 45/10/7 46/11/7
f 46/12/4 42/13/4 44/5/4 48/14/4
f 42/13/8 41/1/8 43/4/8 44/5/8
f 46/11/2 45/10/2 41/1/2 42/13/2
f 49/1/1 53/2/1 55/3/1 51/4/1
f 52/5/6 51/4/6 55/6/6 56/7/6
f 56/8/7 55/9/7 53/10/7 54/11/7
f 54/12/4 50/13/4 52/5/4 56/14/4
f 50/13/8 49/1/8 51/4/8 52/5/8
f 54/11/2 53/10/2 49/1/2 50/13/2
f 57/1/1 61/2/1 63/3/1 59/4/1
f 60/5/6 59/4/6 63/6/6 64/7/6
f 64/8/9 63/9/9 61/10/9 62/11/9
f 62/12/4 58/13/4 60/5/4 64/14/4
f 58/13/10 57/1/10 59/4/10 60/5/10
f 62/11/2 61/10/2 57/1/2 58/13/2
f 65/1/1 69/2/1 71/3/1 67/4/1
f 68/5/6 67/4/6 71/6/6 72/7/6
f 72/8/7 71/9/7 69/10/7 70/11/7
f 70/12/4 66/13/4 68/5/4 72/14/4
f 66/13/8 65/1/8 67/4/8 68/5/8
f 70/11/2 69/10/2 65/1/2 66/13/2
f 73/1/1 77/2/1 79/3/1 75/4/1
f 76/5/7 75/4/7 79/6/7 80/7/7
f 80/8/2 79/9/2 77/10/2 78/11/2
f 78/12/4 74/13/4 76/5/4 80/14/4
f 74/13/6 73/1/6 75/4/6 76/5/6
f 78/11/8 77/10/8 73/1/8 74/13/8
f 81/1/1 85/2/1 87/3/1 83/4/1
f 84/5/7 83/4/7 87/6/7 88/7/7
f 88/8/2 87/9/2 85/10/2 86/11/2
f 86/12/4 82/13/4 84/5/4 88/14/4
f 82/13/6 81/1/6 83/4/6 84/5/6
f 86/11/8 85/10/8 81/1/8 82/13/8
f 89/1/1 93/2/1 95/3/1 91/4/1
f 92/5/7 91/4/7 95/6/7 96/7/7
f 96/8/2 95/9/2 93/10/2 94/11/2
f 94/12/4 90/13/4 92/5/4 96/14/4
f 90/13/6 89/1/6 91/4/6 92/5/6
f 94/11/8 93/10/8 89/1/8 90/13/8
f 97/1/1 101/2/1 103/3/1 99/4/1
f 100/5/7 99/4/7 103/6/7 104/7/7
f 104/8/2 103/9/2 101/10/2 102/11/2
f 102/12/4 98/13/4 100/5/4 104/14/4
f 98/13/6 97/1/6 99/4/6 100/5/6
f 102/11/8 101/10/8 97/1/8 98/13/8
f 105/1/1 109/2/1 111/3/1 107/4/1
f 108/5/6 107/4/6 111/6/6 112/7/6
f 112/8/9 111/9/9 109/10/9 110/11/9
f 110/12/4 106/13/4 108/5/4 112/14/4
f 106/13/10 105/1/10 107/4/10 108/5/10
f 110/11/2 109/10/2 105/1/2 106/13/2
f 113/1/1 117/2/1 119/3/1 115/4/1
f 116/5/2 115/4/2 119/6/2 120/7/2
f 120/8/3 119/9/3 117/10/3 118/11/3
f 118/12/4 114/13/4 116/5/4 120/14/4
f 114/13/5 113/1/5 115/4/5 116/5/5
f 118/11/6 117/10/6 113/1/6 114/13/6
f 121/1/1 125/2/1 127/3/1 123/4/1
f 124/5/6 123/4/6 127/6/6 128/7/6
f 128/8/7 127/9/7 125/10/7 126/11/7
f 126/12/4 122/13/4 124/5/4 128/14/4
f 122/13/8 121/1/8 123/4/8 124/5/8
f 126/11/2 125/10/2 121/1/2 122/13/2
