# SSTK version 0.8.0
# 17
mtllib original-17.mtl
o #ID119
v 0.303205 0.662105 -0.006730
v 0.301588 0.663077 -0.006730
v 0.299621 0.661078 0.014992
v 0.299621 0.661078 -0.028452
v 0.300319 0.662660 -0.006730
vn 0.6781295709371243 0.734942368502275 9.47484459556462e-7
vn 0.1313640984984253 0.9913341886684236 -0.00000167754498060448
vn 0.03862782793623285 0.9293995503450138 0.36704818038973425
vn 0.0386274489309436 0.9293970742779315 -0.36705448984137007
vn -0.5117872967678847 0.8591121945744069 7.530664954348836e-7
usemtl material_0_0
f 1//1 2//2 3//3
f 1//1 4//4 2//2
f 2//2 5//5 3//3
f 2//2 4//4 5//5
