# SSTK version 0.8.0
# 7
mtllib original-7.mtl
o instance_7/Cylinder80/ID61#ID61
v 0.392839 0.478674 0.005130
v 0.390073 0.479325 -0.000503
v 0.385816 0.479101 0.000827
v 0.397081 0.478085 -0.002812
v 0.389088 0.479556 -0.006731
v 0.389173 0.478311 0.007662
v 0.398822 0.477676 0.000732
v 0.384621 0.479382 -0.006731
v 0.387113 0.476764 0.008862
v 0.394464 0.477067 0.013054
v 0.396462 0.478231 -0.006731
v 0.401566 0.477031 0.003528
v 0.403171 0.476654 -0.002514
v 0.385816 0.479101 -0.014288
v 0.382181 0.477923 -0.006731
v 0.383476 0.477619 0.001456
v 0.397199 0.477649 0.009573
v 0.401837 0.476968 -0.006731
v 0.397081 0.478085 -0.010649
v 0.404209 0.476409 -0.005191
v 0.390073 0.479325 -0.012958
v 0.392845 0.475416 0.014703
v 0.382216 0.475085 0.001666
v 0.402660 0.476365 0.012459
v 0.405970 0.475995 -0.002700
v 0.408821 0.475325 -0.006731
v 0.383476 0.477619 -0.014918
v 0.392839 0.478674 -0.018591
v 0.391825 0.472826 0.015254
v 0.400024 0.473728 0.018499
v 0.385946 0.474208 0.009262
v 0.401091 0.475509 0.016557
v 0.404209 0.476409 -0.008270
v 0.406663 0.475833 0.000092
v 0.405002 0.476223 0.005344
v 0.387113 0.476764 -0.022323
v 0.382216 0.475085 -0.015128
v 0.389173 0.478311 -0.021123
v 0.380888 0.475397 -0.006731
v 0.384511 0.468101 0.009262
v 0.408457 0.473778 0.017725
v 0.403171 0.476654 -0.010947
v 0.398822 0.477676 -0.014193
v 0.408821 0.475325 0.005949
v 0.394464 0.477067 -0.026516
v 0.379452 0.469291 -0.006731
v 0.399189 0.471094 0.019146
v 0.380780 0.468978 0.001666
v 0.408730 0.474939 0.013421
v 0.401566 0.477031 -0.016989
v 0.408821 0.475325 -0.001749
v 0.385946 0.474208 -0.022723
v 0.397199 0.477649 -0.023034
v 0.397754 0.464988 0.019146
v 0.407374 0.469170 0.020443
v 0.390390 0.466719 0.015254
v 0.408004 0.471852 0.019763
v 0.377912 0.456778 0.001666
v 0.414800 0.473511 0.012459
v 0.405970 0.475995 -0.010761
v 0.410979 0.474818 0.000092
v 0.391825 0.472826 -0.028715
v 0.384511 0.468101 -0.022723
v 0.392845 0.475416 -0.028165
v 0.380780 0.468978 -0.015128
v 0.402660 0.476365 -0.025921
v 0.387521 0.454519 0.015254
v 0.415984 0.469976 0.018499
v 0.381642 0.455901 0.009262
v 0.415823 0.472046 0.016557
v 0.406663 0.475833 -0.013554
v 0.411671 0.474655 -0.002700
v 0.412640 0.474427 0.005344
v 0.400024 0.473728 -0.031960
v 0.377912 0.456778 -0.015128
v 0.401091 0.475509 -0.030018
v 0.376584 0.457090 -0.006731
v 0.405938 0.463064 0.020443
v 0.378058 0.440655 0.009262
v 0.422450 0.470488 0.013054
v 0.408821 0.475325 -0.011712
v 0.405002 0.476223 -0.018805
v 0.416076 0.473620 0.003528
v 0.414471 0.473997 -0.002514
v 0.390390 0.466719 -0.028715
v 0.408457 0.473778 -0.031186
v 0.373000 0.441844 -0.006731
v 0.403070 0.450863 0.020443
v 0.414123 0.461139 0.019146
v 0.394885 0.452788 0.019146
v 0.415558 0.467246 0.019146
v 0.374328 0.441532 0.001666
v 0.420261 0.472227 0.009573
v 0.410979 0.474818 -0.013554
v 0.408821 0.475325 -0.019411
v 0.413433 0.474241 -0.005191
v 0.397753 0.464988 -0.032607
v 0.387521 0.454519 -0.028715
v 0.399189 0.471094 -0.032607
v 0.381642 0.455901 -0.022723
v 0.408730 0.474939 -0.026883
v 0.391301 0.437541 0.019146
v 0.422922 0.465515 0.015254
v 0.383937 0.439272 0.015254
v 0.423164 0.468288 0.014703
v 0.424621 0.471202 0.005130
v 0.411671 0.474655 -0.010761
v 0.418820 0.472974 0.000732
v 0.420560 0.472565 -0.002812
v 0.415805 0.473683 -0.006731
v 0.407374 0.469170 -0.033905
v 0.378058 0.440655 -0.022723
v 0.408004 0.471852 -0.033225
v 0.374328 0.441532 -0.015128
v 0.414800 0.473511 -0.025921
v 0.411255 0.448940 0.019146
v 0.428896 0.466941 0.008862
v 0.427741 0.469244 0.007662
v 0.412640 0.474427 -0.018805
v 0.414471 0.473997 -0.010947
v 0.416076 0.473620 -0.016989
v 0.413433 0.474241 -0.008270
v 0.394885 0.452788 -0.032607
v 0.415984 0.469976 -0.031960
v 0.415823 0.472046 -0.030018
v 0.407670 0.433693 0.019146
v 0.418618 0.447208 0.015254
v 0.399485 0.435617 0.020443
v 0.421487 0.459408 0.015254
v 0.431098 0.468455 0.000827
v 0.421180 0.472420 -0.006731
v 0.420560 0.472565 -0.010649
v 0.403070 0.450863 -0.033905
v 0.391301 0.437541 -0.032607
v 0.405938 0.463064 -0.033905
v 0.383937 0.439272 -0.028715
v 0.422450 0.470488 -0.026516
v 0.427366 0.458026 0.009262
v 0.428801 0.464133 0.009262
v 0.427387 0.470552 -0.000503
v 0.418820 0.472974 -0.014193
v 0.428372 0.470320 -0.006731
v 0.414123 0.461139 -0.032607
v 0.415558 0.467246 -0.032607
v 0.420261 0.472227 -0.023034
v 0.415034 0.431962 0.015254
v 0.432532 0.463256 0.001666
v 0.432533 0.466085 0.001456
v 0.424621 0.471202 -0.018591
v 0.399485 0.435617 -0.033905
v 0.422922 0.465515 -0.028715
v 0.423164 0.468288 -0.028165
v 0.420913 0.430579 0.009262
v 0.424497 0.445826 0.009262
v 0.433828 0.465781 -0.006731
v 0.432293 0.468174 -0.006731
v 0.427387 0.470552 -0.012958
v 0.407670 0.433693 -0.032607
v 0.411255 0.448940 -0.032607
v 0.428896 0.466941 -0.022323
v 0.427741 0.469244 -0.021123
v 0.428228 0.444949 0.001666
v 0.431096 0.457149 0.001666
v 0.431098 0.468455 -0.014288
v 0.418618 0.447208 -0.028715
v 0.421487 0.459408 -0.028715
v 0.432424 0.456837 -0.006731
v 0.433860 0.462943 -0.006731
v 0.427366 0.458026 -0.022723
v 0.428801 0.464133 -0.022723
v 0.424643 0.429703 0.001666
v 0.432532 0.463256 -0.015128
v 0.432533 0.466085 -0.014918
v 0.415034 0.431962 -0.028715
v 0.425971 0.429390 -0.006731
v 0.429556 0.444636 -0.006731
v 0.420913 0.430579 -0.022723
v 0.424497 0.445826 -0.022723
v 0.428228 0.444949 -0.015128
v 0.431096 0.457149 -0.015128
v 0.424643 0.429703 -0.015128
vn 0.09033413805699447 0.9907915786889703 0.10085529783069408
vn 0.06692334106939284 0.9963537159211049 0.05292012084563043
vn -0.2804537023641097 0.9465912079793759 0.15909370134109488
vn 0.20177579560733025 0.979390278678622 0.009011677803815515
vn 0.05843311151926204 0.9982913259555938 0
vn -0.20971199966855233 0.9296606985306806 0.30290569952126084
vn 0.2057296997617537 0.978457898866892 0.017188099980095455
vn -0.3055170063381703 0.952186619753797 0
vn -0.5767262077560303 0.635346508544378 0.5135384069062572
vn -0.09838596900699777 0.9037848908781666 0.4165249957960445
vn 0.20028639849948235 0.9797373926599445 0
vn 0.21208800681573106 0.9769660313961068 0.02358073075779846
vn 0.22886440280854656 0.9734583119459512 0.0000055160040679066885
vn -0.2804537023641097 0.9465912079793759 -0.15909370134109446
vn -0.739156318375833 0.6735339167444239 0
vn -0.6974019165106174 0.6638939157173335 0.26995450639102875
vn 0.12748430388935364 0.9821138299628103 0.13856470422740014
vn 0.2288622066500172 0.9734588282856572 0
vn 0.20177579560733025 0.979390278678622 -0.009011677803815081
vn 0.22886629238668335 0.9734578676175863 0.000013512759550709514
vn 0.06692334106939284 0.9963537159211049 -0.05292012084562999
vn -0.38846780162033606 0.5912751024662646 0.7067436029478948
vn -0.8919179292368294 0.3321877108890236 0.3068122100572216
vn 0.1738510077574816 0.9711557433343638 0.16319420728196007
vn 0.22886149875329853 0.9734589946971738 0.000005617995969612647
vn 0.22886270273983214 0.9734587116537707 0
vn -0.6974019165106174 0.6638939157173335 -0.26995450639102847
vn 0.09033413805699447 0.9907915786889703 -0.10085529783069365
vn -0.5408072954706253 0.24965029790912618 0.8032447932726562
vn -0.1514759076952656 0.5353761271981302 0.830919642212306
vn -0.7546126071310852 0.2999837028348444 0.5835834055148603
vn 0.04111138957205219 0.8706939909365361 0.490103894898278
vn 0.22886629238668335 0.9734578676175863 -0.000013512759550277214
vn 0.22885599720656716 0.9734602881178732 -2.344839969217198e-7
vn 0.21996820298121786 0.9751103132156206 0.0278184603770224
vn -0.5767243354029339 0.6353492390016959 -0.5135371315241094
vn -0.8919179953619506 0.3321880982725937 -0.3068115984045536
vn -0.20971199966855228 0.9296606985306807 -0.3029056995212604
vn -0.939196563441042 0.3433799866336665 0
vn -0.7875464122961512 0.18515340289084437 0.5877830091771973
vn 0.19619719571462751 0.8345260817721395 0.5148522887545091
vn 0.22886440280854656 0.9734583119459512 -0.000005516004067474386
vn 0.2057296997617537 0.978457898866892 -0.017188099980095017
vn 0.228764197339828 0.9730452886849961 0.029151469661013944
vn -0.09838687459941742 0.903785242250408 -0.41652401947178236
vn -0.9734588282856572 0.2288622066500172 0
vn -0.27135590342531746 0.18637490235260465 0.9442618119193887
vn -0.9258138774977328 0.2176613947096549 0.3090180924891949
vn 0.22548010429925286 0.9590767182868166 0.1712617032654651
vn 0.21208869479870926 0.9769658760407619 -0.023580979421696777
vn 0.2288566103379602 0.9734601439733518 0
vn -0.7546104247393146 0.2999876098348601 -0.5835842191323537
vn 0.1274840050769964 0.982113939112271 -0.13856420551826049
vn -0.30081410331575115 0.07072219077954166 0.9510569104831125
vn 0.02729138942427952 0.11608489755115221 0.9928642790552145
vn -0.5721849101886851 0.1345228023953976 0.8090167144058615
vn 0.11137780130388433 0.4737440055460546 0.8735912102270103
vn -0.9258142727341544 0.21766099358973903 0.30901719089923846
vn 0.27708470579811667 0.9468857198139911 0.1631916034148547
vn 0.22886149875329853 0.9734589946971738 -0.000005617995969180345
vn 0.2288705899637346 0.973456857312683 -7.527360667754186e-7
vn -0.5408095235791173 0.24964791088456695 -0.8032440350211756
vn -0.7875454085271164 0.18515260200473252 -0.5877846063642143
vn -0.3884695072499249 0.5912736110348153 -0.7067439131898132
vn -0.9258142149089003 0.21766150350512412 -0.30901700497627227
vn 0.1738513042252639 0.9711556236028646 -0.1631946039662644
vn -0.5721854833042744 0.13452179607480585 0.8090164763938138
vn 0.3741582188268077 0.4118001207208641 0.8309189418099894
vn -0.7875459851894339 0.18515369651800503 0.5877834889461614
vn 0.35115368402148067 0.7978045636975595 0.4901009776989727
vn 0.22885580768157404 0.9734603326743186 -1.3904540445092492e-7
vn 0.22886770819128785 0.973457534840524 0.0000030785341103984008
vn 0.23756680065711108 0.9709728026857162 0.027817830076944494
vn -0.15147749887056708 0.5353710960082144 -0.8309225938045497
vn -0.9258146302957243 0.21766100712258987 -0.3090161101120316
vn 0.04111253165275051 0.8706931350024303 -0.4901053197025523
vn -0.9734588558022335 0.22886208960901824 0
vn -9.547425999999998e-9 2.244608777955395e-9 1
vn -0.787545934483625 0.185152208107107 0.5877840257368149
vn 0.4907876885123437 0.7652682820876946 0.41652359025061175
vn 0.2199681078198145 0.975110334664943 -0.027818460988939527
vn 0.24544349938939808 0.9691239975890624 0.023583169941331198
vn 0.2288602000062544 0.9734593000266031 0.0000066942800003990955
vn -0.5721849925196425 0.13452079824136673 -0.809016989423462
vn 0.19619779764103545 0.8345285899661292 -0.5148479938097765
vn -0.973459066786429 0.2288611921914565 0
vn 3.3920559999997973e-7 -6.976518022204042e-8 1
vn 0.3008144978566278 -0.07072208949608912 0.9510567932235025
vn -0.3008144054163641 0.0707221612733995 0.9510568171244127
vn 0.3259731978258907 0.045940969693592106 0.944262093702154
vn -0.9258143038385465 0.21765900090244247 0.309018501281231
vn 0.32347379553772104 0.9360372870874873 0.13856009808858166
vn 0.2288705899637346 0.973456857312683 7.527360672077203e-7
vn 0.22876349118723394 0.9730454625149013 -0.029151208876993736
vn 0.22886180531910977 0.9734589226247226 0.000005328438124057468
vn -0.30081671020764994 0.07072291239984939 -0.9510560322723
vn -0.57218456931959 0.13452159278698214 -0.8090171566206792
vn -0.27135850820195895 0.18636950563312019 -0.9442621285408379
vn -0.7875445334619569 0.1851534078669779 -0.587785524974402
vn 0.22548010893357284 0.9590765379988291 -0.1712627067854669
vn -0.300814992283621 0.07072156818588002 0.9510566756038963
vn 0.5953935785626016 -0.01747249937089542 0.8032441710788527
vn -0.5721850078053445 0.13452000183502685 0.8090171110360412
vn 0.6112333726203703 0.35624228404245845 0.7067426683421203
vn 0.3606026187941528 0.9272504483271216 0.10085810525659719
vn 0.22886770819128785 0.973457534840524 -0.0000030785341099660985
vn 0.25179510921072257 0.9676278353960472 0.017192880628919716
vn 0.2557525903237273 0.966700263425374 0.00901183865904176
vn 0.2288624909366233 0.9734587614492378 0
vn 0.02729118130635516 0.1160835055566042 -0.9928644475257403
vn -0.7875450251645172 0.1851526059162027 -0.5877851187815657
vn 0.11137890236963352 0.4737487100792055 -0.8735885185859671
vn -0.9258146555369837 0.21765908954674187 -0.30901738515918387
vn 0.27708449402251445 0.9468856795730343 -0.16319219647948885
vn 0.3008151885411649 -0.07072223730600574 0.9510565637717749
vn 0.7994071314074798 0.31181251225063505 0.5135379201761171
vn 0.6019821162009914 0.7388263198838446 0.30290790815208357
vn 0.23756670735827745 0.9709728300744475 -0.027817670861611
vn 0.2288602000062544 0.9734593000266031 -0.000006694279999966793
vn 0.24544349973669777 0.9691239989603615 -0.023583109974700745
vn 0.22886180531910977 0.9734589226247226 -0.000005328438123625166
vn -0.30081651671602655 0.07072211392994643 -0.9510561528490924
vn 0.37415799265370725 0.41179459191474294 -0.8309217836855157
vn 0.3511522997577857 0.7978042994496988 -0.49010239966194197
vn 0.30081411054897306 -0.07072185248007974 0.9510569333517399
vn 0.5721844866648602 -0.13452179686488028 0.8090171811453168
vn -1.7232519999999726e-7 4.051416977795476e-8 1
vn 0.5721838826524663 -0.13452259592152938 0.8090174754721196
vn 0.6728517783570367 0.7224671767611067 0.15909639488250246
vn 0.2572386983778399 0.9663478939061619 0
vn 0.2557525903237273 0.966700263425374 -0.009011838659041331
vn 3.9147839999996456e-7 -1.6615009977794034e-7 -1
vn -0.3008163922626301 0.07072233818093414 -0.9510561755376582
vn 3.645161999999745e-7 -8.569811977794939e-8 -1
vn -0.5721842230903919 0.13452140542858743 -0.8090174326477535
vn 0.4907903150062258 0.765265823398489 -0.41652501273551673
vn 0.7875465231815661 -0.18515290545000745 0.5877830173014932
vn 0.8092286260233882 -0.0676748921763072 0.5835830187670171
vn 0.38403972000365233 0.9217987480141525 0.05292033275648575
vn 0.25179510921072257 0.9676278353960472 -0.017192880628919282
vn 0.39250119730083016 0.9197514936750116 0
vn 0.3008166884061629 -0.0707225872742662 -0.951056063345155
vn 0.3259742020777045 0.045933590292773156 -0.9442621060185672
vn 0.3234741168357268 0.9360372487175528 -0.13855960721155575
vn 0.5721852868823749 -0.13452079691604568 0.809016781452898
vn 0.9464994115741686 -0.10002690122316853 0.30681180375181594
vn 0.9201595730552253 0.2836031916953272 0.2699547920949896
vn 0.3606026187941528 0.9272504483271216 -0.10085810525659679
vn -1.7232519999999726e-7 4.051417022204397e-8 -1
vn 0.5953940144352221 -0.01747381042364925 -0.8032438194745036
vn 0.6112338043865867 0.35623750255657777 -0.706744705072031
vn 0.7875464845276533 -0.18515379636241963 0.5877827884522637
vn 0.7875455055234268 -0.18515410129857288 0.5877840041224054
vn 0.9618352862010783 0.27362909607439395 0
vn 0.6977839168347001 0.7163083172816188 0
vn 0.38403972000365233 0.9217987480141525 -0.05292033275648535
vn 0.30081621014797444 -0.07072235238580415 -0.951056232083691
vn 0.30081731674860057 -0.07072274393762878 -0.9510558529519203
vn 0.7994061047649601 0.31181550185861545 -0.5135377030610057
vn 0.6019821162009913 0.7388263198838447 -0.30290790815208324
vn 0.9258140926562298 -0.21766089827346377 0.30901779754879977
vn 0.9258145658681894 -0.2176598919755787 0.30901708860753196
vn 0.6728517783570367 0.7224671767611067 -0.1590963948825021
vn 0.5721843058531537 -0.13452180137608927 -0.8090173082758346
vn 0.5721827955518453 -0.13452229895422216 -0.8090182937106838
vn 0.973459066786429 -0.2288611921914565 0
vn 0.99381260775631 -0.11106980086685538 0
vn 0.7875449985471331 -0.18515309965842847 -0.5877849989156513
vn 0.8092274620484681 -0.06767023682636913 -0.5835851726307468
vn 0.9258139516321547 -0.21766161213887314 0.3090177172337547
vn 0.9464996744961597 -0.10002659730474027 -0.30681109173284327
vn 0.9201595730552253 0.2836031916953274 -0.2699547920949895
vn 0.5721841997826702 -0.13452049994890555 -0.8090175996927149
vn 0.9734586395793883 -0.22886300930523143 0
vn 0.9734588558022335 -0.22886208960901824 0
vn 0.7875452108279906 -0.18515280254567318 -0.5877848080814769
vn 0.787543641267599 -0.1851540097021434 -0.5877865308002473
vn 0.925813992541448 -0.217660898246478 -0.30901809751048537
vn 0.925814903278306 -0.2176600007707329 -0.30901600109422417
vn 0.9258143033297189 -0.2176617007828268 -0.30901660111138757
usemtl material_0_0
f 1//1 2//2 3//3
f 4//4 2//2 1//1
f 2//2 5//5 3//3
f 1//1 3//3 6//6
f 4//4 5//5 2//2
f 7//7 4//4 1//1
f 5//5 8//8 3//3
f 6//6 3//3 9//9
f 10//10 1//1 6//6
f 4//4 11//11 5//5
f 12//12 7//7 1//1
f 13//13 4//4 7//7
f 5//5 14//14 8//8
f 3//3 8//8 15//15
f 10//10 6//6 9//9
f 9//9 3//3 16//16
f 17//17 1//1 10//10
f 18//18 11//11 4//4
f 19//19 5//5 11//11
f 13//13 7//7 12//12
f 12//12 1//1 17//17
f 20//20 4//4 13//13
f 14//14 15//15 8//8
f 21//21 14//14 5//5
f 3//3 15//15 16//16
f 10//10 9//9 22//22
f 16//16 23//23 9//9
f 24//24 17//17 10//10
f 18//18 19//19 11//11
f 20//20 18//18 4//4
f 19//19 21//21 5//5
f 25//25 13//13 12//12
f 24//24 12//12 17//17
f 26//26 20//20 13//13
f 14//14 27//27 15//15
f 28//28 14//14 21//21
f 15//15 23//23 16//16
f 9//9 29//29 22//22
f 30//30 10//10 22//22
f 23//23 31//31 9//9
f 24//24 10//10 32//32
f 33//33 19//19 18//18
f 26//26 18//18 20//20
f 19//19 28//28 21//21
f 34//34 25//25 12//12
f 26//26 13//13 25//25
f 35//35 12//12 24//24
f 36//36 27//27 14//14
f 37//37 15//15 27//27
f 28//28 38//38 14//14
f 39//39 23//23 15//15
f 22//22 29//29 30//30
f 9//9 31//31 29//29
f 32//32 10//10 30//30
f 23//23 40//40 31//31
f 41//41 24//24 32//32
f 26//26 33//33 18//18
f 33//33 42//42 19//19
f 43//43 28//28 19//19
f 26//26 25//25 34//34
f 34//34 12//12 35//35
f 44//44 35//35 24//24
f 36//36 37//37 27//27
f 38//38 36//36 14//14
f 37//37 39//39 15//15
f 45//45 38//38 28//28
f 46//46 23//23 39//39
f 30//30 29//29 47//47
f 31//31 40//40 29//29
f 41//41 32//32 30//30
f 48//48 40//40 23//23
f 49//49 24//24 41//41
f 26//26 42//42 33//33
f 42//42 43//43 19//19
f 50//50 28//28 43//43
f 26//26 34//34 51//51
f 44//44 34//34 35//35
f 44//44 24//24 49//49
f 52//52 37//37 36//36
f 45//45 36//36 38//38
f 37//37 46//46 39//39
f 53//53 45//45 28//28
f 46//46 48//48 23//23
f 29//29 54//54 47//47
f 30//30 47//47 55//55
f 29//29 40//40 56//56
f 41//41 30//30 57//57
f 58//58 40//40 48//48
f 59//59 49//49 41//41
f 26//26 60//60 42//42
f 42//42 50//50 43//43
f 50//50 53//53 28//28
f 51//51 34//34 44//44
f 61//61 26//26 51//51
f 59//59 44//44 49//49
f 36//36 62//62 52//52
f 63//63 37//37 52//52
f 45//45 64//64 36//36
f 65//65 46//46 37//37
f 66//66 45//45 53//53
f 46//46 58//58 48//48
f 47//47 54//54 55//55
f 29//29 56//56 54//54
f 30//30 55//55 57//57
f 40//40 67//67 56//56
f 41//41 57//57 68//68
f 58//58 69//69 40//40
f 70//70 59//59 41//41
f 26//26 71//71 60//60
f 60//60 50//50 42//42
f 66//66 53//53 50//50
f 61//61 51//51 44//44
f 72//72 26//26 61//61
f 59//59 73//73 44//44
f 52//52 62//62 63//63
f 36//36 64//64 62//62
f 63//63 65//65 37//37
f 74//74 64//64 45//45
f 75//75 46//46 65//65
f 66//66 76//76 45//45
f 77//77 58//58 46//46
f 55//55 54//54 78//78
f 56//56 67//67 54//54
f 57//57 55//55 68//68
f 40//40 69//69 67//67
f 41//41 68//68 70//70
f 58//58 79//79 69//69
f 80//80 59//59 70//70
f 71//71 50//50 60//60
f 81//51 71//71 26//26
f 82//81 66//66 50//50
f 73//73 61//61 44//44
f 83//82 72//72 61//61
f 84//83 26//26 72//72
f 83//82 73//73 59//59
f 62//62 85//84 63//63
f 64//64 74//74 62//62
f 63//63 75//75 65//65
f 76//76 74//74 45//45
f 75//75 77//77 46//46
f 86//85 76//76 66//66
f 87//86 58//58 77//77
f 54//54 88//87 78//78
f 55//55 78//78 89//88
f 54//54 67//67 90//89
f 68//68 55//55 91//90
f 69//69 79//79 67//67
f 70//70 68//68 80//80
f 92//91 79//79 58//58
f 80//80 93//92 59//59
f 71//71 82//81 50//50
f 94//93 81//51 26//26
f 95//94 71//71 81//51
f 95//94 66//66 82//81
f 83//82 61//61 73//73
f 83//82 84//83 72//72
f 84//83 96//95 26//26
f 93//92 83//82 59//59
f 62//62 97//96 85//84
f 63//63 85//84 98//97
f 74//74 99//98 62//62
f 100//99 75//75 63//63
f 86//85 74//74 76//76
f 75//75 87//86 77//77
f 101//100 86//85 66//66
f 87//86 92//91 58//58
f 78//78 88//87 89//88
f 54//54 90//89 88//87
f 55//55 89//88 91//90
f 67//67 102//101 90//89
f 68//68 91//90 103//102
f 67//67 79//79 104//103
f 80//80 68//68 105//104
f 106//105 93//92 80//80
f 95//94 82//81 71//71
f 94//93 95//94 81//51
f 107//106 94//93 26//26
f 95//94 101//100 66//66
f 108//107 84//83 83//82
f 109//108 96//95 84//83
f 110//109 26//26 96//95
f 106//105 83//82 93//92
f 85//84 97//96 98//97
f 62//62 99//98 97//96
f 63//63 98//97 100//99
f 74//74 111//110 99//98
f 112//111 75//75 100//99
f 86//85 113//112 74//74
f 114//113 87//86 75//75
f 115//114 86//85 101//100
f 89//88 88//87 116//115
f 90//89 102//101 88//87
f 91//90 89//88 103//102
f 67//67 104//103 102//101
f 68//68 103//102 105//104
f 117//116 80//80 105//104
f 118//117 106//105 80//80
f 119//118 95//94 94//93
f 120//119 107//106 26//26
f 121//120 94//93 107//106
f 115//114 101//100 95//94
f 106//105 108//107 83//82
f 109//108 84//83 108//107
f 109//108 110//109 96//95
f 110//109 122//121 26//26
f 97//96 123//122 98//97
f 99//98 111//110 97//96
f 100//99 98//97 112//111
f 74//74 113//112 111//110
f 112//111 114//113 75//75
f 86//85 124//123 113//112
f 125//124 86//85 115//114
f 88//87 126//125 116//115
f 89//88 116//115 127//126
f 88//87 102//101 128//127
f 103//102 89//88 129//128
f 117//116 105//104 103//102
f 118//117 80//80 117//116
f 130//129 106//105 118//117
f 121//120 119//118 94//93
f 115//114 95//94 119//118
f 121//120 107//106 120//119
f 120//119 26//26 122//121
f 106//105 109//108 108//107
f 131//130 110//109 109//108
f 132//131 122//121 110//109
f 97//96 133//132 123//122
f 98//97 123//122 134//133
f 111//110 135//134 97//96
f 98//97 136//135 112//111
f 113//112 124//123 111//110
f 86//85 125//124 124//123
f 137//136 125//124 115//114
f 116//115 126//125 127//126
f 88//87 128//127 126//125
f 89//88 127//126 129//128
f 103//102 129//128 138//137
f 117//116 103//102 139//138
f 130//129 118//117 117//116
f 130//129 140//139 106//105
f 121//120 115//114 119//118
f 141//140 121//120 120//119
f 132//131 120//119 122//121
f 140//139 109//108 106//105
f 142//141 131//130 109//108
f 131//130 132//131 110//109
f 123//122 133//132 134//133
f 97//96 135//134 133//132
f 98//97 134//133 136//135
f 111//110 143//142 135//134
f 124//123 144//143 111//110
f 125//124 137//136 124//123
f 137//136 115//114 145//144
f 127//126 126//125 146//145
f 129//128 127//126 138//137
f 103//102 138//137 139//138
f 147//146 117//116 139//138
f 130//129 117//116 148//147
f 130//129 142//141 140//139
f 145//144 115//114 121//120
f 132//131 141//140 120//119
f 149//148 121//120 141//140
f 142//141 109//108 140//139
f 142//141 132//131 131//130
f 133//132 150//149 134//133
f 135//134 143//142 133//132
f 111//110 144//143 143//142
f 124//123 151//150 144//143
f 137//136 152//151 124//123
f 149//148 137//136 145//144
f 127//126 146//145 153//152
f 138//137 127//126 154//153
f 147//146 139//138 138//137
f 148//147 117//116 147//146
f 155//154 130//129 148//147
f 156//155 142//141 130//129
f 149//148 145//144 121//120
f 149//148 141//140 132//131
f 142//141 157//156 132//131
f 133//132 158//157 150//149
f 143//142 159//158 133//132
f 144//143 151//150 143//142
f 124//123 152//151 151//150
f 152//151 137//136 160//159
f 161//160 137//136 149//148
f 127//126 153//152 154//153
f 162//161 138//137 154//153
f 147//146 138//137 163//162
f 155//154 148//147 147//146
f 156//155 130//129 155//154
f 156//155 164//163 142//141
f 157//156 149//148 132//131
f 164//163 157//156 142//141
f 133//132 159//158 158//157
f 143//142 165//164 159//158
f 151//150 166//165 143//142
f 151//150 152//151 160//159
f 137//136 161//160 160//159
f 164//163 161//160 149//148
f 162//161 154//153 153//152
f 163//162 138//137 162//161
f 167//166 147//146 163//162
f 155//154 147//146 168//167
f 164//163 156//155 155//154
f 164//163 149//148 157//156
f 159//158 165//164 158//157
f 143//142 166//165 165//164
f 151//150 169//168 166//165
f 151//150 160//159 170//169
f 160//159 161//160 164//163
f 162//161 153//152 171//170
f 167//166 163//162 162//161
f 168//167 147//146 167//166
f 172//171 155//154 168//167
f 173//172 164//163 155//154
f 165//164 174//173 158//157
f 166//165 169//168 165//164
f 151//150 170//169 169//168
f 170//169 160//159 172//171
f 160//159 164//163 173//172
f 175//174 162//161 171//170
f 167//166 162//161 176//175
f 172//171 168//167 167//166
f 172//171 173//172 155//154
f 165//164 177//176 174//173
f 169//168 178//177 165//164
f 170//169 172//171 169//168
f 160//159 173//172 172//171
f 176//175 162//161 175//174
f 179//178 167//166 176//175
f 172//171 167//166 180//179
f 165//164 178//177 177//176
f 169//168 179//178 178//177
f 169//168 172//171 180//179
f 179//178 176//175 175//174
f 180//179 167//166 179//178
f 178//177 179//178 177//176
f 169//168 180//179 179//178
f 179//178 175//174 181//180
f 177//176 179//178 181//180
