<svg xmlns="http://www.w3.org/2000/svg" xml:space="preserve" id="Layer_2" x="0" y="0" style="enable-background:new 0 0 128 128" version="1.1" viewBox="0 0 128 128">
  <g id="rod and line">
    <path id="fishing line" d="M68.54 16.14s-9.64 4.87-11.85 13.63c-2.22 8.75 1.22 16.06-.44 20.83s-3.77 6.43-4.54 7.64c-.78 1.22-6.2 5.32-6.2 5.32L49.17 66s9.42-8.2 10.64-15.4c1.17-6.92-1.55-14.73.22-20.16 1.73-5.3 5.87-8.75 9.31-10.97 3.88-2.53-.8-3.33-.8-3.33z" style="fill:#bbccd3"/>
    <path id="rod curved" d="m109.27 78.4-8.56-2.74s21.94-53.64 4-63.26C87.47 3.15 72.2 18.47 70.6 19.62c-1.6 1.14-3.12 1.01-3.58.21-.46-.8-1.03-2.74 2.51-5.71S85.91-2.01 105.61 5.9c19.07 7.65 12.76 36.21 12.22 41.34-1.02 9.7-8.56 31.16-8.56 31.16z" style="fill:#40717b"/>
    <path id="rod handle" d="M100.59 73.04c1.11-1.36 2.07-1.93 6.41-.33 4.34 1.6 4.11 3.84 3.64 5.13-.29.78-3.49 11.97-8.4 24.18s-8.39 18.87-9.07 19.78-2.51 2.74-6.85 1.48c-4.34-1.26-4.48-5.91-4-7.42 1.03-3.2 8.79-18.16 12.22-27.52s4.94-13.94 6.05-15.3z" style="fill:#e3c08c"/>
    <path id="rod release" d="M103.9 79.67c-1.77-.59-2.91.87-4.36 4.65-1.45 3.78-2.91 6.59-2.91 6.59s-.97 3.39 1.26 4.16 3.24-1.53 3.97-3.39c1.07-2.71 2.61-6.3 3.1-7.94.49-1.65.68-3.49-1.06-4.07z" style="fill:#40727b"/>
    <g id="pdf" transform="matrix(.87922 0 0 .87922 11.564 13.611)">
      <path id="reel" d="m87.18 87.71-10.85 1.45s-.73 1.67-1.42 3.71c-.78.39-2.44 1.24-4 2.1-2.13 1.16-3.78 2.03-3.78 2.03h-3.78l-.86 5.5s1.85.97 4 .92c1.73-.04 5.63-3 7.25-4.35.03.14.07.28.1.41.43 1.89 1.95 2.8 1.95 2.8s-2.7 5.25-1.99 7.12c.53 1.38 3.64 3.41 6.74 3.29 2.32-.1 4.65-6.85 4.65-6.85s3.97.57 6.1-3.4c2.13-3.97 2.95-6.75 2.95-6.75z" style="fill:#40727b"/>
      <path id="reel handle" d="M57.75 97.24c-.87 2.31 0 4.33 2.75 5.49 2.75 1.16 4.91.64 4.91.64s-1.58-2.4-.53-4.27c.94-1.67 2.26-2.1 2.26-2.1s-2.01-2.53-5.18-2.64c-1.7-.04-3.51 1.01-4.21 2.88z" style="fill:#f5a055"/>
      <path id="path16" d="M89.89 82.16c-6.2-2.35-9.35-.06-10.64 1.29-1.29 1.34-2.92 5.72-2.92 5.72s4.43.51 9.36 2.47c4.88 1.94 8.41 4.49 8.41 4.49s2.38-5.24 1.42-8.44c-.66-2.22-1.77-4.07-5.63-5.53z" style="fill:#6aa5ad"/>
    </g>
  </g>
  <g id="page">
    <path id="background" d="M87.85 6.19H16.8v115.45h94.62V28.8z" style="fill:#fff" transform="translate(.757 52.202) scale(.51326)"/>
    <g id="lines" style="fill:none;stroke:#b0bec5;stroke-width:1.98365;stroke-linecap:round;stroke-miterlimit:10">
      <path id="line1" d="M17.869 73.272H49.26"/>
      <path id="line2" d="M17.869 80.781H49.26"/>
      <path id="line3" d="M17.869 88.284H49.26"/>
      <path id="line4" d="M17.869 95.793H49.26"/>
      <path id="line5" d="M17.869 103.302h13.422"/>
    </g>
    <path id="page_border" d="m56.934 64.31-8.551-8.577a5.417 5.417 0 0 0-3.721-1.478H9.503c-.795 0-1.442.647-1.442 1.443v58.706c0 .796.647 1.443 1.442 1.443h48.21c.796 0 1.443-.647 1.443-1.443V68.257c-.005-1.494-1.134-2.92-2.222-3.947zm.164 49.484H10.114V56.308h33.187c1.089 0 1.976.883 1.976 1.976v9.177h8.9c1.612 0 2.92.888 2.92 2.92z" style="fill:#ed2224;fill-opacity:1;stroke-width:.513261"/>
  </g>
  <g id="fish" transform="matrix(.76313 0 0 .76313 4.04 23.218)">
    <path id="tail" d="M26.75 97.54c-1.07-.29-6.23 1.75-10.62 3.12-4.39 1.37-7.6 1.95-7.5 2.92.1.97 3.21 2.82 7.11 3.31 3.9.49 6.33-.97 6.33-.97s.39 2.24 1.46 4.68c1.46 3.31 4.58 6.14 5.75 5.65.81-.34-.88-14.22-.97-15.68-.09-1.46-1.56-3.03-1.56-3.03z" style="fill:#1966a4"/>
    <path id="topfin" d="M27.43 65.79s-.68-.58-1.95-.58-11.1 3.6-11.1 5.16 1.56 6.23 3.41 10.23 5.75 11.1 5.75 11.1z" style="fill:#1966a4"/>
    <path id="body" d="M23.94 102.79s-5.27-19.47-1.18-31.99c3.5-10.69 12.61-13.97 16.5-14.75 3.9-.78 9.89.09 9.89.09l1.17.78.49 5.84 4.97-1.85s5.86 12.44-1.95 25.23c-10.34 16.93-29.99 16.94-29.89 16.65z" style="fill:#42a0ce;fill-opacity:1"/>
    <path id="sidefin" d="M40.1 77.48c-.86.86-1.85 5.26-1.85 9.74s-.29 7.11.58 7.4c.87.29 5.55-4.77 6.43-10.91.88-6.14-4-7.4-5.16-6.23z" style="fill:#1966a4"/>
    <path id="lips" d="M48.86 56.13s.8-1.08 1.67-.98c.87.1 1.38.87 1.38 1.33 0 .46-.1 4.8-.1 4.8s2.36-1.44 2.81-1.58c.82-.26 1.79.66 1.63 1.58-.16.92-4.19 3.88-5.87 3.17-1.37-.58-1.58-3.06-1.58-4.44 0-1.38.06-3.88.06-3.88z" style="fill:#1966a4"/>
    <path id="eye" d="M40.21 64.5c-.87.82-1.17 2.81.36 3.98 1.17.9 2.95.36 3.63-.46.97-1.17.36-3.22-.72-3.88-1.08-.66-2.45-.41-3.27.36z" style="fill:#292d26"/>
  </g>
</svg>
