<svg
  width="24"
  height="24"
  viewBox="122 132 178 172"
  xmlns="http://www.w3.org/2000/svg"
  fill="none"
>

  <!-- ✨ Primary AI Sparkle (UNCHANGED) -->
  <path
    d="
      M182 132
      C190 178 204 182 242 186
      C204 190 190 218 182 240
      C174 218 160 190 122 186
      C160 182 174 178 182 132
      Z
    "
    fill="url(#sparklePurple)"
  />

  <!-- ✨ Secondary AI Sparkle (UNCHANGED) -->
  <path
    d="
      M248 214
      C254 252 266 254 300 256
      C266 258 254 282 248 304
      C242 282 230 258 196 256
      C230 254 242 252 248 214
      Z
    "
    fill="url(#sparkleCyan)"
  />

  <defs>
    <radialGradient id="sparklePurple" cx="50%" cy="45%" r="65%">
      <stop offset="0%" stop-color="#F2E9FF"/>
      <stop offset="100%" stop-color="#C9B4FF"/>
    </radialGradient>

    <radialGradient id="sparkleCyan" cx="50%" cy="45%" r="65%">
      <stop offset="0%" stop-color="#E6FDFF"/>
      <stop offset="100%" stop-color="#8DECF7"/>
    </radialGradient>
  </defs>

</svg>
