<svg width="128" height="128" viewBox="0 0 128 128" fill="none" xmlns="http://www.w3.org/2000/svg">
<g id="Logo-Black-White-128">
<circle id="Ellipse 236" cx="64" cy="64" r="39" fill="#292929"/>
<path id="Vector" d="M64 0C99.328 0 128 28.672 128 64C128 99.392 99.328 128 64 128C28.608 128 0 99.392 0 64C0 28.672 28.608 0 64 0ZM88.64 42.944C89.344 40.704 87.296 38.592 85.056 39.296L52.288 49.536C50.944 49.984 49.856 51.008 49.472 52.352L39.232 85.184C38.528 87.36 40.64 89.472 42.816 88.768L75.456 78.528C76.8 78.144 77.888 77.056 78.272 75.712L88.64 42.944Z" fill="#FF4524"/>
</g>
</svg>
