<svg width="544" height="91" viewBox="0 0 544 91" fill="none" xmlns="http://www.w3.org/2000/svg">
<path d="M31.2246 18H39.5512V51.3061L31.2246 59.6327V18Z" fill="#FF4B2E"/>
<path d="M0 59.6328H31.2245L21.8571 69.0002H0V59.6328Z" fill="#FF4B2E"/>
<path d="M52.041 18H43.7145V51.3061L52.041 59.6327V18Z" fill="#FF4B2E"/>
<path d="M83.2656 59.6328H52.0411L62.4493 69.0002H83.2656V59.6328Z" fill="#FF4B2E"/>
<path d="M111.45 61.3V54.37H116.63V59.55L121.39 64.24H133.36L137.35 60.32V20H142.67V62L135.67 69H119.15L111.45 61.3ZM147.896 62.56V34.14H153.076V60.95L156.576 64.38H163.576L172.256 55.7V34.14H177.436V69H172.396V61.58L164.976 69H154.336L147.896 62.56ZM182.363 62.56V40.58L188.803 34.14H202.243L207.983 39.18V19.02H213.163V69H208.123V62.63L201.753 69H188.803L182.363 62.56ZM200.633 64.38L207.983 57.03V44.64L201.263 38.76H191.043L187.543 42.19V60.95L191.043 64.38H200.633ZM248.869 34.14V77.89L242.499 84.26H225.209L219.819 78.87V74.6H224.999V77.19L227.449 79.64H240.189L243.689 76.21V63.19L237.249 69H224.509L218.069 62.56V40.58L224.509 34.14H237.739L243.829 40.23V34.14H248.869ZM243.689 46.11L236.339 38.76H226.749L223.249 42.19V60.95L226.749 64.38H236.409L243.689 57.59V46.11ZM254.474 34.14H259.514V40.86L266.234 34.14H274.564L280.024 39.6L285.484 34.14H296.474L302.914 40.58V69H297.734V42.19L294.234 38.76H286.534L281.634 43.66V69H276.594V42.19L273.094 38.76H267.214L259.654 46.32V69H254.474V34.14ZM307.458 62.56V40.58L313.898 34.14H331.468L337.978 40.58V53.11H312.638V60.95L316.138 64.38H329.228L332.728 60.95V58.29H337.908V62.56L331.468 69H313.898L307.458 62.56ZM332.798 48.63V42.19L329.298 38.76H316.138L312.638 42.19V48.63H332.798ZM342.496 34.14H347.536V41.56L354.956 34.14H365.666L372.106 40.58V69H366.926V42.19L363.426 38.76H356.356L347.676 47.44V69H342.496V34.14ZM379.848 62.56V38.69H373.548V34.14H379.988V22.8H385.028V34.14H395.948V38.69H385.028V60.95L388.528 64.45H395.948V69H386.288L379.848 62.56ZM411.613 20H416.933V64.31H441.853V69H411.613V20ZM442.227 63.26V54.37L447.967 48.7H466.587V42.05L463.087 38.62H451.187L447.687 42.05V44.92H442.507V40.58L448.947 34.14H465.257L471.697 40.58V69H466.727V62.84L460.287 69H447.967L442.227 63.26ZM459.237 64.52L466.587 57.45V53.18H450.207L447.407 55.91V61.79L450.207 64.52H459.237ZM476.932 62.56V19.02H482.112V40.93L488.902 34.14H501.152L507.592 40.58V62.56L501.152 69H483.372L476.932 62.56ZM498.912 64.38L502.412 60.95V42.19L498.912 38.76H490.372L482.112 47.02V60.95L485.612 64.38H498.912ZM510.751 63.26V58.92H515.931V61.79L518.731 64.52H531.611L534.411 61.79V56.4L531.611 53.6H516.561L511.031 48.07V39.88L516.771 34.14H533.151L538.891 39.88V44.22H533.711V41.35L530.911 38.62H519.011L516.211 41.35V46.46L519.011 49.26H533.851L539.591 55V63.26L533.851 69H516.491L510.751 63.26Z" fill="black"/>
</svg>
