<?xml version="1.0" encoding="UTF-8" standalone="no"?>
<svg
   width="14"
   height="14"
   viewBox="0 0 3.7041666 3.7041667"
   version="1.1"
   id="svg4"
   xmlns="http://www.w3.org/2000/svg"
   xmlns:svg="http://www.w3.org/2000/svg">
  <path d="m 1.9215001,1.1990964 c 0,0.038385 -0.031093,0.069503 -0.069451,0.069503 -0.038355,0 -0.069451,-0.031117 -0.069451,-0.069503 0,-0.038385 0.031095,-0.069503 0.069451,-0.069503 0.038357,0 0.069451,0.031118 0.069451,0.069503 z M 1.1987931,0 c -0.038363,-1.758588e-5 -0.069473,0.03109458 -0.069482,0.06948607 -1.76e-5,0.03841013 0.0311,0.0695527 0.069482,0.06953418 h 0.1446588 v 0.18245599 c 0,0.14677486 0.064874,0.27689867 0.1648059,0.36993937 H 0.7699367 c -0.008437,0.001759 -0.0164661,0.005066 -0.0236874,0.009769 -0.002693,-0.00113 -0.005464,-0.002093 -0.008279,-0.002871 -9.816e-4,0.002426 -0.001834,0.004898 -0.002537,0.007427 -0.0200896,0.0114286 -0.0331849,0.0321085 -0.0349333,0.0551686 0.001722,0.007242 0.004603,0.0141647 0.00852,0.0204952 -0.001389,0.003167 -0.002537,0.006427 -0.003445,0.009769 L 0.90220101,1.1992807 C 0.78175818,1.4114994 0.72115245,1.5955797 0.71012052,1.7775828 0.66888661,1.7969642 0.62941044,1.8136898 0.6028349,1.8146973 0.56944184,1.8159567 0.54470813,1.8080174 0.511341,1.7805041 0.45439132,1.7335581 0.44429839,1.6360289 0.48961535,1.5676402 0.57545386,1.4381007 0.53761025,1.260199 0.40788292,1.1730377 0.27893719,1.0863996 0.10251142,1.1188201 0.01271408,1.2456362 c -0.02210535,0.031345 -0.01465109,0.074686 0.01665319,0.096831 0.03127133,0.022162 0.07456951,0.014791 0.0967584,-0.016475 0.0471114,-0.066533 0.13668097,-0.083093 0.2043311,-0.037639 0.0668704,0.044929 0.0857839,0.1384462 0.0434507,0.2023296 -0.082852,0.1250344 -0.0690928,0.2996329 0.0491923,0.3971402 0.0542512,0.044719 0.11932602,0.068189 0.18499906,0.065705 0.0362064,-0.00137 0.0723276,-0.022029 0.10814783,-0.035104 0.0370555,0.4633484 0.36164604,0.8249259 0.65725804,1.1009587 L 1.5066305,3.3023074 C 1.4363295,3.2946645 1.367903,3.3016777 1.3090938,3.3323334 1.2234548,3.3769748 1.1686819,3.46394 1.1418007,3.5651194 H 0.9893419 c -0.0383437,9.3e-6 -0.0694253,0.031115 -0.0694336,0.069488 9.26e-6,0.038373 0.0310909,0.069478 0.0694336,0.069487 h 0.2002167 c 0.00777,-0.00174 0.015183,-0.00479 0.021916,-0.00905 0.00857,-0.00178 0.016714,-0.00515 0.024023,-0.00996 0.00575,-0.00705 0.010063,-0.015176 0.012682,-0.023896 0.00458,-0.00612 0.00812,-0.012972 0.010483,-0.020258 0.00827,-0.090487 0.053726,-0.1535686 0.1146562,-0.1853295 0.060931,-0.031759 0.1396379,-0.03423 0.226822,0.016284 0.0014,-2.778e-4 0.00279,-6.667e-4 0.00416,-0.00111 0.00606,0.00285 0.012515,0.00479 0.019141,0.00579 0.00365,0.00193 0.00746,0.00348 0.011384,0.00474 h 0.434455 c 0.00393,-0.00122 0.00774,-0.00278 0.011384,-0.00469 0.00664,-10e-4 0.013105,-0.00293 0.019188,-0.00579 0.00137,3.704e-4 0.00278,7.408e-4 0.00417,0.00107 0.087184,-0.050511 0.1658449,-0.048044 0.2267747,-0.016284 0.06093,0.031759 0.1064244,0.094844 0.1147032,0.1853294 0.00233,0.00731 0.00589,0.014161 0.010483,0.020306 0.00259,0.00872 0.0069,0.016835 0.012635,0.023896 0.00732,0.0048 0.015491,0.0082 0.02407,0.00996 0.00672,0.00425 0.014115,0.00732 0.021872,0.00906 h 0.2002157 c 0.038381,1.74e-5 0.0695,-0.031122 0.069483,-0.069533 -9.3e-6,-0.038391 -0.031119,-0.069505 -0.069483,-0.069487 H 2.5623173 C 2.5354362,3.463966 2.4806651,3.3770012 2.3950253,3.3323598 2.3362167,3.3016671 2.2678372,3.2946977 2.1975364,3.3023338 L 2.3306625,3.0194476 C 2.6262753,2.7434147 2.9508169,2.3817892 2.9878723,1.9184408 c 0.035819,0.013072 0.071989,0.03373 0.108195,0.035104 0.065674,0.00248 0.1307478,-0.020984 0.1849992,-0.065703 0.1182851,-0.097507 0.1320461,-0.2720582 0.049194,-0.3970926 -0.042333,-0.063882 -0.02347,-0.1574483 0.043402,-0.2023778 0.067652,-0.045454 0.1572678,-0.028894 0.2043792,0.03764 0.022188,0.031264 0.065487,0.038636 0.096759,0.016474 0.031303,-0.022145 0.038758,-0.065486 0.016653,-0.096831 C 3.6016558,1.1188391 3.425183,1.0864658 3.2962373,1.1731039 3.1665098,1.2602652 3.1286651,1.4381188 3.2145036,1.5676583 3.2598216,1.6360471 3.2497746,1.733577 3.1928266,1.7805234 3.1594596,1.8080318 3.1346786,1.815976 3.1012846,1.8147153 3.0747108,1.8137078 3.0352812,1.7969822 2.9940464,1.777602 2.9830204,1.5955986 2.9224091,1.4115656 2.8019661,1.1993468 l 0.196579,-0.40815414 c -9.26e-4,-0.003334 -0.00204,-0.006593 -0.00341,-0.009769 0.0039,-0.006316 0.00675,-0.0132228 0.00847,-0.0204477 -0.0017,-0.0230684 -0.014802,-0.0437672 -0.034886,-0.0552158 -7.409e-4,-0.002519 -0.00156,-0.004991 -0.00256,-0.007427 -0.00282,7.4083e-4 -0.00562,0.001741 -0.00832,0.002871 -0.00722,-0.004694 -0.015254,-0.00802 -0.023688,-0.009769 H 2.1959122 C 2.2958433,0.59839265 2.3606688,0.46826792 2.3606688,0.32149306 V 0.139038 H 2.505375 C 2.543719,0.13902966 2.574801,0.1079242 2.574811,0.06955104 2.5748281,0.03115929 2.5437366,2.5937992e-5 2.505375,1.6677587e-5 L 2.2912342,6.5757703e-5 H 1.8614211 C 1.8611433,4.8162947e-5 1.8608655,4.1680668e-5 1.8605692,1.6677592e-5 h -0.00847 -0.4391454 z m 0.2835761,0.13902025 h 0.3002274 v 0.19222568 c 1.3e-5,0.007297 0.00118,0.01456 0.00344,0.0215008 0.00225,0.006927 0.00557,0.0134554 0.00985,0.0193476 0.00427,0.00589 0.00943,0.0110829 0.015314,0.0153723 h 4.92e-5 c 0.011866,0.008631 0.026154,0.0132665 0.040817,0.0132646 0.038344,-8.33e-6 0.069425,-0.0311139 0.069433,-0.069485 V 0.13902028 h 0.3002291 v 0.182456 c 0,0.20512618 -0.1646911,0.36993933 -0.3696626,0.36993933 -0.2049719,0 -0.3697102,-0.16481315 -0.3697102,-0.36993933 z M 0.87865769,0.83043586 H 2.8254528 L 2.6817026,1.1292612 H 2.1970019 c -0.038363,-1.76e-5 -0.069473,0.031095 -0.069483,0.069486 -1.74e-5,0.03841 0.0311,0.069552 0.069483,0.069534 H 2.6817026 C 2.8053817,1.4861701 2.8622381,1.6587119 2.8638298,1.8297277 2.8679044,2.2676742 2.5504462,2.6221741 2.244185,2.9093756 H 2.0935446 c -2.778e-4,-1.74e-5 -4.445e-4,-2.41e-5 -7.409e-4,-4.89e-5 H 1.4599989 C 1.1537375,2.6221251 0.83628018,2.2676726 0.84035291,1.829727 0.8419457,1.6587113 0.8988028,1.4861213 1.0224812,1.2682323 h 0.4847005 c 0.038343,-8.2e-6 0.069426,-0.031112 0.069435,-0.069486 -9.7e-6,-0.038373 -0.031092,-0.069478 -0.069435,-0.069487 H 1.0224812 Z M 1.5406053,3.0483486 h 0.070727 0.4814463 0.070726 L 2.0253538,3.3422892 H 1.678804 Z M 1.8520312,1.5735715 c -0.00309,0 -0.00617,9.26e-5 -0.00924,2.778e-4 -0.1515272,0.00488 -0.2746241,0.1288514 -0.2783126,0.2807714 -9.26e-5,0.00237 -1.852e-4,0.00468 -1.852e-4,0.00699 V 2.2389765 H 1.4199633 c -0.038354,0 -0.069433,0.0311 -0.069433,0.069487 0,0.038384 0.031079,0.069535 0.069433,0.069535 H 2.284137 c 0.038357,0 0.069435,-0.031148 0.069435,-0.069535 0,-0.038384 -0.031078,-0.069487 -0.069435,-0.069487 H 2.1398133 V 1.8616141 c 0,-0.1581938 -0.1297095,-0.2880029 -0.2877867,-0.2880019 z m 1.95e-5,0.139761 c 0.099251,0 0.1488316,0.072026 0.1488316,0.1482224 0,0.076196 0,0.3773623 0,0.3773623 H 1.7031904 c 0,0 0,-0.3018504 0,-0.3773623 0,-0.075511 0.049609,-0.1482224 0.1488603,-0.1482224 z" />
</svg>
