<?xml version="1.0" standalone="no"?><!DOCTYPE svg PUBLIC "-//W3C//DTD SVG 1.1//EN" "http://www.w3.org/Graphics/SVG/1.1/DTD/svg11.dtd"><svg t="1766655547686" class="icon" viewBox="0 0 1024 1024" version="1.1" xmlns="http://www.w3.org/2000/svg" p-id="6713" width="24" height="24" xmlns:xlink="http://www.w3.org/1999/xlink"><path d="M554.666667 128a32 32 0 1 1-0.512 64H213.333333a21.333333 21.333333 0 0 0-21.333333 21.333333v597.333334a21.333333 21.333333 0 0 0 21.333333 21.333333h597.333334a21.333333 21.333333 0 0 0 21.333333-21.333333V469.312l0.149333-3.050667A32 32 0 0 1 896 469.333333v341.333334a85.333333 85.333333 0 0 1-85.333333 85.333333H213.333333a85.333333 85.333333 0 0 1-85.333333-85.333333V213.333333a85.333333 85.333333 0 0 1 85.333333-85.333333z" fill="#7e8289" p-id="6714"></path><path d="M298.581333 521.194667m32 0l192 0q32 0 32 32l0 0q0 32-32 32l-192 0q-32 0-32-32l0 0q0-32 32-32Z" fill="#7e8289" p-id="6715"></path><path d="M298.581333 670.528m32 0l320 0q32 0 32 32l0 0q0 32-32 32l-320 0q-32 0-32-32l0 0q0-32 32-32Z" fill="#7e8289" p-id="6716"></path><path d="M789.333333 106.666667a128 128 0 1 1 0 256 128 128 0 0 1 0-256z m0 64a64 64 0 1 0 0 128 64 64 0 0 0 0-128z" fill="#7e8289" p-id="6717"></path></svg>