<svg class="rich-terminal" viewBox="0 0 994 635.5999999999999" xmlns="http://www.w3.org/2000/svg">
    <!-- Generated with Rich https://www.textualize.io -->
    <style>

    @font-face {
        font-family: "Fira Code";
        src: local("FiraCode-Regular"),
                url("https://cdnjs.cloudflare.com/ajax/libs/firacode/6.2.0/woff2/FiraCode-Regular.woff2") format("woff2"),
                url("https://cdnjs.cloudflare.com/ajax/libs/firacode/6.2.0/woff/FiraCode-Regular.woff") format("woff");
        font-style: normal;
        font-weight: 400;
    }
    @font-face {
        font-family: "Fira Code";
        src: local("FiraCode-Bold"),
                url("https://cdnjs.cloudflare.com/ajax/libs/firacode/6.2.0/woff2/FiraCode-Bold.woff2") format("woff2"),
                url("https://cdnjs.cloudflare.com/ajax/libs/firacode/6.2.0/woff/FiraCode-Bold.woff") format("woff");
        font-style: bold;
        font-weight: 700;
    }

    .terminal-1366013383-matrix {
        font-family: Fira Code, monospace;
        font-size: 20px;
        line-height: 24.4px;
        font-variant-east-asian: full-width;
    }

    .terminal-1366013383-title {
        font-size: 18px;
        font-weight: bold;
        font-family: arial;
    }

    .terminal-1366013383-r1 { fill: #c5c8c6 }
.terminal-1366013383-r2 { fill: #fea62b;font-weight: bold }
.terminal-1366013383-r3 { fill: #e2e2e2 }
.terminal-1366013383-r4 { fill: #e2e2e2;font-weight: bold }
.terminal-1366013383-r5 { fill: #ddedf9;font-weight: bold }
.terminal-1366013383-r6 { fill: #7f7f7f }
.terminal-1366013383-r7 { fill: #e0e0e0 }
.terminal-1366013383-r8 { fill: #585858 }
.terminal-1366013383-r9 { fill: #0178d4 }
.terminal-1366013383-r10 { fill: #6db2ff }
.terminal-1366013383-r11 { fill: #004295 }
.terminal-1366013383-r12 { fill: #262626 }
.terminal-1366013383-r13 { fill: #003054 }
.terminal-1366013383-r14 { fill: #e0e0e0;font-weight: bold }
.terminal-1366013383-r15 { fill: #1e1e1e }
.terminal-1366013383-r16 { fill: #000000 }
.terminal-1366013383-r17 { fill: #ffa62b;font-weight: bold }
.terminal-1366013383-r18 { fill: #495259 }
    </style>

    <defs>
    <clipPath id="terminal-1366013383-clip-terminal">
      <rect x="0" y="0" width="975.0" height="584.5999999999999" />
    </clipPath>
    <clipPath id="terminal-1366013383-line-0">
    <rect x="0" y="1.5" width="976" height="24.65"/>
            </clipPath>
<clipPath id="terminal-1366013383-line-1">
    <rect x="0" y="25.9" width="976" height="24.65"/>
            </clipPath>
<clipPath id="terminal-1366013383-line-2">
    <rect x="0" y="50.3" width="976" height="24.65"/>
            </clipPath>
<clipPath id="terminal-1366013383-line-3">
    <rect x="0" y="74.7" width="976" height="24.65"/>
            </clipPath>
<clipPath id="terminal-1366013383-line-4">
    <rect x="0" y="99.1" width="976" height="24.65"/>
            </clipPath>
<clipPath id="terminal-1366013383-line-5">
    <rect x="0" y="123.5" width="976" height="24.65"/>
            </clipPath>
<clipPath id="terminal-1366013383-line-6">
    <rect x="0" y="147.9" width="976" height="24.65"/>
            </clipPath>
<clipPath id="terminal-1366013383-line-7">
    <rect x="0" y="172.3" width="976" height="24.65"/>
            </clipPath>
<clipPath id="terminal-1366013383-line-8">
    <rect x="0" y="196.7" width="976" height="24.65"/>
            </clipPath>
<clipPath id="terminal-1366013383-line-9">
    <rect x="0" y="221.1" width="976" height="24.65"/>
            </clipPath>
<clipPath id="terminal-1366013383-line-10">
    <rect x="0" y="245.5" width="976" height="24.65"/>
            </clipPath>
<clipPath id="terminal-1366013383-line-11">
    <rect x="0" y="269.9" width="976" height="24.65"/>
            </clipPath>
<clipPath id="terminal-1366013383-line-12">
    <rect x="0" y="294.3" width="976" height="24.65"/>
            </clipPath>
<clipPath id="terminal-1366013383-line-13">
    <rect x="0" y="318.7" width="976" height="24.65"/>
            </clipPath>
<clipPath id="terminal-1366013383-line-14">
    <rect x="0" y="343.1" width="976" height="24.65"/>
            </clipPath>
<clipPath id="terminal-1366013383-line-15">
    <rect x="0" y="367.5" width="976" height="24.65"/>
            </clipPath>
<clipPath id="terminal-1366013383-line-16">
    <rect x="0" y="391.9" width="976" height="24.65"/>
            </clipPath>
<clipPath id="terminal-1366013383-line-17">
    <rect x="0" y="416.3" width="976" height="24.65"/>
            </clipPath>
<clipPath id="terminal-1366013383-line-18">
    <rect x="0" y="440.7" width="976" height="24.65"/>
            </clipPath>
<clipPath id="terminal-1366013383-line-19">
    <rect x="0" y="465.1" width="976" height="24.65"/>
            </clipPath>
<clipPath id="terminal-1366013383-line-20">
    <rect x="0" y="489.5" width="976" height="24.65"/>
            </clipPath>
<clipPath id="terminal-1366013383-line-21">
    <rect x="0" y="513.9" width="976" height="24.65"/>
            </clipPath>
<clipPath id="terminal-1366013383-line-22">
    <rect x="0" y="538.3" width="976" height="24.65"/>
            </clipPath>
    </defs>

    <rect fill="#292929" stroke="rgba(255,255,255,0.35)" stroke-width="1" x="1" y="1" width="992" height="633.6" rx="8"/><text class="terminal-1366013383-title" fill="#c5c8c6" text-anchor="middle" x="496" y="27">Deflatable</text>
            <g transform="translate(26,22)">
            <circle cx="0" cy="0" r="7" fill="#ff5f57"/>
            <circle cx="22" cy="0" r="7" fill="#febc2e"/>
            <circle cx="44" cy="0" r="7" fill="#28c840"/>
            </g>

    <g transform="translate(9, 41)" clip-path="url(#terminal-1366013383-clip-terminal)">
    <rect fill="#262626" x="0" y="1.5" width="12.2" height="24.65" shape-rendering="crispEdges"/><rect fill="#262626" x="12.2" y="1.5" width="146.4" height="24.65" shape-rendering="crispEdges"/><rect fill="#262626" x="158.6" y="1.5" width="24.4" height="24.65" shape-rendering="crispEdges"/><rect fill="#262626" x="183" y="1.5" width="122" height="24.65" shape-rendering="crispEdges"/><rect fill="#262626" x="305" y="1.5" width="658.8" height="24.65" shape-rendering="crispEdges"/><rect fill="#262626" x="963.8" y="1.5" width="12.2" height="24.65" shape-rendering="crispEdges"/><rect fill="#0178d4" x="0" y="25.9" width="12.2" height="24.65" shape-rendering="crispEdges"/><rect fill="#0178d4" x="12.2" y="25.9" width="85.4" height="24.65" shape-rendering="crispEdges"/><rect fill="#0178d4" x="97.6" y="25.9" width="12.2" height="24.65" shape-rendering="crispEdges"/><rect fill="#1e1e1e" x="109.8" y="25.9" width="12.2" height="24.65" shape-rendering="crispEdges"/><rect fill="#1e1e1e" x="122" y="25.9" width="61" height="24.65" shape-rendering="crispEdges"/><rect fill="#1e1e1e" x="183" y="25.9" width="12.2" height="24.65" shape-rendering="crispEdges"/><rect fill="#1e1e1e" x="195.2" y="25.9" width="12.2" height="24.65" shape-rendering="crispEdges"/><rect fill="#1e1e1e" x="207.4" y="25.9" width="48.8" height="24.65" shape-rendering="crispEdges"/><rect fill="#1e1e1e" x="256.2" y="25.9" width="12.2" height="24.65" shape-rendering="crispEdges"/><rect fill="#1e1e1e" x="268.4" y="25.9" width="707.6" height="24.65" shape-rendering="crispEdges"/><rect fill="#1e1e1e" x="0" y="50.3" width="12.2" height="24.65" shape-rendering="crispEdges"/><rect fill="#1e1e1e" x="12.2" y="50.3" width="85.4" height="24.65" shape-rendering="crispEdges"/><rect fill="#1e1e1e" x="97.6" y="50.3" width="12.2" height="24.65" shape-rendering="crispEdges"/><rect fill="#1e1e1e" x="109.8" y="50.3" width="866.2" height="24.65" shape-rendering="crispEdges"/><rect fill="#262626" x="0" y="74.7" width="976" height="24.65" shape-rendering="crispEdges"/><rect fill="#262626" x="0" y="99.1" width="24.4" height="24.65" shape-rendering="crispEdges"/><rect fill="#0178d4" x="24.4" y="99.1" width="317.2" height="24.65" shape-rendering="crispEdges"/><rect fill="#262626" x="341.6" y="99.1" width="24.4" height="24.65" shape-rendering="crispEdges"/><rect fill="#0178d4" x="366" y="99.1" width="146.4" height="24.65" shape-rendering="crispEdges"/><rect fill="#262626" x="512.4" y="99.1" width="24.4" height="24.65" shape-rendering="crispEdges"/><rect fill="#0178d4" x="536.8" y="99.1" width="146.4" height="24.65" shape-rendering="crispEdges"/><rect fill="#262626" x="683.2" y="99.1" width="24.4" height="24.65" shape-rendering="crispEdges"/><rect fill="#0178d4" x="707.6" y="99.1" width="146.4" height="24.65" shape-rendering="crispEdges"/><rect fill="#262626" x="854" y="99.1" width="24.4" height="24.65" shape-rendering="crispEdges"/><rect fill="#0178d4" x="878.4" y="99.1" width="73.2" height="24.65" shape-rendering="crispEdges"/><rect fill="#262626" x="951.6" y="99.1" width="24.4" height="24.65" shape-rendering="crispEdges"/><rect fill="#262626" x="0" y="123.5" width="24.4" height="24.65" shape-rendering="crispEdges"/><rect fill="#0178d4" x="24.4" y="123.5" width="12.2" height="24.65" shape-rendering="crispEdges"/><rect fill="#0178d4" x="36.6" y="123.5" width="292.8" height="24.65" shape-rendering="crispEdges"/><rect fill="#0178d4" x="329.4" y="123.5" width="12.2" height="24.65" shape-rendering="crispEdges"/><rect fill="#262626" x="341.6" y="123.5" width="24.4" height="24.65" shape-rendering="crispEdges"/><rect fill="#0178d4" x="366" y="123.5" width="24.4" height="24.65" shape-rendering="crispEdges"/><rect fill="#0178d4" x="390.4" y="123.5" width="12.2" height="24.65" shape-rendering="crispEdges"/><rect fill="#0178d4" x="402.6" y="123.5" width="61" height="24.65" shape-rendering="crispEdges"/><rect fill="#0178d4" x="463.6" y="123.5" width="12.2" height="24.65" shape-rendering="crispEdges"/><rect fill="#0178d4" x="475.8" y="123.5" width="36.6" height="24.65" shape-rendering="crispEdges"/><rect fill="#262626" x="512.4" y="123.5" width="24.4" height="24.65" shape-rendering="crispEdges"/><rect fill="#0178d4" x="536.8" y="123.5" width="24.4" height="24.65" shape-rendering="crispEdges"/><rect fill="#0178d4" x="561.2" y="123.5" width="12.2" height="24.65" shape-rendering="crispEdges"/><rect fill="#0178d4" x="573.4" y="123.5" width="73.2" height="24.65" shape-rendering="crispEdges"/><rect fill="#0178d4" x="646.6" y="123.5" width="12.2" height="24.65" shape-rendering="crispEdges"/><rect fill="#0178d4" x="658.8" y="123.5" width="24.4" height="24.65" shape-rendering="crispEdges"/><rect fill="#262626" x="683.2" y="123.5" width="24.4" height="24.65" shape-rendering="crispEdges"/><rect fill="#0178d4" x="707.6" y="123.5" width="24.4" height="24.65" shape-rendering="crispEdges"/><rect fill="#0178d4" x="732" y="123.5" width="12.2" height="24.65" shape-rendering="crispEdges"/><rect fill="#0178d4" x="744.2" y="123.5" width="73.2" height="24.65" shape-rendering="crispEdges"/><rect fill="#0178d4" x="817.4" y="123.5" width="12.2" height="24.65" shape-rendering="crispEdges"/><rect fill="#0178d4" x="829.6" y="123.5" width="24.4" height="24.65" shape-rendering="crispEdges"/><rect fill="#262626" x="854" y="123.5" width="24.4" height="24.65" shape-rendering="crispEdges"/><rect fill="#0178d4" x="878.4" y="123.5" width="36.6" height="24.65" shape-rendering="crispEdges"/><rect fill="#0178d4" x="915" y="123.5" width="12.2" height="24.65" shape-rendering="crispEdges"/><rect fill="#0178d4" x="927.2" y="123.5" width="24.4" height="24.65" shape-rendering="crispEdges"/><rect fill="#262626" x="951.6" y="123.5" width="24.4" height="24.65" shape-rendering="crispEdges"/><rect fill="#262626" x="0" y="147.9" width="24.4" height="24.65" shape-rendering="crispEdges"/><rect fill="#0178d4" x="24.4" y="147.9" width="317.2" height="24.65" shape-rendering="crispEdges"/><rect fill="#262626" x="341.6" y="147.9" width="24.4" height="24.65" shape-rendering="crispEdges"/><rect fill="#0178d4" x="366" y="147.9" width="146.4" height="24.65" shape-rendering="crispEdges"/><rect fill="#262626" x="512.4" y="147.9" width="24.4" height="24.65" shape-rendering="crispEdges"/><rect fill="#0178d4" x="536.8" y="147.9" width="146.4" height="24.65" shape-rendering="crispEdges"/><rect fill="#262626" x="683.2" y="147.9" width="24.4" height="24.65" shape-rendering="crispEdges"/><rect fill="#0178d4" x="707.6" y="147.9" width="146.4" height="24.65" shape-rendering="crispEdges"/><rect fill="#262626" x="854" y="147.9" width="24.4" height="24.65" shape-rendering="crispEdges"/><rect fill="#0178d4" x="878.4" y="147.9" width="73.2" height="24.65" shape-rendering="crispEdges"/><rect fill="#262626" x="951.6" y="147.9" width="24.4" height="24.65" shape-rendering="crispEdges"/><rect fill="#262626" x="0" y="172.3" width="24.4" height="24.65" shape-rendering="crispEdges"/><rect fill="#003054" x="24.4" y="172.3" width="12.2" height="24.65" shape-rendering="crispEdges"/><rect fill="#003054" x="36.6" y="172.3" width="12.2" height="24.65" shape-rendering="crispEdges"/><rect fill="#003054" x="48.8" y="172.3" width="12.2" height="24.65" shape-rendering="crispEdges"/><rect fill="#003054" x="61" y="172.3" width="12.2" height="24.65" shape-rendering="crispEdges"/><rect fill="#003054" x="73.2" y="172.3" width="12.2" height="24.65" shape-rendering="crispEdges"/><rect fill="#003054" x="85.4" y="172.3" width="12.2" height="24.65" shape-rendering="crispEdges"/><rect fill="#003054" x="97.6" y="172.3" width="12.2" height="24.65" shape-rendering="crispEdges"/><rect fill="#003054" x="109.8" y="172.3" width="12.2" height="24.65" shape-rendering="crispEdges"/><rect fill="#003054" x="122" y="172.3" width="12.2" height="24.65" shape-rendering="crispEdges"/><rect fill="#003054" x="134.2" y="172.3" width="12.2" height="24.65" shape-rendering="crispEdges"/><rect fill="#003054" x="146.4" y="172.3" width="12.2" height="24.65" shape-rendering="crispEdges"/><rect fill="#003054" x="158.6" y="172.3" width="12.2" height="24.65" shape-rendering="crispEdges"/><rect fill="#003054" x="170.8" y="172.3" width="12.2" height="24.65" shape-rendering="crispEdges"/><rect fill="#003054" x="183" y="172.3" width="12.2" height="24.65" shape-rendering="crispEdges"/><rect fill="#003054" x="195.2" y="172.3" width="12.2" height="24.65" shape-rendering="crispEdges"/><rect fill="#003054" x="207.4" y="172.3" width="12.2" height="24.65" shape-rendering="crispEdges"/><rect fill="#003054" x="219.6" y="172.3" width="12.2" height="24.65" shape-rendering="crispEdges"/><rect fill="#003054" x="231.8" y="172.3" width="12.2" height="24.65" shape-rendering="crispEdges"/><rect fill="#003054" x="244" y="172.3" width="12.2" height="24.65" shape-rendering="crispEdges"/><rect fill="#003054" x="256.2" y="172.3" width="12.2" height="24.65" shape-rendering="crispEdges"/><rect fill="#003054" x="268.4" y="172.3" width="12.2" height="24.65" shape-rendering="crispEdges"/><rect fill="#003054" x="280.6" y="172.3" width="12.2" height="24.65" shape-rendering="crispEdges"/><rect fill="#003054" x="292.8" y="172.3" width="12.2" height="24.65" shape-rendering="crispEdges"/><rect fill="#003054" x="305" y="172.3" width="12.2" height="24.65" shape-rendering="crispEdges"/><rect fill="#003054" x="317.2" y="172.3" width="12.2" height="24.65" shape-rendering="crispEdges"/><rect fill="#003054" x="329.4" y="172.3" width="12.2" height="24.65" shape-rendering="crispEdges"/><rect fill="#003054" x="341.6" y="172.3" width="12.2" height="24.65" shape-rendering="crispEdges"/><rect fill="#003054" x="353.8" y="172.3" width="12.2" height="24.65" shape-rendering="crispEdges"/><rect fill="#003054" x="366" y="172.3" width="12.2" height="24.65" shape-rendering="crispEdges"/><rect fill="#003054" x="378.2" y="172.3" width="12.2" height="24.65" shape-rendering="crispEdges"/><rect fill="#003054" x="390.4" y="172.3" width="12.2" height="24.65" shape-rendering="crispEdges"/><rect fill="#003054" x="402.6" y="172.3" width="12.2" height="24.65" shape-rendering="crispEdges"/><rect fill="#003054" x="414.8" y="172.3" width="12.2" height="24.65" shape-rendering="crispEdges"/><rect fill="#003054" x="427" y="172.3" width="12.2" height="24.65" shape-rendering="crispEdges"/><rect fill="#003054" x="439.2" y="172.3" width="12.2" height="24.65" shape-rendering="crispEdges"/><rect fill="#003054" x="451.4" y="172.3" width="12.2" height="24.65" shape-rendering="crispEdges"/><rect fill="#003054" x="463.6" y="172.3" width="12.2" height="24.65" shape-rendering="crispEdges"/><rect fill="#003054" x="475.8" y="172.3" width="12.2" height="24.65" shape-rendering="crispEdges"/><rect fill="#003054" x="488" y="172.3" width="12.2" height="24.65" shape-rendering="crispEdges"/><rect fill="#003054" x="500.2" y="172.3" width="12.2" height="24.65" shape-rendering="crispEdges"/><rect fill="#003054" x="512.4" y="172.3" width="12.2" height="24.65" shape-rendering="crispEdges"/><rect fill="#003054" x="524.6" y="172.3" width="12.2" height="24.65" shape-rendering="crispEdges"/><rect fill="#003054" x="536.8" y="172.3" width="12.2" height="24.65" shape-rendering="crispEdges"/><rect fill="#003054" x="549" y="172.3" width="12.2" height="24.65" shape-rendering="crispEdges"/><rect fill="#003054" x="561.2" y="172.3" width="12.2" height="24.65" shape-rendering="crispEdges"/><rect fill="#003054" x="573.4" y="172.3" width="12.2" height="24.65" shape-rendering="crispEdges"/><rect fill="#003054" x="585.6" y="172.3" width="12.2" height="24.65" shape-rendering="crispEdges"/><rect fill="#003054" x="597.8" y="172.3" width="12.2" height="24.65" shape-rendering="crispEdges"/><rect fill="#003054" x="610" y="172.3" width="12.2" height="24.65" shape-rendering="crispEdges"/><rect fill="#003054" x="622.2" y="172.3" width="12.2" height="24.65" shape-rendering="crispEdges"/><rect fill="#003054" x="634.4" y="172.3" width="12.2" height="24.65" shape-rendering="crispEdges"/><rect fill="#003054" x="646.6" y="172.3" width="12.2" height="24.65" shape-rendering="crispEdges"/><rect fill="#003054" x="658.8" y="172.3" width="12.2" height="24.65" shape-rendering="crispEdges"/><rect fill="#003054" x="671" y="172.3" width="12.2" height="24.65" shape-rendering="crispEdges"/><rect fill="#003054" x="683.2" y="172.3" width="12.2" height="24.65" shape-rendering="crispEdges"/><rect fill="#003054" x="695.4" y="172.3" width="12.2" height="24.65" shape-rendering="crispEdges"/><rect fill="#003054" x="707.6" y="172.3" width="12.2" height="24.65" shape-rendering="crispEdges"/><rect fill="#003054" x="719.8" y="172.3" width="12.2" height="24.65" shape-rendering="crispEdges"/><rect fill="#003054" x="732" y="172.3" width="12.2" height="24.65" shape-rendering="crispEdges"/><rect fill="#003054" x="744.2" y="172.3" width="12.2" height="24.65" shape-rendering="crispEdges"/><rect fill="#003054" x="756.4" y="172.3" width="12.2" height="24.65" shape-rendering="crispEdges"/><rect fill="#003054" x="768.6" y="172.3" width="12.2" height="24.65" shape-rendering="crispEdges"/><rect fill="#003054" x="780.8" y="172.3" width="12.2" height="24.65" shape-rendering="crispEdges"/><rect fill="#003054" x="793" y="172.3" width="12.2" height="24.65" shape-rendering="crispEdges"/><rect fill="#003054" x="805.2" y="172.3" width="12.2" height="24.65" shape-rendering="crispEdges"/><rect fill="#003054" x="817.4" y="172.3" width="12.2" height="24.65" shape-rendering="crispEdges"/><rect fill="#003054" x="829.6" y="172.3" width="12.2" height="24.65" shape-rendering="crispEdges"/><rect fill="#003054" x="841.8" y="172.3" width="12.2" height="24.65" shape-rendering="crispEdges"/><rect fill="#000000" x="854" y="172.3" width="12.2" height="24.65" shape-rendering="crispEdges"/><rect fill="#000000" x="866.2" y="172.3" width="12.2" height="24.65" shape-rendering="crispEdges"/><rect fill="#000000" x="878.4" y="172.3" width="12.2" height="24.65" shape-rendering="crispEdges"/><rect fill="#000000" x="890.6" y="172.3" width="12.2" height="24.65" shape-rendering="crispEdges"/><rect fill="#000000" x="902.8" y="172.3" width="12.2" height="24.65" shape-rendering="crispEdges"/><rect fill="#000000" x="915" y="172.3" width="12.2" height="24.65" shape-rendering="crispEdges"/><rect fill="#000000" x="927.2" y="172.3" width="12.2" height="24.65" shape-rendering="crispEdges"/><rect fill="#000000" x="939.4" y="172.3" width="12.2" height="24.65" shape-rendering="crispEdges"/><rect fill="#262626" x="951.6" y="172.3" width="24.4" height="24.65" shape-rendering="crispEdges"/><rect fill="#262626" x="0" y="196.7" width="976" height="24.65" shape-rendering="crispEdges"/><rect fill="#262626" x="0" y="221.1" width="976" height="24.65" shape-rendering="crispEdges"/><rect fill="#242f38" x="0" y="245.5" width="231.8" height="24.65" shape-rendering="crispEdges"/><rect fill="#242f38" x="231.8" y="245.5" width="195.2" height="24.65" shape-rendering="crispEdges"/><rect fill="#242f38" x="427" y="245.5" width="122" height="24.65" shape-rendering="crispEdges"/><rect fill="#242f38" x="549" y="245.5" width="170.8" height="24.65" shape-rendering="crispEdges"/><rect fill="#222a31" x="719.8" y="245.5" width="231.8" height="24.65" shape-rendering="crispEdges"/><rect fill="#003054" x="951.6" y="245.5" width="24.4" height="24.65" shape-rendering="crispEdges"/><rect fill="#153854" x="0" y="269.9" width="231.8" height="24.65" shape-rendering="crispEdges"/><rect fill="#1e1e1e" x="231.8" y="269.9" width="195.2" height="24.65" shape-rendering="crispEdges"/><rect fill="#1e1e1e" x="427" y="269.9" width="122" height="24.65" shape-rendering="crispEdges"/><rect fill="#1e1e1e" x="549" y="269.9" width="170.8" height="24.65" shape-rendering="crispEdges"/><rect fill="#1e1e1e" x="719.8" y="269.9" width="231.8" height="24.65" shape-rendering="crispEdges"/><rect fill="#003054" x="951.6" y="269.9" width="24.4" height="24.65" shape-rendering="crispEdges"/><rect fill="#1e1e1e" x="0" y="294.3" width="231.8" height="24.65" shape-rendering="crispEdges"/><rect fill="#1e1e1e" x="231.8" y="294.3" width="195.2" height="24.65" shape-rendering="crispEdges"/><rect fill="#1e1e1e" x="427" y="294.3" width="122" height="24.65" shape-rendering="crispEdges"/><rect fill="#1e1e1e" x="549" y="294.3" width="170.8" height="24.65" shape-rendering="crispEdges"/><rect fill="#1e1e1e" x="719.8" y="294.3" width="231.8" height="24.65" shape-rendering="crispEdges"/><rect fill="#003054" x="951.6" y="294.3" width="24.4" height="24.65" shape-rendering="crispEdges"/><rect fill="#1e1e1e" x="0" y="318.7" width="231.8" height="24.65" shape-rendering="crispEdges"/><rect fill="#1e1e1e" x="231.8" y="318.7" width="195.2" height="24.65" shape-rendering="crispEdges"/><rect fill="#1e1e1e" x="427" y="318.7" width="122" height="24.65" shape-rendering="crispEdges"/><rect fill="#1e1e1e" x="549" y="318.7" width="170.8" height="24.65" shape-rendering="crispEdges"/><rect fill="#1e1e1e" x="719.8" y="318.7" width="231.8" height="24.65" shape-rendering="crispEdges"/><rect fill="#003054" x="951.6" y="318.7" width="24.4" height="24.65" shape-rendering="crispEdges"/><rect fill="#1e1e1e" x="0" y="343.1" width="231.8" height="24.65" shape-rendering="crispEdges"/><rect fill="#1e1e1e" x="231.8" y="343.1" width="195.2" height="24.65" shape-rendering="crispEdges"/><rect fill="#1e1e1e" x="427" y="343.1" width="122" height="24.65" shape-rendering="crispEdges"/><rect fill="#1e1e1e" x="549" y="343.1" width="170.8" height="24.65" shape-rendering="crispEdges"/><rect fill="#1e1e1e" x="719.8" y="343.1" width="231.8" height="24.65" shape-rendering="crispEdges"/><rect fill="#003054" x="951.6" y="343.1" width="24.4" height="24.65" shape-rendering="crispEdges"/><rect fill="#1e1e1e" x="0" y="367.5" width="231.8" height="24.65" shape-rendering="crispEdges"/><rect fill="#1e1e1e" x="231.8" y="367.5" width="195.2" height="24.65" shape-rendering="crispEdges"/><rect fill="#1e1e1e" x="427" y="367.5" width="122" height="24.65" shape-rendering="crispEdges"/><rect fill="#1e1e1e" x="549" y="367.5" width="170.8" height="24.65" shape-rendering="crispEdges"/><rect fill="#1e1e1e" x="719.8" y="367.5" width="231.8" height="24.65" shape-rendering="crispEdges"/><rect fill="#003054" x="951.6" y="367.5" width="24.4" height="24.65" shape-rendering="crispEdges"/><rect fill="#1e1e1e" x="0" y="391.9" width="231.8" height="24.65" shape-rendering="crispEdges"/><rect fill="#1e1e1e" x="231.8" y="391.9" width="195.2" height="24.65" shape-rendering="crispEdges"/><rect fill="#1e1e1e" x="427" y="391.9" width="122" height="24.65" shape-rendering="crispEdges"/><rect fill="#1e1e1e" x="549" y="391.9" width="170.8" height="24.65" shape-rendering="crispEdges"/><rect fill="#1e1e1e" x="719.8" y="391.9" width="231.8" height="24.65" shape-rendering="crispEdges"/><rect fill="#003054" x="951.6" y="391.9" width="24.4" height="24.65" shape-rendering="crispEdges"/><rect fill="#1e1e1e" x="0" y="416.3" width="231.8" height="24.65" shape-rendering="crispEdges"/><rect fill="#1e1e1e" x="231.8" y="416.3" width="195.2" height="24.65" shape-rendering="crispEdges"/><rect fill="#1e1e1e" x="427" y="416.3" width="122" height="24.65" shape-rendering="crispEdges"/><rect fill="#1e1e1e" x="549" y="416.3" width="170.8" height="24.65" shape-rendering="crispEdges"/><rect fill="#1e1e1e" x="719.8" y="416.3" width="231.8" height="24.65" shape-rendering="crispEdges"/><rect fill="#003054" x="951.6" y="416.3" width="24.4" height="24.65" shape-rendering="crispEdges"/><rect fill="#1e1e1e" x="0" y="440.7" width="231.8" height="24.65" shape-rendering="crispEdges"/><rect fill="#1e1e1e" x="231.8" y="440.7" width="195.2" height="24.65" shape-rendering="crispEdges"/><rect fill="#1e1e1e" x="427" y="440.7" width="122" height="24.65" shape-rendering="crispEdges"/><rect fill="#1e1e1e" x="549" y="440.7" width="170.8" height="24.65" shape-rendering="crispEdges"/><rect fill="#1e1e1e" x="719.8" y="440.7" width="231.8" height="24.65" shape-rendering="crispEdges"/><rect fill="#003054" x="951.6" y="440.7" width="24.4" height="24.65" shape-rendering="crispEdges"/><rect fill="#1e1e1e" x="0" y="465.1" width="231.8" height="24.65" shape-rendering="crispEdges"/><rect fill="#1e1e1e" x="231.8" y="465.1" width="195.2" height="24.65" shape-rendering="crispEdges"/><rect fill="#1e1e1e" x="427" y="465.1" width="122" height="24.65" shape-rendering="crispEdges"/><rect fill="#1e1e1e" x="549" y="465.1" width="170.8" height="24.65" shape-rendering="crispEdges"/><rect fill="#1e1e1e" x="719.8" y="465.1" width="231.8" height="24.65" shape-rendering="crispEdges"/><rect fill="#003054" x="951.6" y="465.1" width="24.4" height="24.65" shape-rendering="crispEdges"/><rect fill="#1e1e1e" x="0" y="489.5" width="231.8" height="24.65" shape-rendering="crispEdges"/><rect fill="#1e1e1e" x="231.8" y="489.5" width="195.2" height="24.65" shape-rendering="crispEdges"/><rect fill="#1e1e1e" x="427" y="489.5" width="122" height="24.65" shape-rendering="crispEdges"/><rect fill="#1e1e1e" x="549" y="489.5" width="170.8" height="24.65" shape-rendering="crispEdges"/><rect fill="#1e1e1e" x="719.8" y="489.5" width="231.8" height="24.65" shape-rendering="crispEdges"/><rect fill="#000000" x="951.6" y="489.5" width="24.4" height="24.65" shape-rendering="crispEdges"/><rect fill="#1e1e1e" x="0" y="513.9" width="231.8" height="24.65" shape-rendering="crispEdges"/><rect fill="#1e1e1e" x="231.8" y="513.9" width="195.2" height="24.65" shape-rendering="crispEdges"/><rect fill="#1e1e1e" x="427" y="513.9" width="122" height="24.65" shape-rendering="crispEdges"/><rect fill="#1e1e1e" x="549" y="513.9" width="170.8" height="24.65" shape-rendering="crispEdges"/><rect fill="#1e1e1e" x="719.8" y="513.9" width="231.8" height="24.65" shape-rendering="crispEdges"/><rect fill="#000000" x="951.6" y="513.9" width="24.4" height="24.65" shape-rendering="crispEdges"/><rect fill="#1e1e1e" x="0" y="538.3" width="231.8" height="24.65" shape-rendering="crispEdges"/><rect fill="#1e1e1e" x="231.8" y="538.3" width="195.2" height="24.65" shape-rendering="crispEdges"/><rect fill="#1e1e1e" x="427" y="538.3" width="122" height="24.65" shape-rendering="crispEdges"/><rect fill="#1e1e1e" x="549" y="538.3" width="170.8" height="24.65" shape-rendering="crispEdges"/><rect fill="#1e1e1e" x="719.8" y="538.3" width="231.8" height="24.65" shape-rendering="crispEdges"/><rect fill="#000000" x="951.6" y="538.3" width="24.4" height="24.65" shape-rendering="crispEdges"/><rect fill="#242f38" x="0" y="562.7" width="36.6" height="24.65" shape-rendering="crispEdges"/><rect fill="#242f38" x="36.6" y="562.7" width="61" height="24.65" shape-rendering="crispEdges"/><rect fill="#242f38" x="97.6" y="562.7" width="36.6" height="24.65" shape-rendering="crispEdges"/><rect fill="#242f38" x="134.2" y="562.7" width="85.4" height="24.65" shape-rendering="crispEdges"/><rect fill="#242f38" x="219.6" y="562.7" width="36.6" height="24.65" shape-rendering="crispEdges"/><rect fill="#242f38" x="256.2" y="562.7" width="61" height="24.65" shape-rendering="crispEdges"/><rect fill="#242f38" x="317.2" y="562.7" width="36.6" height="24.65" shape-rendering="crispEdges"/><rect fill="#242f38" x="353.8" y="562.7" width="109.8" height="24.65" shape-rendering="crispEdges"/><rect fill="#242f38" x="463.6" y="562.7" width="36.6" height="24.65" shape-rendering="crispEdges"/><rect fill="#242f38" x="500.2" y="562.7" width="109.8" height="24.65" shape-rendering="crispEdges"/><rect fill="#242f38" x="610" y="562.7" width="36.6" height="24.65" shape-rendering="crispEdges"/><rect fill="#242f38" x="646.6" y="562.7" width="97.6" height="24.65" shape-rendering="crispEdges"/><rect fill="#242f38" x="744.2" y="562.7" width="85.4" height="24.65" shape-rendering="crispEdges"/><rect fill="#242f38" x="829.6" y="562.7" width="12.2" height="24.65" shape-rendering="crispEdges"/><rect fill="#242f38" x="841.8" y="562.7" width="24.4" height="24.65" shape-rendering="crispEdges"/><rect fill="#242f38" x="866.2" y="562.7" width="97.6" height="24.65" shape-rendering="crispEdges"/><rect fill="#242f38" x="963.8" y="562.7" width="12.2" height="24.65" shape-rendering="crispEdges"/>
    <g class="terminal-1366013383-matrix">
    <text class="terminal-1366013383-r2" x="12.2" y="20" textLength="146.4" clip-path="url(#terminal-1366013383-line-0)">⚙&#160;Deflatable</text><text class="terminal-1366013383-r4" x="183" y="20" textLength="122" clip-path="url(#terminal-1366013383-line-0)">Database&#160;▾</text><text class="terminal-1366013383-r1" x="976" y="20" textLength="12.2" clip-path="url(#terminal-1366013383-line-0)">
</text><text class="terminal-1366013383-r5" x="12.2" y="44.4" textLength="85.4" clip-path="url(#terminal-1366013383-line-1)">Product</text><text class="terminal-1366013383-r6" x="122" y="44.4" textLength="61" clip-path="url(#terminal-1366013383-line-1)">Aisle</text><text class="terminal-1366013383-r6" x="207.4" y="44.4" textLength="48.8" clip-path="url(#terminal-1366013383-line-1)">Cost</text><text class="terminal-1366013383-r1" x="976" y="44.4" textLength="12.2" clip-path="url(#terminal-1366013383-line-1)">
</text><text class="terminal-1366013383-r8" x="0" y="68.8" textLength="12.2" clip-path="url(#terminal-1366013383-line-2)">╸</text><text class="terminal-1366013383-r9" x="12.2" y="68.8" textLength="85.4" clip-path="url(#terminal-1366013383-line-2)">━━━━━━━</text><text class="terminal-1366013383-r8" x="97.6" y="68.8" textLength="12.2" clip-path="url(#terminal-1366013383-line-2)">╺</text><text class="terminal-1366013383-r8" x="109.8" y="68.8" textLength="866.2" clip-path="url(#terminal-1366013383-line-2)">━━━━━━━━━━━━━━━━━━━━━━━━━━━━━━━━━━━━━━━━━━━━━━━━━━━━━━━━━━━━━━━━━━━━━━━</text><text class="terminal-1366013383-r1" x="976" y="68.8" textLength="12.2" clip-path="url(#terminal-1366013383-line-2)">
</text><text class="terminal-1366013383-r1" x="976" y="93.2" textLength="12.2" clip-path="url(#terminal-1366013383-line-3)">
</text><text class="terminal-1366013383-r10" x="24.4" y="117.6" textLength="317.2" clip-path="url(#terminal-1366013383-line-4)">▔▔▔▔▔▔▔▔▔▔▔▔▔▔▔▔▔▔▔▔▔▔▔▔▔▔</text><text class="terminal-1366013383-r10" x="366" y="117.6" textLength="146.4" clip-path="url(#terminal-1366013383-line-4)">▔▔▔▔▔▔▔▔▔▔▔▔</text><text class="terminal-1366013383-r10" x="536.8" y="117.6" textLength="146.4" clip-path="url(#terminal-1366013383-line-4)">▔▔▔▔▔▔▔▔▔▔▔▔</text><text class="terminal-1366013383-r10" x="707.6" y="117.6" textLength="146.4" clip-path="url(#terminal-1366013383-line-4)">▔▔▔▔▔▔▔▔▔▔▔▔</text><text class="terminal-1366013383-r10" x="878.4" y="117.6" textLength="73.2" clip-path="url(#terminal-1366013383-line-4)">▔▔▔▔▔▔</text><text class="terminal-1366013383-r1" x="976" y="117.6" textLength="12.2" clip-path="url(#terminal-1366013383-line-4)">
</text><text class="terminal-1366013383-r5" x="36.6" y="142" textLength="292.8" clip-path="url(#terminal-1366013383-line-5)">View:&#160;Refrigerated&#160;Foods</text><text class="terminal-1366013383-r5" x="402.6" y="142" textLength="61" clip-path="url(#terminal-1366013383-line-5)">Group</text><text class="terminal-1366013383-r5" x="573.4" y="142" textLength="73.2" clip-path="url(#terminal-1366013383-line-5)">Fields</text><text class="terminal-1366013383-r5" x="744.2" y="142" textLength="73.2" clip-path="url(#terminal-1366013383-line-5)">Filter</text><text class="terminal-1366013383-r5" x="927.2" y="142" textLength="24.4" clip-path="url(#terminal-1366013383-line-5)">So</text><text class="terminal-1366013383-r1" x="976" y="142" textLength="12.2" clip-path="url(#terminal-1366013383-line-5)">
</text><text class="terminal-1366013383-r11" x="24.4" y="166.4" textLength="317.2" clip-path="url(#terminal-1366013383-line-6)">▁▁▁▁▁▁▁▁▁▁▁▁▁▁▁▁▁▁▁▁▁▁▁▁▁▁</text><text class="terminal-1366013383-r11" x="366" y="166.4" textLength="146.4" clip-path="url(#terminal-1366013383-line-6)">▁▁▁▁▁▁▁▁▁▁▁▁</text><text class="terminal-1366013383-r11" x="536.8" y="166.4" textLength="146.4" clip-path="url(#terminal-1366013383-line-6)">▁▁▁▁▁▁▁▁▁▁▁▁</text><text class="terminal-1366013383-r11" x="707.6" y="166.4" textLength="146.4" clip-path="url(#terminal-1366013383-line-6)">▁▁▁▁▁▁▁▁▁▁▁▁</text><text class="terminal-1366013383-r11" x="878.4" y="166.4" textLength="73.2" clip-path="url(#terminal-1366013383-line-6)">▁▁▁▁▁▁</text><text class="terminal-1366013383-r1" x="976" y="166.4" textLength="12.2" clip-path="url(#terminal-1366013383-line-6)">
</text><text class="terminal-1366013383-r13" x="854" y="190.8" textLength="12.2" clip-path="url(#terminal-1366013383-line-7)">▉</text><text class="terminal-1366013383-r1" x="976" y="190.8" textLength="12.2" clip-path="url(#terminal-1366013383-line-7)">
</text><text class="terminal-1366013383-r1" x="976" y="215.2" textLength="12.2" clip-path="url(#terminal-1366013383-line-8)">
</text><text class="terminal-1366013383-r9" x="0" y="239.6" textLength="976" clip-path="url(#terminal-1366013383-line-9)">────────────────────────────────────────────────────────────────────────────────</text><text class="terminal-1366013383-r1" x="976" y="239.6" textLength="12.2" clip-path="url(#terminal-1366013383-line-9)">
</text><text class="terminal-1366013383-r14" x="0" y="264" textLength="231.8" clip-path="url(#terminal-1366013383-line-10)">&#160;Name&#160;&#160;&#160;&#160;&#160;&#160;&#160;&#160;&#160;&#160;&#160;&#160;&#160;&#160;</text><text class="terminal-1366013383-r14" x="231.8" y="264" textLength="195.2" clip-path="url(#terminal-1366013383-line-10)">&#160;Brand&#160;&#160;&#160;&#160;&#160;&#160;&#160;&#160;&#160;&#160;</text><text class="terminal-1366013383-r14" x="427" y="264" textLength="122" clip-path="url(#terminal-1366013383-line-10)">&#160;Aisle&#160;Id&#160;</text><text class="terminal-1366013383-r14" x="549" y="264" textLength="170.8" clip-path="url(#terminal-1366013383-line-10)">&#160;Refrigerated&#160;</text><text class="terminal-1366013383-r1" x="976" y="264" textLength="12.2" clip-path="url(#terminal-1366013383-line-10)">
</text><text class="terminal-1366013383-r7" x="0" y="288.4" textLength="231.8" clip-path="url(#terminal-1366013383-line-11)">&#160;Milk&#160;&#160;&#160;&#160;&#160;&#160;&#160;&#160;&#160;&#160;&#160;&#160;&#160;&#160;</text><text class="terminal-1366013383-r7" x="231.8" y="288.4" textLength="195.2" clip-path="url(#terminal-1366013383-line-11)">&#160;Organic&#160;Valley&#160;</text><text class="terminal-1366013383-r7" x="427" y="288.4" textLength="122" clip-path="url(#terminal-1366013383-line-11)">&#160;2&#160;&#160;&#160;&#160;&#160;&#160;&#160;&#160;</text><text class="terminal-1366013383-r7" x="549" y="288.4" textLength="170.8" clip-path="url(#terminal-1366013383-line-11)">&#160;1&#160;&#160;&#160;&#160;&#160;&#160;&#160;&#160;&#160;&#160;&#160;&#160;</text><text class="terminal-1366013383-r1" x="976" y="288.4" textLength="12.2" clip-path="url(#terminal-1366013383-line-11)">
</text><text class="terminal-1366013383-r7" x="0" y="312.8" textLength="231.8" clip-path="url(#terminal-1366013383-line-12)">&#160;Cheese&#160;&#160;&#160;&#160;&#160;&#160;&#160;&#160;&#160;&#160;&#160;&#160;</text><text class="terminal-1366013383-r7" x="231.8" y="312.8" textLength="195.2" clip-path="url(#terminal-1366013383-line-12)">&#160;Kraft&#160;&#160;&#160;&#160;&#160;&#160;&#160;&#160;&#160;&#160;</text><text class="terminal-1366013383-r7" x="427" y="312.8" textLength="122" clip-path="url(#terminal-1366013383-line-12)">&#160;2&#160;&#160;&#160;&#160;&#160;&#160;&#160;&#160;</text><text class="terminal-1366013383-r7" x="549" y="312.8" textLength="170.8" clip-path="url(#terminal-1366013383-line-12)">&#160;1&#160;&#160;&#160;&#160;&#160;&#160;&#160;&#160;&#160;&#160;&#160;&#160;</text><text class="terminal-1366013383-r1" x="976" y="312.8" textLength="12.2" clip-path="url(#terminal-1366013383-line-12)">
</text><text class="terminal-1366013383-r7" x="0" y="337.2" textLength="231.8" clip-path="url(#terminal-1366013383-line-13)">&#160;Yogurt&#160;&#160;&#160;&#160;&#160;&#160;&#160;&#160;&#160;&#160;&#160;&#160;</text><text class="terminal-1366013383-r7" x="231.8" y="337.2" textLength="195.2" clip-path="url(#terminal-1366013383-line-13)">&#160;Chobani&#160;&#160;&#160;&#160;&#160;&#160;&#160;&#160;</text><text class="terminal-1366013383-r7" x="427" y="337.2" textLength="122" clip-path="url(#terminal-1366013383-line-13)">&#160;2&#160;&#160;&#160;&#160;&#160;&#160;&#160;&#160;</text><text class="terminal-1366013383-r7" x="549" y="337.2" textLength="170.8" clip-path="url(#terminal-1366013383-line-13)">&#160;1&#160;&#160;&#160;&#160;&#160;&#160;&#160;&#160;&#160;&#160;&#160;&#160;</text><text class="terminal-1366013383-r1" x="976" y="337.2" textLength="12.2" clip-path="url(#terminal-1366013383-line-13)">
</text><text class="terminal-1366013383-r7" x="0" y="361.6" textLength="231.8" clip-path="url(#terminal-1366013383-line-14)">&#160;Butter&#160;&#160;&#160;&#160;&#160;&#160;&#160;&#160;&#160;&#160;&#160;&#160;</text><text class="terminal-1366013383-r7" x="231.8" y="361.6" textLength="195.2" clip-path="url(#terminal-1366013383-line-14)">&#160;Land&#160;O&#160;Lakes&#160;&#160;&#160;</text><text class="terminal-1366013383-r7" x="427" y="361.6" textLength="122" clip-path="url(#terminal-1366013383-line-14)">&#160;2&#160;&#160;&#160;&#160;&#160;&#160;&#160;&#160;</text><text class="terminal-1366013383-r7" x="549" y="361.6" textLength="170.8" clip-path="url(#terminal-1366013383-line-14)">&#160;1&#160;&#160;&#160;&#160;&#160;&#160;&#160;&#160;&#160;&#160;&#160;&#160;</text><text class="terminal-1366013383-r1" x="976" y="361.6" textLength="12.2" clip-path="url(#terminal-1366013383-line-14)">
</text><text class="terminal-1366013383-r7" x="0" y="386" textLength="231.8" clip-path="url(#terminal-1366013383-line-15)">&#160;Eggs&#160;&#160;&#160;&#160;&#160;&#160;&#160;&#160;&#160;&#160;&#160;&#160;&#160;&#160;</text><text class="terminal-1366013383-r7" x="231.8" y="386" textLength="195.2" clip-path="url(#terminal-1366013383-line-15)">&#160;Organic&#160;Valley&#160;</text><text class="terminal-1366013383-r7" x="427" y="386" textLength="122" clip-path="url(#terminal-1366013383-line-15)">&#160;2&#160;&#160;&#160;&#160;&#160;&#160;&#160;&#160;</text><text class="terminal-1366013383-r7" x="549" y="386" textLength="170.8" clip-path="url(#terminal-1366013383-line-15)">&#160;1&#160;&#160;&#160;&#160;&#160;&#160;&#160;&#160;&#160;&#160;&#160;&#160;</text><text class="terminal-1366013383-r1" x="976" y="386" textLength="12.2" clip-path="url(#terminal-1366013383-line-15)">
</text><text class="terminal-1366013383-r7" x="0" y="410.4" textLength="231.8" clip-path="url(#terminal-1366013383-line-16)">&#160;Sour&#160;Cream&#160;&#160;&#160;&#160;&#160;&#160;&#160;&#160;</text><text class="terminal-1366013383-r7" x="231.8" y="410.4" textLength="195.2" clip-path="url(#terminal-1366013383-line-16)">&#160;Daisy&#160;&#160;&#160;&#160;&#160;&#160;&#160;&#160;&#160;&#160;</text><text class="terminal-1366013383-r7" x="427" y="410.4" textLength="122" clip-path="url(#terminal-1366013383-line-16)">&#160;2&#160;&#160;&#160;&#160;&#160;&#160;&#160;&#160;</text><text class="terminal-1366013383-r7" x="549" y="410.4" textLength="170.8" clip-path="url(#terminal-1366013383-line-16)">&#160;1&#160;&#160;&#160;&#160;&#160;&#160;&#160;&#160;&#160;&#160;&#160;&#160;</text><text class="terminal-1366013383-r1" x="976" y="410.4" textLength="12.2" clip-path="url(#terminal-1366013383-line-16)">
</text><text class="terminal-1366013383-r7" x="0" y="434.8" textLength="231.8" clip-path="url(#terminal-1366013383-line-17)">&#160;Cream&#160;Cheese&#160;&#160;&#160;&#160;&#160;&#160;</text><text class="terminal-1366013383-r7" x="231.8" y="434.8" textLength="195.2" clip-path="url(#terminal-1366013383-line-17)">&#160;Philadelphia&#160;&#160;&#160;</text><text class="terminal-1366013383-r7" x="427" y="434.8" textLength="122" clip-path="url(#terminal-1366013383-line-17)">&#160;2&#160;&#160;&#160;&#160;&#160;&#160;&#160;&#160;</text><text class="terminal-1366013383-r7" x="549" y="434.8" textLength="170.8" clip-path="url(#terminal-1366013383-line-17)">&#160;1&#160;&#160;&#160;&#160;&#160;&#160;&#160;&#160;&#160;&#160;&#160;&#160;</text><text class="terminal-1366013383-r1" x="976" y="434.8" textLength="12.2" clip-path="url(#terminal-1366013383-line-17)">
</text><text class="terminal-1366013383-r7" x="0" y="459.2" textLength="231.8" clip-path="url(#terminal-1366013383-line-18)">&#160;Ice&#160;Cream&#160;&#160;&#160;&#160;&#160;&#160;&#160;&#160;&#160;</text><text class="terminal-1366013383-r7" x="231.8" y="459.2" textLength="195.2" clip-path="url(#terminal-1366013383-line-18)">&#160;Ben&#160;&amp;&#160;Jerrys&#160;&#160;&#160;</text><text class="terminal-1366013383-r7" x="427" y="459.2" textLength="122" clip-path="url(#terminal-1366013383-line-18)">&#160;4&#160;&#160;&#160;&#160;&#160;&#160;&#160;&#160;</text><text class="terminal-1366013383-r7" x="549" y="459.2" textLength="170.8" clip-path="url(#terminal-1366013383-line-18)">&#160;1&#160;&#160;&#160;&#160;&#160;&#160;&#160;&#160;&#160;&#160;&#160;&#160;</text><text class="terminal-1366013383-r1" x="976" y="459.2" textLength="12.2" clip-path="url(#terminal-1366013383-line-18)">
</text><text class="terminal-1366013383-r7" x="0" y="483.6" textLength="231.8" clip-path="url(#terminal-1366013383-line-19)">&#160;Frozen&#160;Pizza&#160;&#160;&#160;&#160;&#160;&#160;</text><text class="terminal-1366013383-r7" x="231.8" y="483.6" textLength="195.2" clip-path="url(#terminal-1366013383-line-19)">&#160;DiGiorno&#160;&#160;&#160;&#160;&#160;&#160;&#160;</text><text class="terminal-1366013383-r7" x="427" y="483.6" textLength="122" clip-path="url(#terminal-1366013383-line-19)">&#160;4&#160;&#160;&#160;&#160;&#160;&#160;&#160;&#160;</text><text class="terminal-1366013383-r7" x="549" y="483.6" textLength="170.8" clip-path="url(#terminal-1366013383-line-19)">&#160;1&#160;&#160;&#160;&#160;&#160;&#160;&#160;&#160;&#160;&#160;&#160;&#160;</text><text class="terminal-1366013383-r16" x="951.6" y="483.6" textLength="24.4" clip-path="url(#terminal-1366013383-line-19)">▄▄</text><text class="terminal-1366013383-r1" x="976" y="483.6" textLength="12.2" clip-path="url(#terminal-1366013383-line-19)">
</text><text class="terminal-1366013383-r7" x="0" y="508" textLength="231.8" clip-path="url(#terminal-1366013383-line-20)">&#160;Frozen&#160;Vegetables&#160;</text><text class="terminal-1366013383-r7" x="231.8" y="508" textLength="195.2" clip-path="url(#terminal-1366013383-line-20)">&#160;Birds&#160;Eye&#160;&#160;&#160;&#160;&#160;&#160;</text><text class="terminal-1366013383-r7" x="427" y="508" textLength="122" clip-path="url(#terminal-1366013383-line-20)">&#160;4&#160;&#160;&#160;&#160;&#160;&#160;&#160;&#160;</text><text class="terminal-1366013383-r7" x="549" y="508" textLength="170.8" clip-path="url(#terminal-1366013383-line-20)">&#160;1&#160;&#160;&#160;&#160;&#160;&#160;&#160;&#160;&#160;&#160;&#160;&#160;</text><text class="terminal-1366013383-r1" x="976" y="508" textLength="12.2" clip-path="url(#terminal-1366013383-line-20)">
</text><text class="terminal-1366013383-r7" x="0" y="532.4" textLength="231.8" clip-path="url(#terminal-1366013383-line-21)">&#160;Frozen&#160;Waffles&#160;&#160;&#160;&#160;</text><text class="terminal-1366013383-r7" x="231.8" y="532.4" textLength="195.2" clip-path="url(#terminal-1366013383-line-21)">&#160;Eggo&#160;&#160;&#160;&#160;&#160;&#160;&#160;&#160;&#160;&#160;&#160;</text><text class="terminal-1366013383-r7" x="427" y="532.4" textLength="122" clip-path="url(#terminal-1366013383-line-21)">&#160;4&#160;&#160;&#160;&#160;&#160;&#160;&#160;&#160;</text><text class="terminal-1366013383-r7" x="549" y="532.4" textLength="170.8" clip-path="url(#terminal-1366013383-line-21)">&#160;1&#160;&#160;&#160;&#160;&#160;&#160;&#160;&#160;&#160;&#160;&#160;&#160;</text><text class="terminal-1366013383-r1" x="976" y="532.4" textLength="12.2" clip-path="url(#terminal-1366013383-line-21)">
</text><text class="terminal-1366013383-r7" x="0" y="556.8" textLength="231.8" clip-path="url(#terminal-1366013383-line-22)">&#160;Ice&#160;Cream&#160;Bars&#160;&#160;&#160;&#160;</text><text class="terminal-1366013383-r7" x="231.8" y="556.8" textLength="195.2" clip-path="url(#terminal-1366013383-line-22)">&#160;Klondike&#160;&#160;&#160;&#160;&#160;&#160;&#160;</text><text class="terminal-1366013383-r7" x="427" y="556.8" textLength="122" clip-path="url(#terminal-1366013383-line-22)">&#160;4&#160;&#160;&#160;&#160;&#160;&#160;&#160;&#160;</text><text class="terminal-1366013383-r7" x="549" y="556.8" textLength="170.8" clip-path="url(#terminal-1366013383-line-22)">&#160;1&#160;&#160;&#160;&#160;&#160;&#160;&#160;&#160;&#160;&#160;&#160;&#160;</text><text class="terminal-1366013383-r1" x="976" y="556.8" textLength="12.2" clip-path="url(#terminal-1366013383-line-22)">
</text><text class="terminal-1366013383-r17" x="0" y="581.2" textLength="36.6" clip-path="url(#terminal-1366013383-line-23)">&#160;q&#160;</text><text class="terminal-1366013383-r7" x="36.6" y="581.2" textLength="61" clip-path="url(#terminal-1366013383-line-23)">Quit&#160;</text><text class="terminal-1366013383-r17" x="97.6" y="581.2" textLength="36.6" clip-path="url(#terminal-1366013383-line-23)">&#160;/&#160;</text><text class="terminal-1366013383-r7" x="134.2" y="581.2" textLength="85.4" clip-path="url(#terminal-1366013383-line-23)">Search&#160;</text><text class="terminal-1366013383-r17" x="219.6" y="581.2" textLength="36.6" clip-path="url(#terminal-1366013383-line-23)">&#160;n&#160;</text><text class="terminal-1366013383-r7" x="256.2" y="581.2" textLength="61" clip-path="url(#terminal-1366013383-line-23)">Next&#160;</text><text class="terminal-1366013383-r17" x="317.2" y="581.2" textLength="36.6" clip-path="url(#terminal-1366013383-line-23)">&#160;N&#160;</text><text class="terminal-1366013383-r7" x="353.8" y="581.2" textLength="109.8" clip-path="url(#terminal-1366013383-line-23)">Previous&#160;</text><text class="terminal-1366013383-r17" x="463.6" y="581.2" textLength="36.6" clip-path="url(#terminal-1366013383-line-23)">&#160;e&#160;</text><text class="terminal-1366013383-r7" x="500.2" y="581.2" textLength="109.8" clip-path="url(#terminal-1366013383-line-23)">Edit&#160;Row&#160;</text><text class="terminal-1366013383-r17" x="610" y="581.2" textLength="36.6" clip-path="url(#terminal-1366013383-line-23)">&#160;+&#160;</text><text class="terminal-1366013383-r7" x="646.6" y="581.2" textLength="97.6" clip-path="url(#terminal-1366013383-line-23)">Add&#160;Row&#160;</text><text class="terminal-1366013383-r18" x="829.6" y="581.2" textLength="12.2" clip-path="url(#terminal-1366013383-line-23)">▏</text><text class="terminal-1366013383-r17" x="841.8" y="581.2" textLength="24.4" clip-path="url(#terminal-1366013383-line-23)">^p</text><text class="terminal-1366013383-r7" x="866.2" y="581.2" textLength="97.6" clip-path="url(#terminal-1366013383-line-23)">&#160;palette</text>
    </g>
    </g>
</svg>
