<svg xmlns="http://www.w3.org/2000/svg" width="24" height="24" viewBox="0 0 24 24" role="img" aria-label="Python">
  <title>Python (combined)</title>
  <!-- Combined icon: blue/yellow for light backgrounds, with a thin brand stroke for contrast when rendered on dark backgrounds. -->
  <defs>
    <style><![CDATA[
      /* Keep icon simple and self-contained */
    ]]></style>
  </defs>
  <g>
    <path fill="#3776AB" d="M12 0c-1 0-2 .5-2 1.5V6h4V1.5C14 0.5 13 0 12 0z"/>
    <path fill="#FFD43B" d="M12 24c1 0 2-.5 2-1.5V18h-4v4.5C10 23.5 11 24 12 24z"/>
    <path d="M12 0c-1 0-2 .5-2 1.5V6h4V1.5C14 0.5 13 0 12 0z" fill="none" stroke="#3776AB" stroke-width="0.5" opacity="0.9"/>
    <path d="M12 24c1 0 2-.5 2-1.5V18h-4v4.5C10 23.5 11 24 12 24z" fill="none" stroke="#3776AB" stroke-width="0.5" opacity="0.9"/>
  </g>
</svg>
