
<svg width="20" height="21" viewBox="0 0 20 21" fill="none" xmlns="http://www.w3.org/2000/svg">
<path fill-rule="evenodd" clip-rule="evenodd" d="M8.2106 1.1063C8.94739 -0.368769 11.0523 -0.368767 11.789 1.10631L19.7863 17.1172C20.4505 18.4469 19.4835 20.0109 17.9971 20.0109H2.00257C0.516169 20.0109 -0.450839 18.4469 0.213358 17.1172L8.2106 1.1063ZM9.13278 5C8.53128 5 8.0659 5.52718 8.1405 6.12403L9 13H11L11.8595 6.12403C11.9341 5.52718 11.4687 5 10.8672 5H9.13278ZM9.5 15C8.67157 15 8 15.6716 8 16.5C8 17.3284 8.67157 18 9.5 18H10.5C11.3284 18 12 17.3284 12 16.5C12 15.6716 11.3284 15 10.5 15H9.5Z" fill="currentcolor"/>
</svg>