<?xml version="1.0" encoding="UTF-8"?>
<!DOCTYPE svg PUBLIC "-//W3C//DTD SVG 1.1//EN" "http://www.w3.org/Graphics/SVG/1.1/DTD/svg11.dtd">
<!-- Creator: CorelDRAW -->
<svg xmlns="http://www.w3.org/2000/svg" xml:space="preserve" width="180px" height="180px" version="1.1" style="shape-rendering:geometricPrecision; text-rendering:geometricPrecision; image-rendering:optimizeQuality; fill-rule:evenodd; clip-rule:evenodd"
viewBox="0 0 59.33 59.33"
 xmlns:xlink="http://www.w3.org/1999/xlink"
 xmlns:xodm="http://www.corel.com/coreldraw/odm/2003">
 <defs>
  <style type="text/css">
   <![CDATA[
    .fil2 {fill:none}
    .fil0 {fill:#6D6F73}
    .fil1 {fill:#8FC642}
   ]]>
  </style>
 </defs>
 <g id="Layer_x0020_1">
  <metadata id="CorelCorpID_0Corel-Layer"/>
  <g id="_1683826829152">
   <path class="fil0" d="M11.5 41.84c7.81,4.51 15.61,9.02 23.42,13.52 0.02,-0.01 0.01,-26.09 0.01,-28.5 -7.81,-4.51 -15.62,-9.01 -23.43,-13.52 0,9.5 0,19 0,28.5zm9.62 -5.35l0 0 -1.28 -0.75 1.28 -0.74 0 -0.04 0 -0.1 0 -0.1 0 -0.1 0 -0.1 0 -0.11 0 -0.1 0 -0.1 0 -0.1 0 -0.1 0 -0.11 0 -0.1 0 -0.1 0 -0.1 0 -0.1 0 -0.1 0 -0.11 0 -0.1 0 -0.1 0 -0.1 0 -0.1 0 -0.1 0 -0.1 0 -0.11 0 -0.1 0 -0.1 0 -0.1 0 -0.1 0 -0.1 0 -0.11 0 -0.1 0 -0.1 0 -0.1 0 -0.1 0 -0.1 0 -0.11 0 -0.1 0 -0.1 0 -0.1 0 -0.1 0 -0.1 0 -0.11 0 -0.1 0 -0.1 0 -0.1 0 -0.1 0 -0.1 0 -0.11 0 -0.1 0 -0.1 0.09 0.05 0.08 0.05 0.09 0.05 0.08 0.05 0.09 0.04 0.08 0.05 0.09 0.05 0.08 0.05 0.09 0.05 0.08 0.05 0.09 0.05 0.08 0.05 0.09 0.05 0.08 0.04 0.08 0.05 0.09 0.05 0.08 0.05 0.09 0.05 0.08 0.05 0.09 0.05 0.08 0.05 0.09 0.05 0.08 0.05 0.09 0.04 0.08 0.05 0.09 0.05 0.08 0.05 0.09 0.05 0.08 0.05 0.09 0.05 0.08 0.05 0.09 0.05 0.08 0.04 0.08 0.05 0.09 0.05 0.08 0.05 0.09 0.05 0.08 0.05 0.09 0.05 0.08 0.05 0.09 0.05 0.08 0.04 0.09 0.05 0.08 0.05 0.09 0.05 0.08 0.05 0.09 0.05 0.08 0.05 0.07 0.04 0 0 1.29 0.74 -1.29 0.74 0 0.04 0 0.1 0 0.11 0 0.1 0 0.1 0 0.1 0 0.1 0 0.1 0 0.11 0 0.1 0 0.1 0 0.1 0 0.1 0 0.1 0 0.11 0 0.1 0 0.1 0 0.1 0 0.1 0 0.1 0 0.11 0 0.1 0 0.1 0 0.1 0 0.1 0 0.1 0 0.11 0 0.1 0 0.1 0 0.1 0 0.1 0 0.1 0 0.11 0 0.1 0 0.1 0 0.1 0 0.1 0 0.1 0 0.11 0 0.1 0 0.1 0 0.1 0 0.1 0 0.1 0 0.11 0 0.1 0 0.1 0 0.1 0 0.1 0 0.1 -0.09 -0.05 -0.08 -0.04 -0.09 -0.05 -0.08 -0.05 -0.08 -0.05 -0.09 -0.05 -0.08 -0.05 -0.09 -0.05 -0.08 -0.05 -0.09 -0.05 -0.08 -0.04 -0.09 -0.05 -0.08 -0.05 -0.09 -0.05 -0.08 -0.05 -0.09 -0.05 -0.08 -0.05 -0.09 -0.05 -0.08 -0.05 -0.09 -0.04 -0.08 -0.05 -0.09 -0.05 -0.08 -0.05 -0.08 -0.05 -0.09 -0.05 -0.08 -0.05 -0.09 -0.05 -0.08 -0.05 -0.09 -0.04 -0.08 -0.05 -0.09 -0.05 -0.08 -0.05 -0.09 -0.05 -0.08 -0.05 -0.09 -0.05 -0.08 -0.05 -0.09 -0.05 -0.08 -0.04 -0.09 -0.05 -0.08 -0.05 -0.08 -0.05 -0.09 -0.05 -0.08 -0.05 -0.09 -0.05 -0.08 -0.05 -0.09 -0.05 -0.08 -0.05 -0.09 -0.04 -0.07 -0.04z"/>
   <path class="fil1" d="M38.17 24.97c0,10.13 0,20.26 0,30.39l9.66 -5.58c0,-10.13 0,-20.26 0,-30.39 -8.9,-5.14 -17.8,-10.28 -26.71,-15.42l-9.62 5.55c8.88,5.17 17.77,10.31 26.67,15.45z"/>
  </g>
  <rect class="fil2" width="59.33" height="59.33"/>
 </g>
</svg>
