# Blender 4.5.0
# www.blender.org
mtllib dot.mtl
o Text
v 0.059450 0.050000 0.008113
v 0.057847 0.050000 0.015903
v 0.055266 0.050000 0.023297
v 0.051778 0.050000 0.030222
v 0.047457 0.050000 0.036606
v 0.042375 0.050000 0.042375
v 0.036606 0.050000 0.047457
v 0.030222 0.050000 0.051778
v 0.023297 0.050000 0.055266
v 0.015903 0.050000 0.057847
v 0.008113 0.050000 0.059450
v -0.000000 0.050000 0.060000
v -0.008113 0.050000 0.059450
v -0.015903 0.050000 0.057847
v -0.023297 0.050000 0.055266
v -0.030222 0.050000 0.051778
v -0.036606 0.050000 0.047457
v -0.042375 0.050000 0.042375
v -0.047457 0.050000 0.036606
v -0.051778 0.050000 0.030222
v -0.055266 0.050000 0.023297
v -0.057847 0.050000 0.015903
v -0.059450 0.050000 0.008113
v -0.060000 0.050000 0.000000
v -0.059450 0.050000 -0.008113
v -0.057847 0.050000 -0.015903
v -0.055266 0.050000 -0.023297
v -0.051778 0.050000 -0.030222
v -0.047457 0.050000 -0.036606
v -0.042375 0.050000 -0.042375
v -0.036606 0.050000 -0.047457
v -0.030222 0.050000 -0.051778
v -0.023297 0.050000 -0.055266
v -0.015903 0.050000 -0.057847
v -0.008113 0.050000 -0.059450
v -0.000000 0.050000 -0.060000
v 0.008113 0.050000 -0.059450
v 0.015903 0.050000 -0.057847
v 0.023297 0.050000 -0.055266
v 0.030222 0.050000 -0.051778
v 0.036606 0.050000 -0.047457
v 0.042375 0.050000 -0.042375
v 0.047457 0.050000 -0.036606
v 0.051778 0.050000 -0.030222
v 0.055266 0.050000 -0.023297
v 0.057847 0.050000 -0.015903
v 0.059450 0.050000 -0.008113
v 0.060000 0.050000 0.000000
v 0.059450 -0.050000 0.008113
v 0.057847 -0.050000 0.015903
v 0.055266 -0.050000 0.023297
v 0.051778 -0.050000 0.030222
v 0.047457 -0.050000 0.036606
v 0.042375 -0.050000 0.042375
v 0.036606 -0.050000 0.047457
v 0.030222 -0.050000 0.051778
v 0.023297 -0.050000 0.055266
v 0.015903 -0.050000 0.057847
v 0.008113 -0.050000 0.059450
v -0.000000 -0.050000 0.060000
v -0.008113 -0.050000 0.059450
v -0.015903 -0.050000 0.057847
v -0.023297 -0.050000 0.055266
v -0.030222 -0.050000 0.051778
v -0.036606 -0.050000 0.047457
v -0.042375 -0.050000 0.042375
v -0.047457 -0.050000 0.036606
v -0.051778 -0.050000 0.030222
v -0.055266 -0.050000 0.023297
v -0.057847 -0.050000 0.015903
v -0.059450 -0.050000 0.008113
v -0.060000 -0.050000 0.000000
v -0.059450 -0.050000 -0.008113
v -0.057847 -0.050000 -0.015903
v -0.055266 -0.050000 -0.023297
v -0.051778 -0.050000 -0.030222
v -0.047457 -0.050000 -0.036606
v -0.042375 -0.050000 -0.042375
v -0.036606 -0.050000 -0.047457
v -0.030222 -0.050000 -0.051778
v -0.023297 -0.050000 -0.055266
v -0.015903 -0.050000 -0.057847
v -0.008113 -0.050000 -0.059450
v -0.000000 -0.050000 -0.060000
v 0.008113 -0.050000 -0.059450
v 0.015903 -0.050000 -0.057847
v 0.023297 -0.050000 -0.055266
v 0.030222 -0.050000 -0.051778
v 0.036606 -0.050000 -0.047457
v 0.042375 -0.050000 -0.042375
v 0.047457 -0.050000 -0.036606
v 0.051778 -0.050000 -0.030222
v 0.055266 -0.050000 -0.023297
v 0.057847 -0.050000 -0.015903
v 0.059450 -0.050000 -0.008113
v 0.060000 -0.050000 0.000000
v 0.059450 -0.050000 0.008113
v 0.059450 0.050000 0.008113
v 0.057847 -0.050000 0.015903
v 0.057847 0.050000 0.015903
v 0.055266 -0.050000 0.023297
v 0.055266 0.050000 0.023297
v 0.051778 -0.050000 0.030222
v 0.051778 0.050000 0.030222
v 0.047457 -0.050000 0.036606
v 0.047457 0.050000 0.036606
v 0.042375 -0.050000 0.042375
v 0.042375 0.050000 0.042375
v 0.036606 -0.050000 0.047457
v 0.036606 0.050000 0.047457
v 0.030222 -0.050000 0.051778
v 0.030222 0.050000 0.051778
v 0.023297 -0.050000 0.055266
v 0.023297 0.050000 0.055266
v 0.015903 -0.050000 0.057847
v 0.015903 0.050000 0.057847
v 0.008113 -0.050000 0.059450
v 0.008113 0.050000 0.059450
v -0.000000 -0.050000 0.060000
v -0.000000 0.050000 0.060000
v -0.008113 -0.050000 0.059450
v -0.008113 0.050000 0.059450
v -0.015903 -0.050000 0.057847
v -0.015903 0.050000 0.057847
v -0.023297 -0.050000 0.055266
v -0.023297 0.050000 0.055266
v -0.030222 -0.050000 0.051778
v -0.030222 0.050000 0.051778
v -0.036606 -0.050000 0.047457
v -0.036606 0.050000 0.047457
v -0.042375 -0.050000 0.042375
v -0.042375 0.050000 0.042375
v -0.047457 -0.050000 0.036606
v -0.047457 0.050000 0.036606
v -0.051778 -0.050000 0.030222
v -0.051778 0.050000 0.030222
v -0.055266 -0.050000 0.023297
v -0.055266 0.050000 0.023297
v -0.057847 -0.050000 0.015903
v -0.057847 0.050000 0.015903
v -0.059450 -0.050000 0.008113
v -0.059450 0.050000 0.008113
v -0.060000 -0.050000 0.000000
v -0.060000 0.050000 0.000000
v -0.059450 -0.050000 -0.008113
v -0.059450 0.050000 -0.008113
v -0.057847 -0.050000 -0.015903
v -0.057847 0.050000 -0.015903
v -0.055266 -0.050000 -0.023297
v -0.055266 0.050000 -0.023297
v -0.051778 -0.050000 -0.030222
v -0.051778 0.050000 -0.030222
v -0.047457 -0.050000 -0.036606
v -0.047457 0.050000 -0.036606
v -0.042375 -0.050000 -0.042375
v -0.042375 0.050000 -0.042375
v -0.036606 -0.050000 -0.047457
v -0.036606 0.050000 -0.047457
v -0.030222 -0.050000 -0.051778
v -0.030222 0.050000 -0.051778
v -0.023297 -0.050000 -0.055266
v -0.023297 0.050000 -0.055266
v -0.015903 -0.050000 -0.057847
v -0.015903 0.050000 -0.057847
v -0.008113 -0.050000 -0.059450
v -0.008113 0.050000 -0.059450
v -0.000000 -0.050000 -0.060000
v -0.000000 0.050000 -0.060000
v 0.008113 -0.050000 -0.059450
v 0.008113 0.050000 -0.059450
v 0.015903 -0.050000 -0.057847
v 0.015903 0.050000 -0.057847
v 0.023297 -0.050000 -0.055266
v 0.023297 0.050000 -0.055266
v 0.030222 -0.050000 -0.051778
v 0.030222 0.050000 -0.051778
v 0.036606 -0.050000 -0.047457
v 0.036606 0.050000 -0.047457
v 0.042375 -0.050000 -0.042375
v 0.042375 0.050000 -0.042375
v 0.047457 -0.050000 -0.036606
v 0.047457 0.050000 -0.036606
v 0.051778 -0.050000 -0.030222
v 0.051778 0.050000 -0.030222
v 0.055266 -0.050000 -0.023297
v 0.055266 0.050000 -0.023297
v 0.057847 -0.050000 -0.015903
v 0.057847 0.050000 -0.015903
v 0.059450 -0.050000 -0.008113
v 0.059450 0.050000 -0.008113
v 0.060000 -0.050000 0.000000
v 0.060000 0.050000 0.000000
vn -0.0000 1.0000 -0.0000
vn -0.0000 -1.0000 -0.0000
vn 0.9909 -0.0000 0.1349
vn 0.9639 -0.0000 0.2661
vn 0.9206 -0.0000 0.3906
vn 0.8624 -0.0000 0.5062
vn 0.7909 -0.0000 0.6120
vn 0.7071 -0.0000 0.7071
vn 0.6120 -0.0000 0.7909
vn 0.5062 -0.0000 0.8624
vn 0.3906 -0.0000 0.9206
vn 0.2661 -0.0000 0.9639
vn 0.1349 -0.0000 0.9909
vn -0.0000 -0.0000 1.0000
vn -0.1349 -0.0000 0.9909
vn -0.2661 -0.0000 0.9639
vn -0.3906 -0.0000 0.9206
vn -0.5062 -0.0000 0.8624
vn -0.6120 -0.0000 0.7909
vn -0.7071 -0.0000 0.7071
vn -0.7909 -0.0000 0.6120
vn -0.8624 -0.0000 0.5062
vn -0.9206 -0.0000 0.3906
vn -0.9639 -0.0000 0.2661
vn -0.9909 -0.0000 0.1349
vn -1.0000 -0.0000 -0.0000
vn -0.9909 -0.0000 -0.1349
vn -0.9639 -0.0000 -0.2661
vn -0.9206 -0.0000 -0.3906
vn -0.8624 -0.0000 -0.5062
vn -0.7909 -0.0000 -0.6120
vn -0.7071 -0.0000 -0.7071
vn -0.6120 -0.0000 -0.7909
vn -0.5062 -0.0000 -0.8624
vn -0.3906 -0.0000 -0.9206
vn -0.2661 -0.0000 -0.9639
vn -0.1349 -0.0000 -0.9909
vn -0.0000 -0.0000 -1.0000
vn 0.1349 -0.0000 -0.9909
vn 0.2661 -0.0000 -0.9639
vn 0.3906 -0.0000 -0.9206
vn 0.5062 -0.0000 -0.8624
vn 0.6120 -0.0000 -0.7909
vn 0.7071 -0.0000 -0.7071
vn 0.7909 -0.0000 -0.6120
vn 0.8624 -0.0000 -0.5062
vn 0.9206 -0.0000 -0.3906
vn 0.9639 -0.0000 -0.2661
vn 0.9909 -0.0000 -0.1349
vn 1.0000 -0.0000 -0.0000
vt 0.723404 0.000000
vt 0.765957 0.000000
vt 0.744681 0.000000
vt 0.702128 0.000000
vt 0.787234 0.000000
vt 0.680851 0.000000
vt 0.808511 0.000000
vt 0.659574 0.000000
vt 0.829787 0.000000
vt 0.638298 0.000000
vt 0.851064 0.000000
vt 0.617021 0.000000
vt 0.872340 0.000000
vt 0.595745 0.000000
vt 0.893617 0.000000
vt 0.574468 0.000000
vt 0.914894 0.000000
vt 0.553191 0.000000
vt 0.936170 0.000000
vt 0.531915 0.000000
vt 0.957447 0.000000
vt 0.510638 0.000000
vt 0.978723 0.000000
vt 0.489362 0.000000
vt 1.000000 0.000000
vt 0.468085 0.000000
vt 0.000000 0.000000
vt 0.446809 0.000000
vt 0.021277 0.000000
vt 0.425532 0.000000
vt 0.042553 0.000000
vt 0.404255 0.000000
vt 0.063830 0.000000
vt 0.382979 0.000000
vt 0.085106 0.000000
vt 0.361702 0.000000
vt 0.106383 0.000000
vt 0.340426 0.000000
vt 0.127660 0.000000
vt 0.319149 0.000000
vt 0.148936 0.000000
vt 0.297872 0.000000
vt 0.170213 0.000000
vt 0.276596 0.000000
vt 0.191489 0.000000
vt 0.255319 0.000000
vt 0.212766 0.000000
vt 0.234043 0.000000
vt 0.000000 1.000000
vt 0.020833 1.000000
vt 0.020833 0.000000
vt 0.041667 1.000000
vt 0.041667 0.000000
vt 0.062500 1.000000
vt 0.062500 0.000000
vt 0.083333 1.000000
vt 0.083333 0.000000
vt 0.104167 1.000000
vt 0.104167 0.000000
vt 0.125000 1.000000
vt 0.125000 0.000000
vt 0.145833 1.000000
vt 0.145833 0.000000
vt 0.166667 1.000000
vt 0.166667 0.000000
vt 0.187500 1.000000
vt 0.187500 0.000000
vt 0.208333 1.000000
vt 0.208333 0.000000
vt 0.229167 1.000000
vt 0.229167 0.000000
vt 0.250000 1.000000
vt 0.250000 0.000000
vt 0.270833 1.000000
vt 0.270833 0.000000
vt 0.291667 1.000000
vt 0.291667 0.000000
vt 0.312500 1.000000
vt 0.312500 0.000000
vt 0.333333 1.000000
vt 0.333333 0.000000
vt 0.354167 1.000000
vt 0.354167 0.000000
vt 0.375000 1.000000
vt 0.375000 0.000000
vt 0.395833 1.000000
vt 0.395833 0.000000
vt 0.416667 1.000000
vt 0.416667 0.000000
vt 0.437500 1.000000
vt 0.437500 0.000000
vt 0.458333 1.000000
vt 0.458333 0.000000
vt 0.479167 1.000000
vt 0.479167 0.000000
vt 0.500000 1.000000
vt 0.500000 0.000000
vt 0.520833 1.000000
vt 0.520833 0.000000
vt 0.541667 1.000000
vt 0.541667 0.000000
vt 0.562500 1.000000
vt 0.562500 0.000000
vt 0.583333 1.000000
vt 0.583333 0.000000
vt 0.604167 1.000000
vt 0.604167 0.000000
vt 0.625000 1.000000
vt 0.625000 0.000000
vt 0.645833 1.000000
vt 0.645833 0.000000
vt 0.666667 1.000000
vt 0.666667 0.000000
vt 0.687500 1.000000
vt 0.687500 0.000000
vt 0.708333 1.000000
vt 0.708333 0.000000
vt 0.729167 1.000000
vt 0.729167 0.000000
vt 0.750000 1.000000
vt 0.750000 0.000000
vt 0.770833 1.000000
vt 0.770833 0.000000
vt 0.791667 1.000000
vt 0.791667 0.000000
vt 0.812500 1.000000
vt 0.812500 0.000000
vt 0.833333 1.000000
vt 0.833333 0.000000
vt 0.854167 1.000000
vt 0.854167 0.000000
vt 0.875000 1.000000
vt 0.875000 0.000000
vt 0.895833 1.000000
vt 0.895833 0.000000
vt 0.916667 1.000000
vt 0.916667 0.000000
vt 0.937500 1.000000
vt 0.937500 0.000000
vt 0.958333 1.000000
vt 0.958333 0.000000
vt 0.979167 1.000000
vt 0.979167 0.000000
vt 1.000000 1.000000
s 0
f 35/1/1 37/2/1 36/3/1
f 34/4/1 37/2/1 35/1/1
f 34/4/1 38/5/1 37/2/1
f 33/6/1 38/5/1 34/4/1
f 33/6/1 39/7/1 38/5/1
f 32/8/1 39/7/1 33/6/1
f 32/8/1 40/9/1 39/7/1
f 31/10/1 40/9/1 32/8/1
f 31/10/1 41/11/1 40/9/1
f 30/12/1 41/11/1 31/10/1
f 30/12/1 42/13/1 41/11/1
f 29/14/1 42/13/1 30/12/1
f 29/14/1 43/15/1 42/13/1
f 28/16/1 43/15/1 29/14/1
f 28/16/1 44/17/1 43/15/1
f 27/18/1 44/17/1 28/16/1
f 27/18/1 45/19/1 44/17/1
f 26/20/1 45/19/1 27/18/1
f 26/20/1 46/21/1 45/19/1
f 25/22/1 46/21/1 26/20/1
f 25/22/1 47/23/1 46/21/1
f 24/24/1 47/23/1 25/22/1
f 24/24/1 48/25/1 47/23/1
f 23/26/1 48/25/1 24/24/1
f 23/26/1 1/27/1 48/25/1
f 22/28/1 1/27/1 23/26/1
f 22/28/1 2/29/1 1/27/1
f 21/30/1 2/29/1 22/28/1
f 21/30/1 3/31/1 2/29/1
f 20/32/1 3/31/1 21/30/1
f 20/32/1 4/33/1 3/31/1
f 19/34/1 4/33/1 20/32/1
f 19/34/1 5/35/1 4/33/1
f 18/36/1 5/35/1 19/34/1
f 18/36/1 6/37/1 5/35/1
f 17/38/1 6/37/1 18/36/1
f 17/38/1 7/39/1 6/37/1
f 16/40/1 7/39/1 17/38/1
f 16/40/1 8/41/1 7/39/1
f 15/42/1 8/41/1 16/40/1
f 15/42/1 9/43/1 8/41/1
f 14/44/1 9/43/1 15/42/1
f 14/44/1 10/45/1 9/43/1
f 13/46/1 10/45/1 14/44/1
f 13/46/1 11/47/1 10/45/1
f 12/48/1 11/47/1 13/46/1
f 83/1/2 84/3/2 85/2/2
f 82/4/2 83/1/2 85/2/2
f 82/4/2 85/2/2 86/5/2
f 81/6/2 82/4/2 86/5/2
f 81/6/2 86/5/2 87/7/2
f 80/8/2 81/6/2 87/7/2
f 80/8/2 87/7/2 88/9/2
f 79/10/2 80/8/2 88/9/2
f 79/10/2 88/9/2 89/11/2
f 78/12/2 79/10/2 89/11/2
f 78/12/2 89/11/2 90/13/2
f 77/14/2 78/12/2 90/13/2
f 77/14/2 90/13/2 91/15/2
f 76/16/2 77/14/2 91/15/2
f 76/16/2 91/15/2 92/17/2
f 75/18/2 76/16/2 92/17/2
f 75/18/2 92/17/2 93/19/2
f 74/20/2 75/18/2 93/19/2
f 74/20/2 93/19/2 94/21/2
f 73/22/2 74/20/2 94/21/2
f 73/22/2 94/21/2 95/23/2
f 72/24/2 73/22/2 95/23/2
f 72/24/2 95/23/2 96/25/2
f 71/26/2 72/24/2 96/25/2
f 71/26/2 96/25/2 49/27/2
f 70/28/2 71/26/2 49/27/2
f 70/28/2 49/27/2 50/29/2
f 69/30/2 70/28/2 50/29/2
f 69/30/2 50/29/2 51/31/2
f 68/32/2 69/30/2 51/31/2
f 68/32/2 51/31/2 52/33/2
f 67/34/2 68/32/2 52/33/2
f 67/34/2 52/33/2 53/35/2
f 66/36/2 67/34/2 53/35/2
f 66/36/2 53/35/2 54/37/2
f 65/38/2 66/36/2 54/37/2
f 65/38/2 54/37/2 55/39/2
f 64/40/2 65/38/2 55/39/2
f 64/40/2 55/39/2 56/41/2
f 63/42/2 64/40/2 56/41/2
f 63/42/2 56/41/2 57/43/2
f 62/44/2 63/42/2 57/43/2
f 62/44/2 57/43/2 58/45/2
f 61/46/2 62/44/2 58/45/2
f 61/46/2 58/45/2 59/47/2
f 60/48/2 61/46/2 59/47/2
s 1
f 98/49/3 100/50/4 99/51/4 97/27/3
f 100/50/4 102/52/5 101/53/5 99/51/4
f 102/52/5 104/54/6 103/55/6 101/53/5
f 104/54/6 106/56/7 105/57/7 103/55/6
f 106/56/7 108/58/8 107/59/8 105/57/7
f 108/58/8 110/60/9 109/61/9 107/59/8
f 110/60/9 112/62/10 111/63/10 109/61/9
f 112/62/10 114/64/11 113/65/11 111/63/10
f 114/64/11 116/66/12 115/67/12 113/65/11
f 116/66/12 118/68/13 117/69/13 115/67/12
f 118/68/13 120/70/14 119/71/14 117/69/13
f 120/70/14 122/72/15 121/73/15 119/71/14
f 122/72/15 124/74/16 123/75/16 121/73/15
f 124/74/16 126/76/17 125/77/17 123/75/16
f 126/76/17 128/78/18 127/79/18 125/77/17
f 128/78/18 130/80/19 129/81/19 127/79/18
f 130/80/19 132/82/20 131/83/20 129/81/19
f 132/82/20 134/84/21 133/85/21 131/83/20
f 134/84/21 136/86/22 135/87/22 133/85/21
f 136/86/22 138/88/23 137/89/23 135/87/22
f 138/88/23 140/90/24 139/91/24 137/89/23
f 140/90/24 142/92/25 141/93/25 139/91/24
f 142/92/25 144/94/26 143/95/26 141/93/25
f 144/94/26 146/96/27 145/97/27 143/95/26
f 146/96/27 148/98/28 147/99/28 145/97/27
f 148/98/28 150/100/29 149/101/29 147/99/28
f 150/100/29 152/102/30 151/103/30 149/101/29
f 152/102/30 154/104/31 153/105/31 151/103/30
f 154/104/31 156/106/32 155/107/32 153/105/31
f 156/106/32 158/108/33 157/109/33 155/107/32
f 158/108/33 160/110/34 159/111/34 157/109/33
f 160/110/34 162/112/35 161/113/35 159/111/34
f 162/112/35 164/114/36 163/115/36 161/113/35
f 164/114/36 166/116/37 165/117/37 163/115/36
f 166/116/37 168/118/38 167/119/38 165/117/37
f 168/118/38 170/120/39 169/121/39 167/119/38
f 170/120/39 172/122/40 171/123/40 169/121/39
f 172/122/40 174/124/41 173/125/41 171/123/40
f 174/124/41 176/126/42 175/127/42 173/125/41
f 176/126/42 178/128/43 177/129/43 175/127/42
f 178/128/43 180/130/44 179/131/44 177/129/43
f 180/130/44 182/132/45 181/133/45 179/131/44
f 182/132/45 184/134/46 183/135/46 181/133/45
f 184/134/46 186/136/47 185/137/47 183/135/46
f 186/136/47 188/138/48 187/139/48 185/137/47
f 188/138/48 190/140/49 189/141/49 187/139/48
f 190/140/49 192/142/50 191/143/50 189/141/49
f 192/142/50 98/144/3 97/25/3 191/143/50
