# Blender 4.5.0
# www.blender.org
mtllib k.mtl
o Text
v -0.219000 0.050000 0.341000
v -0.219000 0.050000 -0.341000
v -0.130000 0.050000 -0.341000
v -0.130000 0.050000 0.341000
v 0.219000 0.050000 0.341000
v 0.099000 0.050000 0.341000
v -0.126000 0.050000 0.112000
v 0.073000 0.050000 -0.108000
v 0.179000 0.050000 -0.108000
v -0.013000 0.050000 0.112000
v -0.219000 -0.050000 0.341000
v -0.219000 -0.050000 -0.341000
v -0.130000 -0.050000 -0.341000
v -0.130000 -0.050000 0.341000
v 0.219000 -0.050000 0.341000
v 0.099000 -0.050000 0.341000
v -0.126000 -0.050000 0.112000
v 0.073000 -0.050000 -0.108000
v 0.179000 -0.050000 -0.108000
v -0.013000 -0.050000 0.112000
v 0.219000 -0.050000 0.341000
v 0.219000 0.050000 0.341000
v 0.099000 -0.050000 0.341000
v 0.099000 0.050000 0.341000
v -0.126000 -0.050000 0.112000
v -0.126000 0.050000 0.112000
v 0.073000 -0.050000 -0.108000
v 0.073000 0.050000 -0.108000
v 0.179000 -0.050000 -0.108000
v 0.179000 0.050000 -0.108000
v -0.013000 -0.050000 0.112000
v -0.013000 0.050000 0.112000
v -0.219000 -0.050000 0.341000
v -0.219000 0.050000 0.341000
v -0.219000 -0.050000 -0.341000
v -0.219000 0.050000 -0.341000
v -0.130000 -0.050000 -0.341000
v -0.130000 0.050000 -0.341000
v -0.130000 -0.050000 0.341000
v -0.130000 0.050000 0.341000
vn -0.0000 1.0000 -0.0000
vn -0.0000 -1.0000 -0.0000
vn 0.9251 -0.0000 0.3797
vn -0.3867 -0.0000 0.9222
vn -0.9998 -0.0000 0.0206
vn -0.4057 -0.0000 -0.9140
vn 0.9104 -0.0000 -0.4138
vn 0.9993 -0.0000 -0.0372
vn -0.7071 -0.0000 0.7071
vn -0.7071 -0.0000 -0.7071
vn 0.7071 -0.0000 -0.7071
vn 0.7071 -0.0000 0.7071
vt 0.666667 0.000000
vt 0.888889 0.000000
vt 0.777778 0.000000
vt 1.000000 0.000000
vt 0.555556 0.000000
vt 0.444444 0.000000
vt 0.000000 0.000000
vt 0.222222 0.000000
vt 0.111111 0.000000
vt 0.333333 0.000000
vt 0.000000 1.000000
vt 0.166667 1.000000
vt 0.166667 0.000000
vt 0.333333 1.000000
vt 0.500000 1.000000
vt 0.500000 0.000000
vt 0.666667 1.000000
vt 0.833333 1.000000
vt 0.833333 0.000000
vt 1.000000 1.000000
vt 0.250000 1.000000
vt 0.250000 0.000000
vt 0.750000 1.000000
vt 0.750000 0.000000
s 0
f 7/1/1 9/2/1 8/3/1
f 7/1/1 10/4/1 9/2/1
f 6/5/1 10/4/1 7/1/1
f 6/5/1 5/6/1 10/4/1
f 1/7/1 3/8/1 2/9/1
f 1/7/1 4/10/1 3/8/1
f 17/1/2 18/3/2 19/2/2
f 17/1/2 19/2/2 20/4/2
f 16/5/2 17/1/2 20/4/2
f 16/5/2 20/4/2 15/6/2
f 11/7/2 12/9/2 13/8/2
f 11/7/2 13/8/2 14/10/2
s 1
f 22/11/3 24/12/4 23/13/4 21/7/3
f 24/12/4 26/14/5 25/10/5 23/13/4
f 26/14/5 28/15/6 27/16/6 25/10/5
f 28/15/6 30/17/7 29/1/7 27/16/6
f 30/17/7 32/18/8 31/19/8 29/1/7
f 32/18/8 22/20/3 21/4/3 31/19/8
f 34/11/9 36/21/10 35/22/10 33/7/9
f 36/21/10 38/15/11 37/16/11 35/22/10
f 38/15/11 40/23/12 39/24/12 37/16/11
f 40/23/12 34/20/9 33/4/9 39/24/12
