# Blender 4.5.0
# www.blender.org
mtllib less.mtl
o Text
v 0.237000 0.050000 -0.243000
v 0.237000 0.050000 -0.156000
v -0.139000 0.050000 0.000000
v 0.237000 0.050000 0.156000
v 0.237000 0.050000 0.243000
v -0.237000 0.050000 0.041000
v -0.237000 0.050000 -0.041000
v 0.237000 -0.050000 -0.243000
v 0.237000 -0.050000 -0.156000
v -0.139000 -0.050000 0.000000
v 0.237000 -0.050000 0.156000
v 0.237000 -0.050000 0.243000
v -0.237000 -0.050000 0.041000
v -0.237000 -0.050000 -0.041000
v 0.237000 -0.050000 -0.243000
v 0.237000 0.050000 -0.243000
v 0.237000 -0.050000 -0.156000
v 0.237000 0.050000 -0.156000
v -0.139000 -0.050000 0.000000
v -0.139000 0.050000 0.000000
v 0.237000 -0.050000 0.156000
v 0.237000 0.050000 0.156000
v 0.237000 -0.050000 0.243000
v 0.237000 0.050000 0.243000
v -0.237000 -0.050000 0.041000
v -0.237000 0.050000 0.041000
v -0.237000 -0.050000 -0.041000
v -0.237000 0.050000 -0.041000
vn -0.0000 1.0000 -0.0000
vn -0.0000 -1.0000 -0.0000
vn 0.5513 -0.0000 -0.8343
vn 0.8316 -0.0000 0.5553
vn 1.0000 -0.0000 -0.0000
vn 0.8316 -0.0000 -0.5553
vn 0.5513 -0.0000 0.8343
vn -0.8343 -0.0000 0.5513
vn -0.8343 -0.0000 -0.5513
vt 1.000000 0.000000
vt 0.166667 0.000000
vt 0.000000 0.000000
vt 0.333333 0.000000
vt 0.833333 0.000000
vt 0.500000 0.000000
vt 0.666667 0.000000
vt 0.000000 1.000000
vt 0.142857 1.000000
vt 0.142857 0.000000
vt 0.285714 1.000000
vt 0.285714 0.000000
vt 0.428571 1.000000
vt 0.428571 0.000000
vt 0.571429 1.000000
vt 0.571429 0.000000
vt 0.714286 1.000000
vt 0.714286 0.000000
vt 0.857143 1.000000
vt 0.857143 0.000000
vt 1.000000 1.000000
s 0
f 7/1/1 2/2/1 1/3/1
f 7/1/1 3/4/1 2/2/1
f 6/5/1 3/4/1 7/1/1
f 6/5/1 4/6/1 3/4/1
f 5/7/1 4/6/1 6/5/1
f 14/1/2 8/3/2 9/2/2
f 14/1/2 9/2/2 10/4/2
f 13/5/2 14/1/2 10/4/2
f 13/5/2 10/4/2 11/6/2
f 12/7/2 13/5/2 11/6/2
s 1
f 16/8/3 18/9/4 17/10/4 15/3/3
f 18/9/4 20/11/5 19/12/5 17/10/4
f 20/11/5 22/13/6 21/14/6 19/12/5
f 22/13/6 24/15/7 23/16/7 21/14/6
f 24/15/7 26/17/8 25/18/8 23/16/7
f 26/17/8 28/19/9 27/20/9 25/18/8
f 28/19/9 16/21/3 15/1/3 27/20/9
