# Blender 4.5.0
# www.blender.org
mtllib t.mtl
o Text
v 0.143000 0.050000 -0.182500
v 0.143000 0.050000 -0.102500
v 0.001000 0.050000 -0.102500
v 0.001000 0.050000 0.127500
v 0.001763 0.050000 0.139972
v 0.003935 0.050000 0.150940
v 0.007344 0.050000 0.160484
v 0.011815 0.050000 0.168685
v 0.017175 0.050000 0.175622
v 0.023250 0.050000 0.181375
v 0.029867 0.050000 0.186024
v 0.036852 0.050000 0.189648
v 0.044031 0.050000 0.192328
v 0.051231 0.050000 0.194144
v 0.058279 0.050000 0.195174
v 0.065000 0.050000 0.195500
v 0.073022 0.050000 0.195271
v 0.081093 0.050000 0.194583
v 0.089219 0.050000 0.193438
v 0.097407 0.050000 0.191833
v 0.105666 0.050000 0.189771
v 0.114000 0.050000 0.187250
v 0.122418 0.050000 0.184271
v 0.130926 0.050000 0.180833
v 0.139531 0.050000 0.176938
v 0.148241 0.050000 0.172583
v 0.157061 0.050000 0.167771
v 0.166000 0.050000 0.162500
v 0.166000 0.050000 0.245500
v 0.157917 0.050000 0.249661
v 0.149250 0.050000 0.253625
v 0.140125 0.050000 0.257359
v 0.130667 0.050000 0.260833
v 0.121000 0.050000 0.264016
v 0.111250 0.050000 0.266875
v 0.101542 0.050000 0.269380
v 0.092000 0.050000 0.271500
v 0.082750 0.050000 0.273203
v 0.073917 0.050000 0.274458
v 0.065625 0.050000 0.275234
v 0.058000 0.050000 0.275500
v 0.034751 0.050000 0.274273
v 0.013505 0.050000 0.270681
v -0.005734 0.050000 0.264859
v -0.022963 0.050000 0.256944
v -0.038178 0.050000 0.247071
v -0.051375 0.050000 0.235375
v -0.062552 0.050000 0.221991
v -0.071704 0.050000 0.207056
v -0.078828 0.050000 0.190703
v -0.083921 0.050000 0.173069
v -0.086980 0.050000 0.154290
v -0.088000 0.050000 0.134500
v -0.088000 0.050000 -0.102500
v -0.166000 0.050000 -0.102500
v -0.166000 0.050000 -0.112500
v 0.001000 0.050000 -0.275500
v 0.001000 0.050000 -0.182500
v 0.143000 -0.050000 -0.182500
v 0.143000 -0.050000 -0.102500
v 0.001000 -0.050000 -0.102500
v 0.001000 -0.050000 0.127500
v 0.001763 -0.050000 0.139972
v 0.003935 -0.050000 0.150940
v 0.007344 -0.050000 0.160484
v 0.011815 -0.050000 0.168685
v 0.017175 -0.050000 0.175622
v 0.023250 -0.050000 0.181375
v 0.029867 -0.050000 0.186024
v 0.036852 -0.050000 0.189648
v 0.044031 -0.050000 0.192328
v 0.051231 -0.050000 0.194144
v 0.058279 -0.050000 0.195174
v 0.065000 -0.050000 0.195500
v 0.073022 -0.050000 0.195271
v 0.081093 -0.050000 0.194583
v 0.089219 -0.050000 0.193438
v 0.097407 -0.050000 0.191833
v 0.105666 -0.050000 0.189771
v 0.114000 -0.050000 0.187250
v 0.122418 -0.050000 0.184271
v 0.130926 -0.050000 0.180833
v 0.139531 -0.050000 0.176938
v 0.148241 -0.050000 0.172583
v 0.157061 -0.050000 0.167771
v 0.166000 -0.050000 0.162500
v 0.166000 -0.050000 0.245500
v 0.157917 -0.050000 0.249661
v 0.149250 -0.050000 0.253625
v 0.140125 -0.050000 0.257359
v 0.130667 -0.050000 0.260833
v 0.121000 -0.050000 0.264016
v 0.111250 -0.050000 0.266875
v 0.101542 -0.050000 0.269380
v 0.092000 -0.050000 0.271500
v 0.082750 -0.050000 0.273203
v 0.073917 -0.050000 0.274458
v 0.065625 -0.050000 0.275234
v 0.058000 -0.050000 0.275500
v 0.034751 -0.050000 0.274273
v 0.013505 -0.050000 0.270681
v -0.005734 -0.050000 0.264859
v -0.022963 -0.050000 0.256944
v -0.038178 -0.050000 0.247071
v -0.051375 -0.050000 0.235375
v -0.062552 -0.050000 0.221991
v -0.071704 -0.050000 0.207056
v -0.078828 -0.050000 0.190703
v -0.083921 -0.050000 0.173069
v -0.086980 -0.050000 0.154290
v -0.088000 -0.050000 0.134500
v -0.088000 -0.050000 -0.102500
v -0.166000 -0.050000 -0.102500
v -0.166000 -0.050000 -0.112500
v 0.001000 -0.050000 -0.275500
v 0.001000 -0.050000 -0.182500
v 0.143000 -0.050000 -0.182500
v 0.143000 0.050000 -0.182500
v 0.143000 -0.050000 -0.102500
v 0.143000 0.050000 -0.102500
v 0.001000 -0.050000 -0.102500
v 0.001000 0.050000 -0.102500
v 0.001000 -0.050000 0.127500
v 0.001000 0.050000 0.127500
v 0.001763 -0.050000 0.139972
v 0.001763 0.050000 0.139972
v 0.003935 -0.050000 0.150940
v 0.003935 0.050000 0.150940
v 0.007344 -0.050000 0.160484
v 0.007344 0.050000 0.160484
v 0.011815 -0.050000 0.168685
v 0.011815 0.050000 0.168685
v 0.017175 -0.050000 0.175622
v 0.017175 0.050000 0.175622
v 0.023250 -0.050000 0.181375
v 0.023250 0.050000 0.181375
v 0.029867 -0.050000 0.186024
v 0.029867 0.050000 0.186024
v 0.036852 -0.050000 0.189648
v 0.036852 0.050000 0.189648
v 0.044031 -0.050000 0.192328
v 0.044031 0.050000 0.192328
v 0.051231 -0.050000 0.194144
v 0.051231 0.050000 0.194144
v 0.058279 -0.050000 0.195174
v 0.058279 0.050000 0.195174
v 0.065000 -0.050000 0.195500
v 0.065000 0.050000 0.195500
v 0.073022 -0.050000 0.195271
v 0.073022 0.050000 0.195271
v 0.081093 -0.050000 0.194583
v 0.081093 0.050000 0.194583
v 0.089219 -0.050000 0.193438
v 0.089219 0.050000 0.193438
v 0.097407 -0.050000 0.191833
v 0.097407 0.050000 0.191833
v 0.105666 -0.050000 0.189771
v 0.105666 0.050000 0.189771
v 0.114000 -0.050000 0.187250
v 0.114000 0.050000 0.187250
v 0.122418 -0.050000 0.184271
v 0.122418 0.050000 0.184271
v 0.130926 -0.050000 0.180833
v 0.130926 0.050000 0.180833
v 0.139531 -0.050000 0.176938
v 0.139531 0.050000 0.176938
v 0.148241 -0.050000 0.172583
v 0.148241 0.050000 0.172583
v 0.157061 -0.050000 0.167771
v 0.157061 0.050000 0.167771
v 0.166000 -0.050000 0.162500
v 0.166000 0.050000 0.162500
v 0.166000 -0.050000 0.245500
v 0.166000 0.050000 0.245500
v 0.157917 -0.050000 0.249661
v 0.157917 0.050000 0.249661
v 0.149250 -0.050000 0.253625
v 0.149250 0.050000 0.253625
v 0.140125 -0.050000 0.257359
v 0.140125 0.050000 0.257359
v 0.130667 -0.050000 0.260833
v 0.130667 0.050000 0.260833
v 0.121000 -0.050000 0.264016
v 0.121000 0.050000 0.264016
v 0.111250 -0.050000 0.266875
v 0.111250 0.050000 0.266875
v 0.101542 -0.050000 0.269380
v 0.101542 0.050000 0.269380
v 0.092000 -0.050000 0.271500
v 0.092000 0.050000 0.271500
v 0.082750 -0.050000 0.273203
v 0.082750 0.050000 0.273203
v 0.073917 -0.050000 0.274458
v 0.073917 0.050000 0.274458
v 0.065625 -0.050000 0.275234
v 0.065625 0.050000 0.275234
v 0.058000 -0.050000 0.275500
v 0.058000 0.050000 0.275500
v 0.034751 -0.050000 0.274273
v 0.034751 0.050000 0.274273
v 0.013505 -0.050000 0.270681
v 0.013505 0.050000 0.270681
v -0.005734 -0.050000 0.264859
v -0.005734 0.050000 0.264859
v -0.022963 -0.050000 0.256944
v -0.022963 0.050000 0.256944
v -0.038178 -0.050000 0.247071
v -0.038178 0.050000 0.247071
v -0.051375 -0.050000 0.235375
v -0.051375 0.050000 0.235375
v -0.062552 -0.050000 0.221991
v -0.062552 0.050000 0.221991
v -0.071704 -0.050000 0.207056
v -0.071704 0.050000 0.207056
v -0.078828 -0.050000 0.190703
v -0.078828 0.050000 0.190703
v -0.083921 -0.050000 0.173069
v -0.083921 0.050000 0.173069
v -0.086980 -0.050000 0.154290
v -0.086980 0.050000 0.154290
v -0.088000 -0.050000 0.134500
v -0.088000 0.050000 0.134500
v -0.088000 -0.050000 -0.102500
v -0.088000 0.050000 -0.102500
v -0.166000 -0.050000 -0.102500
v -0.166000 0.050000 -0.102500
v -0.166000 -0.050000 -0.112500
v -0.166000 0.050000 -0.112500
v 0.001000 -0.050000 -0.275500
v 0.001000 0.050000 -0.275500
v 0.001000 -0.050000 -0.182500
v 0.001000 0.050000 -0.182500
vn -0.0000 1.0000 -0.0000
vn -0.0000 -1.0000 -0.0000
vn 0.7071 -0.0000 -0.7071
vn 0.7071 -0.0000 0.7071
vn 0.9995 -0.0000 -0.0305
vn 0.9918 -0.0000 -0.1280
vn 0.9640 -0.0000 -0.2660
vn 0.9126 -0.0000 -0.4087
vn 0.8373 -0.0000 -0.5468
vn 0.7417 -0.0000 -0.6708
vn 0.6329 -0.0000 -0.7742
vn 0.5189 -0.0000 -0.8548
vn 0.4059 -0.0000 -0.9139
vn 0.2975 -0.0000 -0.9547
vn 0.1948 -0.0000 -0.9808
vn 0.0967 -0.0000 -0.9953
vn 0.0099 -0.0000 -1.0000
vn -0.0567 -0.0000 -0.9984
vn -0.1123 -0.0000 -0.9937
vn -0.1660 -0.0000 -0.9861
vn -0.2174 -0.0000 -0.9761
vn -0.2660 -0.0000 -0.9640
vn -0.3117 -0.0000 -0.9502
vn -0.3542 -0.0000 -0.9352
vn -0.3936 -0.0000 -0.9193
vn -0.4299 -0.0000 -0.9029
vn -0.4631 -0.0000 -0.8863
vn -0.4935 -0.0000 -0.8697
vn 0.4960 -0.0000 -0.8683
vn 0.8537 -0.0000 0.5207
vn 0.4369 -0.0000 0.8995
vn 0.3974 -0.0000 0.9176
vn 0.3618 -0.0000 0.9322
vn 0.3288 -0.0000 0.9444
vn 0.2971 -0.0000 0.9548
vn 0.2657 -0.0000 0.9641
vn 0.2334 -0.0000 0.9724
vn 0.1990 -0.0000 0.9800
vn 0.1609 -0.0000 0.9870
vn 0.1170 -0.0000 0.9931
vn 0.0640 -0.0000 0.9979
vn -0.0090 -0.0000 1.0000
vn -0.1099 -0.0000 0.9939
vn -0.2286 -0.0000 0.9735
vn -0.3544 -0.0000 0.9351
vn -0.4822 -0.0000 0.8761
vn -0.6055 -0.0000 0.7958
vn -0.7174 -0.0000 0.6966
vn -0.8123 -0.0000 0.5833
vn -0.8868 -0.0000 0.4621
vn -0.9407 -0.0000 0.3392
vn -0.9756 -0.0000 0.2195
vn -0.9943 -0.0000 0.1063
vn -0.9997 -0.0000 0.0258
vn -0.7071 -0.0000 0.7071
vn -0.9215 -0.0000 -0.3883
vn 0.3883 -0.0000 -0.9215
vt 0.964912 0.000000
vt 1.000000 0.000000
vt 0.982456 0.000000
vt 0.000000 0.000000
vt 0.017544 0.000000
vt 0.947368 0.000000
vt 0.929825 0.000000
vt 0.912281 0.000000
vt 0.035088 0.000000
vt 0.052632 0.000000
vt 0.070175 0.000000
vt 0.894737 0.000000
vt 0.087719 0.000000
vt 0.105263 0.000000
vt 0.877193 0.000000
vt 0.122807 0.000000
vt 0.456140 0.000000
vt 0.491228 0.000000
vt 0.473684 0.000000
vt 0.438596 0.000000
vt 0.140351 0.000000
vt 0.421053 0.000000
vt 0.859649 0.000000
vt 0.157895 0.000000
vt 0.403509 0.000000
vt 0.385965 0.000000
vt 0.175439 0.000000
vt 0.368421 0.000000
vt 0.192982 0.000000
vt 0.350877 0.000000
vt 0.210526 0.000000
vt 0.333333 0.000000
vt 0.842105 0.000000
vt 0.315789 0.000000
vt 0.228070 0.000000
vt 0.298246 0.000000
vt 0.245614 0.000000
vt 0.280702 0.000000
vt 0.263158 0.000000
vt 0.824561 0.000000
vt 0.807018 0.000000
vt 0.789474 0.000000
vt 0.508772 0.000000
vt 0.771930 0.000000
vt 0.526316 0.000000
vt 0.543860 0.000000
vt 0.754386 0.000000
vt 0.561404 0.000000
vt 0.578947 0.000000
vt 0.596491 0.000000
vt 0.736842 0.000000
vt 0.614035 0.000000
vt 0.631579 0.000000
vt 0.719298 0.000000
vt 0.649123 0.000000
vt 0.666667 0.000000
vt 0.701754 0.000000
vt 0.684211 0.000000
vt 0.000000 1.000000
vt 0.017241 1.000000
vt 0.017241 0.000000
vt 0.034483 1.000000
vt 0.034483 0.000000
vt 0.051724 1.000000
vt 0.051724 0.000000
vt 0.068966 1.000000
vt 0.068966 0.000000
vt 0.086207 1.000000
vt 0.086207 0.000000
vt 0.103448 1.000000
vt 0.103448 0.000000
vt 0.120690 1.000000
vt 0.120690 0.000000
vt 0.137931 1.000000
vt 0.137931 0.000000
vt 0.155172 1.000000
vt 0.155172 0.000000
vt 0.172414 1.000000
vt 0.172414 0.000000
vt 0.189655 1.000000
vt 0.189655 0.000000
vt 0.206897 1.000000
vt 0.206897 0.000000
vt 0.224138 1.000000
vt 0.224138 0.000000
vt 0.241379 1.000000
vt 0.241379 0.000000
vt 0.258621 1.000000
vt 0.258621 0.000000
vt 0.275862 1.000000
vt 0.275862 0.000000
vt 0.293103 1.000000
vt 0.293103 0.000000
vt 0.310345 1.000000
vt 0.310345 0.000000
vt 0.327586 1.000000
vt 0.327586 0.000000
vt 0.344828 1.000000
vt 0.344828 0.000000
vt 0.362069 1.000000
vt 0.362069 0.000000
vt 0.379310 1.000000
vt 0.379310 0.000000
vt 0.396552 1.000000
vt 0.396552 0.000000
vt 0.413793 1.000000
vt 0.413793 0.000000
vt 0.431034 1.000000
vt 0.431034 0.000000
vt 0.448276 1.000000
vt 0.448276 0.000000
vt 0.465517 1.000000
vt 0.465517 0.000000
vt 0.482759 1.000000
vt 0.482759 0.000000
vt 0.500000 1.000000
vt 0.500000 0.000000
vt 0.517241 1.000000
vt 0.517241 0.000000
vt 0.534483 1.000000
vt 0.534483 0.000000
vt 0.551724 1.000000
vt 0.551724 0.000000
vt 0.568965 1.000000
vt 0.568965 0.000000
vt 0.586207 1.000000
vt 0.586207 0.000000
vt 0.603448 1.000000
vt 0.603448 0.000000
vt 0.620690 1.000000
vt 0.620690 0.000000
vt 0.637931 1.000000
vt 0.637931 0.000000
vt 0.655172 1.000000
vt 0.655172 0.000000
vt 0.672414 1.000000
vt 0.672414 0.000000
vt 0.689655 1.000000
vt 0.689655 0.000000
vt 0.706897 1.000000
vt 0.706897 0.000000
vt 0.724138 1.000000
vt 0.724138 0.000000
vt 0.741379 1.000000
vt 0.741379 0.000000
vt 0.758621 1.000000
vt 0.758621 0.000000
vt 0.775862 1.000000
vt 0.775862 0.000000
vt 0.793103 1.000000
vt 0.793103 0.000000
vt 0.810345 1.000000
vt 0.810345 0.000000
vt 0.827586 1.000000
vt 0.827586 0.000000
vt 0.844828 1.000000
vt 0.844828 0.000000
vt 0.862069 1.000000
vt 0.862069 0.000000
vt 0.879310 1.000000
vt 0.879310 0.000000
vt 0.896552 1.000000
vt 0.896552 0.000000
vt 0.913793 1.000000
vt 0.913793 0.000000
vt 0.931035 1.000000
vt 0.931035 0.000000
vt 0.948276 1.000000
vt 0.948276 0.000000
vt 0.965517 1.000000
vt 0.965517 0.000000
vt 0.982759 1.000000
vt 0.982759 0.000000
vt 1.000000 1.000000
s 0
f 56/1/1 58/2/1 57/3/1
f 56/1/1 1/4/1 58/2/1
f 56/1/1 2/5/1 1/4/1
f 55/6/1 2/5/1 56/1/1
f 54/7/1 2/5/1 55/6/1
f 53/8/1 3/9/1 54/7/1
f 3/9/1 2/5/1 54/7/1
f 53/8/1 4/10/1 3/9/1
f 53/8/1 5/11/1 4/10/1
f 52/12/1 5/11/1 53/8/1
f 52/12/1 6/13/1 5/11/1
f 52/12/1 7/14/1 6/13/1
f 51/15/1 7/14/1 52/12/1
f 51/15/1 8/16/1 7/14/1
f 27/17/1 29/18/1 28/19/1
f 26/20/1 29/18/1 27/17/1
f 51/15/1 9/21/1 8/16/1
f 25/22/1 29/18/1 26/20/1
f 50/23/1 9/21/1 51/15/1
f 50/23/1 10/24/1 9/21/1
f 24/25/1 29/18/1 25/22/1
f 23/26/1 29/18/1 24/25/1
f 50/23/1 11/27/1 10/24/1
f 22/28/1 29/18/1 23/26/1
f 50/23/1 12/29/1 11/27/1
f 21/30/1 29/18/1 22/28/1
f 50/23/1 13/31/1 12/29/1
f 20/32/1 29/18/1 21/30/1
f 49/33/1 13/31/1 50/23/1
f 19/34/1 29/18/1 20/32/1
f 49/33/1 14/35/1 13/31/1
f 18/36/1 29/18/1 19/34/1
f 49/33/1 15/37/1 14/35/1
f 17/38/1 29/18/1 18/36/1
f 49/33/1 16/39/1 15/37/1
f 16/39/1 29/18/1 17/38/1
f 49/33/1 29/18/1 16/39/1
f 48/40/1 29/18/1 49/33/1
f 47/41/1 29/18/1 48/40/1
f 46/42/1 29/18/1 47/41/1
f 46/42/1 30/43/1 29/18/1
f 45/44/1 30/43/1 46/42/1
f 45/44/1 31/45/1 30/43/1
f 45/44/1 32/46/1 31/45/1
f 44/47/1 32/46/1 45/44/1
f 44/47/1 33/48/1 32/46/1
f 44/47/1 34/49/1 33/48/1
f 44/47/1 35/50/1 34/49/1
f 43/51/1 35/50/1 44/47/1
f 43/51/1 36/52/1 35/50/1
f 43/51/1 37/53/1 36/52/1
f 42/54/1 37/53/1 43/51/1
f 42/54/1 38/55/1 37/53/1
f 42/54/1 39/56/1 38/55/1
f 41/57/1 39/56/1 42/54/1
f 41/57/1 40/58/1 39/56/1
f 114/1/2 115/3/2 116/2/2
f 114/1/2 116/2/2 59/4/2
f 114/1/2 59/4/2 60/5/2
f 113/6/2 114/1/2 60/5/2
f 112/7/2 113/6/2 60/5/2
f 111/8/2 112/7/2 61/9/2
f 61/9/1 112/7/1 60/5/1
f 111/8/2 61/9/2 62/10/2
f 111/8/2 62/10/2 63/11/2
f 110/12/2 111/8/2 63/11/2
f 110/12/2 63/11/2 64/13/2
f 110/12/2 64/13/2 65/14/2
f 109/15/2 110/12/2 65/14/2
f 109/15/2 65/14/2 66/16/2
f 85/17/2 86/19/2 87/18/2
f 84/20/2 85/17/2 87/18/2
f 109/15/2 66/16/2 67/21/2
f 83/22/2 84/20/2 87/18/2
f 108/23/2 109/15/2 67/21/2
f 108/23/2 67/21/2 68/24/2
f 82/25/2 83/22/2 87/18/2
f 81/26/2 82/25/2 87/18/2
f 108/23/2 68/24/2 69/27/2
f 80/28/2 81/26/2 87/18/2
f 108/23/2 69/27/2 70/29/2
f 79/30/2 80/28/2 87/18/2
f 108/23/2 70/29/2 71/31/2
f 78/32/2 79/30/2 87/18/2
f 107/33/2 108/23/2 71/31/2
f 77/34/2 78/32/2 87/18/2
f 107/33/2 71/31/2 72/35/2
f 76/36/2 77/34/2 87/18/2
f 107/33/2 72/35/2 73/37/2
f 75/38/2 76/36/2 87/18/2
f 107/33/2 73/37/2 74/39/2
f 74/39/2 75/38/2 87/18/2
f 107/33/2 74/39/2 87/18/2
f 106/40/2 107/33/2 87/18/2
f 105/41/2 106/40/2 87/18/2
f 104/42/2 105/41/2 87/18/2
f 104/42/2 87/18/2 88/43/2
f 103/44/2 104/42/2 88/43/2
f 103/44/2 88/43/2 89/45/2
f 103/44/2 89/45/2 90/46/2
f 102/47/2 103/44/2 90/46/2
f 102/47/2 90/46/2 91/48/2
f 102/47/2 91/48/2 92/49/2
f 102/47/2 92/49/2 93/50/2
f 101/51/2 102/47/2 93/50/2
f 101/51/2 93/50/2 94/52/2
f 101/51/2 94/52/2 95/53/2
f 100/54/2 101/51/2 95/53/2
f 100/54/2 95/53/2 96/55/2
f 100/54/2 96/55/2 97/56/2
f 99/57/2 100/54/2 97/56/2
f 99/57/2 97/56/2 98/58/2
s 1
f 118/59/3 120/60/4 119/61/4 117/4/3
f 120/60/4 122/62/4 121/63/4 119/61/4
f 122/62/4 124/64/5 123/65/5 121/63/4
f 124/64/5 126/66/6 125/67/6 123/65/5
f 126/66/6 128/68/7 127/69/7 125/67/6
f 128/68/7 130/70/8 129/71/8 127/69/7
f 130/70/8 132/72/9 131/73/9 129/71/8
f 132/72/9 134/74/10 133/75/10 131/73/9
f 134/74/10 136/76/11 135/77/11 133/75/10
f 136/76/11 138/78/12 137/79/12 135/77/11
f 138/78/12 140/80/13 139/81/13 137/79/12
f 140/80/13 142/82/14 141/83/14 139/81/13
f 142/82/14 144/84/15 143/85/15 141/83/14
f 144/84/15 146/86/16 145/87/16 143/85/15
f 146/86/16 148/88/17 147/89/17 145/87/16
f 148/88/17 150/90/18 149/91/18 147/89/17
f 150/90/18 152/92/19 151/93/19 149/91/18
f 152/92/19 154/94/20 153/95/20 151/93/19
f 154/94/20 156/96/21 155/97/21 153/95/20
f 156/96/21 158/98/22 157/99/22 155/97/21
f 158/98/22 160/100/23 159/101/23 157/99/22
f 160/100/23 162/102/24 161/103/24 159/101/23
f 162/102/24 164/104/25 163/105/25 161/103/24
f 164/104/25 166/106/26 165/107/26 163/105/25
f 166/106/26 168/108/27 167/109/27 165/107/26
f 168/108/27 170/110/28 169/111/28 167/109/27
f 170/110/28 172/112/29 171/113/29 169/111/28
f 172/112/29 174/114/30 173/115/30 171/113/29
f 174/114/30 176/116/31 175/117/31 173/115/30
f 176/116/31 178/118/32 177/119/32 175/117/31
f 178/118/32 180/120/33 179/121/33 177/119/32
f 180/120/33 182/122/34 181/123/34 179/121/33
f 182/122/34 184/124/35 183/125/35 181/123/34
f 184/124/35 186/126/36 185/127/36 183/125/35
f 186/126/36 188/128/37 187/129/37 185/127/36
f 188/128/37 190/130/38 189/131/38 187/129/37
f 190/130/38 192/132/39 191/133/39 189/131/38
f 192/132/39 194/134/40 193/135/40 191/133/39
f 194/134/40 196/136/41 195/137/41 193/135/40
f 196/136/41 198/138/42 197/139/42 195/137/41
f 198/138/42 200/140/43 199/141/43 197/139/42
f 200/140/43 202/142/44 201/143/44 199/141/43
f 202/142/44 204/144/45 203/145/45 201/143/44
f 204/144/45 206/146/46 205/147/46 203/145/45
f 206/146/46 208/148/47 207/149/47 205/147/46
f 208/148/47 210/150/48 209/151/48 207/149/47
f 210/150/48 212/152/49 211/153/49 209/151/48
f 212/152/49 214/154/50 213/155/50 211/153/49
f 214/154/50 216/156/51 215/157/51 213/155/50
f 216/156/51 218/158/52 217/159/52 215/157/51
f 218/158/52 220/160/53 219/161/53 217/159/52
f 220/160/53 222/162/54 221/163/54 219/161/53
f 222/162/54 224/164/55 223/165/55 221/163/54
f 224/164/55 226/166/55 225/167/55 223/165/55
f 226/166/55 228/168/56 227/169/56 225/167/55
f 228/168/56 230/170/57 229/171/57 227/169/56
f 230/170/57 232/172/3 231/173/3 229/171/57
f 232/172/3 118/174/3 117/2/3 231/173/3
