<svg xmlns="http://www.w3.org/2000/svg" width="64" height="64" viewBox="0 0 64 64" role="img" aria-label="OptiFlowX mark">
  <defs>
    <linearGradient id="g" x1="0" x2="1" y1="0" y2="1">
      <stop offset="0%" stop-color="#51627a" />
      <stop offset="100%" stop-color="#6b7088" />
    </linearGradient>
  </defs>
  <rect width="64" height="64" rx="12" fill="url(#g)" />
  <g transform="translate(12,12)">
    <path d="M20 4c-8 0-12 6-12 12s4 12 12 12 12-6 12-12-4-12-12-12zm0 20c-5.5 0-8.5-3.7-8.5-8.5S14.5 7 20 7s8.5 3.7 8.5 8.5S25.5 24 20 24z" fill="#fff" opacity="0.95"/>
    <path d="M22 10c0 1.1-.9 2-2 2s-2-.9-2-2 .9-2 2-2 2 .9 2 2z" fill="#fff" opacity="0.95"/>
  </g>
</svg>
