<?xml version="1.0" encoding="UTF-8"?><svg xmlns="http://www.w3.org/2000/svg" xmlns:xlink="http://www.w3.org/1999/xlink" viewBox="0 0 1226 499"><defs><style>.cls-1{fill:none;stroke:#231f20;stroke-miterlimit:10;}.cls-2{fill:#fff;}.cls-3{font-size:18px;}.cls-3,.cls-4{font-family:SansSerifCollection, 'Sans Serif Collection';}.cls-4,.cls-5{font-size:12px;}.cls-6{letter-spacing:0em;}.cls-7{letter-spacing:0em;}.cls-8{letter-spacing:0em;}.cls-9{letter-spacing:-.02em;}.cls-5{font-family:MSReferenceSansSerif, 'MS Reference Sans Serif';}</style></defs><g id="Layer_1"><image width="640" height="620" transform="translate(472.5 24) scale(.72)" xlink:href="../images/hero_image1.png"/><image width="341" height="600" transform="translate(957.96 21.84) scale(.72)" xlink:href="../images/hero_image2.png"/><image width="609" height="594" transform="translate(34.02 23.3) scale(.72)" xlink:href="../images/hero_image3.png"/></g><g id="anot"><circle class="cls-1" cx="254.25" cy="242.25" r="189.25"/><path class="cls-1" d="m977,432.5c108.8,0,196-88.42,196-196.25s-87.2-194.25-196-194.25v390.5Z"/><path class="cls-1" d="m911,434.5c-10-214.5-164-381.5-389-387.5v389h390"/></g><g id="mask"><rect class="cls-2" x="223" y="436" width="72.82" height="25"/><rect class="cls-2" x="505.47" y="439.38" width="406.53" height="31.02"/><rect class="cls-2" x="292.15" y="214.34" width="406.53" height="45.83" transform="translate(258.16 732.66) rotate(-90)"/><rect class="cls-2" x="223" y="22.5" width="67.66" height="25"/><rect class="cls-2" x="957.96" y="10.8" width="37.7" height="25"/><rect class="cls-2" x="502.82" y="17.37" width="29.18" height="25"/><rect class="cls-2" x="300.09" y="207.41" width="29.18" height="17.84"/><rect class="cls-2" x="344.09" y="187.35" width="29.18" height="17.84"/><rect class="cls-2" x="385.82" y="172.85" width="29.18" height="17.84"/><rect class="cls-2" x="629.82" y="34.5" width="29.18" height="25"/><rect class="cls-2" x="749.82" y="94" width="29.18" height="25"/><rect class="cls-2" x="882.82" y="23.3" width="75.14" height="25"/><rect class="cls-2" x="836.82" y="181.77" width="29.18" height="25"/><rect class="cls-2" x="897.41" y="290.94" width="29.18" height="25"/><rect class="cls-2" x="912" y="420" width="29.18" height="25"/><rect class="cls-2" x="1076.53" y="40.5" width="37.7" height="25"/><rect class="cls-2" x="1152.51" y="112.48" width="37.7" height="25"/><rect class="cls-2" x="1177.51" y="229" width="37.7" height="25"/><rect class="cls-2" x="1152.51" y="332" width="37.7" height="25"/><rect class="cls-2" x="1072" y="409.74" width="37.7" height="25"/><rect class="cls-2" x="12.83" y="222.62" width="72.82" height="30.44" transform="translate(287.08 188.6) rotate(90)"/><rect class="cls-2" x="423.36" y="230.91" width="72.82" height="24.55" transform="translate(702.95 -216.59) rotate(90)"/><rect class="cls-2" x="412" y="147" width="47.77" height="26"/><rect class="cls-2" x="425" y="21.84" width="47.04" height="91.16"/><rect class="cls-2" x="239.8" y="223" width="50.86" height="24.2"/></g><g id="values"><text class="cls-3" transform="translate(238.76 42)"><tspan x="0" y="0">MAE</tspan></text><text class="cls-3" transform="translate(56.2 257.55) rotate(-90)"><tspan x="0" y="0">RMSE</tspan></text><text class="cls-3" transform="translate(230.6 451.68)"><tspan x="0" y="0">MedAE</tspan></text><text class="cls-3" transform="translate(454.76 247.2)"><tspan x="0" y="0">R2</tspan></text><text class="cls-4" transform="translate(420.03 167.06)"><tspan x="0" y="0">Best</tspan></text><text class="cls-4" transform="translate(239.8 242.25)"><tspan class="cls-9" x="0" y="0">W</tspan><tspan class="cls-6" x="10.92" y="0">orst</tspan></text><text class="cls-3" transform="translate(518.02 454.23)"><tspan x="0" y="0">0</tspan></text><text class="cls-3" transform="translate(882.04 454.04)"><tspan x="0" y="0">1</tspan></text><text class="cls-3" transform="translate(919.41 438.9)"><tspan x="0" y="0">0</tspan></text><text class="cls-3" transform="translate(516 35)"><tspan x="0" y="0">1</tspan></text><text class="cls-3" transform="translate(1075 427)"><tspan x="0" y="0">H6</tspan></text><text class="cls-3" transform="translate(1151.59 348.8)"><tspan x="0" y="0">H5</tspan></text><text class="cls-3" transform="translate(1180.61 241.5)"><tspan x="0" y="0">H4</tspan></text><text class="cls-3" transform="translate(1152.96 137.11)"><tspan x="0" y="0">H3</tspan></text><text class="cls-3" transform="translate(1075 60.31)"><tspan x="0" y="0">H2</tspan></text><text class="cls-3" transform="translate(971.61 29.87)"><tspan x="0" y="0">H1</tspan></text></g><g id="labels"><text class="cls-5" transform="translate(664.16 466.33)"><tspan x="0" y="0">Predicted Probabili</tspan><tspan class="cls-8" x="111.78" y="0">t</tspan><tspan x="116.45" y="0">y</tspan></text><text class="cls-5" transform="translate(502.82 290.95) rotate(-90)"><tspan x="0" y="0">Obser</tspan><tspan class="cls-7" x="35.44" y="0">v</tspan><tspan x="42.44" y="0">ed Frequency</tspan></text></g></svg>