<svg xmlns="http://www.w3.org/2000/svg" xmlns:xlink="http://www.w3.org/1999/xlink" contentStyleType="text/css" data-diagram-type="ACTIVITY" height="916px" preserveAspectRatio="none" style="width:958px;height:916px;background:#FFFFFF;" version="1.1" viewBox="0 0 958 916" width="958px" zoomAndPan="magnify"><defs/><g><line style="stroke:none;stroke-width:1.5;" x1="355.9106" x2="836.2178" y1="10" y2="10"/><line style="stroke:none;stroke-width:1.5;" x1="232.105" x2="605.0156" y1="31.5" y2="31.5"/><rect fill="#FFC0CB" height="33.9688" rx="12.5" ry="12.5" style="stroke:#181818;stroke-width:0.5;" width="122.0879" x="171.061" y="53"/><text fill="#000000" font-family="sans-serif" font-size="12" lengthAdjust="spacing" textLength="102.0879" x="181.061" y="74.1387">Select a material</text><line style="stroke:#181818;stroke-width:1.5;" x1="106.5486" x2="341.6536" y1="106.9688" y2="106.9688"/><rect fill="#F5F5DC" height="147.2344" rx="5" ry="5" style="stroke:#1E90FF;stroke-width:1.5;" width="191.0972" x="11" y="116.9688"/><path d="M110.708,116.9688 L110.708,126.2656 L100.708,136.2656 L11,136.2656" fill="none" style="stroke:#1E90FF;stroke-width:1.5;"/><text fill="#1E90FF" font-family="sans-serif" font-size="14" lengthAdjust="spacing" textLength="89.708" x="14" y="130.9639">mammos-dft</text><rect fill="#FFFF00" height="33.9688" rx="12.5" ry="12.5" style="stroke:#181818;stroke-width:0.5;" width="167.7383" x="22.6794" y="153.2656"/><text fill="#000000" font-family="sans-serif" font-size="12" lengthAdjust="spacing" textLength="147.7383" x="32.6794" y="174.4043">Load from DFT database</text><rect fill="#228B22" height="36.9688" rx="12.5" ry="12.5" style="stroke:#181818;stroke-width:0.5;" width="171.0972" x="21" y="207.2344"/><text fill="#FFFFFF" font-family="sans-serif" font-size="12" lengthAdjust="spacing" textLength="107.3848" x="31" y="228.373">Zero temperature</text><text fill="#FFFFFF" font-family="sans-serif" font-size="12" font-style="italic" lengthAdjust="spacing" textLength="10.3535" x="142.1992" y="228.373">M</text><text fill="#FFFFFF" font-family="sans-serif" font-size="9" lengthAdjust="spacing" textLength="4.689" x="152.5527" y="232.0806">s</text><text fill="#FFFFFF" font-family="sans-serif" font-size="12" lengthAdjust="spacing" textLength="9.3574" x="161.0562" y="228.373">&amp;</text><text fill="#FFFFFF" font-family="sans-serif" font-size="12" font-style="italic" lengthAdjust="spacing" textLength="7.8691" x="174.228" y="228.373">K</text><rect fill="#F5F5DC" height="147.2344" rx="5" ry="5" style="stroke:#1E90FF;stroke-width:1.5;" width="223.1128" x="230.0972" y="116.9688"/><path d="M406.5864,116.9688 L406.5864,126.2656 L396.5864,136.2656 L230.0972,136.2656" fill="none" style="stroke:#1E90FF;stroke-width:1.5;"/><text fill="#1E90FF" font-family="sans-serif" font-size="14" lengthAdjust="spacing" textLength="166.4893" x="233.0972" y="130.9639">mammos-spindynamics</text><rect fill="#FFFF00" height="33.9688" rx="12.5" ry="12.5" style="stroke:#181818;stroke-width:0.5;" width="161.123" x="261.092" y="153.2656"/><text fill="#000000" font-family="sans-serif" font-size="12" lengthAdjust="spacing" textLength="141.123" x="271.092" y="174.4043">Load from SD database</text><rect fill="#228B22" height="36.9688" rx="12.5" ry="12.5" style="stroke:#181818;stroke-width:0.5;" width="203.1128" x="240.0972" y="207.2344"/><text fill="#FFFFFF" font-family="sans-serif" font-size="12" lengthAdjust="spacing" textLength="147.5625" x="250.0972" y="228.373">Temperature&#8208;dependent</text><text fill="#FFFFFF" font-family="sans-serif" font-size="12" font-style="italic" lengthAdjust="spacing" textLength="10.3535" x="401.4741" y="228.373">M</text><text fill="#FFFFFF" font-family="sans-serif" font-size="9" lengthAdjust="spacing" textLength="4.689" x="411.8276" y="232.0806">s</text><text fill="#FFFFFF" font-family="sans-serif" font-size="12" lengthAdjust="spacing" textLength="4.6816" x="416.5166" y="228.373">(</text><text fill="#FFFFFF" font-family="sans-serif" font-size="12" font-style="italic" lengthAdjust="spacing" textLength="7.3301" x="421.1982" y="228.373">T</text><text fill="#FFFFFF" font-family="sans-serif" font-size="12" lengthAdjust="spacing" textLength="4.6816" x="428.5283" y="228.373">)</text><line style="stroke:#181818;stroke-width:1.5;" x1="106.5486" x2="341.6536" y1="284.2031" y2="284.2031"/><rect fill="#F5F5DC" height="139.2344" rx="5" ry="5" style="stroke:#1E90FF;stroke-width:1.5;" width="287.8354" x="88.1873" y="319.6875"/><path d="M225.2742,319.6875 L225.2742,328.9844 L215.2742,338.9844 L88.1873,338.9844" fill="none" style="stroke:#1E90FF;stroke-width:1.5;"/><text fill="#1E90FF" font-family="sans-serif" font-size="14" lengthAdjust="spacing" textLength="127.0869" x="91.1873" y="333.6826">mammos-analysis</text><rect fill="#ADD8E6" height="33.9688" rx="12.5" ry="12.5" style="stroke:#181818;stroke-width:0.5;" width="131.8145" x="166.1978" y="355.9844"/><text fill="#000000" font-family="sans-serif" font-size="12" lengthAdjust="spacing" textLength="111.8145" x="176.1978" y="377.123">Use Kuzmin model</text><rect fill="#228B22" height="36.9688" rx="12.5" ry="12.5" style="stroke:#181818;stroke-width:0.5;" width="267.8354" x="98.1873" y="409.9531"/><text fill="#FFFFFF" font-family="sans-serif" font-size="12" lengthAdjust="spacing" textLength="147.5625" x="108.1873" y="431.0918">Temperature&#8208;dependent</text><text fill="#FFFFFF" font-family="sans-serif" font-size="12" font-style="italic" lengthAdjust="spacing" textLength="10.3535" x="259.5642" y="431.0918">M</text><text fill="#FFFFFF" font-family="sans-serif" font-size="9" lengthAdjust="spacing" textLength="4.689" x="269.9177" y="434.7993">s</text><text fill="#FFFFFF" font-family="sans-serif" font-size="12" lengthAdjust="spacing" textLength="4.6816" x="274.6067" y="431.0918">(</text><text fill="#FFFFFF" font-family="sans-serif" font-size="12" font-style="italic" lengthAdjust="spacing" textLength="7.3301" x="279.2883" y="431.0918">T</text><text fill="#FFFFFF" font-family="sans-serif" font-size="12" lengthAdjust="spacing" textLength="8.4961" x="286.6184" y="431.0918">),</text><text fill="#FFFFFF" font-family="sans-serif" font-size="12" font-style="italic" lengthAdjust="spacing" textLength="7.8691" x="298.929" y="431.0918">K</text><text fill="#FFFFFF" font-family="sans-serif" font-size="12" lengthAdjust="spacing" textLength="4.6816" x="306.7981" y="431.0918">(</text><text fill="#FFFFFF" font-family="sans-serif" font-size="12" font-style="italic" lengthAdjust="spacing" textLength="7.3301" x="311.4797" y="431.0918">T</text><text fill="#FFFFFF" font-family="sans-serif" font-size="12" lengthAdjust="spacing" textLength="8.4961" x="318.8098" y="431.0918">),</text><text fill="#FFFFFF" font-family="sans-serif" font-size="12" font-style="italic" lengthAdjust="spacing" textLength="8.209" x="331.1204" y="431.0918">A</text><text fill="#FFFFFF" font-family="sans-serif" font-size="12" lengthAdjust="spacing" textLength="4.6816" x="339.3293" y="431.0918">(</text><text fill="#FFFFFF" font-family="sans-serif" font-size="12" font-style="italic" lengthAdjust="spacing" textLength="7.3301" x="344.011" y="431.0918">T</text><text fill="#FFFFFF" font-family="sans-serif" font-size="12" lengthAdjust="spacing" textLength="4.6816" x="351.3411" y="431.0918">)</text><rect fill="#FFC0CB" height="33.9688" rx="12.5" ry="12.5" style="stroke:#181818;stroke-width:0.5;" width="219.6113" x="495.21" y="230.2344"/><text fill="#000000" font-family="sans-serif" font-size="12" lengthAdjust="spacing" textLength="199.6113" x="505.21" y="251.373">Select a working temperature (T)</text><line style="stroke:#181818;stroke-width:1.5;" x1="232.105" x2="605.0156" y1="478.9219" y2="478.9219"/><rect fill="#F1F1F1" height="36.9688" rx="12.5" ry="12.5" style="stroke:#181818;stroke-width:0.5;" width="342.9878" x="184.4167" y="498.9219"/><text fill="#000000" font-family="sans-serif" font-size="12" lengthAdjust="spacing" textLength="52.418" x="194.4167" y="520.0605">Evaluate</text><text fill="#000000" font-family="sans-serif" font-size="12" font-style="italic" lengthAdjust="spacing" textLength="10.3535" x="250.6492" y="520.0605">M</text><text fill="#000000" font-family="sans-serif" font-size="9" lengthAdjust="spacing" textLength="4.689" x="261.0027" y="523.7681">s</text><text fill="#000000" font-family="sans-serif" font-size="12" lengthAdjust="spacing" textLength="4.6816" x="265.6917" y="520.0605">(</text><text fill="#000000" font-family="sans-serif" font-size="12" font-style="italic" lengthAdjust="spacing" textLength="7.3301" x="270.3733" y="520.0605">T</text><text fill="#000000" font-family="sans-serif" font-size="12" lengthAdjust="spacing" textLength="8.4961" x="277.7034" y="520.0605">),</text><text fill="#000000" font-family="sans-serif" font-size="12" font-style="italic" lengthAdjust="spacing" textLength="7.8691" x="290.0139" y="520.0605">K</text><text fill="#000000" font-family="sans-serif" font-size="12" lengthAdjust="spacing" textLength="4.6816" x="297.8831" y="520.0605">(</text><text fill="#000000" font-family="sans-serif" font-size="12" font-style="italic" lengthAdjust="spacing" textLength="7.3301" x="302.5647" y="520.0605">T</text><text fill="#000000" font-family="sans-serif" font-size="12" lengthAdjust="spacing" textLength="8.4961" x="309.8948" y="520.0605">),</text><text fill="#000000" font-family="sans-serif" font-size="12" font-style="italic" lengthAdjust="spacing" textLength="8.209" x="322.2053" y="520.0605">A</text><text fill="#000000" font-family="sans-serif" font-size="12" lengthAdjust="spacing" textLength="4.6816" x="330.4143" y="520.0605">(</text><text fill="#000000" font-family="sans-serif" font-size="12" font-style="italic" lengthAdjust="spacing" textLength="7.3301" x="335.0959" y="520.0605">T</text><text fill="#000000" font-family="sans-serif" font-size="12" lengthAdjust="spacing" textLength="174.9785" x="342.426" y="520.0605">) at the working temperature</text><rect fill="#C9FFC9" height="36.9688" rx="12.5" ry="12.5" style="stroke:#181818;stroke-width:0.5;" width="172.9019" x="269.4597" y="555.8906"/><text fill="#000000" font-family="sans-serif" font-size="12" font-style="italic" lengthAdjust="spacing" textLength="10.3535" x="279.4597" y="577.0293">M</text><text fill="#000000" font-family="sans-serif" font-size="9" lengthAdjust="spacing" textLength="4.689" x="289.8132" y="580.7368">s</text><text fill="#000000" font-family="sans-serif" font-size="12" lengthAdjust="spacing" textLength="3.8145" x="294.5022" y="577.0293">,</text><text fill="#000000" font-family="sans-serif" font-size="12" font-style="italic" lengthAdjust="spacing" textLength="7.8691" x="302.1311" y="577.0293">K</text><text fill="#000000" font-family="sans-serif" font-size="12" lengthAdjust="spacing" textLength="3.8145" x="310.0002" y="577.0293">,</text><text fill="#000000" font-family="sans-serif" font-size="12" font-style="italic" lengthAdjust="spacing" textLength="8.209" x="317.6292" y="577.0293">A</text><text fill="#000000" font-family="sans-serif" font-size="12" lengthAdjust="spacing" textLength="102.709" x="329.6526" y="577.0293">at temperature T</text><rect fill="#FFC0CB" height="47.9375" rx="12.5" ry="12.5" style="stroke:#181818;stroke-width:0.5;" width="222.793" x="724.8213" y="294.2031"/><text fill="#000000" font-family="sans-serif" font-size="12" lengthAdjust="spacing" textLength="202.793" x="734.8213" y="315.3418">Select a microstructure and other</text><text fill="#000000" font-family="sans-serif" font-size="12" lengthAdjust="spacing" textLength="198.2813" x="737.0771" y="329.3105">micromagnetic input parameters</text><line style="stroke:#181818;stroke-width:1.5;" x1="355.9106" x2="836.2178" y1="612.8594" y2="612.8594"/><rect fill="#F5F5DC" height="136.2344" rx="5" ry="5" style="stroke:#1E90FF;stroke-width:1.5;" width="223.9141" x="369.3501" y="622.8594"/><path d="M503.3677,622.8594 L503.3677,632.1563 L493.3677,642.1563 L369.3501,642.1563" fill="none" style="stroke:#1E90FF;stroke-width:1.5;"/><text fill="#1E90FF" font-family="sans-serif" font-size="14" lengthAdjust="spacing" textLength="124.0176" x="372.3501" y="636.8545">mammos-mumag</text><rect fill="#ADD8E6" height="33.9688" rx="12.5" ry="12.5" style="stroke:#181818;stroke-width:0.5;" width="203.9141" x="379.3501" y="659.1563"/><text fill="#000000" font-family="sans-serif" font-size="12" lengthAdjust="spacing" textLength="183.9141" x="389.3501" y="680.2949">Run micromagnetic simulation</text><rect fill="#228B22" height="33.9688" rx="12.5" ry="12.5" style="stroke:#181818;stroke-width:0.5;" width="112.0684" x="425.2729" y="713.125"/><text fill="#FFFFFF" font-family="sans-serif" font-size="12" lengthAdjust="spacing" textLength="92.0684" x="435.2729" y="734.2637">Hysteresis loop</text><rect fill="#F5F5DC" height="136.2344" rx="5" ry="5" style="stroke:#1E90FF;stroke-width:1.5;" width="203.3535" x="379.6304" y="769.0938"/><path d="M516.7173,769.0938 L516.7173,778.3906 L506.7173,788.3906 L379.6304,788.3906" fill="none" style="stroke:#1E90FF;stroke-width:1.5;"/><text fill="#1E90FF" font-family="sans-serif" font-size="14" lengthAdjust="spacing" textLength="127.0869" x="382.6304" y="783.0889">mammos-analysis</text><rect fill="#FFFF00" height="33.9688" rx="12.5" ry="12.5" style="stroke:#181818;stroke-width:0.5;" width="183.3535" x="389.6304" y="805.3906"/><text fill="#000000" font-family="sans-serif" font-size="12" lengthAdjust="spacing" textLength="163.3535" x="399.6304" y="826.5293">Extract extrinsic properties</text><rect fill="#228B22" height="33.9688" rx="12.5" ry="12.5" style="stroke:#181818;stroke-width:0.5;" width="109.5664" x="426.5239" y="859.3594"/><text fill="#FFFFFF" font-family="sans-serif" font-size="12" lengthAdjust="spacing" textLength="89.5664" x="436.5239" y="880.498">Hc, Mr, BHmax</text><line style="stroke:#181818;stroke-width:1;" x1="106.5486" x2="106.5486" y1="187.2344" y2="207.2344"/><polygon fill="#181818" points="102.5486,197.2344,106.5486,207.2344,110.5486,197.2344,106.5486,201.2344" style="stroke:#181818;stroke-width:1;"/><line style="stroke:#181818;stroke-width:1;" x1="341.6536" x2="341.6536" y1="187.2344" y2="207.2344"/><polygon fill="#181818" points="337.6536,197.2344,341.6536,207.2344,345.6536,197.2344,341.6536,201.2344" style="stroke:#181818;stroke-width:1;"/><line style="stroke:#181818;stroke-width:1;" x1="106.5486" x2="106.5486" y1="108.4688" y2="153.2656"/><polygon fill="#181818" points="102.5486,143.2656,106.5486,153.2656,110.5486,143.2656,106.5486,147.2656" style="stroke:#181818;stroke-width:1;"/><line style="stroke:#181818;stroke-width:1;" x1="341.6536" x2="341.6536" y1="108.4688" y2="153.2656"/><polygon fill="#181818" points="337.6536,143.2656,341.6536,153.2656,345.6536,143.2656,341.6536,147.2656" style="stroke:#181818;stroke-width:1;"/><line style="stroke:#181818;stroke-width:1;" x1="106.5486" x2="106.5486" y1="244.2031" y2="284.2031"/><polygon fill="#181818" points="102.5486,274.2031,106.5486,284.2031,110.5486,274.2031,106.5486,278.2031" style="stroke:#181818;stroke-width:1;"/><line style="stroke:#181818;stroke-width:1;" x1="341.6536" x2="341.6536" y1="244.2031" y2="284.2031"/><polygon fill="#181818" points="337.6536,274.2031,341.6536,284.2031,345.6536,274.2031,341.6536,278.2031" style="stroke:#181818;stroke-width:1;"/><line style="stroke:#181818;stroke-width:1;" x1="232.105" x2="232.105" y1="86.9688" y2="106.9688"/><polygon fill="#181818" points="228.105,96.9688,232.105,106.9688,236.105,96.9688,232.105,100.9688" style="stroke:#181818;stroke-width:1;"/><line style="stroke:#181818;stroke-width:1;" x1="232.105" x2="232.105" y1="389.9531" y2="409.9531"/><polygon fill="#181818" points="228.105,399.9531,232.105,409.9531,236.105,399.9531,232.105,403.9531" style="stroke:#181818;stroke-width:1;"/><line style="stroke:#181818;stroke-width:1;" x1="232.105" x2="232.105" y1="285.7031" y2="355.9844"/><polygon fill="#181818" points="228.105,345.9844,232.105,355.9844,236.105,345.9844,232.105,349.9844" style="stroke:#181818;stroke-width:1;"/><line style="stroke:#181818;stroke-width:1;" x1="232.105" x2="232.105" y1="446.9219" y2="478.9219"/><polygon fill="#181818" points="228.105,468.9219,232.105,478.9219,236.105,468.9219,232.105,472.9219" style="stroke:#181818;stroke-width:1;"/><line style="stroke:#181818;stroke-width:1;" x1="605.0156" x2="605.0156" y1="264.2031" y2="478.9219"/><polygon fill="#181818" points="601.0156,468.9219,605.0156,478.9219,609.0156,468.9219,605.0156,472.9219" style="stroke:#181818;stroke-width:1;"/><line style="stroke:#181818;stroke-width:1;" x1="355.9106" x2="355.9106" y1="480.4219" y2="498.9219"/><polygon fill="#181818" points="351.9106,488.9219,355.9106,498.9219,359.9106,488.9219,355.9106,492.9219" style="stroke:#181818;stroke-width:1;"/><line style="stroke:#181818;stroke-width:1;" x1="355.9106" x2="355.9106" y1="535.8906" y2="555.8906"/><polygon fill="#181818" points="351.9106,545.8906,355.9106,555.8906,359.9106,545.8906,355.9106,549.8906" style="stroke:#181818;stroke-width:1;"/><line style="stroke:#181818;stroke-width:1;" x1="355.9106" x2="355.9106" y1="592.8594" y2="612.8594"/><polygon fill="#181818" points="351.9106,602.8594,355.9106,612.8594,359.9106,602.8594,355.9106,606.8594" style="stroke:#181818;stroke-width:1;"/><line style="stroke:#181818;stroke-width:1;" x1="836.2178" x2="836.2178" y1="342.1406" y2="612.8594"/><polygon fill="#181818" points="832.2178,602.8594,836.2178,612.8594,840.2178,602.8594,836.2178,606.8594" style="stroke:#181818;stroke-width:1;"/><line style="stroke:#181818;stroke-width:1;" x1="481.3071" x2="481.3071" y1="693.125" y2="713.125"/><polygon fill="#181818" points="477.3071,703.125,481.3071,713.125,485.3071,703.125,481.3071,707.125" style="stroke:#181818;stroke-width:1;"/><line style="stroke:#181818;stroke-width:1;" x1="481.3071" x2="481.3071" y1="614.3594" y2="659.1563"/><polygon fill="#181818" points="477.3071,649.1563,481.3071,659.1563,485.3071,649.1563,481.3071,653.1563" style="stroke:#181818;stroke-width:1;"/><line style="stroke:#181818;stroke-width:1;" x1="481.3071" x2="481.3071" y1="839.3594" y2="859.3594"/><polygon fill="#181818" points="477.3071,849.3594,481.3071,859.3594,485.3071,849.3594,481.3071,853.3594" style="stroke:#181818;stroke-width:1;"/><line style="stroke:#181818;stroke-width:1;" x1="481.3071" x2="481.3071" y1="747.0938" y2="805.3906"/><polygon fill="#181818" points="477.3071,795.3906,481.3071,805.3906,485.3071,795.3906,481.3071,799.3906" style="stroke:#181818;stroke-width:1;"/><!--SRC=[hLJDQjj04BxhAQQND04RtLKXSE8KGsfQ6fT2In4JxSHUejqL-zF4FVKH-enzaivAQMGvSZ2b9ta7p_Spy-s-yXjI1Clt5ulPV3Qz-3o3MsiKf1kZA7MeKakDSQaorGO5bdVIfssBIrnJIvy0JBzkf12alqqBFlsjxjS1ickggVA0eD2JbLY_WJmFZcnPeQDIwYRueljlZmAmjYOqtAEKSLDnwxcfBPLEwdLDZnqjmpk3ejC_Vxi2WHvl63dInDzbF8XI6K7rRjSNiWOygOOi-c09SbaiyrGMkGitXSlJ-86JMBwAvOXdyRuqmVUA0KYBJcll072DKe_vS8tKOgjHoSeTPUXwVhIVLM_bzyzVWXfMHjgFsZhbuYeMpuvo5K_TRf9dbb1ZlNNoe9tiaoEu2Z-KrD1gZen3yVyeVVAqchtQR5WRjRXhS7zfXoDyR-mTsnl4vdHrTYZH_TmOvF8xre6lm7zo1UY1h-IOf2YdCrisrbJauafQGTaOTy_OyxJeEoPN4VCHZCEtCyhN0ET1re9lYWswbSJfvkpYMfENLRVqP3ZZuOHtdeZOwRmDLSkAF3_3Y3RPmsn730rQLCIFYXjVGCV9IqYIGMHLOA2nl6OVsS6GoKaLQlJIw65kiyNMCJF5vDV6DCz2rWUC9_I1JN6o-stiANhf4cMN3zuYZuVuAxLZKOp3c_6ItC578LjK4rZQ2Pml53wyeEuF]--></g></svg>