<svg xmlns="http://www.w3.org/2000/svg" xmlns:xlink="http://www.w3.org/1999/xlink" contentStyleType="text/css" data-diagram-type="ACTIVITY" height="878px" preserveAspectRatio="none" style="width:304px;height:878px;background:#FFFFFF;" version="1.1" viewBox="0 0 304 878" width="304px" zoomAndPan="magnify"><defs/><g><rect fill="#FFC0CB" height="33.9688" rx="12.5" ry="12.5" style="stroke:#181818;stroke-width:0.5;" width="122.0879" x="82.4014" y="11"/><text fill="#000000" font-family="sans-serif" font-size="12" lengthAdjust="spacing" textLength="102.0879" x="92.4014" y="32.1387">Select a material</text><rect fill="#F5F5DC" height="136.2344" rx="5" ry="5" style="stroke:#1E90FF;stroke-width:1.5;" width="224.6758" x="31.1074" y="54.9688"/><path d="M207.5967,54.9688 L207.5967,64.2656 L197.5967,74.2656 L31.1074,74.2656" fill="none" style="stroke:#1E90FF;stroke-width:1.5;"/><text fill="#1E90FF" font-family="sans-serif" font-size="14" lengthAdjust="spacing" textLength="166.4893" x="34.1074" y="68.9639">mammos-spindynamics</text><rect fill="#FFFF00" height="33.9688" rx="12.5" ry="12.5" style="stroke:#181818;stroke-width:0.5;" width="161.123" x="62.8838" y="91.2656"/><text fill="#000000" font-family="sans-serif" font-size="12" lengthAdjust="spacing" textLength="141.123" x="72.8838" y="112.4043">Load from SD database</text><rect fill="#228B22" height="33.9688" rx="12.5" ry="12.5" style="stroke:#181818;stroke-width:0.5;" width="204.6758" x="41.1074" y="145.2344"/><text fill="#FFFFFF" font-family="sans-serif" font-size="12" lengthAdjust="spacing" textLength="184.6758" x="51.1074" y="166.373">Temperature&#8208;dependent Ms(T)</text><rect fill="#F5F5DC" height="139.2344" rx="5" ry="5" style="stroke:#1E90FF;stroke-width:1.5;" width="255.644" x="15.6233" y="201.2031"/><path d="M152.7102,201.2031 L152.7102,210.5 L142.7102,220.5 L15.6233,220.5" fill="none" style="stroke:#1E90FF;stroke-width:1.5;"/><text fill="#1E90FF" font-family="sans-serif" font-size="14" lengthAdjust="spacing" textLength="127.0869" x="18.6233" y="215.1982">mammos-analysis</text><rect fill="#ADD8E6" height="33.9688" rx="12.5" ry="12.5" style="stroke:#181818;stroke-width:0.5;" width="131.8145" x="77.5381" y="237.5"/><text fill="#000000" font-family="sans-serif" font-size="12" lengthAdjust="spacing" textLength="111.8145" x="87.5381" y="258.6387">Use Kuzmin model</text><rect fill="#228B22" height="36.9688" rx="12.5" ry="12.5" style="stroke:#181818;stroke-width:0.5;" width="235.644" x="25.6233" y="291.4688"/><text fill="#FFFFFF" font-family="sans-serif" font-size="12" lengthAdjust="spacing" textLength="147.5625" x="35.6233" y="312.6074">Temperature&#8208;dependent</text><text fill="#FFFFFF" font-family="sans-serif" font-size="12" font-style="italic" lengthAdjust="spacing" textLength="10.3535" x="187.0002" y="312.6074">M</text><text fill="#FFFFFF" font-family="sans-serif" font-size="9" lengthAdjust="spacing" textLength="4.689" x="197.3538" y="316.3149">s</text><text fill="#FFFFFF" font-family="sans-serif" font-size="12" lengthAdjust="spacing" textLength="4.6816" x="202.0427" y="312.6074">(</text><text fill="#FFFFFF" font-family="sans-serif" font-size="12" font-style="italic" lengthAdjust="spacing" textLength="7.3301" x="206.7244" y="312.6074">T</text><text fill="#FFFFFF" font-family="sans-serif" font-size="12" lengthAdjust="spacing" textLength="8.4961" x="214.0544" y="312.6074">),</text><text fill="#FFFFFF" font-family="sans-serif" font-size="12" font-style="italic" lengthAdjust="spacing" textLength="8.209" x="226.365" y="312.6074">A</text><text fill="#FFFFFF" font-family="sans-serif" font-size="12" lengthAdjust="spacing" textLength="4.6816" x="234.574" y="312.6074">(</text><text fill="#FFFFFF" font-family="sans-serif" font-size="12" font-style="italic" lengthAdjust="spacing" textLength="7.3301" x="239.2556" y="312.6074">T</text><text fill="#FFFFFF" font-family="sans-serif" font-size="12" lengthAdjust="spacing" textLength="4.6816" x="246.5857" y="312.6074">)</text><rect fill="#FFC0CB" height="33.9688" rx="12.5" ry="12.5" style="stroke:#181818;stroke-width:0.5;" width="219.6113" x="33.6396" y="360.4375"/><text fill="#000000" font-family="sans-serif" font-size="12" lengthAdjust="spacing" textLength="199.6113" x="43.6396" y="381.5762">Select a working temperature (T)</text><rect fill="#F5F5DC" height="408.7656" rx="5" ry="5" style="stroke:#1E90FF;stroke-width:1.5;" width="282.8906" x="11" y="404.4063"/><path d="M108.1035,404.4063 L108.1035,413.7031 L98.1035,423.7031 L11,423.7031" fill="none" style="stroke:#1E90FF;stroke-width:1.5;"/><text fill="#1E90FF" font-family="sans-serif" font-size="14" lengthAdjust="spacing" textLength="87.1035" x="14" y="418.4014">optimization</text><rect fill="#FFC0CB" height="33.9688" rx="12.5" ry="12.5" style="stroke:#181818;stroke-width:0.5;" width="158.6914" x="64.0996" y="484.7031"/><text fill="#000000" font-family="sans-serif" font-size="12" lengthAdjust="spacing" textLength="138.6914" x="74.0996" y="505.8418">Propose new geometry</text><rect fill="#F5F5DC" height="136.2344" rx="5" ry="5" style="stroke:#1E90FF;stroke-width:1.5;" width="223.9141" x="31.4883" y="528.6719"/><path d="M104.7207,528.6719 L104.7207,537.9688 L94.7207,547.9688 L31.4883,547.9688" fill="none" style="stroke:#1E90FF;stroke-width:1.5;"/><text fill="#1E90FF" font-family="sans-serif" font-size="14" lengthAdjust="spacing" textLength="63.2324" x="34.4883" y="542.667">ubermag</text><rect fill="#ADD8E6" height="33.9688" rx="12.5" ry="12.5" style="stroke:#181818;stroke-width:0.5;" width="203.9141" x="41.4883" y="564.9688"/><text fill="#000000" font-family="sans-serif" font-size="12" lengthAdjust="spacing" textLength="183.9141" x="51.4883" y="586.1074">Run micromagnetic simulation</text><rect fill="#228B22" height="33.9688" rx="12.5" ry="12.5" style="stroke:#181818;stroke-width:0.5;" width="162.4004" x="62.2451" y="618.9375"/><text fill="#FFFFFF" font-family="sans-serif" font-size="12" lengthAdjust="spacing" textLength="142.4004" x="72.2451" y="640.0762">Output hysteresis loops</text><rect fill="#F5F5DC" height="82.2656" rx="5" ry="5" style="stroke:#1E90FF;stroke-width:1.5;" width="244.8906" x="21" y="674.9063"/><path d="M158.0869,674.9063 L158.0869,684.2031 L148.0869,694.2031 L21,694.2031" fill="none" style="stroke:#1E90FF;stroke-width:1.5;"/><text fill="#1E90FF" font-family="sans-serif" font-size="14" lengthAdjust="spacing" textLength="127.0869" x="24" y="688.9014">mammos-analysis</text><rect fill="#C9FFC9" height="33.9688" rx="12.5" ry="12.5" style="stroke:#181818;stroke-width:0.5;" width="224.8906" x="31" y="711.2031"/><text fill="#000000" font-family="sans-serif" font-size="12" lengthAdjust="spacing" textLength="204.8906" x="41" y="732.3418">Extract linear segment from loops</text><polygon fill="#F1F1F1" points="143.4453,440.7031,155.4453,452.7031,143.4453,464.7031,131.4453,452.7031,143.4453,440.7031" style="stroke:#181818;stroke-width:0.5;"/><polygon fill="#F1F1F1" points="143.4453,777.1719,143.4453,777.1719,155.4453,789.1719,143.4453,801.1719,143.4453,801.1719,131.4453,789.1719,143.4453,777.1719" style="stroke:#181818;stroke-width:0.5;"/><rect fill="#C9FFC9" height="33.9688" rx="12.5" ry="12.5" style="stroke:#181818;stroke-width:0.5;" width="129.4473" x="78.7217" y="833.1719"/><text fill="#000000" font-family="sans-serif" font-size="12" lengthAdjust="spacing" textLength="109.4473" x="88.7217" y="854.3105">Optimal geometry</text><line style="stroke:#181818;stroke-width:1;" x1="143.4453" x2="143.4453" y1="125.2344" y2="145.2344"/><polygon fill="#181818" points="139.4453,135.2344,143.4453,145.2344,147.4453,135.2344,143.4453,139.2344" style="stroke:#181818;stroke-width:1;"/><line style="stroke:#181818;stroke-width:1;" x1="143.4453" x2="143.4453" y1="44.9688" y2="91.2656"/><polygon fill="#181818" points="139.4453,81.2656,143.4453,91.2656,147.4453,81.2656,143.4453,85.2656" style="stroke:#181818;stroke-width:1;"/><line style="stroke:#181818;stroke-width:1;" x1="143.4453" x2="143.4453" y1="271.4688" y2="291.4688"/><polygon fill="#181818" points="139.4453,281.4688,143.4453,291.4688,147.4453,281.4688,143.4453,285.4688" style="stroke:#181818;stroke-width:1;"/><line style="stroke:#181818;stroke-width:1;" x1="143.4453" x2="143.4453" y1="179.2031" y2="237.5"/><polygon fill="#181818" points="139.4453,227.5,143.4453,237.5,147.4453,227.5,143.4453,231.5" style="stroke:#181818;stroke-width:1;"/><line style="stroke:#181818;stroke-width:1;" x1="143.4453" x2="143.4453" y1="328.4375" y2="360.4375"/><polygon fill="#181818" points="139.4453,350.4375,143.4453,360.4375,147.4453,350.4375,143.4453,354.4375" style="stroke:#181818;stroke-width:1;"/><line style="stroke:#181818;stroke-width:1;" x1="143.4453" x2="143.4453" y1="598.9375" y2="618.9375"/><polygon fill="#181818" points="139.4453,608.9375,143.4453,618.9375,147.4453,608.9375,143.4453,612.9375" style="stroke:#181818;stroke-width:1;"/><line style="stroke:#181818;stroke-width:1;" x1="143.4453" x2="143.4453" y1="518.6719" y2="564.9688"/><polygon fill="#181818" points="139.4453,554.9688,143.4453,564.9688,147.4453,554.9688,143.4453,558.9688" style="stroke:#181818;stroke-width:1;"/><line style="stroke:#181818;stroke-width:1;" x1="143.4453" x2="143.4453" y1="652.9063" y2="711.2031"/><polygon fill="#181818" points="139.4453,701.2031,143.4453,711.2031,147.4453,701.2031,143.4453,705.2031" style="stroke:#181818;stroke-width:1;"/><line style="stroke:#181818;stroke-width:1;" x1="143.4453" x2="143.4453" y1="464.7031" y2="484.7031"/><polygon fill="#181818" points="139.4453,474.7031,143.4453,484.7031,147.4453,474.7031,143.4453,478.7031" style="stroke:#181818;stroke-width:1;"/><line style="stroke:#181818;stroke-width:1;" x1="155.4453" x2="277.8906" y1="789.1719" y2="789.1719"/><polygon fill="#181818" points="273.8906,631.4375,277.8906,621.4375,281.8906,631.4375,277.8906,627.4375" style="stroke:#181818;stroke-width:1;"/><line style="stroke:#181818;stroke-width:1;" x1="277.8906" x2="277.8906" y1="452.7031" y2="789.1719"/><line style="stroke:#181818;stroke-width:1;" x1="277.8906" x2="155.4453" y1="452.7031" y2="452.7031"/><polygon fill="#181818" points="165.4453,448.7031,155.4453,452.7031,165.4453,456.7031,161.4453,452.7031" style="stroke:#181818;stroke-width:1;"/><line style="stroke:#181818;stroke-width:1;" x1="143.4453" x2="143.4453" y1="745.1719" y2="777.1719"/><polygon fill="#181818" points="139.4453,767.1719,143.4453,777.1719,147.4453,767.1719,143.4453,771.1719" style="stroke:#181818;stroke-width:1;"/><line style="stroke:#181818;stroke-width:1;" x1="143.4453" x2="143.4453" y1="394.4063" y2="440.7031"/><polygon fill="#181818" points="139.4453,430.7031,143.4453,440.7031,147.4453,430.7031,143.4453,434.7031" style="stroke:#181818;stroke-width:1;"/><line style="stroke:#181818;stroke-width:1;" x1="143.4453" x2="143.4453" y1="801.1719" y2="833.1719"/><polygon fill="#181818" points="139.4453,823.1719,143.4453,833.1719,147.4453,823.1719,143.4453,827.1719" style="stroke:#181818;stroke-width:1;"/><!--SRC=[ZPBDQjj04CVlUehffKaWGVTK29oaK6YCG-FIenXB4sd9VeYTNLpdr4VeC_P9EhioSOJTajD-pSxyvl-V3s4WGx1StNvPt2skRdyiuCax0-NW39MCflGqEYwDQmVii7bMeSnVk2Yk7qbJ6m31O22lK7-2gefClccHgL5sZA6kYzwxE4gCCOwlU5IssraqgcM9pcyDAzjhab20wtk7tSJmU0ST1jn8hfGuxPjqw1hZEj9J-9hCI1v3zFJdr- -EHh8TsG1BFbzVf6yUjusBOKAHHyWbYpaLMjGxLgU9lZF1r_XYb8LSE6Lz1q6bwcLLghhYkAcvAjDoBfVhT7bncTuNQNku-n_kGUojyyz21-5G5_Qz7cjVd07SHAKx-0W-MX3lGAGNUR6t55GxjRHNmur16VM2GJbxB8LC0c6GbgNf1-zaB0WiRQ4dcPNWTwS9KlYKFMx8IzbJ6kUStuHlpiRAH9rfvfhdy5LM2OOTo_1HCayxD_AHY2du86GwYIOFZeEuDNhN4YUGuWteEuOY4tp-6JoA9rfPGWzClKd6v-5zPTcNaAdz1z4aAsm7fMdc-2gvWNgcxubiVm40]--></g></svg>