<?xml version="1.0" standalone="no"?>
<!DOCTYPE svg PUBLIC "-//W3C//DTD SVG 20010904//EN"
 "http://www.w3.org/TR/2001/REC-SVG-20010904/DTD/svg10.dtd">
<svg version="1.0" xmlns="http://www.w3.org/2000/svg"
 width="300.000000pt" height="300.000000pt" viewBox="0 0 300.000000 300.000000"
 preserveAspectRatio="xMidYMid meet">
<metadata>
Created by potrace 1.10, written by Peter Selinger 2001-2011
</metadata>
<g transform="translate(0.000000,300.000000) scale(0.100000,-0.100000)"
fill="#000000" stroke="none">
<path d="M1273 2745 c2 -34 7 -68 11 -74 5 -7 5 -39 1 -72 -5 -40 -4 -59 4
-59 6 0 11 -13 11 -30 0 -27 8 -35 33 -31 4 0 7 -11 7 -26 0 -22 -2 -25 -10
-13 -8 12 -10 11 -10 -7 0 -21 5 -23 50 -23 l50 0 0 -35 c0 -34 -1 -35 -40
-35 -22 0 -40 -5 -40 -11 0 -5 5 -7 10 -4 6 3 10 -2 10 -12 0 -15 2 -16 10 -3
8 12 10 11 10 -7 0 -20 -5 -23 -43 -23 l-43 0 4 -35 c3 -27 1 -35 -12 -35 -11
0 -16 -9 -16 -30 0 -25 4 -30 25 -30 14 0 25 5 25 10 0 6 -4 10 -10 10 -5 0
-10 9 -10 20 0 19 7 20 190 20 111 0 190 4 190 9 0 19 -93 34 -207 33 -77 -1
-106 10 -68 24 8 4 13 9 10 13 -2 4 3 20 11 35 25 49 18 77 -31 124 -26 25
-49 58 -55 80 -13 46 -13 119 -1 127 29 17 107 -50 146 -125 10 -19 22 -42 26
-50 5 -8 18 -32 29 -52 15 -28 28 -39 54 -44 61 -11 84 5 125 82 20 38 37 76
39 83 1 7 9 20 17 28 9 8 20 23 25 34 6 10 27 28 48 38 l37 20 -67 1 c-54 0
-68 -3 -68 -15 0 -8 5 -15 10 -15 6 0 10 -7 10 -15 0 -10 -10 -15 -26 -15 -24
0 -26 -3 -22 -35 4 -31 1 -35 -19 -35 -14 0 -23 -6 -23 -16 0 -8 5 -12 10 -9
6 3 10 -5 10 -18 0 -24 -2 -25 -77 -23 l-78 1 3 33 c3 27 0 32 -17 32 -16 0
-21 6 -21 25 0 14 5 25 10 25 6 0 10 4 10 8 0 5 -12 8 -27 7 -37 -2 -53 4 -53
22 0 8 5 11 10 8 6 -3 10 1 10 10 0 9 5 13 10 10 6 -3 10 -1 10 4 0 7 -26 11
-65 11 -52 0 -65 3 -65 16 0 8 5 12 10 9 6 -3 10 -1 10 4 0 6 3 10 8 9 4 0 15
2 25 6 36 16 14 26 -58 26 -76 0 -92 9 -55 32 27 17 25 25 -6 31 -25 4 -25 4
-21 -58z m387 -298 c0 -5 5 -5 10 -2 6 3 10 -3 10 -14 0 -19 -6 -21 -60 -21
-60 0 -71 7 -47 32 14 14 87 18 87 5z"/>
<path d="M1915 2788 c11 -6 25 -19 32 -27 11 -14 12 -12 13 12 0 24 -4 27 -32
27 -30 -1 -31 -2 -13 -12z"/>
<path d="M1810 2721 c0 -14 6 -19 20 -16 11 2 20 -1 20 -6 0 -6 5 -7 10 -4 6
3 10 1 10 -4 0 -6 3 -10 8 -10 28 5 31 -3 26 -63 -7 -76 -34 -137 -80 -180
-55 -52 -47 -83 46 -185 28 -31 39 -62 23 -64 -5 0 -63 -1 -130 -2 -68 -1
-123 -4 -123 -7 0 -3 -12 -7 -27 -8 -16 -1 -41 -6 -58 -11 -20 -6 45 -10 198
-10 l227 -1 0 30 c0 29 -14 37 -52 31 -5 0 -8 6 -8 15 0 8 5 12 10 9 6 -3 10
5 10 19 0 22 -5 25 -42 28 l-43 3 23 23 c13 13 22 25 20 27 -2 2 -23 5 -46 6
-40 3 -42 4 -42 36 l0 33 58 1 c31 0 51 3 45 6 -7 2 -13 14 -13 24 0 11 -4 17
-10 14 -5 -3 -10 -1 -10 4 0 11 9 14 43 14 11 0 17 7 17 21 0 17 -2 18 -10 6
-8 -12 -10 -9 -10 13 0 15 5 27 10 27 6 0 10 28 10 65 0 37 4 65 10 65 6 0 10
16 10 35 l0 35 -75 0 c-68 0 -75 -2 -75 -19z"/>
<path d="M1640 2101 c0 -5 6 -12 13 -14 6 -3 -5 -6 -25 -6 -29 -1 -36 -4 -32
-16 5 -11 -1 -15 -25 -15 -23 0 -29 -4 -24 -15 3 -9 2 -15 -3 -14 -5 1 -20 1
-34 0 -18 -1 -21 -4 -12 -10 10 -6 4 -10 -18 -14 -17 -4 -29 -11 -25 -17 4 -6
-6 -10 -24 -10 -31 0 -42 -14 -18 -23 6 -3 -8 -6 -33 -7 -25 -1 -39 -4 -32 -7
23 -9 12 -23 -18 -23 -25 0 -30 -4 -30 -25 0 -14 5 -25 10 -25 6 0 10 -7 10
-15 0 -8 5 -15 10 -15 6 0 10 -7 10 -15 0 -8 5 -15 10 -15 6 0 10 -11 10 -25
0 -14 5 -25 10 -25 6 0 10 -7 10 -15 0 -8 5 -15 10 -15 6 0 10 -7 10 -15 0 -8
5 -15 10 -15 6 0 10 -7 10 -15 0 -8 5 -15 11 -15 6 0 9 -7 5 -15 -3 -8 -1 -15
4 -15 6 0 10 -7 10 -15 0 -8 5 -15 10 -15 6 0 10 -7 10 -15 0 -8 4 -15 8 -15
4 0 9 -10 9 -22 1 -13 7 -24 13 -26 5 -2 10 -10 10 -18 0 -11 14 -14 58 -13
31 0 51 3 45 6 -24 9 -13 23 17 23 20 0 30 5 30 15 0 9 9 15 25 15 18 0 23 4
19 15 -5 11 1 15 21 15 15 0 24 4 20 10 -5 9 15 15 38 11 4 0 7 6 7 14 0 11
11 15 38 15 35 1 36 2 18 15 -19 14 -17 15 18 15 30 0 37 3 32 15 -4 11 1 15
19 15 19 0 25 5 25 21 0 11 5 17 10 14 6 -3 10 -1 10 4 0 6 -4 11 -10 11 -5 0
-10 7 -10 15 0 8 -4 15 -10 15 -5 0 -10 7 -10 15 0 9 -9 15 -22 14 -13 0 -17
-3 -10 -6 23 -9 12 -23 -18 -23 -22 0 -28 -4 -24 -15 5 -11 -2 -15 -27 -15
-26 0 -30 -3 -19 -10 10 -7 11 -10 3 -11 -7 -1 -17 -3 -23 -4 -5 -1 -16 -3
-22 -4 -9 -1 -8 -4 2 -11 11 -7 5 -10 -22 -10 -37 0 -51 -13 -25 -23 6 -3 -8
-6 -33 -7 -25 -1 -39 -4 -32 -7 23 -9 12 -23 -19 -23 -27 0 -30 -2 -19 -15 11
-13 8 -15 -19 -15 -21 0 -31 5 -31 15 0 8 -4 15 -10 15 -5 0 -7 7 -4 15 4 8 1
15 -5 15 -6 0 -11 7 -11 15 0 8 -4 15 -10 15 -5 0 -10 7 -10 16 0 8 -4 12 -10
9 -5 -3 -10 3 -10 15 0 12 -4 18 -10 15 -5 -3 -10 -2 -10 4 0 5 6 12 13 14 10
4 10 6 0 6 -7 1 -13 8 -13 16 0 8 -4 15 -10 15 -5 0 -10 7 -10 15 0 8 -4 15
-10 15 -5 0 -10 7 -10 15 0 8 6 15 13 15 8 0 7 4 -3 10 -8 5 -10 10 -5 11 31
2 50 9 53 18 2 6 17 11 33 11 29 0 39 14 17 23 -7 3 4 6 25 6 36 1 50 14 25
24 -7 3 2 6 20 6 21 1 32 6 32 16 0 10 10 15 30 15 20 0 30 -5 30 -15 0 -8 5
-15 10 -15 6 0 10 -7 10 -15 0 -8 5 -15 10 -15 6 0 10 -7 10 -15 0 -8 -9 -15
-20 -15 -11 0 -20 -7 -20 -15 0 -10 -10 -15 -32 -15 -25 0 -29 -3 -18 -10 10
-7 11 -10 3 -11 -7 -1 -17 -3 -23 -4 -5 -1 -15 -3 -21 -4 -5 0 -7 -5 -4 -11 4
-6 -5 -10 -19 -10 -16 0 -26 -6 -26 -15 0 -8 5 -15 10 -15 6 0 10 -7 10 -15 0
-8 5 -15 10 -15 5 0 9 -6 8 -12 -2 -8 9 -13 30 -14 32 -1 43 10 20 19 -7 3 2
6 20 6 32 1 43 15 20 24 -7 3 4 6 25 6 36 1 50 14 25 24 -7 3 7 6 32 7 25 1
39 4 33 7 -23 9 -13 23 16 23 21 0 30 6 35 23 3 12 1 24 -4 25 -6 2 -10 10
-10 18 0 8 -8 14 -17 14 -16 0 -16 2 -3 11 11 8 12 12 3 16 -7 2 -13 11 -13
19 0 9 -4 12 -10 9 -5 -3 -10 3 -10 15 0 12 -4 18 -10 15 -5 -3 -10 1 -10 9 0
9 -4 16 -10 16 -5 0 -10 7 -10 15 0 8 -4 15 -10 15 -5 0 -7 7 -4 15 5 12 -4
15 -45 15 -28 0 -51 -4 -51 -9z m83 -60 c24 -40 21 -46 -9 -22 -15 12 -33 21
-42 21 -12 0 -12 3 -2 15 19 22 34 18 53 -14z m56 -153 c-32 -27 -41 -22 -24
11 8 17 12 38 9 48 -3 10 3 5 15 -12 l21 -30 -21 -17z m-381 -18 c-5 -17 -7
-38 -4 -48 4 -11 0 -9 -14 7 -25 29 -25 47 -2 60 28 17 32 13 20 -19z m185
-322 c-8 -15 -42 -8 -53 11 -18 35 -11 41 24 18 18 -12 32 -25 29 -29z"/>
<path d="M1795 2090 c-4 -6 13 -10 45 -10 32 0 49 4 45 10 -3 6 -24 10 -45 10
-21 0 -42 -4 -45 -10z"/>
<path d="M1094 1538 c3 -13 6 -30 6 -38 1 -11 4 -10 15 4 22 29 19 56 -6 56
-17 0 -20 -4 -15 -22z"/>
<path d="M2110 1537 c0 -12 9 -28 20 -35 19 -11 20 -10 20 23 0 28 -4 35 -20
35 -14 0 -20 -7 -20 -23z"/>
<path d="M1120 1460 c0 -16 4 -30 9 -30 5 0 8 -45 7 -100 0 -63 -5 -100 -11
-100 -7 0 -9 -14 -7 -35 4 -34 3 -35 -29 -36 -19 0 -28 -3 -21 -6 6 -2 12 -11
12 -19 0 -9 5 -12 10 -9 6 3 10 -1 10 -9 0 -16 -15 -19 -82 -16 -22 1 -38 -3
-38 -9 0 -10 14 -15 33 -12 4 0 7 -4 7 -10 0 -5 5 -7 10 -4 6 3 10 -3 10 -14
0 -20 -6 -21 -142 -22 -97 -1 -132 -4 -108 -9 34 -8 102 -20 128 -22 6 -1 12
-7 12 -15 0 -10 32 -13 150 -13 99 0 150 4 150 11 0 5 -4 7 -10 4 -5 -3 -10 2
-10 12 0 15 -2 16 -10 3 -5 -8 -10 -10 -10 -4 0 10 -6 12 -42 15 -7 1 -32 -2
-56 -6 -39 -7 -43 -6 -40 11 2 10 17 32 34 49 53 51 94 172 94 281 l0 42 153
3 c246 3 434 3 554 -2 100 -4 113 -6 113 -22 0 -10 -16 -27 -35 -38 -22 -13
-35 -29 -36 -42 0 -12 -3 -17 -6 -10 -5 14 -12 10 -63 -38 -48 -44 -51 -148
-5 -181 16 -12 -11 -10 -38 3 -20 9 -26 21 -30 57 -8 73 -26 82 -166 82 -110
0 -119 -2 -139 -23 -25 -26 -28 -54 -10 -92 15 -32 7 -39 -27 -23 -23 10 -26
16 -21 41 7 35 -11 116 -32 140 -20 23 -65 22 -86 -2 -9 -10 -22 -36 -27 -57
-15 -57 -57 -113 -98 -132 l-36 -16 38 -4 c20 -2 53 -2 72 0 l35 3 -15 29
c-20 37 -20 36 18 37 17 0 26 3 20 6 -15 6 -18 53 -3 53 6 0 10 16 10 35 0 32
2 35 30 35 l30 0 0 -70 c0 -40 -4 -70 -10 -70 -5 0 -10 -13 -10 -30 l0 -30 66
0 c58 0 64 -2 50 -15 -8 -8 -27 -21 -43 -27 -26 -12 -22 -13 47 -16 98 -3 108
-7 85 -32 -9 -10 -20 -19 -24 -18 -18 2 -31 -3 -31 -12 0 -6 28 -10 65 -10 52
0 65 -3 65 -16 0 -8 -4 -12 -10 -9 -5 3 -10 -1 -10 -10 0 -9 -4 -13 -10 -10
-5 3 -10 -1 -10 -9 0 -12 10 -15 48 -12 60 4 76 -1 59 -19 -7 -7 -15 -11 -19
-8 -5 2 -8 -1 -8 -7 0 -6 -4 -8 -10 -5 -5 3 -10 -1 -10 -9 0 -13 14 -16 75
-16 l75 0 0 35 c0 19 5 35 10 35 6 0 10 11 10 24 0 13 6 27 13 29 6 3 -22 6
-63 7 -75 1 -75 1 -52 20 12 10 28 21 35 23 27 12 -16 23 -78 21 -58 -1 -65 0
-65 18 0 10 5 16 10 13 6 -3 10 -2 10 4 0 5 9 8 19 6 11 -2 22 3 25 11 4 11
-11 14 -84 14 -87 0 -90 1 -90 23 0 18 2 19 10 7 8 -13 10 -12 10 3 0 9 3 16
8 15 4 -2 8 2 10 7 1 6 -7 11 -18 11 -11 1 -24 2 -30 3 -5 0 -10 15 -10 31 l0
30 130 0 130 0 0 -27 c-1 -16 -7 -45 -14 -65 l-14 -38 64 0 c35 0 64 -3 64 -6
0 -11 -28 -33 -34 -27 -3 4 -6 0 -6 -8 0 -11 -2 -11 -10 1 -8 13 -10 12 -10
-2 0 -16 10 -18 75 -18 69 0 75 -2 75 -21 0 -11 -4 -17 -10 -14 -5 3 -10 1
-10 -5 0 -6 -4 -9 -9 -6 -4 3 -17 -1 -27 -9 -17 -13 -11 -14 60 -15 68 0 77 2
72 16 -5 13 -2 15 16 9 13 -3 29 -7 36 -7 7 -1 11 -7 8 -13 -2 -7 1 -18 7 -24
18 -18 -23 -14 -44 5 -15 14 -19 13 -42 -10 -14 -14 -28 -22 -31 -19 -3 4 -6
0 -6 -8 0 -11 22 -14 110 -16 l110 -1 0 34 c0 34 0 34 -45 34 -34 0 -45 4 -45
16 0 8 5 12 10 9 6 -3 10 -1 10 5 0 6 3 9 8 7 4 -3 12 1 19 8 18 20 0 23 -84
17 -61 -4 -73 -2 -73 10 0 9 21 24 48 36 l47 20 -97 1 c-54 1 -98 4 -98 7 0
11 28 33 34 27 3 -4 6 -1 6 6 0 7 5 9 10 6 6 -3 10 1 10 10 0 12 -8 16 -32 15
-18 -1 -38 -2 -44 -1 -15 1 -5 61 12 68 11 4 11 9 -1 26 -8 12 -15 25 -15 29
0 5 32 8 70 8 60 0 69 2 58 14 -7 8 -16 12 -20 9 -5 -2 -8 1 -8 7 0 6 -4 8
-10 5 -5 -3 -10 2 -10 13 0 16 7 18 55 15 60 -4 67 5 34 40 l-20 22 40 3 c39
3 41 5 41 37 0 28 3 33 20 30 17 -3 20 2 20 31 l0 34 -85 0 c-47 0 -85 -4 -85
-8 0 -4 12 -9 28 -10 15 -1 36 -4 47 -6 11 -3 23 -5 28 -5 13 -2 7 -29 -8 -35
-23 -8 -884 -6 -889 2 -10 17 13 34 51 38 22 2 51 8 64 13 18 7 0 10 -68 10
l-93 1 0 -30z m593 -564 c18 -17 36 -39 40 -49 4 -10 10 -16 15 -13 16 9 32
-9 21 -24 -8 -11 -12 -12 -16 -2 -2 6 -9 10 -14 6 -5 -3 -9 1 -9 8 0 7 -18 22
-40 32 -22 11 -40 22 -40 26 0 4 -12 19 -26 34 l-27 26 32 -6 c17 -4 46 -21
64 -38z"/>
<path d="M1395 1347 c41 -15 432 -15 465 0 19 9 -32 12 -235 12 -201 -1 -253
-3 -230 -12z"/>
<path d="M330 1000 c0 -19 5 -30 14 -30 8 0 13 8 12 17 0 9 10 23 24 30 25 13
24 13 -12 13 -36 0 -38 -2 -38 -30z"/>
<path d="M433 963 c-44 -3 -53 -7 -53 -24 0 -10 -7 -19 -15 -19 -8 0 -15 -4
-15 -10 0 -6 136 -10 387 -10 250 0 384 3 377 10 -10 10 -67 18 -141 19 -23 1
-48 7 -56 15 -11 12 -59 16 -223 19 -115 2 -233 2 -261 0z"/>
<path d="M2063 800 c-18 -11 -33 -22 -33 -25 0 -3 18 -5 40 -5 36 0 40 3 40
25 0 30 -5 31 -47 5z"/>
</g>
</svg>
