<svg xmlns="http://www.w3.org/2000/svg" width="1088" height="687.962" viewBox="0 0 1088 687.962">
  <title>Automated Data Profiling</title>
  <g id="Group_12" data-name="Group 12" transform="translate(-57 -56)">
    <g id="Group_11" data-name="Group 11" transform="translate(57 56)">
      <!-- Background blob (Docusaurus style) -->
      <path id="Path_bg" data-name="Path bg" d="M1017.81,560.461c-5.27,45.15-16.22,81.4-31.25,110.31-20,38.52-54.21,54.04-84.77,70.28a193.275,193.275,0,0,1-27.46,11.94c-55.61,19.3-117.85,14.18-166.74,3.99a657.282,657.282,0,0,0-104.09-13.16q-14.97-.675-29.97-.67c-15.42.02-293.07,5.29-360.67-131.57-16.69-33.76-28.13-75-32.24-125.27-11.63-142.12,52.29-235.46,134.74-296.47,155.97-115.41,369.76-110.57,523.43,7.88C941.15,276.621,1036.99,396.031,1017.81,560.461Z" transform="translate(-56 -106.019)" fill="#f2f2f2"/>
      
      <!-- Ground -->
      <ellipse id="Ellipse_ground" data-name="Ellipse ground" cx="544" cy="30" rx="544" ry="30" transform="translate(0 583.962)" fill="#3f3d56"/>
      <path id="Path_ground_shadow" data-name="Path ground shadow" d="M1144,719.981c0,16.569-243.557,74-544,74s-544-57.431-544-74,243.557,14,544,14S1144,703.413,1144,719.981Z" transform="translate(-56 -106.019)" opacity="0.1"/>
      
      <!-- Large Database Icon (Left, much larger) -->
      <g id="Database" transform="translate(100 200)">
        <ellipse cx="120" cy="30" rx="120" ry="30" fill="#6c63ff"/>
        <rect x="0" y="30" width="240" height="300" rx="8" fill="#6c63ff"/>
        <ellipse cx="120" cy="30" rx="120" ry="30" transform="translate(0 300)" fill="#6c63ff" opacity="0.3"/>
        <!-- Database lines -->
        <rect x="30" y="80" width="180" height="4" rx="2" fill="#fff" opacity="0.6"/>
        <rect x="30" y="120" width="150" height="4" rx="2" fill="#fff" opacity="0.6"/>
        <rect x="30" y="160" width="170" height="4" rx="2" fill="#fff" opacity="0.6"/>
        <rect x="30" y="200" width="140" height="4" rx="2" fill="#fff" opacity="0.6"/>
        <rect x="30" y="240" width="160" height="4" rx="2" fill="#fff" opacity="0.6"/>
      </g>
      
      <!-- Arrow (larger) -->
      <path d="M420,350 L520,350" stroke="#3f3d56" stroke-width="6" marker-end="url(#arrowhead)"/>
      <defs>
        <marker id="arrowhead" markerWidth="12" markerHeight="12" refX="11" refY="4" orient="auto">
          <polygon points="0 0, 12 4, 0 8" fill="#3f3d56"/>
        </marker>
      </defs>
      
      <!-- Large Profiling Dashboard (Right, much larger) -->
      <g id="Profiling_Dashboard" transform="translate(600 150)">
        <rect x="0" y="0" width="450" height="400" rx="12" fill="#fff" stroke="#3f3d56" stroke-width="3"/>
        <rect x="0" y="0" width="450" height="60" rx="12" fill="#3f3d56"/>
        <text x="225" y="38" font-family="Arial, sans-serif" font-size="28" fill="#fff" font-weight="bold" text-anchor="middle">Data Profiling</text>
        
        <!-- Large metrics cards -->
        <rect x="40" y="90" width="370" height="70" rx="8" fill="#3ecc5f" opacity="0.15" stroke="#3ecc5f" stroke-width="2"/>
        <circle cx="70" cy="125" r="20" fill="#3ecc5f"/>
        <text x="70" y="132" font-family="Arial, sans-serif" font-size="24" fill="#fff" font-weight="bold" text-anchor="middle">✓</text>
        <text x="110" y="115" font-family="Arial, sans-serif" font-size="22" fill="#3f3d56" font-weight="bold">Quality Score</text>
        <text x="110" y="145" font-family="Arial, sans-serif" font-size="18" fill="#3f3d56">95% - Excellent</text>
        
        <rect x="40" y="180" width="370" height="70" rx="8" fill="#6c63ff" opacity="0.15" stroke="#6c63ff" stroke-width="2"/>
        <circle cx="70" cy="215" r="20" fill="#6c63ff"/>
        <text x="70" y="222" font-family="Arial, sans-serif" font-size="24" fill="#fff" font-weight="bold" text-anchor="middle">✓</text>
        <text x="110" y="205" font-family="Arial, sans-serif" font-size="22" fill="#3f3d56" font-weight="bold">Schema Status</text>
        <text x="110" y="235" font-family="Arial, sans-serif" font-size="18" fill="#3f3d56">Stable - No changes detected</text>
        
        <rect x="40" y="270" width="370" height="70" rx="8" fill="#ff6584" opacity="0.15" stroke="#ff6584" stroke-width="2"/>
        <circle cx="70" cy="305" r="20" fill="#ff6584"/>
        <text x="70" y="312" font-family="Arial, sans-serif" font-size="20" fill="#fff" font-weight="bold" text-anchor="middle">⚠</text>
        <text x="110" y="295" font-family="Arial, sans-serif" font-size="22" fill="#3f3d56" font-weight="bold">Anomalies</text>
        <text x="110" y="325" font-family="Arial, sans-serif" font-size="18" fill="#3f3d56">2 detected - Review recommended</text>
      </g>
      
      <!-- Decorative elements (Docusaurus style) -->
      <circle id="Ellipse_11" data-name="Ellipse 11" cx="4" cy="4" r="4" transform="translate(479 98.962)" fill="#6c63ff" opacity="0.6"/>
      <circle id="Ellipse_12" data-name="Ellipse 12" cx="3" cy="3" r="3" transform="translate(396 201.962)" fill="#3ecc5f" opacity="0.6"/>
      <circle id="Ellipse_13" data-name="Ellipse 13" cx="3" cy="3" r="3" transform="translate(600 220.962)" fill="#ff6584" opacity="0.6"/>
    </g>
  </g>
</svg>
