<svg width="98" height="40" viewBox="0 0 98 40" fill="none" xmlns="http://www.w3.org/2000/svg">
<path d="M10.7029 8.28922L0.273705 8.28921C0.121013 8.28921 7.62382e-06 8.42007 7.61707e-06 8.57831L7.45522e-06 12.3761C7.44834e-06 12.5374 0.123893 12.6652 0.273704 12.6652L3.70496 12.6652L3.70496 30.6072C3.70496 30.7685 3.82884 30.8963 3.97865 30.8963L6.99792 30.8963C7.15061 30.8963 7.27161 30.7654 7.27161 30.6072L7.27161 12.6682L10.7029 12.6682C10.8556 12.6682 10.9766 12.5374 10.9766 12.3791L10.9766 8.58135C10.9766 8.42007 10.8527 8.29226 10.7029 8.29226L10.7029 8.28922Z" fill="white"/>
<path d="M18.4183 8.28921L13.342 8.28921C13.1893 8.28921 13.0683 8.42007 13.0683 8.57831L13.0683 34.3776C13.0683 34.5389 13.1922 34.6667 13.342 34.6667L16.3612 34.6667C16.5139 34.6667 16.6349 34.5358 16.6349 34.3776L16.6349 30.8993L18.4183 30.8993C21.3741 30.8993 23.7682 28.3675 23.7682 25.2483L23.7682 13.9433C23.7682 10.8211 21.3713 8.29226 18.4183 8.29226L18.4183 8.28921ZM18.4183 27.1289L16.6349 27.1289L16.6349 12.0596L18.4183 12.0596C19.4007 12.0657 20.1987 12.9056 20.2016 13.9433L20.2016 25.2483C20.1958 26.286 19.4007 27.1289 18.4183 27.132L18.4183 27.1289Z" fill="white"/>
<path d="M92.6497 8.28921L85.5135 8.28921C82.5576 8.28921 80.1635 10.8211 80.1635 13.9402L80.1635 25.2453C80.1635 28.3675 82.5604 30.8963 85.5135 30.8963L87.2968 30.8963L87.2968 34.3745C87.2968 34.5358 87.4207 34.6636 87.5705 34.6636L90.5897 34.6636C90.7424 34.6636 90.8634 34.5328 90.8634 34.3745L90.8634 30.8963L92.6468 30.8963C95.6027 30.8963 97.9968 28.3644 97.9968 25.2453L97.9968 13.9433C97.9996 10.8211 95.6027 8.28921 92.6497 8.28921ZM87.2997 27.1289L85.5163 27.1289C84.531 27.1289 83.733 26.286 83.733 25.2453L83.733 13.9433C83.7359 12.9025 84.5339 12.0626 85.5163 12.0596L87.2997 12.0596L87.2997 27.132L87.2997 27.1289ZM94.4359 25.2453C94.4359 26.286 93.6378 27.1289 92.6525 27.1289L90.8692 27.1289L90.8692 12.0596L92.6525 12.0596C93.6378 12.0626 94.433 12.9056 94.4359 13.9433L94.4359 25.2483L94.4359 25.2453Z" fill="white"/>
<path d="M33.6645 8.58131L33.6645 22.9599C33.6761 23.9215 33.0163 24.7462 32.1174 24.8953C31.1379 25.0322 30.2419 24.3049 30.1123 23.2703C30.1008 23.1881 30.0979 23.106 30.0979 23.0238L30.0979 8.58131C30.0979 8.42003 29.974 8.29222 29.8242 8.29222L26.8049 8.29222C26.6522 8.29222 26.5312 8.42307 26.5312 8.58131L26.5312 22.8595C26.5053 25.6135 28.3203 28.0023 30.87 28.5713C31.8034 28.7661 32.7714 28.687 33.6674 28.3492L33.6674 29.0156C33.6616 30.0533 32.8665 30.8962 31.8841 30.8993L28.4528 30.8993C28.3001 30.8993 28.1791 31.0301 28.1791 31.1884L28.1791 34.3775C28.1791 34.5388 28.303 34.6666 28.4528 34.6666L31.8841 34.6666C34.84 34.6666 37.2341 32.1348 37.2341 29.0156L37.2341 8.58131C37.2341 8.42003 37.1102 8.29222 36.9604 8.29222L33.9411 8.29222C33.7884 8.29222 33.6674 8.42307 33.6674 8.58131L33.6645 8.58131Z" fill="white"/>
<path d="M50.7688 8.28922L47.7496 8.28921C47.5969 8.28921 47.4759 8.42007 47.4759 8.57831L47.4759 14.9566C47.4701 15.9943 46.675 16.8372 45.6925 16.8403L43.9092 16.8403L43.9092 8.58135C43.9092 8.42007 43.7853 8.29226 43.6355 8.29226L40.6162 8.29226C40.4636 8.29226 40.3426 8.42311 40.3426 8.58135L40.3426 30.6102C40.3426 30.7715 40.4664 30.8993 40.6162 30.8993L43.6355 30.8993C43.7882 30.8993 43.9092 30.7685 43.9092 30.6102L43.9092 21.0458L45.6925 21.0458C46.675 21.0519 47.473 21.8918 47.4759 22.9295L47.4759 30.6102C47.4759 30.7715 47.5998 30.8993 47.7496 30.8993L50.7688 30.8993C50.9215 30.8993 51.0425 30.7685 51.0425 30.6102L51.0425 22.9295C51.0425 21.4353 50.4836 20.002 49.4839 18.9431C50.4836 17.8841 51.0454 16.4508 51.0425 14.9566L51.0425 8.58135C51.0425 8.42007 50.9186 8.29226 50.7688 8.29226L50.7688 8.28922Z" fill="white"/>
<path d="M58.8932 8C55.9373 8 53.5432 10.5318 53.5432 13.651L53.5432 25.5343C53.5432 28.6565 55.9402 31.1853 58.8932 31.1853C61.8462 31.1853 64.2432 28.6534 64.2432 25.5343L64.2432 13.651C64.2432 10.5288 61.8462 8 58.8932 8ZM58.8932 27.421C57.9079 27.421 57.1099 26.578 57.1099 25.5373L57.1099 13.651C57.1099 12.6103 57.9079 11.7673 58.8932 11.7673C59.8785 11.7673 60.6766 12.6103 60.6766 13.651L60.6766 25.5343C60.6766 26.575 59.8785 27.4179 58.8932 27.4179L58.8932 27.421Z" fill="white"/>
<path d="M73.8512 8.58131L73.8512 17.7106L70.2846 17.7106L70.2846 8.58131C70.2846 8.42003 70.1607 8.29222 70.0109 8.29222L66.9916 8.29222C66.8389 8.29222 66.7179 8.42307 66.7179 8.58131L66.7179 30.6102C66.7179 30.7715 66.8418 30.8993 66.9916 30.8993L70.0109 30.8993C70.1636 30.8993 70.2846 30.7684 70.2846 30.6102L70.2846 21.4809L73.8512 21.4809L73.8512 30.6102C73.8512 30.7715 73.9751 30.8993 74.1249 30.8993L77.1442 30.8993C77.2969 30.8993 77.4179 30.7684 77.4179 30.6102L77.4179 8.58131C77.4179 8.42003 77.294 8.29222 77.1442 8.29222L74.1249 8.29222C73.9723 8.29222 73.8512 8.42307 73.8512 8.58131Z" fill="white"/>
</svg>
