<svg width="626" height="681" viewBox="0 0 626 681" fill="none" xmlns="http://www.w3.org/2000/svg">
<path d="M313 625.89C485.716 625.89 625.73 485.876 625.73 313.16C625.73 140.444 485.716 0.429993 313 0.429993C140.284 0.429993 0.27002 140.444 0.27002 313.16C0.27002 485.876 140.284 625.89 313 625.89Z" fill="#FAD87A"/>
<path d="M555.62 257.8C605.12 307.3 605.12 388.18 555.62 437.68L313 680.3L70.38 437.68C20.88 388.18 20.88 307.3 70.38 257.8L313 15.18L555.62 257.8Z" fill="#693B2F"/>
<path d="M464.09 474.8C432.03 474.4 400.08 462.03 375.74 437.68L313 374.94L250.27 437.68C225.92 462.03 193.97 474.4 161.92 474.8L313.01 625.89L464.1 474.8H464.09Z" fill="#FAD87A"/>
<path d="M464.09 474.8C432.03 474.4 400.08 462.03 375.74 437.68L313 374.94V625.88L464.09 474.79V474.8Z" fill="#F8C173"/>
<path d="M375.81 257.73C400.16 233.45 432 221.08 464.09 220.68L313 69.59L161.91 220.68C194.18 221.08 225.74 233.45 250.26 257.8L312.99 320.54L375.8 257.74L375.81 257.73Z" fill="#D13C31"/>
<path d="M402.98 284.97C368.29 319.66 368.29 375.83 402.94 410.48C437.41 444.95 493.94 444.95 528.41 410.48C562.88 376.01 562.88 319.48 528.41 285.01C493.95 250.55 437.46 250.54 402.98 284.97Z" fill="white"/>
<path d="M97.59 410.48C132.06 444.95 188.59 444.95 223.06 410.48C257.72 375.82 257.71 319.64 223.02 284.97C188.57 250.54 132.05 250.54 97.59 285.01C63.13 319.48 63.12 376.01 97.59 410.48Z" fill="white"/>
<path d="M160.33 413.43C196.61 413.43 226.02 384.02 226.02 347.74C226.02 311.46 196.61 282.05 160.33 282.05C124.05 282.05 94.64 311.46 94.64 347.74C94.64 384.02 124.05 413.43 160.33 413.43Z" fill="#693B2F"/>
<path d="M465.68 413.43C501.96 413.43 531.37 384.02 531.37 347.74C531.37 311.46 501.96 282.05 465.68 282.05C429.4 282.05 399.99 311.46 399.99 347.74C399.99 384.02 429.4 413.43 465.68 413.43Z" fill="#693B2F"/>
<path d="M123 315.14C130.572 315.14 136.71 309.002 136.71 301.43C136.71 293.858 130.572 287.72 123 287.72C115.428 287.72 109.29 293.858 109.29 301.43C109.29 309.002 115.428 315.14 123 315.14Z" fill="white"/>
<path d="M428.35 315.14C435.922 315.14 442.06 309.002 442.06 301.43C442.06 293.858 435.922 287.72 428.35 287.72C420.778 287.72 414.64 293.858 414.64 301.43C414.64 309.002 420.778 315.14 428.35 315.14Z" fill="white"/>
<path d="M313 69.59L161.91 220.68C194.18 221.08 225.74 233.45 250.26 257.8L312.99 320.54V69.6L313 69.59Z" fill="#EF5440"/>
<path d="M161.92 474.8L313 625.89L464.09 474.8L313 594.36L161.92 474.8Z" fill="#FFE9AD"/>
<path d="M464.09 220.68L313 69.59L161.92 220.68L313 93.11L464.09 220.68Z" fill="#FA897B"/>
<path d="M294.57 434.68C301.89 436.64 305.23 447.88 302.04 459.78C298.85 471.68 290.34 479.74 283.02 477.78C275.7 475.82 272.36 464.58 275.55 452.68C278.74 440.78 287.25 432.72 294.57 434.68Z" fill="#693B2F"/>
<path d="M331.43 434.68C324.11 436.64 320.77 447.88 323.96 459.78C327.15 471.68 335.66 479.74 342.98 477.78C350.3 475.82 353.64 464.58 350.45 452.68C347.26 440.78 338.75 432.72 331.43 434.68Z" fill="#693B2F"/>
</svg>
