<?xml version="1.0" encoding="UTF-8" standalone="no"?>
<!-- Created with Inkscape (http://www.inkscape.org/) -->

<svg
   version="1.1"
   id="svg1"
   width="2164"
   height="640"
   viewBox="0 0 2164 640"
   sodipodi:docname="logo.svg"
   inkscape:version="1.4.2 (ebf0e940, 2025-05-08)"
   xmlns:inkscape="http://www.inkscape.org/namespaces/inkscape"
   xmlns:sodipodi="http://sodipodi.sourceforge.net/DTD/sodipodi-0.dtd"
   xmlns="http://www.w3.org/2000/svg"
   xmlns:svg="http://www.w3.org/2000/svg">
  <defs
     id="defs1" />
  <sodipodi:namedview
     id="namedview1"
     pagecolor="#ffffff"
     bordercolor="#000000"
     borderopacity="0.25"
     inkscape:showpageshadow="2"
     inkscape:pageopacity="0.0"
     inkscape:pagecheckerboard="true"
     inkscape:deskcolor="#d1d1d1"
     showgrid="false"
     inkscape:zoom="0.25624612"
     inkscape:cx="913.18457"
     inkscape:cy="-216.58865"
     inkscape:window-width="1512"
     inkscape:window-height="840"
     inkscape:window-x="0"
     inkscape:window-y="38"
     inkscape:window-maximized="1"
     inkscape:current-layer="g1" />
  <g
     inkscape:groupmode="layer"
     inkscape:label="Image"
     id="g1">
    <path
       style="fill:#288f7a"
       d="m 105.82543,631.36312 c -15.931677,-2.6679 -32.769247,-10.406 -44.628477,-20.5098 -12.71869,-10.8362 -20.24571,-22.538 -24.38045,-37.903 -1.81969,-6.7621 -1.8837,-14.9697 -1.8837,-241.5 0,-220.71963 0.10429,-234.99947 1.77475,-242.99997 1.91545,-9.17386 5.2665,-17.10051 12.33217,-29.17083 3.63923,-6.2169 6.28749,-9.15478 13.97201,-15.5 12.1247,-10.01154 19.88134,-14.7091 29.89998,-18.10797 l 8.021077,-2.7212 h 180.5 c 203.46696,0 184.87848,-0.73091 202.59191,7.9661 13.36656,6.56277 25.40949,17.51072 32.69801,29.72501 6.08367,10.19517 10.20924,21.20571 12.29325,32.80889 1.10294,6.14082 1.35338,48.96284 1.38194,236.29217 0.0384,251.9758 0.4475,234.9863 -6.0606,251.7078 -6.41936,16.4935 -22.54509,33.4745 -39.37678,41.4651 -4.96525,2.3572 -13.75273,5.4683 -19.52773,6.9134 l -10.5,2.6276 -172,-0.119 c -94.6,-0.065 -174.29831,-0.5039 -177.10736,-0.9743 z m 348.10736,-34.8314 c 17.79132,-3.7025 32.98998,-17.0233 39.83078,-34.9096 l 2.16922,-5.6718 0.26078,-224.7623 c 0.22524,-194.13859 0.0614,-225.71859 -1.20272,-231.7812 -4.05186,-19.43286 -19.05319,-36.1879 -36.55806,-40.83187 -3.42504,-0.90865 -46.20367,-1.12584 -179.08044,-0.90921 l -174.58043,0.28461 -7.800397,4 c -5.69489,2.92031 -9.41192,5.75452 -13.77063,10.5 -10.00012,10.8875 -13.00545,17.52667 -14.72377,32.52682 -0.67318,5.87646 -1.03075,84.51465 -1.03612,227.86535 l -0.008,218.8922 2.11236,7.1078 c 2.74523,9.2373 4.65987,12.8867 10.45293,19.9235 7.07716,8.5965 22.234937,16.7294 34.342457,18.4264 2.97426,0.4168 79.24926,0.7197 169.5,0.6729 127.03471,-0.066 165.44725,-0.3669 170.09225,-1.3336 z m -188,-95.1396 c -19.92771,-1.9569 -44.91283,-9.0978 -62.01486,-17.7241 -24.64956,-12.4333 -50.70301,-34.8737 -67.01052,-57.7177 -10.18439,-14.2666 -21.99303,-44.1406 -26.48383,-67 -3.26889,-16.6396 -3.73341,-37.8075 -1.16304,-53 4.2803,-25.29921 6.92115,-34.36804 16.11882,-55.353 8.36119,-19.07648 28.36767,-42.98745 51.90634,-62.03643 11.62606,-9.40854 18.19112,-13.40654 32.94786,-20.06462 36.27319,-16.36609 79.6561,-20.06242 117.24215,-9.98933 44.02752,11.7994 75.69188,34.92226 102.62723,74.94341 8.40601,12.48985 18.74559,35.13604 20.53419,44.97486 0.55242,3.03883 1.61726,7.77514 2.36631,10.52514 3.65784,13.42917 4.83672,23.22267 4.81496,39.99997 -0.0248,19.16713 -1.16287,28.1783 -5.54186,43.8822 -10.73347,38.4925 -31.2777,69.3499 -61.47745,92.339 -16.10743,12.2615 -25.78867,17.7683 -43.8663,24.9517 -26.2396,10.4266 -52.44839,14.0728 -81,11.2689 z m 39.29216,-34.4905 c 10.22972,-2.0555 31.22129,-8.9411 38.70784,-12.6968 14.0426,-7.0447 33.87229,-21.8699 43.54271,-32.5536 22.41355,-24.762 34.89273,-54.4794 36.59908,-87.1554 0.7583,-14.5212 -0.64456,-26.066 -5.17686,-42.60301 -3.84599,-14.0329 -9.15428,-26.94985 -15.33734,-37.3212 -5.86514,-9.83807 -23.47337,-29.633 -33.59874,-37.77125 -16.06563,-12.91271 -40.60758,-23.93703 -63.36485,-28.46368 -9.24948,-1.83982 -12.98527,-2.05309 -28.164,-1.6079 -19.29279,0.56586 -30.25526,2.67018 -45.58388,8.75012 -16.94362,6.72051 -28.16684,13.23243 -39.52298,22.93198 -26.10805,22.29948 -40.64288,46.06405 -48.95356,80.03944 -1.99499,8.1559 -2.32916,12.1176 -2.36179,28 -0.0419,20.4017 1.07456,28.01033 6.60313,45 4.54684,13.9727 7.12536,19.2936 15.26514,31.5 22.41321,33.6109 54.24446,55.0768 94.13272,63.4799 11.63924,2.452 36.13887,2.6966 47.21338,0.4714 z m -35.29216,-12.0761 c -11.63611,-1.2442 -30.24168,-6.5545 -42.37708,-12.0951 -18.7662,-8.5679 -39.99936,-27.1663 -51.65361,-45.2439 -8.361,-12.9692 -15.80055,-30.6102 -19.18631,-45.49527 -2.25422,-9.91053 -2.24849,-37.43303 0.01,-47.23873 2.61072,-11.33578 10.49761,-32.03204 15.53443,-40.76439 12.3028,-21.32944 34.90599,-41.91631 57.7919,-52.63656 14.00877,-6.56202 21.86425,-8.79701 36.38084,-10.35084 38.60744,-4.13249 66.21295,3.97413 97.03748,28.49598 13.61544,10.8315 21.02926,19.72551 31.22039,37.45364 11.80588,20.53709 16.7329,42.78447 15.39181,69.49997 -1.75076,34.8765 -17.11508,64.8797 -45.64968,89.1441 -8.70966,7.4062 -13.79714,10.7461 -24.5,16.0841 -16.96333,8.4602 -33.41979,12.548 -53,13.165 -7.15,0.2254 -14.8,0.2173 -17,-0.018 z m 34.5,-35.4941 c 10.09564,-2.4521 20.44357,-7.204 31.78627,-14.5966 20.67274,-13.4733 34.944,-34.8429 40.12582,-60.0837 1.54695,-7.5352 1.34632,-26.8556 -0.36226,-34.8854 -5.65226,-26.56403 -22.38132,-49.9156 -45.69003,-63.77728 -16.39753,-9.75161 -30.22157,-13.05169 -51.3598,-12.26066 -15.32026,0.57331 -26.27677,3.09736 -37.99913,8.75386 -8.64268,4.17043 -24.13591,16.20218 -30.31011,23.53826 -11.25236,13.36987 -19.2485,30.61332 -22.2869,48.06112 -1.664,9.5554 -0.51367,26.617 2.56871,38.09863 9.63104,35.87477 39.99179,62.54077 78.31285,68.78247 10.7791,1.7557 23.74446,1.1553 35.21458,-1.6307 z m -34.5,-29.5127 c -17.69257,-2.747 -36.25801,-16.0699 -43.13519,-30.9546 -5.1641,-11.17697 -6.66419,-19.562 -6.06726,-33.9138 0.79015,-18.9968 6.41754,-32.27759 18.50215,-43.66544 11.86596,-11.1818 26.451,-16.78001 43.81381,-16.81717 11.87866,-0.0254 17.69932,1.37049 29.05424,6.9678 8.68677,4.28207 11.13461,6.06829 16.80582,12.26347 10.64415,11.62754 17.52643,29.06274 17.52643,44.40044 0,11.8923 -4.34635,26.19063 -10.81225,35.5693 -4.88651,7.0878 -14.89718,16.3148 -20.87728,19.243 -11.32061,5.5431 -16.06619,6.6826 -29.31047,7.0376 -6.875,0.1844 -13.85,0.1256 -15.5,-0.1306 z m 1423.50011,187.8652 c 0,-1.2857 4.643,-9.4556 13.2037,-23.2336 7.3944,-11.901 27.3028,-43.7504 35.4489,-56.7111 3.3839,-5.3839 7.8839,-12.9708 10,-16.8598 3.5793,-6.5783 11.8332,-19.678 30.4191,-48.2778 28.8347,-44.3706 53.4287,-84.85117 55.4822,-91.321 0.6599,-2.0792 0.5442,-2.0932 -12.1938,-1.4731 -23.4669,1.1423 -30.6961,1.1347 -31.0852,-0.033 -0.4711,-1.4133 26.0082,-29.4348 50.3672,-53.30075 10.3718,-10.16189 37.5485,-36.93689 60.3927,-59.5 53.2103,-52.55579 85.6794,-84.33365 94.4865,-92.47506 3.8383,-3.54817 11.2537,-10.52697 16.4787,-15.50844 23.2237,-22.14131 41.0673,-38.73613 48,-44.64082 4.125,-3.51331 9.4125,-8.29112 11.75,-10.61736 2.3375,-2.32624 4.25,-3.95698 4.25,-3.62387 0,1.00455 -3.8241,7.1003 -13.9101,22.17342 -5.2744,7.88243 -11.6149,17.43638 -14.0899,21.23098 -5.1469,7.89115 -10.6673,15.98209 -23.4962,34.43731 -4.9703,7.15 -10.3794,15.11189 -12.0203,17.69309 -1.6409,2.5812 -8.4266,12.2562 -15.0792,21.5 -6.6526,9.2438 -14.9425,21.08191 -18.4219,26.30691 -3.4795,5.225 -9.1333,13.325 -12.5641,18 -17.2427,23.49579 -24.718,34.706 -23.9605,35.93164 0.413,0.66835 5.4834,1.06836 13.5422,1.06836 7.3281,0 13.1429,0.42223 13.4872,0.97933 0.9916,1.60448 -1.3955,5.06106 -9.4058,13.61947 -4.1698,4.45509 -12.0814,13.16833 -17.5814,19.36276 -5.5,6.19443 -17.0301,18.97463 -25.6225,28.40053 -8.5924,9.4258 -20.2781,22.5379 -25.9682,29.13793 -5.6902,6.6 -11.3987,13.12497 -12.6857,14.49997 -1.287,1.375 -9.1763,10.5715 -17.5318,20.4367 -14.4642,17.0777 -47.8124,55.3445 -57.6051,66.1016 -2.5227,2.771 -6.1642,6.821 -8.0923,9 -21.8533,24.6966 -33.2359,37.674 -42.3683,48.3042 -5.9807,6.9616 -14.3057,16.4727 -18.5,21.1357 -4.1944,4.663 -9.863,10.963 -12.5971,14 -2.734,3.037 -9.5057,10.2468 -15.0483,16.0218 -5.5425,5.775 -11.7431,12.4935 -13.779,14.93 -2.0359,2.4365 -3.7017,3.9231 -3.7017,3.3036 z m -282,-14.2433 c -4.125,-0.4862 -9.3,-1.2634 -11.5,-1.7271 -3.9178,-0.8258 -4.0063,-0.9398 -4.3045,-5.547 -0.2655,-4.0996 3.0344,-29.4916 5.7462,-44.2162 0.5064,-2.75 1.1952,-7.0767 1.5306,-9.615 1.0518,-7.9602 1.6602,-8.3071 15.6952,-8.9491 10.7506,-0.4917 12.9965,-0.9059 17.5086,-3.2293 2.8468,-1.466 5.4156,-3.4621 5.7085,-4.436 1.2426,-4.1326 9.6034,-58.3469 11.0681,-71.7706 0.3601,-3.3 1.5166,-12.525 2.5699,-20.5 1.0533,-7.975 3.5106,-27.775 5.4605,-43.99997 1.9499,-16.22503 4.4328,-35.35003 5.5174,-42.50003 2.0195,-13.31155 3.311,-23.87878 7.5164,-61.49997 1.3218,-11.825 3.3212,-27.71218 4.4432,-35.30485 1.1219,-7.59267 2.0399,-15.32861 2.0399,-17.19098 0,-1.86238 0.4766,-3.68072 1.0592,-4.04077 0.5826,-0.36004 16.8951,-0.65003 36.25,-0.64441 l 35.1908,0.0102 -0.2545,7.3354 c -0.2408,6.93957 -1.9131,22.85577 -4.2116,40.08539 -0.5686,4.2625 -1.4986,11.2375 -2.0666,15.5 -0.568,4.2625 -1.6988,13.15 -2.513,19.75 -0.8142,6.6 -2.3542,18.3 -3.4224,25.99999 -1.0681,7.7 -2.4413,19.85 -3.0514,27 -0.6101,7.15 -2.3854,20.65 -3.945,30.00003 -2.998,17.97217 -4.28,27.41267 -6.043,44.49997 -0.5959,5.775 -1.5067,14.325 -2.024,19 -0.5173,4.675 -1.6431,16.15 -2.5019,25.5 -4.4943,48.9366 -9.7986,69.3103 -22.5202,86.5 -12.2692,16.5783 -26.8347,26.1931 -47.9464,31.6499 -10.7903,2.7889 -28.5788,3.8043 -41,2.3404 z m -356.5,-94.9937 c -8.5449,-1.2591 -21.5864,-5.3924 -28.2928,-8.9669 -25.9299,-13.8205 -42.20725,-43.5186 -42.20725,-77.0076 0,-20.3321 6.0377,-39.6789 16.39615,-52.5382 15.18,-18.8453 30.0106,-25.7409 67.6039,-31.4335 13.5653,-2.0542 29.3197,-5.11021 43.5,-8.43817 8.7275,-2.04824 9.0361,-2.21818 10.1936,-5.6122 0.6564,-1.925 1.2145,-8.225 1.2402,-14 0.04,-9.0111 -0.2877,-11.209 -2.3112,-15.5 -2.951,-6.2577 -5.5523,-8.66215 -13.1255,-12.13251 -4.4884,-2.05671 -8.0327,-2.85544 -14.0885,-3.17486 -19.1945,-1.01243 -33.1358,8.72825 -35.398,24.73237 -0.4828,3.41552 -1.4128,6.85465 -2.0666,7.64252 -0.9766,1.1767 -5.8738,1.43248 -27.4269,1.43248 -31.96855,0 -35.31575,-0.34926 -36.17545,-3.77475 -1.0459,-4.16717 3.4603,-22.7685 8.03245,-33.15729 5.1504,-11.70285 8.7864,-17.12541 17.9556,-26.77824 15.1644,-15.96418 30.4741,-24.35233 52.6467,-28.84508 12.0808,-2.44788 42.0653,-1.59029 53.5236,1.53082 18.181,4.9523 30.2347,11.66245 41.8943,23.32208 12.1159,12.1159 16.9666,21.86488 22.7395,45.70246 3.4854,14.39205 3.5233,15.53677 4.253,128.49997 l 0.394,61 2.7294,10.2968 c 1.5012,5.6633 2.5441,10.4822 2.3176,10.7088 -0.684,0.684 -62.6217,0.7398 -63.7258,0.058 -0.5635,-0.3483 -1.2966,-2.3049 -1.6292,-4.3481 -1.6733,-10.2808 -4.6758,-25.7344 -5.1486,-26.4994 -0.2945,-0.4765 -2.1189,2.2051 -4.0543,5.9591 -4.9561,9.6132 -7.4499,12.6432 -14.547,17.6747 -8.0909,5.736 -14.5506,8.9262 -23.4059,11.5595 -8.233,2.4482 -22.8584,3.4079 -31.817,2.0878 z m 41,-61.3559 c 10.9558,-2.9266 20.6372,-10.1463 24.4322,-18.2198 2.08,-4.425 3.2005,-12.8152 4.5183,-33.83107 0.3073,-4.9006 1.0162,-10.60933 1.5754,-12.68603 2.076,-7.7095 0.3569,-8.6967 -7.6321,-4.3831 -9.9191,5.3557 -22.8556,9.43403 -36.4294,11.48473 -16.0988,2.4321 -21.1835,4.5435 -23.9362,9.93937 -7.2171,14.1467 -6.156,34.1744 2.2184,41.869 1.385,1.2727 5.1586,3.3995 8.3858,4.7263 6.8538,2.8179 18.6323,3.3004 26.8676,1.1006 z m 514.9303,61.3128 c -19.4875,-2.5455 -36.0191,-11.2071 -50.0812,-26.2394 -10.2678,-10.9764 -16.2614,-24.1118 -18.4317,-40.3949 -2.1822,-16.372 1.3701,-37.6022 9.0248,-53.93687 3.379,-7.21063 5.29,-9.68633 14.2305,-18.43563 10.5255,-10.3003 20.1167,-17.5328 29.6545,-22.3616 7.7873,-3.9425 21.4982,-7.0036 49.6728,-11.0899 25.6184,-3.71561 45.1686,-7.47577 49.7706,-9.57261 5.9058,-2.69087 8.9166,-21.52357 4.8637,-30.42256 -5.2014,-11.42084 -20.58,-17.29159 -38.1534,-14.56499 -14.0325,2.17721 -25.9809,12.73993 -25.9809,22.96777 0,1.63186 -0.4389,4.12132 -0.9752,5.53212 l -0.9753,2.5651 h -31.5905 c -21.1219,0 -32.2737,-0.36566 -33.6522,-1.10342 -1.8795,-1.00586 -2.0023,-1.69104 -1.3889,-7.75 0.9482,-9.36531 4.1336,-21.57776 7.5145,-28.80981 3.7093,-7.93425 13.2088,-21.88385 16.7879,-24.6523 1.5288,-1.18252 4.5071,-3.73279 6.6184,-5.66726 21.4683,-19.67039 60.9137,-30.21568 97.44,-26.0495 24.973,2.84841 54.4899,18.12553 64.5903,33.43016 6.7071,10.16286 9.5713,16.28572 12.2104,26.10213 4.1309,15.36582 4.4528,35.24688 1.0366,64.02747 -1.4344,12.0849 -3.7385,32.0975 -5.1202,44.4725 -1.3817,12.375 -2.7296,23.625 -2.9953,25 -0.2657,1.375 -1.6049,12.625 -2.976,25 -1.3711,12.375 -2.7066,24.3 -2.9679,26.5 -0.497,4.1853 -0.8202,7.2315 -2.5995,24.5 -0.595,5.775 -1.289,11.5191 -1.5422,12.7646 l -0.4603,2.2647 -30.2165,-0.2647 -30.2165,-0.2646 -1.2176,-12.8734 c -0.6696,-7.0804 -1.4986,-13.1545 -1.8422,-13.4982 -0.3437,-0.3436 -1.5727,0.7244 -2.7312,2.3734 -6.4876,9.234 -21.7684,20.2117 -35.2306,25.3094 -14.8129,5.6092 -27.0473,7.1046 -42.0697,5.1423 z m 42.5092,-62.5015 c 8.7303,-1.6561 22.0887,-7.1904 25.8224,-10.698 7.2134,-6.7766 12.4083,-19.968 14.6773,-37.2697 1.962,-14.9603 2.0417,-22.4843 0.2384,-22.4843 -0.7273,0 -3.8749,1.3825 -6.9947,3.0722 -12.2334,6.626 -21.939,9.55533 -41.039,12.38633 -5.9709,0.885 -12.6145,2.5062 -14.7634,3.6025 -10.7581,5.48827 -15.9871,23.56077 -10.816,37.38187 2.3949,6.4009 6.9008,10.6231 14.4355,13.5263 6.1713,2.3779 8.1729,2.4303 18.4395,0.4828 z m -432.1895,56.7316 c -1.5125,-0.174 -2.7526,-0.624 -2.7558,-1 -0.076,-8.8591 -0.1712,-375.99222 -0.099,-378.94742 l 0.1045,-4.26385 32.046,0.26385 32.046,0.26385 -0.01,73.75 c 0,40.5625 0.3263,73.75 0.7315,73.75 0.4052,0 1.9831,-2.86102 3.5065,-6.35782 3.3612,-7.71547 12.8018,-20.26142 19.3593,-25.72744 6.711,-5.59392 19.4183,-11.66078 28.316,-13.51892 10.7761,-2.2504 25.156,-1.47014 35.5,1.92625 11.5839,3.80352 19.849,9.02357 29.5644,18.67229 6.8879,6.84057 9.4981,10.3303 13.3337,17.82649 5.6366,11.01594 8.909,20.19273 11.8316,33.17915 2.0922,9.29603 2.1456,11.6453 2.4909,109.41827 0.2176,61.6415 -0.01,100.1411 -0.5866,100.5 -0.5166,0.3199 -15.3832,0.457 -33.0367,0.3046 l -32.0923,-0.2772 v -78.8433 c 0,-74.3714 -0.1136,-79.4974 -2.0026,-90.37589 -3.805,-21.91241 -8.7373,-32.83549 -17.1775,-38.04129 -11.1079,-6.85114 -31.6089,-4.09422 -40.4498,5.43958 -5.7106,6.15803 -11.1717,16.16142 -13.8535,25.37575 -5.3056,18.22965 -5.5043,21.91625 -5.5107,102.24945 l -0.01,74.25 -24.75,0.051 c -13.6125,0.028 -26.775,0.1403 -29.25,0.25 -2.475,0.1097 -5.7375,0.057 -7.25,-0.117 z M 615.43279,325.45032 V 188.45035 h 31.44098 c 24.03176,0 31.62258,0.29383 32.21158,1.24685 0.42383,0.68577 0.68842,9.57327 0.58797,19.75 -0.14332,14.5203 0.0624,17.96502 0.95588,16.00315 0.62618,-1.375 2.38356,-5.2 3.90528,-8.5 3.26166,-7.07319 12.35394,-17.92345 19.55115,-23.33132 8.3766,-6.29406 20.86088,-11.87436 29.61832,-13.23897 10.57977,-1.64858 27.51704,-0.74189 35.22884,1.88588 19.66968,6.70238 34.4381,20.42483 42.1076,39.12537 2.62436,6.39898 4.3924,8.80772 4.3924,5.98415 0,-2.89998 10.3618,-16.48491 19.3846,-25.41436 11.56332,-11.44369 21.12893,-17.18937 34.17046,-20.52483 9.52897,-2.4371 26.11319,-2.65927 36.43459,-0.4881 14.44994,3.03964 32.75101,14.25277 42.05331,25.76616 6.5026,8.04828 13.4578,21.86824 15.9718,31.73602 5.5333,21.71868 5.27,15.98825 5.6869,123.74997 l 0.3879,100.25 h -34.0448 c -33.37604,0 -34.04488,-0.039 -34.05093,-2 -0.003,-1.1 -0.0537,-37.2125 -0.11188,-80.25 -0.1323,-97.93564 -0.6782,-106.06058 -7.85398,-116.89402 -5.75634,-8.6905 -13.31035,-12.01552 -27.14869,-11.94994 -12.26481,0.0581 -19.42233,3.19305 -25.51522,11.17543 -6.78235,8.88565 -8.77583,13.64582 -12.52941,29.91856 -2.12833,9.22687 -2.20776,11.79977 -2.76299,89.49997 l -0.57166,80 -32.19398,0.2638 -32.19398,0.2638 -0.39492,-85.7638 c -0.43888,-95.30845 -0.26002,-92.66877 -7.24659,-106.94845 -6.30927,-12.89538 -15.04581,-18.31532 -29.52294,-18.31532 -21.11628,0 -31.18162,11.11319 -38.03987,42 -2.02847,9.13537 -2.12348,12.53177 -2.47559,88.49997 -0.2014,43.45 -0.38101,79.3375 -0.39915,79.75 -0.0181,0.4125 -15.10798,0.75 -33.53298,0.75 h -33.5 z m 1204.00011,134.6714 c 0,-3.4191 5.1387,-10.6103 15.4102,-21.565 22.0219,-23.4868 39.3996,-43.0882 74.469,-83.99817 4.0586,-4.7345 12.1586,-13.98043 18,-20.54643 17.7707,-19.975 20.3423,-22.9051 28.1208,-32.0402 4.125,-4.8445 11.55,-13.16162 16.5,-18.48253 4.95,-5.3209 10.9241,-12.11892 13.2758,-15.10671 13.5807,-17.25427 17.2606,-22.32351 16.9292,-23.3208 -0.2438,-0.73363 -5.5262,-1.20538 -15.5372,-1.38758 -9.693,-0.1764 -15.1678,-0.65279 -15.1678,-1.31982 0,-2.89597 8.4302,-12.47398 28.7556,-32.67084 12.3246,-12.24669 23.772,-22.97189 25.4387,-23.83377 2.6264,-1.35818 9.7723,-1.57996 53.6079,-1.66377 35.2164,-0.0673 50.6862,0.22932 50.9353,0.97673 0.1968,0.59039 -1.8519,3.4841 -4.5527,6.43047 -2.7008,2.94638 -7.1625,8.05705 -9.915,11.35705 -5.3575,6.42326 -25.0098,28.1606 -36.6652,40.55516 -3.9075,4.15534 -9.8046,10.45634 -13.1046,14.00223 -3.3,3.54588 -13.65,14.53732 -23,24.42542 -9.35,9.8881 -19.925,21.12166 -23.5,24.96336 -3.575,3.8418 -8.583,9.0255 -11.1289,11.5194 -4.8306,4.7321 -6.1362,7.0049 -5.0286,8.7542 0.7697,1.2156 20.2441,22.27913 24.7166,26.73353 1.6826,1.6757 10.8862,11.37167 20.4526,21.54667 21.6105,22.9853 42.7966,45.2144 69.7396,73.1726 6.1868,6.4199 11.2487,12.1574 11.2487,12.75 0,0.7568 -16.3773,1.0774 -55.0455,1.0774 h -55.0454 l -2.2046,-2.3015 c -1.2125,-1.2659 -15.9426,-16.4534 -32.7336,-33.75 -16.7909,-17.2967 -33.2002,-34.2906 -36.465,-37.7643 l -5.9359,-6.3159 -5.0733,5.3159 c -2.7903,2.9237 -8.413,8.9158 -12.4949,13.3158 -22.9395,24.727 -36.6857,39.2739 -47.0119,49.75 l -11.5817,11.75 h -23.2041 -23.2041 z m 14.8267,-189.36223 c -12.5908,-10.18423 -63.0345,-63.68671 -71.6206,-75.96351 -2.8538,-4.08042 -2.8384,-6.32532 0.044,-6.41791 1.2375,-0.0397 23.6828,-0.13885 49.8785,-0.22023 l 47.6284,-0.14795 3.8716,2.73782 c 5.1832,3.66541 21.2343,19.175 25.1966,24.34654 1.7462,2.27915 3.1749,4.91529 3.1749,5.85808 0,2.58795 -50.1311,52.49802 -52.7305,52.49802 -1.1638,0 -3.6131,-1.21089 -5.4428,-2.69086 z m -345.4938,-115.10471 -6.1672,-0.29556 0.9124,-3.18124 c 1.2044,-4.1994 6.5972,-44.42014 8.0404,-59.96654 0.626,-6.7436 1.5708,-12.80586 2.0996,-13.47169 0.7199,-0.90647 10.2406,-1.22418 37.8974,-1.26464 31.7467,-0.0464 37.0159,0.15422 37.5048,1.42819 0.3128,0.81522 -1.4812,13.9843 -3.9868,29.26463 -2.5056,15.28033 -5.0864,31.83242 -5.735,36.78242 -0.6486,4.95 -1.5202,9.38157 -1.9369,9.84793 -0.7175,0.80321 -55.4803,1.48666 -68.6287,0.8565 z"
       id="path10" />
    <path
       style="fill:#f4041f"
       d="m 1702.9112,564.34479 c 1.1726,-4.0887 3.6278,-8.6487 9.5357,-17.7108 2.8685,-4.4 9.3765,-14.75 14.4621,-23 5.0857,-8.25 11.5494,-18.6 14.3637,-23 2.8144,-4.4 7.3892,-12.0781 10.1663,-17.0624 4.7109,-8.4552 13.2661,-22.0675 31.6044,-50.2863 23.6252,-36.3542 38.4486,-60.3148 50.691,-81.9367 7.0211,-12.4003 8.6259,-11.31014 -15.5419,-10.55748 -15.7574,0.49078 -21.0946,0.35608 -21.6522,-0.54617 -0.4221,-0.68292 0.4166,-2.71392 1.9519,-4.72678 5.6222,-7.37112 175.3427,-175.69241 202.0008,-200.33544 3.8383,-3.54817 11.2537,-10.52697 16.4787,-15.50844 19.5417,-18.63088 40.6153,-38.354419 44,-41.181139 5.0866,-4.24807 10.7629,-8.3592 11.5417,-8.3592 3.2003,0 -10.3862,21.64335 -41.9244,66.785709 -4.8855,6.99286 -10.5105,15.28269 -12.5,18.42185 -1.9895,3.13915 -8.6042,12.58915 -14.6993,21 -6.095,8.41084 -14.3835,20.24244 -18.4188,26.29244 -4.0353,6.05 -10.1453,14.825 -13.5778,19.5 -17.1922,23.41548 -24.7216,34.70525 -23.9636,35.93164 0.4112,0.66541 5.3644,1.06836 13.1326,1.06836 16.882,0 17.1369,0.96074 4.002,15.08317 -3.9008,4.19405 -11.5924,12.69153 -17.0924,18.88327 -5.5,6.19175 -17.0352,18.96978 -25.6338,28.39564 -8.5986,9.42586 -18.9052,20.96297 -22.9035,25.63797 -3.9983,4.675 -10.2928,11.875 -13.9878,16 -3.695,4.125 -14.7375,16.95 -24.5388,28.5 -17.204,20.2734 -42.3771,49.0968 -52.8639,60.5297 -2.7897,3.0414 -6.4222,7.0914 -8.0722,9 -1.65,1.9086 -9.3,10.5994 -17,19.3128 -7.7,8.7134 -18.8933,21.5384 -24.8739,28.5 -20.8457,24.2648 -44.5683,50.1661 -49.3576,53.8909 -5.9018,4.5901 -6.2493,4.6864 -5.329,1.4774 z m -287.4395,0.182 c -8.26,-0.8483 -17.0062,-2.568 -18.2314,-3.5848 -0.6977,-0.5791 -1.2686,-2.9829 -1.2686,-5.3417 0,-3.7606 2.9513,-25.1611 5.9255,-42.9663 0.5512,-3.3 1.276,-7.871 1.6107,-10.1578 1.0619,-7.2565 1.6516,-7.5723 15.5649,-8.3361 10.6631,-0.5854 13.1315,-1.0547 17.6319,-3.3517 3.89,-1.9854 5.3896,-3.3746 5.843,-5.4127 0.3354,-1.508 0.7832,-3.4167 0.9949,-4.2417 0.2118,-0.825 0.8182,-4.425 1.3477,-8 0.5294,-3.575 2.3302,-15.4162 4.0018,-26.3137 1.6715,-10.8975 3.5006,-23.7225 4.0646,-28.5 0.5641,-4.7775 1.9344,-15.6613 3.0452,-24.1863 1.1109,-8.525 3.787,-29.9 5.9471,-47.5 2.16,-17.60005 4.8267,-38.30005 5.926,-46.00005 1.0992,-7.7 2.9547,-22.325 4.1232,-32.5 5.0711,-44.15688 9.4643,-77.82412 10.2588,-78.61859 0.8406,-0.84062 69.3935,-0.69796 70.7611,0.14725 0.7789,0.48141 0.9231,2.933 0.4609,7.83597 -0.8407,8.91873 -3.112,28.65589 -4.4748,38.88537 -0.5679,4.2625 -1.4972,11.2375 -2.0652,15.5 -0.568,4.2625 -1.6988,13.15 -2.513,19.75 -0.8142,6.6 -2.3542,18.3 -3.4224,26 -1.0681,7.7 -2.4413,19.85 -3.0514,27 -0.6101,7.15 -2.3854,20.65005 -3.945,30.00005 -2.998,17.9722 -4.28,27.4127 -6.043,44.5 -0.5959,5.775 -1.5067,14.325 -2.024,19 -0.5173,4.675 -1.6431,16.15 -2.5019,25.5 -4.4943,48.9366 -9.7986,69.3102 -22.5202,86.5 -16.2741,21.9898 -39.6503,33.5875 -69.4464,34.4545 -6.6,0.192 -13.8,0.1643 -16,-0.062 z m -1149.00004,-62.451 c -26.51968,-2.6043 -57.663,-13.2228 -77,-26.2534 -19.36892,-13.0522 -37.46451,-29.7753 -49.33087,-45.5893 -12.12809,-16.1629 -24.24258,-45.4747 -29.17834,-70.5991 -3.26889,-16.6396 -3.73341,-37.80759 -1.16304,-53.00005 4.2803,-25.29924 6.92115,-34.36807 16.11882,-55.35303 8.36119,-19.07648 28.36767,-42.98745 51.90634,-62.03643 11.62606,-9.40854 18.19112,-13.40654 32.94786,-20.06462 36.27319,-16.36609 79.6561,-20.06242 117.24215,-9.98933 44.02752,11.7994 75.69188,34.92226 102.62723,74.94341 8.40601,12.48985 18.74559,35.13604 20.53419,44.97486 0.55242,3.03883 1.61726,7.77514 2.36631,10.52514 3.65784,13.42915 4.83672,23.22265 4.81496,40 -0.0248,19.16705 -1.16287,28.17825 -5.54186,43.88225 -10.73347,38.4924 -31.2777,69.3498 -61.47745,92.3389 -16.10743,12.2616 -25.78867,17.7684 -43.8663,24.9517 -26.2396,10.4266 -52.44839,14.0729 -81,11.269 z m 39.5,-34.54 c 10.02219,-2.0035 31.05726,-8.9136 38.5,-12.6474 14.0426,-7.0447 33.87229,-21.8698 43.54271,-32.5535 22.41355,-24.7621 34.89273,-54.4795 36.59908,-87.15552 0.7583,-14.52111 -0.64456,-26.06592 -5.17686,-42.60297 -3.84599,-14.0329 -9.15428,-26.94985 -15.33734,-37.3212 -5.86514,-9.83807 -23.47337,-29.633 -33.59874,-37.77125 -16.06563,-12.91271 -40.60758,-23.93703 -63.36485,-28.46368 -9.24948,-1.83982 -12.98527,-2.05309 -28.164,-1.6079 -19.29279,0.56586 -30.25526,2.67018 -45.58388,8.75012 -16.94362,6.72051 -28.16684,13.23243 -39.52298,22.93198 -26.10805,22.29948 -40.64288,46.06405 -48.95356,80.03947 -1.99499,8.15585 -2.32916,12.11756 -2.36179,28 -0.0417,20.32255 1.04846,27.80795 6.55401,45.00005 6.11084,19.0822 16.14424,35.6234 31.52625,51.9746 22.6522,24.0794 51.93437,39.2068 86.34195,44.605 10.02713,1.5731 27.94569,1.032 39,-1.1778 z m -35.5,-77.0335 c -17.69257,-2.7469 -36.25801,-16.0698 -43.13519,-30.9546 -5.1641,-11.177 -6.66419,-19.56197 -6.06726,-33.91375 0.79015,-18.99686 6.41754,-32.27762 18.50215,-43.66547 11.86596,-11.1818 26.451,-16.78001 43.81381,-16.81717 11.87866,-0.0254 17.69932,1.37049 29.05424,6.9678 8.68677,4.28207 11.13461,6.06829 16.80582,12.26347 10.64415,11.62757 17.52643,29.06277 17.52643,44.40049 0,11.8923 -4.34635,26.19053 -10.81225,35.56923 -4.88651,7.0878 -14.89718,16.3148 -20.87728,19.243 -11.32061,5.5432 -16.06619,6.6826 -29.31047,7.0377 -6.875,0.1843 -13.85,0.1255 -15.5,-0.1307 z m 1340.93034,78.5852 c -19.4875,-2.5455 -36.0191,-11.2071 -50.0812,-26.2395 -10.2687,-10.9773 -16.2629,-24.115 -18.4304,-40.3949 -2.1623,-16.2407 1.4351,-37.7436 9.0235,-53.9369 3.379,-7.2106 5.29,-9.68627 14.2305,-18.43554 10.5255,-10.30038 20.1167,-17.53282 29.6545,-22.36159 7.7873,-3.94253 21.4982,-7.00364 49.6728,-11.08997 25.6184,-3.71559 45.1686,-7.47575 49.7706,-9.57259 5.9058,-2.69087 8.9166,-21.52357 4.8637,-30.42256 -5.2014,-11.42084 -20.58,-17.29159 -38.1534,-14.56499 -7.8975,1.22534 -13.2391,3.81256 -18.7571,9.08494 -4.9868,4.76491 -6.2752,7.26874 -7.2354,14.06187 -0.4846,3.42861 -1.4678,6.60592 -2.1848,7.0607 -1.9262,1.22174 -61.1246,1.06612 -64.3739,-0.16923 -2.6677,-1.01429 -2.6922,-1.10807 -2.0197,-7.75 0.9649,-9.52879 4.1415,-21.65455 7.6248,-29.1052 3.2093,-6.86477 13.2704,-21.86474 15.9633,-23.7996 0.9044,-0.64984 3.8029,-3.12484 6.441,-5.5 15.2001,-13.68488 35.7909,-22.58913 60.5609,-26.18878 28.4338,-4.13209 53.1491,-0.36927 76.1861,11.59906 16.0448,8.33568 23.6685,15.7593 32.6275,31.77123 9.075,16.21928 11.2717,41.94622 6.7904,79.52746 -1.4411,12.0849 -3.7448,32.09754 -5.1194,44.47259 -1.3746,12.375 -2.7142,23.625 -2.977,25 -0.2627,1.375 -1.3778,10.825 -2.4779,21 -1.1001,10.175 -2.4438,21.875 -2.9859,26 -0.5421,4.125 -1.1843,9.75 -1.4272,12.5 -1.3243,14.9982 -2.8608,27.2643 -3.6638,29.25 l -0.9099,2.25 h -29.0429 -29.0429 l -0.9186,-2.25 c -0.5052,-1.2375 -1.3967,-7.1637 -1.981,-13.1692 -0.5844,-6.0055 -1.323,-11.1797 -1.6415,-11.4982 -0.3185,-0.3184 -1.5269,0.7702 -2.6854,2.4192 -6.4876,9.234 -21.7684,20.2116 -35.2306,25.3093 -14.8129,5.6092 -27.0473,7.1047 -42.0697,5.1424 z m 42.5092,-62.5015 c 8.7303,-1.6562 22.0887,-7.1904 25.8224,-10.6981 7.2134,-6.7766 12.4083,-19.9679 14.6773,-37.2697 1.9426,-14.8123 2.0374,-22.48425 0.2781,-22.48425 -0.7055,0 -4.193,1.54069 -7.75,3.42375 -12.5216,6.6288 -24.903,10.1764 -43.5267,12.4712 -8.8623,1.0921 -14.6215,3.9916 -18.4639,9.2959 -8.6043,11.878 -7.6773,31.9598 1.8378,39.8108 4.1046,3.3867 12.2826,6.8664 16.325,6.9462 1.4518,0.029 6.3117,-0.6444 10.8,-1.4958 z m 167.3301,55.298 c -1.7652,-2.2625 0.5564,-7.0932 6.9614,-14.4847 3.4479,-3.979 14.369,-16.0657 24.269,-26.8593 9.9,-10.7936 24.3,-26.9427 32,-35.8869 25.3583,-29.4557 32.6787,-37.8821 43.4002,-49.95737 18.6848,-21.04413 20.4691,-23.07854 28.0998,-32.04023 4.125,-4.84447 11.55,-13.1616 16.5,-18.48251 4.95,-5.3209 10.9241,-12.11892 13.2758,-15.10671 13.5804,-17.2539 17.2606,-22.32351 16.9294,-23.3208 -0.2415,-0.72726 -5.1807,-1.20169 -14.2872,-1.37233 -7.6549,-0.14344 -14.5107,-0.47841 -15.2351,-0.74438 -3.0178,-1.10794 4.2868,-9.96306 26.5849,-32.22832 12.7972,-12.77843 24.6667,-23.95693 26.3765,-24.84113 2.7291,-1.41124 8.9262,-1.60639 50.7323,-1.59756 57.9499,0.0122 53.1234,-0.13237 53.1234,1.5916 0,0.78068 -2.1444,3.81818 -4.7653,6.75 -2.621,2.93183 -6.8446,7.80559 -9.386,10.83059 -5.2307,6.22624 -25.5667,28.70057 -36.2441,40.05516 -3.9075,4.15534 -9.8046,10.45634 -13.1046,14.00223 -3.3,3.54588 -13.65,14.53732 -23,24.42542 -9.35,9.8881 -19.925,21.12162 -23.5,24.96338 -3.575,3.84176 -8.583,9.0255 -11.1289,11.51941 -4.8306,4.73203 -6.1362,7.00491 -5.0286,8.75415 0.7697,1.21559 20.2441,22.2792 24.7166,26.7335 1.6826,1.6757 10.8976,11.3718 20.478,21.5468 22.899,24.3202 54.9047,57.9245 67.4149,70.782 10.9233,11.2264 11.9862,12.6336 11.1631,14.7787 -0.4711,1.2276 -8.4327,1.4393 -54.1292,1.4393 h -53.5768 l -2.2046,-2.3016 c -1.2125,-1.2658 -15.9426,-16.4533 -32.7336,-33.75 -16.7909,-17.2966 -33.206,-34.2966 -36.4778,-37.7777 l -5.9487,-6.3292 -6.0222,6.3759 c -3.3122,3.5067 -15.2255,16.2549 -26.474,28.3292 -11.2484,12.0743 -25.6691,27.2409 -32.0459,33.7034 l -11.5941,11.75 h -22.0817 c -16.4785,0 -22.3291,-0.3172 -23.0569,-1.25 z m 14.1199,-190.35764 c -10.1184,-6.78349 -68.2844,-68.48706 -72.8095,-77.2378 -2.8594,-5.52937 -3.9728,-5.40461 49.1778,-5.5106 l 48.9801,-0.0977 3.881,2.74442 c 5.1813,3.66384 21.3156,19.27775 24.6888,23.89252 4.9817,6.81531 5.1607,6.54072 -22.1118,33.91765 -13.6422,13.69452 -25.5044,24.8991 -26.3604,24.8991 -0.856,0 -3.3067,-1.17341 -5.446,-2.60759 z M 1489.9717,156.13394 c -6.6065,-0.60059 -6.3802,2.40301 -2.1473,-28.5 3.0849,-22.52155 5.0954,-39.835959 5.13,-44.178569 0.041,-5.18613 0.377,-5.23301 37.9242,-5.29508 19.1665,-0.0317 35.5782,0.22258 36.4706,0.56502 2.4877,0.95461 2.0651,7.13298 -2.2851,33.408629 -2.1399,12.925 -4.4462,27.775 -5.1252,33 -0.6789,5.225 -1.5783,9.88157 -1.9987,10.34793 -0.8264,0.91676 -58.9256,1.47415 -67.9685,0.65207 z"
       id="path9" />
  </g>
</svg>
