<svg width="24" height="24" viewBox="0 0 24 24" fill="none" xmlns="http://www.w3.org/2000/svg">
  <!-- Bengal Rosette: Glass spots with thinner strokes -->
  <title>Bengal Rosette</title>

  <!-- Main rosette - glass coin -->
  <ellipse cx="12" cy="11" rx="5" ry="1.5" fill="currentColor" opacity="0.25"/>
  <path d="M7 10 L7 11 A5 1.5 0 0 0 17 11 L17 10" fill="currentColor" opacity="0.35"/>
  <ellipse cx="12" cy="10" rx="5" ry="4" stroke="currentColor" stroke-width="1.5"/>
  <ellipse cx="12" cy="10" rx="2" ry="1.5" fill="currentColor"/>
  <!-- Soft highlight arc -->
  <path d="M9 8 A3 2 0 0 1 14 7" stroke="currentColor" stroke-width="1.5" stroke-linecap="round" opacity="0.4"/>

  <!-- Secondary rosette -->
  <ellipse cx="6.5" cy="17.5" rx="3" ry="0.8" fill="currentColor" opacity="0.2"/>
  <path d="M3.5 17 L3.5 17.5 A3 0.8 0 0 0 9.5 17.5 L9.5 17" fill="currentColor" opacity="0.3"/>
  <ellipse cx="6.5" cy="17" rx="3" ry="2.5" stroke="currentColor" stroke-width="1.5"/>
  <ellipse cx="6.5" cy="17" rx="1.2" ry="0.9" fill="currentColor"/>

  <!-- Tertiary rosette -->
  <ellipse cx="17.5" cy="16.5" rx="2.8" ry="0.7" fill="currentColor" opacity="0.2"/>
  <path d="M14.7 16 L14.7 16.5 A2.8 0.7 0 0 0 20.3 16.5 L20.3 16" fill="currentColor" opacity="0.3"/>
  <ellipse cx="17.5" cy="16" rx="2.8" ry="2.2" stroke="currentColor" stroke-width="1.5"/>
  <ellipse cx="17.5" cy="16" rx="1" ry="0.7" fill="currentColor"/>
</svg>
