<svg width="266" height="15" viewBox="0 0 266 15" fill="none" xmlns="http://www.w3.org/2000/svg">
<path d="M6.7 14.6C5.35333 14.6 4.17333 14.32 3.16 13.76C2.16 13.2 1.38 12.4133 0.82 11.4C0.273333 10.3733 0 9.17333 0 7.8V0.599998H2V7.8C2 8.77333 2.19333 9.62 2.58 10.34C2.96667 11.06 3.51333 11.62 4.22 12.02C4.92667 12.4067 5.75333 12.6 6.7 12.6H7.4V14.6H6.7ZM6.59219 14.6V12.6H19.3922V14.6H6.59219ZM18.5844 14.6V12.6H31.3844V14.6H18.5844ZM30.5766 14.6V12.6H43.3766V14.6H30.5766ZM42.5687 14.6V12.6H55.3688V14.6H42.5687ZM54.5609 14.6V12.6H67.3609V14.6H54.5609ZM66.5531 14.6V12.6H79.3531V14.6H66.5531ZM78.5453 14.6V12.6H91.3453V14.6H78.5453ZM90.5375 14.6V12.6H103.338V14.6H90.5375ZM102.53 14.6V12.6H115.33V14.6H102.53ZM114.522 14.6V12.6H127.322V14.6H114.522ZM126.514 14.6V12.6H139.314V14.6H126.514ZM138.506 14.6V12.6H151.306V14.6H138.506ZM150.498 14.6V12.6H163.298V14.6H150.498ZM162.491 14.6V12.6H175.291V14.6H162.491ZM174.483 14.6V12.6H187.283V14.6H174.483ZM186.475 14.6V12.6H199.275V14.6H186.475ZM198.467 14.6V12.6H211.267V14.6H198.467ZM210.459 14.6V12.6H223.259V14.6H210.459ZM222.452 14.6V12.6H235.252V14.6H222.452ZM234.444 14.6V12.6H247.244V14.6H234.444ZM246.436 14.6V12.6H259.236V14.6H246.436ZM258.428 14.6V12.6H259.128C260.088 12.6 260.915 12.4067 261.608 12.02C262.315 11.62 262.861 11.06 263.248 10.34C263.635 9.62 263.828 8.77333 263.828 7.8V0.599998H265.828V7.8C265.828 9.17333 265.548 10.3733 264.988 11.4C264.441 12.4133 263.668 13.2 262.668 13.76C261.668 14.32 260.488 14.6 259.128 14.6H258.428Z" fill="#008B8B"/>
</svg>
