<svg width="266" height="22" viewBox="0 0 266 22" fill="none" xmlns="http://www.w3.org/2000/svg">
<path d="M0 22V14.4C0 13.0267 0.273333 11.8333 0.82 10.82C1.38 9.79333 2.16 9 3.16 8.44C4.17333 7.88 5.35333 7.6 6.7 7.6H7.4V9.6H6.7C5.75333 9.6 4.92667 9.8 4.22 10.2C3.51333 10.5867 2.96667 11.14 2.58 11.86C2.19333 12.58 2 13.4267 2 14.4V22H0ZM6.59219 9.6V7.6H19.3922V9.6H6.59219ZM18.5844 9.6V7.6H31.3844V9.6H18.5844ZM30.5766 9.6V7.6H43.3766V9.6H30.5766ZM42.5687 9.6V7.6H55.3688V9.6H42.5687ZM54.5609 9.6V7.6H67.3609V9.6H54.5609ZM66.5531 9.6V7.6H79.3531V9.6H66.5531ZM96.9375 16.18C96.0042 16.18 95.1908 16.0067 94.4975 15.66C93.8175 15.3 93.2842 14.8 92.8975 14.16C92.5242 13.5067 92.3375 12.74 92.3375 11.86V9.14C92.3375 8.26 92.5242 7.5 92.8975 6.86C93.2842 6.20667 93.8175 5.70667 94.4975 5.36C95.1908 5 96.0042 4.82 96.9375 4.82C97.8842 4.82 98.6975 5 99.3775 5.36C100.058 5.70667 100.584 6.20667 100.958 6.86C101.344 7.5 101.538 8.25333 101.538 9.12V11.86C101.538 12.74 101.344 13.5067 100.958 14.16C100.584 14.8 100.058 15.3 99.3775 15.66C98.6975 16.0067 97.8842 16.18 96.9375 16.18ZM96.9375 14C97.6042 14 98.1175 13.82 98.4775 13.46C98.8508 13.0867 99.0375 12.5533 99.0375 11.86V9.14C99.0375 8.43333 98.8508 7.9 98.4775 7.54C98.1175 7.18 97.6042 7 96.9375 7C96.2842 7 95.7708 7.18 95.3975 7.54C95.0242 7.9 94.8375 8.43333 94.8375 9.14V11.86C94.8375 12.5533 95.0242 13.0867 95.3975 13.46C95.7708 13.82 96.2842 14 96.9375 14ZM108.93 16.2C107.53 16.2 106.43 15.8133 105.63 15.04C104.83 14.2533 104.43 13.1867 104.43 11.84V5H106.93V11.82C106.93 12.5267 107.103 13.0733 107.45 13.46C107.796 13.8333 108.29 14.02 108.93 14.02C109.556 14.02 110.043 13.8333 110.39 13.46C110.75 13.0733 110.93 12.5267 110.93 11.82V5H113.43V11.84C113.43 13.1867 113.023 14.2533 112.21 15.04C111.396 15.8133 110.303 16.2 108.93 16.2ZM122.122 16C121.069 16 120.242 15.7067 119.642 15.12C119.055 14.5333 118.762 13.7267 118.762 12.7V7.26H115.782V5H118.762V1.9H121.282V5H125.502V7.26H121.282V12.7C121.282 13.3933 121.622 13.74 122.302 13.74H125.302V16H122.122ZM134.594 16C133.874 16 133.241 15.8533 132.694 15.56C132.161 15.2667 131.741 14.8533 131.434 14.32C131.127 13.7733 130.974 13.1467 130.974 12.44V3.66H127.454V1.4H133.474V12.44C133.474 12.84 133.587 13.16 133.814 13.4C134.054 13.6267 134.374 13.74 134.774 13.74H138.094V16H134.594ZM140.426 16V13.72H144.266V7.26H140.926V5H146.666V13.72H150.066V16H140.426ZM145.266 3.16C144.76 3.16 144.36 3.03333 144.066 2.78C143.773 2.51333 143.626 2.16 143.626 1.72C143.626 1.28 143.773 0.933333 144.066 0.679999C144.36 0.413333 144.76 0.28 145.266 0.28C145.773 0.28 146.173 0.413333 146.466 0.679999C146.76 0.933333 146.906 1.28 146.906 1.72C146.906 2.16 146.76 2.51333 146.466 2.78C146.173 3.03333 145.773 3.16 145.266 3.16ZM154.998 16V8.48H151.978V6.22H154.998V4.56C154.998 3.6 155.318 2.83333 155.958 2.26C156.598 1.68667 157.445 1.4 158.498 1.4H161.718V3.6H158.558C158.238 3.6 157.978 3.69333 157.778 3.88C157.592 4.05333 157.498 4.29333 157.498 4.6V6.22H161.718V8.48H157.498V16H154.998ZM166.211 19.6L167.751 15.4L163.651 5H166.391L168.431 10.62C168.537 10.9267 168.644 11.3 168.751 11.74C168.857 12.1667 168.937 12.52 168.991 12.8C169.057 12.52 169.144 12.1667 169.251 11.74C169.357 11.3 169.464 10.9267 169.571 10.62L171.491 5H174.131L168.831 19.6H166.211ZM186.475 9.6V7.6H199.275V9.6H186.475ZM198.467 9.6V7.6H211.267V9.6H198.467ZM210.459 9.6V7.6H223.259V9.6H210.459ZM222.452 9.6V7.6H235.252V9.6H222.452ZM234.444 9.6V7.6H247.244V9.6H234.444ZM246.436 9.6V7.6H259.236V9.6H246.436ZM263.828 22V14.4C263.828 13.4267 263.635 12.58 263.248 11.86C262.861 11.14 262.315 10.5867 261.608 10.2C260.915 9.8 260.088 9.6 259.128 9.6H258.428V7.6H259.128C260.488 7.6 261.668 7.88 262.668 8.44C263.668 9 264.441 9.79333 264.988 10.82C265.548 11.8333 265.828 13.0267 265.828 14.4V22H263.828Z" fill="#008B8B"/>
</svg>
